<?xml version="1.0" encoding="UTF-8"?> <svg xmlns="http://www.w3.org/2000/svg" xmlns:xlink="http://www.w3.org/1999/xlink" viewBox="0 0 794.88 794.88"><defs><style>.cls-1{isolation:isolate;}.cls-2,.cls-4{fill:#fff;}.cls-3,.cls-6{mix-blend-mode:multiply;}.cls-3{fill:url(#linear-gradient);}.cls-4{font-size:172.98px;font-family:Mont-SemiBold, Mont;font-weight:700;}.cls-5{letter-spacing:-0.03em;}.cls-6{fill:url(#linear-gradient-2);}</style><linearGradient id="linear-gradient" x1="257.38" y1="452.75" x2="285.64" y2="373.57" gradientUnits="userSpaceOnUse"><stop offset="0.39" stop-color="#fff" stop-opacity="0"></stop><stop offset="1" stop-color="#797b7d"></stop></linearGradient><linearGradient id="linear-gradient-2" x1="141.78" y1="439.38" x2="180.77" y2="372.72" gradientUnits="userSpaceOnUse"><stop offset="0" stop-color="#797b7d"></stop><stop offset="0.61" stop-color="#fff" stop-opacity="0"></stop></linearGradient></defs><title>Artboard 23Brochure</title><g class="cls-1"><g id="Layer_1" data-name="Layer 1"><path class="cls-2" d="M186,358.77h-.34a25.12,25.12,0,0,0-17.91,7.48,27.27,27.27,0,0,0-5,6.37L160.85,376c-4.91,8.69-20.68,36.65-22.91,40.15-1,1.56-2,3.07-3,4.47a21.53,21.53,0,0,1-3.05,3.63L155,448.9l22.83-41,24.09-43.21A25.08,25.08,0,0,0,186,358.77Z"></path><path class="cls-2" d="M203.11,386.07V383.3a24.54,24.54,0,0,1,24.53-24.54h99.93v2.78A24.54,24.54,0,0,1,303,386.07h-5.48a17.16,17.16,0,0,0-17.16,17.16v51.28a29.73,29.73,0,0,1-29.73,29.73H249V386.07Z"></path><path class="cls-3" d="M297.56,386.07c-17.76,0-48.52.45-48.52,25.43v72.74c17.32,0,31.35-15.14,31.35-32.45V403.25A17.18,17.18,0,0,1,297.56,386.07Z"></path><path class="cls-2" d="M696.72,362.56a34.49,34.49,0,0,0,31.63-20.73H665.09A34.49,34.49,0,0,0,696.72,362.56Z"></path><path class="cls-2" d="M707.09,373.46a34.48,34.48,0,0,1,21.26-31.76V405A33.86,33.86,0,0,1,707.09,373.46Z"></path><text class="cls-4" transform="translate(334.32 483.69)">ba<tspan class="cls-5" x="239.37" y="0">y</tspan></text><path class="cls-6" d="M186,358.77h-.34a25.12,25.12,0,0,0-17.91,7.48,27.27,27.27,0,0,0-5,6.37L160.85,376c-4.91,8.69-20.68,36.65-22.91,40.15-1,1.56-2,3.07-3,4.47a21.53,21.53,0,0,1-3.05,3.63L155,448.9l22.83-41,24.09-43.21A25.08,25.08,0,0,0,186,358.77Z"></path><path class="cls-2" d="M155.24,429.86c-12.89,1.81-19.55-9.09-19.66-9.24-1.06-1.4-2.05-2.91-3.05-4.47-2.23-3.5-18-31.46-22.91-40.15-.63-1.13-1.27-2.26-1.91-3.39a27.27,27.27,0,0,0-23.23-13.84,25.08,25.08,0,0,0-15.93,6l24.09,43.21,42.54,76.31,37.43-66.39C170.26,422,166.28,428.31,155.24,429.86Z"></path></g></g></svg> 