<?xml version="1.0" encoding="UTF-8"?> <svg xmlns="http://www.w3.org/2000/svg" xmlns:xlink="http://www.w3.org/1999/xlink" viewBox="0 0 794.88 794.88"><defs><style>.cls-1{isolation:isolate;}.cls-2{fill:#fff;}.cls-3,.cls-4{mix-blend-mode:multiply;}.cls-3{fill:url(#linear-gradient);}.cls-4{fill:url(#linear-gradient-2);}</style><linearGradient id="linear-gradient" x1="263.76" y1="437.82" x2="292.02" y2="358.63" gradientUnits="userSpaceOnUse"><stop offset="0.39" stop-color="#fff" stop-opacity="0"></stop><stop offset="1" stop-color="#797b7d"></stop></linearGradient><linearGradient id="linear-gradient-2" x1="148.15" y1="424.45" x2="187.14" y2="357.78" gradientUnits="userSpaceOnUse"><stop offset="0" stop-color="#797b7d"></stop><stop offset="0.61" stop-color="#fff" stop-opacity="0"></stop></linearGradient></defs><title>Artboard 24Brochure</title><g class="cls-1"><g id="Layer_1" data-name="Layer 1"><path class="cls-2" d="M353.22,465.82V341.15h18.84V465.82Z"></path><path class="cls-2" d="M466.27,461.8a53.31,53.31,0,0,1-50.13,0,45.91,45.91,0,0,1-17.6-17.27,50.76,50.76,0,0,1,0-49.31A45.58,45.58,0,0,1,416.14,378a53.61,53.61,0,0,1,50.13,0,45.43,45.43,0,0,1,17.6,17.27,50.66,50.66,0,0,1,0,49.26A45.85,45.85,0,0,1,466.27,461.8Zm-46.52-20.22q8.43,8.48,21.46,8.47t21.45-8.47q8.43-8.46,8.43-21.66t-8.43-21.67q-8.42-8.46-21.45-8.46t-21.46,8.46q-8.43,8.47-8.42,21.67T419.75,441.58Z"></path><path class="cls-2" d="M585.47,374h12.37v79.76q0,22-12.24,34.58T552,500.93q-17.6,0-29.51-8.59t-15.4-23.7H526a21,21,0,0,0,9.75,11.46,31.72,31.72,0,0,0,16.14,4.15q12.12,0,19.8-7.51t7.68-20.38v-4.24a47.18,47.18,0,0,1-53.37,5,43.94,43.94,0,0,1-16.36-16.48,48,48,0,0,1,0-46.28,43.77,43.77,0,0,1,16.35-16.56,45.1,45.1,0,0,1,23-6.05,46.4,46.4,0,0,1,18.55,3.73,44.85,44.85,0,0,1,15,10.38Zm-54.62,63.62q8.05,8,20.26,8t20.17-8q8-8,8-20.17t-7.93-20.17q-7.94-8-20.21-8t-20.26,8q-8.05,8-8.05,20.13T530.85,437.64Z"></path><path class="cls-2" d="M698.05,420.76c10.59-13.28,4-32.68,4-32.68l-7.22-8.61h-28.4Z"></path><path class="cls-2" d="M701.67,423.61c-10.58,13.28-33.85,42.85-33.85,42.85h28.65L732.25,423l-12.6-15.19-14-16.91S712.26,410.34,701.67,423.61Z"></path><path class="cls-2" d="M651.36,421.38c7.59-9.52,2.83-23.44,2.83-23.44L649,391.77H628.64Z"></path><path class="cls-2" d="M654,423.43c-7.6,9.52-24.28,30.73-24.28,30.73h20.54L675.89,423l-9-10.89L656.79,400S661.55,413.91,654,423.43Z"></path><path class="cls-2" d="M192.36,343.83H192a25.08,25.08,0,0,0-17.91,7.48,27.31,27.31,0,0,0-5,6.37c-.63,1.13-1.27,2.26-1.91,3.39-4.9,8.69-20.67,36.65-22.9,40.15-1,1.56-2,3.07-3,4.47a21,21,0,0,1-3.05,3.63L161.37,434l22.84-41,24.09-43.21A25.08,25.08,0,0,0,192.36,343.83Z"></path><path class="cls-2" d="M209.48,371.13v-2.77A24.54,24.54,0,0,1,234,343.82h99.92v2.78a24.53,24.53,0,0,1-24.53,24.53h-5.49a17.16,17.16,0,0,0-17.15,17.16v51.28A29.73,29.73,0,0,1,257,469.3h-1.62V371.13Z"></path><path class="cls-3" d="M303.94,371.13c-17.76,0-48.52.45-48.52,25.43V469.3c17.31,0,31.35-15.14,31.35-32.45V388.31A17.17,17.17,0,0,1,303.94,371.13Z"></path><path class="cls-4" d="M192.36,343.83H192a25.08,25.08,0,0,0-17.91,7.48,27.31,27.31,0,0,0-5,6.37c-.63,1.13-1.27,2.26-1.91,3.39-4.9,8.69-20.67,36.65-22.9,40.15-1,1.56-2,3.07-3,4.47a21,21,0,0,1-3.05,3.63L161.37,434l22.84-41,24.09-43.21A25.08,25.08,0,0,0,192.36,343.83Z"></path><path class="cls-2" d="M161.62,414.92c-12.89,1.81-19.56-9.09-19.67-9.24-1.06-1.4-2-2.91-3-4.47-2.24-3.5-18-31.46-22.91-40.15l-1.91-3.39a27.27,27.27,0,0,0-23.23-13.84,25.12,25.12,0,0,0-15.94,5.95L99,393l42.54,76.31S174.41,411,179,402.91C176.64,407.06,172.65,413.37,161.62,414.92Z"></path></g></g></svg> 