<?xml version="1.0" encoding="UTF-8"?> <svg xmlns="http://www.w3.org/2000/svg" xmlns:xlink="http://www.w3.org/1999/xlink" viewBox="0 0 1123.06 794.88"><defs><style>.cls-1{isolation:isolate;}.cls-2,.cls-5{fill:#fff;}.cls-3,.cls-4{mix-blend-mode:multiply;}.cls-3{fill:url(#linear-gradient);}.cls-4{fill:url(#linear-gradient-2);}.cls-5{font-size:178.25px;font-family:Mont-SemiBold, Mont;font-weight:700;}.cls-6{letter-spacing:0em;}.cls-7{letter-spacing:-0.01em;}</style><linearGradient id="linear-gradient" x1="169.17" y1="413.32" x2="209.35" y2="344.62" gradientUnits="userSpaceOnUse"><stop offset="0" stop-color="#797b7d"></stop><stop offset="0.61" stop-color="#fff" stop-opacity="0"></stop></linearGradient><linearGradient id="linear-gradient-2" x1="288.3" y1="427.09" x2="317.42" y2="345.49" gradientUnits="userSpaceOnUse"><stop offset="0.39" stop-color="#fff" stop-opacity="0"></stop><stop offset="1" stop-color="#797b7d"></stop></linearGradient></defs><title>Artboard 28Brochure</title><g class="cls-1"><g id="Layer_1" data-name="Layer 1"><path class="cls-2" d="M214.73,330.25h-.35a25.88,25.88,0,0,0-18.46,7.7,28.27,28.27,0,0,0-5.13,6.57l-2,3.49c-5,8.95-21.3,37.76-23.6,41.37-1,1.61-2.05,3.17-3.14,4.61a21.6,21.6,0,0,1-3.14,3.74l23.85,25.4,23.53-42.21,24.83-44.53A25.87,25.87,0,0,0,214.73,330.25Z"></path><path class="cls-3" d="M214.73,330.25h-.35a25.88,25.88,0,0,0-18.46,7.7,28.27,28.27,0,0,0-5.13,6.57l-2,3.49c-5,8.95-21.3,37.76-23.6,41.37-1,1.61-2.05,3.17-3.14,4.61a21.6,21.6,0,0,1-3.14,3.74l23.85,25.4,23.53-42.21,24.83-44.53A25.87,25.87,0,0,0,214.73,330.25Z"></path><path class="cls-2" d="M232.37,358.38v-2.86a25.28,25.28,0,0,1,25.28-25.28h103v2.86a25.28,25.28,0,0,1-25.28,25.28h-5.65A17.69,17.69,0,0,0,312,376.06v52.85a30.63,30.63,0,0,1-30.63,30.63H279.7V358.38Z"></path><path class="cls-4" d="M329.7,358.38c-18.3,0-50,.47-50,26.2v75c17.84,0,32.3-15.6,32.3-33.44v-50A17.7,17.7,0,0,1,329.7,358.38Z"></path><text class="cls-5" transform="translate(367.58 458.97)">po<tspan class="cls-6" x="239.7" y="0">s</tspan><tspan class="cls-7" x="331.08" y="0">t</tspan><tspan x="403.06" y="0">ek</tspan></text><rect class="cls-2" x="982.25" y="341.68" width="21.25" height="21.25"></rect><rect class="cls-2" x="1003.5" y="327.88" width="14.29" height="14.29"></rect><rect class="cls-2" x="985.1" y="310.2" width="17.69" height="17.69"></rect><rect class="cls-2" x="1017.79" y="313.59" width="14.29" height="14.29"></rect><path class="cls-2" d="M183,403.5c-13.28,1.86-20.14-9.37-20.26-9.52-1.09-1.44-2.11-3-3.14-4.61C157.34,385.76,141.09,357,136,348l-2-3.49a28.05,28.05,0,0,0-23.94-14.26,25.87,25.87,0,0,0-16.42,6.13l24.83,44.53,43.83,78.63,38.57-68.42C198.52,395.4,194.42,401.9,183,403.5Z"></path></g></g></svg> 