<?xml version="1.0" encoding="UTF-8"?> <svg xmlns="http://www.w3.org/2000/svg" xmlns:xlink="http://www.w3.org/1999/xlink" viewBox="0 0 794.88 794.88"><defs><style>.cls-1{isolation:isolate;}.cls-2{fill:#fff;}.cls-3,.cls-4{mix-blend-mode:multiply;}.cls-3{fill:url(#linear-gradient);}.cls-4{fill:url(#linear-gradient-2);}</style><linearGradient id="linear-gradient" x1="249.91" y1="437.88" x2="276.11" y2="364.45" gradientTransform="translate(-2.52 -1.17) rotate(0.06)" gradientUnits="userSpaceOnUse"><stop offset="0.39" stop-color="#fff" stop-opacity="0"></stop><stop offset="1" stop-color="#797b7d"></stop></linearGradient><linearGradient id="linear-gradient-2" x1="142.72" y1="425.48" x2="178.87" y2="363.67" gradientTransform="translate(-2.52 -1.17) rotate(0.06)" gradientUnits="userSpaceOnUse"><stop offset="0" stop-color="#797b7d"></stop><stop offset="0.61" stop-color="#fff" stop-opacity="0"></stop></linearGradient></defs><title>Artboard 27Brochure</title><g class="cls-1"><g id="Layer_1" data-name="Layer 1"><path class="cls-2" d="M388.75,459.64q-9.3,7.28-24.57,7.26t-24.51-7.8q-9.26-7.8-9.62-20.8l16.78,0a12.19,12.19,0,0,0,5.24,9.94q4.95,3.53,12.73,3.53,7.11,0,11.72-2.9a9,9,0,0,0,4.62-8,7.75,7.75,0,0,0-1.1-4.08,9.54,9.54,0,0,0-2.64-2.91,16.43,16.43,0,0,0-4.38-2,49.73,49.73,0,0,0-5.06-1.36q-2.23-.46-6-1.14t-6.12-1.14q-2.26-.46-5.89-1.48a32.51,32.51,0,0,1-5.86-2.16,39.52,39.52,0,0,1-4.87-3,15.39,15.39,0,0,1-4.11-4.2,23,23,0,0,1-2.49-5.63,24.61,24.61,0,0,1-1-7.33,22.07,22.07,0,0,1,9-18.24q9-7,23.47-7t23.31,7.32q8.81,7.29,9,19.47l-16.25,0a11,11,0,0,0-4.52-9q-4.3-3.14-11.94-3.15-7.09,0-11.26,2.75a8.49,8.49,0,0,0-4.17,7.37,7.92,7.92,0,0,0,.61,3.21,6,6,0,0,0,2.07,2.46,23.15,23.15,0,0,0,2.8,1.74,18.36,18.36,0,0,0,3.92,1.29c1.74.4,3.16.72,4.27.95s2.75.51,4.91.87q12.26,2.06,17.61,4.33,12.84,5.52,13.58,19.43c.05.61.08,1.26.08,2Q398.06,452.36,388.75,459.64Z"></path><path class="cls-2" d="M484.59,381.33l15.18.09-.08,83.51-15.19,0-.3-10.12a40.41,40.41,0,0,1-13.53,9,45.8,45.8,0,0,1-39-2.53,41,41,0,0,1-15.62-15.81,47.12,47.12,0,0,1,0-44.82A40.9,40.9,0,0,1,431.75,385a46.06,46.06,0,0,1,39.15-2.38,39.76,39.76,0,0,1,13.6,9.23Zm-49,61.35q7.78,7.83,19.57,7.84t19.54-7.8q7.75-7.82,7.77-19.6t-7.73-19.58q-7.74-7.8-19.52-7.81t-19.59,7.8a26.6,26.6,0,0,0-7.8,19.53Q427.85,434.85,435.62,442.68Z"></path><path class="cls-2" d="M524.17,465l.12-113.51,17.16,0-.12,113.51Z"></path><path class="cls-2" d="M180.83,349.75h-.32a23.3,23.3,0,0,0-16.61,6.91,25.33,25.33,0,0,0-4.63,5.91l-1.77,3.13c-4.56,8.06-19.21,34-21.28,37.21-.92,1.45-1.84,2.85-2.83,4.14a19.14,19.14,0,0,1-2.83,3.37L152,433.29l21.21-38,22.38-40A23.25,23.25,0,0,0,180.83,349.75Z"></path><path class="cls-2" d="M196.67,375.09v-2.58a22.75,22.75,0,0,1,22.78-22.72l92.64.09v2.58a22.74,22.74,0,0,1-22.77,22.72h-5.08a15.91,15.91,0,0,0-15.93,15.89l-.05,47.55a27.56,27.56,0,0,1-27.59,27.53h-1.5l.09-91Z"></path><path class="cls-3" d="M284.25,375.18c-16.47,0-45,.37-45,23.53l-.07,67.44c16.05,0,29.08-14,29.09-30.06l.05-45A15.92,15.92,0,0,1,284.25,375.18Z"></path><path class="cls-2" d="M642,423.3a48.21,48.21,0,0,1-.38,5.58H573.79q1.59,10.13,8.46,16t17.13,5.89a26.9,26.9,0,0,0,13.25-3.25,23.63,23.63,0,0,0,9.17-9h18.12a43.17,43.17,0,0,1-15.78,20.75,42.1,42.1,0,0,1-24.76,7.55q-18.27,0-30.57-12.56t-12.3-31.22a45.19,45.19,0,0,1,5.58-22.34A40.87,40.87,0,0,1,577.49,385a42.78,42.78,0,0,1,21.89-5.7,42.22,42.22,0,0,1,22.27,5.93,40.09,40.09,0,0,1,15.06,15.92A47,47,0,0,1,642,423.3Zm-42.58-28.54a25.11,25.11,0,0,0-16.3,5.44A25.56,25.56,0,0,0,574.25,415h50.5a26.37,26.37,0,0,0-9.1-14.87A25.39,25.39,0,0,0,599.38,394.76Z"></path><path class="cls-2" d="M724.09,329c-1-.29-1.42-.58-2.36-.86a1.21,1.21,0,0,1-.14-2.26l12.62-5.63a1.21,1.21,0,0,1,1.67,1.37c-1.09,4.72-1,8.23-2.07,12.89a1.21,1.21,0,0,1-2.2.37l-.9-1.42a1.2,1.2,0,0,0-2,0c-10.2,16.22-21.29,33.06-31.53,49.35a1.21,1.21,0,0,1-1.85.24l-12.86-12.13a1.21,1.21,0,0,0-1.84.23l-21.06,33.08a1.21,1.21,0,0,1-2.1-.12c-1.84-3.75-3.53-7.15-5.07-10.62a3.06,3.06,0,0,1,.63-2.6c9.13-10.47,18.33-20.88,27.76-31.57a1.21,1.21,0,0,1,1.81,0l10.87,12.31a1.21,1.21,0,0,0,1.88-.09c10-13.59,19.34-27,29.4-40.66A1.2,1.2,0,0,0,724.09,329Z"></path><path class="cls-2" d="M728.44,344.87c3,.1,2.57,4.95,2.57,6.84.21,10.9.07,21.25.08,32.15,0,10.61-10.1,20.75-20.33,20.21-13.64-.72-27.34-.16-41-.21a29.53,29.53,0,0,1-3-.15,1.45,1.45,0,0,1-.83-1.92,16.54,16.54,0,0,1,2.57-4.42,6.53,6.53,0,0,1,4.52-1.73c12-.14,23.91-.07,35.87-.08,9.19,0,13.71-4.44,13.8-13.71.08-7.75,0-15.49,0-23.24,0-9.32-.83-12.63,2.44-13.64l.2,0A14.53,14.53,0,0,1,728.44,344.87Z"></path><path class="cls-2" d="M653.58,383.3a1.11,1.11,0,0,1-1.89-.79c0-13.47-.26-26.58.1-39.68A18.7,18.7,0,0,1,670.15,325c13.1-.26,26.21,0,39.32-.07,1.4,0,3.71.11,3.8,1.91.19,7.64.29,6.36-7.6,6.36q-16.5,0-33,0c-7.79,0-12.67,4.85-12.71,12.71,0,9.19-.07,18.38,0,27.56,0,2.46-.46,4.44-2.4,6.09C656.23,380.67,655,381.93,653.58,383.3Z"></path><path class="cls-4" d="M180.83,349.75h-.32a23.3,23.3,0,0,0-16.61,6.91,25.33,25.33,0,0,0-4.63,5.91l-1.77,3.13c-4.56,8.06-19.21,34-21.28,37.21-.92,1.45-1.84,2.85-2.83,4.14a19.14,19.14,0,0,1-2.83,3.37L152,433.29l21.21-38,22.38-40A23.25,23.25,0,0,0,180.83,349.75Z"></path><path class="cls-2" d="M152.25,415.64c-11.95,1.66-18.12-8.45-18.23-8.59-1-1.29-1.89-2.7-2.82-4.15-2.06-3.25-16.66-29.18-21.2-37.24-.59-1.05-1.17-2.1-1.76-3.14a25.29,25.29,0,0,0-21.53-12.86,23.21,23.21,0,0,0-14.78,5.5l22.3,40.09L133.6,466l34.77-61.52C166.18,408.36,162.48,414.21,152.25,415.64Z"></path></g></g></svg> 