<svg width="40" height="35" viewBox="0 0 40 35" fill="none" xmlns="http://www.w3.org/2000/svg">
<path d="M30.1334 8.99489L15.7555 0.830414C15.6318 0.760183 15.4792 0.760183 15.3556 0.830414L0.977798 8.99483C0.854036 9.06513 0.777832 9.19501 0.777832 9.33547V25.6644C0.777832 25.805 0.854036 25.9348 0.977798 26.005L15.3556 34.1695C15.4174 34.2047 15.4865 34.2222 15.5556 34.2222C15.6247 34.2222 15.6937 34.2047 15.7555 34.1695L30.1334 26.005C30.2572 25.9347 30.3334 25.8049 30.3334 25.6644V9.33554C30.3333 9.19507 30.2571 9.06512 30.1334 8.99489Z" fill="#00837B"/>
<path d="M30.3329 26.1555C16.8497 32.6505 15.2005 17.8889 15.2005 17.8889H14.7773V34.0546L14.9943 34.171C15.0581 34.2052 15.1293 34.2222 15.2005 34.2222C15.2717 34.2222 15.343 34.2052 15.4069 34.1709L30.2728 26.196C30.2944 26.1842 30.3141 26.1703 30.3329 26.1555Z" fill="#007D74"/>
<path d="M0.831421 8.55554C0.796883 8.61575 0.777832 8.68499 0.777832 8.75686V25.4655C0.777832 25.6091 0.853967 25.742 0.977524 25.8138L15.3561 34.1685C15.4178 34.2043 15.4867 34.2222 15.5556 34.2222V17.1112L0.831421 8.55554Z" fill="#007D74"/>
<path d="M5.94753 19.1088L8.83816 20.9522C9.02808 21.0437 9.33371 21.0774 9.33371 20.3466V14.1468L5.44482 11.6667V18.2287C5.45827 18.4392 5.53957 18.848 5.94753 19.1088Z" fill="#EFD89C"/>
<path d="M7.77808 12.7662L5.44482 11.6667V17.8203C5.46189 18.0177 5.56514 18.4011 6.08282 18.6456L7.77816 19.4444V12.7662H7.77808Z" fill="#D8B880"/>
<path d="M9.04036 28.3248L8.954 28.2757L8.95382 28.2757V28.2756L5.85575 26.5141C5.44168 26.279 5.44482 26.7144 5.44482 26.7144V28.8998L9.33371 31.1111V28.9155C9.33365 28.5786 9.15243 28.4019 9.04036 28.3248Z" fill="#EFD89C"/>
<path d="M7.00038 27.1862L5.81417 26.5074C5.442 26.2948 5.44482 26.6887 5.44482 26.6887V28.6654L7.00038 29.5556V27.1862Z" fill="#D8B880"/>
<path d="M15.5556 17.8889C13.3451 16.5445 11.969 15.0747 11.1905 13.5745C9.38702 10.8163 8.42048 6.9035 11.8437 2.33334L0.924536 8.87861C0.862567 8.91581 0.812496 8.96879 0.777832 9.03092L15.5556 17.8889Z" fill="#007D74"/>
<path d="M19.8958 3.1111L5.44482 12.143L9.66056 14.7778C19.9877 8.33282 23.5491 6.09745 24.1115 5.74597L19.8958 3.1111Z" fill="#E2C688"/>
<path d="M11.667 13.7185C10.8284 12.2465 10.1691 10.5087 10.0076 8.55554L5.44482 11.6368L10.0961 14.7778L11.667 13.7185Z" fill="#DBBD82"/>
<path d="M22.5559 4.33408L20.4865 3.1111L5.44482 11.9993L7.51445 13.2222L22.5559 4.33408Z" fill="#D3B475"/>
<path d="M10.1115 11.2232C9.87001 10.3862 9.69946 9.49535 9.62968 8.55554L5.44482 11.707L7.45696 13.2222L10.1115 11.2232Z" fill="#C9A86D"/>
<path d="M30.5872 15.4122C30.8767 15.4122 31.1111 15.1826 31.1111 14.8995V9.00478C31.1111 8.82157 31.0112 8.65245 30.8491 8.56085C30.1725 8.17859 16.4931 0.450352 15.8174 0.0687012C15.6553 -0.0229004 15.4556 -0.0229004 15.2935 0.0687012L0.261973 8.56085C0.0998991 8.65245 0 8.82164 0 9.00478V25.989C0 26.1722 0.0998991 26.3413 0.261973 26.4329C16.3749 35.5361 15.3409 34.9939 15.5554 34.9939C15.7632 34.9939 14.7638 35.5204 30.8491 26.433C31.0111 26.3414 31.111 26.1722 31.111 25.9891V16.8135C31.111 16.5303 30.8765 16.3008 30.5872 16.3008C30.2977 16.3008 30.0633 16.5304 30.0633 16.8135V25.6931L16.0794 33.5932V17.7929L30.0633 9.89263V14.8995C30.0634 15.1826 30.2978 15.4122 30.5872 15.4122ZM19.1929 3.15957L5.20908 11.0597L1.5717 9.00471L15.5555 1.10448L19.1929 3.15957ZM9.07056 30.2256L5.72359 28.3347V26.5803L9.07056 28.4712V30.2256ZM1.04775 9.89263L4.67577 11.9423V18.7786C4.67577 18.9618 4.77567 19.1309 4.93774 19.2225C9.71732 21.9227 9.39646 21.774 9.59444 21.774C9.88324 21.774 10.1183 21.5448 10.1183 21.2614V15.0171C11.1993 15.6278 14.0263 17.2249 15.0315 17.7929V33.5932L10.1183 30.8176V28.1752C10.1183 27.992 10.0184 27.8229 9.85634 27.7313L5.46155 25.2485C5.1126 25.0513 4.6757 25.2986 4.6757 25.6924V27.7428L1.04768 25.6931C1.04775 25.6931 1.04775 9.89263 1.04775 9.89263ZM9.07056 14.4281V20.3736L5.72359 18.4827V12.5372L9.07056 14.4281ZM15.5554 16.905L10.6424 14.1294L19.185 9.31041C19.4357 9.16898 19.5217 8.85555 19.3773 8.61028C19.2327 8.36493 18.9124 8.28078 18.6617 8.42215L9.59437 13.5371L6.2569 11.6517L20.2407 3.75143C20.6499 3.98269 23.1771 5.41037 23.578 5.63692L20.2642 7.50907C20.0136 7.65065 19.9279 7.96414 20.0725 8.20935C20.2171 8.45455 20.5376 8.53857 20.7881 8.39699L24.6258 6.22891L29.5394 9.00478L15.5554 16.905Z" fill="#111111"/>
<path d="M27.1552 15.0165C27.0164 14.7882 26.7089 14.71 26.4686 14.8418L19.6962 18.554C19.4558 18.6857 19.3735 18.9776 19.5122 19.2058C19.651 19.4342 19.9586 19.5121 20.1988 19.3805L26.9712 15.6683C27.2116 15.5365 27.294 15.2447 27.1552 15.0165Z" fill="black"/>
<path d="M26.4686 16.408L19.6962 20.7389C19.4558 20.8926 19.3735 21.2331 19.5122 21.4993C19.6512 21.7659 19.9587 21.8566 20.1988 21.7031L26.9712 17.3723C27.2116 17.2185 27.2939 16.8781 27.1552 16.6118C27.0165 16.3455 26.7089 16.2543 26.4686 16.408Z" fill="black"/>
<path d="M31.1113 17.8611C35.3915 17.8611 38.8613 14.3913 38.8613 10.1111C38.8613 5.83089 35.3915 2.3611 31.1113 2.3611C26.8311 2.3611 23.3613 5.83089 23.3613 10.1111C23.3613 14.3913 26.8311 17.8611 31.1113 17.8611Z" fill="#EFD89C" stroke="#111111" stroke-width="1.5"/>
<path d="M35.0002 4.05601C30.1867 1.37297 24.1113 4.72022 24.1113 10.1112C24.1113 15.5165 30.1961 18.8445 35.0002 16.1663C30.1641 13.4703 30.1654 6.75174 35.0002 4.05601Z" fill="#D8B880"/>
<path d="M33.7806 7.98176L30.1094 11.5644L28.4233 10.0258C28.1364 9.76394 27.6851 9.77733 27.4152 10.056C27.1454 10.3347 27.1594 10.7728 27.4464 11.0347C29.8232 13.2036 29.7508 13.222 30.1259 13.222C30.5345 13.222 30.3177 13.3243 34.7919 8.95846C35.0696 8.68741 35.0685 8.24902 34.7893 7.97936C34.5098 7.70969 34.0584 7.71071 33.7806 7.98176Z" fill="#006F67"/>
</svg>
