<svg width="14" height="15" viewBox="0 0 14 15" fill="none" xmlns="http://www.w3.org/2000/svg">
<path d="M5.45897 14.5732C4.89494 14.0041 4.89494 13.1098 5.45897 12.5406L9.08487 8.88211C9.85034 8.10976 9.85034 6.89024 9.08487 6.11789L5.45897 2.45935C4.89494 1.89024 4.89494 0.995935 5.45897 0.426829C6.023 -0.142276 6.90933 -0.142276 7.47336 0.426829L13.6374 6.64634C14.1208 7.13415 14.1208 7.9065 13.6374 8.39431L7.47336 14.5732C6.90933 15.1423 6.023 15.1423 5.45897 14.5732Z" fill="#007D74"/>
<path d="M0.423021 11.6867C-0.141007 11.1176 -0.141007 10.2233 0.423021 9.65416L1.59137 8.47529C2.11511 7.94684 2.11511 7.05253 1.59137 6.48343L0.423021 5.30456C-0.141007 4.73546 -0.141007 3.84115 0.423021 3.27204C0.98705 2.70294 1.87338 2.70294 2.43741 3.27204L5.74101 6.60538C6.22446 7.09318 6.22446 7.86554 5.74101 8.35334L2.43741 11.6867C1.91367 12.2558 0.98705 12.2558 0.423021 11.6867Z" fill="#007D74"/>
</svg>
