<svg width="13" height="13" viewBox="0 0 13 13" fill="none" xmlns="http://www.w3.org/2000/svg">
<path d="M4.70493 12.1152C4.2188 11.642 4.2188 10.8986 4.70493 10.4255L7.83002 7.384C8.48976 6.74191 8.48976 5.72809 7.83002 5.086L4.70493 2.04454C4.2188 1.57142 4.2188 0.827954 4.70493 0.354837C5.19105 -0.118279 5.95496 -0.118279 6.44109 0.354837L11.7538 5.52533C12.1704 5.93085 12.1704 6.57294 11.7538 6.97847L6.44109 12.1152C5.95496 12.5883 5.19105 12.5883 4.70493 12.1152Z" fill="#E48921"/>
<path d="M0.364592 9.71544C-0.121531 9.24232 -0.121531 8.49886 0.364592 8.02574L1.37156 7.04571C1.82296 6.60639 1.82296 5.86292 1.37156 5.3898L0.364592 4.40978C-0.121531 3.93666 -0.121531 3.19319 0.364592 2.72007C0.850715 2.24696 1.61462 2.24696 2.10075 2.72007L4.94804 5.49118C5.36472 5.89671 5.36472 6.5388 4.94804 6.94433L2.10075 9.71544C1.64935 10.1886 0.850715 10.1886 0.364592 9.71544Z" fill="#E48921"/>
</svg>
