<svg width="50" height="35" viewBox="0 0 50 35" fill="none" xmlns="http://www.w3.org/2000/svg">
<path d="M42.7718 15.0729C42.7717 15.0728 42.7717 15.0728 42.7716 15.0728C42.4475 14.7075 41.9889 14.7102 41.9889 14.7102H33.478V29.9276H36.235C36.235 27.7025 38.1298 25.8986 40.4675 25.8986C42.8051 25.8986 44.7 27.7025 44.7001 29.9276H47.9964C48.6624 29.9276 49.2027 29.4135 49.2027 28.7793V22.319L42.7718 15.0729Z" fill="#D8B880"/>
<path d="M39.7611 22.8261H49.203L42.751 15.097L42.7509 15.0969C42.4257 14.7073 41.9656 14.7102 41.9656 14.7102H38.5508V21.6014C38.551 22.2778 39.0927 22.8261 39.7611 22.8261Z" fill="#EFD89C"/>
<path d="M36.0143 14.7102H33.478V29.9276H36.0143V14.7102Z" fill="#BB9B62"/>
<path d="M40.416 21.6014V14.7102H38.5508V21.6014C38.5508 22.2777 39.0782 22.8261 39.729 22.8261H41.5943C40.9435 22.8261 40.416 22.2778 40.416 21.6014Z" fill="#DBC282"/>
<path d="M26.7144 7.10144H17.8057C18.9539 12.5265 14.9419 17.6236 9.6374 17.6236C9.6374 17.6236 9.6374 17.6236 9.63721 17.6236V28.2349C9.63721 29.1698 10.3688 29.9275 11.2709 29.9275H14.5174C14.5175 27.6488 16.3001 25.8014 18.4993 25.8014C20.6985 25.8014 22.4811 27.6488 22.4812 29.9275C23.1177 29.9275 32.8428 29.9275 33.4778 29.9275C33.4778 29.1508 33.4778 10.2743 33.4778 8.79416C33.4778 7.85916 32.7463 7.10144 31.8442 7.10144H29.2677" fill="#007D74"/>
<path d="M11.0062 28.3849V17.2464C10.5632 17.3553 10.1055 17.413 9.63737 17.413C9.63737 17.413 9.63737 17.413 9.63721 17.413V28.2059C9.63721 29.1569 10.255 29.9275 11.0169 29.9275H11.6662C11.2683 29.5944 11.0062 29.0279 11.0062 28.3849Z" fill="#006F67"/>
<path d="M9.63721 23.3333V28.3072C9.63721 29.2022 10.3688 29.9275 11.2709 29.9275H14.5174C14.5175 27.7462 16.3001 25.9776 18.4993 25.9776C20.6985 25.9776 22.4811 27.7462 22.4812 29.9275C23.1177 29.9275 32.8428 29.9275 33.4778 29.9275C33.4778 29.243 33.4778 24.0985 33.4778 23.3333H9.63721Z" fill="#00635C"/>
<path d="M11.0062 28.4756V23.3333H9.63721V28.3072C9.63721 29.2022 10.255 29.9275 11.0169 29.9275H11.6662C11.2683 29.614 11.0062 29.0808 11.0062 28.4756Z" fill="#004C47"/>
<path d="M9.1304 17.5C4.51533 17.5 0.760742 13.7454 0.760742 9.13049C0.760742 4.5153 4.51533 0.76088 9.1304 0.76088C13.7454 0.76088 17.4999 4.5153 17.4999 9.13049C17.4999 13.7454 13.7453 17.5 9.1304 17.5ZM9.1304 3.25757C5.89198 3.25757 3.25742 5.89214 3.25742 9.13058C3.25742 12.369 5.89198 15.0033 9.1304 15.0033C12.3686 15.0033 15.0031 12.369 15.0031 9.13058C15.0031 5.89214 12.3686 3.25757 9.1304 3.25757Z" fill="#D8B880"/>
<path d="M9.07284 0.76088C8.45634 1.54878 7.95876 2.44419 7.6084 3.41603C11.1141 2.85349 14.2752 5.73543 14.2752 9.48274C14.2752 11.7762 13.0796 13.7783 11.3144 14.8312C12.1336 15.3595 13.0393 15.7516 14.0034 15.9783C20.5432 11.4131 17.4997 1.14131 9.07284 0.76088Z" fill="#EFD89C"/>
<path d="M40.5799 26.3768C38.3386 26.3768 36.522 28.1938 36.522 30.435C36.522 32.676 38.3386 34.4927 40.5799 34.4927C42.8213 34.4927 44.6379 32.676 44.6379 30.435C44.6378 28.1938 42.8213 26.3768 40.5799 26.3768ZM40.5799 31.6486C39.9094 31.6486 39.3659 31.1051 39.3659 30.4345C39.3659 29.7643 39.9094 29.2206 40.5799 29.2206C41.2504 29.2206 41.7938 29.7642 41.7938 30.4345C41.7938 31.1051 41.2503 31.6486 40.5799 31.6486Z" fill="#767574"/>
<path d="M41.5944 26.6231C39.1322 25.6644 36.522 27.6237 36.522 30.4349C36.522 33.2379 39.1242 35.2066 41.5944 34.2466C38.2786 32.9557 38.2847 27.9113 41.5944 26.6231Z" fill="#605E5B"/>
<path d="M18.26 26.3768C15.7386 26.3768 13.6948 28.1938 13.6948 30.435C13.6948 32.676 15.7387 34.4927 18.26 34.4927C20.7814 34.4927 22.8253 32.676 22.8253 30.435C22.8254 28.1938 20.7814 26.3768 18.26 26.3768ZM18.26 31.6486C17.5057 31.6486 16.8943 31.1051 16.8943 30.4345C16.8943 29.7643 17.5057 29.2206 18.26 29.2206C19.0142 29.2206 19.6257 29.7642 19.6257 30.4345C19.6257 31.1051 19.0142 31.6486 18.26 31.6486Z" fill="#767574"/>
<path d="M19.7818 26.6231C16.8273 25.6644 13.6948 27.6237 13.6948 30.4349C13.6948 33.2377 16.8176 35.2068 19.7818 34.2465C15.8091 32.9577 15.8034 27.9135 19.7818 26.6231Z" fill="#605E5B"/>
<path d="M9.13153 3.04344C5.77519 3.04344 3.04443 5.7742 3.04443 9.13054C3.04443 12.4869 5.77519 15.2174 9.13153 15.2174C12.4879 15.2174 15.2183 12.4869 15.2183 9.13054C15.2183 5.7742 12.4879 3.04344 9.13153 3.04344Z" fill="#EBF0F2"/>
<path d="M8.21652 3.09479C6.67591 7.00862 8.14067 11.5452 11.726 13.6956C13.3576 12.702 14.4562 10.8628 14.4562 8.76108C14.4562 5.32428 11.5361 2.63487 8.21652 3.09479Z" fill="#F4F8F9"/>
<path d="M49.6455 22.1298C49.5837 21.9925 49.9681 22.4686 43.015 14.2171C42.8766 14.0528 42.6731 13.9582 42.4588 13.9582C40.7989 13.9582 36.1179 13.9582 34.5207 13.9582V9.17593C34.5207 7.8461 33.4417 6.76421 32.1152 6.76421H29.4698C29.0676 6.76421 28.7415 7.091 28.7415 7.49439C28.7415 7.89779 29.0675 8.22458 29.4698 8.22458H32.1152C32.6385 8.22458 33.0643 8.65144 33.0643 9.17603V22.597H10.0425L10.0426 18.6492C10.9992 18.5746 11.9466 18.3489 12.8292 17.9869V20.2954C12.8292 20.6987 13.1551 21.0255 13.5574 21.0255C13.9597 21.0255 14.2857 20.6988 14.2857 20.2954V17.2326C15.253 16.6177 16.1237 15.814 16.8271 14.8528V20.2954C16.8271 20.6987 17.1531 21.0255 17.5554 21.0255C17.9578 21.0255 18.2837 20.6988 18.2837 20.2954C18.2837 11.439 18.2893 12.0003 18.272 11.9014C18.5984 10.7551 18.7133 9.51304 18.5621 8.22439H26.8482C27.2504 8.22439 27.5765 7.8976 27.5765 7.4942C27.5765 7.0908 27.2505 6.76402 26.8482 6.76402H18.2683C17.1507 2.86272 13.5599 0 9.31442 0C4.17836 0 0 4.18934 0 9.33879C0 14.2423 3.78913 18.2752 8.58595 18.649C8.58595 19.819 8.58595 26.9058 8.58595 28.4889C8.58595 29.8187 9.66511 30.9006 10.9916 30.9006H13.6516C14.0036 33.2185 16.0048 35 18.4134 35C20.822 35 22.8231 33.2184 23.1751 30.9006C23.6447 30.9006 34.7882 30.9006 35.7826 30.9006C36.1344 33.2185 38.1357 35 40.5443 35C42.9529 35 44.954 33.2184 45.3059 30.9006H48.9819C49.3841 30.9006 49.7101 30.5738 49.7101 30.1704V22.4347C49.71 22.3341 49.6898 22.2286 49.6455 22.1298ZM42.1206 15.4184L47.4132 21.6994H39.4539V15.4184H42.1206ZM1.45645 9.33879C1.45645 4.99458 4.98149 1.46027 9.31432 1.46027C13.4809 1.46027 16.9566 4.74615 17.1624 8.96002C17.3766 13.4724 13.7741 17.2169 9.31423 17.217C4.98149 17.217 1.45645 13.683 1.45645 9.33879ZM18.4133 33.5398C16.5199 33.5398 14.9806 31.9595 15.0564 30.0368C15.1155 28.4929 16.2238 27.1982 17.7038 26.8778C19.8047 26.4231 21.7735 28.0375 21.7735 30.1708C21.7735 32.0284 20.2662 33.5398 18.4133 33.5398ZM33.0641 29.4403H23.175C22.5878 25.2453 16.9471 23.7359 14.4236 27.4677C14.0059 28.0861 13.7393 28.8078 13.6515 29.4403H10.9915C10.4681 29.4403 10.0423 29.0135 10.0423 28.4889L10.0424 24.0574H33.0642L33.0641 29.4403ZM40.544 33.5398C38.6912 33.5398 37.1837 32.0285 37.1837 30.1709C37.1837 27.7655 39.6411 26.1284 41.8506 27.0668C43.072 27.5856 43.9042 28.7947 43.9042 30.1709C43.9043 32.0284 42.3967 33.5398 40.544 33.5398ZM45.3058 29.4403C44.8535 26.6966 42.3699 25.0216 39.8425 25.3931C37.6852 25.7104 36.0733 27.444 35.7824 29.4403H34.5208V15.4184H37.9976V22.4295C37.9976 22.8327 38.3236 23.1596 38.7259 23.1596H48.2537V29.4404L45.3058 29.4403Z" fill="black"/>
<path d="M18.5146 28.4058C17.5357 28.4058 16.7393 29.2022 16.7393 30.1811C16.7393 31.1601 17.5358 31.9565 18.5146 31.9565C19.4935 31.9565 20.29 31.16 20.29 30.1811C20.2899 29.202 19.4936 28.4058 18.5146 28.4058ZM18.5146 30.6313C18.2663 30.6313 18.0644 30.4293 18.0644 30.181C18.0644 29.9328 18.2663 29.7309 18.5146 29.7309C18.7628 29.7309 18.9648 29.9328 18.9648 30.181C18.9647 30.4292 18.7628 30.6313 18.5146 30.6313Z" fill="black"/>
<path d="M40.5805 28.4058C39.6016 28.4058 38.8052 29.2022 38.8052 30.1811C38.8052 31.1601 39.6017 31.9565 40.5805 31.9565C41.5594 31.9565 42.3559 31.16 42.3559 30.1811C42.3558 29.202 41.5595 28.4058 40.5805 28.4058ZM40.5805 30.6313C40.3322 30.6313 40.1303 30.4293 40.1303 30.181C40.1303 29.9328 40.3322 29.7309 40.5805 29.7309C40.8288 29.7309 41.0307 29.9328 41.0307 30.181C41.0306 30.4292 40.8287 30.6313 40.5805 30.6313Z" fill="black"/>
<path d="M6.75803 10.6522H9.21917C9.59012 10.6522 9.89077 10.3674 9.89077 10.0158V5.96245C9.89077 5.61098 9.59021 5.3261 9.21917 5.3261C8.84832 5.3261 8.54757 5.61089 8.54757 5.96245V9.37947H6.75803C6.38708 9.37947 6.08643 9.66427 6.08643 10.0158C6.08652 10.3673 6.38717 10.6522 6.75803 10.6522Z" fill="black"/>
<path d="M9.13148 15.2174C12.4879 15.2174 15.2183 12.4869 15.2183 9.13049C15.2183 5.77401 12.4879 3.04344 9.13148 3.04344C5.775 3.04344 3.04443 5.77401 3.04443 9.13049C3.04443 12.4869 5.775 15.2174 9.13148 15.2174ZM9.13148 4.35626C11.7639 4.35626 13.9055 6.49802 13.9055 9.13049C13.9055 11.7629 11.7639 13.9045 9.13148 13.9045C6.49902 13.9045 4.35725 11.7629 4.35725 9.13049C4.35725 6.49802 6.49902 4.35626 9.13148 4.35626Z" fill="black"/>
<path d="M29.9275 20.5507V10.8986C29.9275 10.4823 29.587 10.1449 29.1666 10.1449C28.7463 10.1449 28.4058 10.4822 28.4058 10.8986V20.5507C28.4058 20.967 28.7463 21.3043 29.1666 21.3043C29.587 21.3043 29.9275 20.9669 29.9275 20.5507Z" fill="black"/>
<path d="M24.8545 10.8986V20.5507C24.8545 20.967 25.195 21.3043 25.6154 21.3043C26.0357 21.3043 26.3762 20.9671 26.3762 20.5507V10.8986C26.3762 10.4823 26.0357 10.1449 25.6154 10.1449C25.1951 10.1449 24.8545 10.4823 24.8545 10.8986Z" fill="black"/>
<path d="M20.29 10.8986V20.5507C20.29 20.967 20.6306 21.3043 21.0509 21.3043C21.4712 21.3043 21.8118 20.9671 21.8118 20.5507V10.8986C21.8118 10.4823 21.4713 10.1449 21.0509 10.1449C20.6306 10.1449 20.29 10.4823 20.29 10.8986Z" fill="black"/>
</svg>
