<svg width="27" height="33" viewBox="0 0 27 33" fill="none" xmlns="http://www.w3.org/2000/svg">
<path d="M25.3332 8.49379V3.21926C25.3332 2.65635 24.9007 2.20008 24.3674 2.20008H17.9081V3.17665C17.9081 3.73956 17.4757 4.19596 16.9422 4.19596H9.09472C8.56116 4.19596 8.12876 3.73956 8.12876 3.17665V2.20001H1.66951C1.13613 2.20001 0.703613 2.65629 0.703613 3.2192V31.2474C0.703613 31.8103 1.13613 32.2667 1.66951 32.2667H24.3674C24.9007 32.2667 25.3332 31.8103 25.3332 31.2474V10.2655" fill="#EFD89C"/>
<path d="M24.3736 2.20001H17.9539V3.17658C17.9539 3.73949 17.5242 4.1959 16.994 4.1959H9.19474C8.66445 4.1959 8.23471 3.73949 8.23471 3.17658V2.20001H7.62232C3.37276 14.7731 10.0096 28.5114 21.9825 32.2667H24.3736C24.9036 32.2667 25.3335 31.8103 25.3335 31.2474C25.3335 31.0453 25.3335 3.69474 25.3335 3.2192C25.3335 2.65642 24.9036 2.20001 24.3736 2.20001Z" fill="#F9E5B9"/>
<path d="M17.1759 0.733307H8.86126C8.24333 0.733307 7.74072 1.17636 7.74072 1.72094V3.41228C7.74072 3.95692 8.24333 4.39997 8.86126 4.39997H17.1759C17.7937 4.39997 18.2963 3.95692 18.2963 3.41228V1.72094C18.2963 1.17642 17.7936 0.733307 17.1759 0.733307Z" fill="#007D74"/>
<path d="M17.1757 2.44445H8.8615C8.27081 2.44445 7.78666 2.01222 7.74504 1.46667C7.73926 1.54287 7.74095 1.36558 7.74095 3.34647C7.74095 3.92742 8.24354 4.40001 8.86144 4.40001H17.1757C17.7934 4.40001 18.296 3.92742 18.296 3.34647C18.296 1.36594 18.2977 1.54293 18.292 1.46667C18.2505 2.01222 17.7663 2.44445 17.1757 2.44445Z" fill="#006F67"/>
<path d="M25.5703 9.21743C25.8281 9.21743 26.037 9.00106 26.037 8.73403V3.45735C26.037 2.62854 25.3859 1.95429 24.5859 1.95429H18.469V1.50312C18.469 0.674248 17.818 0 17.0178 0H15.8469C15.5892 0 15.3802 0.21637 15.3802 0.483401C15.3802 0.750432 15.5892 0.966803 15.8469 0.966803H17.0178C17.3033 0.966803 17.5356 1.20734 17.5356 1.50306C17.5356 2.16596 17.5356 2.73457 17.5356 3.41468C17.5356 3.71039 17.3033 3.951 17.0178 3.951H9.01925C8.73374 3.951 8.5015 3.71046 8.5015 3.41468C8.5015 2.73463 8.5015 2.16609 8.5015 1.50306C8.5015 1.20741 8.73374 0.966803 9.01931 0.966803H14.0112C14.269 0.966803 14.4779 0.750432 14.4779 0.483401C14.4779 0.21637 14.269 0 14.0112 0H9.01931C8.2191 0 7.56805 0.674313 7.56805 1.50306V1.95423H1.45121C0.650989 1.95423 0 2.62854 0 3.45729V31.4969C0 32.3258 0.651051 33 1.45121 33H24.5859C25.386 33 26.037 32.3257 26.037 31.4969V10.5064C26.037 10.2394 25.8281 10.023 25.5703 10.023C25.3125 10.023 25.1035 10.2394 25.1035 10.5064V31.4969C25.1035 31.7926 24.8714 32.0331 24.5859 32.0331H1.45121C1.16576 32.0331 0.933451 31.7926 0.933451 31.4969V3.45735C0.933451 3.1617 1.16576 2.9211 1.45121 2.9211H7.56798V3.41462C7.56798 4.2433 8.21891 4.91774 9.01925 4.91774H17.0177C17.8179 4.91774 18.469 4.24349 18.469 3.41462V2.9211H24.5858C24.8712 2.9211 25.1035 3.16164 25.1035 3.45735V8.73396C25.1035 9.001 25.3125 9.21743 25.5703 9.21743Z" fill="black"/>
<path d="M9.00561 8.21151C8.81553 8.01767 8.50836 8.01847 8.31933 8.2133L6.06116 10.5416L5.04028 9.55727C4.84497 9.36894 4.53786 9.37876 4.35433 9.57904C4.17079 9.77937 4.1803 10.0943 4.37554 10.2826L5.74015 11.5983C5.93151 11.7828 6.23118 11.7776 6.41653 11.5867L9.00735 8.91544C9.19632 8.72055 9.19555 8.40541 9.00561 8.21151Z" fill="black"/>
<path d="M9.00556 14.0782C8.81562 13.8844 8.50838 13.8851 8.31934 14.08L6.06117 16.4082L5.04029 15.424C4.84497 15.2356 4.53787 15.2455 4.35433 15.4457C4.17079 15.646 4.1803 15.961 4.37555 16.1493C5.83687 17.5581 5.8163 17.5999 6.07249 17.5999C6.34434 17.5999 6.21113 17.665 9.00744 14.7819C9.19635 14.5872 9.19551 14.272 9.00556 14.0782Z" fill="black"/>
<path d="M8.31935 19.2134L6.06116 21.5416L5.04027 20.5574C4.84495 20.3691 4.53784 20.3789 4.3543 20.5791C4.17076 20.7794 4.18034 21.0945 4.37552 21.2827L5.74014 22.5983C5.93151 22.7827 6.23124 22.7776 6.41653 22.5866L9.00738 19.9154C9.19636 19.7205 9.19552 19.4054 9.00557 19.2115C8.81569 19.0177 8.50839 19.0184 8.31935 19.2134Z" fill="black"/>
<path d="M4.37554 26.416L5.74008 27.7316C5.93151 27.9161 6.23124 27.9109 6.4164 27.72L9.00735 25.0488C9.19633 24.8539 9.19555 24.5387 9.00561 24.3449C8.81553 24.151 8.50836 24.1518 8.31939 24.3466L6.06116 26.6749L5.04028 25.6906C4.8451 25.5023 4.53793 25.5121 4.35433 25.7124C4.17079 25.9126 4.1803 26.2277 4.37554 26.416Z" fill="black"/>
<path d="M22.0585 8.80002H11.7184C11.4645 8.80002 11.2588 8.96414 11.2588 9.16668C11.2588 9.36923 11.4645 9.53335 11.7184 9.53335H22.0585C22.3123 9.53335 22.518 9.36923 22.518 9.16668C22.5182 8.96414 22.3124 8.80002 22.0585 8.80002Z" fill="black"/>
<path d="M22.0585 13.9333H11.7184C11.4645 13.9333 11.2588 14.0975 11.2588 14.3C11.2588 14.5026 11.4645 14.6667 11.7184 14.6667H22.0585C22.3123 14.6667 22.518 14.5026 22.518 14.3C22.5182 14.0975 22.3124 13.9333 22.0585 13.9333Z" fill="black"/>
<path d="M22.0585 19.0667H11.7184C11.4645 19.0667 11.2588 19.2308 11.2588 19.4333C11.2588 19.6359 11.4645 19.8 11.7184 19.8H22.0585C22.3123 19.8 22.518 19.6359 22.518 19.4333C22.5182 19.2308 22.3124 19.0667 22.0585 19.0667Z" fill="black"/>
<path d="M22.518 24.5667C22.518 24.3642 22.3123 24.2 22.0585 24.2H11.7183C11.4645 24.2 11.2588 24.3642 11.2588 24.5667C11.2588 24.7692 11.4645 24.9333 11.7183 24.9333H22.0584C22.3123 24.9334 22.518 24.7692 22.518 24.5667Z" fill="black"/>
<path d="M11.6799 11.7333H16.4673C16.6999 11.7333 16.8884 11.5692 16.8884 11.3667C16.8884 11.1641 16.6999 11 16.4673 11H11.6799C11.4473 11 11.2588 11.1641 11.2588 11.3667C11.2588 11.5692 11.4474 11.7333 11.6799 11.7333Z" fill="black"/>
<path d="M11.6799 16.8667H16.4673C16.6999 16.8667 16.8884 16.5384 16.8884 16.1333C16.8884 15.7282 16.6999 15.4 16.4673 15.4H11.6799C11.4473 15.4 11.2588 15.7282 11.2588 16.1333C11.2588 16.5384 11.4474 16.8667 11.6799 16.8667Z" fill="black"/>
<path d="M11.6799 22H16.4673C16.6999 22 16.8884 21.8359 16.8884 21.6333C16.8884 21.4308 16.6999 21.2667 16.4673 21.2667H11.6799C11.4473 21.2667 11.2588 21.4308 11.2588 21.6333C11.2588 21.8359 11.4474 22 11.6799 22Z" fill="black"/>
<path d="M11.6799 26.4C11.4473 26.4 11.2588 26.5641 11.2588 26.7667C11.2588 26.9692 11.4473 27.1333 11.6799 27.1333H16.4673C16.6999 27.1333 16.8884 26.9692 16.8884 26.7667C16.8884 26.5641 16.6999 26.4 16.4673 26.4H11.6799Z" fill="black"/>
</svg>
