<svg width="31" height="35" viewBox="0 0 31 35" fill="none" xmlns="http://www.w3.org/2000/svg">
<path d="M28.3396 28.7H12.6002C12.8111 29.5929 12.823 30.5568 12.6001 31.5H28.3396C28.9254 31.5 29.4001 30.9314 29.4001 30.2303V29.9698C29.4001 29.2684 28.9254 28.7 28.3396 28.7Z" fill="#85AAC6"/>
<path d="M28.3388 30.5667H12.7628C12.7628 30.8903 12.7053 31.2032 12.6001 31.5H28.3389C28.9246 31.5 29.3993 31.1209 29.3993 30.6536C29.3993 30.4638 29.4167 30.3074 29.2856 30.1C29.1111 30.3766 28.7532 30.5667 28.3388 30.5667Z" fill="#59859B"/>
<path d="M7.70068 2.10001C7.70068 3.24399 7.70068 26.3324 7.70068 27.2999C8.3691 27.0675 9.09172 27.0532 9.80068 27.3C9.80068 26.8762 9.80068 2.54824 9.80068 2.10001C9.20956 2.78965 8.29143 2.78889 7.70068 2.10001Z" fill="#9AC2D6"/>
<path d="M9.79961 2.80001V2.10001C9.60019 2.33644 9.36252 2.52309 9.09961 2.64407C9.3179 2.74449 9.5535 2.80001 9.79961 2.80001Z" fill="#85AAC6"/>
<path d="M9.10068 2.61683C8.55792 2.61683 8.06606 2.41952 7.70068 2.10001C7.70068 3.24399 7.70068 26.3325 7.70068 27.3C8.1461 27.1838 8.61512 27.1202 9.10068 27.1202C9.10068 26.3903 9.10068 2.88883 9.10068 2.61683Z" fill="#85AAC6"/>
<path d="M7.69957 0.699997C7.04339 0.699997 2.38958 0.699997 1.76372 0.699997C1.17615 0.699997 0.699707 1.26854 0.699707 1.9697V2.2303C0.699707 2.93154 1.17622 3.5 1.76372 3.5C2.38958 3.5 7.04339 3.5 7.69971 3.5C7.07384 2.71192 7.0744 1.48717 7.69957 0.699997Z" fill="#85AAC6"/>
<path d="M1.76423 2.09998C1.3486 2.09998 0.989634 1.8148 0.814418 1.39998C0.684498 1.70817 0.700313 1.93599 0.700313 2.23028C0.700313 2.93152 1.17678 3.49998 1.76423 3.49998C2.39004 3.49998 7.04345 3.49998 7.69971 3.49998C7.40976 3.13483 7.23066 2.64278 7.23066 2.09998C6.48437 2.09998 2.45663 2.09998 1.76423 2.09998Z" fill="#59859B"/>
<path d="M8.75049 3.5C9.71699 3.5 10.5005 2.8732 10.5005 2.1C10.5005 1.3268 9.71699 0.699997 8.75049 0.699997C7.78399 0.699997 7.00049 1.3268 7.00049 2.1C7.00049 2.8732 7.78399 3.5 8.75049 3.5Z" fill="#6994AF"/>
<path d="M9.80049 0.889007C8.56333 0.352464 7.00049 1.02145 7.00049 2.09993C7.00049 3.17882 8.56355 3.84752 9.80049 3.31092C8.5568 2.77159 8.55733 1.42805 9.80049 0.889007Z" fill="#538299"/>
<path d="M26.6004 19.1991C26.6004 19.8071 26.1037 20.3 25.491 20.3H13.0099C12.3971 20.3 11.9004 19.8072 11.9004 19.1991V13.0009C11.9004 12.393 12.3971 11.9 13.0099 11.9H25.491C26.1036 11.9 26.6004 12.3929 26.6004 13.0009V19.1991Z" fill="#007D74"/>
<path d="M26.6004 10.7074C26.6004 11.366 26.1037 11.9 25.491 11.9H13.0099C12.3971 11.9 11.9004 11.3661 11.9004 10.7074V3.99257C11.9004 3.33407 12.3971 2.79999 13.0099 2.79999H25.491C26.1036 2.79999 26.6004 3.33399 26.6004 3.99257V10.7074Z" fill="#007D74"/>
<path d="M26.6004 22.2141V21.4009C26.6004 20.7929 26.1037 20.3 25.491 20.3H13.0099C12.3971 20.3 11.9004 20.7928 11.9004 21.4009V26.9196C12.3867 27.4085 12.7505 28.0171 12.9449 28.6964C13.0213 28.7014 12.203 28.6997 25.491 28.6997C26.1036 28.6997 26.6004 28.2069 26.6004 27.5989V23.8822" fill="#007D74"/>
<path d="M17.5 15.0764C17.5 15.6418 17.9088 16.1 18.413 16.1H20.087C20.5912 16.1 21 15.6417 21 15.0764V11.9H17.5V15.0764Z" fill="#EFD89C"/>
<path d="M17.5 23.4763C17.5 24.0417 17.9088 24.5 18.413 24.5H20.087C20.5912 24.5 21 24.0416 21 23.4763V20.3H17.5V23.4763Z" fill="#EFD89C"/>
<path d="M17.5 5.97642C17.5 6.54176 17.9088 6.99999 18.413 6.99999H20.087C20.5912 6.99999 21 6.54169 21 5.97642V2.79999H17.5V5.97642Z" fill="#EFD89C"/>
<path d="M19.6 20.3H17.5V23.4763C17.5 24.0417 17.9905 24.5 18.5956 24.5H19.6V20.3Z" fill="#D3B475"/>
<path d="M19.6 11.9H17.5V15.0764C17.5 15.6418 17.9905 16.1 18.5956 16.1H19.6V11.9Z" fill="#D3B475"/>
<path d="M19.6 2.79999H17.5V5.97642C17.5 6.54176 17.9905 6.99999 18.5956 6.99999H19.6V2.79999Z" fill="#D3B475"/>
<path d="M14.1375 2.79999H13.1512C12.4604 2.79999 11.9004 3.33399 11.9004 3.99257V10.7074C11.9004 11.366 12.4604 11.9 13.1512 11.9H16.8004C13.4209 10.0296 12.3118 5.96686 14.1375 2.79999Z" fill="#006F67"/>
<path d="M14.1375 11.9H13.1512C12.4604 11.9 11.9004 12.3929 11.9004 13.0009V19.1991C11.9004 19.8071 12.4604 20.3 13.1512 20.3H16.8004C13.4209 18.5735 12.3119 14.8233 14.1375 11.9Z" fill="#006F67"/>
<path d="M14.1375 20.3H13.1512C12.4604 20.3 11.9004 20.7928 11.9004 21.4008V27.5991C11.9004 28.207 12.4604 28.7 13.1512 28.7H16.8004C13.4193 26.9726 12.3129 23.2215 14.1375 20.3Z" fill="#006F67"/>
<path d="M8.40016 25.9C6.08065 25.9 4.2002 27.7803 4.2002 30.1C4.2002 32.4196 6.08065 34.3 8.40016 34.3C10.7197 34.3 12.6002 32.4196 12.6002 30.1C12.6003 27.7803 10.7197 25.9 8.40016 25.9ZM8.40016 31.7659C7.48014 31.7659 6.73427 31.02 6.73427 30.1C6.73427 29.18 7.48007 28.4341 8.40016 28.4341C9.32025 28.4341 10.0661 29.18 10.0661 30.1C10.0661 31.02 9.32025 31.7659 8.40016 31.7659Z" fill="#767574"/>
<path d="M5.37542 30.1C5.37542 27.9744 6.99673 26.2189 9.1002 25.9395C6.49241 25.5937 4.2002 27.5651 4.2002 30.1C4.2002 32.6356 6.49428 34.6069 9.1002 34.2604C6.99673 33.9811 5.37542 32.2254 5.37542 30.1Z" fill="#605E5B"/>
<path d="M8.39981 28C7.24176 28 6.2998 28.942 6.2998 30.1C6.2998 31.2579 7.24176 32.2 8.39981 32.2C9.55772 32.2 10.4998 31.2579 10.4998 30.1C10.4999 28.942 9.55772 28 8.39981 28ZM8.39981 31.2193C7.78261 31.2193 7.28055 30.7172 7.28055 30.1001C7.28055 29.4829 7.78261 28.9808 8.39981 28.9808C9.01693 28.9808 9.51906 29.4829 9.51906 30.1001C9.51913 30.7172 9.01693 31.2193 8.39981 31.2193Z" fill="black"/>
<path d="M28.5249 28.5675H27.2234C27.3849 28.1728 27.3445 28.2878 27.3445 24.1392C27.3445 23.8556 27.1131 23.6259 26.8273 23.6259C26.5417 23.6259 26.3102 23.8556 26.3102 24.1392V27.9517C26.3102 28.2913 26.0319 28.5675 25.6898 28.5675H13.1993C12.9984 28.0362 12.6876 27.5109 12.2705 27.0512V21.5939C12.2705 21.2543 12.5487 20.9781 12.891 20.9781H16.7456V23.7228C16.7456 24.5849 17.4521 25.2862 18.3206 25.2862H20.26C21.1284 25.2862 21.835 24.5849 21.835 23.7228V20.9781H25.6896C26.0317 20.9781 26.31 21.2543 26.31 21.5939V22.4281C26.31 22.7117 26.5415 22.9414 26.8271 22.9414C27.1129 22.9414 27.3443 22.7117 27.3443 22.4281C27.3443 21.6136 27.4353 21.0358 26.8895 20.4647C27.171 20.1701 27.3443 19.7726 27.3443 19.3355V12.9777C27.3443 12.5406 27.1711 12.1431 26.8895 11.8484C27.1711 11.5539 27.3443 11.1564 27.3443 10.7192V4.36132C27.3443 3.45563 26.6019 2.71885 25.6895 2.71885H21.3177C20.9918 2.71885 13.2766 2.71885 12.8908 2.71885C11.9784 2.71885 11.236 3.4557 11.236 4.36132V10.7192C11.236 11.1563 11.4092 11.5537 11.6908 11.8484C11.4092 12.143 11.236 12.5405 11.236 12.9777V19.3355C11.236 19.7726 11.4092 20.1701 11.6908 20.4647C11.4092 20.7593 11.236 21.1568 11.236 21.5939V26.195C10.9704 26.0309 10.6878 25.8915 10.391 25.7808V8.12292C10.391 7.83944 10.1596 7.60961 9.87389 7.60961C9.58822 7.60961 9.35675 7.83944 9.35675 8.12292V25.3601C8.92659 25.3014 8.48885 25.3014 8.05827 25.3601V4.30007C8.47927 4.42831 8.93513 4.42859 9.35675 4.30014V6.34333C9.35675 6.62681 9.58822 6.85664 9.87389 6.85664C10.1596 6.85664 10.391 6.62681 10.391 6.34333V3.62413C11.616 2.20137 10.5923 0 8.70765 0C8.15979 0 7.65807 0.198925 7.27102 0.527255H1.57499C0.706537 0.527255 0 1.22862 0 2.09063V2.3061C0 3.16811 0.706537 3.86948 1.57499 3.86948H7.02405V25.7807C5.20719 26.4589 3.91071 28.201 3.91071 30.2386C3.91071 32.8641 6.06256 35 8.70772 35C10.7605 35 12.5156 33.7131 13.1989 31.9098H28.525C29.3934 31.9098 30.1 31.2085 30.1 30.3464V30.1309C30.0999 29.2688 29.3934 28.5675 28.5249 28.5675ZM20.8007 23.7227C20.8007 24.0186 20.5581 24.2594 20.26 24.2594H18.3207C18.0226 24.2594 17.7801 24.0187 17.7801 23.7227V20.978H20.8007L20.8007 23.7227ZM12.891 19.9513C12.5488 19.9513 12.2706 19.675 12.2706 19.3354V12.9776C12.2706 12.638 12.5488 12.3617 12.891 12.3617H16.7457V15.1066C16.7457 15.9686 17.4522 16.6699 18.3207 16.6699H20.26C21.1285 16.6699 21.835 15.9686 21.835 15.1066V12.3617H25.6897C26.0318 12.3617 26.3101 12.638 26.3101 12.9776V19.3354C26.3101 19.675 26.0318 19.9513 25.6897 19.9513C25.0517 19.9513 13.3312 19.9513 12.891 19.9513ZM17.7801 12.3617H20.8007V15.1065C20.8007 15.4024 20.5582 15.6431 20.2601 15.6431H18.3207C18.0226 15.6431 17.7801 15.4024 17.7801 15.1065V12.3617ZM20.8007 3.74547V6.4903C20.8007 6.78616 20.5581 7.02692 20.26 7.02692H18.3207C18.0226 7.02692 17.7801 6.78623 17.7801 6.4903V3.74547H20.8007ZM12.2705 4.36125C12.2705 4.02171 12.5487 3.74547 12.891 3.74547H16.7456V6.4903C16.7456 7.35231 17.4521 8.05361 18.3206 8.05361H20.26C21.1284 8.05361 21.835 7.35231 21.835 6.4903V3.74547H25.6896C26.0317 3.74547 26.31 4.02171 26.31 4.36125V10.7191C26.31 11.0587 26.0317 11.335 25.6896 11.335C25.2283 11.335 13.4729 11.335 12.8909 11.335C12.5487 11.335 12.2704 11.0587 12.2704 10.7191V4.36125H12.2705ZM9.88808 2.19816C9.88808 3.35712 8.35311 3.81007 7.71523 2.83014C7.20614 2.04565 7.78796 1.02669 8.70765 1.02669C9.35847 1.02669 9.88808 1.55223 9.88808 2.19816ZM1.57499 2.84265C1.27685 2.84265 1.03436 2.60189 1.03436 2.30596V2.09049C1.03436 1.79464 1.27678 1.55381 1.57499 1.55381H6.5901C6.46194 1.96922 6.4607 2.42299 6.5901 2.84265H1.57499ZM8.70765 33.9732C6.63294 33.9732 4.945 32.2979 4.945 30.2386C4.945 28.1793 6.63294 26.5038 8.70765 26.5038C11.1734 26.5038 12.9987 28.8419 12.3339 31.232C11.8945 32.8105 10.4358 33.9732 8.70765 33.9732ZM29.0656 30.3464C29.0656 30.6422 28.823 30.883 28.5249 30.883H13.4603C13.5168 30.4738 13.5197 30.0247 13.4603 29.5942C13.7843 29.5942 28.2185 29.5942 28.5249 29.5942C28.8229 29.5942 29.0656 29.8349 29.0656 30.1308V30.3464Z" fill="black"/>
</svg>
