<?xml version="1.0" encoding="UTF-8"?> <svg xmlns="http://www.w3.org/2000/svg" width="42" height="42" viewBox="0 0 42 42" fill="none"><path d="M32.8126 12.4688H21C20.5469 12.4688 20.1797 12.836 20.1797 13.2891C20.1797 13.7421 20.5469 14.1094 21 14.1094H32.8126C33.2657 14.1094 33.6329 13.7421 33.6329 13.2891C33.6329 12.836 33.2657 12.4688 32.8126 12.4688Z" fill="#007D74"></path><path d="M29.9423 16.6466C29.7897 16.494 29.578 16.4062 29.3623 16.4062C29.1466 16.4062 28.9349 16.494 28.7823 16.6466C28.6298 16.7992 28.542 17.0108 28.542 17.2266C28.542 17.4423 28.6298 17.6539 28.7823 17.8065C28.9349 17.9591 29.1466 18.0469 29.3623 18.0469C29.578 18.0469 29.7897 17.9591 29.9423 17.8065C30.0948 17.6539 30.1826 17.4423 30.1826 17.2266C30.1826 17.0108 30.0948 16.7992 29.9423 16.6466Z" fill="#007D74"></path><path d="M21.5792 3.76769C21.4266 3.61512 21.215 3.52734 20.9993 3.52734C20.7835 3.52734 20.5719 3.61512 20.4193 3.76769C20.2667 3.92027 20.179 4.13191 20.179 4.34765C20.179 4.5634 20.2667 4.77504 20.4193 4.92761C20.5719 5.08019 20.7835 5.16797 20.9993 5.16797C21.215 5.16797 21.4266 5.08019 21.5792 4.92761C21.7318 4.77504 21.8196 4.5634 21.8196 4.34765C21.8196 4.13191 21.7318 3.92027 21.5792 3.76769Z" fill="#007D74"></path><path d="M25.9118 16.4062H21C20.5469 16.4062 20.1797 16.7735 20.1797 17.2266C20.1797 17.6796 20.5469 18.0469 21 18.0469H25.9118C26.3648 18.0469 26.7321 17.6796 26.7321 17.2266C26.7321 16.7735 26.3648 16.4062 25.9118 16.4062Z" fill="#007D74"></path><path d="M32.8126 21.3281H21C20.5469 21.3281 20.1797 21.6954 20.1797 22.1484C20.1797 22.6015 20.5469 22.9687 21 22.9687H32.8126C33.2657 22.9687 33.6329 22.6015 33.6329 22.1484C33.6329 21.6954 33.2657 21.3281 32.8126 21.3281Z" fill="#007D74"></path><path d="M29.9423 25.506C29.7897 25.3534 29.578 25.2656 29.3623 25.2656C29.1466 25.2656 28.9349 25.3534 28.7823 25.506C28.6298 25.6586 28.542 25.8702 28.542 26.0859C28.542 26.3017 28.6298 26.5133 28.7823 26.6659C28.9349 26.8185 29.1466 26.9062 29.3623 26.9062C29.578 26.9062 29.7897 26.8185 29.9423 26.6659C30.0948 26.5133 30.1826 26.3017 30.1826 26.0859C30.1826 25.8702 30.0948 25.6586 29.9423 25.506Z" fill="#007D74"></path><path d="M25.9118 25.2656H21C20.5469 25.2656 20.1797 25.6329 20.1797 26.0859C20.1797 26.539 20.5469 26.9062 21 26.9062H25.9118C26.3648 26.9062 26.7321 26.539 26.7321 26.0859C26.7321 25.6329 26.3648 25.2656 25.9118 25.2656Z" fill="#007D74"></path><path d="M32.8126 30.1875H21C20.5469 30.1875 20.1797 30.5548 20.1797 31.0078C20.1797 31.4609 20.5469 31.8281 21 31.8281H32.8126C33.2657 31.8281 33.6329 31.4609 33.6329 31.0078C33.6329 30.5548 33.2657 30.1875 32.8126 30.1875Z" fill="#007D74"></path><path d="M29.9423 34.3654C29.7897 34.2128 29.578 34.125 29.3623 34.125C29.1466 34.125 28.9349 34.2128 28.7823 34.3654C28.6298 34.5179 28.542 34.7296 28.542 34.9453C28.542 35.1611 28.6298 35.3727 28.7823 35.5253C28.9349 35.6779 29.1466 35.7656 29.3623 35.7656C29.578 35.7656 29.7897 35.6779 29.9423 35.5253C30.0948 35.3727 30.1826 35.1611 30.1826 34.9453C30.1826 34.7296 30.0948 34.5179 29.9423 34.3654Z" fill="#007D74"></path><path d="M25.9118 34.125H21C20.5469 34.125 20.1797 34.4923 20.1797 34.9453C20.1797 35.3984 20.5469 35.7656 21 35.7656H25.9118C26.3648 35.7656 26.7321 35.3984 26.7321 34.9453C26.7321 34.4923 26.3648 34.125 25.9118 34.125Z" fill="#007D74"></path><path d="M34.3909 3.19929H28.1254C27.2197 2.33625 25.9954 1.80468 24.6485 1.80468H23.9299C23.3806 0.717116 22.2519 0 20.9999 0C19.7478 0 18.6193 0.717116 18.0698 1.80468H17.3495C16.0026 1.80468 14.7784 2.33625 13.8727 3.19929H7.60905C5.40364 3.19929 3.60938 4.99356 3.60938 7.19897V38.0003C3.60938 40.2057 5.40364 42 7.60905 42H34.3908C36.5962 42 38.3905 40.2057 38.3905 38.0003V7.19897C38.3905 4.99356 36.5963 3.19929 34.3909 3.19929ZM17.3496 3.44531H18.6281C18.9971 3.44531 19.3206 3.19897 19.4188 2.84336C19.6145 2.13519 20.2646 1.64062 21 1.64062C21.7353 1.64062 22.3855 2.13519 22.581 2.84336C22.6792 3.19897 23.0028 3.44531 23.3717 3.44531H24.6485C26.429 3.44531 27.8946 4.81933 28.0409 6.56257H13.9573C14.1035 4.81933 15.5692 3.44531 17.3496 3.44531ZM36.7499 38.0004C36.7499 39.3012 35.6916 40.3595 34.3909 40.3595H7.60905C6.30828 40.3595 5.25 39.3012 5.25 38.0004V7.19897C5.25 5.8982 6.30828 4.83992 7.60905 4.83992H12.7234C12.4547 5.45613 12.3047 6.13552 12.3047 6.84968V7.38288C12.3047 7.83594 12.6719 8.20319 13.125 8.20319H28.8732C29.3263 8.20319 29.6935 7.83594 29.6935 7.38288V6.84968C29.6935 6.1356 29.5435 5.45613 29.2748 4.83992H34.3909C35.6916 4.83992 36.7499 5.8982 36.7499 7.19897V38.0004Z" fill="#007D74"></path><path d="M15.7836 12.2715C15.4632 11.9512 14.9438 11.9512 14.6235 12.2714L11.1157 15.7793L10.0351 14.6986C9.71473 14.3784 9.19531 14.3784 8.87489 14.6986C8.55456 15.019 8.55456 15.5384 8.87489 15.8588L10.5356 17.5195C10.6958 17.6797 10.9057 17.7598 11.1157 17.7598C11.3256 17.7598 11.5356 17.6797 11.6957 17.5195L15.7836 13.4317C16.1039 13.1113 16.1039 12.5919 15.7836 12.2715Z" fill="#007D74"></path><path d="M13.7812 30.1875H9.84375C9.39069 30.1875 9.02344 30.5548 9.02344 31.0078V34.9453C9.02344 35.3984 9.39069 35.7656 9.84375 35.7656H13.7812C14.2343 35.7656 14.6016 35.3984 14.6016 34.9453V31.0078C14.6016 30.5548 14.2343 30.1875 13.7812 30.1875ZM12.9609 34.125H10.6641V31.8281H12.9609V34.125Z" fill="#007D74"></path><path d="M13.7812 21.3281H9.84375C9.39069 21.3281 9.02344 21.6954 9.02344 22.1484V26.0859C9.02344 26.539 9.39069 26.9062 9.84375 26.9062H13.7812C14.2343 26.9062 14.6016 26.539 14.6016 26.0859V22.1484C14.6016 21.6954 14.2343 21.3281 13.7812 21.3281ZM12.9609 25.2656H10.6641V22.9687H12.9609V25.2656Z" fill="#007D74"></path></svg> 