<?xml version="1.0" encoding="UTF-8"?> <svg xmlns="http://www.w3.org/2000/svg" width="45" height="45" viewBox="0 0 45 45" fill="none"><path d="M32.1707 28.6523C32.6558 28.6523 33.0496 28.2586 33.0496 27.7734C33.0496 27.2883 32.6558 26.8945 32.1707 26.8945C31.6855 26.8945 31.2917 27.2883 31.2917 27.7734C31.2917 28.2586 31.6855 28.6523 32.1707 28.6523Z" fill="#007D74"></path><path d="M8.60706 28.1391C9.15191 30.4538 10.0137 32.6792 11.1686 34.7532C12.3242 36.8286 13.7624 38.733 15.4433 40.4139L15.4715 40.4424V44.1211C15.4715 44.6066 15.8649 45 16.3504 45H32.1707C32.6561 45 33.0496 44.6066 33.0496 44.1211V40.3411C35.3306 36.8269 36.5652 32.7066 36.5652 28.4669V21.6211C36.5652 19.6827 34.988 18.1055 33.0496 18.1055C32.3262 18.1055 31.6533 18.3252 31.0937 18.7015C30.6127 17.3323 29.3077 16.3477 27.7761 16.3477C27.0528 16.3477 26.3798 16.5674 25.8202 16.9437C25.3392 15.5745 24.0343 14.5898 22.5027 14.5898C21.8755 14.5898 21.2736 14.754 20.7449 15.0605V7.03125C20.7449 5.08907 19.1718 3.51562 17.2293 3.51562C15.2909 3.51562 13.7136 5.09285 13.7136 7.03125V19.6858L11.3118 21.287C9.0805 22.7747 7.9932 25.5281 8.60706 28.1391ZM12.2871 22.7496L13.7136 21.7982V27.7734C13.7136 28.2589 14.1071 28.6523 14.5925 28.6523C15.078 28.6523 15.4715 28.2589 15.4715 27.7734C15.4715 27.1328 15.4715 7.56134 15.4715 7.03125C15.4715 6.06205 16.2601 5.27344 17.2293 5.27344C18.2002 5.27344 18.9871 6.06033 18.9871 7.03125V24.2578C18.9871 24.7433 19.3805 25.1367 19.866 25.1367C20.3514 25.1367 20.7449 24.7433 20.7449 24.2578V18.1055C20.7449 17.1346 21.5318 16.3477 22.5027 16.3477C23.4719 16.3477 24.2605 17.1363 24.2605 18.1055V24.2578C24.2605 24.7433 24.654 25.1367 25.1394 25.1367C25.6249 25.1367 26.0183 24.7433 26.0183 24.2578V19.8633C26.0183 18.8941 26.8069 18.1055 27.7761 18.1055C28.7453 18.1055 29.5339 18.8941 29.5339 19.8633V24.2578C29.5339 24.7433 29.9274 25.1367 30.4129 25.1367C30.8983 25.1367 31.2918 24.7433 31.2918 24.2578V21.6211C31.2918 20.6519 32.0804 19.8633 33.0496 19.8633C34.0188 19.8633 34.8074 20.6519 34.8074 21.6211V28.4669C34.8074 32.4028 33.649 36.2762 31.4394 39.5906C31.3433 39.7351 31.2918 39.9047 31.2918 40.0781V43.2422H17.2293V40.0781C17.2293 39.845 17.1366 39.6215 16.9718 39.4567C16.7857 39.2449 14.5891 37.2831 12.7043 33.898C11.6286 31.9658 10.8256 29.8928 10.3178 27.7367C9.87152 25.8368 10.6629 23.8324 12.2871 22.7496Z" fill="#007D74"></path><path d="M28.7581 38.8588C29.1612 39.1276 29.7071 39.0202 29.9769 38.6154C31.4357 36.4284 32.3891 34.0087 32.8107 31.4231C32.8886 30.9442 32.5635 30.4924 32.0846 30.4145C31.6053 30.3362 31.1538 30.6613 31.0756 31.1402C30.6948 33.4766 29.8334 35.6632 28.5147 37.64C28.2452 38.0438 28.3544 38.5893 28.7581 38.8588Z" fill="#007D74"></path><path d="M11.0769 7.91016C11.5624 7.91016 11.9558 7.51671 11.9558 7.03125C11.9558 4.12331 14.3216 1.75781 17.2292 1.75781C20.1372 1.75781 22.5027 4.12331 22.5027 7.03125C22.5027 7.51671 22.8961 7.91016 23.3816 7.91016C23.8671 7.91016 24.2605 7.51671 24.2605 7.03125C24.2605 3.15411 21.1064 0 17.2292 0C13.3521 0 10.198 3.15411 10.198 7.03125C10.198 7.51671 10.5914 7.91016 11.0769 7.91016Z" fill="#007D74"></path></svg> 