<?xml version="1.0" encoding="UTF-8"?> <svg xmlns="http://www.w3.org/2000/svg" width="45" height="45" viewBox="0 0 45 45" fill="none"><path d="M41.3589 32.5053C41.1874 32.0408 40.6721 31.8032 40.2076 31.9746L30.8848 35.4146C30.4203 35.5859 30.1827 36.1014 30.3541 36.5659C30.4878 36.928 30.8305 37.1522 31.1952 37.1522C31.2983 37.1522 31.4031 37.1343 31.5055 37.0966L40.8282 33.6567C41.2927 33.4853 41.5303 32.9698 41.3589 32.5053Z" fill="#007D74"></path><path d="M29.473 36.8911C29.3017 36.4265 28.7861 36.189 28.3216 36.3604L27.9268 36.506C27.4624 36.6774 27.2247 37.1929 27.3961 37.6573C27.5297 38.0194 27.8725 38.2437 28.2372 38.2437C28.3402 38.2437 28.4451 38.2258 28.5475 38.188L28.9423 38.0424C29.4067 37.871 29.6443 37.3556 29.473 36.8911Z" fill="#007D74"></path><path d="M41.3589 28.8524C41.1875 28.3879 40.6721 28.1505 40.2076 28.3217L32.8401 31.0402C32.3756 31.2116 32.1381 31.727 32.3095 32.1915C32.4431 32.5537 32.7858 32.7779 33.1506 32.7779C33.2536 32.7779 33.3584 32.7599 33.4608 32.7222L40.8283 30.0038C41.2928 29.8324 41.5303 29.3169 41.3589 28.8524Z" fill="#007D74"></path><path d="M41.3589 25.2372C41.1875 24.7727 40.6721 24.5353 40.2076 24.7065L32.8401 27.4249C32.3756 27.5963 32.1381 28.1118 32.3095 28.5763C32.4431 28.9384 32.7858 29.1626 33.1506 29.1626C33.2536 29.1626 33.3584 29.1447 33.4608 29.107L40.8283 26.3885C41.2928 26.2171 41.5303 25.7017 41.3589 25.2372Z" fill="#007D74"></path><path d="M44.4139 8.83578L22.8103 0.864453C22.61 0.790625 22.39 0.790625 22.1897 0.864453L0.586143 8.83578L0.585967 8.83648C0.515215 8.86268 0.447188 8.8973 0.383906 8.94134C0.14335 9.10903 0 9.38369 0 9.67681V35.3238C0 35.6992 0.233877 36.0349 0.586055 36.1648L22.1897 44.1362C22.2904 44.1734 22.3954 44.1915 22.4999 44.1915C22.6055 44.1915 22.7105 44.1724 22.81 44.1356L22.8103 44.1362L44.4139 36.1648C44.7661 36.0349 45 35.6993 45 35.3238V9.67681C45 9.30134 44.7661 8.96577 44.4139 8.83578ZM21.6036 42.009L1.79279 34.6991V10.9631L5.82662 12.4516V23.313C5.82662 23.6883 6.0605 24.024 6.41268 24.154L16.0939 27.7263C16.1946 27.7635 16.2997 27.7817 16.4042 27.7817C16.585 27.7817 16.7643 27.7269 16.9168 27.6206C17.1573 27.453 17.3007 27.1784 17.3007 26.8853V16.6853L21.6034 18.2729V42.009H21.6036ZM15.5079 16.0237V25.5988L7.6195 22.688V13.113L15.5079 16.0237ZM9.31263 11.8196L16.4043 9.20281L23.4961 11.8196L16.4043 14.4363L9.31263 11.8196ZM22.5 16.6927L18.9843 15.3954L26.396 12.6605C26.7482 12.5305 26.9821 12.195 26.9821 11.8195C26.9821 11.444 26.7482 11.1085 26.396 10.9785L16.7147 7.40624C16.5144 7.33241 16.2944 7.33241 16.094 7.40624L6.71335 10.8677L3.48601 9.67681L22.5 2.66103L41.514 9.67689L22.5 16.6927ZM43.2072 34.6991L23.3965 42.0089V18.2729L43.2072 10.9631V34.6991Z" fill="#007D74"></path></svg> 