<?xml version="1.0" encoding="UTF-8"?> <svg xmlns="http://www.w3.org/2000/svg" width="45" height="45" viewBox="0 0 45 45" fill="none"><path d="M10.1953 22.5C9.71016 22.5 9.31641 22.8938 9.31641 23.3789C9.31641 23.8641 9.71016 24.2578 10.1953 24.2578C10.6805 24.2578 11.0742 23.8641 11.0742 23.3789C11.0742 22.8938 10.6805 22.5 10.1953 22.5Z" fill="#007D74"></path><path d="M42.3633 20.7422H40.5504C40.1482 18.9715 39.4447 17.2961 38.4529 15.7469L40.8942 9.64283C41.0025 9.37204 40.9694 9.06521 40.8059 8.82369C40.6425 8.58217 40.3697 8.4375 40.0781 8.4375C37.7463 8.4375 35.5569 9.46107 34.061 11.2146C32.909 10.421 31.667 9.78847 30.3541 9.3266C30.3913 9.03199 30.4102 8.73492 30.4102 8.4375C30.4102 4.56047 27.2559 1.40625 23.3789 1.40625C19.5019 1.40625 16.3477 4.56047 16.3477 8.4375C16.3477 8.77702 16.3727 9.11443 16.4206 9.44745C10.5814 11.572 6.24806 16.8286 5.83515 23.2061C5.81396 23.5327 5.80315 23.8584 5.80166 24.183C4.71621 24.0068 3.61125 23.537 3.04488 22.9712C2.21493 22.1405 1.75781 21.0368 1.75781 19.8633C1.75781 18.7098 2.20605 17.594 3.04462 16.7556C3.38783 16.4124 3.38783 15.8559 3.04462 15.5126C2.70141 15.1695 2.14488 15.1695 1.80158 15.5126C0.676846 16.6375 0 18.1814 0 19.8633C0 21.506 0.639756 23.051 1.80193 24.2142C2.83491 25.2462 4.50668 25.8093 5.89245 25.9681C6.14206 28.2906 6.90064 30.5206 8.13639 32.5289C9.70295 35.075 11.9263 37.1045 14.5899 38.4268V40.957C14.5899 42.4109 15.7728 43.5938 17.2267 43.5938H18.9845C20.4384 43.5938 21.6212 42.4109 21.6212 40.957V40.0781H25.1368C25.7157 40.0781 26.3037 40.0443 26.8946 39.9772V40.957C26.8946 42.4109 28.0775 43.5938 29.5313 43.5938H31.2892C32.743 43.5938 33.9259 42.4109 33.9259 40.957V37.4086C36.7707 35.5038 38.9203 32.7392 40.0542 29.5312H42.3633C43.8172 29.5312 45 28.3484 45 26.8945V23.3789C45 21.925 43.8172 20.7422 42.3633 20.7422ZM23.3789 3.16406C26.2867 3.16406 28.6523 5.52973 28.6523 8.4375C28.6523 11.3711 26.2774 13.7109 23.3789 13.7109C20.4754 13.7109 18.1055 11.3561 18.1055 8.4375C18.1055 5.52973 20.4711 3.16406 23.3789 3.16406ZM43.2422 26.8945C43.2422 27.3792 42.8479 27.7734 42.3633 27.7734H39.4189C39.033 27.7734 38.6922 28.0252 38.5788 28.3942C37.5882 31.6177 35.458 34.3847 32.5805 36.1858C32.3239 36.3465 32.168 36.628 32.168 36.9309V40.957C32.168 41.4417 31.7737 41.8359 31.2891 41.8359H29.5312C29.0466 41.8359 28.6523 41.4417 28.6523 40.957V38.961C28.6523 38.7009 28.5371 38.4541 28.3377 38.2872C28.1382 38.1203 27.8751 38.05 27.619 38.0958C26.7844 38.2448 25.9492 38.3203 25.1367 38.3203C21.3344 38.3077 21.7724 38.3433 21.0652 38.2939C20.9742 38.2876 20.8833 38.2812 20.7921 38.2761C20.5508 38.2614 20.3144 38.3486 20.1386 38.5146C19.9629 38.6808 19.8633 38.9118 19.8633 39.1536V40.957C19.8633 41.4417 19.469 41.8359 18.9844 41.8359H17.2266C16.7419 41.8359 16.3477 41.4417 16.3477 40.957V37.8712C16.3477 37.526 16.1457 37.2129 15.8313 37.0706C10.4418 34.6303 7.20659 29.2328 7.58936 23.3198C7.94355 17.8485 11.5689 13.1354 16.89 11.1478C17.3065 12.1459 17.943 13.017 18.7316 13.711H17.2266C16.7411 13.711 16.3477 14.1046 16.3477 14.5899C16.3477 15.0753 16.7411 15.4688 17.2266 15.4688H29.5312C30.0167 15.4688 30.4102 15.0753 30.4102 14.5899C30.4102 14.1046 30.0167 13.711 29.5312 13.711H28.0307C28.8469 12.9917 29.4998 12.0821 29.9145 11.0369C31.2722 11.5312 32.5434 12.2324 33.701 13.1276C33.8934 13.2763 34.1388 13.3386 34.3789 13.3C34.619 13.2611 34.8323 13.1245 34.968 12.9227C35.8574 11.6 37.2041 10.6902 38.7193 10.3471L36.65 15.5212C36.5413 15.793 36.5749 16.1009 36.7397 16.3426C37.87 18.0011 38.6194 19.829 38.9667 21.7756C39.0415 22.1948 39.4061 22.5001 39.8319 22.5001H42.3633C42.8479 22.5001 43.2422 22.8944 43.2422 23.379V26.8945Z" fill="#007D74"></path><path d="M17.2807 33.8672C14.255 32.4969 12.0938 29.8785 11.3512 26.6835C11.2413 26.2108 10.7689 25.9167 10.2961 26.0264C9.82336 26.1362 9.52911 26.6086 9.63897 27.0814C10.5064 30.8137 13.0274 33.8706 16.5555 35.4684C16.9977 35.6688 17.5185 35.4726 17.7188 35.0304C17.919 34.5882 17.7228 34.0674 17.2807 33.8672Z" fill="#007D74"></path><path d="M33.0469 18.9844C31.593 18.9844 30.4102 20.1672 30.4102 21.6211C30.4102 23.075 31.593 24.2578 33.0469 24.2578C34.5008 24.2578 35.6836 23.075 35.6836 21.6211C35.6836 20.1672 34.5008 18.9844 33.0469 18.9844ZM33.0469 22.5C32.5622 22.5 32.168 22.1057 32.168 21.6211C32.168 21.1365 32.5622 20.7422 33.0469 20.7422C33.5315 20.7422 33.9258 21.1365 33.9258 21.6211C33.9258 22.1057 33.5315 22.5 33.0469 22.5Z" fill="#007D74"></path><path d="M23.3789 5.80078C22.8935 5.80078 22.5 6.19436 22.5 6.67969V10.1953C22.5 10.6806 22.8935 11.0742 23.3789 11.0742C23.8643 11.0742 24.2578 10.6806 24.2578 10.1953V6.67969C24.2578 6.19436 23.8643 5.80078 23.3789 5.80078Z" fill="#007D74"></path></svg> 