<?xml version="1.0" encoding="UTF-8"?> <svg xmlns="http://www.w3.org/2000/svg" width="58" height="37" viewBox="0 0 58 37" fill="none"><path d="M12.4041 8.34922C12.9479 8.03203 13.1291 7.34102 12.812 6.79728C12.4948 6.25354 11.8038 6.07229 11.26 6.38947C7.11397 8.81366 4.53119 13.3109 4.53119 18.1253C4.53119 18.7483 5.04095 19.2581 5.66399 19.2581C6.28703 19.2581 6.79679 18.7483 6.79679 18.1253C6.79679 14.1152 8.94911 10.3656 12.4041 8.34922Z" fill="#007D74"></path><path d="M18.1248 9.0625C13.1291 9.0625 9.06238 13.1293 9.06238 18.1249C9.06238 23.1205 13.1291 27.1873 18.1248 27.1873C23.1204 27.1873 27.1872 23.1205 27.1872 18.1249C27.1872 13.1293 23.1204 9.0625 18.1248 9.0625ZM18.1248 24.9217C14.3752 24.9217 11.328 21.8745 11.328 18.1249C11.328 14.3753 14.3752 11.3281 18.1248 11.3281C21.8743 11.3281 24.9216 14.3753 24.9216 18.1249C24.9216 21.8745 21.8743 24.9217 18.1248 24.9217Z" fill="#007D74"></path><path d="M56.1755 29.1583C54.6123 30.3704 52.426 31.0727 50.1717 31.0727C47.2604 31.0727 45.7878 30.1551 44.0772 29.1016C42.3327 28.0141 40.339 26.7794 36.782 26.7794C35.7851 26.7794 34.7996 26.8927 33.8594 27.1079C34.709 25.6239 35.3547 24.004 35.7625 22.2935C36.1023 22.2595 36.4422 22.2482 36.782 22.2482C39.6933 22.2482 41.1659 23.1658 42.8765 24.2193C44.621 25.3068 46.6147 26.5415 50.1717 26.5415C51.6217 26.5415 53.0377 26.3149 54.363 25.8505C54.9521 25.6466 55.2693 25.0009 55.0654 24.4118C54.8615 23.8228 54.2158 23.5056 53.6267 23.7095C52.5279 24.0833 51.3611 24.2759 50.1604 24.2759C47.2491 24.2759 45.7764 23.3583 44.0659 22.3048C42.3214 21.2173 40.3277 19.9826 36.7707 19.9826C36.5554 19.9826 36.3515 19.9939 36.1363 19.9939C36.2043 19.3822 36.2269 18.7592 36.2269 18.1248C36.2269 17.2299 36.159 16.335 36.0343 15.4741C36.2722 15.4627 36.5215 15.4514 36.7593 15.4514C39.6706 15.4514 41.1433 16.369 42.8538 17.4225C44.5983 18.51 46.592 19.7447 50.149 19.7447C52.9244 19.7447 55.5525 18.8951 57.5349 17.3658C58.0333 16.9807 58.1239 16.267 57.7388 15.7799C57.3536 15.2815 56.64 15.1908 56.1529 15.576C54.5896 16.7881 52.4033 17.4904 50.149 17.4904C47.2377 17.4904 45.7651 16.5729 44.0546 15.5194C42.3101 14.4319 40.3163 13.1971 36.7593 13.1971C36.3515 13.1971 35.9551 13.2198 35.5586 13.2538C35.1394 11.7811 34.5504 10.3764 33.7914 9.07373C34.7316 8.80186 35.7398 8.66592 36.7593 8.66592C39.6706 8.66592 41.1433 9.58349 42.8538 10.637C44.5983 11.7245 46.592 12.9592 50.149 12.9592C52.9244 12.9592 55.5525 12.1096 57.5349 10.5804C58.0333 10.1952 58.1239 9.48154 57.7388 8.99443C57.3536 8.50733 56.64 8.40538 56.1529 8.79053C54.5896 10.0026 52.4033 10.705 50.149 10.705C47.2377 10.705 45.7651 9.78739 44.0546 8.73389C42.3101 7.6464 40.3163 6.41165 36.7593 6.41165C35.2867 6.41165 33.8254 6.66086 32.4774 7.12531C29.1922 2.78669 23.97 0 18.1248 0C8.1335 0 0 8.1335 0 18.1248C0 28.1161 8.1335 36.2496 18.1248 36.2496C23.279 36.2496 27.9348 34.086 31.2313 30.6309C32.7606 29.6114 34.7316 29.045 36.782 29.045C39.6933 29.045 41.1659 29.9626 42.8765 31.0161C44.621 32.1036 46.6147 33.3383 50.1717 33.3383C52.947 33.3383 55.5751 32.4887 57.5575 30.9594C58.056 30.5743 58.1466 29.8606 57.7614 29.3735C57.3763 28.8637 56.6626 28.7731 56.1755 29.1583ZM18.1248 33.984C9.37958 33.984 2.2656 26.87 2.2656 18.1248C2.2656 9.37959 9.37958 2.2656 18.1248 2.2656C26.87 2.2656 33.984 9.37959 33.984 18.1248C33.984 26.87 26.87 33.984 18.1248 33.984Z" fill="#007D74"></path><path d="M56.1756 22.3623C56.1642 22.3736 56.1529 22.3736 56.1416 22.3849C55.6658 22.7701 55.5752 23.4611 55.949 23.9482C56.1756 24.2427 56.5154 24.4013 56.8552 24.4013C57.0931 24.4013 57.331 24.3333 57.5349 24.1747C57.5462 24.1634 57.5576 24.1521 57.5689 24.1408C58.0447 23.7556 58.124 23.0646 57.7615 22.5775C57.3877 22.0791 56.674 21.9771 56.1756 22.3623Z" fill="#007D74"></path><path d="M14.8849 7.22806C14.9755 7.22806 15.0775 7.21674 15.1794 7.19408C15.1794 7.19408 15.1908 7.19408 15.2021 7.19408C15.8025 7.02416 16.165 6.40112 15.995 5.80074C15.8251 5.20035 15.2021 4.83786 14.6017 5.00778H14.5904C13.99 5.16637 13.6388 5.78941 13.7974 6.38979C13.9334 6.88822 14.3865 7.22806 14.8849 7.22806Z" fill="#007D74"></path></svg> 