<?xml version="1.0" encoding="UTF-8"?> <svg xmlns="http://www.w3.org/2000/svg" width="45" height="45" viewBox="0 0 45 45" fill="none"><path d="M18.7403 20.6001H14.6667C14.2742 20.6001 13.9562 20.9183 13.9562 21.3106C13.9562 21.703 14.2742 22.0211 14.6667 22.0211H18.7403C19.1328 22.0211 19.4508 21.703 19.4508 21.3106C19.4508 20.9182 19.1328 20.6001 18.7403 20.6001Z" fill="#007D74"></path><path d="M36 42.1998H40.0736C40.4662 42.1998 40.7841 41.8818 40.7841 41.4893C40.7841 41.0969 40.4661 40.7788 40.0736 40.7788H36C35.6075 40.7788 35.2895 41.097 35.2895 41.4893C35.2895 41.8817 35.6075 42.1998 36 42.1998Z" fill="#007D74"></path><path d="M13.3579 6.95764H17.4316C17.8241 6.95764 18.1421 6.63947 18.1421 6.24713C18.1421 5.8547 17.824 5.53662 17.4316 5.53662H13.3579C12.9654 5.53662 12.6474 5.85479 12.6474 6.24713C12.6474 6.63947 12.9654 6.95764 13.3579 6.95764Z" fill="#007D74"></path><path d="M18.7403 22.9683H14.6667C14.2742 22.9683 13.9562 23.2863 13.9562 23.6788C13.9562 24.0712 14.2742 24.3893 14.6667 24.3893H18.7403C19.1328 24.3893 19.4508 24.0712 19.4508 23.6788C19.4508 23.2864 19.1328 22.9683 18.7403 22.9683Z" fill="#007D74"></path><path d="M14.6666 39.4528H18.7402C19.1327 39.4528 19.4507 39.1347 19.4507 38.7422C19.4507 38.3498 19.1327 38.0317 18.7402 38.0317H14.6666C14.274 38.0317 13.9561 38.3499 13.9561 38.7422C13.9561 39.1347 14.2742 39.4528 14.6666 39.4528Z" fill="#007D74"></path><path d="M14.6666 41.8209H18.7402C19.1327 41.8209 19.4507 41.5029 19.4507 41.1104C19.4507 40.718 19.1327 40.3999 18.7402 40.3999H14.6666C14.274 40.3999 13.9561 40.7181 13.9561 41.1104C13.9561 41.5029 14.2742 41.8209 14.6666 41.8209Z" fill="#007D74"></path><path d="M43.7515 35.2426H38.7827V27.7105C38.7827 27.318 38.4647 27 38.0722 27C37.6797 27 37.3617 27.318 37.3617 27.7105V35.2426H31.8607C31.1723 35.2426 30.6122 35.8025 30.6122 36.491V38.8848V43.579H22.5411C22.4788 43.579 22.4281 43.5282 22.4281 43.4659V43.1526V27.805V25.5313V17.4527C22.4281 17.3903 22.4788 17.3396 22.5411 17.3396H26.7212V25.4397C26.7212 25.712 26.877 25.9604 27.1221 26.0792C27.367 26.1979 27.6587 26.166 27.8723 25.9972L29.8949 24.3984L31.9176 25.9972C32.0454 26.0982 32.2012 26.1503 32.3582 26.1503C32.4635 26.1503 32.5694 26.1269 32.6678 26.0793C32.913 25.9605 33.0687 25.7121 33.0687 25.4398V17.3397H37.2486C37.311 17.3397 37.3618 17.3905 37.3618 17.4528V25.3422C37.3618 25.7347 37.6798 26.0527 38.0723 26.0527C38.4648 26.0527 38.7828 25.7346 38.7828 25.3422V17.4528C38.7828 16.6068 38.0944 15.9187 37.2486 15.9187H32.3582H27.4319H22.5413C22.5032 15.9187 22.4657 15.9216 22.4283 15.9244V10.1838C22.4283 9.84604 22.3356 9.53024 22.1767 9.25743C22.3339 9.0486 22.4283 8.79003 22.4283 8.50913V3.6421V1.24831C22.428 0.559951 21.868 0 21.1796 0H9.28863C8.60027 0 8.04041 0.559951 8.04041 1.24831V3.64219V8.33643H1.84737C0.828721 8.33634 0 9.16515 0 10.1837V25.5313C0 25.9602 0.148184 26.3544 0.394277 26.6682C0.148184 26.982 0 27.3762 0 27.805V43.1526C0 44.1713 0.828721 45 1.84737 45H16.2158C16.6083 45 16.9263 44.682 16.9263 44.2895C16.9263 43.897 16.6083 43.579 16.2158 43.579H1.84737C1.61235 43.579 1.42102 43.3877 1.42102 43.1526V27.805C1.42102 27.5699 1.61227 27.3786 1.84737 27.3786H8.04041V35.4787C8.04041 35.7511 8.19615 35.9995 8.44128 36.1182C8.68623 36.237 8.97785 36.205 9.19151 36.0362L11.2141 34.4376L13.2368 36.0362C13.3646 36.1373 13.5204 36.1893 13.6774 36.1893C13.7827 36.1893 13.8886 36.1659 13.987 36.1183C14.2322 35.9996 14.3879 35.7512 14.3879 35.4788V27.3787H20.5807C20.8158 27.3787 21.0071 27.5699 21.0071 27.8051V43.1527C21.0071 43.3877 20.8158 43.5791 20.5807 43.5791H18.6476C18.2551 43.5791 17.9371 43.8971 17.9371 44.2896C17.9371 44.6821 18.2551 45.0001 18.6476 45.0001H20.5807C20.9626 45.0001 21.3178 44.8835 21.6126 44.6843C21.8707 44.8815 22.1919 45.0001 22.541 45.0001L31.8453 45C31.8503 45 31.8553 45 31.8604 45L31.8605 44.9999H43.7515C44.44 44.9999 44.9999 44.44 44.9999 43.7517V38.8847V36.491C45 35.8026 44.44 35.2426 43.7515 35.2426ZM28.1422 17.3395H31.6475V23.9723L30.3354 22.9353C30.2063 22.8333 30.0505 22.7822 29.8949 22.7822C29.7392 22.7822 29.5834 22.8333 29.4543 22.9353L28.1422 23.9723V17.3395ZM9.46143 9.75735H12.9667V16.3902L11.6546 15.3531C11.5255 15.251 11.3697 15.2 11.2141 15.2C11.0584 15.2 10.9026 15.251 10.7735 15.3531L9.46143 16.3902V9.75735ZM12.9668 34.0115L11.6546 32.9745C11.5256 32.8724 11.3698 32.8213 11.2141 32.8213C11.0585 32.8213 10.9027 32.8724 10.7736 32.9745L9.46151 34.0115V27.3786H12.9668V34.0115ZM21.0069 17.4527V25.5313C21.0069 25.7663 20.8157 25.9576 20.5806 25.9576H13.6772H8.75092H1.84737C1.61235 25.9576 1.42102 25.7664 1.42102 25.5313V10.1836C1.42102 9.9486 1.61227 9.75727 1.84737 9.75727H8.04041V17.8574C8.04041 18.1297 8.19615 18.3781 8.44128 18.4968C8.68623 18.6157 8.97785 18.5837 9.19151 18.4148L11.2141 16.8162L13.2368 18.4148C13.3646 18.5159 13.5204 18.5679 13.6774 18.5679C13.7827 18.5679 13.8886 18.5446 13.987 18.4969C14.2322 18.3782 14.3879 18.1298 14.3879 17.8574V9.75735H20.5807C20.8158 9.75735 21.0071 9.9486 21.0071 10.1837V17.4527H21.0069ZM21.0069 8.33625H20.5806H13.6772H9.46143V4.35261H21.0069V8.33625ZM21.0069 2.9315H9.46143V1.42102H21.0069V2.9315ZM43.579 43.5789H32.0332V39.5953H43.5789V43.5789H43.579ZM43.579 38.1742H32.0332V36.6637H38.0721H43.5789V38.1742H43.579Z" fill="#007D74"></path></svg> 