<?xml version="1.0" encoding="UTF-8"?> <svg xmlns="http://www.w3.org/2000/svg" width="43" height="43" viewBox="0 0 43 43" fill="none"><g clip-path="url(#clip0)"><path d="M35.3574 31.4102C34.8935 31.4102 34.5175 31.7862 34.5175 32.25V40.4805C34.5175 40.9436 34.1408 41.3203 33.6777 41.3203H4.78919C4.3261 41.3203 3.94934 40.9436 3.94934 40.4805V25.2793C3.94934 24.8155 3.57335 24.4395 3.1095 24.4395C2.64565 24.4395 2.26965 24.8155 2.26965 25.2793V40.4805C2.26965 41.8697 3.39992 43 4.78919 43H33.6777C35.067 43 36.1972 41.8697 36.1972 40.4805V32.25C36.1972 31.7862 35.8212 31.4102 35.3574 31.4102Z" fill="#007D74"></path><path d="M38.6543 15.7175C37.9329 14.9961 37.093 14.4646 36.1973 14.1191V9.06941C36.1966 9.06932 36.196 9.06924 36.1953 9.06924C36.1952 8.8508 36.1119 8.63613 35.9513 8.47555L27.7218 0.246075C27.5613 0.0854963 27.3464 0.00226758 27.1281 0.0021836C27.1281 0.00142774 27.128 0.000755861 27.128 0H4.78919C3.39992 0 2.26965 1.13026 2.26965 2.51954V18.1686C2.26965 18.6325 2.64565 19.0085 3.1095 19.0085C3.57335 19.0085 3.94934 18.6325 3.94934 18.1686V2.51945C3.94934 2.05636 4.3261 1.67961 4.78919 1.67961H26.2881V7.38972C26.2881 8.77899 27.4184 9.90925 28.8077 9.90925H34.5175V13.6981C32.4177 13.437 30.2229 14.1088 28.6142 15.7175L16.6446 27.687C16.3167 28.015 16.3167 28.5468 16.6446 28.8748C16.9726 29.2028 17.5044 29.2028 17.8324 28.8748L29.802 16.9052C31.915 14.7922 35.3534 14.7921 37.4666 16.9052C39.5797 19.0184 39.5797 22.4567 37.4666 24.5698L26.2407 35.7956C24.923 37.1133 22.7789 37.1134 21.4613 35.7956C20.823 35.1574 20.4715 34.3087 20.4715 33.4059C20.4715 32.5033 20.823 31.6545 21.4613 31.0162L32.7418 19.7358C32.9904 19.4872 33.3209 19.3502 33.6725 19.3502C34.024 19.3502 34.3546 19.4871 34.6032 19.7358C34.8518 19.9844 34.9887 20.3149 34.9887 20.6665C34.9887 21.0181 34.8518 21.3486 34.6031 21.5972L24.4365 31.7637C24.1086 32.0917 24.1086 32.6235 24.4365 32.9515C24.7645 33.2794 25.2963 33.2794 25.6243 32.9515L35.7908 22.7849C36.3567 22.2191 36.6684 21.4667 36.6684 20.6665C36.6684 19.8663 36.3567 19.1139 35.7909 18.5481C35.2251 17.9822 34.4727 17.6705 33.6725 17.6705C32.8723 17.6705 32.1199 17.9822 31.5541 18.548L20.2736 29.8285C18.301 31.8011 18.301 35.0107 20.2736 36.9834C21.26 37.9697 22.5553 38.4629 23.851 38.4627C25.1464 38.4627 26.4423 37.9695 27.4284 36.9834L38.6543 25.7575C41.4222 22.9895 41.4222 18.4855 38.6543 15.7175ZM28.8077 8.22956C28.3446 8.22956 27.9678 7.85281 27.9678 7.38972V2.86748L33.3298 8.22956H28.8077Z" fill="#007D74"></path><path d="M3.70351 21.1758C3.5473 21.0196 3.33062 20.9297 3.10974 20.9297C2.88802 20.9297 2.67218 21.0196 2.51513 21.1758C2.35892 21.332 2.2699 21.5487 2.2699 21.7695C2.2699 21.9904 2.35892 22.2071 2.51513 22.3633C2.67218 22.5203 2.88802 22.6094 3.10974 22.6094C3.33062 22.6094 3.5473 22.5203 3.70351 22.3633C3.85972 22.2071 3.94959 21.9904 3.94959 21.7695C3.94959 21.5487 3.85972 21.332 3.70351 21.1758Z" fill="#007D74"></path><path d="M15.3649 30.6004L15.3483 30.5491C15.2051 30.1079 14.7314 29.8663 14.2902 30.0095C13.849 30.1527 13.6074 30.6265 13.7506 31.0676L13.7672 31.1189C13.8825 31.474 14.2118 31.6998 14.5659 31.6998C14.6518 31.6998 14.7393 31.6864 14.8253 31.6585C15.2665 31.5153 15.5081 31.0416 15.3649 30.6004Z" fill="#007D74"></path></g><defs><clipPath id="clip0"><rect width="43" height="43" fill="white"></rect></clipPath></defs></svg> 