<?xml version="1.0" encoding="UTF-8"?> <svg xmlns="http://www.w3.org/2000/svg" width="41" height="41" viewBox="0 0 41 41" fill="none"><path d="M39.3517 11.3495L23.0448 0.755231C21.4992 -0.248789 19.5013 -0.24991 17.9548 0.752588L1.65169 11.3191C0.617482 11.9893 0 13.1252 0 14.3577V40.1074C0 40.5995 0.399109 40.9987 0.891269 40.9987H8.02175H32.9782H40.1086C40.6008 40.9987 40.9999 40.5995 40.9999 40.1074V14.386C41 13.1552 40.3839 12.02 39.3517 11.3495ZM32.087 39.2162H8.91301V36.5423H32.0869V39.2162H32.087ZM32.087 34.7597H8.91301V32.9771H32.0869V34.7597H32.087ZM32.087 27.6292H16.9348C16.4426 27.6292 16.0435 28.0283 16.0435 28.5205C16.0435 29.0126 16.4426 29.4117 16.9348 29.4117H32.0869V31.1944H8.91301V29.4117H11.5869C12.0791 29.4117 12.4782 29.0126 12.4782 28.5205C12.4782 28.0283 12.0791 27.6292 11.5869 27.6292H8.91301V24.9553H32.0869V27.6292H32.087ZM39.2174 39.2162H33.8695V24.0641C33.8695 23.5719 33.4704 23.1728 32.9782 23.1728H8.02175C7.52959 23.1728 7.13048 23.5719 7.13048 24.0641V39.2162H1.78262V14.3577C1.78262 14.3248 1.78398 14.2922 1.78566 14.2596H6.32825C6.82041 14.2596 7.21952 13.8605 7.21952 13.3683C7.21952 12.8762 6.82041 12.4771 6.32825 12.4771H3.14251L18.9243 2.24845C19.8812 1.62824 21.1173 1.6288 22.0735 2.25013L38.3805 12.8444C38.9046 13.1848 39.2174 13.7612 39.2174 14.3861V39.2162Z" fill="#007D74"></path><path d="M32.9783 16.042H24.0653H16.9349H8.02176C7.5296 16.042 7.13049 16.4411 7.13049 16.9333V20.4985C7.13049 20.9907 7.5296 21.3898 8.02176 21.3898H16.9348H24.0652H32.9782C33.4704 21.3898 33.8695 20.9907 33.8695 20.4985V16.9333C33.8696 16.441 33.4704 16.042 32.9783 16.042ZM16.0435 19.6072H8.91311V17.8245H16.0435V19.6072ZM23.1739 19.6072H17.826V17.8245H23.1739V19.6072ZM32.087 19.6072H24.9565V17.8245H32.087V19.6072Z" fill="#007D74"></path><path d="M14.891 27.8905C14.7253 27.7248 14.4953 27.6294 14.2609 27.6294C14.0265 27.6294 13.7965 27.7247 13.6308 27.8905C13.465 28.0564 13.3696 28.2863 13.3696 28.5207C13.3696 28.7551 13.4649 28.985 13.6308 29.1507C13.7965 29.3166 14.0265 29.4119 14.2609 29.4119C14.4953 29.4119 14.7253 29.3166 14.891 29.1507C15.0567 28.985 15.1522 28.7551 15.1522 28.5207C15.1522 28.2863 15.0568 28.0563 14.891 27.8905Z" fill="#007D74"></path><path d="M9.63229 12.7382C9.4666 12.5724 9.23662 12.4771 9.00223 12.4771C8.76784 12.4771 8.53786 12.5723 8.3721 12.7382C8.20634 12.904 8.11096 13.1339 8.11096 13.3683C8.11096 13.6027 8.20625 13.8327 8.3721 13.9984C8.53786 14.1642 8.76784 14.2596 9.00223 14.2596C9.23662 14.2596 9.4666 14.1642 9.63229 13.9984C9.79805 13.8327 9.8935 13.6027 9.8935 13.3683C9.8935 13.1339 9.79813 12.9039 9.63229 12.7382Z" fill="#007D74"></path></svg> 