<?xml version="1.0" encoding="UTF-8"?> <svg xmlns="http://www.w3.org/2000/svg" width="45" height="45" viewBox="0 0 45 45" fill="none"><g clip-path="url(#clip0)"><path d="M22.4472 25.5762C22.9323 25.5762 23.3261 25.1824 23.3261 24.6973C23.3261 24.2122 22.9323 23.8184 22.4472 23.8184C21.9621 23.8184 21.5683 24.2122 21.5683 24.6973C21.5683 25.1824 21.9621 25.5762 22.4472 25.5762Z" fill="#007D74"></path><path d="M21.9452 44.7485C22.098 44.8577 22.2769 44.9123 22.4561 44.9123C22.6353 44.9123 22.8142 44.8577 22.967 44.7485C31.9219 38.3521 40.9132 35.5454 40.9132 22.3841V6.08996C40.9132 5.63299 40.5626 5.25225 40.1074 5.21414L37.8229 5.02325C32.5855 4.58689 27.4329 2.86546 22.922 0.045748C22.637 -0.132437 22.2752 -0.132437 21.9902 0.045748C17.4789 2.86546 12.3263 4.58689 7.08894 5.0236L4.8048 5.21414C4.34921 5.25225 3.99902 5.63299 3.99902 6.08996V22.3841C3.99902 35.9165 14.2531 39.254 21.9452 44.7485ZM5.75684 6.89848L7.23519 6.77523C12.5708 6.33028 17.8209 4.62053 22.4561 1.82245C27.091 4.62053 32.3414 6.33028 37.6767 6.77523L39.1553 6.89848V22.3841C39.1553 34.2518 31.2476 36.7982 22.4547 42.9577C14.7378 37.6012 5.75684 34.5614 5.75684 22.3841V6.89848Z" fill="#007D74"></path><path d="M21.9438 38.3599C22.2631 38.5779 22.6652 38.5621 22.9683 38.3369C30.9248 32.8297 35.6397 31.0176 35.6397 22.3851V10.8573C35.6397 10.4223 35.3214 10.0526 34.8913 9.98801C30.6849 9.35595 26.6367 8.04686 22.8591 6.09713C22.5872 5.95671 22.2635 5.97456 22.0142 6.11669C18.2473 8.05613 14.2122 9.3587 10.0209 9.98801C9.59072 10.0526 9.27246 10.422 9.27246 10.8573V22.3851C9.27246 31.099 14.4364 33.2375 21.9438 38.3599ZM11.0303 11.6068C14.6856 10.9885 18.2205 9.87643 21.5682 8.29543V21.1817C21.5682 21.6672 21.9617 22.0606 22.4472 22.0606C22.9326 22.0606 23.3261 21.6672 23.3261 21.1817V8.28719C26.6786 9.87197 30.22 10.9871 33.8819 11.6068V22.3851C33.8819 29.5296 30.5352 31.0873 23.3261 35.9628V28.213C23.3261 27.7275 22.9326 27.3341 22.4472 27.3341C21.9617 27.3341 21.5682 27.7275 21.5682 28.213V35.9882C14.8326 31.5044 11.0303 29.5884 11.0303 22.3851V11.6068Z" fill="#007D74"></path></g><defs><clipPath id="clip0"><rect width="44.9122" height="45" fill="white"></rect></clipPath></defs></svg> 