<?xml version="1.0" encoding="UTF-8"?> <svg xmlns="http://www.w3.org/2000/svg" width="45" height="45" viewBox="0 0 45 45" fill="none"><g clip-path="url(#clip0)"><path d="M44.7572 43.5144L34.8611 33.1433C34.6953 32.9694 34.4655 32.8711 34.2252 32.8711H30.3383L35.1314 26.7305C35.1499 26.7068 35.1671 26.6823 35.183 26.6571C37.5456 23.7537 38.8456 20.0965 38.8456 16.3453C38.8456 7.33254 31.5132 0 22.5003 0C19.794 0 17.1127 0.675352 14.7459 1.95302C14.3188 2.18364 14.1594 2.71679 14.3901 3.14394C14.6207 3.57108 15.1538 3.73034 15.581 3.4998C17.692 2.36021 20.0847 1.75781 22.5003 1.75781C30.5438 1.75781 37.0878 8.3018 37.0878 16.3454C37.0878 19.729 35.9031 23.0263 33.7519 25.63C33.7227 25.6655 33.6966 25.7027 33.6735 25.7415L22.5004 40.0558L11.2221 25.5996C11.211 25.5841 11.1994 25.5689 11.1873 25.5539C9.07568 22.9632 7.9128 19.6929 7.9128 16.3454C7.9128 13.2826 8.85121 10.3516 10.6265 7.86929C10.9089 7.47448 10.8178 6.92552 10.423 6.64313C10.0282 6.36073 9.47919 6.45188 9.1968 6.84668C7.20687 9.62912 6.15499 12.9137 6.15499 16.3454C6.15499 20.083 7.44883 23.7349 9.79937 26.6334C9.8035 26.6389 9.80764 26.6444 9.81194 26.6499L14.6656 32.8711H10.7155C10.4743 32.8711 10.2437 32.9701 10.0777 33.1452L0.241538 43.5163C-0.000161382 43.7711 -0.0669582 44.1454 0.0717331 44.4682C0.210424 44.7909 0.527973 45 0.879184 45H29.8245C30.3099 45 30.7034 44.6065 30.7034 44.1211C30.7034 43.6357 30.3099 43.2422 29.8245 43.2422H2.92413L11.0931 34.6289H16.037L21.8073 42.025C21.9739 42.2384 22.2295 42.3632 22.5002 42.3633H22.5003C22.771 42.3633 23.0266 42.2386 23.1931 42.0252L28.9663 34.6289H33.849L42.0679 43.2422H36.6799C36.1945 43.2422 35.801 43.6357 35.801 44.1211C35.801 44.6065 36.1945 45 36.6799 45H44.1213C44.4731 45 44.791 44.7903 44.9293 44.4669C45.0678 44.1436 45.0001 43.7688 44.7572 43.5144Z" fill="#007D74"></path><path d="M31.3965 13.2982L23.0667 6.27157C22.7393 5.99542 22.2607 5.99542 21.9334 6.27157L13.6036 13.2982C13.3215 13.5362 13.2181 13.925 13.3448 14.2716C13.4714 14.6183 13.8012 14.8489 14.1703 14.8489H15.4688V22.4999H15.3023C14.8169 22.4999 14.4234 22.8934 14.4234 23.3789C14.4234 23.8643 14.8169 24.2578 15.3023 24.2578H30.0019C30.4873 24.2578 30.8808 23.8643 30.8808 23.3789C30.8808 22.8934 30.4873 22.4999 30.0019 22.4999H29.5313V14.8488H30.8298C31.1988 14.8488 31.5286 14.6182 31.6553 14.2716C31.782 13.925 31.6786 13.5361 31.3965 13.2982ZM23.9081 22.4999H21.0919V20.3064C21.0919 19.5299 21.7236 18.8983 22.5 18.8983C23.2764 18.8983 23.9081 19.5299 23.9081 20.3064V22.4999ZM27.7735 22.4999H25.6659V20.3064C25.6659 18.5607 24.2457 17.1405 22.5 17.1405C20.7543 17.1405 19.3341 18.5607 19.3341 20.3064V22.4999H17.2266V14.8488H27.7735V22.4999ZM16.5753 13.0911L22.5 8.09319L28.4248 13.0911H16.5753Z" fill="#007D74"></path><path d="M12.8013 4.20479C12.6378 4.04131 12.4119 3.94727 12.1799 3.94727C11.9487 3.94727 11.722 4.04131 11.5585 4.20479C11.395 4.36826 11.301 4.59502 11.301 4.82617C11.301 5.05733 11.395 5.28408 11.5585 5.44756C11.722 5.61104 11.9487 5.70508 12.1799 5.70508C12.4119 5.70508 12.6378 5.61104 12.8013 5.44756C12.9656 5.28408 13.0588 5.05733 13.0588 4.82617C13.0588 4.59502 12.9656 4.36826 12.8013 4.20479Z" fill="#007D74"></path><path d="M33.9609 43.4997C33.7975 43.3362 33.5716 43.2422 33.3396 43.2422C33.1084 43.2422 32.8816 43.3362 32.7182 43.4997C32.5547 43.6632 32.4606 43.8899 32.4606 44.1211C32.4606 44.3522 32.5547 44.579 32.7182 44.7425C32.8816 44.906 33.1084 45 33.3396 45C33.5716 45 33.7975 44.906 33.9609 44.7425C34.1253 44.579 34.2185 44.3522 34.2185 44.1211C34.2185 43.8899 34.1253 43.6632 33.9609 43.4997Z" fill="#007D74"></path></g><defs><clipPath id="clip0"><rect width="45" height="45" fill="white"></rect></clipPath></defs></svg> 