<?xml version="1.0" encoding="UTF-8"?> <svg xmlns="http://www.w3.org/2000/svg" width="46" height="45" viewBox="0 0 46 45" fill="none"><g clip-path="url(#clip0)"><path d="M21.2424 22.6445C20.898 22.9878 20.898 23.5454 21.2424 23.8897C21.5867 24.2341 22.144 24.2341 22.4876 23.8897C22.832 23.5454 22.832 22.9878 22.4876 22.6445C22.144 22.3001 21.5867 22.3001 21.2424 22.6445Z" fill="#007D74"></path><path d="M35.2451 2.62007C33.7339 3.79 33.3222 4.39302 27.9627 9.69707L24.7498 9.17386L26.2242 7.6995C27.2568 6.66682 27.2572 4.99604 26.2242 3.96337C25.1918 2.93104 23.52 2.9307 22.4877 3.96337L18.3233 8.12777L3.75926 5.75661C2.81809 5.60388 1.85525 5.91519 1.18171 6.58874C-0.113432 7.88388 0.0623494 10.0266 1.53981 11.0958L16.0533 21.6062L13.3361 24.3237C12.4049 25.2549 11.4248 26.5356 10.4176 28.1348L3.64918 26.1445C2.65022 25.8511 1.57145 26.1259 0.833585 26.8624C-0.422683 28.1187 -0.232798 30.205 1.22643 31.2157L6.77506 35.0567C5.80912 37.1884 5.22193 38.7299 5.19475 38.8011C5.0716 39.1251 5.15037 39.4915 5.3953 39.7364C5.6416 39.9827 6.0083 40.0594 6.33062 39.937C6.40183 39.9101 7.94327 39.3226 10.075 38.3566L13.9164 43.9056C14.9288 45.3672 17.0151 45.5523 18.27 44.2974C19.0061 43.5602 19.281 42.4815 18.9872 41.4825L16.9972 34.7144C18.5975 33.7065 19.8775 32.7265 20.8083 31.796L23.5259 29.0784L34.0359 43.5919C35.1068 45.0718 37.2495 45.2438 38.5433 43.95C39.2165 43.2768 39.5278 42.3133 39.3754 41.3717L37.0043 26.8087L41.1683 22.6447C42.201 21.612 42.201 19.9402 41.1683 18.9079C40.136 17.8752 38.4652 17.8752 37.4326 18.9079L35.9578 20.3822L35.435 17.1693C40.7445 11.8044 41.3379 11.4023 42.5085 9.89108C42.5099 9.88937 42.5116 9.8873 42.513 9.88524C45.2292 6.36514 45.8649 2.80996 44.0937 1.03804C42.3221 -0.732501 38.7666 -0.0974869 35.2451 2.62007ZM23.733 5.20897C24.077 4.86464 24.6346 4.86464 24.9789 5.20897C25.3233 5.55331 25.3229 6.10955 24.9789 6.45389L22.6074 8.82505L20.4654 8.47624L23.733 5.20897ZM2.57248 9.66886C1.9698 9.23302 1.90066 8.36031 2.42731 7.834C2.70148 7.55949 3.09432 7.43256 3.47684 7.49482L26.4282 11.2316L17.3147 20.3447L2.57248 9.66886ZM2.07885 28.1084C2.36023 27.8273 2.77165 27.722 3.15245 27.8342L9.48299 29.6959C8.83559 30.8297 8.18234 32.0822 7.53082 33.4379L2.22917 29.7678C1.67293 29.3825 1.60001 28.5868 2.07885 28.1084ZM17.024 43.0529C16.5493 43.5276 15.7526 43.4636 15.3643 42.9029L11.6942 37.6009C13.0509 36.9487 14.3037 36.2951 15.4362 35.6491L17.2975 41.9792C17.4097 42.3604 17.3047 42.7718 17.024 43.0529ZM38.6782 20.1531C39.0222 19.8091 39.5787 19.8088 39.9231 20.1531C40.2674 20.4975 40.2671 21.0547 39.9231 21.3991L36.6555 24.6663L36.307 22.5243L38.6782 20.1531ZM37.6369 41.6542C37.6991 42.0377 37.5722 42.4306 37.298 42.7047C36.7741 43.2286 35.9007 43.1646 35.4628 42.5592L24.787 27.8173L33.9004 18.7039L37.6369 41.6542ZM19.5631 30.5504C18.594 31.5197 17.1757 32.5662 15.3478 33.6611C12.9714 35.0842 10.1593 36.432 7.62266 37.5094C8.72929 34.904 10.1025 32.0464 11.5562 29.6429C12.6195 27.8837 13.6374 26.5129 14.5817 25.569C36.093 4.10922 34.8185 5.2162 36.124 4.17217C37.5722 4.07964 38.8471 4.50963 39.7346 5.39714C40.6221 6.28465 41.0524 7.55983 40.9599 9.00771C39.9134 10.3163 41.0073 9.05414 19.5631 30.5504ZM42.4669 6.69366C42.1855 5.7229 41.6857 4.85741 40.9802 4.15188C40.2746 3.44669 39.4091 2.94652 38.4387 2.66513C39.7132 2.01877 41.8594 1.295 42.8484 2.2833C43.6293 3.06451 43.4353 4.78414 42.4669 6.69366Z" fill="#007D74"></path><path d="M26.2241 17.6628L23.7336 20.153C23.3896 20.497 23.3896 21.0546 23.7336 21.3986C24.0776 21.7426 24.6348 21.7422 24.9792 21.3986L27.4694 18.908C27.8134 18.5644 27.8134 18.0068 27.4694 17.6628C27.1254 17.3188 26.5681 17.3188 26.2241 17.6628Z" fill="#007D74"></path><path d="M31.2058 12.6808L28.7143 15.1721C28.3706 15.5161 28.3706 16.0737 28.7143 16.4177C29.0586 16.7613 29.6159 16.7613 29.9599 16.4177L32.4511 13.9265C32.7951 13.5825 32.7951 13.0248 32.4511 12.6808C32.1071 12.3369 31.5498 12.3369 31.2058 12.6808Z" fill="#007D74"></path></g><defs><clipPath id="clip0"><rect width="45.088" height="45" fill="white"></rect></clipPath></defs></svg> 