<?xml version="1.0" encoding="UTF-8"?> <svg xmlns="http://www.w3.org/2000/svg" width="48" height="59" viewBox="0 0 48 59" fill="none"><path d="M38.6165 27.0043C37.8632 28.8845 37.1099 30.7647 36.3566 32.6448C35.5541 34.6477 34.7516 36.6506 33.9491 38.6535C33.9469 38.6591 33.9446 38.6646 33.9424 38.6702C34.4164 38.4774 34.8904 38.2845 35.3644 38.0917C35.1375 37.9701 34.9166 37.8389 34.7082 37.6876C34.5663 37.5846 34.8681 37.8128 34.8362 37.7873C34.7634 37.7291 34.689 37.6729 34.6149 37.6162C34.4838 37.516 34.3441 37.4268 34.2028 37.3418C33.518 36.9298 32.7433 36.6285 31.9599 36.4728C30.7666 36.2356 29.5262 36.3096 28.3792 36.7236C27.6507 36.9865 27.0196 37.3681 26.3754 37.7884C26.0923 37.9731 25.7941 38.1335 25.4875 38.2754C25.2454 38.3874 25.672 38.203 25.4291 38.3011C25.3582 38.3298 25.2862 38.3558 25.2144 38.3817C25.0529 38.4401 24.888 38.4884 24.7221 38.5324C24.5864 38.5685 24.4488 38.597 24.3109 38.6229C24.244 38.6355 24.1766 38.6456 24.1093 38.6557C24.3873 38.6139 24.1589 38.6471 24.1025 38.6528C23.8305 38.6805 23.5562 38.6834 23.2832 38.6709C23.1643 38.6655 23.0457 38.6544 22.9274 38.6415C22.7146 38.6184 23.1651 38.6767 22.956 38.6454C22.9002 38.637 22.8447 38.6271 22.7892 38.6172C22.5618 38.5763 22.3375 38.5192 22.1163 38.4526C21.9325 38.3972 21.7519 38.3312 21.5739 38.2593C21.407 38.1918 21.8042 38.3585 21.6425 38.2879C21.6038 38.2709 21.5653 38.2532 21.5269 38.2355C21.4433 38.197 21.3608 38.1558 21.2789 38.1137C21.0668 38.0046 20.861 37.8823 20.6646 37.7469C20.6209 37.7168 20.5779 37.6857 20.5357 37.6535C20.8555 37.898 20.775 37.8403 20.7108 37.7887C20.6417 37.733 20.5678 37.6778 20.4996 37.6253C20.3804 37.5335 20.2539 37.451 20.1259 37.3722C19.4599 36.9623 18.7042 36.6612 17.9411 36.4949C16.9508 36.279 15.9424 36.2899 14.9545 36.5132C14.3782 36.6435 13.8205 36.8747 13.2953 37.1416C12.7598 37.4137 12.2883 37.7888 11.7619 38.0767C12.2359 38.2695 12.7099 38.4623 13.1839 38.6551C12.4312 36.7775 11.6787 34.8997 10.926 33.022C10.1243 31.0217 9.32258 29.0214 8.52083 27.021C8.51862 27.0155 8.51636 27.0099 8.51415 27.0043C8.28879 27.4013 8.06344 27.7982 7.83809 28.1951C9.467 27.6984 11.0959 27.2017 12.7248 26.705C15.5011 25.8584 18.2775 25.0118 21.0539 24.1651C21.9863 23.8808 22.9187 23.5964 23.8512 23.3121C23.6796 23.3121 23.5081 23.3121 23.3365 23.3121C24.9646 23.8103 26.5927 24.3086 28.2208 24.8068C30.9906 25.6545 33.7605 26.5021 36.5304 27.3498C37.4511 27.6315 38.3718 27.9133 39.2925 28.1951C39.797 28.3494 40.3464 28.0166 40.4833 27.519C40.6262 26.9995 40.3114 26.4826 39.8072 26.3283C38.1791 25.83 36.551 25.3318 34.9229 24.8336C32.1531 23.9859 29.3832 23.1383 26.6133 22.2906C25.7914 22.0391 24.9694 21.7875 24.1474 21.536C23.8778 21.4534 23.6289 21.3562 23.3339 21.4461C23.188 21.4906 23.042 21.5351 22.8961 21.5796C20.6454 22.266 18.3948 22.9523 16.1441 23.6385C13.6006 24.4141 11.0572 25.1897 8.51368 25.9653C8.11696 26.0863 7.72023 26.2072 7.32345 26.3282C6.86256 26.4688 6.44698 27.019 6.64739 27.519C7.40001 29.3966 8.15259 31.2744 8.90521 33.1521C9.70696 35.1524 10.5087 37.1528 11.3104 39.1531C11.3126 39.1587 11.3149 39.1642 11.3171 39.1698C11.4153 39.4147 11.5257 39.6099 11.762 39.7482C12.0672 39.927 12.4331 39.9156 12.7391 39.7482C13.362 39.4075 13.9181 38.9704 14.5655 38.6709C14.8076 38.5589 14.381 38.7433 14.6239 38.6452C14.6948 38.6166 14.7667 38.5906 14.8387 38.5646C14.9776 38.5145 15.1192 38.472 15.2615 38.4324C15.3977 38.3944 15.5358 38.364 15.6744 38.3362C15.7417 38.3228 15.8093 38.3117 15.8769 38.3007C15.9853 38.2847 15.966 38.2871 15.8192 38.3077C15.8629 38.3025 15.9067 38.2977 15.9506 38.2935C16.2025 38.2679 16.4563 38.2638 16.7092 38.2726C16.8289 38.2768 16.9483 38.2867 17.0675 38.2985C17.1321 38.3049 17.3443 38.3349 17.0407 38.2925C17.1154 38.303 17.1897 38.3159 17.2639 38.3292C17.6804 38.4039 18.0873 38.5287 18.4792 38.687C18.646 38.7545 18.2488 38.5879 18.4105 38.6585C18.4493 38.6754 18.4877 38.6931 18.5261 38.7108C18.5984 38.7441 18.6697 38.7794 18.7406 38.8153C18.8711 38.8815 18.9988 38.9533 19.1242 39.0287C19.2593 39.11 19.3919 39.1969 19.5172 39.2927C19.0876 38.9644 19.5366 39.3126 19.6725 39.4081C19.8628 39.5416 20.0638 39.6595 20.2691 39.7682C21.1221 40.2199 22.0288 40.4796 22.9858 40.5838C24.2622 40.7229 25.5438 40.4043 26.6842 39.8421C27.3336 39.5221 27.8959 39.06 28.5461 38.7396C28.6181 38.7041 28.6915 38.6712 28.7649 38.6384C28.5508 38.7343 28.7876 38.6308 28.8224 38.6172C28.9622 38.5628 29.1048 38.5162 29.2482 38.4723C29.3854 38.4304 29.5248 38.396 29.6646 38.3644C29.7324 38.3491 29.8006 38.3363 29.8689 38.3234C29.9279 38.3124 30.242 38.2705 29.9459 38.3077C30.2003 38.2757 30.4571 38.2657 30.7132 38.2691C30.8345 38.2706 30.9556 38.2781 31.0765 38.2874C31.1352 38.292 31.1939 38.2984 31.2525 38.3048C31.4318 38.3243 31.0069 38.2663 31.28 38.3098C31.7048 38.3777 32.1205 38.4978 32.5213 38.6531C32.592 38.6805 32.8115 38.7755 32.4977 38.641C32.5625 38.6688 32.6265 38.6983 32.6904 38.7282C32.805 38.7818 32.9174 38.84 33.0286 38.9004C33.1844 38.9852 33.3361 39.0777 33.483 39.177C33.6113 39.2638 33.7793 39.4054 33.4687 39.1571C33.758 39.3884 34.0606 39.5881 34.3873 39.7631C34.6196 39.8876 34.8755 39.9316 35.1333 39.8607C35.487 39.7634 35.6796 39.5083 35.8093 39.1847C36.5626 37.3045 37.316 35.4243 38.0693 33.5442C38.8717 31.5413 39.6742 29.5384 40.4767 27.5355C40.479 27.5299 40.4812 27.5244 40.4835 27.5188C40.68 27.0282 40.273 26.4562 39.8074 26.3281C39.2552 26.1764 38.8126 26.515 38.6165 27.0043Z" fill="#007D74"></path><path d="M40.6694 22.7863C40.0177 24.1152 39.366 25.4441 38.7143 26.773C39.0787 26.6247 39.4431 26.4764 39.8075 26.3282C38.1793 25.8299 36.5512 25.3317 34.9231 24.8335C32.1532 23.9858 29.3833 23.1382 26.6134 22.2905C25.7914 22.039 24.9694 21.7874 24.1475 21.5359C23.8778 21.4533 23.6289 21.356 23.334 21.446C23.188 21.4905 23.0421 21.535 22.8961 21.5795C20.6455 22.2658 18.3949 22.9521 16.1442 23.6384C13.6008 24.414 11.0574 25.1896 8.51399 25.9652C8.11726 26.0862 7.72048 26.2071 7.32375 26.3281C7.68813 26.4764 8.0525 26.6247 8.41687 26.773C7.76501 25.4441 7.11315 24.1152 6.4613 22.7863C6.26844 23.2603 6.07563 23.7343 5.88282 24.2082C7.36694 23.7221 8.85107 23.2359 10.3352 22.7497C13.1477 21.8284 15.9602 20.907 18.7727 19.9857C20.4536 19.4351 22.1346 18.8845 23.8155 18.3338C23.8274 18.3299 23.8393 18.326 23.8512 18.3221C23.6796 18.3221 23.5081 18.3221 23.3365 18.3221C24.8242 18.811 26.312 19.2999 27.7998 19.7889C30.6123 20.7131 33.4247 21.6374 36.2372 22.5616C37.8983 23.1075 39.5593 23.6534 41.2204 24.1992C41.2296 24.2022 41.2387 24.2052 41.2479 24.2082C41.7493 24.373 42.3039 24.022 42.4386 23.5322C42.5837 23.0047 42.2633 22.506 41.7626 22.3414C40.2749 21.8525 38.787 21.3636 37.2993 20.8747C34.4868 19.9505 31.6744 19.0262 28.8619 18.1019C27.2008 17.5561 25.5398 17.0102 23.8787 16.4643C23.4324 16.3176 22.8436 16.6167 22.4253 16.7538C21.4451 17.0749 20.4649 17.396 19.4848 17.717C16.688 18.6332 13.8913 19.5494 11.0945 20.4655C9.23254 21.0755 7.37059 21.6854 5.50858 22.2954C5.46175 22.3107 5.41497 22.3261 5.36818 22.3414C4.74477 22.5456 4.5066 23.1862 4.78971 23.7633C5.44156 25.0922 6.09342 26.4211 6.74528 27.75C6.93067 28.128 7.44756 28.314 7.83839 28.1948C9.46725 27.6981 11.0961 27.2014 12.725 26.7047C15.5013 25.8581 18.2776 25.0115 21.0539 24.1648C21.9863 23.8805 22.9188 23.5962 23.8513 23.3119C23.6797 23.3119 23.5081 23.3119 23.3366 23.3119C24.9647 23.8101 26.5928 24.3084 28.2209 24.8065C30.9908 25.6542 33.7607 26.5019 36.5306 27.3495C37.4513 27.6313 38.3721 27.9131 39.2928 28.1948C39.6835 28.3144 40.2007 28.1277 40.3859 27.75C41.0377 26.4211 41.6893 25.0922 42.3411 23.7633C42.5734 23.2896 42.4733 22.7199 41.9938 22.439C41.5639 22.1873 40.9017 22.3128 40.6694 22.7863Z" fill="#007D74"></path><path d="M34.6905 9.41572C34.9071 11.4397 35.1238 13.4638 35.3405 15.4878C35.5652 17.5863 35.7898 19.6849 36.0145 21.7834C36.0147 21.7853 36.0149 21.7871 36.0151 21.789C36.4235 21.4779 36.832 21.1668 37.2404 20.8556C35.4368 20.2629 33.6331 19.6701 31.8295 19.0773C29.3723 18.2698 26.9152 17.4623 24.458 16.6547C24.2608 16.5899 24.0636 16.5251 23.8665 16.4603C23.5686 16.3624 23.3312 16.457 23.0641 16.5445C22.1782 16.8347 21.2923 17.1249 20.4064 17.4152C17.6767 18.3094 14.9469 19.2036 12.2171 20.0979C11.4415 20.3519 10.666 20.606 9.89038 20.8601C10.2988 21.1712 10.7073 21.4823 11.1157 21.7935C11.3316 19.7762 11.5474 17.759 11.7633 15.7418C11.9887 13.6358 12.2141 11.5298 12.4395 9.42379C12.4397 9.42112 12.44 9.41844 12.4403 9.41577C12.1177 9.73842 11.795 10.0611 11.4724 10.3837C12.7668 10.3837 14.0612 10.3837 15.3556 10.3837C18.1842 10.3837 21.0129 10.3837 23.8416 10.3837C26.6229 10.3837 29.4041 10.3837 32.1853 10.3837C33.343 10.3837 34.5007 10.3837 35.6585 10.3837C36.1861 10.3837 36.6264 9.9434 36.6264 9.41577C36.6264 8.88813 36.1861 8.4478 35.6585 8.4478C34.3641 8.4478 33.0697 8.4478 31.7753 8.4478C28.9466 8.4478 26.1179 8.4478 23.2892 8.4478C20.508 8.4478 17.7267 8.4478 14.9455 8.4478C13.7878 8.4478 12.6301 8.4478 11.4724 8.4478C10.9023 8.4478 10.5606 8.89131 10.5044 9.41577C10.2885 11.433 10.0727 13.4502 9.85682 15.4675C9.63142 17.5734 9.40607 19.6795 9.18067 21.7854C9.1804 21.7881 9.18012 21.7908 9.1798 21.7935C9.11388 22.4095 9.84917 22.909 10.4051 22.7269C12.2039 22.1376 14.0028 21.5483 15.8016 20.959C18.2702 20.1504 20.7387 19.3417 23.2073 18.533C23.422 18.4627 23.6366 18.3924 23.8513 18.322C23.6798 18.322 23.5082 18.322 23.3366 18.322C25.1403 18.9148 26.9439 19.5076 28.7475 20.1003C31.2047 20.9079 33.6618 21.7154 36.119 22.523C36.3212 22.5895 36.5235 22.6559 36.7258 22.7224C37.2817 22.9051 38.017 22.4046 37.9511 21.789C37.7344 19.765 37.5177 17.741 37.301 15.717C37.0764 13.6185 36.8517 11.5199 36.627 9.42135C36.6268 9.41946 36.6266 9.41761 36.6264 9.41572C36.5703 8.89127 36.2286 8.44775 35.6585 8.44775C35.1733 8.44775 34.6342 8.89002 34.6905 9.41572Z" fill="#007D74"></path><path d="M25.4917 8.44758C24.2075 8.44758 22.9232 8.44758 21.639 8.44758C21.9616 8.77024 22.2843 9.0929 22.6069 9.41555C22.6069 7.4981 22.6069 5.58069 22.6069 3.66328C22.2843 3.98594 21.9616 4.30859 21.639 4.63125C22.9232 4.63125 24.2075 4.63125 25.4917 4.63125C25.1691 4.30859 24.8464 3.98594 24.5237 3.66328C24.5237 5.58074 24.5237 7.49814 24.5237 9.41555C24.5237 9.94319 24.9641 10.3835 25.4917 10.3835C26.0193 10.3835 26.4597 9.94319 26.4597 9.41555C26.4597 7.4981 26.4597 5.58069 26.4597 3.66328C26.4597 3.1356 26.0193 2.69531 25.4917 2.69531C24.2075 2.69531 22.9232 2.69531 21.639 2.69531C21.1114 2.69531 20.671 3.1356 20.671 3.66328C20.671 5.58074 20.671 7.49814 20.671 9.41555C20.671 9.94319 21.1114 10.3835 21.639 10.3835C22.9232 10.3835 24.2075 10.3835 25.4917 10.3835C26.0193 10.3835 26.4597 9.94319 26.4597 9.41555C26.4597 8.88792 26.0193 8.44758 25.4917 8.44758Z" fill="#007D74"></path><path d="M40.7353 37.6372C40.4476 37.8346 40.15 38.0136 39.8389 38.1716C39.7664 38.2084 39.6926 38.2425 39.6189 38.2766C39.3763 38.3887 39.8031 38.2043 39.5599 38.3025C39.3965 38.3683 39.2294 38.4241 39.061 38.4754C38.7917 38.5575 38.5154 38.6151 38.2371 38.6566C38.5358 38.612 38.1103 38.6635 38.0348 38.6684C37.8878 38.678 37.7401 38.6792 37.5928 38.6771C37.4713 38.6754 37.35 38.6677 37.2289 38.6581C37.1701 38.6534 37.1114 38.647 37.0527 38.6405C36.8397 38.6169 37.2903 38.6756 37.081 38.6439C36.8473 38.6085 36.6164 38.5557 36.3886 38.4929C36.1981 38.4403 36.0109 38.3763 35.8264 38.306C35.7834 38.2896 35.7409 38.2723 35.6984 38.255C35.995 38.3755 35.8324 38.3119 35.7672 38.2833C35.6793 38.2447 35.5926 38.2033 35.5065 38.1608C35.2832 38.0505 35.0674 37.9254 34.8596 37.7883C34.796 37.7463 34.7339 37.702 34.6731 37.656C34.9722 37.8822 34.8966 37.8288 34.8343 37.7802C34.6625 37.6458 34.4917 37.5174 34.3072 37.4013C33.6601 36.9941 32.9238 36.6942 32.181 36.5183C31.0253 36.2445 29.8065 36.2797 28.6704 36.6269C27.967 36.8419 27.2942 37.1771 26.6839 37.5855C26.3916 37.7811 26.0998 37.9697 25.7878 38.1331C25.7154 38.171 25.6416 38.2063 25.5678 38.2416C25.5358 38.2569 25.2891 38.3639 25.5085 38.272C25.3452 38.3403 25.1778 38.3987 25.0092 38.4525C24.7396 38.5386 24.4627 38.6002 24.1835 38.6456C23.9494 38.6837 24.408 38.6197 24.1754 38.6461C24.1103 38.6536 24.045 38.6586 23.9798 38.6637C23.8321 38.6753 23.6839 38.6784 23.5358 38.6781C23.4139 38.6779 23.2919 38.6717 23.1702 38.6636C23.0904 38.6582 22.6842 38.607 23.0198 38.6539C22.7842 38.621 22.5514 38.5704 22.3216 38.5095C22.129 38.4585 21.9397 38.3958 21.753 38.3266C21.6741 38.2973 21.3563 38.1623 21.6895 38.3052C21.6 38.2668 21.5118 38.2255 21.4241 38.1831C21.1877 38.0687 20.9587 37.9382 20.7398 37.793C20.6832 37.7555 20.6277 37.7166 20.5732 37.6763C20.446 37.5822 20.8098 37.8614 20.7143 37.7856C20.5554 37.6594 20.3953 37.539 20.2247 37.4294C19.5967 37.0256 18.8802 36.7279 18.1583 36.5434C17.0202 36.2526 15.8147 36.2698 14.684 36.5849C13.9877 36.779 13.3163 37.099 12.7075 37.4861C12.4174 37.6706 12.1398 37.8692 11.8395 38.0379C11.692 38.1208 11.5403 38.1956 11.3871 38.2672C11.1372 38.384 11.5677 38.1971 11.317 38.299C11.219 38.3387 11.1194 38.3741 11.0196 38.4088C10.6934 38.5222 10.3559 38.6008 10.0151 38.6542C10.2853 38.6119 10.0508 38.6484 9.99727 38.6541C9.90775 38.6636 9.81783 38.6693 9.72794 38.6745C9.55495 38.6844 9.38146 38.6832 9.20833 38.6771C9.06387 38.672 8.91983 38.6589 8.7762 38.6428C8.66995 38.6296 8.69632 38.6332 8.85525 38.6536C8.81639 38.6478 8.77758 38.6417 8.73886 38.6351C8.6629 38.6226 8.5874 38.6075 8.51199 38.592C8.24926 38.5382 7.99109 38.4631 7.7378 38.3754C7.63114 38.3385 7.52591 38.2974 7.42141 38.2548C7.75582 38.3911 7.37504 38.2308 7.29184 38.1906C7.12913 38.1123 6.97048 38.0255 6.81542 37.9331C6.71148 37.8711 6.60984 37.8052 6.51074 37.7358C6.37656 37.6418 6.36591 37.6215 6.59136 37.802C6.17988 37.4726 5.62611 37.3983 5.22247 37.802C4.88031 38.1441 4.80993 38.8407 5.22247 39.1709C6.4032 40.1162 7.96053 40.6158 9.46493 40.6178C10.8629 40.6197 12.2344 40.1322 13.387 39.3584C13.6779 39.1631 13.9689 38.9758 14.2796 38.8131C14.3521 38.7752 14.4259 38.7399 14.4997 38.7046C14.5316 38.6894 14.7784 38.5824 14.5589 38.6743C14.7222 38.6059 14.8897 38.5476 15.0583 38.4937C15.3279 38.4077 15.6048 38.3461 15.8839 38.3007C16.1181 38.2626 15.6595 38.3267 15.8921 38.3002C15.9572 38.2928 16.0225 38.2877 16.0877 38.2826C16.2354 38.2711 16.3836 38.268 16.5317 38.2682C16.6537 38.2684 16.7756 38.2747 16.8973 38.2828C16.9771 38.2881 17.3833 38.3393 17.0477 38.2925C17.2832 38.3253 17.516 38.376 17.7458 38.4368C17.9384 38.4878 18.1277 38.5505 18.3144 38.6197C18.3933 38.649 18.7112 38.784 18.3779 38.6411C18.4674 38.6795 18.5556 38.7208 18.6433 38.7631C18.8797 38.8775 19.1087 39.008 19.3276 39.1532C19.3842 39.1906 19.4397 39.2296 19.4942 39.2699C19.6214 39.364 19.2576 39.0848 19.3531 39.1606C20.526 40.0917 22.0435 40.5948 23.5358 40.614C24.8902 40.6316 26.2249 40.1817 27.3598 39.46C27.6599 39.2691 27.9471 39.0644 28.2587 38.8915C28.4024 38.8118 28.5502 38.7398 28.6993 38.6708C28.9415 38.5588 28.5149 38.7432 28.7577 38.6451C28.8519 38.6071 28.9477 38.5731 29.0436 38.5398C29.3148 38.4458 29.5941 38.3763 29.8761 38.3234C29.943 38.3109 30.0103 38.3007 30.0776 38.2906C29.7996 38.3324 30.028 38.2993 30.0844 38.2935C30.2336 38.2783 30.3836 38.2718 30.5334 38.2687C30.776 38.2637 31.0186 38.2785 31.2596 38.3048C31.4724 38.3279 31.0218 38.2696 31.2309 38.3009C31.2867 38.3093 31.3423 38.3192 31.3978 38.3292C31.523 38.3516 31.647 38.3798 31.7705 38.4103C31.9673 38.4587 32.1609 38.5194 32.3518 38.587C32.4398 38.6181 32.5266 38.6521 32.6131 38.687C32.7799 38.7545 32.3827 38.5878 32.5444 38.6584C32.5958 38.6808 32.6466 38.7044 32.6973 38.7282C32.9456 38.8445 33.186 38.9785 33.4159 39.1278C33.5516 39.216 33.8206 39.4331 33.4787 39.1597C34.4692 39.9516 35.6891 40.3983 36.9373 40.5619C38.622 40.7827 40.3255 40.2607 41.7124 39.3089C42.1466 39.011 42.341 38.4647 42.0597 37.9845C41.8076 37.5542 41.1711 37.3382 40.7353 37.6372Z" fill="#007D74"></path><path d="M15.0133 13.598C15.0126 13.6108 15.0119 13.6237 15.0112 13.6365C15.0227 13.5507 15.0342 13.4649 15.0458 13.3791C15.0395 13.4174 15.0306 13.4505 15.0164 13.4865C15.049 13.4095 15.0815 13.3324 15.114 13.2553C15.1039 13.2775 15.0917 13.2984 15.0773 13.318C15.1278 13.2527 15.1782 13.1874 15.2287 13.1221C15.205 13.1512 15.1813 13.1749 15.1522 13.1986C15.2175 13.1481 15.2828 13.0977 15.3481 13.0472C15.3285 13.0617 15.3075 13.0739 15.2854 13.0839C15.3624 13.0514 15.4395 13.0189 15.5166 12.9863C15.4805 13.0005 15.4475 13.0094 15.4092 13.0157C15.495 13.0042 15.5808 12.9927 15.6666 12.9811C15.6409 12.9839 15.6153 12.9839 15.5896 12.9811C15.6754 12.9927 15.7611 13.0042 15.8469 13.0157C15.8087 13.0095 15.7756 13.0005 15.7395 12.9863C15.8166 13.0189 15.8937 13.0514 15.9708 13.0839C15.9486 13.0738 15.9277 13.0616 15.908 13.0472C15.9734 13.0977 16.0386 13.1481 16.1039 13.1986C16.0749 13.1749 16.0512 13.1512 16.0275 13.1221C16.0779 13.1874 16.1284 13.2527 16.1788 13.318C16.1644 13.2984 16.1522 13.2775 16.1421 13.2553C16.1746 13.3324 16.2072 13.4094 16.2397 13.4865C16.2255 13.4505 16.2165 13.4174 16.2103 13.3791C16.2218 13.4649 16.2334 13.5507 16.2449 13.6365C16.2421 13.6108 16.2421 13.5852 16.2449 13.5595C16.2334 13.6453 16.2218 13.7311 16.2103 13.8169C16.2165 13.7786 16.2255 13.7455 16.2397 13.7095C16.2071 13.7865 16.1746 13.8636 16.1421 13.9407C16.1522 13.9185 16.1644 13.8976 16.1788 13.878C16.1284 13.9433 16.0779 14.0086 16.0275 14.0739C16.0512 14.0448 16.0748 14.0211 16.1039 13.9974C16.0386 14.0479 15.9734 14.0983 15.908 14.1488C15.9277 14.1343 15.9486 14.1221 15.9708 14.112C15.8937 14.1446 15.8166 14.1771 15.7395 14.2096C15.7756 14.1955 15.8087 14.1865 15.8469 14.1803C15.7611 14.1918 15.6754 14.2033 15.5896 14.2148C15.6153 14.2121 15.6409 14.2121 15.6666 14.2148C15.5808 14.2033 15.495 14.1918 15.4092 14.1803C15.4475 14.1865 15.4805 14.1955 15.5166 14.2096C15.4395 14.1771 15.3625 14.1445 15.2854 14.112C15.3075 14.1221 15.3285 14.1343 15.3481 14.1488C15.2828 14.0983 15.2175 14.0479 15.1522 13.9974C15.1813 14.0211 15.205 14.0448 15.2287 14.0739C15.1782 14.0086 15.1278 13.9433 15.0773 13.878C15.0917 13.8976 15.1039 13.9185 15.114 13.9407C15.0814 13.8636 15.049 13.7865 15.0164 13.7095C15.0306 13.7455 15.0395 13.7786 15.0458 13.8169C15.0342 13.7311 15.0227 13.6453 15.0112 13.5595C15.0119 13.5724 15.0125 13.5852 15.0133 13.598C15.0416 14.1247 15.4321 14.566 15.9812 14.566C16.4874 14.566 16.9776 14.1253 16.9492 13.598C16.9292 13.227 16.8077 12.963 16.5747 12.6769C16.3513 12.4026 15.964 12.2948 15.628 12.2768C15.2746 12.2577 14.9683 12.4383 14.7069 12.6513C14.4326 12.8747 14.3249 13.262 14.3068 13.598C14.2878 13.9514 14.4684 14.2577 14.6813 14.5191C14.9048 14.7934 15.292 14.9011 15.628 14.9192C15.9815 14.9382 16.2877 14.7576 16.5492 14.5447C16.8234 14.3213 16.9311 13.9339 16.9492 13.598C16.9776 13.0707 16.4874 12.63 15.9812 12.63C15.4321 12.63 15.0416 13.0713 15.0133 13.598Z" fill="#007D74"></path><path d="M20.2529 13.598C20.2522 13.6108 20.2515 13.6237 20.2508 13.6365C20.2623 13.5507 20.2739 13.4649 20.2854 13.3791C20.2792 13.4174 20.2702 13.4505 20.256 13.4865C20.2886 13.4095 20.3211 13.3324 20.3536 13.2553C20.3435 13.2775 20.3313 13.2984 20.3169 13.3181C20.3674 13.2528 20.4178 13.1875 20.4683 13.1222C20.4446 13.1513 20.4209 13.175 20.3918 13.1986C20.4571 13.1482 20.5224 13.0977 20.5877 13.0473C20.5681 13.0617 20.5472 13.0739 20.525 13.084C20.6021 13.0514 20.6791 13.0189 20.7562 12.9864C20.7201 13.0005 20.6871 13.0095 20.6488 13.0157C20.7346 13.0042 20.8204 12.9927 20.9062 12.9812C20.8805 12.9839 20.8549 12.9839 20.8292 12.9812C20.915 12.9927 21.0008 13.0042 21.0865 13.0157C21.0483 13.0095 21.0152 13.0005 20.9791 12.9864C21.0562 13.0189 21.1333 13.0515 21.2103 13.084C21.1882 13.0739 21.1673 13.0617 21.1476 13.0473C21.2129 13.0977 21.2782 13.1482 21.3435 13.1986C21.3144 13.175 21.2907 13.1513 21.267 13.1222C21.3175 13.1875 21.3679 13.2528 21.4184 13.3181C21.404 13.2984 21.3918 13.2775 21.3817 13.2553C21.4143 13.3324 21.4468 13.4095 21.4793 13.4865C21.4652 13.4505 21.4562 13.4174 21.4499 13.3791C21.4615 13.4649 21.473 13.5507 21.4845 13.6365C21.4817 13.6108 21.4817 13.5852 21.4845 13.5595C21.473 13.6453 21.4615 13.7311 21.4499 13.8169C21.4562 13.7786 21.4652 13.7455 21.4793 13.7095C21.4468 13.7865 21.4142 13.8636 21.3817 13.9407C21.3918 13.9185 21.404 13.8976 21.4184 13.878C21.368 13.9433 21.3175 14.0086 21.267 14.0739C21.2907 14.0448 21.3144 14.0211 21.3435 13.9974C21.2782 14.0479 21.2129 14.0983 21.1476 14.1488C21.1673 14.1343 21.1882 14.1221 21.2103 14.112C21.1333 14.1446 21.0562 14.1771 20.9791 14.2096C21.0152 14.1955 21.0483 14.1865 21.0865 14.1803C21.0008 14.1918 20.915 14.2033 20.8292 14.2148C20.8549 14.2121 20.8805 14.2121 20.9062 14.2148C20.8204 14.2033 20.7346 14.1918 20.6488 14.1803C20.6871 14.1865 20.7201 14.1955 20.7562 14.2096C20.6792 14.1771 20.6021 14.1446 20.525 14.112C20.5472 14.1221 20.5681 14.1343 20.5877 14.1488C20.5224 14.0983 20.4571 14.0479 20.3918 13.9974C20.4209 14.0211 20.4446 14.0448 20.4683 14.0739C20.4178 14.0086 20.3674 13.9433 20.3169 13.878C20.3313 13.8976 20.3436 13.9185 20.3536 13.9407C20.3211 13.8636 20.2886 13.7866 20.256 13.7095C20.2702 13.7455 20.2791 13.7786 20.2854 13.8169C20.2739 13.7311 20.2623 13.6453 20.2508 13.5595C20.2515 13.5724 20.2522 13.5852 20.2529 13.598C20.2812 14.1247 20.6717 14.566 21.2209 14.566C21.727 14.566 22.2172 14.1253 22.1888 13.598C22.1688 13.227 22.0474 12.963 21.8143 12.6769C21.5909 12.4026 21.2036 12.2948 20.8676 12.2768C20.5142 12.2577 20.2079 12.4383 19.9465 12.6513C19.6723 12.8747 19.5645 13.262 19.5464 13.598C19.5274 13.9514 19.708 14.2577 19.9209 14.5191C20.1443 14.7934 20.5317 14.9011 20.8676 14.9192C21.2211 14.9382 21.5273 14.7576 21.7887 14.5447C22.063 14.3213 22.1707 13.9339 22.1888 13.598C22.2172 13.0707 21.727 12.63 21.2209 12.63C20.6717 12.63 20.2812 13.0713 20.2529 13.598Z" fill="#007D74"></path><path d="M25.4924 13.598C25.4917 13.6108 25.491 13.6237 25.4903 13.6365C25.5019 13.5507 25.5134 13.4649 25.5249 13.3791C25.5187 13.4174 25.5097 13.4505 25.4955 13.4865C25.528 13.4095 25.5606 13.3324 25.5931 13.2553C25.583 13.2775 25.5708 13.2984 25.5564 13.3181C25.6069 13.2528 25.6572 13.1875 25.7077 13.1222C25.684 13.1513 25.6604 13.175 25.6312 13.1986C25.6966 13.1482 25.7619 13.0977 25.8271 13.0473C25.8075 13.0617 25.7866 13.0739 25.7645 13.084C25.8415 13.0514 25.9186 13.0189 25.9957 12.9864C25.9596 13.0005 25.9266 13.0095 25.8883 13.0157C25.9741 13.0042 26.0599 12.9927 26.1457 12.9812C26.12 12.9839 26.0943 12.9839 26.0687 12.9812C26.1544 12.9927 26.2402 13.0042 26.326 13.0157C26.2877 13.0095 26.2547 13.0005 26.2186 12.9864C26.2957 13.0189 26.3728 13.0515 26.4498 13.084C26.4277 13.0739 26.4067 13.0617 26.3871 13.0473C26.4524 13.0977 26.5177 13.1482 26.583 13.1986C26.5539 13.175 26.5302 13.1513 26.5066 13.1222C26.557 13.1875 26.6075 13.2528 26.6579 13.3181C26.6435 13.2984 26.6313 13.2775 26.6212 13.2553C26.6537 13.3324 26.6862 13.4095 26.7187 13.4865C26.7046 13.4505 26.6956 13.4174 26.6894 13.3791C26.7009 13.4649 26.7124 13.5507 26.7239 13.6365C26.7212 13.6108 26.7212 13.5852 26.7239 13.5595C26.7124 13.6453 26.7009 13.7311 26.6894 13.8169C26.6956 13.7786 26.7046 13.7455 26.7187 13.7095C26.6862 13.7865 26.6537 13.8636 26.6212 13.9407C26.6313 13.9185 26.6435 13.8976 26.6579 13.878C26.6075 13.9433 26.557 14.0086 26.5066 14.0739C26.5303 14.0448 26.5539 14.0211 26.583 13.9974C26.5177 14.0479 26.4524 14.0983 26.3871 14.1488C26.4068 14.1343 26.4277 14.1221 26.4498 14.112C26.3728 14.1446 26.2957 14.1771 26.2186 14.2096C26.2547 14.1955 26.2877 14.1865 26.326 14.1803C26.2402 14.1918 26.1544 14.2033 26.0687 14.2148C26.0943 14.2121 26.12 14.2121 26.1457 14.2148C26.0599 14.2033 25.9741 14.1918 25.8883 14.1803C25.9266 14.1865 25.9596 14.1955 25.9957 14.2096C25.9186 14.1771 25.8415 14.1446 25.7645 14.112C25.7866 14.1221 25.8076 14.1343 25.8271 14.1488C25.7619 14.0983 25.6966 14.0479 25.6312 13.9974C25.6604 14.0211 25.6841 14.0448 25.7077 14.0739C25.6572 14.0086 25.6069 13.9433 25.5564 13.878C25.5708 13.8976 25.583 13.9185 25.5931 13.9407C25.5606 13.8636 25.528 13.7866 25.4955 13.7095C25.5097 13.7455 25.5187 13.7786 25.5249 13.8169C25.5134 13.7311 25.5019 13.6453 25.4903 13.5595C25.491 13.5724 25.4917 13.5852 25.4924 13.598C25.5208 14.1247 25.9113 14.566 26.4604 14.566C26.9665 14.566 27.4567 14.1253 27.4284 13.598C27.4083 13.227 27.2869 12.963 27.0538 12.6769C26.8304 12.4026 26.4431 12.2948 26.1072 12.2768C25.7537 12.2577 25.4474 12.4383 25.186 12.6513C24.9118 12.8747 24.804 13.262 24.7859 13.598C24.7669 13.9514 24.9475 14.2577 25.1604 14.5191C25.3839 14.7933 25.7712 14.9011 26.1072 14.9192C26.4606 14.9382 26.7669 14.7576 27.0283 14.5447C27.3025 14.3213 27.4102 13.9339 27.4284 13.598C27.4567 13.0707 26.9665 12.63 26.4604 12.63C25.9113 12.63 25.5208 13.0713 25.4924 13.598Z" fill="#007D74"></path><path d="M30.732 13.598C30.7313 13.6108 30.7306 13.6237 30.7299 13.6365C30.7414 13.5507 30.7529 13.4649 30.7645 13.3791C30.7582 13.4174 30.7493 13.4505 30.7351 13.4865C30.7676 13.4095 30.8001 13.3324 30.8327 13.2553C30.8226 13.2775 30.8104 13.2984 30.796 13.3181C30.8464 13.2528 30.8969 13.1875 30.9473 13.1222C30.9236 13.1513 30.8999 13.175 30.8709 13.1986C30.9362 13.1482 31.0014 13.0977 31.0668 13.0473C31.0471 13.0617 31.0262 13.0739 31.0041 13.084C31.0811 13.0514 31.1582 13.0189 31.2353 12.9864C31.1992 13.0005 31.1661 13.0095 31.1279 13.0157C31.2137 13.0042 31.2995 12.9927 31.3852 12.9812C31.3595 12.9839 31.3339 12.9839 31.3082 12.9812C31.394 12.9927 31.4798 13.0042 31.5656 13.0157C31.5273 13.0095 31.4943 13.0005 31.4582 12.9864C31.5352 13.0189 31.6124 13.0515 31.6894 13.084C31.6673 13.0739 31.6463 13.0617 31.6267 13.0473C31.692 13.0977 31.7573 13.1482 31.8226 13.1986C31.7935 13.175 31.7698 13.1513 31.7462 13.1222C31.7966 13.1875 31.847 13.2528 31.8975 13.3181C31.8831 13.2984 31.8709 13.2775 31.8608 13.2553C31.8933 13.3324 31.9258 13.4095 31.9583 13.4865C31.9442 13.4505 31.9352 13.4174 31.929 13.3791C31.9405 13.4649 31.952 13.5507 31.9635 13.6365C31.9608 13.6108 31.9608 13.5852 31.9635 13.5595C31.952 13.6453 31.9405 13.7311 31.929 13.8169C31.9352 13.7786 31.9442 13.7455 31.9583 13.7095C31.9258 13.7865 31.8933 13.8636 31.8608 13.9407C31.8709 13.9185 31.8831 13.8976 31.8975 13.878C31.847 13.9433 31.7966 14.0086 31.7462 14.0739C31.7699 14.0448 31.7935 14.0211 31.8226 13.9974C31.7573 14.0479 31.692 14.0983 31.6267 14.1488C31.6464 14.1343 31.6673 14.1221 31.6894 14.112C31.6124 14.1446 31.5352 14.1771 31.4582 14.2096C31.4943 14.1955 31.5273 14.1865 31.5656 14.1803C31.4798 14.1918 31.394 14.2033 31.3082 14.2148C31.3339 14.2121 31.3595 14.2121 31.3852 14.2148C31.2995 14.2033 31.2137 14.1918 31.1279 14.1803C31.1661 14.1865 31.1992 14.1955 31.2353 14.2096C31.1582 14.1771 31.0811 14.1446 31.0041 14.112C31.0262 14.1221 31.0472 14.1343 31.0668 14.1488C31.0014 14.0983 30.9362 14.0479 30.8709 13.9974C30.8999 14.0211 30.9236 14.0448 30.9473 14.0739C30.8969 14.0086 30.8464 13.9433 30.796 13.878C30.8104 13.8976 30.8226 13.9185 30.8327 13.9407C30.8001 13.8636 30.7676 13.7866 30.7351 13.7095C30.7493 13.7455 30.7582 13.7786 30.7645 13.8169C30.7529 13.7311 30.7414 13.6453 30.7299 13.5595C30.7305 13.5724 30.7313 13.5852 30.732 13.598C30.7603 14.1247 31.1508 14.566 31.6999 14.566C32.2061 14.566 32.6963 14.1253 32.6679 13.598C32.6479 13.227 32.5264 12.963 32.2934 12.6769C32.07 12.4026 31.6827 12.2948 31.3467 12.2768C30.9933 12.2577 30.687 12.4383 30.4256 12.6513C30.1514 12.8747 30.0437 13.262 30.0256 13.598C30.0065 13.9514 30.1871 14.2577 30.4001 14.5191C30.6235 14.7933 31.0108 14.9011 31.3467 14.9192C31.7002 14.9382 32.0065 14.7576 32.2678 14.5447C32.5421 14.3213 32.6498 13.9339 32.6679 13.598C32.6963 13.0707 32.2061 12.63 31.6999 12.63C31.1508 12.63 30.7603 13.0713 30.732 13.598Z" fill="#007D74"></path><path d="M35.3666 41.977C35.1398 41.8554 34.9189 41.7242 34.7104 41.573C34.5685 41.4701 34.8703 41.6981 34.8384 41.6727C34.7656 41.6145 34.6912 41.5583 34.6171 41.5016C34.4859 41.4014 34.3463 41.3122 34.205 41.2272C33.5202 40.8152 32.7456 40.5139 31.9623 40.3582C30.7689 40.121 29.5286 40.1949 28.3817 40.6089C27.6531 40.8719 27.0221 41.2535 26.3779 41.6738C26.0948 41.8585 25.7965 42.0189 25.49 42.1608C25.2479 42.2728 25.6744 42.0885 25.4316 42.1865C25.3607 42.2152 25.2887 42.2412 25.2168 42.2672C25.0553 42.3255 24.8904 42.3738 24.7244 42.4179C24.5887 42.4539 24.4512 42.4824 24.3132 42.5084C24.2464 42.5209 24.179 42.531 24.1117 42.5411C24.3897 42.4994 24.1613 42.5325 24.1049 42.5382C23.8328 42.566 23.5586 42.5688 23.2856 42.5564C23.1667 42.551 23.0481 42.5399 22.9297 42.527C22.7169 42.5038 23.1675 42.5622 22.9584 42.5308C22.9026 42.5225 22.847 42.5126 22.7915 42.5026C22.5641 42.4618 22.3398 42.4046 22.1187 42.338C21.9348 42.2826 21.7542 42.2166 21.5762 42.1447C21.4094 42.0773 21.8066 42.2439 21.6449 42.1733C21.6062 42.1564 21.5677 42.1386 21.5293 42.1209C21.4457 42.0824 21.3632 42.0413 21.2813 41.9992C21.0692 41.89 20.8634 41.7677 20.667 41.6323C20.6233 41.6022 20.5803 41.5711 20.5382 41.5389C20.858 41.7834 20.7775 41.7257 20.7133 41.6741C20.6441 41.6184 20.5702 41.5632 20.5021 41.5107C20.3828 41.4189 20.2563 41.3364 20.1283 41.2576C19.4623 40.8476 18.7066 40.5466 17.9433 40.3802C16.953 40.1644 15.9446 40.1753 14.9567 40.3986C14.3805 40.5289 13.8227 40.7601 13.2976 41.0269C12.7621 41.2991 12.2905 41.674 11.7641 41.962C11.3019 42.2149 11.156 42.841 11.4169 43.2864C11.6889 43.7508 12.2783 43.8869 12.7412 43.6336C13.3641 43.2928 13.9203 42.8558 14.5676 42.5563C14.8097 42.4443 14.3832 42.6286 14.626 42.5306C14.6969 42.502 14.7689 42.4759 14.8408 42.45C14.9798 42.3998 15.1214 42.3574 15.2637 42.3177C15.3999 42.2798 15.538 42.2494 15.6766 42.2216C15.7438 42.2081 15.8114 42.1971 15.879 42.1861C15.9874 42.1701 15.9682 42.1724 15.8213 42.1931C15.865 42.1878 15.9088 42.1831 15.9527 42.1789C16.2046 42.1532 16.4584 42.1492 16.7113 42.158C16.831 42.1622 16.9505 42.1721 17.0697 42.1839C17.1342 42.1902 17.3465 42.2203 17.0428 42.1779C17.1175 42.1883 17.1918 42.2013 17.2661 42.2146C17.6826 42.2893 18.0895 42.414 18.4815 42.5724C18.6483 42.6399 18.2511 42.4732 18.4128 42.5439C18.4515 42.5608 18.49 42.5785 18.5284 42.5962C18.6006 42.6295 18.6719 42.6647 18.7429 42.7007C18.8734 42.7669 19.0011 42.8387 19.1265 42.9141C19.2616 42.9954 19.3942 43.0823 19.5195 43.1782C19.0899 42.8498 19.5388 43.198 19.6748 43.2935C19.8651 43.427 20.0661 43.545 20.2714 43.6537C21.1244 44.1054 22.0311 44.365 22.988 44.4693C24.2645 44.6084 25.5461 44.2898 26.6865 43.7276C27.3359 43.4075 27.8983 42.9454 28.5484 42.625C28.6205 42.5894 28.6939 42.5566 28.7672 42.5238C28.5531 42.6196 28.7899 42.5162 28.8247 42.5026C28.9645 42.4482 29.1072 42.4015 29.2506 42.3576C29.3877 42.3157 29.5271 42.2814 29.6669 42.2498C29.7346 42.2345 29.8029 42.2217 29.8712 42.2088C29.9302 42.1977 30.2443 42.1558 29.9482 42.1931C30.2025 42.1611 30.4593 42.1511 30.7154 42.1544C30.8367 42.156 30.9578 42.1634 31.0787 42.1728C31.1375 42.1774 31.1961 42.1838 31.2547 42.1901C31.434 42.2097 31.0091 42.1517 31.2822 42.1953C31.7069 42.2631 32.1227 42.3832 32.5234 42.5384C32.5942 42.5658 32.8136 42.6609 32.4998 42.5264C32.5646 42.5542 32.6286 42.5836 32.6925 42.6136C32.8071 42.6673 32.9195 42.7253 33.0307 42.7858C33.1864 42.8706 33.3381 42.9631 33.485 43.0624C33.6134 43.1492 33.7813 43.2908 33.4707 43.0425C33.76 43.2738 34.0627 43.4734 34.3895 43.6485C34.8547 43.8977 35.4401 43.7685 35.7138 43.3012C35.973 42.8591 35.8312 42.2259 35.3666 41.977Z" fill="#007D74"></path><path d="M22.6259 22.3781C22.6259 24.0697 22.6259 25.7612 22.6259 27.4527C22.6259 30.3621 22.6259 33.2716 22.6259 36.181C22.6259 37.2086 22.6259 38.2362 22.6259 39.2638C22.6259 39.7914 23.0662 40.2318 23.5938 40.2318C24.1215 40.2318 24.5618 39.7914 24.5618 39.2638C24.5618 37.5723 24.5618 35.8807 24.5618 34.1892C24.5618 31.2797 24.5618 28.3704 24.5618 25.4609C24.5618 24.4333 24.5618 23.4057 24.5618 22.3781C24.5618 21.8504 24.1215 21.4102 23.5938 21.4102C23.0662 21.4102 22.6259 21.8504 22.6259 22.3781Z" fill="#007D74"></path></svg> 