<?xml version="1.0" encoding="UTF-8"?> <svg xmlns="http://www.w3.org/2000/svg" width="45" height="45" viewBox="0 0 45 45" fill="none"><path d="M38.4099 6.59004C34.1602 2.34035 28.51 0 22.5 0C16.49 0 10.8398 2.34035 6.59022 6.59004C2.34035 10.8398 0 16.49 0 22.5C0 28.51 2.34035 34.1602 6.59022 38.41C10.8398 42.6596 16.49 45 22.5 45C28.51 45 34.1602 42.6596 38.4099 38.41C42.6596 34.1602 45 28.51 45 22.5C45 16.49 42.6596 10.8398 38.4099 6.59004ZM22.5 43.2072C11.082 43.2072 1.79279 33.918 1.79279 22.5C1.79279 11.082 11.082 1.79279 22.5 1.79279C33.918 1.79279 43.2072 11.082 43.2072 22.5C43.2072 33.918 33.918 43.2072 22.5 43.2072Z" fill="#007D74"></path><path d="M22.5001 4.26416C12.4446 4.26416 4.26392 12.4448 4.26392 22.5002C4.26392 32.5557 12.4446 40.7363 22.5001 40.7363C32.5556 40.7363 40.7362 32.5557 40.7362 22.5002C40.7362 12.4448 32.5556 4.26416 22.5001 4.26416ZM22.5001 38.9435C13.4332 38.9435 6.05671 31.5671 6.05671 22.5002C6.05671 13.4333 13.4332 6.05695 22.5001 6.05695C31.567 6.05695 38.9434 13.4333 38.9434 22.5002C38.9434 31.5671 31.567 38.9435 22.5001 38.9435Z" fill="#007D74"></path><path d="M35.4653 21.4854C34.9703 21.4854 34.5689 21.8867 34.5689 22.3817C34.5689 22.8086 34.5463 23.239 34.5019 23.6607C34.4498 24.1531 34.8069 24.5943 35.2992 24.6463C35.3313 24.6497 35.3629 24.6513 35.3944 24.6513C35.8472 24.6513 36.2361 24.3094 36.2847 23.849C36.3358 23.3649 36.3617 22.8713 36.3617 22.3817C36.3617 21.8867 35.9603 21.4854 35.4653 21.4854Z" fill="#007D74"></path><path d="M34.8554 26.4204C34.3965 26.2339 33.8739 26.4546 33.6874 26.9132C31.8329 31.4746 27.4529 34.422 22.5284 34.422C15.8894 34.422 10.4879 29.0207 10.4879 22.3815C10.4879 18.4163 12.4677 14.694 15.7085 12.4593L15.7304 12.5109C16.0206 13.1965 16.9441 13.311 17.3928 12.7169L18.606 11.1105C19.0546 10.5165 18.692 9.65954 17.9532 9.56787L15.9554 9.3202C15.2166 9.22861 14.6556 9.9712 14.9458 10.6568L14.9972 10.7784C13.1973 11.9493 11.6825 13.5294 10.5928 15.3844C9.35135 17.4978 8.69507 19.9173 8.69507 22.3815C8.69507 30.0092 14.9007 36.2148 22.5283 36.2148C25.3342 36.2148 28.0361 35.3791 30.3419 33.7983C32.5926 32.2551 34.3238 30.1077 35.348 27.5883C35.5347 27.1297 35.314 26.6069 34.8554 26.4204Z" fill="#007D74"></path><path d="M21.816 24.448C21.816 25.5253 21.4187 26.424 20.624 27.144C19.8613 27.8427 18.9573 28.192 17.912 28.192C16.8507 28.192 15.9333 27.8427 15.16 27.144C14.36 26.424 13.96 25.5253 13.96 24.448C13.96 23.7653 14.2587 22.9547 14.856 22.016L17.96 17.088C18.168 16.768 18.424 16.608 18.728 16.608C18.9627 16.608 19.16 16.688 19.32 16.848C19.48 17.008 19.56 17.2053 19.56 17.44C19.56 17.6053 19.5013 17.7813 19.384 17.968L17.56 20.88C17.6293 20.8693 17.688 20.8613 17.736 20.856C17.8053 20.8507 17.8693 20.848 17.928 20.848C18.9147 20.848 19.7867 21.1547 20.544 21.768C21.392 22.456 21.816 23.3493 21.816 24.448ZM15.816 24.448C15.816 25.0507 16.0133 25.544 16.408 25.928C16.7973 26.3067 17.288 26.496 17.88 26.496C18.472 26.496 18.9627 26.3067 19.352 25.928C19.7467 25.544 19.944 25.0507 19.944 24.448C19.944 23.8453 19.7467 23.352 19.352 22.968C18.9627 22.5893 18.472 22.4 17.88 22.4C17.288 22.4 16.7973 22.5893 16.408 22.968C16.0133 23.352 15.816 23.8453 15.816 24.448ZM23.7584 22.4C23.7584 20.688 24.073 19.3173 24.7024 18.288C25.3797 17.168 26.345 16.608 27.5984 16.608C28.841 16.608 29.8064 17.168 30.4944 18.288C31.1237 19.3227 31.4384 20.6933 31.4384 22.4C31.4384 24.1067 31.1237 25.4773 30.4944 26.512C29.8064 27.632 28.841 28.192 27.5984 28.192C26.345 28.192 25.3797 27.632 24.7024 26.512C24.073 25.4827 23.7584 24.112 23.7584 22.4ZM25.6144 22.4C25.6144 25.1307 26.2757 26.496 27.5984 26.496C28.921 26.496 29.5824 25.1307 29.5824 22.4C29.5824 19.6693 28.921 18.304 27.5984 18.304C26.2757 18.304 25.6144 19.6693 25.6144 22.4Z" fill="#007D74"></path><path d="M20.624 27.144L20.5904 27.1069L20.5902 27.1071L20.624 27.144ZM15.16 27.144L15.1935 27.1069L15.1934 27.1068L15.16 27.144ZM14.856 22.016L14.8982 22.0428L14.8983 22.0426L14.856 22.016ZM17.96 17.088L17.9181 17.0607L17.9177 17.0614L17.96 17.088ZM19.32 16.848L19.2846 16.8834H19.2846L19.32 16.848ZM19.384 17.968L19.3417 17.9414L19.3416 17.9415L19.384 17.968ZM17.56 20.88L17.5176 20.8535L17.4596 20.946L17.5676 20.9294L17.56 20.88ZM17.736 20.856L17.7322 20.8061L17.7305 20.8063L17.736 20.856ZM20.544 21.768L20.5755 21.7292L20.5755 21.7291L20.544 21.768ZM16.408 25.928L16.3731 25.9638L16.3731 25.9638L16.408 25.928ZM19.352 25.928L19.3869 25.9638L19.3869 25.9638L19.352 25.928ZM19.352 22.968L19.3869 22.9322L19.3869 22.9322L19.352 22.968ZM16.408 22.968L16.3731 22.9322L16.3731 22.9322L16.408 22.968ZM21.766 24.448C21.766 25.5113 21.3746 26.3965 20.5904 27.1069L20.6576 27.1811C21.4628 26.4515 21.866 25.5394 21.866 24.448H21.766ZM20.5902 27.1071C19.8369 27.7973 18.945 28.142 17.912 28.142V28.242C18.9697 28.242 19.8858 27.8881 20.6578 27.1809L20.5902 27.1071ZM17.912 28.142C16.8628 28.142 15.9575 27.7971 15.1935 27.1069L15.1265 27.1811C15.9092 27.8882 16.8385 28.242 17.912 28.242V28.142ZM15.1934 27.1068C14.404 26.3963 14.01 25.5112 14.01 24.448H13.91C13.91 25.5395 14.316 26.4517 15.1266 27.1812L15.1934 27.1068ZM14.01 24.448C14.01 23.7791 14.3031 22.9781 14.8982 22.0428L14.8138 21.9892C14.2143 22.9313 13.91 23.7516 13.91 24.448H14.01ZM14.8983 22.0426L18.0023 17.1146L17.9177 17.0614L14.8137 21.9894L14.8983 22.0426ZM18.0019 17.1152C18.2034 16.8053 18.4453 16.658 18.728 16.658V16.558C18.4027 16.558 18.1326 16.7307 17.9181 17.0608L18.0019 17.1152ZM18.728 16.658C18.95 16.658 19.1344 16.7331 19.2846 16.8834L19.3554 16.8126C19.1856 16.6429 18.9754 16.558 18.728 16.558V16.658ZM19.2846 16.8834C19.4349 17.0336 19.51 17.218 19.51 17.44H19.61C19.61 17.1926 19.5251 16.9824 19.3554 16.8126L19.2846 16.8834ZM19.51 17.44C19.51 17.5933 19.4556 17.7601 19.3417 17.9414L19.4263 17.9946C19.547 17.8026 19.61 17.6174 19.61 17.44H19.51ZM19.3416 17.9415L17.5176 20.8535L17.6024 20.9065L19.4264 17.9945L19.3416 17.9415ZM17.5676 20.9294C17.6365 20.9188 17.6945 20.9109 17.7415 20.9057L17.7305 20.8063C17.6815 20.8117 17.6221 20.8199 17.5524 20.8306L17.5676 20.9294ZM17.7398 20.9059C17.8081 20.9006 17.8708 20.898 17.928 20.898V20.798C17.8678 20.798 17.8025 20.8007 17.7322 20.8061L17.7398 20.9059ZM17.928 20.898C18.9034 20.898 19.7642 21.2008 20.5125 21.8069L20.5755 21.7291C19.8091 21.1085 18.926 20.798 17.928 20.798V20.898ZM20.5125 21.8068C21.3487 22.4853 21.766 23.3643 21.766 24.448H21.866C21.866 23.3344 21.4353 22.4267 20.5755 21.7292L20.5125 21.8068ZM15.766 24.448C15.766 25.0628 15.9678 25.5695 16.3731 25.9638L16.4429 25.8922C16.0588 25.5185 15.866 25.0386 15.866 24.448H15.766ZM16.3731 25.9638C16.7727 26.3524 17.2763 26.546 17.88 26.546V26.446C17.2997 26.446 16.822 26.2609 16.4429 25.8922L16.3731 25.9638ZM17.88 26.546C18.4837 26.546 18.9873 26.3524 19.3869 25.9638L19.3171 25.8922C18.938 26.2609 18.4603 26.446 17.88 26.446V26.546ZM19.3869 25.9638C19.7922 25.5695 19.994 25.0628 19.994 24.448H19.894C19.894 25.0386 19.7012 25.5185 19.3171 25.8922L19.3869 25.9638ZM19.994 24.448C19.994 23.8332 19.7922 23.3265 19.3869 22.9322L19.3171 23.0038C19.7012 23.3775 19.894 23.8574 19.894 24.448H19.994ZM19.3869 22.9322C18.9873 22.5436 18.4837 22.35 17.88 22.35V22.45C18.4603 22.45 18.938 22.6351 19.3171 23.0038L19.3869 22.9322ZM17.88 22.35C17.2763 22.35 16.7727 22.5436 16.3731 22.9322L16.4429 23.0038C16.822 22.6351 17.2997 22.45 17.88 22.45V22.35ZM16.3731 22.9322C15.9678 23.3265 15.766 23.8332 15.766 24.448H15.866C15.866 23.8574 16.0588 23.3775 16.4429 23.0038L16.3731 22.9322ZM24.7024 18.288L24.745 18.3141L24.7452 18.3139L24.7024 18.288ZM30.4944 18.288L30.5371 18.262L30.537 18.2618L30.4944 18.288ZM30.4944 26.512L30.537 26.5382L30.5371 26.538L30.4944 26.512ZM24.7024 26.512L24.7452 26.4861L24.745 26.4859L24.7024 26.512ZM23.8084 22.4C23.8084 20.6935 24.1221 19.3329 24.745 18.3141L24.6597 18.2619C24.024 19.3017 23.7084 20.6825 23.7084 22.4H23.8084ZM24.7452 18.3139C25.4139 17.208 26.3635 16.658 27.5984 16.658V16.558C26.3266 16.558 25.3455 17.128 24.6596 18.2621L24.7452 18.3139ZM27.5984 16.658C28.8225 16.658 29.7722 17.2079 30.4518 18.3142L30.537 18.2618C29.8405 17.1281 28.8596 16.558 27.5984 16.558V16.658ZM30.4517 18.314C31.0747 19.3382 31.3884 20.6989 31.3884 22.4H31.4884C31.4884 20.6877 31.1728 19.3071 30.5371 18.262L30.4517 18.314ZM31.3884 22.4C31.3884 24.1011 31.0747 25.4618 30.4517 26.486L30.5371 26.538C31.1728 25.4929 31.4884 24.1123 31.4884 22.4H31.3884ZM30.4518 26.4858C29.7722 27.5921 28.8225 28.142 27.5984 28.142V28.242C28.8596 28.242 29.8405 27.6719 30.537 26.5382L30.4518 26.4858ZM27.5984 28.142C26.3635 28.142 25.4139 27.592 24.7452 26.4861L24.6596 26.5379C25.3455 27.672 26.3266 28.242 27.5984 28.242V28.142ZM24.745 26.4859C24.1221 25.4671 23.8084 24.1065 23.8084 22.4H23.7084C23.7084 24.1175 24.024 25.4983 24.6597 26.5381L24.745 26.4859ZM25.5644 22.4C25.5644 23.7678 25.7297 24.8009 26.0654 25.4938C26.2335 25.8409 26.4453 26.1045 26.702 26.2812C26.9592 26.4582 27.2586 26.546 27.5984 26.546V26.446C27.2768 26.446 26.9976 26.3632 26.7587 26.1988C26.5195 26.0342 26.3179 25.7857 26.1554 25.4502C25.8297 24.7778 25.6644 23.7629 25.6644 22.4H25.5644ZM27.5984 26.546C27.9381 26.546 28.2376 26.4582 28.4947 26.2812C28.7515 26.1045 28.9632 25.8409 29.1314 25.4938C29.467 24.8009 29.6324 23.7678 29.6324 22.4H29.5324C29.5324 23.7629 29.3671 24.7778 29.0414 25.4502C28.8789 25.7857 28.6773 26.0342 28.438 26.1988C28.1992 26.3632 27.92 26.446 27.5984 26.446V26.546ZM29.6324 22.4C29.6324 21.0322 29.467 19.9991 29.1314 19.3062C28.9632 18.9591 28.7515 18.6955 28.4947 18.5188C28.2376 18.3418 27.9381 18.254 27.5984 18.254V18.354C27.92 18.354 28.1992 18.4368 28.438 18.6012C28.6773 18.7658 28.8789 19.0143 29.0414 19.3498C29.3671 20.0222 29.5324 21.0371 29.5324 22.4H29.6324ZM27.5984 18.254C27.2586 18.254 26.9592 18.3418 26.702 18.5188C26.4453 18.6955 26.2335 18.9591 26.0654 19.3062C25.7297 19.9991 25.5644 21.0322 25.5644 22.4H25.6644C25.6644 21.0371 25.8297 20.0222 26.1554 19.3498C26.3179 19.0143 26.5195 18.7658 26.7587 18.6012C26.9976 18.4368 27.2768 18.354 27.5984 18.354V18.254Z" fill="#007D74"></path></svg> 