<?xml version="1.0" encoding="UTF-8"?> <svg xmlns="http://www.w3.org/2000/svg" width="45" height="45" viewBox="0 0 45 45" fill="none"><path d="M36.8986 14.9943L38.7907 13.1019C39.8186 12.0743 39.8186 10.4016 38.7907 9.3734C37.7628 8.34549 36.0901 8.34549 35.0622 9.3734L33.0421 11.3935C30.9348 9.9258 28.5325 8.90991 26.0156 8.42239V5.80078H27.7734C28.2589 5.80078 28.6523 5.40733 28.6523 4.92188V2.63672C28.6523 1.18275 27.4696 0 26.0156 0H18.9844C17.5304 0 16.3477 1.18275 16.3477 2.63672V4.92188C16.3477 5.40733 16.7411 5.80078 17.2266 5.80078H18.9844V8.42239C16.4678 8.90957 14.0652 9.9258 11.9579 11.3935L9.93782 9.3734C8.91026 8.34549 7.23759 8.34549 6.20934 9.3734C5.18143 10.4013 5.18143 12.074 6.20934 13.1019L8.10139 14.9943C5.47874 18.261 4.04297 22.3301 4.04297 26.543C4.04297 36.7201 12.3229 45 22.5 45C32.6771 45 40.957 36.7201 40.957 26.543C40.957 22.3301 39.5213 18.261 36.8986 14.9943ZM36.305 10.6162C36.648 10.2736 37.2052 10.2739 37.5478 10.6162C37.8901 10.9589 37.8901 11.5164 37.5478 11.8591L35.7317 13.6749C35.3224 13.2547 34.8933 12.854 34.4469 12.4746L36.305 10.6162ZM18.1055 2.63672C18.1055 2.15195 18.4996 1.75781 18.9844 1.75781H26.0156C26.5004 1.75781 26.8945 2.15195 26.8945 2.63672V4.04297H18.1055V2.63672ZM24.2578 5.80078V8.16902C23.0929 8.05984 21.9074 8.05984 20.7422 8.16902V5.80078H24.2578ZM7.45216 10.6162C7.7948 10.2739 8.35236 10.2736 8.69499 10.6162L10.5531 12.4746C10.1067 12.854 9.67758 13.2547 9.26834 13.6749L7.45216 11.8591C7.10987 11.5164 7.10987 10.9589 7.45216 10.6162ZM22.5 43.2422C13.2921 43.2422 5.80078 35.7509 5.80078 26.543C5.80078 22.4811 7.27535 18.5676 9.95258 15.5227C10.69 14.6839 11.513 13.9176 12.3984 13.244C14.6173 11.5556 17.2437 10.4442 19.9937 10.0298C20.8167 9.90658 21.6599 9.84375 22.5 9.84375C23.3401 9.84375 24.1833 9.90658 25.0059 10.0298C27.7563 10.4442 30.3827 11.5556 32.6019 13.244C33.487 13.9176 34.31 14.6839 35.0474 15.5227C37.7246 18.5676 39.1992 22.4811 39.1992 26.543C39.1992 35.7509 31.7079 43.2422 22.5 43.2422Z" fill="#007D74"></path><path d="M22.5 29.1797C23.954 29.1797 25.1367 27.9969 25.1367 26.543C25.1367 25.3973 24.402 24.4202 23.3789 24.0573V17.7539C23.3789 17.2684 22.9855 16.875 22.5 16.875C22.0145 16.875 21.6211 17.2684 21.6211 17.7539V24.0573C20.598 24.4202 19.8633 25.3973 19.8633 26.543C19.8633 27.9969 21.046 29.1797 22.5 29.1797ZM22.5 25.6641C22.9848 25.6641 23.3789 26.0582 23.3789 26.543C23.3789 27.0277 22.9848 27.4219 22.5 27.4219C22.0152 27.4219 21.6211 27.0277 21.6211 26.543C21.6211 26.0582 22.0152 25.6641 22.5 25.6641Z" fill="#007D74"></path><path d="M31.8628 17.2707C31.849 17.2546 31.8353 17.2384 31.8198 17.2233C31.8034 17.2065 31.7859 17.1914 31.7683 17.1763C30.2193 15.6437 28.3056 14.5097 26.2288 13.8965C25.7629 13.7592 25.2744 14.0249 25.1371 14.4905C24.9997 14.956 25.2655 15.4449 25.731 15.5822C27.2698 16.0368 28.7052 16.8223 29.9288 17.8712L29.3359 18.4641C28.9929 18.8074 28.9929 19.3639 29.3359 19.7073C29.5076 19.8789 29.7324 19.9647 29.9577 19.9647C30.1825 19.9647 30.4074 19.8789 30.5791 19.7073L31.1734 19.113C32.7636 20.9621 33.7081 23.2383 33.8921 25.6643H33.0469C32.5614 25.6643 32.168 26.058 32.168 26.5432C32.168 27.0286 32.5614 27.4221 33.0469 27.4221H33.8921C33.7081 29.8483 32.7636 32.1242 31.1734 33.9733L30.5791 33.3791C30.2357 33.0361 29.6792 33.0361 29.3359 33.3791C28.9926 33.7224 28.9926 34.2789 29.3359 34.6222L29.9302 35.2165C28.0811 36.8068 25.8048 37.7513 23.3789 37.9356V37.09C23.3789 36.6046 22.9855 36.2111 22.5 36.2111C22.0145 36.2111 21.6211 36.6046 21.6211 37.09V37.9353C19.1952 37.7513 16.9189 36.8068 15.0698 35.2165L15.6641 34.6222C16.0074 34.2789 16.0074 33.7224 15.6641 33.3791C15.3208 33.0361 14.7643 33.0361 14.4209 33.3791L13.8266 33.9733C12.2364 32.1242 11.2919 29.848 11.1079 27.4221H11.9531C12.4386 27.4221 12.832 27.0286 12.832 26.5432C12.832 26.0577 12.4386 25.6643 11.9531 25.6643H11.1079C11.2919 23.2383 12.2364 20.9621 13.8266 19.113L14.4209 19.7073C14.5926 19.8789 14.8175 19.9647 15.0423 19.9647C15.2676 19.9647 15.4924 19.8789 15.6641 19.7073C16.0071 19.3639 16.0071 18.8074 15.6641 18.4641L15.0712 17.8712C16.2948 16.822 17.7302 16.0368 19.269 15.5822C19.7345 15.4449 20.0003 14.956 19.8629 14.4905C19.7256 14.0249 19.2374 13.7595 18.7712 13.8965C16.6948 14.5094 14.7818 15.643 13.233 17.1749C13.2148 17.1904 13.197 17.2062 13.1802 17.223C13.1651 17.2381 13.1517 17.2539 13.1379 17.2697C10.6732 19.7574 9.31641 23.0478 9.31641 26.5432C9.31641 30.0382 10.6732 33.3282 13.1372 35.8156C13.151 35.8318 13.1647 35.8479 13.1802 35.863C13.1953 35.8784 13.2111 35.8918 13.2269 35.9056C15.7146 38.3699 19.0046 39.7268 22.5 39.7268C25.995 39.7268 29.2851 38.3703 31.7725 35.9063C31.7886 35.8922 31.8047 35.8784 31.8198 35.863C31.8349 35.8482 31.8483 35.8321 31.8621 35.8167C34.3268 33.3289 35.6836 30.0385 35.6836 26.5432C35.6836 23.0481 34.3268 19.7581 31.8628 17.2707Z" fill="#007D74"></path><path d="M22.5 15.1172C22.9851 15.1172 23.3789 14.7234 23.3789 14.2383C23.3789 13.7532 22.9851 13.3594 22.5 13.3594C22.0149 13.3594 21.6211 13.7532 21.6211 14.2383C21.6211 14.7234 22.0149 15.1172 22.5 15.1172Z" fill="#007D74"></path></svg> 