<?xml version="1.0" standalone="no"?>
<!DOCTYPE svg PUBLIC "-//W3C//DTD SVG 1.1//EN" "http://www.w3.org/Graphics/SVG/1.1/DTD/svg11.dtd" >
<svg xmlns="http://www.w3.org/2000/svg" xmlns:xlink="http://www.w3.org/1999/xlink" version="1.1">
<metadata>
Created by FontForge 20170731 at Thu Oct  1 17:58:54 2015
 By Aleksey,,,
Copyright (c) 2015 by S-Core Co., Ltd.. All rights reserved.
</metadata>
<defs>
<font id="CoreSansGS-35Light" horiz-adv-x="784" >
  <font-face 
    font-family="Core Sans GS 35 Light"
    font-weight="300"
    font-stretch="normal"
    units-per-em="2000"
    panose-1="2 11 3 3 3 3 2 2 2 2"
    ascent="1600"
    descent="-400"
    x-height="936"
    cap-height="1400"
    bbox="-812 -588 3156 2235"
    underline-thickness="48"
    underline-position="-462"
    unicode-range="U+001D-FB06"
  />
<missing-glyph horiz-adv-x="1020" 
d="M10 1400h1000v-1400h-1000v1400zM435 152q27 -28 67 -28q41 0 68 28q28 28 28 68q0 41 -28 68q-27 28 -68 28q-40 0 -67 -28q-27 -27 -27 -68t27 -68zM231 1059q18 -19 45 -19q31 0 48 20q23 28 69 52q57 30 115 30q90 0 143 -42q49 -39 49 -98q0 -66 -58 -119
q-46 -42 -158 -99q-158 -82 -158 -204q0 -86 53 -137t147 -51q64 0 122 36q26 16 26 50q0 26 -18 44t-44 18q-19 0 -32 -8q-28 -16 -54 -16q-66 0 -66 58q0 55 114 110q134 62 194 130q68 76 68 186q0 116 -92 192t-234 76q-148 0 -280 -118q-18 -18 -18 -46q0 -26 19 -45z
" />
    <glyph glyph-name="uniFB00" unicode="ff" horiz-adv-x="1280" 
d="M222 936v170q0 187 88 288q85 98 236 98q71 0 148 -27q94 -33 94 -81q0 -22 -16 -38q-15 -16 -38 -16q-16 0 -36 12q-64 42 -144 42q-100 0 -153 -73q-53 -72 -53 -205v-170h486v200q0 188 81 288q79 98 227 98q72 0 150 -37q86 -40 86 -89q0 -22 -17 -39
q-16 -17 -39 -17q-25 0 -42 20q-56 52 -130 52q-190 0 -190 -280v-196h252q24 0 41 -17t17 -41t-17 -41t-41 -17h-252v-772q0 -25 -18 -44q-18 -18 -44 -18q-27 0 -45 18q-19 18 -19 44v772h-486v-772q0 -25 -18 -44q-18 -18 -44 -18q-27 0 -45 18q-19 18 -19 44v772h-120
q-24 0 -41 17t-17 41t17 41t41 17h120z" />
    <glyph glyph-name="uniFB01" unicode="fi" horiz-adv-x="1140" 
d="M848 820h-500v-772q0 -25 -18 -44q-18 -18 -44 -18q-27 0 -45 18q-19 18 -19 44v772h-122q-24 0 -41 17t-17 41t17 41t41 17h122v192q0 183 111 292q104 102 265 102q80 0 158 -34t120 -86q12 -15 12 -34q0 -23 -16 -39q-16 -17 -38 -17q-26 0 -44 22q-28 35 -82 58
q-53 22 -106 22q-113 0 -182 -77q-72 -79 -72 -211v-190h568q24 0 41 -17q17 -18 17 -43v-828q0 -25 -18 -44q-18 -18 -44 -18q-27 0 -45 18q-19 18 -19 44v772z" />
    <glyph glyph-name="uniFB02" unicode="fl" horiz-adv-x="1116" 
d="M348 936h252q24 0 41 -17t17 -41t-17 -41t-41 -17h-252v-772q0 -25 -18 -44q-18 -18 -44 -18q-27 0 -45 18q-19 18 -19 44v772h-122q-24 0 -41 17t-17 41t17 41t41 17h122v210q0 179 104 280q96 94 250 94q153 0 242 -92q0 37 20 61q18 21 44 21q27 0 45 -16
q17 -17 17 -44v-1402q0 -25 -18 -44q-18 -18 -44 -18q-27 0 -45 18q-19 18 -19 44v1266q-76 100 -214 100q-116 0 -183 -70q-73 -75 -73 -214v-194z" />
    <glyph glyph-name="uniFB03" unicode="ffi" horiz-adv-x="1754" 
d="M1460 820h-500v-772q0 -25 -18 -44q-18 -18 -44 -18q-27 0 -45 18q-19 18 -19 44v772h-486v-772q0 -25 -18 -44q-18 -18 -44 -18q-27 0 -45 18q-19 18 -19 44v772h-120q-24 0 -41 17t-17 41t17 41t41 17h120v170q0 187 88 288q85 98 236 98q112 0 214 -60q28 -17 28 -48
q0 -22 -16 -38q-15 -16 -38 -16q-16 0 -36 12q-70 42 -144 42q-100 0 -153 -72t-53 -206v-170h486v192q0 183 111 292q104 102 265 102q80 0 158 -34t120 -86q12 -15 12 -34q0 -23 -16 -39q-16 -17 -38 -17q-26 0 -44 22q-28 35 -82 58q-53 22 -106 22q-113 0 -182 -77
q-72 -79 -72 -211v-190h568q24 0 41 -17q17 -18 17 -43v-828q0 -25 -18 -44q-18 -18 -44 -18q-27 0 -45 18q-19 18 -19 44v772z" />
    <glyph glyph-name="uniFB04" unicode="ffl" horiz-adv-x="1728" 
d="M960 936h252q24 0 41 -17t17 -41t-17 -41t-41 -17h-252v-772q0 -25 -18 -44q-18 -18 -44 -18q-27 0 -45 18q-19 18 -19 44v772h-486v-772q0 -25 -18 -44q-18 -18 -44 -18q-27 0 -45 18q-19 18 -19 44v772h-120q-24 0 -41 17t-17 41t17 41t41 17h120v170q0 187 88 288
q85 98 236 98h4q4 0 9 -1q13 -1 28 -3q45 -6 83 -15q118 -31 118 -89q0 -22 -16 -38q-15 -16 -38 -16q-16 0 -36 12q-70 42 -144 42q-100 0 -153 -72t-53 -206v-170h486v210q0 179 104 280q96 94 250 94q153 0 242 -92q0 37 20 61q18 21 44 21q27 0 45 -16q17 -17 17 -44
v-1402q0 -25 -18 -44q-18 -18 -44 -18q-27 0 -45 18q-19 18 -19 44v1266q-76 100 -214 100q-116 0 -183 -70q-73 -75 -73 -214v-194z" />
    <glyph glyph-name=".notdef" horiz-adv-x="1020" 
d="M10 1400h1000v-1400h-1000v1400zM435 152q27 -28 67 -28q41 0 68 28q28 28 28 68q0 41 -28 68q-27 28 -68 28q-40 0 -67 -28q-27 -27 -27 -68t27 -68zM231 1059q18 -19 45 -19q31 0 48 20q23 28 69 52q57 30 115 30q90 0 143 -42q49 -39 49 -98q0 -66 -58 -119
q-46 -42 -158 -99q-158 -82 -158 -204q0 -86 53 -137t147 -51q64 0 122 36q26 16 26 50q0 26 -18 44t-44 18q-19 0 -32 -8q-28 -16 -54 -16q-66 0 -66 58q0 55 114 110q134 62 194 130q68 76 68 186q0 116 -92 192t-234 76q-148 0 -280 -118q-18 -18 -18 -46q0 -26 19 -45z
" />
    <glyph glyph-name=".null" horiz-adv-x="0" 
 />
    <glyph glyph-name="nonmarkingreturn" horiz-adv-x="666" 
 />
    <glyph glyph-name="glyph475" horiz-adv-x="0" 
 />
    <glyph glyph-name="glyph475" horiz-adv-x="0" 
 />
    <glyph glyph-name="space" unicode=" " horiz-adv-x="600" 
 />
    <glyph glyph-name="exclam" unicode="!" horiz-adv-x="604" 
d="M234 1346q0 29 20 48q20 20 48 20q29 0 48 -20q20 -19 20 -48v-942q0 -28 -20 -48q-19 -20 -48 -20q-28 0 -48 20t-20 48v942zM233 137q27 27 69 27q41 0 68 -27q28 -27 28 -67t-28 -67q-27 -27 -68 -27q-42 0 -69 27q-27 26 -27 67t27 67z" />
    <glyph glyph-name="quotedbl" unicode="&#x22;" horiz-adv-x="982" 
d="M261 846q-15 13 -15 34l-16 436q-4 98 66 98t66 -98l-14 -436q-1 -21 -16 -34q-15 -14 -36 -14t-35 14zM648 846q-15 13 -16 34l-14 436q-4 98 66 98t66 -98l-16 -436q0 -21 -14 -34q-15 -14 -36 -14t-36 14z" />
    <glyph glyph-name="numbersign" unicode="#" horiz-adv-x="1350" 
d="M117 1013q17 17 39 17h188v330q0 26 17 43q18 17 43 17q26 0 44 -17q18 -18 18 -43v-330h410v330q0 26 17 43q18 17 43 17q26 0 44 -17q18 -18 18 -43v-330h188q22 0 38 -17q16 -16 16 -39q0 -22 -16 -38q-15 -16 -38 -16h-188v-440h188q22 0 38 -17q16 -16 16 -39
q0 -22 -16 -38q-15 -16 -38 -16h-188v-330q0 -25 -18 -44q-18 -18 -44 -18q-25 0 -43 18q-17 18 -17 44v330h-410v-330q0 -25 -18 -44q-18 -18 -44 -18q-25 0 -43 18q-17 18 -17 44v330h-188q-23 0 -39 16q-17 16 -17 38q0 23 17 39q17 17 39 17h188v440h-188q-23 0 -39 16
q-17 16 -17 38q0 23 17 39zM466 480h410v440h-410v-440z" />
    <glyph glyph-name="dollar" unicode="$" horiz-adv-x="1046" 
d="M850 643q86 -110 86 -269q0 -150 -90 -257q-97 -115 -262 -135v-116q0 -24 -17 -40t-41 -16t-40 16t-16 40v112q-114 9 -212 68t-158 154q-12 20 -12 38q0 22 18 42t44 20q32 0 52 -30q48 -79 135 -123q82 -43 175 -43q123 0 206 81q82 78 82 191q0 116 -64 193
q-70 85 -242 157q-159 66 -234 153q-82 95 -82 233q0 114 73 198q74 85 193 104v108q0 24 16 41t40 17t41 -17t17 -41v-100q141 -15 234 -124q10 -14 15 -23q7 -14 7 -25q0 -24 -18 -41t-42 -17q-29 0 -50 24q-69 80 -180 80q-94 0 -152 -53q-58 -52 -58 -135q0 -95 58 -156
q58 -62 206 -122q186 -76 272 -187z" />
    <glyph glyph-name="percent" unicode="%" horiz-adv-x="1830" 
d="M689 869q-97 -95 -231 -95t-231 95t-97 229q0 136 97 231t231 95t231 -95t97 -231q0 -134 -97 -229zM306 947q63 -65 152 -65q88 0 150 65q62 63 62 151q0 89 -62 152q-62 64 -150 64q-89 0 -152 -64q-62 -63 -62 -152q0 -88 62 -151zM1603 71q-97 -95 -231 -95t-231 95
t-97 229q0 136 97 231t231 95t231 -95t97 -231q0 -134 -97 -229zM1222 149q62 -65 150 -65q89 0 152 65q62 63 62 151q0 89 -62 152q-63 64 -152 64q-88 0 -150 -64q-62 -63 -62 -152q0 -88 62 -151zM1352 1402q17 20 42 20q23 0 38 -16q16 -15 16 -38q0 -18 -14 -36
l-956 -1334q-18 -22 -42 -22q-22 0 -38 16t-16 38t14 36z" />
    <glyph glyph-name="ampersand" unicode="&#x26;" horiz-adv-x="1284" 
d="M223 83q-111 96 -111 253q0 119 71 220q70 101 235 216q-168 218 -168 350q0 131 88 212q86 80 224 80q126 0 214 -82q92 -86 92 -220q0 -105 -74 -195q-60 -74 -198 -169l350 -450q36 32 78 77q27 28 72 79q16 16 42 16q27 0 46 -19q18 -19 18 -45q0 -34 -63 -101
q-24 -25 -58 -56q-13 -12 -30 -27l-14 -12l-13 -12l30 -38l29 -38q37 -47 61 -76q18 -22 18 -46q0 -27 -19 -46q-20 -20 -47 -20q-34 0 -60 34l-118 152q-185 -134 -398 -134q-185 0 -297 97zM318 174q73 -64 192 -64q175 0 328 114l-344 450q-143 -105 -196 -176
q-52 -72 -52 -162q0 -100 72 -162zM682 1241q-48 49 -120 49q-85 0 -132 -49q-46 -46 -46 -125q0 -97 138 -274q110 71 156 127q54 66 54 147q0 76 -50 125z" />
    <glyph glyph-name="quotesingle" unicode="'" horiz-adv-x="594" 
d="M261 846q-15 13 -15 34l-16 436q-4 98 66 98t66 -98l-14 -436q-1 -21 -16 -34q-15 -14 -36 -14t-35 14z" />
    <glyph glyph-name="parenleft" unicode="(" horiz-adv-x="714" 
d="M454 1470q18 28 50 28q24 0 41 -16t17 -40q0 -12 -8 -28q-202 -381 -202 -796q0 -413 202 -794q8 -12 8 -26q0 -25 -17 -42q-17 -16 -41 -16q-32 0 -50 28q-232 403 -232 850q0 441 232 852z" />
    <glyph glyph-name="parenright" unicode=")" horiz-adv-x="714" 
d="M260 -232q-17 -28 -50 -28q-24 0 -41 16q-17 17 -17 42q0 14 8 26q202 381 202 794q0 415 -202 796q-8 16 -8 28q0 24 17 40t41 16q33 0 50 -28q232 -411 232 -852q0 -447 -232 -850z" />
    <glyph glyph-name="asterisk" unicode="*" horiz-adv-x="1124" 
d="M513 730l-16 232v74q0 41 13 66q16 32 51 32q34 0 50 -33q12 -26 12 -65v-74l-16 -232l220 88l68 22q40 13 68 8q35 -5 46 -38q11 -34 -16 -59q-20 -20 -58 -31l-70 -22l-230 -58l154 -176l44 -58q24 -31 29 -59q6 -37 -21 -57t-59 -5q-26 13 -49 45l-44 58l-128 194
l-128 -194l-44 -58q-23 -32 -49 -45q-32 -15 -59 5t-21 57q5 28 29 59l44 58l154 176l-230 58l-70 22q-37 11 -58 31q-27 25 -18 59q11 33 47 38q29 5 67 -8l70 -22z" />
    <glyph glyph-name="plus" unicode="+" horiz-adv-x="1238" 
d="M552 608h-366q-24 0 -39 16t-15 40t16 40t40 16h364v380q0 29 20 48q20 20 48 20q29 0 48 -20q20 -19 20 -48v-380h366q24 0 40 -16t16 -40t-16 -40t-40 -16h-366v-380q0 -28 -20 -48q-19 -20 -48 -20q-28 0 -48 20t-20 48v380z" />
    <glyph glyph-name="comma" unicode="," horiz-adv-x="594" 
d="M147 -238l3 8l2 8l96 328q22 76 74 76q30 0 49 -21q17 -20 17 -47q0 -15 -14 -54l-124 -322q-16 -48 -52 -48q-23 0 -38 15q-16 15 -16 37q0 8 3 20z" />
    <glyph glyph-name="hyphen" unicode="-" horiz-adv-x="812" 
d="M650 720q24 0 40 -16t16 -40t-15 -40t-39 -16h-494q-24 0 -39 16t-15 40t16 40t40 16h490z" />
    <glyph glyph-name="period" unicode="." horiz-adv-x="594" 
d="M228 140q28 28 68 28q41 0 68 -28q28 -27 28 -68q0 -40 -28 -68q-27 -28 -68 -28q-40 0 -68 28t-28 68q0 41 28 68z" />
    <glyph glyph-name="slash" unicode="/" horiz-adv-x="1020" 
d="M447 667l389 783q16 36 54 36q24 0 41 -17t17 -41q0 -16 -6 -28l-778 -1566q-16 -36 -54 -36q-24 0 -41 17q-17 18 -17 43q0 16 6 28q149 297 389 781z" />
    <glyph glyph-name="zero" unicode="0" horiz-adv-x="1188" 
d="M359 274q81 -166 245 -166q163 0 244 166q74 151 74 426t-74 426q-81 164 -244 164q-164 0 -245 -164q-75 -151 -75 -426t75 -426zM258 1208q120 206 346 206q223 0 343 -206q111 -190 111 -508q0 -319 -111 -509q-120 -207 -343 -207q-226 0 -346 207q-110 189 -110 509
q0 319 110 508z" />
    <glyph glyph-name="one" unicode="1" horiz-adv-x="1188" 
d="M264 1162l414 246q12 8 22 8q32 0 32 -34v-1328q0 -28 -20 -48q-21 -20 -48 -20q-28 0 -48 20t-20 48v1168l-268 -160q-17 -10 -34 -10q-24 0 -41 17t-17 41q0 35 28 52z" />
    <glyph glyph-name="two" unicode="2" horiz-adv-x="1188" 
d="M186 1200q143 214 376 214q185 0 297 -110q107 -106 107 -272q0 -191 -188 -416l-408 -492h568q26 0 44 -18t18 -44q0 -25 -18 -44q-18 -18 -44 -18h-754q-30 0 -30 28q0 16 10 26l494 620q172 216 172 358q0 115 -74 186q-76 72 -198 72q-166 0 -268 -156
q-20 -30 -56 -30q-24 0 -42 17q-18 18 -18 43q0 21 12 36z" />
    <glyph glyph-name="three" unicode="3" horiz-adv-x="1188" 
d="M122 276q19 18 44 18q30 0 56 -32q117 -154 288 -154q148 0 242 86q94 87 94 228q0 138 -97 224q-100 88 -285 106q-34 3 -34 32q0 6 8 22l304 470h-500q-25 0 -44 18q-18 19 -18 44q0 26 18 44q19 18 44 18h676q28 0 28 -30q0 -8 -8 -20l-338 -514q186 -44 286 -156
q96 -109 96 -264q0 -174 -115 -295q-128 -137 -347 -137q-113 0 -216 51q-109 54 -180 153q-9 11 -14 20q-6 12 -6 24q0 26 18 44z" />
    <glyph glyph-name="four" unicode="4" horiz-adv-x="1188" 
d="M78 368l722 1004q11 15 26 27q19 15 32 15q14 0 24 -11t10 -27v-962h118q26 0 44 -18t18 -44q0 -25 -18 -44q-18 -18 -44 -18h-118v-230q0 -74 -68 -74t-68 74v230h-678q-28 0 -28 26q0 12 28 52zM756 412v728l-522 -728h522z" />
    <glyph glyph-name="five" unicode="5" horiz-adv-x="1188" 
d="M346 1300q9 59 28 79q21 21 78 21h460q26 0 44 -18t18 -44q0 -25 -18 -44q-18 -18 -44 -18h-438q-12 -79 -33 -209l-16 -103l-17 -104q63 20 138 20q195 0 328 -119q138 -125 138 -321q0 -198 -119 -323q-126 -133 -345 -133q-251 0 -404 208q-14 21 -14 38q0 26 18 44
q19 18 44 18q33 0 52 -26q55 -75 133 -117q77 -41 159 -41q168 0 260 103q80 89 80 225q0 150 -101 242q-103 94 -273 94q-100 0 -200 -50q-8 -4 -16 -4q-10 0 -19 9q-8 8 -7 17z" />
    <glyph glyph-name="six" unicode="6" horiz-adv-x="1188" 
d="M927 106q-138 -130 -329 -130q-192 0 -329 130q-141 132 -141 326q0 122 122 324l390 622q22 36 58 36q26 0 44 -18t18 -44q0 -19 -14 -40l-298 -476q66 44 152 44q184 0 322 -123q146 -130 146 -325q0 -193 -141 -326zM360 195q96 -95 236 -95t237 95t97 237
q0 140 -97 237q-97 95 -237 95t-236 -95q-96 -96 -96 -237q0 -142 96 -237z" />
    <glyph glyph-name="seven" unicode="7" horiz-adv-x="1188" 
d="M166 1382q19 18 44 18h784q28 0 28 -30q0 -6 -4 -18l-560 -1322q-20 -44 -64 -44q-27 0 -46 19q-20 18 -20 45q0 10 4 26l514 1200h-636q-25 0 -44 18q-18 19 -18 44q0 26 18 44z" />
    <glyph glyph-name="eight" unicode="8" horiz-adv-x="1188" 
d="M266 110q-134 125 -134 308q0 135 80 239q76 100 204 145q-83 41 -132 111q-52 75 -52 165q0 143 104 239q104 97 258 97q153 0 258 -97q104 -97 104 -239q0 -90 -53 -165q-49 -70 -131 -111q126 -45 204 -145q80 -106 80 -239q0 -183 -133 -308q-134 -126 -329 -126
t-328 126zM361 647q-93 -90 -93 -225q0 -133 93 -223q94 -91 233 -91q138 0 232 91t94 223q0 135 -94 225q-93 89 -232 89q-140 0 -233 -89zM758 917q66 64 66 159q0 93 -66 157q-67 63 -164 63q-100 0 -165 -63t-65 -157q0 -95 65 -159q65 -65 165 -65q97 0 164 65z" />
    <glyph glyph-name="nine" unicode="9" horiz-adv-x="1188" 
d="M265 1289q137 125 329 125q193 0 330 -125q140 -130 140 -321q0 -127 -124 -326q-81 -131 -194 -311l-98 -155q-64 -103 -98 -156q-20 -34 -56 -34q-26 0 -44 17q-18 18 -18 43q0 18 14 42l298 474q-63 -42 -152 -42q-184 0 -322 123q-146 130 -146 325q0 191 141 321z
M832 1200q-95 90 -236 90t-237 -90q-97 -93 -97 -232q0 -142 97 -238t237 -96t236 96t96 238q0 140 -96 232z" />
    <glyph glyph-name="colon" unicode=":" horiz-adv-x="594" 
d="M228 1036q28 28 68 28q41 0 68 -28q28 -27 28 -68q0 -40 -28 -68q-27 -28 -68 -28q-40 0 -68 28t-28 68q0 41 28 68zM228 140q28 28 68 28q41 0 68 -28q28 -27 28 -68q0 -40 -28 -68q-27 -28 -68 -28q-40 0 -68 28t-28 68q0 41 28 68z" />
    <glyph glyph-name="semicolon" unicode=";" horiz-adv-x="594" 
d="M228 1036q28 28 68 28q41 0 68 -28q28 -27 28 -68q0 -40 -28 -68q-27 -28 -68 -28q-40 0 -68 28t-28 68q0 41 28 68zM147 -238l3 8l2 8l90 310q11 37 30 62q23 32 50 32q30 0 49 -23q17 -21 17 -49q0 -10 -5 -25l-4 -13l-5 -12l-116 -302q-9 -27 -23 -45q-18 -23 -37 -23
q-23 0 -38 15q-16 15 -16 37q0 8 3 20z" />
    <glyph glyph-name="less" unicode="&#x3c;" horiz-adv-x="1238" 
d="M162 686l834 488q11 8 28 8q24 0 41 -17t17 -41q0 -34 -36 -56l-698 -404l698 -406q36 -22 36 -54q0 -25 -17 -43q-17 -17 -41 -17q-16 0 -37 12l-17 10l-8 5l-8 5l-792 464q-16 8 -16 24q0 14 16 22z" />
    <glyph glyph-name="equal" unicode="=" horiz-adv-x="1238" 
d="M1036 950q24 0 40 -16t16 -40t-15 -39t-39 -15h-838q-24 0 -40 15t-16 39t16 40t40 16h836zM1036 488q24 0 40 -16t16 -40t-15 -40t-39 -16h-838q-24 0 -40 16t-16 40t16 40t40 16h836z" />
    <glyph glyph-name="greater" unicode="&#x3e;" horiz-adv-x="1238" 
d="M1076 640l-834 -488q-16 -8 -28 -8q-25 0 -42 17q-16 17 -16 43q0 29 36 54l698 406l-698 404q-36 22 -36 56q0 24 16 41q17 17 42 17q15 0 36 -11l17 -11l17 -10l792 -464q16 -8 16 -22q0 -16 -16 -24z" />
    <glyph glyph-name="question" unicode="?" horiz-adv-x="984" 
d="M124 1268q166 156 360 156q175 0 285 -89q109 -89 109 -229q0 -234 -330 -382q-86 -38 -125 -75q-43 -42 -43 -97q0 -51 35 -81q33 -29 83 -29q37 0 82 26l7 3l7 4q9 3 16 3q22 0 37 -14q15 -15 15 -36q0 -25 -20 -42q-64 -52 -158 -52q-101 0 -167 59q-67 60 -67 151
q0 77 50 144q54 73 154 116q151 66 221 136q73 73 73 166q0 90 -68 146q-73 58 -198 58q-75 0 -150 -34q-75 -35 -128 -92q-19 -22 -44 -22q-24 0 -41 17t-17 41q0 29 22 48zM394 140q28 28 68 28q41 0 68 -28q28 -27 28 -68q0 -40 -28 -68q-27 -28 -68 -28q-40 0 -68 28
t-28 68q0 41 28 68z" />
    <glyph glyph-name="at" unicode="@" horiz-adv-x="1962" 
d="M1264 888q0 24 16 41t40 17t41 -17t17 -41v-498q0 -78 39 -122q36 -42 95 -42q115 0 180 98q66 99 66 274q0 308 -220 525q-226 223 -566 223q-323 0 -549 -234q-223 -232 -223 -560q0 -155 60 -300q59 -143 166 -255q233 -243 572 -243q258 0 466 120q16 8 26 8
q17 0 28 -11q12 -11 12 -27q0 -26 -24 -36q-231 -132 -508 -132q-186 0 -353 73q-158 69 -280 194q-120 123 -186 280q-67 160 -67 329q0 171 65 331q65 157 181 278q252 263 614 263q372 0 628 -252q117 -116 181 -264q65 -151 65 -310q0 -202 -90 -326q-97 -132 -268 -132
q-85 0 -143 50q-58 49 -75 132q-49 -88 -140 -138q-89 -50 -194 -50q-168 0 -287 119q-121 120 -121 291q0 172 120 290q118 116 286 116q105 0 192 -47q87 -46 138 -129v114zM731 327q90 -89 219 -89t220 89q90 90 90 217q0 129 -90 219q-91 89 -220 89t-219 -89
q-91 -90 -91 -219q0 -127 91 -217z" />
    <glyph glyph-name="A" unicode="A" horiz-adv-x="1274" 
d="M676 1386l538 -1306q8 -20 8 -30q0 -28 -19 -46q-18 -18 -43 -18q-44 0 -62 42l-136 338h-652l-136 -338q-17 -44 -60 -44q-26 0 -45 19q-19 18 -19 45q0 8 8 32l538 1306q11 28 40 28q28 0 40 -28zM356 480h560q-53 129 -140 346l-140 348z" />
    <glyph glyph-name="B" unicode="B" horiz-adv-x="1070" 
d="M176 1340q0 24 17 42q18 18 43 18h228q201 0 318 -101q106 -93 106 -231q0 -239 -224 -316q161 -37 243 -143q71 -94 71 -225q0 -165 -116 -271q-123 -113 -328 -113h-298q-25 0 -43 17q-17 18 -17 43v1280zM312 118h202q154 0 243 81q85 77 85 203q0 125 -89 203
q-93 81 -251 81h-190v-568zM312 804h160q130 0 208 69q74 66 74 171q0 104 -70 168q-78 70 -218 70h-154v-478z" />
    <glyph glyph-name="C" unicode="C" horiz-adv-x="1438" 
d="M325 1211q212 203 517 203q272 0 484 -180q20 -17 20 -48q0 -26 -19 -46q-20 -20 -45 -20t-44 16q-169 150 -396 150q-249 0 -421 -165q-175 -169 -175 -421q0 -253 175 -421q171 -165 421 -165q232 0 396 148q19 16 42 16q27 0 47 -19q19 -20 19 -47q0 -29 -22 -48
q-207 -178 -482 -178q-305 0 -517 203q-215 205 -215 511q0 304 215 511z" />
    <glyph glyph-name="D" unicode="D" horiz-adv-x="1372" 
d="M312 128h228q256 0 419 155q167 158 167 417t-167 417q-163 155 -419 155h-228v-1144zM236 0q-25 0 -43 17q-17 18 -17 43v1280q0 24 17 42q18 18 43 18h304q308 0 512 -191q210 -197 210 -509t-210 -509q-204 -191 -512 -191h-304z" />
    <glyph glyph-name="E" unicode="E" horiz-adv-x="958" 
d="M176 1334q0 27 20 47q19 19 46 19h534q26 0 45 -19t19 -45q0 -27 -19 -45q-19 -19 -45 -19h-464v-428h414q26 0 44 -18t18 -44q0 -25 -18 -44q-18 -18 -44 -18h-414v-592h484q26 0 45 -19t19 -45q0 -27 -19 -45q-19 -19 -45 -19h-554q-27 0 -46 19q-20 18 -20 45v1270z
" />
    <glyph glyph-name="F" unicode="F" horiz-adv-x="884" 
d="M176 1334q0 28 19 47q18 19 45 19h530q27 0 46 -19q18 -19 18 -47q0 -26 -18 -44q-19 -18 -46 -18h-458v-446h400q27 0 46 -18q18 -19 18 -46t-18 -45q-19 -19 -46 -19h-400v-644q0 -28 -20 -48q-19 -20 -48 -20q-28 0 -48 20t-20 48v1280z" />
    <glyph glyph-name="G" unicode="G" horiz-adv-x="1592" 
d="M421 1121q-175 -169 -175 -421q0 -253 175 -421q171 -165 421 -165q215 0 354 140q128 130 152 338h-338q-27 0 -45 19q-19 19 -19 45q0 27 19 46q18 18 45 18h418q28 0 46 -18q18 -19 18 -46v-6q-9 -288 -185 -473q-181 -191 -465 -191q-305 0 -517 203
q-215 205 -215 511q0 304 215 511q212 203 517 203q330 0 554 -254q20 -23 20 -46q0 -27 -19 -46q-20 -20 -47 -20q-32 0 -52 26q-85 99 -200 154q-121 58 -256 58q-249 0 -421 -165z" />
    <glyph glyph-name="H" unicode="H" horiz-adv-x="1300" 
d="M1122 54q0 -28 -20 -48q-19 -20 -48 -20q-28 0 -48 20t-20 48v650h-674v-650q0 -28 -20 -48q-19 -20 -48 -20q-28 0 -48 20t-20 48v1292q0 27 20 48q20 20 48 20t48 -20q20 -21 20 -48v-514h674v514q0 27 20 48q20 20 48 20t48 -20q20 -21 20 -48v-1292z" />
    <glyph glyph-name="I" unicode="I" horiz-adv-x="534" 
d="M334 54q0 -28 -20 -48q-19 -20 -48 -20q-28 0 -48 20t-20 48v1292q0 27 20 48q20 20 48 20t48 -20q20 -21 20 -48v-1292z" />
    <glyph glyph-name="J" unicode="J" horiz-adv-x="834" 
d="M27 201q18 19 45 19q31 0 48 -20q69 -86 174 -86q226 0 226 302v930q0 27 20 48q20 20 48 20q27 0 48 -20q20 -21 20 -48v-934q0 -216 -100 -325q-93 -101 -260 -101q-153 0 -262 116q-26 30 -26 54q0 26 19 45z" />
    <glyph glyph-name="K" unicode="K" horiz-adv-x="1134" 
d="M176 1350q0 29 20 48q20 20 48 20q29 0 48 -20q20 -19 20 -48v-634l596 680q20 20 50 20t50 -20t20 -50q0 -27 -16 -46l-532 -584l600 -614q20 -23 20 -50q0 -30 -20 -50t-50 -20q-31 0 -52 24l-666 710v-666q0 -28 -20 -48q-19 -20 -48 -20q-28 0 -48 20t-20 48v1300z
" />
    <glyph glyph-name="L" unicode="L" horiz-adv-x="912" 
d="M176 1346q0 27 20 48q20 20 48 20t48 -20q20 -21 20 -48v-1218h504q27 0 46 -19q18 -19 18 -45q0 -27 -18 -45q-19 -19 -46 -19h-572q-28 0 -48 20t-20 48v1278z" />
    <glyph glyph-name="M" unicode="M" horiz-adv-x="1778" 
d="M854 22l-382 1104l-278 -1086q-6 -23 -25 -38q-19 -16 -43 -16q-28 0 -48 21q-20 20 -20 47q0 8 4 24l364 1308q7 26 32 26t34 -22l396 -1112l398 1112q7 24 32 24q24 0 34 -28l362 -1308q4 -16 4 -24q0 -27 -20 -47q-20 -21 -48 -21q-52 0 -66 54l-278 1086l-384 -1104
q-7 -26 -34 -26q-23 0 -34 26z" />
    <glyph glyph-name="N" unicode="N" horiz-adv-x="1460" 
d="M1148 264v1082q0 27 20 48q20 20 48 20q27 0 48 -20q20 -21 20 -48v-1334q0 -15 -11 -25q-12 -11 -27 -11q-17 0 -30 16l-904 1144v-1082q0 -28 -20 -48q-19 -20 -48 -20q-28 0 -48 20t-20 48v1332q0 15 11 26q10 10 25 10q20 0 30 -14z" />
    <glyph glyph-name="O" unicode="O" horiz-adv-x="1684" 
d="M421 279q171 -165 421 -165q248 0 420 165q176 168 176 421q0 252 -176 421q-172 165 -420 165q-249 0 -421 -165q-175 -169 -175 -421q0 -253 175 -421zM325 1211q212 203 517 203q304 0 516 -203q216 -207 216 -511q0 -305 -216 -511q-212 -203 -516 -203
q-305 0 -517 203q-215 205 -215 511q0 304 215 511z" />
    <glyph glyph-name="P" unicode="P" horiz-adv-x="1018" 
d="M176 1336q0 27 19 46q18 18 45 18h238q214 0 343 -120q123 -115 123 -292t-123 -291q-129 -121 -343 -121h-166v-524q0 -27 -20 -46q-20 -20 -48 -20t-48 20q-20 19 -20 46v1284zM312 700h162q151 0 242 78q92 79 92 210t-92 210q-91 78 -242 78h-162v-576z" />
    <glyph glyph-name="Q" unicode="Q" horiz-adv-x="1684" 
d="M325 1211q212 203 517 203q304 0 516 -203q216 -207 216 -511q0 -283 -190 -486l144 -146q18 -18 18 -42q0 -25 -18 -44q-18 -18 -44 -18q-14 0 -28 9l-11 8l-11 9l-140 144q-198 -148 -452 -148q-305 0 -517 203q-215 205 -215 511q0 304 215 511zM421 279
q171 -165 421 -165q200 0 358 114l-222 226q-20 20 -20 46q0 25 18 44q18 18 42 18t46 -22l228 -232q146 165 146 392q0 252 -176 421q-172 165 -420 165q-249 0 -421 -165q-175 -169 -175 -421q0 -253 175 -421z" />
    <glyph glyph-name="R" unicode="R" horiz-adv-x="1076" 
d="M402 748q197 7 292 88q80 68 80 180q0 118 -87 189q-89 71 -243 71h-132v-1222q0 -28 -20 -48q-19 -20 -48 -20q-28 0 -48 20t-20 48v1282q0 27 19 46q18 18 45 18h218q203 0 328 -108q124 -107 124 -278q0 -126 -71 -216q-93 -115 -291 -148l460 -562q16 -16 16 -40
q0 -25 -18 -44q-18 -18 -44 -18q-34 0 -50 26l-534 682q-6 9 -6 20q0 31 30 34z" />
    <glyph glyph-name="S" unicode="S" horiz-adv-x="1046" 
d="M850 645q86 -108 86 -267q0 -166 -109 -275q-118 -117 -317 -117q-125 0 -235 60q-109 60 -177 164q-10 17 -10 34q0 26 18 44q19 18 44 18q33 0 52 -28q53 -79 136 -122q81 -42 174 -42q124 0 206 78q82 76 82 188q0 115 -64 192q-71 83 -242 154q-160 66 -234 151
q-82 93 -82 229q0 131 94 219q96 89 244 89q173 0 274 -126q20 -24 20 -44q0 -24 -18 -41t-44 -17q-24 0 -46 22q-69 78 -178 78q-95 0 -152 -50q-58 -50 -58 -134q0 -93 58 -152q58 -60 206 -120q186 -77 272 -185z" />
    <glyph glyph-name="T" unicode="T" horiz-adv-x="932" 
d="M108 1272q-27 0 -45 19q-19 18 -19 45q0 26 19 45q18 19 45 19h716q26 0 45 -19t19 -45q0 -27 -19 -45q-19 -19 -45 -19h-290v-1218q0 -28 -20 -48q-21 -20 -48 -20q-28 0 -48 20t-20 48v1218h-290z" />
    <glyph glyph-name="U" unicode="U" horiz-adv-x="1282" 
d="M879 212q91 102 91 280v854q0 27 20 48q19 20 46 20q28 0 48 -20q20 -21 20 -48v-856q0 -232 -137 -372q-129 -132 -327 -132t-327 132q-137 140 -137 372v856q0 27 20 48q20 20 48 20q27 0 48 -20q20 -21 20 -48v-854q0 -178 91 -280q89 -98 237 -98q150 0 239 98z" />
    <glyph glyph-name="V" unicode="V" horiz-adv-x="1274" 
d="M600 0l-542 1320q-8 20 -8 30q0 27 19 46q19 18 45 18q44 0 60 -46l462 -1142l462 1146q18 42 62 42q25 0 43 -18q19 -19 19 -46q0 -8 -8 -32l-542 -1318q-11 -26 -36 -26t-36 26z" />
    <glyph glyph-name="W" unicode="W" horiz-adv-x="1958" 
d="M978 1138l-378 -1142q-9 -22 -34 -22q-28 0 -34 22l-476 1338q-4 16 -4 24q0 27 19 47q19 19 45 19q46 0 64 -50l382 -1124l382 1148q11 28 34 28q24 0 34 -28l382 -1148l382 1124q14 50 64 50q27 0 46 -19q18 -20 18 -47q0 -16 -4 -24l-474 -1338q-9 -22 -34 -22
q-28 0 -34 22z" />
    <glyph glyph-name="X" unicode="X" horiz-adv-x="1198" 
d="M1090 1300l-408 -568l458 -638q16 -19 16 -44q0 -27 -19 -45q-20 -19 -47 -19q-39 0 -62 30l-430 600l-428 -596q-24 -34 -60 -34q-28 0 -48 20q-20 19 -20 46q0 24 16 46l456 634l-410 568q-16 22 -16 48q0 28 20 48q19 20 46 20q34 0 60 -34l384 -536l382 534
q24 34 60 34q29 0 48 -20q20 -19 20 -48q0 -21 -18 -46z" />
    <glyph glyph-name="Y" unicode="Y" horiz-adv-x="1164" 
d="M520 6q-20 20 -20 48v514l-468 740q-10 17 -10 36q0 29 21 49q21 21 49 21q32 0 64 -44l412 -670l414 670q26 44 62 44q29 0 49 -21q21 -20 21 -49q0 -21 -10 -34l-468 -742v-514q0 -28 -20 -48q-19 -20 -48 -20q-28 0 -48 20z" />
    <glyph glyph-name="Z" unicode="Z" horiz-adv-x="990" 
d="M240 128h648q27 0 46 -19q18 -19 18 -45q0 -27 -18 -45q-19 -19 -46 -19h-824q-30 0 -30 28q0 4 2 10l2 4l2 4l654 1226h-536q-27 0 -45 19q-19 18 -19 45q0 26 19 45q18 19 45 19h710q28 0 28 -30q0 -8 -4 -16z" />
    <glyph glyph-name="bracketleft" unicode="[" horiz-adv-x="678" 
d="M264 1446q0 23 15 38q15 16 37 16h258q21 0 37 -15q15 -16 15 -37q0 -22 -15 -37q-16 -15 -37 -15h-184v-1552h184q21 0 37 -15q15 -16 15 -37q0 -22 -15 -37q-16 -15 -37 -15h-258q-22 0 -37 15t-15 37v1654z" />
    <glyph glyph-name="backslash" unicode="\" horiz-adv-x="1022" 
d="M641 224l-194 392q-259 523 -389 784q-6 15 -6 28q0 24 17 41t41 17q15 0 29 -8q16 -9 23 -24l778 -1570q8 -11 8 -26q0 -25 -17 -43q-17 -17 -41 -17q-35 0 -54 34z" />
    <glyph glyph-name="bracketright" unicode="]" horiz-adv-x="678" 
d="M414 -208q0 -22 -16 -37q-15 -15 -38 -15h-256q-22 0 -37 15t-15 37q0 21 15 37q15 15 37 15h184v1552h-184q-22 0 -37 15t-15 37q0 21 15 37q15 15 37 15h256q23 0 38 -16q16 -15 16 -38v-1654z" />
    <glyph glyph-name="asciicircum" unicode="^" horiz-adv-x="1276" 
d="M332 782q-21 -28 -50 -28q-25 0 -44 18q-18 19 -18 44q0 19 14 40l378 516q12 16 24 16q8 0 15 -5q6 -4 11 -11l380 -518q12 -18 12 -38q0 -25 -18 -44q-18 -18 -44 -18q-30 0 -50 26l-304 422z" />
    <glyph glyph-name="underscore" unicode="_" horiz-adv-x="1000" 
d="M970 -204q18 0 31 -12q13 -13 13 -32q0 -18 -13 -30t-31 -12h-940q-44 0 -44 42q0 44 44 44h940z" />
    <glyph glyph-name="grave" unicode="`" horiz-adv-x="806" 
d="M239 1458q14 14 35 14q20 0 36 -16l250 -240q20 -20 20 -40q0 -21 -14 -35q-15 -15 -36 -15q-18 0 -36 14l-254 244q-16 16 -16 38q0 21 15 36z" />
    <glyph glyph-name="a" unicode="a" horiz-adv-x="1280" 
d="M988 886q0 26 18 45q19 19 44 19q26 0 45 -19t19 -45v-838q0 -25 -19 -44q-19 -18 -45 -18q-25 0 -44 18q-18 19 -18 44v158q-59 -107 -166 -165q-104 -55 -236 -55q-203 0 -344 136q-144 139 -144 346t144 346q141 136 344 136q131 0 236 -56q108 -58 166 -164v156z
M872 733q-110 105 -268 105q-159 0 -270 -105q-112 -106 -112 -265q0 -160 112 -267q110 -105 270 -105q158 0 268 105q112 107 112 267q0 159 -112 265z" />
    <glyph glyph-name="b" unicode="b" horiz-adv-x="1280" 
d="M166 1450q0 26 18 45q19 19 44 19q26 0 45 -19t19 -45v-720q58 106 165 164q104 56 237 56q203 0 344 -136q144 -139 144 -346t-144 -346q-141 -136 -344 -136q-133 0 -237 55q-108 58 -165 165v-158q0 -25 -19 -44q-19 -18 -45 -18q-25 0 -44 18q-18 19 -18 44v1402z
M406 201q110 -105 270 -105q158 0 268 105q112 107 112 267q0 159 -112 265q-110 105 -268 105q-159 0 -270 -105q-112 -106 -112 -265q0 -160 112 -267z" />
    <glyph glyph-name="c" unicode="c" horiz-adv-x="992" 
d="M246 814q145 136 356 136q170 0 306 -102q24 -21 24 -48q0 -23 -17 -39q-17 -17 -41 -17q-11 0 -22 5q-9 4 -20 11q-102 74 -230 74q-159 0 -268 -103q-110 -104 -110 -263t110 -263q109 -103 268 -103q134 0 232 74q18 14 40 14q24 0 41 -17q17 -16 17 -39
q0 -28 -26 -48q-137 -100 -304 -100q-211 0 -356 136q-148 138 -148 346t148 346z" />
    <glyph glyph-name="d" unicode="d" horiz-adv-x="1280" 
d="M1114 48q0 -25 -19 -44q-19 -18 -45 -18q-25 0 -44 18q-18 19 -18 44v158q-59 -107 -166 -165q-104 -55 -236 -55q-203 0 -344 136q-144 139 -144 346t144 346q141 136 344 136q131 0 236 -56q108 -58 166 -164v720q0 26 18 45q19 19 44 19q26 0 45 -19t19 -45v-1402z
M872 733q-110 105 -268 105q-159 0 -270 -105q-112 -106 -112 -265q0 -160 112 -267q110 -105 270 -105q158 0 268 105q112 107 112 267q0 159 -112 265z" />
    <glyph glyph-name="e" unicode="e" horiz-adv-x="1166" 
d="M247 122q-149 139 -149 346q0 205 143 345q140 137 343 137q197 0 336 -129q140 -130 150 -327v-4q0 -18 -13 -31q-14 -15 -35 -15h-796q20 -152 122 -246q103 -96 256 -96q184 0 298 148q18 24 48 24q26 0 43 -17t17 -43q0 -24 -16 -40q-152 -188 -392 -188
q-210 0 -355 136zM942 540q-21 135 -119 215q-96 79 -237 79q-132 0 -230 -80q-100 -82 -124 -214h710z" />
    <glyph glyph-name="f" unicode="f" horiz-adv-x="668" 
d="M348 1138v-202h240q70 0 70 -58t-70 -58h-240v-762q0 -72 -62 -72q-64 0 -64 72v762h-114q-66 0 -66 58t66 58h114v208q0 181 81 279q81 97 231 97q71 0 147 -35q85 -39 85 -89q0 -23 -16 -39q-16 -17 -38 -17t-66 34q-47 38 -106 38q-192 0 -192 -274z" />
    <glyph glyph-name="g" unicode="g" horiz-adv-x="1280" 
d="M197 -289q16 17 39 17q29 0 54 -32q51 -71 129 -110q79 -40 167 -40q402 0 402 460v200q-59 -107 -166 -165q-104 -55 -236 -55q-203 0 -344 136q-144 139 -144 346t144 346q141 136 344 136q131 0 236 -56q108 -58 166 -164v156q0 26 18 45q19 19 44 19q26 0 45 -19
t19 -45v-864q0 -586 -528 -586q-241 0 -388 188q-18 25 -18 44q0 25 17 43zM872 733q-110 105 -268 105q-159 0 -270 -105q-112 -106 -112 -265q0 -160 112 -267q110 -105 270 -105q158 0 268 105q112 107 112 267q0 159 -112 265z" />
    <glyph glyph-name="h" unicode="h" horiz-adv-x="1082" 
d="M292 782q99 168 294 168q140 0 238 -98q104 -104 104 -270v-534q0 -25 -19 -44q-19 -18 -45 -18q-25 0 -44 18q-18 19 -18 44v504q0 124 -69 204q-71 82 -187 82q-114 0 -185 -82q-69 -80 -69 -202v-506q0 -25 -19 -44q-19 -18 -45 -18q-25 0 -44 18q-18 19 -18 44v1402
q0 26 18 45q19 19 44 19q26 0 45 -19t19 -45v-668z" />
    <glyph glyph-name="i" unicode="i" horiz-adv-x="488" 
d="M310 1265q-27 -27 -66 -27t-66 27q-28 27 -28 67q0 39 28 66q27 26 66 26t66 -26q26 -27 26 -66q0 -40 -26 -67zM180 886q0 26 19 45q18 19 45 19q25 0 44 -19q18 -19 18 -45v-838q0 -25 -18 -44q-18 -18 -44 -18q-27 0 -45 18q-19 18 -19 44v838z" />
    <glyph glyph-name="j" unicode="j" horiz-adv-x="498" 
d="M-223 -388q16 16 39 16q27 0 42 -18q61 -64 150 -64q192 0 192 274v1066q0 26 18 45q19 19 44 19q26 0 45 -19t19 -45v-1068q0 -382 -314 -382q-140 0 -236 96q-16 19 -16 40q0 24 17 40zM329 1265q-28 -27 -67 -27t-65 27q-27 27 -27 67q0 39 27 66q26 26 65 26t67 -26
q27 -27 27 -66q0 -40 -27 -67z" />
    <glyph glyph-name="k" unicode="k" horiz-adv-x="980" 
d="M290 508l492 432q22 18 42 18q24 0 42 -17q18 -18 18 -43q0 -24 -24 -44l-416 -350l480 -424q20 -17 20 -44q0 -24 -18 -41t-44 -17q-24 0 -42 18l-550 512v-460q0 -25 -18 -44q-18 -18 -44 -18q-27 0 -45 18q-19 18 -19 44v1402q0 26 19 45q18 19 45 19q25 0 44 -19
q18 -19 18 -45v-942z" />
    <glyph glyph-name="l" unicode="l" horiz-adv-x="478" 
d="M176 1450q0 26 18 45q19 19 44 19q26 0 45 -19t19 -45v-1402q0 -25 -19 -44q-19 -18 -45 -18q-25 0 -44 18q-18 19 -18 44v1402z" />
    <glyph glyph-name="m" unicode="m" horiz-adv-x="1718" 
d="M802 550q0 124 -69 205q-72 83 -187 83q-114 0 -185 -78q-69 -77 -69 -200v-512q0 -25 -19 -44q-19 -18 -45 -18q-25 0 -44 18q-18 19 -18 44v838q0 26 18 45q19 19 44 19q26 0 45 -19t19 -45v-90q94 154 294 154q99 0 180 -52q84 -55 124 -152q105 204 332 204
q143 0 239 -98q103 -105 103 -274v-530q0 -25 -19 -44q-19 -18 -45 -18q-25 0 -44 18q-18 19 -18 44v502q0 124 -69 205q-72 83 -187 83q-114 0 -185 -83q-69 -81 -69 -205v-502q0 -25 -19 -44q-19 -18 -45 -18q-25 0 -44 18q-18 19 -18 44v502z" />
    <glyph glyph-name="n" unicode="n" horiz-adv-x="1082" 
d="M292 796q91 154 294 154q140 0 238 -98q104 -104 104 -270v-534q0 -25 -19 -44q-19 -18 -45 -18q-25 0 -44 18q-18 19 -18 44v502q0 124 -70 205q-72 83 -186 83t-185 -78q-69 -77 -69 -198v-514q0 -25 -19 -44q-19 -18 -45 -18q-25 0 -44 18q-18 19 -18 44v838
q0 26 18 45q19 19 44 19q26 0 45 -19t19 -45v-90z" />
    <glyph glyph-name="o" unicode="o" horiz-adv-x="1204" 
d="M334 205q109 -103 268 -103t268 103q110 104 110 263t-110 263q-109 103 -268 103t-268 -103q-110 -104 -110 -263t110 -263zM246 814q145 136 356 136q210 0 356 -136q148 -139 148 -346t-148 -346q-146 -136 -356 -136q-211 0 -356 136q-148 138 -148 346t148 346z" />
    <glyph glyph-name="p" unicode="p" horiz-adv-x="1280" 
d="M166 886q0 26 18 45q19 19 44 19q26 0 45 -19t19 -45v-156q58 106 165 164q104 56 237 56q203 0 344 -136q144 -139 144 -346t-144 -346q-141 -136 -344 -136q-133 0 -237 56q-107 58 -165 164v-710q0 -25 -19 -44q-19 -18 -45 -18q-25 0 -44 18q-18 19 -18 44v1390z
M406 201q110 -105 270 -105q158 0 268 105q112 107 112 267q0 159 -112 265q-110 105 -268 105q-159 0 -270 -105q-112 -106 -112 -265q0 -160 112 -267z" />
    <glyph glyph-name="q" unicode="q" horiz-adv-x="1280" 
d="M1114 -504q0 -25 -19 -44q-19 -18 -45 -18q-25 0 -44 18q-18 19 -18 44v710q-58 -106 -166 -164q-105 -56 -236 -56q-203 0 -344 136q-144 139 -144 346t144 346q141 136 344 136q131 0 236 -56q107 -58 166 -164v156q0 26 18 45q19 19 44 19q26 0 45 -19t19 -45v-1390z
M872 733q-110 105 -268 105q-159 0 -270 -105q-112 -106 -112 -265q0 -160 112 -267q110 -105 270 -105q158 0 268 105q112 107 112 267q0 159 -112 265z" />
    <glyph glyph-name="r" unicode="r" horiz-adv-x="742" 
d="M166 886q0 26 18 45q19 19 44 19q26 0 45 -19t19 -45v-98q93 162 270 162q61 0 99 -13q51 -19 51 -59q0 -24 -18 -41q-17 -17 -40 -17q-10 0 -26 4q-60 16 -92 16q-100 0 -169 -79q-67 -77 -75 -191v-522q0 -25 -19 -44q-19 -18 -45 -18q-25 0 -44 18q-18 19 -18 44v838z
" />
    <glyph glyph-name="s" unicode="s" horiz-adv-x="774" 
d="M92 146q-16 24 -16 38q0 23 16 38q16 16 38 16q29 0 46 -24q89 -116 196 -116q86 0 138 50q50 47 50 118q0 74 -47 119q-42 41 -159 89q-230 94 -230 244q0 102 73 168q70 64 177 64q132 0 216 -100q12 -12 12 -34q0 -21 -15 -35q-15 -15 -37 -15t-38 16q-52 58 -128 58
q-60 0 -96 -32q-36 -33 -36 -84q0 -59 45 -96q36 -30 145 -76q129 -53 188 -123q56 -67 56 -159q0 -122 -79 -200q-84 -84 -229 -84q-176 0 -286 160z" />
    <glyph glyph-name="t" unicode="t" horiz-adv-x="646" 
d="M556 936q24 0 41 -17t17 -41t-17 -41t-41 -17h-208v-772q0 -25 -18 -44q-18 -18 -44 -18q-27 0 -45 18q-19 18 -19 44v772h-122q-24 0 -41 17t-17 41t17 41t41 17h122v214q0 26 19 45q18 19 45 19q25 0 44 -19q18 -19 18 -45v-214h208z" />
    <glyph glyph-name="u" unicode="u" horiz-adv-x="1088" 
d="M796 140q-91 -154 -294 -154q-140 0 -238 97q-104 104 -104 271v532q0 26 19 45q18 19 45 19q25 0 44 -19q18 -19 18 -45v-502q0 -123 70 -204q71 -84 186 -84q114 0 185 79q69 77 69 197v514q0 26 19 45q18 19 45 19q25 0 44 -19q18 -19 18 -45v-838q0 -25 -18 -44
q-18 -18 -44 -18q-27 0 -45 18q-19 18 -19 44v92z" />
    <glyph glyph-name="v" unicode="v" horiz-adv-x="954" 
d="M442 0l-380 876q-4 12 -4 22q0 25 17 43q17 17 41 17t40 -12q7 -5 11 -12q4 -5 7 -10l302 -732l304 732q14 34 56 34q24 0 41 -17q17 -18 17 -43q0 -16 -4 -22l-378 -876q-12 -24 -36 -24q-25 0 -34 24z" />
    <glyph glyph-name="w" unicode="w" horiz-adv-x="1530" 
d="M472 0q-10 -26 -34 -26t-34 24l-360 878q-4 12 -4 24q0 24 17 41t41 17q42 0 56 -34l284 -730l292 740q10 26 34 26t34 -26l292 -740l284 730q14 34 56 34q24 0 41 -17t17 -41q0 -12 -4 -24l-360 -878q-10 -24 -34 -24t-34 26l-292 746z" />
    <glyph glyph-name="x" unicode="x" horiz-adv-x="906" 
d="M164 12q-19 -26 -52 -26q-24 0 -41 16q-17 17 -17 42q0 18 12 36l308 406l-278 374q-12 18 -12 38q0 24 16 41q17 17 42 17q32 0 48 -22l262 -358l266 358q16 22 46 22q25 0 42 -17q16 -17 16 -41q0 -21 -12 -36l-278 -376l310 -408q10 -13 10 -34q0 -25 -17 -42
q-17 -16 -43 -16q-29 0 -50 28l-290 380z" />
    <glyph glyph-name="y" unicode="y" horiz-adv-x="974" 
d="M85 940q18 18 43 18q42 0 62 -46l288 -764l306 764q18 46 58 46q27 0 46 -18q18 -18 18 -44q0 -6 -4 -22l-570 -1420q-17 -42 -62 -42q-25 0 -43 18q-17 18 -17 44q0 16 6 28l198 496l-340 870q-6 12 -6 28q0 26 17 44z" />
    <glyph glyph-name="z" unicode="z" horiz-adv-x="810" 
d="M62 40l452 780h-354q-24 0 -41 17t-17 41t17 41t41 17h522q26 0 26 -26q0 -7 -6 -16l-458 -778h462q24 0 41 -17t17 -41t-17 -41t-41 -17h-624q-26 0 -26 24q0 7 6 16z" />
    <glyph glyph-name="braceleft" unicode="{" horiz-adv-x="782" 
d="M180 640q180 73 180 276v250q0 153 71 241q74 93 209 93h32q21 0 37 -16q15 -16 15 -38q0 -21 -15 -36q-16 -16 -37 -16q-186 0 -186 -230v-194q0 -121 -32 -197q-42 -98 -144 -153q102 -56 144 -155q32 -77 32 -195v-196q0 -228 184 -228q23 0 38 -16q16 -15 16 -38
q0 -21 -15 -36q-16 -16 -37 -16h-32q-134 0 -208 93q-72 88 -72 239v250q0 203 -180 276q-18 6 -18 22q0 14 18 20z" />
    <glyph glyph-name="bar" unicode="|" horiz-adv-x="578" 
d="M232 1494q0 24 16 41t40 17t41 -17t17 -41v-1852q0 -24 -17 -40t-41 -16t-40 16t-16 40v1852z" />
    <glyph glyph-name="braceright" unicode="}" horiz-adv-x="782" 
d="M602 598q-180 -73 -180 -276v-250q0 -151 -71 -239q-74 -93 -209 -93h-32q-21 0 -36 16q-16 15 -16 36q0 22 16 38q15 16 36 16q186 0 186 228v196q0 119 32 195q41 99 144 155q-103 55 -144 153q-32 75 -32 197v194q0 105 -44 165q-48 65 -140 65q-23 0 -38 15
q-16 15 -16 37t16 38q15 16 36 16h32q133 0 208 -94q72 -90 72 -240v-250q0 -203 180 -276q18 -7 18 -20q0 -15 -18 -22z" />
    <glyph glyph-name="asciitilde" unicode="~" horiz-adv-x="1238" 
d="M641 718l15 -12l27 -21q29 -23 49 -35q49 -30 102 -30q64 0 108 52q34 40 52 108q10 52 58 52q23 0 41 -17q19 -18 19 -43v-14q-26 -119 -94 -185q-71 -69 -176 -69q-115 0 -206 70q-107 85 -135 103q-50 31 -99 31q-62 0 -108 -51q-41 -45 -52 -109q-9 -52 -58 -52
q-23 0 -40 16q-20 17 -20 44v7q1 4 2 7q28 117 94 183q71 71 174 71q117 0 232 -94z" />
    <glyph glyph-name="uni00A0" unicode="&#xa0;" horiz-adv-x="600" 
 />
    <glyph glyph-name="exclamdown" unicode="&#xa1;" horiz-adv-x="604" 
d="M370 -418q0 -28 -20 -48q-19 -20 -48 -20q-28 0 -48 20t-20 48v942q0 29 20 48q20 20 48 20q29 0 48 -20q20 -19 20 -48v-942zM371 791q-27 -27 -69 -27q-41 0 -68 27q-28 27 -28 67t28 67q27 27 68 27q42 0 69 -27q27 -26 27 -67t-27 -67z" />
    <glyph glyph-name="cent" unicode="&#xa2;" horiz-adv-x="992" 
d="M228 798q128 136 316 156v122q0 20 15 35q14 15 35 15t36 -15q14 -15 14 -35v-118q151 -15 262 -98q28 -21 28 -48q0 -24 -16 -41t-38 -17q-16 0 -37 11l-19 11l-18 12q-87 56 -202 56q-158 0 -269 -109q-111 -110 -111 -267q0 -159 111 -268q110 -108 269 -108
q120 0 204 56l16 11l15 10q18 11 33 11q26 0 43 -16q17 -17 17 -42q0 -28 -28 -50q-118 -85 -266 -94v-130q0 -21 -15 -35q-15 -15 -35 -15q-21 0 -35 15q-15 14 -15 35v132q-186 23 -311 159q-129 140 -129 329q0 191 130 330z" />
    <glyph glyph-name="sterling" unicode="&#xa3;" horiz-adv-x="1184" 
d="M192 46q160 203 160 448v136h-172q-18 0 -31 13t-13 31t13 30t31 12h172v328q0 166 91 270q97 110 267 110q188 0 310 -150q12 -18 12 -38q0 -23 -17 -39q-17 -17 -41 -17t-46 26q-84 94 -206 94q-114 0 -176 -78q-58 -73 -58 -190v-316h328q18 0 30 -12t12 -30t-12 -31
t-30 -13h-328v-114q0 -214 -102 -392h638q26 0 44 -18t18 -44q0 -25 -18 -44q-18 -18 -44 -18h-814q-26 0 -26 26q0 8 8 20z" />
    <glyph glyph-name="currency" unicode="&#xa4;" horiz-adv-x="1408" 
d="M352 920l-126 126q-18 16 -27 29q-13 18 -13 37q0 62 66 62q16 0 32 -12q6 -5 14 -12l12 -12l130 -130q118 92 264 92t264 -92l128 130l12 12q8 7 14 12q16 12 32 12q66 0 66 -66q0 -18 -14 -35q-5 -7 -13 -14l-13 -13l-126 -126q86 -115 86 -256q0 -143 -86 -258
l126 -126l14 -14q8 -8 13 -16q13 -19 13 -40q0 -24 -17 -41q-18 -17 -43 -17q-32 0 -64 36l-128 130q-114 -92 -264 -92q-146 0 -264 92l-128 -130q-40 -36 -66 -36t-43 18t-17 44q0 17 14 36q9 13 28 30l126 126q-86 115 -86 258q0 144 84 256zM477 433q91 -93 227 -93
q135 0 227 93q91 93 91 231q0 137 -91 229q-92 93 -227 93q-136 0 -227 -93q-91 -92 -91 -229q0 -138 91 -231z" />
    <glyph glyph-name="yen" unicode="&#xa5;" horiz-adv-x="1190" 
d="M526 422v140h-362q-17 0 -28 11q-12 11 -12 27q0 40 40 40h318l-424 668q-10 17 -10 36q0 29 21 49q21 21 49 21q32 0 64 -44l412 -670l414 670q26 44 62 44q29 0 49 -21q21 -20 21 -49q0 -21 -10 -34l-422 -670h316q40 0 40 -40q0 -38 -40 -38h-362v-140h362
q40 0 40 -40q0 -38 -40 -38h-362v-290q0 -28 -20 -48q-19 -20 -48 -20q-28 0 -48 20t-20 48v290h-362q-17 0 -28 11q-12 11 -12 27q0 40 40 40h362z" />
    <glyph glyph-name="brokenbar" unicode="&#xa6;" horiz-adv-x="578" 
d="M232 1336q0 24 16 40t40 16t41 -16t17 -40v-562q0 -24 -17 -40t-41 -16t-40 16t-16 40v562zM232 400q0 24 16 40t40 16t41 -16t17 -40v-562q0 -24 -17 -40t-41 -16t-40 16t-16 40v562z" />
    <glyph glyph-name="section" unicode="&#xa7;" horiz-adv-x="1040" 
d="M299 -23q15 15 37 15q25 0 42 -20q58 -64 144 -64q72 0 118 38q48 39 48 104q0 67 -58 122q-51 47 -164 100q-274 125 -274 352q0 109 73 188q73 80 195 98q-115 58 -167 121q-55 66 -55 151q0 106 76 174q77 68 200 68q143 0 230 -108q10 -10 10 -32t-15 -37
q-14 -15 -37 -15q-20 0 -40 20q-64 64 -140 64q-71 0 -115 -37q-45 -38 -45 -99q0 -63 57 -116q51 -48 163 -98q272 -124 272 -354q0 -114 -70 -192q-71 -80 -194 -96q115 -59 168 -123q54 -66 54 -151q0 -108 -78 -177q-79 -71 -204 -71q-140 0 -230 100q-16 16 -16 38
q0 23 15 37zM373 464q61 -60 151 -60q89 0 150 60q62 61 62 154q0 94 -62 155q-61 59 -150 59q-90 0 -151 -59q-63 -61 -63 -155q0 -93 63 -154z" />
    <glyph glyph-name="dieresis" unicode="&#xa8;" horiz-adv-x="806" 
d="M156 1240q-24 24 -24 58q0 33 24 57q24 23 58 23q33 0 58 -23q24 -24 24 -57q0 -34 -24 -58q-25 -24 -58 -24q-34 0 -58 24zM534 1240q-24 24 -24 58q0 33 24 57q24 23 58 23q33 0 58 -23q24 -24 24 -57q0 -34 -24 -58q-25 -24 -58 -24q-34 0 -58 24z" />
    <glyph glyph-name="copyright" unicode="&#xa9;" horiz-adv-x="1676" 
d="M330 1212q211 212 508 212q296 0 507 -212t211 -512t-211 -512t-507 -212q-297 0 -508 212q-212 212 -212 512t212 512zM384 239q189 -191 454 -191q264 0 453 191t189 461t-189 461t-453 191q-266 0 -455 -191t-189 -461q0 -269 190 -461zM593 979q114 111 273 111
q128 0 222 -70q22 -16 22 -42q0 -19 -14 -33q-14 -13 -34 -13q-9 0 -19 4q-8 3 -17 8q-70 52 -158 52q-118 0 -199 -83q-83 -84 -83 -209t83 -209q81 -83 199 -83q93 0 158 50l8 5l8 4q10 5 18 5q21 0 36 -14q14 -14 14 -34q0 -27 -22 -40q-94 -70 -222 -70q-159 0 -273 111
q-115 113 -115 275t115 275z" />
    <glyph glyph-name="ordfeminine" unicode="&#xaa;" horiz-adv-x="892" 
d="M796 750q0 -22 -16 -38q-17 -16 -38 -16q-22 0 -38 16t-16 38v88q-44 -67 -117 -106q-75 -40 -159 -40q-146 0 -250 103q-104 105 -104 255q0 149 104 253q104 103 250 103q84 0 159 -40q73 -39 117 -106v88q0 21 16 38q16 16 38 16q21 0 38 -16q16 -17 16 -38v-598z
M608 1232q-77 76 -182 76q-107 0 -183 -76q-77 -76 -77 -182q0 -108 77 -184q76 -76 183 -76q106 0 182 76q76 77 76 184q0 106 -76 182z" />
    <glyph glyph-name="guillemotleft" unicode="&#xab;" horiz-adv-x="1172" 
d="M594 378q22 -18 22 -42q0 -21 -14 -35q-15 -15 -36 -15q-14 0 -29 11l-13 9l-12 10l-384 288q-12 8 -12 20q0 10 12 18l404 306q20 12 34 12q21 0 36 -14q14 -15 14 -36q0 -19 -14 -34q-6 -6 -15 -12l-15 -12l-310 -228zM1018 378q22 -18 22 -42q0 -21 -14 -35
q-15 -15 -36 -15q-14 0 -29 11l-13 9l-12 10l-382 288q-12 8 -12 20q0 10 12 18l404 306q16 12 32 12q21 0 36 -14q14 -15 14 -36q0 -20 -14 -34q-5 -6 -14 -12l-16 -12l-308 -228z" />
    <glyph glyph-name="logicalnot" unicode="&#xac;" horiz-adv-x="1238" 
d="M970 758h-808q-24 0 -40 16t-16 40q0 23 16 39q16 17 40 17h880q24 0 41 -17t17 -41v-428q0 -27 -19 -45q-20 -19 -47 -19t-45 19q-19 18 -19 45v374z" />
    <glyph glyph-name="uni00AD" unicode="&#xad;" horiz-adv-x="812" 
d="M160 608q-24 0 -40 15t-16 39t16 40t40 16h492q24 0 40 -16t16 -40t-16 -39t-40 -15h-492z" />
    <glyph glyph-name="registered" unicode="&#xae;" horiz-adv-x="1676" 
d="M330 1212q211 212 508 212q296 0 507 -212t211 -512t-211 -512t-507 -212q-297 0 -508 212q-212 212 -212 512t212 512zM384 239q189 -191 454 -191q264 0 453 191t189 461t-189 461t-453 191q-266 0 -455 -191t-189 -461q0 -269 190 -461zM1160 392q10 -10 10 -30
q0 -22 -15 -37q-14 -15 -37 -15q-25 0 -46 28l-260 364l-2 3l-2 4q-2 5 -2 7q0 18 18 18h8q190 0 190 134q0 66 -46 103q-45 35 -122 35h-106v-642q0 -22 -16 -37q-15 -15 -38 -15q-22 0 -37 15t-15 37v680q0 18 12 30q11 12 28 12h174q119 0 190 -59q72 -59 72 -159
q0 -70 -39 -120q-46 -60 -139 -74z" />
    <glyph glyph-name="macron" unicode="&#xaf;" horiz-adv-x="1000" 
d="M970 1340q18 0 31 -12t13 -30q0 -19 -13 -32q-13 -12 -31 -12h-940q-44 0 -44 44q0 42 44 42h940z" />
    <glyph glyph-name="degree" unicode="&#xb0;" horiz-adv-x="822" 
d="M593 985q-75 -75 -183 -75q-107 0 -182 75q-76 75 -76 181q0 108 76 183q75 75 182 75q108 0 183 -75t75 -183q0 -107 -75 -181zM294 1046q47 -48 116 -48q71 0 118 48q48 48 48 120t-48 121t-118 49q-69 0 -116 -49q-48 -49 -48 -121t48 -120z" />
    <glyph glyph-name="plusminus" unicode="&#xb1;" horiz-adv-x="1238" 
d="M200 96q-24 0 -40 16t-16 40t16 40t40 16h836q24 0 40 -16t16 -40t-16 -40t-40 -16h-836zM552 746h-366q-24 0 -39 15t-15 39t16 40t40 16h364v370q0 29 20 48q20 20 48 20q29 0 48 -20q20 -19 20 -48v-370h366q24 0 40 -16t16 -40t-16 -39t-40 -15h-366v-362
q0 -28 -20 -48q-19 -20 -48 -20q-28 0 -48 20t-20 48v362z" />
    <glyph glyph-name="uni00B2" unicode="&#xb2;" 
d="M112 524l322 406q106 133 106 228q0 72 -44 116q-47 46 -126 46q-89 0 -162 -106q-16 -22 -42 -22q-18 0 -31 13q-13 14 -13 33t12 34q105 142 238 142q127 0 201 -75q71 -70 71 -181q0 -123 -122 -276l-248 -304h352q20 0 34 -14t14 -34q0 -19 -14 -33q-14 -13 -34 -13
h-496q-24 0 -24 22q0 12 6 18z" />
    <glyph glyph-name="uni00B3" unicode="&#xb3;" 
d="M136 1386q13 14 34 14h430q12 0 21 -9t9 -21q0 -6 -8 -22l-102 -157l-102 -159q121 -32 183 -109q59 -72 59 -175q0 -116 -77 -197q-87 -91 -231 -91q-161 0 -260 130q-14 18 -14 36q0 20 15 34q14 14 35 14q27 0 40 -20q74 -98 184 -98q88 0 144 56q56 55 56 140
q0 89 -62 145q-65 58 -180 65h-6q-24 3 -24 26q0 8 24 44l178 272h-312q-21 0 -34 14q-14 13 -14 34q0 20 14 34z" />
    <glyph glyph-name="acute" unicode="&#xb4;" horiz-adv-x="806" 
d="M560 1380l-250 -236q-16 -16 -36 -16t-35 14t-15 34t20 40l242 232q22 22 46 22q20 0 35 -13q15 -15 15 -35q0 -23 -22 -42z" />
    <glyph glyph-name="mu" unicode="&#xb5;" horiz-adv-x="1158" 
d="M158 886q0 26 19 45q18 19 45 19q25 0 44 -19q18 -19 18 -45v-508q0 -127 90 -208q85 -78 208 -78q119 0 205 85q87 86 87 205v504q0 26 18 45q19 19 44 19q26 0 45 -19t19 -45v-838q0 -25 -19 -44q-19 -18 -45 -18q-25 0 -44 18q-18 19 -18 44v98q-48 -80 -128 -125
q-81 -45 -178 -45q-85 0 -160 39q-76 38 -124 107v-460q0 -25 -18 -44q-18 -18 -44 -18q-27 0 -45 18q-19 18 -19 44v1224z" />
    <glyph glyph-name="paragraph" unicode="&#xb6;" horiz-adv-x="1152" 
d="M624 612h-60q-200 0 -328 98q-140 108 -140 298t134 295q123 97 322 97h342q23 0 38 -16q16 -15 16 -38v-1568q0 -22 -16 -38q-17 -16 -38 -16q-22 0 -38 16t-16 38v1516h-108v-1516q0 -22 -16 -38q-17 -16 -38 -16q-22 0 -38 16t-16 38v834z" />
    <glyph glyph-name="periodcentered" unicode="&#xb7;" horiz-adv-x="594" 
d="M228 698q28 28 68 28q41 0 68 -28q28 -27 28 -68q0 -40 -28 -68q-27 -28 -68 -28q-40 0 -68 28t-28 68q0 41 28 68z" />
    <glyph glyph-name="cedilla" unicode="&#xb8;" horiz-adv-x="806" 
d="M208 -350q17 0 32 -12q50 -30 94 -30q63 0 99 36q31 32 31 80q0 55 -46 92q-46 35 -116 40q-18 4 -18 18q0 10 2 14l60 116h96l-48 -90q85 -23 131 -77q43 -50 43 -115q0 -77 -52 -132q-62 -66 -176 -66q-53 0 -106 22q-62 26 -62 60q0 44 36 44z" />
    <glyph glyph-name="uni00B9" unicode="&#xb9;" 
d="M186 1264q55 31 131 76l131 78q9 6 20 6q32 0 32 -32v-870q0 -22 -16 -37t-38 -15q-23 0 -38 15q-16 15 -16 37v752l-166 -96q-9 -6 -22 -6q-19 0 -33 14q-13 14 -13 34q0 27 28 44z" />
    <glyph glyph-name="ordmasculine" unicode="&#xba;" horiz-adv-x="896" 
d="M699 814q-106 -102 -251 -102q-146 0 -253 102q-107 103 -107 248q0 143 107 247q107 103 253 103q145 0 251 -103q107 -104 107 -247q0 -144 -107 -248zM269 884q73 -74 179 -74q105 0 179 74q73 73 73 178q0 104 -73 178q-74 74 -179 74q-106 0 -179 -74t-73 -178
q0 -105 73 -178z" />
    <glyph glyph-name="guillemotright" unicode="&#xbb;" horiz-adv-x="1172" 
d="M906 624l-308 228l-16 12q-9 6 -14 12q-14 14 -14 34q0 21 15 36q14 14 35 14q16 0 32 -12l404 -306q12 -8 12 -18q0 -12 -12 -20l-382 -288l-12 -10l-13 -9q-15 -11 -29 -11q-21 0 -35 15q-15 14 -15 35q0 24 22 42zM482 624l-310 228l-15 12q-9 6 -14 12q-15 15 -15 34
q0 21 15 36q14 14 35 14q14 0 34 -12l404 -306q12 -8 12 -18q0 -12 -12 -20l-384 -288l-12 -10l-13 -9q-15 -11 -29 -11q-21 0 -35 15q-15 14 -15 35q0 24 22 42z" />
    <glyph glyph-name="onequarter" unicode="&#xbc;" horiz-adv-x="1914" 
d="M1234 1388q14 28 42 28q19 0 34 -14q14 -14 14 -32q0 -12 -6 -24l-718 -1344q-14 -28 -42 -28q-19 0 -34 14q-14 14 -14 32q0 12 6 24zM186 1264q55 31 131 76l131 78q9 6 20 6q32 0 32 -32v-870q0 -22 -16 -37t-38 -15q-23 0 -38 15q-16 15 -16 37v752l-166 -96
q-9 -6 -22 -6q-19 0 -33 14q-13 14 -13 34q0 27 28 44zM1116 240l486 692q12 20 30 20q13 0 23 -10q9 -10 9 -24v-630h74q19 0 33 -14q13 -14 13 -34q0 -19 -13 -33q-13 -13 -33 -13h-74v-144q0 -22 -15 -37q-16 -15 -37 -15t-36 15q-16 15 -16 37v144h-424q-26 0 -26 26
q0 14 6 20zM1560 288v444l-304 -444h304z" />
    <glyph glyph-name="onehalf" unicode="&#xbd;" horiz-adv-x="1914" 
d="M1234 1388q14 28 42 28q19 0 34 -14q14 -14 14 -32q0 -12 -6 -24l-718 -1344q-14 -28 -42 -28q-19 0 -34 14q-14 14 -14 32q0 12 6 24zM186 1264q55 31 131 76l131 78q9 6 20 6q32 0 32 -32v-870q0 -22 -16 -37t-38 -15q-23 0 -38 15q-16 15 -16 37v752l-166 -96
q-9 -6 -22 -6q-19 0 -33 14q-13 14 -13 34q0 27 28 44zM1204 50l322 406q106 133 106 228q0 72 -44 116q-47 46 -126 46q-89 0 -162 -106q-16 -22 -42 -22q-18 0 -31 13q-13 14 -13 33t12 34q105 142 238 142q127 0 201 -75q71 -70 71 -181q0 -123 -122 -276l-248 -304h352
q20 0 34 -14t14 -34q0 -19 -14 -33q-14 -13 -34 -13h-496q-24 0 -24 22q0 12 6 18z" />
    <glyph glyph-name="threequarters" unicode="&#xbe;" horiz-adv-x="1914" 
d="M1234 1388q14 28 42 28q19 0 34 -14q14 -14 14 -32q0 -12 -6 -24l-718 -1344q-14 -28 -42 -28q-19 0 -34 14q-14 14 -14 32q0 12 6 24zM1116 238l486 692q12 20 30 20q13 0 23 -10q9 -10 9 -24v-630h74q19 0 33 -14q13 -14 13 -34q0 -19 -13 -33q-13 -13 -33 -13h-74
v-144q0 -22 -15 -37q-16 -15 -37 -15t-36 15q-16 15 -16 37v144h-424q-26 0 -26 26q0 14 6 20zM1560 286v444l-304 -444h304zM136 1386q13 14 34 14h430q12 0 21 -9t9 -21q0 -6 -8 -22l-102 -157l-102 -159q121 -32 183 -109q59 -72 59 -175q0 -116 -77 -197
q-87 -91 -231 -91q-161 0 -260 130q-14 18 -14 36q0 20 15 34q14 14 35 14q27 0 40 -20q74 -98 184 -98q88 0 144 56q56 55 56 140q0 89 -62 145q-65 58 -180 65h-6q-24 3 -24 26q0 8 24 44l178 272h-312q-21 0 -34 14q-14 13 -14 34q0 20 14 34z" />
    <glyph glyph-name="questiondown" unicode="&#xbf;" horiz-adv-x="986" 
d="M848 -340q-166 -156 -360 -156q-175 0 -285 89q-109 89 -109 229q0 234 330 382q86 38 125 76q43 41 43 96q0 51 -35 81q-33 29 -83 29q-37 0 -82 -26l-7 -3l-7 -3q-9 -4 -16 -4q-22 0 -37 15q-15 14 -15 35q0 25 20 42q64 52 158 52q101 0 167 -59q67 -60 67 -151
q0 -77 -50 -144q-54 -73 -154 -116q-151 -66 -221 -136q-73 -73 -73 -166q0 -90 69 -145q72 -59 197 -59q75 0 150 35q75 34 128 91q19 22 44 22q24 0 41 -17t17 -41q0 -29 -22 -48zM578 788q-27 -28 -68 -28q-40 0 -68 28t-28 68q0 41 28 68q28 28 68 28q41 0 68 -28
q28 -27 28 -68q0 -40 -28 -68z" />
    <glyph glyph-name="Agrave" unicode="&#xc0;" horiz-adv-x="1274" 
d="M676 1386l538 -1306q8 -20 8 -30q0 -28 -19 -46q-18 -18 -43 -18q-44 0 -62 42l-136 338h-652l-136 -338q-17 -44 -60 -44q-26 0 -45 19q-19 18 -19 45q0 8 8 32l538 1306q11 28 40 28q28 0 40 -28zM356 480h560q-53 129 -140 346l-140 348zM407 1866q14 14 35 14
q20 0 36 -16l250 -240q20 -20 20 -40q0 -21 -14 -35q-15 -15 -36 -15q-18 0 -36 14l-254 244q-16 16 -16 38q0 21 15 36z" />
    <glyph glyph-name="Aacute" unicode="&#xc1;" horiz-adv-x="1274" 
d="M676 1386l538 -1306q8 -20 8 -30q0 -28 -19 -46q-18 -18 -43 -18q-44 0 -62 42l-136 338h-652l-136 -338q-17 -44 -60 -44q-26 0 -45 19q-19 18 -19 45q0 8 8 32l538 1306q11 28 40 28q28 0 40 -28zM356 480h560q-53 129 -140 346l-140 348zM884 1788l-250 -236
q-16 -16 -36 -16t-35 14t-15 34t20 40l242 232q22 22 46 22q20 0 35 -13q15 -15 15 -35q0 -23 -22 -42z" />
    <glyph glyph-name="Acircumflex" unicode="&#xc2;" horiz-adv-x="1274" 
d="M676 1386l538 -1306q8 -20 8 -30q0 -28 -19 -46q-18 -18 -43 -18q-44 0 -62 42l-136 338h-652l-136 -338q-17 -44 -60 -44q-26 0 -45 19q-19 18 -19 45q0 8 8 32l538 1306q11 28 40 28q28 0 40 -28zM356 480h560q-53 129 -140 346l-140 348zM438 1552q-16 -16 -38 -16
q-21 0 -34 14q-14 13 -14 34q0 24 18 42l240 236q6 6 12 9q7 5 14 5q8 0 16 -5l6 -4l6 -5l240 -238q18 -18 18 -40q0 -21 -13 -34q-14 -14 -35 -14q-20 0 -38 14l-200 200z" />
    <glyph glyph-name="Atilde" unicode="&#xc3;" horiz-adv-x="1274" 
d="M676 1386l538 -1306q8 -20 8 -30q0 -28 -19 -46q-18 -18 -43 -18q-44 0 -62 42l-136 338h-652l-136 -338q-17 -44 -60 -44q-26 0 -45 19q-19 18 -19 45q0 8 8 32l538 1306q11 28 40 28q28 0 40 -28zM356 480h560q-53 129 -140 346l-140 348zM644 1758l14 -13l13 -11
q15 -13 26 -21q29 -19 61 -19q50 0 78 50l10 18q6 10 11 16q15 16 37 16q19 0 34 -12q16 -14 16 -34q0 -10 -4 -22q-18 -60 -66 -97q-46 -35 -102 -35q-78 0 -136 52l-17 14l-16 13q-18 15 -29 22q-30 21 -60 21q-50 0 -77 -51l-10 -19q-5 -10 -11 -16q-14 -16 -36 -16
q-19 0 -34 13q-16 13 -16 33q0 16 2 24q19 60 67 97q46 35 103 35q77 0 142 -58z" />
    <glyph glyph-name="Adieresis" unicode="&#xc4;" horiz-adv-x="1274" 
d="M676 1386l538 -1306q8 -20 8 -30q0 -28 -19 -46q-18 -18 -43 -18q-44 0 -62 42l-136 338h-652l-136 -338q-17 -44 -60 -44q-26 0 -45 19q-19 18 -19 45q0 8 8 32l538 1306q11 28 40 28q28 0 40 -28zM356 480h560q-53 129 -140 346l-140 348zM390 1648q-24 24 -24 58
q0 33 24 57q24 23 58 23q33 0 58 -23q24 -24 24 -57q0 -34 -24 -58q-25 -24 -58 -24q-34 0 -58 24zM768 1648q-24 24 -24 58q0 33 24 57q24 23 58 23q33 0 58 -23q24 -24 24 -57q0 -34 -24 -58q-25 -24 -58 -24q-34 0 -58 24z" />
    <glyph glyph-name="Aring" unicode="&#xc5;" horiz-adv-x="1274" 
d="M676 1386l538 -1306q8 -20 8 -30q0 -28 -19 -46q-18 -18 -43 -18q-44 0 -62 42l-136 338h-652l-136 -338q-17 -44 -60 -44q-26 0 -45 19q-19 18 -19 45q0 8 8 32l538 1306q11 28 40 28q28 0 40 -28zM356 480h560q-53 129 -140 346l-140 348zM500 1841q56 53 136 53
t137 -53q57 -55 57 -135t-57 -134t-137 -54t-136 54t-56 134t56 135zM558 1628q32 -32 78 -32q47 0 78 32q32 32 32 78q0 45 -32 78q-32 32 -78 32t-78 -32q-32 -33 -32 -78q0 -46 32 -78z" />
    <glyph glyph-name="AE" unicode="&#xc6;" horiz-adv-x="1640" 
d="M860 352h-490l-188 -326q-20 -40 -60 -40q-27 0 -45 18q-19 17 -19 44q0 17 16 46l734 1270q20 36 62 36h600q27 0 46 -19q18 -19 18 -45q0 -27 -18 -45q-19 -19 -46 -19h-476v-426h426q26 0 44 -18t18 -44q0 -25 -18 -44q-18 -18 -44 -18h-426v-594h496q27 0 46 -19
q18 -19 18 -45q0 -27 -18 -45q-19 -19 -46 -19h-566q-27 0 -45 19q-19 18 -19 45v288zM860 1206l-428 -744h428v744z" />
    <glyph glyph-name="Ccedilla" unicode="&#xc7;" horiz-adv-x="1438" 
d="M591 -364q12 12 29 12q12 0 28 -8q45 -32 92 -32q54 0 89 37q33 35 33 83q0 50 -47 88q-46 37 -107 40q-18 0 -18 18q0 6 4 14l46 94q-269 35 -448 235q-182 203 -182 483q0 304 215 511q212 203 517 203q272 0 484 -180q20 -17 20 -48q0 -26 -19 -46q-20 -20 -45 -20
t-44 16q-182 150 -396 150q-249 0 -421 -165q-175 -169 -175 -421q0 -254 175 -426q173 -170 421 -170q229 0 396 148q19 16 42 16q27 0 47 -19q19 -20 19 -47q0 -29 -22 -48q-206 -178 -492 -178l-32 -62q85 -23 131 -77q43 -50 43 -115q0 -77 -52 -132q-62 -66 -176 -66
q-58 0 -110 23q-58 25 -58 59q0 18 13 30z" />
    <glyph glyph-name="Egrave" unicode="&#xc8;" horiz-adv-x="958" 
d="M176 1334q0 27 20 47q19 19 46 19h534q26 0 45 -19t19 -45q0 -27 -19 -45q-19 -19 -45 -19h-464v-428h414q26 0 44 -18t18 -44q0 -25 -18 -44q-18 -18 -44 -18h-414v-592h484q26 0 45 -19t19 -45q0 -27 -19 -45q-19 -19 -45 -19h-554q-27 0 -46 19q-20 18 -20 45v1270z
M327 1866q14 14 35 14q20 0 36 -16l250 -240q20 -20 20 -40q0 -21 -14 -35q-15 -15 -36 -15q-18 0 -36 14l-254 244q-16 16 -16 38q0 21 15 36z" />
    <glyph glyph-name="Eacute" unicode="&#xc9;" horiz-adv-x="958" 
d="M176 1334q0 27 20 47q19 19 46 19h534q26 0 45 -19t19 -45q0 -27 -19 -45q-19 -19 -45 -19h-464v-428h414q26 0 44 -18t18 -44q0 -25 -18 -44q-18 -18 -44 -18h-414v-592h484q26 0 45 -19t19 -45q0 -27 -19 -45q-19 -19 -45 -19h-554q-27 0 -46 19q-20 18 -20 45v1270z
M664 1788l-250 -236q-16 -16 -36 -16t-35 14t-15 34t20 40l242 232q22 22 46 22q20 0 35 -13q15 -15 15 -35q0 -23 -22 -42z" />
    <glyph glyph-name="Ecircumflex" unicode="&#xca;" horiz-adv-x="958" 
d="M176 1334q0 27 20 47q19 19 46 19h534q26 0 45 -19t19 -45q0 -27 -19 -45q-19 -19 -45 -19h-464v-428h414q26 0 44 -18t18 -44q0 -25 -18 -44q-18 -18 -44 -18h-414v-592h484q26 0 45 -19t19 -45q0 -27 -19 -45q-19 -19 -45 -19h-554q-27 0 -46 19q-20 18 -20 45v1270z
M300 1552q-16 -16 -38 -16q-21 0 -34 14q-14 13 -14 34q0 24 18 42l240 236q6 6 12 9q7 5 14 5q8 0 16 -5l6 -4l6 -5l240 -238q18 -18 18 -40q0 -21 -13 -34q-14 -14 -35 -14q-20 0 -38 14l-200 200z" />
    <glyph glyph-name="Edieresis" unicode="&#xcb;" horiz-adv-x="958" 
d="M176 1334q0 27 20 47q19 19 46 19h534q26 0 45 -19t19 -45q0 -27 -19 -45q-19 -19 -45 -19h-464v-428h414q26 0 44 -18t18 -44q0 -25 -18 -44q-18 -18 -44 -18h-414v-592h484q26 0 45 -19t19 -45q0 -27 -19 -45q-19 -19 -45 -19h-554q-27 0 -46 19q-20 18 -20 45v1270z
M250 1648q-24 24 -24 58q0 33 24 57q24 23 58 23q33 0 58 -23q24 -24 24 -57q0 -34 -24 -58q-25 -24 -58 -24q-34 0 -58 24zM628 1648q-24 24 -24 58q0 33 24 57q24 23 58 23q33 0 58 -23q24 -24 24 -57q0 -34 -24 -58q-25 -24 -58 -24q-34 0 -58 24z" />
    <glyph glyph-name="Igrave" unicode="&#xcc;" horiz-adv-x="534" 
d="M334 54q0 -28 -20 -48q-19 -20 -48 -20q-28 0 -48 20t-20 48v1292q0 27 20 48q20 20 48 20t48 -20q20 -21 20 -48v-1292zM15 1866q14 14 35 14q20 0 36 -16l250 -240q20 -20 20 -40q0 -21 -14 -35q-15 -15 -36 -15q-18 0 -36 14l-254 244q-16 16 -16 38q0 21 15 36z" />
    <glyph glyph-name="Iacute" unicode="&#xcd;" horiz-adv-x="534" 
d="M334 54q0 -28 -20 -48q-19 -20 -48 -20q-28 0 -48 20t-20 48v1292q0 27 20 48q20 20 48 20t48 -20q20 -21 20 -48v-1292zM510 1788l-250 -236q-16 -16 -36 -16t-35 14t-15 34t20 40l242 232q22 22 46 22q20 0 35 -13q15 -15 15 -35q0 -23 -22 -42z" />
    <glyph glyph-name="Icircumflex" unicode="&#xce;" horiz-adv-x="534" 
d="M334 54q0 -28 -20 -48q-19 -20 -48 -20q-28 0 -48 20t-20 48v1292q0 27 20 48q20 20 48 20t48 -20q20 -21 20 -48v-1292zM68 1552q-16 -16 -38 -16q-21 0 -34 14q-14 13 -14 34q0 24 18 42l240 236q6 6 12 9q7 5 14 5q8 0 16 -5l6 -4l6 -5l240 -238q18 -18 18 -40
q0 -21 -13 -34q-14 -14 -35 -14q-20 0 -38 14l-200 200z" />
    <glyph glyph-name="Idieresis" unicode="&#xcf;" horiz-adv-x="534" 
d="M334 54q0 -28 -20 -48q-19 -20 -48 -20q-28 0 -48 20t-20 48v1292q0 27 20 48q20 20 48 20t48 -20q20 -21 20 -48v-1292zM20 1648q-24 24 -24 58q0 33 24 57q24 23 58 23q33 0 58 -23q24 -24 24 -57q0 -34 -24 -58q-25 -24 -58 -24q-34 0 -58 24zM398 1648q-24 24 -24 58
q0 33 24 57q24 23 58 23q33 0 58 -23q24 -24 24 -57q0 -34 -24 -58q-25 -24 -58 -24q-34 0 -58 24z" />
    <glyph glyph-name="Eth" unicode="&#xd0;" horiz-adv-x="1362" 
d="M21 734q14 14 35 14h110v592q0 24 17 42q18 18 43 18h304q308 0 512 -191q210 -197 210 -509t-210 -509q-204 -191 -512 -191h-304q-25 0 -43 17q-17 18 -17 43v588h-110q-21 0 -35 14q-15 14 -15 36q0 21 15 36zM302 128h228q256 0 419 155q167 158 167 417t-167 417
q-163 155 -419 155h-228v-524h326q21 0 36 -14q14 -15 14 -36q0 -22 -14 -36q-15 -14 -36 -14h-326v-520z" />
    <glyph glyph-name="Ntilde" unicode="&#xd1;" horiz-adv-x="1460" 
d="M1148 264v1082q0 27 20 48q20 20 48 20q27 0 48 -20q20 -21 20 -48v-1334q0 -15 -11 -25q-12 -11 -27 -11q-17 0 -30 16l-904 1144v-1082q0 -28 -20 -48q-19 -20 -48 -20q-28 0 -48 20t-20 48v1332q0 15 11 26q10 10 25 10q20 0 30 -14zM736 1758l14 -13l13 -11
q15 -13 26 -21q29 -19 61 -19q50 0 78 50l10 18q6 10 11 16q15 16 37 16q19 0 34 -12q16 -14 16 -34q0 -10 -4 -22q-18 -60 -66 -97q-46 -35 -102 -35q-78 0 -136 52l-17 14l-16 13q-18 15 -29 22q-30 21 -60 21q-50 0 -77 -51l-10 -19q-5 -10 -11 -16q-14 -16 -36 -16
q-19 0 -34 13q-16 13 -16 33q0 16 2 24q19 60 67 97q46 35 103 35q77 0 142 -58z" />
    <glyph glyph-name="Ograve" unicode="&#xd2;" horiz-adv-x="1684" 
d="M421 279q171 -165 421 -165q248 0 420 165q176 168 176 421q0 252 -176 421q-172 165 -420 165q-249 0 -421 -165q-175 -169 -175 -421q0 -253 175 -421zM325 1211q212 203 517 203q304 0 516 -203q216 -207 216 -511q0 -305 -216 -511q-212 -203 -516 -203
q-305 0 -517 203q-215 205 -215 511q0 304 215 511zM619 1866q14 14 35 14q20 0 36 -16l250 -240q20 -20 20 -40q0 -21 -14 -35q-15 -15 -36 -15q-18 0 -36 14l-254 244q-16 16 -16 38q0 21 15 36z" />
    <glyph glyph-name="Oacute" unicode="&#xd3;" horiz-adv-x="1684" 
d="M421 279q171 -165 421 -165q248 0 420 165q176 168 176 421q0 252 -176 421q-172 165 -420 165q-249 0 -421 -165q-175 -169 -175 -421q0 -253 175 -421zM325 1211q212 203 517 203q304 0 516 -203q216 -207 216 -511q0 -305 -216 -511q-212 -203 -516 -203
q-305 0 -517 203q-215 205 -215 511q0 304 215 511zM1056 1788l-250 -236q-16 -16 -36 -16t-35 14t-15 34t20 40l242 232q22 22 46 22q20 0 35 -13q15 -15 15 -35q0 -23 -22 -42z" />
    <glyph glyph-name="Ocircumflex" unicode="&#xd4;" horiz-adv-x="1684" 
d="M421 279q171 -165 421 -165q248 0 420 165q176 168 176 421q0 252 -176 421q-172 165 -420 165q-249 0 -421 -165q-175 -169 -175 -421q0 -253 175 -421zM325 1211q212 203 517 203q304 0 516 -203q216 -207 216 -511q0 -305 -216 -511q-212 -203 -516 -203
q-305 0 -517 203q-215 205 -215 511q0 304 215 511zM642 1552q-16 -16 -38 -16q-21 0 -34 14q-14 13 -14 34q0 24 18 42l240 236q6 6 12 9q7 5 14 5q8 0 16 -5l6 -4l6 -5l240 -238q18 -18 18 -40q0 -21 -13 -34q-14 -14 -35 -14q-20 0 -38 14l-200 200z" />
    <glyph glyph-name="Otilde" unicode="&#xd5;" horiz-adv-x="1684" 
d="M421 279q171 -165 421 -165q248 0 420 165q176 168 176 421q0 252 -176 421q-172 165 -420 165q-249 0 -421 -165q-175 -169 -175 -421q0 -253 175 -421zM325 1211q212 203 517 203q304 0 516 -203q216 -207 216 -511q0 -305 -216 -511q-212 -203 -516 -203
q-305 0 -517 203q-215 205 -215 511q0 304 215 511zM848 1758l14 -13l13 -11q15 -13 26 -21q29 -19 61 -19q50 0 78 50l10 18q6 10 11 16q15 16 37 16q19 0 34 -12q16 -14 16 -34q0 -10 -4 -22q-18 -60 -66 -97q-46 -35 -102 -35q-78 0 -136 52l-17 14l-16 13q-18 15 -29 22
q-30 21 -60 21q-50 0 -77 -51l-10 -19q-5 -10 -11 -16q-14 -16 -36 -16q-19 0 -34 13q-16 13 -16 33q0 16 2 24q19 60 67 97q46 35 103 35q77 0 142 -58z" />
    <glyph glyph-name="Odieresis" unicode="&#xd6;" horiz-adv-x="1684" 
d="M421 279q171 -165 421 -165q248 0 420 165q176 168 176 421q0 252 -176 421q-172 165 -420 165q-249 0 -421 -165q-175 -169 -175 -421q0 -253 175 -421zM325 1211q212 203 517 203q304 0 516 -203q216 -207 216 -511q0 -305 -216 -511q-212 -203 -516 -203
q-305 0 -517 203q-215 205 -215 511q0 304 215 511zM594 1648q-24 24 -24 58q0 33 24 57q24 23 58 23q33 0 58 -23q24 -24 24 -57q0 -34 -24 -58q-25 -24 -58 -24q-34 0 -58 24zM972 1648q-24 24 -24 58q0 33 24 57q24 23 58 23q33 0 58 -23q24 -24 24 -57q0 -34 -24 -58
q-25 -24 -58 -24q-34 0 -58 24z" />
    <glyph glyph-name="multiply" unicode="&#xd7;" horiz-adv-x="1266" 
d="M544 680l-280 280l-14 14q-8 9 -13 16q-13 19 -13 38q0 26 17 44q18 18 43 18q26 0 46 -20l304 -302l280 280l14 14q8 8 16 13q18 13 38 13q26 0 44 -17q18 -18 18 -43q0 -29 -18 -44l-304 -304l282 -282l13 -14l13 -15q14 -18 14 -35q0 -29 -17 -47q-17 -19 -45 -19
q-26 0 -46 20l-302 302l-282 -280q-40 -40 -68 -40q-26 0 -44 17q-18 18 -18 43q0 29 18 44z" />
    <glyph glyph-name="Oslash" unicode="&#xd8;" horiz-adv-x="1684" 
d="M325 1216q213 208 517 208q166 0 316 -72l122 210q14 28 44 28q21 0 36 -14q14 -14 14 -34q0 -19 -10 -32l-120 -206q152 -101 239 -254q91 -162 91 -352q0 -305 -216 -516q-213 -208 -516 -208q-172 0 -318 70l-118 -206q-17 -28 -46 -28q-21 0 -34 15q-14 14 -14 35
q0 14 8 30l116 202q-150 98 -236 254q-90 162 -90 352q0 307 215 518zM316 413q67 -125 186 -207l295 516l297 516q-126 58 -252 58q-248 0 -421 -171q-175 -173 -175 -427q0 -154 70 -285zM1262 273q176 172 176 425q0 156 -70 287q-68 125 -188 205l-592 -1032
q115 -56 254 -56q247 0 420 171z" />
    <glyph glyph-name="Ugrave" unicode="&#xd9;" horiz-adv-x="1282" 
d="M879 212q91 102 91 280v854q0 27 20 48q19 20 46 20q28 0 48 -20q20 -21 20 -48v-856q0 -232 -137 -372q-129 -132 -327 -132t-327 132q-137 140 -137 372v856q0 27 20 48q20 20 48 20q27 0 48 -20q20 -21 20 -48v-854q0 -178 91 -280q89 -98 237 -98q150 0 239 98z
M439 1866q14 14 35 14q20 0 36 -16l250 -240q20 -20 20 -40q0 -21 -14 -35q-15 -15 -36 -15q-18 0 -36 14l-254 244q-16 16 -16 38q0 21 15 36z" />
    <glyph glyph-name="Uacute" unicode="&#xda;" horiz-adv-x="1282" 
d="M879 212q91 102 91 280v854q0 27 20 48q19 20 46 20q28 0 48 -20q20 -21 20 -48v-856q0 -232 -137 -372q-129 -132 -327 -132t-327 132q-137 140 -137 372v856q0 27 20 48q20 20 48 20q27 0 48 -20q20 -21 20 -48v-854q0 -178 91 -280q89 -98 237 -98q150 0 239 98z
M856 1788l-250 -236q-16 -16 -36 -16t-35 14t-15 34t20 40l242 232q22 22 46 22q20 0 35 -13q15 -15 15 -35q0 -23 -22 -42z" />
    <glyph glyph-name="Ucircumflex" unicode="&#xdb;" horiz-adv-x="1282" 
d="M879 212q91 102 91 280v854q0 27 20 48q19 20 46 20q28 0 48 -20q20 -21 20 -48v-856q0 -232 -137 -372q-129 -132 -327 -132t-327 132q-137 140 -137 372v856q0 27 20 48q20 20 48 20q27 0 48 -20q20 -21 20 -48v-854q0 -178 91 -280q89 -98 237 -98q150 0 239 98z
M452 1552q-16 -16 -38 -16q-21 0 -34 14q-14 13 -14 34q0 24 18 42l240 236q6 6 12 9q7 5 14 5q8 0 16 -5l6 -4l6 -5l240 -238q18 -18 18 -40q0 -21 -13 -34q-14 -14 -35 -14q-20 0 -38 14l-200 200z" />
    <glyph glyph-name="Udieresis" unicode="&#xdc;" horiz-adv-x="1282" 
d="M879 212q91 102 91 280v854q0 27 20 48q19 20 46 20q28 0 48 -20q20 -21 20 -48v-856q0 -232 -137 -372q-129 -132 -327 -132t-327 132q-137 140 -137 372v856q0 27 20 48q20 20 48 20q27 0 48 -20q20 -21 20 -48v-854q0 -178 91 -280q89 -98 237 -98q150 0 239 98z
M394 1648q-24 24 -24 58q0 33 24 57q24 23 58 23q33 0 58 -23q24 -24 24 -57q0 -34 -24 -58q-25 -24 -58 -24q-34 0 -58 24zM772 1648q-24 24 -24 58q0 33 24 57q24 23 58 23q33 0 58 -23q24 -24 24 -57q0 -34 -24 -58q-25 -24 -58 -24q-34 0 -58 24z" />
    <glyph glyph-name="Yacute" unicode="&#xdd;" horiz-adv-x="1190" 
d="M546 6q-20 20 -20 48v514l-468 740q-10 17 -10 36q0 29 21 49q21 21 49 21q32 0 64 -44l412 -670l414 670q26 44 62 44q29 0 49 -21q21 -20 21 -49q0 -21 -10 -34l-468 -742v-514q0 -28 -20 -48q-19 -20 -48 -20q-28 0 -48 20zM832 1788l-250 -236q-16 -16 -36 -16
t-35 14t-15 34t20 40l242 232q22 22 46 22q20 0 35 -13q15 -15 15 -35q0 -23 -22 -42z" />
    <glyph glyph-name="Thorn" unicode="&#xde;" horiz-adv-x="1022" 
d="M312 54q0 -27 -20 -46q-20 -20 -48 -20t-48 20q-20 19 -20 46v1304q0 27 20 48q20 20 48 20t48 -20q20 -21 20 -48v-232h166q214 0 343 -120q123 -115 123 -292t-123 -291q-129 -121 -343 -121h-166v-248zM312 426h162q151 0 242 78q92 79 92 210t-92 210q-91 78 -242 78
h-162v-576z" />
    <glyph glyph-name="germandbls" unicode="&#xdf;" horiz-adv-x="1144" 
d="M431 118q16 16 39 16q12 0 24 -6q61 -32 134 -32q132 0 212 85t80 227q0 141 -97 233q-100 95 -275 111q-20 1 -33 18q-13 16 -13 36q0 44 40 54q113 26 180 98q68 72 68 172q0 107 -71 181q-75 77 -189 77q-126 0 -195 -87q-63 -79 -63 -211v-1042q0 -25 -19 -44
q-19 -18 -45 -18q-25 0 -44 18q-18 19 -18 44v1032q0 191 103 305q104 115 281 115q162 0 272 -109q106 -106 106 -253q0 -240 -246 -326q177 -22 282 -135q102 -109 102 -265q0 -189 -109 -304q-114 -122 -313 -122q-73 0 -133 20q-77 25 -77 70q0 25 17 42z" />
    <glyph glyph-name="agrave" unicode="&#xe0;" horiz-adv-x="1280" 
d="M988 886q0 26 18 45q19 19 44 19q26 0 45 -19t19 -45v-838q0 -25 -19 -44q-19 -18 -45 -18q-25 0 -44 18q-18 19 -18 44v158q-59 -107 -166 -165q-104 -55 -236 -55q-203 0 -344 136q-144 139 -144 346t144 346q141 136 344 136q131 0 236 -56q108 -58 166 -164v156z
M872 733q-110 105 -268 105q-159 0 -270 -105q-112 -106 -112 -265q0 -160 112 -267q110 -105 270 -105q158 0 268 105q112 107 112 267q0 159 -112 265zM457 1418q14 14 35 14q20 0 36 -16l250 -240q20 -20 20 -40q0 -21 -14 -35q-15 -15 -36 -15q-18 0 -36 14l-254 244
q-16 16 -16 38q0 21 15 36z" />
    <glyph glyph-name="aacute" unicode="&#xe1;" horiz-adv-x="1280" 
d="M988 886q0 26 18 45q19 19 44 19q26 0 45 -19t19 -45v-838q0 -25 -19 -44q-19 -18 -45 -18q-25 0 -44 18q-18 19 -18 44v158q-59 -107 -166 -165q-104 -55 -236 -55q-203 0 -344 136q-144 139 -144 346t144 346q141 136 344 136q131 0 236 -56q108 -58 166 -164v156z
M872 733q-110 105 -268 105q-159 0 -270 -105q-112 -106 -112 -265q0 -160 112 -267q110 -105 270 -105q158 0 268 105q112 107 112 267q0 159 -112 265zM798 1340l-250 -236q-16 -16 -36 -16t-35 14t-15 34t20 40l242 232q22 22 46 22q20 0 35 -13q15 -15 15 -35
q0 -23 -22 -42z" />
    <glyph glyph-name="acircumflex" unicode="&#xe2;" horiz-adv-x="1280" 
d="M988 886q0 26 18 45q19 19 44 19q26 0 45 -19t19 -45v-838q0 -25 -19 -44q-19 -18 -45 -18q-25 0 -44 18q-18 19 -18 44v158q-59 -107 -166 -165q-104 -55 -236 -55q-203 0 -344 136q-144 139 -144 346t144 346q141 136 344 136q131 0 236 -56q108 -58 166 -164v156z
M872 733q-110 105 -268 105q-159 0 -270 -105q-112 -106 -112 -265q0 -160 112 -267q110 -105 270 -105q158 0 268 105q112 107 112 267q0 159 -112 265zM440 1104q-16 -16 -38 -16q-21 0 -34 14q-14 13 -14 34q0 24 18 42l240 236q6 6 12 9q7 5 14 5q8 0 16 -5l6 -4l6 -5
l240 -238q18 -18 18 -40q0 -21 -13 -34q-14 -14 -35 -14q-20 0 -38 14l-200 200z" />
    <glyph glyph-name="atilde" unicode="&#xe3;" horiz-adv-x="1280" 
d="M988 886q0 26 18 45q19 19 44 19q26 0 45 -19t19 -45v-838q0 -25 -19 -44q-19 -18 -45 -18q-25 0 -44 18q-18 19 -18 44v158q-59 -107 -166 -165q-104 -55 -236 -55q-203 0 -344 136q-144 139 -144 346t144 346q141 136 344 136q131 0 236 -56q108 -58 166 -164v156z
M872 733q-110 105 -268 105q-159 0 -270 -105q-112 -106 -112 -265q0 -160 112 -267q110 -105 270 -105q158 0 268 105q112 107 112 267q0 159 -112 265zM646 1310l14 -13l13 -11q15 -13 26 -21q29 -19 61 -19q50 0 78 50l10 18q6 10 11 16q15 16 37 16q19 0 34 -12
q16 -14 16 -34q0 -10 -4 -22q-18 -60 -66 -97q-46 -35 -102 -35q-78 0 -136 52l-17 14l-16 13q-18 15 -29 22q-30 21 -60 21q-50 0 -77 -51l-10 -19q-5 -10 -11 -16q-14 -16 -36 -16q-19 0 -34 13q-16 13 -16 33q0 16 2 24q19 60 67 97q46 35 103 35q77 0 142 -58z" />
    <glyph glyph-name="adieresis" unicode="&#xe4;" horiz-adv-x="1280" 
d="M988 886q0 26 18 45q19 19 44 19q26 0 45 -19t19 -45v-838q0 -25 -19 -44q-19 -18 -45 -18q-25 0 -44 18q-18 19 -18 44v158q-59 -107 -166 -165q-104 -55 -236 -55q-203 0 -344 136q-144 139 -144 346t144 346q141 136 344 136q131 0 236 -56q108 -58 166 -164v156z
M872 733q-110 105 -268 105q-159 0 -270 -105q-112 -106 -112 -265q0 -160 112 -267q110 -105 270 -105q158 0 268 105q112 107 112 267q0 159 -112 265zM374 1200q-24 24 -24 58q0 33 24 57q24 23 58 23q33 0 58 -23q24 -24 24 -57q0 -34 -24 -58q-25 -24 -58 -24
q-34 0 -58 24zM752 1200q-24 24 -24 58q0 33 24 57q24 23 58 23q33 0 58 -23q24 -24 24 -57q0 -34 -24 -58q-25 -24 -58 -24q-34 0 -58 24z" />
    <glyph glyph-name="aring" unicode="&#xe5;" horiz-adv-x="1280" 
d="M988 886q0 26 18 45q19 19 44 19q26 0 45 -19t19 -45v-838q0 -25 -19 -44q-19 -18 -45 -18q-25 0 -44 18q-18 19 -18 44v158q-59 -107 -166 -165q-104 -55 -236 -55q-203 0 -344 136q-144 139 -144 346t144 346q141 136 344 136q131 0 236 -56q108 -58 166 -164v156z
M872 733q-110 105 -268 105q-159 0 -270 -105q-112 -106 -112 -265q0 -160 112 -267q110 -105 270 -105q158 0 268 105q112 107 112 267q0 159 -112 265zM484 1393q56 53 136 53t137 -53q57 -55 57 -135t-57 -134t-137 -54t-136 54t-56 134t56 135zM542 1180q32 -32 78 -32
q47 0 78 32q32 32 32 78q0 45 -32 78q-32 32 -78 32t-78 -32q-32 -33 -32 -78q0 -46 32 -78z" />
    <glyph glyph-name="ae" unicode="&#xe6;" horiz-adv-x="1884" 
d="M321 137q80 -55 201 -55t202 55q84 57 84 149q0 94 -84 155q-82 59 -202 59t-201 -59q-85 -61 -85 -155q0 -92 85 -149zM1068 758q-100 -85 -124 -218h716q-21 136 -120 220q-98 84 -238 84q-134 0 -234 -86zM170 828q155 132 340 132q147 0 246 -67q95 -66 132 -185
q60 117 169 185q110 67 243 67q199 0 345 -142q143 -139 143 -318q0 -56 -56 -56h-794q20 -149 122 -244q105 -98 258 -98q196 0 304 136q17 24 46 24q25 0 43 -17q17 -17 17 -41t-16 -40q-141 -178 -394 -178q-137 0 -249 58q-114 59 -175 166q-74 -224 -388 -224
q-170 0 -281 81q-115 84 -115 219q0 136 116 225q111 85 268 85q96 0 178 -35q84 -36 136 -101v68q0 156 -79 240q-80 84 -227 84q-144 0 -262 -108q-19 -16 -40 -16t-36 16q-16 15 -16 36q0 29 22 48z" />
    <glyph glyph-name="ccedilla" unicode="&#xe7;" horiz-adv-x="992" 
d="M385 -364q12 12 27 12q16 0 28 -8q45 -32 94 -32q62 0 96 40q28 32 28 78q0 55 -47 92q-45 35 -111 38q-18 0 -18 18q0 6 4 14l46 92q-185 23 -308 159q-126 138 -126 329q0 208 148 346q145 136 356 136q166 0 306 -102q24 -21 24 -48q0 -23 -19 -40q-18 -16 -43 -16
q-5 0 -12 2l-5 2l-5 2q-141 84 -246 84q-159 0 -268 -103q-110 -105 -110 -263q0 -161 110 -269q109 -107 268 -107q118 0 208 60l6 4l7 5l15 9q18 10 32 10q25 0 43 -16q19 -17 19 -40q0 -28 -26 -48q-120 -85 -280 -98l-32 -64q84 -23 130 -77q42 -51 42 -115
q0 -76 -48 -130q-60 -68 -172 -68q-55 0 -109 21q-65 24 -65 61q0 18 13 30z" />
    <glyph glyph-name="egrave" unicode="&#xe8;" horiz-adv-x="1166" 
d="M247 122q-149 139 -149 346q0 205 143 345q140 137 343 137q197 0 336 -129q140 -130 150 -327v-4q0 -18 -13 -31q-14 -15 -35 -15h-796q20 -152 122 -246q103 -96 256 -96q184 0 298 148q18 24 48 24q26 0 43 -17t17 -43q0 -24 -16 -40q-152 -188 -392 -188
q-210 0 -355 136zM942 540q-21 135 -119 215q-96 79 -237 79q-132 0 -230 -80q-100 -82 -124 -214h710zM405 1418q14 14 35 14q20 0 36 -16l250 -240q20 -20 20 -40q0 -21 -14 -35q-15 -15 -36 -15q-18 0 -36 14l-254 244q-16 16 -16 38q0 21 15 36z" />
    <glyph glyph-name="eacute" unicode="&#xe9;" horiz-adv-x="1166" 
d="M247 122q-149 139 -149 346q0 205 143 345q140 137 343 137q197 0 336 -129q140 -130 150 -327v-4q0 -18 -13 -31q-14 -15 -35 -15h-796q20 -152 122 -246q103 -96 256 -96q184 0 298 148q18 24 48 24q26 0 43 -17t17 -43q0 -24 -16 -40q-152 -188 -392 -188
q-210 0 -355 136zM942 540q-21 135 -119 215q-96 79 -237 79q-132 0 -230 -80q-100 -82 -124 -214h710zM756 1340l-250 -236q-16 -16 -36 -16t-35 14t-15 34t20 40l242 232q22 22 46 22q20 0 35 -13q15 -15 15 -35q0 -23 -22 -42z" />
    <glyph glyph-name="ecircumflex" unicode="&#xea;" horiz-adv-x="1166" 
d="M247 122q-149 139 -149 346q0 205 143 345q140 137 343 137q197 0 336 -129q140 -130 150 -327v-4q0 -18 -13 -31q-14 -15 -35 -15h-796q20 -152 122 -246q103 -96 256 -96q184 0 298 148q18 24 48 24q26 0 43 -17t17 -43q0 -24 -16 -40q-152 -188 -392 -188
q-210 0 -355 136zM942 540q-21 135 -119 215q-96 79 -237 79q-132 0 -230 -80q-100 -82 -124 -214h710zM380 1104q-16 -16 -38 -16q-21 0 -34 14q-14 13 -14 34q0 24 18 42l240 236q6 6 12 9q7 5 14 5q8 0 16 -5l6 -4l6 -5l240 -238q18 -18 18 -40q0 -21 -13 -34
q-14 -14 -35 -14q-20 0 -38 14l-200 200z" />
    <glyph glyph-name="edieresis" unicode="&#xeb;" horiz-adv-x="1166" 
d="M247 122q-149 139 -149 346q0 205 143 345q140 137 343 137q197 0 336 -129q140 -130 150 -327v-4q0 -18 -13 -31q-14 -15 -35 -15h-796q20 -152 122 -246q103 -96 256 -96q184 0 298 148q18 24 48 24q26 0 43 -17t17 -43q0 -24 -16 -40q-152 -188 -392 -188
q-210 0 -355 136zM942 540q-21 135 -119 215q-96 79 -237 79q-132 0 -230 -80q-100 -82 -124 -214h710zM334 1200q-24 24 -24 58q0 33 24 57q24 23 58 23q33 0 58 -23q24 -24 24 -57q0 -34 -24 -58q-25 -24 -58 -24q-34 0 -58 24zM712 1200q-24 24 -24 58q0 33 24 57
q24 23 58 23q33 0 58 -23q24 -24 24 -57q0 -34 -24 -58q-25 -24 -58 -24q-34 0 -58 24z" />
    <glyph glyph-name="igrave" unicode="&#xec;" horiz-adv-x="488" 
d="M-13 1418q14 14 35 14q20 0 36 -16l250 -240q20 -20 20 -40q0 -21 -14 -35q-15 -15 -36 -15q-18 0 -36 14l-254 244q-16 16 -16 38q0 21 15 36zM180 886q0 26 19 45q18 19 45 19q25 0 44 -19q18 -19 18 -45v-838q0 -25 -18 -44q-18 -18 -44 -18q-27 0 -45 18
q-19 18 -19 44v838z" />
    <glyph glyph-name="iacute" unicode="&#xed;" horiz-adv-x="488" 
d="M498 1340l-250 -236q-16 -16 -36 -16t-35 14t-15 34t20 40l242 232q22 22 46 22q20 0 35 -13q15 -15 15 -35q0 -23 -22 -42zM180 886q0 26 19 45q18 19 45 19q25 0 44 -19q18 -19 18 -45v-838q0 -25 -18 -44q-18 -18 -44 -18q-27 0 -45 18q-19 18 -19 44v838z" />
    <glyph glyph-name="icircumflex" unicode="&#xee;" horiz-adv-x="488" 
d="M180 886q0 26 19 45q18 19 45 19q25 0 44 -19q18 -19 18 -45v-838q0 -25 -18 -44q-18 -18 -44 -18q-27 0 -45 18q-19 18 -19 44v838zM44 1104q-16 -16 -38 -16q-21 0 -34 14q-14 13 -14 34q0 24 18 42l240 236q6 6 12 9q7 5 14 5q8 0 16 -5l6 -4l6 -5l240 -238
q18 -18 18 -40q0 -21 -13 -34q-14 -14 -35 -14q-20 0 -38 14l-200 200z" />
    <glyph glyph-name="idieresis" unicode="&#xef;" horiz-adv-x="488" 
d="M-4 1200q-24 24 -24 58q0 33 24 57q24 23 58 23q33 0 58 -23q24 -24 24 -57q0 -34 -24 -58q-25 -24 -58 -24q-34 0 -58 24zM374 1200q-24 24 -24 58q0 33 24 57q24 23 58 23q33 0 58 -23q24 -24 24 -57q0 -34 -24 -58q-25 -24 -58 -24q-34 0 -58 24zM180 886q0 26 19 45
q18 19 45 19q25 0 44 -19q18 -19 18 -45v-838q0 -25 -18 -44q-18 -18 -44 -18q-27 0 -45 18q-19 18 -19 44v838z" />
    <glyph glyph-name="eth" unicode="&#xf0;" horiz-adv-x="1198" 
d="M266 1118q116 63 224 124q-71 50 -176 106q-38 21 -38 54q0 25 17 43q17 17 41 17q14 0 30 -8q101 -49 242 -148l178 100q12 4 22 4q18 0 31 -12t13 -30q0 -26 -20 -36l-150 -84q418 -343 418 -776q0 -212 -146 -350q-143 -136 -354 -136q-212 0 -355 135
q-145 138 -145 347q0 206 140 343q139 135 344 135q196 0 304 -120q-99 198 -314 360l-258 -142q-20 -8 -28 -8q-18 0 -30 12t-12 30q0 29 22 40zM332 201q104 -99 266 -99t267 99q107 102 107 267q0 161 -109 265q-106 101 -265 101q-162 0 -266 -100q-108 -102 -108 -266
q0 -165 108 -267z" />
    <glyph glyph-name="ntilde" unicode="&#xf1;" horiz-adv-x="1082" 
d="M292 796q91 154 294 154q140 0 238 -98q104 -104 104 -270v-534q0 -25 -19 -44q-19 -18 -45 -18q-25 0 -44 18q-18 19 -18 44v502q0 124 -70 205q-72 83 -186 83t-185 -78q-69 -77 -69 -198v-514q0 -25 -19 -44q-19 -18 -45 -18q-25 0 -44 18q-18 19 -18 44v838
q0 26 18 45q19 19 44 19q26 0 45 -19t19 -45v-90zM548 1310l14 -13l13 -11q15 -13 26 -21q29 -19 61 -19q50 0 78 50l10 18q6 10 11 16q15 16 37 16q19 0 34 -12q16 -14 16 -34q0 -10 -4 -22q-18 -60 -66 -97q-46 -35 -102 -35q-78 0 -136 52l-17 14l-16 13q-18 15 -29 22
q-30 21 -60 21q-50 0 -77 -51l-10 -19q-5 -10 -11 -16q-14 -16 -36 -16q-19 0 -34 13q-16 13 -16 33q0 16 2 24q19 60 67 97q46 35 103 35q77 0 142 -58z" />
    <glyph glyph-name="ograve" unicode="&#xf2;" horiz-adv-x="1204" 
d="M334 205q109 -103 268 -103t268 103q110 104 110 263t-110 263q-109 103 -268 103t-268 -103q-110 -104 -110 -263t110 -263zM246 814q145 136 356 136q210 0 356 -136q148 -139 148 -346t-148 -346q-146 -136 -356 -136q-211 0 -356 136q-148 138 -148 346t148 346z
M419 1418q14 14 35 14q20 0 36 -16l250 -240q20 -20 20 -40q0 -21 -14 -35q-15 -15 -36 -15q-18 0 -36 14l-254 244q-16 16 -16 38q0 21 15 36z" />
    <glyph glyph-name="oacute" unicode="&#xf3;" horiz-adv-x="1204" 
d="M334 205q109 -103 268 -103t268 103q110 104 110 263t-110 263q-109 103 -268 103t-268 -103q-110 -104 -110 -263t110 -263zM246 814q145 136 356 136q210 0 356 -136q148 -139 148 -346t-148 -346q-146 -136 -356 -136q-211 0 -356 136q-148 138 -148 346t148 346z
M826 1340l-250 -236q-16 -16 -36 -16t-35 14t-15 34t20 40l242 232q22 22 46 22q20 0 35 -13q15 -15 15 -35q0 -23 -22 -42z" />
    <glyph glyph-name="ocircumflex" unicode="&#xf4;" horiz-adv-x="1204" 
d="M334 205q109 -103 268 -103t268 103q110 104 110 263t-110 263q-109 103 -268 103t-268 -103q-110 -104 -110 -263t110 -263zM246 814q145 136 356 136q210 0 356 -136q148 -139 148 -346t-148 -346q-146 -136 -356 -136q-211 0 -356 136q-148 138 -148 346t148 346z
M402 1104q-16 -16 -38 -16q-21 0 -34 14q-14 13 -14 34q0 24 18 42l240 236q6 6 12 9q7 5 14 5q8 0 16 -5l6 -4l6 -5l240 -238q18 -18 18 -40q0 -21 -13 -34q-14 -14 -35 -14q-20 0 -38 14l-200 200z" />
    <glyph glyph-name="otilde" unicode="&#xf5;" horiz-adv-x="1204" 
d="M334 205q109 -103 268 -103t268 103q110 104 110 263t-110 263q-109 103 -268 103t-268 -103q-110 -104 -110 -263t110 -263zM246 814q145 136 356 136q210 0 356 -136q148 -139 148 -346t-148 -346q-146 -136 -356 -136q-211 0 -356 136q-148 138 -148 346t148 346z
M608 1310l14 -13l13 -11q15 -13 26 -21q29 -19 61 -19q50 0 78 50l10 18q6 10 11 16q15 16 37 16q19 0 34 -12q16 -14 16 -34q0 -10 -4 -22q-18 -60 -66 -97q-46 -35 -102 -35q-78 0 -136 52l-17 14l-16 13q-18 15 -29 22q-30 21 -60 21q-50 0 -77 -51l-10 -19
q-5 -10 -11 -16q-14 -16 -36 -16q-19 0 -34 13q-16 13 -16 33q0 16 2 24q19 60 67 97q46 35 103 35q77 0 142 -58z" />
    <glyph glyph-name="odieresis" unicode="&#xf6;" horiz-adv-x="1204" 
d="M334 205q109 -103 268 -103t268 103q110 104 110 263t-110 263q-109 103 -268 103t-268 -103q-110 -104 -110 -263t110 -263zM246 814q145 136 356 136q210 0 356 -136q148 -139 148 -346t-148 -346q-146 -136 -356 -136q-211 0 -356 136q-148 138 -148 346t148 346z
M354 1200q-24 24 -24 58q0 33 24 57q24 23 58 23q33 0 58 -23q24 -24 24 -57q0 -34 -24 -58q-25 -24 -58 -24q-34 0 -58 24zM732 1200q-24 24 -24 58q0 33 24 57q24 23 58 23q33 0 58 -23q24 -24 24 -57q0 -34 -24 -58q-25 -24 -58 -24q-34 0 -58 24z" />
    <glyph glyph-name="divide" unicode="&#xf7;" horiz-adv-x="1238" 
d="M550 1130q28 28 68 28q42 0 69 -28q27 -27 27 -68t-27 -68q-27 -28 -69 -28q-40 0 -68 28t-28 68q0 41 28 68zM550 330q28 28 68 28q41 0 69 -28q27 -28 27 -68q0 -41 -27 -69q-28 -29 -69 -29q-40 0 -68 29q-28 28 -28 69q0 39 28 68zM1054 716q24 0 40 -16t16 -40
q0 -23 -16 -38q-16 -16 -40 -16h-872q-23 0 -39 16q-17 16 -17 38q0 24 17 40q16 16 39 16h872z" />
    <glyph glyph-name="oslash" unicode="&#xf8;" horiz-adv-x="1204" 
d="M290 -170q-17 -30 -46 -30q-21 0 -35 14q-15 14 -15 34q0 17 8 28l112 196q-216 144 -216 396q0 208 148 346q145 136 356 136q103 0 204 -44l114 200q18 32 46 32q21 0 36 -14q14 -15 14 -36q0 -15 -6 -24l-118 -204q214 -147 214 -392q0 -207 -148 -346
q-146 -136 -356 -136q-105 0 -200 40zM870 205q110 104 110 263q0 176 -148 288l-370 -628q61 -26 140 -26q159 0 268 103zM374 176l372 626q-70 32 -144 32q-158 0 -267 -103q-111 -106 -111 -263q0 -184 150 -292z" />
    <glyph glyph-name="ugrave" unicode="&#xf9;" horiz-adv-x="1088" 
d="M796 140q-91 -154 -294 -154q-140 0 -238 97q-104 104 -104 271v532q0 26 19 45q18 19 45 19q25 0 44 -19q18 -19 18 -45v-502q0 -123 70 -204q71 -84 186 -84q114 0 185 79q69 77 69 197v514q0 26 19 45q18 19 45 19q25 0 44 -19q18 -19 18 -45v-838q0 -25 -18 -44
q-18 -18 -44 -18q-27 0 -45 18q-19 18 -19 44v92zM357 1418q14 14 35 14q20 0 36 -16l250 -240q20 -20 20 -40q0 -21 -14 -35q-15 -15 -36 -15q-18 0 -36 14l-254 244q-16 16 -16 38q0 21 15 36z" />
    <glyph glyph-name="uacute" unicode="&#xfa;" horiz-adv-x="1088" 
d="M796 140q-91 -154 -294 -154q-140 0 -238 97q-104 104 -104 271v532q0 26 19 45q18 19 45 19q25 0 44 -19q18 -19 18 -45v-502q0 -123 70 -204q71 -84 186 -84q114 0 185 79q69 77 69 197v514q0 26 19 45q18 19 45 19q25 0 44 -19q18 -19 18 -45v-838q0 -25 -18 -44
q-18 -18 -44 -18q-27 0 -45 18q-19 18 -19 44v92zM726 1340l-250 -236q-16 -16 -36 -16t-35 14t-15 34t20 40l242 232q22 22 46 22q20 0 35 -13q15 -15 15 -35q0 -23 -22 -42z" />
    <glyph glyph-name="ucircumflex" unicode="&#xfb;" horiz-adv-x="1088" 
d="M796 140q-91 -154 -294 -154q-140 0 -238 97q-104 104 -104 271v532q0 26 19 45q18 19 45 19q25 0 44 -19q18 -19 18 -45v-502q0 -123 70 -204q71 -84 186 -84q114 0 185 79q69 77 69 197v514q0 26 19 45q18 19 45 19q25 0 44 -19q18 -19 18 -45v-838q0 -25 -18 -44
q-18 -18 -44 -18q-27 0 -45 18q-19 18 -19 44v92zM346 1104q-16 -16 -38 -16q-21 0 -34 14q-14 13 -14 34q0 24 18 42l240 236q6 6 12 9q7 5 14 5q8 0 16 -5l6 -4l6 -5l240 -238q18 -18 18 -40q0 -21 -13 -34q-14 -14 -35 -14q-20 0 -38 14l-200 200z" />
    <glyph glyph-name="udieresis" unicode="&#xfc;" horiz-adv-x="1088" 
d="M796 140q-91 -154 -294 -154q-140 0 -238 97q-104 104 -104 271v532q0 26 19 45q18 19 45 19q25 0 44 -19q18 -19 18 -45v-502q0 -123 70 -204q71 -84 186 -84q114 0 185 79q69 77 69 197v514q0 26 19 45q18 19 45 19q25 0 44 -19q18 -19 18 -45v-838q0 -25 -18 -44
q-18 -18 -44 -18q-27 0 -45 18q-19 18 -19 44v92zM300 1200q-24 24 -24 58q0 33 24 57q24 23 58 23q33 0 58 -23q24 -24 24 -57q0 -34 -24 -58q-25 -24 -58 -24q-34 0 -58 24zM678 1200q-24 24 -24 58q0 33 24 57q24 23 58 23q33 0 58 -23q24 -24 24 -57q0 -34 -24 -58
q-25 -24 -58 -24q-34 0 -58 24z" />
    <glyph glyph-name="yacute" unicode="&#xfd;" horiz-adv-x="974" 
d="M85 940q18 18 43 18q42 0 62 -46l288 -764l306 764q18 46 58 46q27 0 46 -18q18 -18 18 -44q0 -6 -4 -22l-570 -1420q-17 -42 -62 -42q-25 0 -43 18q-17 18 -17 44q0 16 6 28l198 496l-340 870q-6 12 -6 28q0 26 17 44zM646 1340l-250 -236q-16 -16 -36 -16t-35 14
t-15 34t20 40l242 232q22 22 46 22q20 0 35 -13q15 -15 15 -35q0 -23 -22 -42z" />
    <glyph glyph-name="thorn" unicode="&#xfe;" horiz-adv-x="1280" 
d="M166 1450q0 26 18 45q19 19 44 19q26 0 45 -19t19 -45v-720q58 106 165 164q104 56 237 56q203 0 344 -136q144 -139 144 -346t-144 -346q-141 -136 -344 -136q-133 0 -237 56q-107 58 -165 164v-710q0 -25 -19 -44q-19 -18 -45 -18q-25 0 -44 18q-18 19 -18 44v1954z
M406 201q110 -105 270 -105q158 0 268 105q112 107 112 267q0 159 -112 265q-110 105 -268 105q-159 0 -270 -105q-112 -106 -112 -265q0 -160 112 -267z" />
    <glyph glyph-name="ydieresis" unicode="&#xff;" horiz-adv-x="974" 
d="M85 940q18 18 43 18q42 0 62 -46l288 -764l306 764q18 46 58 46q27 0 46 -18q18 -18 18 -44q0 -6 -4 -22l-570 -1420q-17 -42 -62 -42q-25 0 -43 18q-17 18 -17 44q0 16 6 28l198 496l-340 870q-6 12 -6 28q0 26 17 44zM234 1200q-24 24 -24 58q0 33 24 57q24 23 58 23
q33 0 58 -23q24 -24 24 -57q0 -34 -24 -58q-25 -24 -58 -24q-34 0 -58 24zM612 1200q-24 24 -24 58q0 33 24 57q24 23 58 23q33 0 58 -23q24 -24 24 -57q0 -34 -24 -58q-25 -24 -58 -24q-34 0 -58 24z" />
    <glyph glyph-name="Amacron" unicode="&#x100;" horiz-adv-x="1274" 
d="M676 1386l538 -1306q8 -20 8 -30q0 -28 -19 -46q-18 -18 -43 -18q-44 0 -62 42l-136 338h-652l-136 -338q-17 -44 -60 -44q-26 0 -45 19q-19 18 -19 45q0 8 8 32l538 1306q11 28 40 28q28 0 40 -28zM356 480h560q-53 129 -140 346l-140 348zM884 1754q21 0 35 -14
q13 -15 13 -36t-13 -34q-14 -14 -35 -14h-494q-21 0 -35 14q-15 13 -15 34t15 36q14 14 35 14h494z" />
    <glyph glyph-name="amacron" unicode="&#x101;" horiz-adv-x="1280" 
d="M988 886q0 26 18 45q19 19 44 19q26 0 45 -19t19 -45v-838q0 -25 -19 -44q-19 -18 -45 -18q-25 0 -44 18q-18 19 -18 44v158q-59 -107 -166 -165q-104 -55 -236 -55q-203 0 -344 136q-144 139 -144 346t144 346q141 136 344 136q131 0 236 -56q108 -58 166 -164v156z
M872 733q-110 105 -268 105q-159 0 -270 -105q-112 -106 -112 -265q0 -160 112 -267q110 -105 270 -105q158 0 268 105q112 107 112 267q0 159 -112 265zM848 1306q21 0 35 -14q13 -15 13 -36t-13 -34q-14 -14 -35 -14h-494q-21 0 -35 14q-15 13 -15 34t15 36q14 14 35 14
h494z" />
    <glyph glyph-name="Abreve" unicode="&#x102;" horiz-adv-x="1274" 
d="M676 1386l538 -1306q8 -20 8 -30q0 -28 -19 -46q-18 -18 -43 -18q-44 0 -62 42l-136 338h-652l-136 -338q-17 -44 -60 -44q-26 0 -45 19q-19 18 -19 45q0 8 8 32l538 1306q11 28 40 28q28 0 40 -28zM356 480h560q-53 129 -140 346l-140 348zM742 1707q40 35 54 91l3 12
l4 12q4 13 9 22q14 22 40 22q48 0 48 -60v-16q-14 -98 -98 -163q-77 -59 -166 -59t-166 59q-84 65 -98 163v16q0 60 48 60q26 0 40 -22q5 -9 10 -22l3 -12l3 -12q14 -56 55 -91q44 -39 105 -39t106 39z" />
    <glyph glyph-name="abreve" unicode="&#x103;" horiz-adv-x="1280" 
d="M988 886q0 26 18 45q19 19 44 19q26 0 45 -19t19 -45v-838q0 -25 -19 -44q-19 -18 -45 -18q-25 0 -44 18q-18 19 -18 44v158q-59 -107 -166 -165q-104 -55 -236 -55q-203 0 -344 136q-144 139 -144 346t144 346q141 136 344 136q131 0 236 -56q108 -58 166 -164v156z
M872 733q-110 105 -268 105q-159 0 -270 -105q-112 -106 -112 -265q0 -160 112 -267q110 -105 270 -105q158 0 268 105q112 107 112 267q0 159 -112 265zM706 1259q40 35 54 91l3 12l4 12q4 13 9 22q14 22 40 22q48 0 48 -60v-16q-14 -98 -98 -163q-77 -59 -166 -59t-166 59
q-84 65 -98 163v16q0 60 48 60q26 0 40 -22q5 -9 10 -22l3 -12l3 -12q14 -56 55 -91q44 -39 105 -39t106 39z" />
    <glyph glyph-name="Aogonek" unicode="&#x104;" horiz-adv-x="1270" 
d="M1178 -436q-101 0 -162 53q-60 52 -60 137q0 138 156 250q-24 48 -40 88l-110 274h-652l-140 -346q-17 -44 -60 -44q-26 0 -45 19q-19 18 -19 45q0 14 8 30l548 1330q10 24 34 24t34 -24l552 -1342q2 -6 2 -14q0 -52 -44 -62q-122 -109 -122 -210q0 -58 36 -91
q33 -31 88 -31q17 0 36 9q18 9 28 9q18 0 31 -12t13 -30q0 -27 -28 -44q-27 -18 -84 -18zM356 480h560q-53 129 -140 346l-140 348z" />
    <glyph glyph-name="aogonek" unicode="&#x105;" horiz-adv-x="1274" 
d="M1050 -438q-92 0 -149 57q-55 54 -55 135q0 141 156 250q-14 45 -14 106v96q-60 -109 -166 -170q-106 -60 -236 -60q-202 0 -344 141q-144 143 -144 351t144 351q142 141 344 141q129 0 236 -61q108 -61 166 -169v156q0 26 18 45q19 19 44 19q26 0 45 -19t19 -45v-836
q0 -41 -38 -62q-128 -109 -128 -216q0 -58 36 -91q33 -31 88 -31q14 0 35 9t31 9q18 0 30 -12t12 -30q0 -24 -24 -38q-45 -26 -106 -26zM872 738q-111 110 -268 110q-158 0 -270 -110t-112 -270q0 -161 112 -272q111 -110 270 -110q157 0 268 110q112 111 112 272
q0 159 -112 270z" />
    <glyph glyph-name="Cacute" unicode="&#x106;" horiz-adv-x="1438" 
d="M325 1211q212 203 517 203q272 0 484 -180q20 -17 20 -48q0 -26 -19 -46q-20 -20 -45 -20t-44 16q-169 150 -396 150q-249 0 -421 -165q-175 -169 -175 -421q0 -253 175 -421q171 -165 421 -165q232 0 396 148q19 16 42 16q27 0 47 -19q19 -20 19 -47q0 -29 -22 -48
q-207 -178 -482 -178q-305 0 -517 203q-215 205 -215 511q0 304 215 511zM962 1788l-250 -236q-16 -16 -36 -16t-35 14t-15 34t20 40l242 232q22 22 46 22q20 0 35 -13q15 -15 15 -35q0 -23 -22 -42z" />
    <glyph glyph-name="cacute" unicode="&#x107;" horiz-adv-x="992" 
d="M246 814q145 136 356 136q170 0 306 -102q24 -21 24 -48q0 -23 -17 -39q-17 -17 -41 -17q-11 0 -22 5q-9 4 -20 11q-102 74 -230 74q-159 0 -268 -103q-110 -104 -110 -263t110 -263q109 -103 268 -103q134 0 232 74q18 14 40 14q24 0 41 -17q17 -16 17 -39
q0 -28 -26 -48q-137 -100 -304 -100q-211 0 -356 136q-148 138 -148 346t148 346zM724 1340l-250 -236q-16 -16 -36 -16t-35 14t-15 34t20 40l242 232q22 22 46 22q20 0 35 -13q15 -15 15 -35q0 -23 -22 -42z" />
    <glyph glyph-name="Ccircumflex" unicode="&#x108;" horiz-adv-x="1438" 
d="M325 1211q212 203 517 203q272 0 484 -180q20 -17 20 -48q0 -26 -19 -46q-20 -20 -45 -20t-44 16q-169 150 -396 150q-249 0 -421 -165q-175 -169 -175 -421q0 -253 175 -421q171 -165 421 -165q232 0 396 148q19 16 42 16q27 0 47 -19q19 -20 19 -47q0 -29 -22 -48
q-207 -178 -482 -178q-305 0 -517 203q-215 205 -215 511q0 304 215 511zM602 1552q-16 -16 -38 -16q-21 0 -34 14q-14 13 -14 34q0 24 18 42l240 236q6 6 12 9q7 5 14 5q8 0 16 -5l6 -4l6 -5l240 -238q18 -18 18 -40q0 -21 -13 -34q-14 -14 -35 -14q-20 0 -38 14l-200 200z
" />
    <glyph glyph-name="ccircumflex" unicode="&#x109;" horiz-adv-x="992" 
d="M246 814q145 136 356 136q170 0 306 -102q24 -21 24 -48q0 -23 -17 -39q-17 -17 -41 -17q-11 0 -22 5q-9 4 -20 11q-102 74 -230 74q-159 0 -268 -103q-110 -104 -110 -263t110 -263q109 -103 268 -103q134 0 232 74q18 14 40 14q24 0 41 -17q17 -16 17 -39
q0 -28 -26 -48q-137 -100 -304 -100q-211 0 -356 136q-148 138 -148 346t148 346zM358 1104q-16 -16 -38 -16q-21 0 -34 14q-14 13 -14 34q0 24 18 42l240 236q6 6 12 9q7 5 14 5q8 0 16 -5l6 -4l6 -5l240 -238q18 -18 18 -40q0 -21 -13 -34q-14 -14 -35 -14q-20 0 -38 14
l-200 200z" />
    <glyph glyph-name="Cdotaccent" unicode="&#x10a;" horiz-adv-x="1438" 
d="M325 1211q212 203 517 203q272 0 484 -180q20 -17 20 -48q0 -26 -19 -46q-20 -20 -45 -20t-44 16q-169 150 -396 150q-249 0 -421 -165q-175 -169 -175 -421q0 -253 175 -421q171 -165 421 -165q232 0 396 148q19 16 42 16q27 0 47 -19q19 -20 19 -47q0 -29 -22 -48
q-207 -178 -482 -178q-305 0 -517 203q-215 205 -215 511q0 304 215 511zM743 1648q-25 24 -25 58q0 33 25 57q24 23 57 23q34 0 58 -23q24 -24 24 -57q0 -34 -24 -58q-23 -24 -58 -24q-33 0 -57 24z" />
    <glyph glyph-name="cdotaccent" unicode="&#x10b;" horiz-adv-x="992" 
d="M246 814q145 136 356 136q170 0 306 -102q24 -21 24 -48q0 -23 -17 -39q-17 -17 -41 -17q-11 0 -22 5q-9 4 -20 11q-102 74 -230 74q-159 0 -268 -103q-110 -104 -110 -263t110 -263q109 -103 268 -103q134 0 232 74q18 14 40 14q24 0 41 -17q17 -16 17 -39
q0 -28 -26 -48q-137 -100 -304 -100q-211 0 -356 136q-148 138 -148 346t148 346zM499 1200q-25 24 -25 58q0 33 25 57q24 23 57 23q34 0 58 -23q24 -24 24 -57q0 -34 -24 -58q-23 -24 -58 -24q-33 0 -57 24z" />
    <glyph glyph-name="Ccaron" unicode="&#x10c;" horiz-adv-x="1438" 
d="M325 1211q212 203 517 203q272 0 484 -180q20 -17 20 -48q0 -26 -19 -46q-20 -20 -45 -20t-44 16q-169 150 -396 150q-249 0 -421 -165q-175 -169 -175 -421q0 -253 175 -421q171 -165 421 -165q232 0 396 148q19 16 42 16q27 0 47 -19q19 -20 19 -47q0 -29 -22 -48
q-207 -178 -482 -178q-305 0 -517 203q-215 205 -215 511q0 304 215 511zM800 1656l186 186q28 28 48 28q52 0 52 -48q0 -18 -18 -40l-240 -236q-14 -14 -28 -14q-15 0 -26 14l-244 236q-14 14 -14 36q0 50 48 50q24 0 38 -14z" />
    <glyph glyph-name="ccaron" unicode="&#x10d;" horiz-adv-x="992" 
d="M246 814q145 136 356 136q170 0 306 -102q24 -21 24 -48q0 -23 -17 -39q-17 -17 -41 -17q-11 0 -22 5q-9 4 -20 11q-102 74 -230 74q-159 0 -268 -103q-110 -104 -110 -263t110 -263q109 -103 268 -103q134 0 232 74q18 14 40 14q24 0 41 -17q17 -16 17 -39
q0 -28 -26 -48q-137 -100 -304 -100q-211 0 -356 136q-148 138 -148 346t148 346zM556 1208l186 186q28 28 48 28q52 0 52 -48q0 -18 -18 -40l-240 -236q-14 -14 -28 -14q-15 0 -26 14l-244 236q-14 14 -14 36q0 50 48 50q24 0 38 -14z" />
    <glyph glyph-name="Dcaron" unicode="&#x10e;" horiz-adv-x="1372" 
d="M312 128h228q256 0 419 155q167 158 167 417t-167 417q-163 155 -419 155h-228v-1144zM236 0q-25 0 -43 17q-17 18 -17 43v1280q0 24 17 42q18 18 43 18h304q308 0 512 -191q210 -197 210 -509t-210 -509q-204 -191 -512 -191h-304zM558 1656l186 186q28 28 48 28
q52 0 52 -48q0 -18 -18 -40l-240 -236q-14 -14 -28 -14q-15 0 -26 14l-244 236q-14 14 -14 36q0 50 48 50q24 0 38 -14z" />
    <glyph glyph-name="dcaron" unicode="&#x10f;" horiz-adv-x="1538" 
d="M1116 48q0 -25 -19 -44q-19 -18 -45 -18q-25 0 -44 18q-18 19 -18 44v158q-59 -107 -166 -165q-104 -55 -236 -55q-203 0 -344 136q-144 139 -144 346t144 346q141 136 344 136q131 0 236 -56q108 -58 166 -164v720q0 26 18 45q19 19 44 19q26 0 45 -19t19 -45v-1402z
M874 733q-110 105 -268 105q-159 0 -270 -105q-112 -106 -112 -265q0 -160 112 -267q110 -105 270 -105q158 0 268 105q112 107 112 267q0 159 -112 265zM1237 1083l3 8l2 8l96 328q22 76 74 76q30 0 49 -21q17 -20 17 -47q0 -15 -14 -54l-124 -322q-16 -48 -52 -48
q-23 0 -38 15q-16 15 -16 37q0 8 3 20z" />
    <glyph glyph-name="Dcroat" unicode="&#x110;" horiz-adv-x="1362" 
d="M21 734q14 14 35 14h110v592q0 24 17 42q18 18 43 18h304q308 0 512 -191q210 -197 210 -509t-210 -509q-204 -191 -512 -191h-304q-25 0 -43 17q-17 18 -17 43v588h-110q-21 0 -35 14q-15 14 -15 36q0 21 15 36zM302 128h228q256 0 419 155q167 158 167 417t-167 417
q-163 155 -419 155h-228v-524h326q21 0 36 -14q14 -15 14 -36q0 -22 -14 -36q-15 -14 -36 -14h-326v-520z" />
    <glyph glyph-name="dcroat" unicode="&#x111;" horiz-adv-x="1278" 
d="M988 1304v146q0 26 18 45q19 19 44 19q26 0 45 -19t19 -45v-146h90q21 0 36 -14q14 -15 14 -36t-14 -35q-15 -15 -36 -15h-90v-1156q0 -25 -19 -44q-19 -18 -45 -18q-25 0 -44 18q-18 19 -18 44v158q-59 -107 -166 -165q-104 -55 -236 -55q-203 0 -344 136
q-144 139 -144 346t144 346q141 136 344 136q131 0 236 -55q109 -58 166 -165v474h-486q-21 0 -34 15q-14 14 -14 35t14 36q13 14 34 14h486zM872 733q-110 105 -268 105q-159 0 -270 -105q-112 -106 -112 -265q0 -160 112 -267q110 -105 270 -105q158 0 268 105
q112 107 112 267q0 159 -112 265z" />
    <glyph glyph-name="Emacron" unicode="&#x112;" horiz-adv-x="958" 
d="M176 1334q0 27 20 47q19 19 46 19h534q26 0 45 -19t19 -45q0 -27 -19 -45q-19 -19 -45 -19h-464v-428h414q26 0 44 -18t18 -44q0 -25 -18 -44q-18 -18 -44 -18h-414v-592h484q26 0 45 -19t19 -45q0 -27 -19 -45q-19 -19 -45 -19h-554q-27 0 -46 19q-20 18 -20 45v1270z
M746 1754q21 0 35 -14q13 -15 13 -36t-13 -34q-14 -14 -35 -14h-494q-21 0 -35 14q-15 13 -15 34t15 36q14 14 35 14h494z" />
    <glyph glyph-name="emacron" unicode="&#x113;" horiz-adv-x="1166" 
d="M247 122q-149 139 -149 346q0 205 143 345q140 137 343 137q197 0 336 -129q140 -130 150 -327v-4q0 -18 -13 -31q-14 -15 -35 -15h-796q20 -152 122 -246q103 -96 256 -96q184 0 298 148q18 24 48 24q26 0 43 -17t17 -43q0 -24 -16 -40q-152 -188 -392 -188
q-210 0 -355 136zM942 540q-21 135 -119 215q-96 79 -237 79q-132 0 -230 -80q-100 -82 -124 -214h710zM828 1306q21 0 35 -14q13 -15 13 -36t-13 -34q-14 -14 -35 -14h-494q-21 0 -35 14q-15 13 -15 34t15 36q14 14 35 14h494z" />
    <glyph glyph-name="Ebreve" unicode="&#x114;" horiz-adv-x="958" 
d="M176 1334q0 27 20 47q19 19 46 19h534q26 0 45 -19t19 -45q0 -27 -19 -45q-19 -19 -45 -19h-464v-428h414q26 0 44 -18t18 -44q0 -25 -18 -44q-18 -18 -44 -18h-414v-592h484q26 0 45 -19t19 -45q0 -27 -19 -45q-19 -19 -45 -19h-554q-27 0 -46 19q-20 18 -20 45v1270z
M600 1707q40 35 54 91l3 12l4 12q4 13 9 22q14 22 40 22q48 0 48 -60v-16q-14 -98 -98 -163q-77 -59 -166 -59t-166 59q-84 65 -98 163v16q0 60 48 60q26 0 40 -22q5 -9 10 -22l3 -12l3 -12q14 -56 55 -91q44 -39 105 -39t106 39z" />
    <glyph glyph-name="ebreve" unicode="&#x115;" horiz-adv-x="1166" 
d="M247 122q-149 139 -149 346q0 205 143 345q140 137 343 137q197 0 336 -129q140 -130 150 -327v-4q0 -18 -13 -31q-14 -15 -35 -15h-796q20 -152 122 -246q103 -96 256 -96q184 0 298 148q18 24 48 24q26 0 43 -17t17 -43q0 -24 -16 -40q-152 -188 -392 -188
q-210 0 -355 136zM942 540q-21 135 -119 215q-96 79 -237 79q-132 0 -230 -80q-100 -82 -124 -214h710zM686 1259q40 35 54 91l3 12l4 12q4 13 9 22q14 22 40 22q48 0 48 -60v-16q-14 -98 -98 -163q-77 -59 -166 -59t-166 59q-84 65 -98 163v16q0 60 48 60q26 0 40 -22
q5 -9 10 -22l3 -12l3 -12q14 -56 55 -91q44 -39 105 -39t106 39z" />
    <glyph glyph-name="Edotaccent" unicode="&#x116;" horiz-adv-x="958" 
d="M176 1334q0 27 20 47q19 19 46 19h534q26 0 45 -19t19 -45q0 -27 -19 -45q-19 -19 -45 -19h-464v-428h414q26 0 44 -18t18 -44q0 -25 -18 -44q-18 -18 -44 -18h-414v-592h484q26 0 45 -19t19 -45q0 -27 -19 -45q-19 -19 -45 -19h-554q-27 0 -46 19q-20 18 -20 45v1270z
M439 1648q-25 24 -25 58q0 33 25 57q24 23 57 23q34 0 58 -23q24 -24 24 -57q0 -34 -24 -58q-23 -24 -58 -24q-33 0 -57 24z" />
    <glyph glyph-name="edotaccent" unicode="&#x117;" horiz-adv-x="1166" 
d="M247 122q-149 139 -149 346q0 205 143 345q140 137 343 137q197 0 336 -129q140 -130 150 -327v-4q0 -18 -13 -31q-14 -15 -35 -15h-796q20 -152 122 -246q103 -96 256 -96q184 0 298 148q18 24 48 24q26 0 43 -17t17 -43q0 -24 -16 -40q-152 -188 -392 -188
q-210 0 -355 136zM942 540q-21 135 -119 215q-96 79 -237 79q-132 0 -230 -80q-100 -82 -124 -214h710zM523 1200q-25 24 -25 58q0 33 25 57q24 23 57 23q34 0 58 -23q24 -24 24 -57q0 -34 -24 -58q-23 -24 -58 -24q-33 0 -57 24z" />
    <glyph glyph-name="Eogonek" unicode="&#x118;" horiz-adv-x="958" 
d="M694 -438q-91 0 -148 57q-56 55 -56 135q0 137 150 246h-398q-27 0 -46 19q-20 18 -20 45v1270q0 27 20 47q19 19 46 19h534q26 0 45 -19t19 -45q0 -27 -19 -45q-19 -19 -45 -19h-464v-428h414q26 0 44 -18t18 -44q0 -25 -18 -44q-18 -18 -44 -18h-414v-592h484
q26 0 45 -19t19 -45q0 -64 -92 -64h-32q-142 -114 -142 -228q0 -58 33 -90q32 -32 89 -32q15 0 35 9l15 6q7 3 14 3q18 0 31 -13q13 -12 13 -29q0 -21 -22 -36q-37 -28 -108 -28z" />
    <glyph glyph-name="eogonek" unicode="&#x119;" horiz-adv-x="1166" 
d="M644 -438q-92 0 -149 57q-55 54 -55 135q0 58 35 121q34 63 93 111q-199 12 -333 147q-137 137 -137 335q0 205 143 345q140 137 343 137q197 0 336 -129q140 -130 150 -327v-4q0 -18 -13 -31q-14 -15 -35 -15h-796q20 -152 122 -246q103 -96 256 -96q184 0 298 148
q18 24 48 24q26 0 43 -17t17 -43q0 -24 -16 -40q-132 -163 -328 -184q-124 -114 -124 -218q0 -55 36 -89q35 -33 88 -33q9 0 18 3q6 2 16 6q20 9 30 9q18 0 30 -13q12 -12 12 -29q0 -26 -24 -40q-45 -24 -104 -24zM942 540q-21 135 -119 215q-96 79 -237 79q-132 0 -230 -80
q-100 -82 -124 -214h710z" />
    <glyph glyph-name="Ecaron" unicode="&#x11a;" horiz-adv-x="958" 
d="M176 1334q0 27 20 47q19 19 46 19h534q26 0 45 -19t19 -45q0 -27 -19 -45q-19 -19 -45 -19h-464v-428h414q26 0 44 -18t18 -44q0 -25 -18 -44q-18 -18 -44 -18h-414v-592h484q26 0 45 -19t19 -45q0 -27 -19 -45q-19 -19 -45 -19h-554q-27 0 -46 19q-20 18 -20 45v1270z
M494 1656l186 186q28 28 48 28q52 0 52 -48q0 -18 -18 -40l-240 -236q-14 -14 -28 -14q-15 0 -26 14l-244 236q-14 14 -14 36q0 50 48 50q24 0 38 -14z" />
    <glyph glyph-name="ecaron" unicode="&#x11b;" horiz-adv-x="1166" 
d="M247 122q-149 139 -149 346q0 205 143 345q140 137 343 137q197 0 336 -129q140 -130 150 -327v-4q0 -18 -13 -31q-14 -15 -35 -15h-796q20 -152 122 -246q103 -96 256 -96q184 0 298 148q18 24 48 24q26 0 43 -17t17 -43q0 -24 -16 -40q-152 -188 -392 -188
q-210 0 -355 136zM942 540q-21 135 -119 215q-96 79 -237 79q-132 0 -230 -80q-100 -82 -124 -214h710zM574 1208l186 186q28 28 48 28q52 0 52 -48q0 -18 -18 -40l-240 -236q-14 -14 -28 -14q-15 0 -26 14l-244 236q-14 14 -14 36q0 50 48 50q24 0 38 -14z" />
    <glyph glyph-name="Gcircumflex" unicode="&#x11c;" horiz-adv-x="1592" 
d="M421 1121q-175 -169 -175 -421q0 -253 175 -421q171 -165 421 -165q215 0 354 140q128 130 152 338h-338q-27 0 -45 19q-19 19 -19 45q0 27 19 46q18 18 45 18h418q28 0 46 -18q18 -19 18 -46v-6q-9 -288 -185 -473q-181 -191 -465 -191q-305 0 -517 203
q-215 205 -215 511q0 304 215 511q212 203 517 203q330 0 554 -254q20 -23 20 -46q0 -27 -19 -46q-20 -20 -47 -20q-32 0 -52 26q-85 99 -200 154q-121 58 -256 58q-249 0 -421 -165zM600 1552q-16 -16 -38 -16q-21 0 -34 14q-14 13 -14 34q0 24 18 42l240 236q6 6 12 9
q7 5 14 5q8 0 16 -5l6 -4l6 -5l240 -238q18 -18 18 -40q0 -21 -13 -34q-14 -14 -35 -14q-20 0 -38 14l-200 200z" />
    <glyph glyph-name="gcircumflex" unicode="&#x11d;" horiz-adv-x="1280" 
d="M197 -289q16 17 39 17q29 0 54 -32q51 -71 129 -110q79 -40 167 -40q402 0 402 460v200q-59 -107 -166 -165q-104 -55 -236 -55q-203 0 -344 136q-144 139 -144 346t144 346q141 136 344 136q131 0 236 -56q108 -58 166 -164v156q0 26 18 45q19 19 44 19q26 0 45 -19
t19 -45v-864q0 -586 -528 -586q-241 0 -388 188q-18 25 -18 44q0 25 17 43zM872 733q-110 105 -268 105q-159 0 -270 -105q-112 -106 -112 -265q0 -160 112 -267q110 -105 270 -105q158 0 268 105q112 107 112 267q0 159 -112 265zM404 1104q-16 -16 -38 -16q-21 0 -34 14
q-14 13 -14 34q0 24 18 42l240 236q6 6 12 9q7 5 14 5q8 0 16 -5l6 -4l6 -5l240 -238q18 -18 18 -40q0 -21 -13 -34q-14 -14 -35 -14q-20 0 -38 14l-200 200z" />
    <glyph glyph-name="Gbreve" unicode="&#x11e;" horiz-adv-x="1592" 
d="M421 1121q-175 -169 -175 -421q0 -253 175 -421q171 -165 421 -165q215 0 354 140q128 130 152 338h-338q-27 0 -45 19q-19 19 -19 45q0 27 19 46q18 18 45 18h418q28 0 46 -18q18 -19 18 -46v-6q-9 -288 -185 -473q-181 -191 -465 -191q-305 0 -517 203
q-215 205 -215 511q0 304 215 511q212 203 517 203q330 0 554 -254q20 -23 20 -46q0 -27 -19 -46q-20 -20 -47 -20q-32 0 -52 26q-85 99 -200 154q-121 58 -256 58q-249 0 -421 -165zM906 1707q40 35 54 91l3 12l4 12q4 13 9 22q14 22 40 22q48 0 48 -60v-16
q-14 -98 -98 -163q-77 -59 -166 -59t-166 59q-84 65 -98 163v16q0 60 48 60q26 0 40 -22q5 -9 10 -22l3 -12l3 -12q14 -56 55 -91q44 -39 105 -39t106 39z" />
    <glyph glyph-name="gbreve" unicode="&#x11f;" horiz-adv-x="1284" 
d="M197 -289q16 17 39 17q29 0 54 -32q51 -71 129 -110q79 -40 167 -40q402 0 402 460v200q-59 -107 -166 -165q-104 -55 -236 -55q-203 0 -344 136q-144 139 -144 346t144 346q141 136 344 136q131 0 236 -56q108 -58 166 -164v156q0 26 18 45q19 19 44 19q26 0 45 -19
t19 -45v-864q0 -586 -528 -586q-241 0 -388 188q-18 25 -18 44q0 25 17 43zM872 733q-110 105 -268 105q-159 0 -270 -105q-112 -106 -112 -265q0 -160 112 -267q110 -105 270 -105q158 0 268 105q112 107 112 267q0 159 -112 265zM700 1259q40 35 54 91l3 12l4 12
q4 13 9 22q14 22 40 22q48 0 48 -60v-16q-14 -98 -98 -163q-77 -59 -166 -59t-166 59q-84 65 -98 163v16q0 60 48 60q26 0 40 -22q5 -9 10 -22l3 -12l3 -12q14 -56 55 -91q44 -39 105 -39t106 39z" />
    <glyph glyph-name="Gdotaccent" unicode="&#x120;" horiz-adv-x="1592" 
d="M421 1121q-175 -169 -175 -421q0 -253 175 -421q171 -165 421 -165q215 0 354 140q128 130 152 338h-338q-27 0 -45 19q-19 19 -19 45q0 27 19 46q18 18 45 18h418q28 0 46 -18q18 -19 18 -46v-6q-9 -288 -185 -473q-181 -191 -465 -191q-305 0 -517 203
q-215 205 -215 511q0 304 215 511q212 203 517 203q330 0 554 -254q20 -23 20 -46q0 -27 -19 -46q-20 -20 -47 -20q-32 0 -52 26q-85 99 -200 154q-121 58 -256 58q-249 0 -421 -165zM743 1648q-25 24 -25 58q0 33 25 57q24 23 57 23q34 0 58 -23q24 -24 24 -57
q0 -34 -24 -58q-23 -24 -58 -24q-33 0 -57 24z" />
    <glyph glyph-name="gdotaccent" unicode="&#x121;" horiz-adv-x="1280" 
d="M197 -289q16 17 39 17q29 0 54 -32q51 -71 129 -110q79 -40 167 -40q402 0 402 460v200q-59 -107 -166 -165q-104 -55 -236 -55q-203 0 -344 136q-144 139 -144 346t144 346q141 136 344 136q131 0 236 -56q108 -58 166 -164v156q0 26 18 45q19 19 44 19q26 0 45 -19
t19 -45v-864q0 -586 -528 -586q-241 0 -388 188q-18 25 -18 44q0 25 17 43zM872 733q-110 105 -268 105q-159 0 -270 -105q-112 -106 -112 -265q0 -160 112 -267q110 -105 270 -105q158 0 268 105q112 107 112 267q0 159 -112 265zM535 1200q-25 24 -25 58q0 33 25 57
q24 23 57 23q34 0 58 -23q24 -24 24 -57q0 -34 -24 -58q-23 -24 -58 -24q-33 0 -57 24z" />
    <glyph glyph-name="uni0122" unicode="&#x122;" horiz-adv-x="1592" 
d="M421 1121q-175 -169 -175 -421q0 -253 175 -421q171 -165 421 -165q215 0 354 140q128 130 152 338h-338q-27 0 -45 19q-19 19 -19 45q0 27 19 46q18 18 45 18h418q28 0 46 -18q18 -19 18 -46v-6q-9 -288 -185 -473q-181 -191 -465 -191q-305 0 -517 203
q-215 205 -215 511q0 304 215 511q212 203 517 203q330 0 554 -254q20 -23 20 -46q0 -27 -19 -46q-20 -20 -47 -20q-32 0 -52 26q-85 99 -200 154q-121 58 -256 58q-249 0 -421 -165zM706 -494l2 9l2 7l78 252q21 78 72 78q50 0 50 -60q0 -22 -12 -46l-96 -246
q-23 -56 -52 -56q-46 0 -46 44q0 7 2 18z" />
    <glyph glyph-name="uni0123" unicode="&#x123;" horiz-adv-x="1280" 
d="M197 -289q16 17 39 17q29 0 54 -32q51 -71 129 -110q79 -40 167 -40q402 0 402 460v200q-59 -107 -166 -165q-104 -55 -236 -55q-203 0 -344 136q-144 139 -144 346t144 346q141 136 344 136q131 0 236 -56q108 -58 166 -164v156q0 26 18 45q19 19 44 19q26 0 45 -19
t19 -45v-864q0 -586 -528 -586q-241 0 -388 188q-18 25 -18 44q0 25 17 43zM872 733q-110 105 -268 105q-159 0 -270 -105q-112 -106 -112 -265q0 -160 112 -267q110 -105 270 -105q158 0 268 105q112 107 112 267q0 159 -112 265zM716 1402l-2 -9l-2 -7l-78 -252
q-21 -78 -72 -78q-50 0 -50 60q0 22 12 46l96 246q23 56 52 56q46 0 46 -44q0 -6 -2 -18z" />
    <glyph glyph-name="Hcircumflex" unicode="&#x124;" horiz-adv-x="1300" 
d="M1122 54q0 -28 -20 -48q-19 -20 -48 -20q-28 0 -48 20t-20 48v650h-674v-650q0 -28 -20 -48q-19 -20 -48 -20q-28 0 -48 20t-20 48v1292q0 27 20 48q20 20 48 20t48 -20q20 -21 20 -48v-514h674v514q0 27 20 48q20 20 48 20t48 -20q20 -21 20 -48v-1292zM450 1552
q-16 -16 -38 -16q-21 0 -34 14q-14 13 -14 34q0 24 18 42l240 236q6 6 12 9q7 5 14 5q8 0 16 -5l6 -4l6 -5l240 -238q18 -18 18 -40q0 -21 -13 -34q-14 -14 -35 -14q-20 0 -38 14l-200 200z" />
    <glyph glyph-name="hcircumflex" unicode="&#x125;" horiz-adv-x="1064" 
d="M274 782q99 168 294 168q140 0 238 -98q104 -104 104 -270v-534q0 -25 -19 -44q-19 -18 -45 -18q-25 0 -44 18q-18 19 -18 44v504q0 124 -69 204q-71 82 -187 82q-114 0 -185 -82q-69 -80 -69 -202v-506q0 -25 -19 -44q-19 -18 -45 -18q-25 0 -44 18q-18 19 -18 44v1402
q0 26 18 45q19 19 44 19q26 0 45 -19t19 -45v-668zM12 1552q-16 -16 -38 -16q-21 0 -34 14q-14 13 -14 34q0 24 18 42l240 236q6 6 12 9q7 5 14 5q8 0 16 -5l6 -4l6 -5l240 -238q18 -18 18 -40q0 -21 -13 -34q-14 -14 -35 -14q-20 0 -38 14l-200 200z" />
    <glyph glyph-name="Hbar" unicode="&#x126;" horiz-adv-x="1284" 
d="M1114 54q0 -28 -20 -48q-19 -20 -48 -20q-28 0 -48 20t-20 48v650h-674v-650q0 -28 -20 -48q-19 -20 -48 -20q-28 0 -48 20t-20 48v1038h-84q-21 0 -35 14q-15 13 -15 34q0 22 15 36q14 14 35 14h84v156q0 27 20 48q20 20 48 20t48 -20q20 -21 20 -48v-156h674v156
q0 27 20 48q20 20 48 20t48 -20q20 -21 20 -48v-156h82q23 0 37 -14q15 -14 15 -36q0 -21 -15 -34q-14 -14 -37 -14h-82v-1038zM978 832v260h-674v-260h674z" />
    <glyph glyph-name="hbar" unicode="&#x127;" horiz-adv-x="1072" 
d="M284 782q99 168 294 168q139 0 238 -99q104 -105 104 -269v-534q0 -25 -19 -44q-19 -18 -45 -18q-25 0 -44 18q-18 19 -18 44v504q0 123 -70 204q-72 82 -186 82t-185 -82q-69 -80 -69 -202v-506q0 -25 -19 -44q-19 -18 -45 -18q-25 0 -44 18q-18 19 -18 44v1158h-94
q-21 0 -34 15q-14 14 -14 35t14 36q13 14 34 14h94v144q0 26 18 45q19 19 44 19q26 0 45 -19t19 -45v-144h292q21 0 36 -14q14 -15 14 -36t-14 -35q-15 -15 -36 -15h-292v-424z" />
    <glyph glyph-name="Itilde" unicode="&#x128;" horiz-adv-x="534" 
d="M334 54q0 -28 -20 -48q-19 -20 -48 -20q-28 0 -48 20t-20 48v1292q0 27 20 48q20 20 48 20t48 -20q20 -21 20 -48v-1292zM274 1758l14 -13l13 -11q15 -13 26 -21q29 -19 61 -19q50 0 78 50l10 18q6 10 11 16q15 16 37 16q19 0 34 -12q16 -14 16 -34q0 -10 -4 -22
q-18 -60 -66 -97q-46 -35 -102 -35q-78 0 -136 52l-17 14l-16 13q-18 15 -29 22q-30 21 -60 21q-50 0 -77 -51l-10 -19q-5 -10 -11 -16q-14 -16 -36 -16q-19 0 -34 13q-16 13 -16 33q0 16 2 24q19 60 67 97q46 35 103 35q77 0 142 -58z" />
    <glyph glyph-name="itilde" unicode="&#x129;" horiz-adv-x="488" 
d="M250 1310l14 -13l13 -11q15 -13 26 -21q29 -19 61 -19q50 0 78 50l10 18q6 10 11 16q15 16 37 16q19 0 34 -12q16 -14 16 -34q0 -10 -4 -22q-18 -60 -66 -97q-46 -35 -102 -35q-78 0 -136 52l-17 14l-16 13q-18 15 -29 22q-30 21 -60 21q-50 0 -77 -51l-10 -19
q-5 -10 -11 -16q-14 -16 -36 -16q-19 0 -34 13q-16 13 -16 33q0 16 2 24q19 60 67 97q46 35 103 35q77 0 142 -58zM180 886q0 26 19 45q18 19 45 19q25 0 44 -19q18 -19 18 -45v-838q0 -25 -18 -44q-18 -18 -44 -18q-27 0 -45 18q-19 18 -19 44v838z" />
    <glyph glyph-name="Imacron" unicode="&#x12a;" horiz-adv-x="534" 
d="M334 54q0 -28 -20 -48q-19 -20 -48 -20q-28 0 -48 20t-20 48v1292q0 27 20 48q20 20 48 20t48 -20q20 -21 20 -48v-1292zM514 1754q21 0 35 -14q13 -15 13 -36t-13 -34q-14 -14 -35 -14h-494q-21 0 -35 14q-15 13 -15 34t15 36q14 14 35 14h494z" />
    <glyph glyph-name="imacron" unicode="&#x12b;" horiz-adv-x="488" 
d="M490 1306q21 0 35 -14q13 -15 13 -36t-13 -34q-14 -14 -35 -14h-494q-21 0 -35 14q-15 13 -15 34t15 36q14 14 35 14h494zM180 886q0 26 19 45q18 19 45 19q25 0 44 -19q18 -19 18 -45v-838q0 -25 -18 -44q-18 -18 -44 -18q-27 0 -45 18q-19 18 -19 44v838z" />
    <glyph glyph-name="Ibreve" unicode="&#x12c;" horiz-adv-x="534" 
d="M334 54q0 -28 -20 -48q-19 -20 -48 -20q-28 0 -48 20t-20 48v1292q0 27 20 48q20 20 48 20t48 -20q20 -21 20 -48v-1292zM372 1707q40 35 54 91l3 12l4 12q4 13 9 22q14 22 40 22q48 0 48 -60v-16q-14 -98 -98 -163q-77 -59 -166 -59t-166 59q-84 65 -98 163v16
q0 60 48 60q26 0 40 -22q5 -9 10 -22l3 -12l3 -12q14 -56 55 -91q44 -39 105 -39t106 39z" />
    <glyph glyph-name="ibreve" unicode="&#x12d;" horiz-adv-x="488" 
d="M180 886q0 26 19 45q18 19 45 19q25 0 44 -19q18 -19 18 -45v-838q0 -25 -18 -44q-18 -18 -44 -18q-27 0 -45 18q-19 18 -19 44v838zM348 1259q40 35 54 91l3 12l4 12q4 13 9 22q14 22 40 22q48 0 48 -60v-16q-14 -98 -98 -163q-77 -59 -166 -59t-166 59q-84 65 -98 163
v16q0 60 48 60q26 0 40 -22q5 -9 10 -22l3 -12l3 -12q14 -56 55 -91q44 -39 105 -39t106 39z" />
    <glyph glyph-name="Iogonek" unicode="&#x12e;" horiz-adv-x="534" 
d="M268 -438q-92 0 -149 57q-55 54 -55 135q0 138 154 248q-20 32 -20 80v1264q0 27 20 48q20 20 48 20t48 -20q20 -21 20 -48v-1288q0 -38 -30 -64q-138 -116 -138 -222q0 -55 36 -89q35 -33 88 -33q9 0 18 3q6 2 16 6q20 9 30 9q18 0 30 -13q12 -12 12 -29q0 -26 -24 -40
q-45 -24 -104 -24z" />
    <glyph glyph-name="iogonek" unicode="&#x12f;" horiz-adv-x="488" 
d="M180 886q0 26 19 45q18 19 45 19q25 0 44 -19q18 -19 18 -45v-838q0 -16 -9 -32q-8 -13 -19 -22q-136 -111 -136 -222q0 -58 36 -91q34 -31 86 -31q15 0 35 9t29 9q18 0 31 -13q13 -12 13 -29q0 -25 -26 -40q-45 -24 -104 -24q-91 0 -148 57q-56 55 -56 135
q0 139 158 250q-16 24 -16 44v838zM310 1265q-27 -27 -66 -27t-66 27q-28 27 -28 67q0 39 28 66q27 26 66 26t66 -26q26 -27 26 -66q0 -40 -26 -67z" />
    <glyph glyph-name="Idotaccent" unicode="&#x130;" horiz-adv-x="534" 
d="M334 54q0 -28 -20 -48q-19 -20 -48 -20q-28 0 -48 20t-20 48v1292q0 27 20 48q20 20 48 20t48 -20q20 -21 20 -48v-1292zM209 1648q-25 24 -25 58q0 33 25 57q24 23 57 23q34 0 58 -23q24 -24 24 -57q0 -34 -24 -58q-23 -24 -58 -24q-33 0 -57 24z" />
    <glyph glyph-name="dotlessi" unicode="&#x131;" horiz-adv-x="488" 
d="M180 886q0 26 19 45q18 19 45 19q25 0 44 -19q18 -19 18 -45v-838q0 -25 -18 -44q-18 -18 -44 -18q-27 0 -45 18q-19 18 -19 44v838z" />
    <glyph glyph-name="IJ" unicode="&#x132;" horiz-adv-x="1310" 
d="M334 54q0 -28 -20 -48q-19 -20 -48 -20q-28 0 -48 20t-20 48v1292q0 27 20 48q20 20 48 20t48 -20q20 -21 20 -48v-1292zM503 201q18 19 45 19q31 0 48 -20q69 -86 174 -86q226 0 226 302v930q0 27 20 48q20 20 48 20q27 0 48 -20q20 -21 20 -48v-934q0 -216 -100 -325
q-93 -101 -260 -101q-153 0 -262 116q-26 30 -26 54q0 26 19 45z" />
    <glyph glyph-name="ij" unicode="&#x133;" horiz-adv-x="1026" 
d="M310 1265q-27 -27 -66 -27t-66 27q-28 27 -28 67q0 39 28 66q27 26 66 26t66 -26q26 -27 26 -66q0 -40 -26 -67zM180 886q0 26 19 45q18 19 45 19q25 0 44 -19q18 -19 18 -45v-838q0 -25 -18 -44q-18 -18 -44 -18q-27 0 -45 18q-19 18 -19 44v838zM305 -388q16 16 39 16
q27 0 42 -18q61 -64 150 -64q192 0 192 274v1066q0 26 18 45q19 19 44 19q26 0 45 -19t19 -45v-1068q0 -382 -314 -382q-140 0 -236 96q-16 19 -16 40q0 24 17 40zM857 1265q-28 -27 -67 -27t-65 27q-27 27 -27 67q0 39 27 66q26 26 65 26t67 -26q27 -27 27 -66
q0 -40 -27 -67z" />
    <glyph glyph-name="Jcircumflex" unicode="&#x134;" horiz-adv-x="820" 
d="M27 201q18 19 45 19q31 0 48 -20q69 -86 174 -86q226 0 226 302v930q0 27 20 48q20 20 48 20q27 0 48 -20q20 -21 20 -48v-934q0 -216 -100 -325q-93 -101 -260 -101q-153 0 -262 116q-26 30 -26 54q0 26 19 45zM390 1552q-16 -16 -38 -16q-21 0 -34 14q-14 13 -14 34
q0 24 18 42l240 236q6 6 12 9q7 5 14 5q8 0 16 -5l6 -4l6 -5l240 -238q18 -18 18 -40q0 -21 -13 -34q-14 -14 -35 -14q-20 0 -38 14l-200 200z" />
    <glyph glyph-name="jcircumflex" unicode="&#x135;" horiz-adv-x="486" 
d="M-224 -388q16 16 38 16q29 0 44 -18q61 -64 150 -64q192 0 192 274v1066q0 26 18 45q19 19 44 19q26 0 45 -19t19 -45v-1068q0 -382 -314 -382q-143 0 -236 96q-18 18 -18 40q0 23 18 40zM66 1104q-16 -16 -38 -16q-21 0 -34 14q-14 13 -14 34q0 24 18 42l240 236
q6 6 12 9q7 5 14 5q8 0 16 -5l6 -4l6 -5l240 -238q18 -18 18 -40q0 -21 -13 -34q-14 -14 -35 -14q-20 0 -38 14l-200 200z" />
    <glyph glyph-name="uni0136" unicode="&#x136;" horiz-adv-x="1134" 
d="M176 1350q0 29 20 48q20 20 48 20q29 0 48 -20q20 -19 20 -48v-634l596 680q20 20 50 20t50 -20t20 -50q0 -27 -16 -46l-532 -584l600 -614q20 -23 20 -50q0 -30 -20 -50t-50 -20q-31 0 -52 24l-666 710v-666q0 -28 -20 -48q-19 -20 -48 -20q-28 0 -48 20t-20 48v1300z
M508 -494l2 9l2 7l78 252q21 78 72 78q50 0 50 -60q0 -22 -12 -46l-96 -246q-23 -56 -52 -56q-46 0 -46 44q0 7 2 18z" />
    <glyph glyph-name="uni0137" unicode="&#x137;" horiz-adv-x="980" 
d="M290 508l492 432q22 18 42 18q24 0 42 -17q18 -18 18 -43q0 -24 -24 -44l-416 -350l480 -424q20 -17 20 -44q0 -24 -18 -41t-44 -17q-24 0 -42 18l-550 512v-460q0 -25 -18 -44q-18 -18 -44 -18q-27 0 -45 18q-19 18 -19 44v1402q0 26 19 45q18 19 45 19q25 0 44 -19
q18 -19 18 -45v-942zM416 -494l2 9l2 7l78 252q21 78 72 78q50 0 50 -60q0 -22 -12 -46l-96 -246q-23 -56 -52 -56q-46 0 -46 44q0 7 2 18z" />
    <glyph glyph-name="kgreenlandic" unicode="&#x138;" horiz-adv-x="980" 
d="M290 508l492 432q22 18 42 18q24 0 42 -17q18 -18 18 -43q0 -24 -24 -44l-416 -350l470 -416q20 -17 20 -44q0 -24 -18 -41t-42 -17q-26 0 -44 18l-540 504v-460q0 -25 -18 -44q-18 -18 -44 -18q-27 0 -45 18q-19 18 -19 44v838q0 26 19 45q18 19 45 19q25 0 44 -19
q18 -19 18 -45v-378z" />
    <glyph glyph-name="Lacute" unicode="&#x139;" horiz-adv-x="910" 
d="M176 1346q0 27 20 48q20 20 48 20t48 -20q20 -21 20 -48v-1218h504q27 0 46 -19q18 -19 18 -45q0 -27 -18 -45q-19 -19 -46 -19h-572q-28 0 -48 20t-20 48v1278zM500 1788l-250 -236q-16 -16 -36 -16t-35 14t-15 34t20 40l242 232q22 22 46 22q20 0 35 -13q15 -15 15 -35
q0 -23 -22 -42z" />
    <glyph glyph-name="lacute" unicode="&#x13a;" horiz-adv-x="460" 
d="M176 1394q0 25 18 43q19 18 44 18q26 0 45 -18t19 -43v-1348q0 -24 -19 -42q-19 -17 -45 -17t-44 17t-18 42v1348zM486 1788l-250 -236q-16 -16 -36 -16t-35 14t-15 34t20 40l242 232q22 22 46 22q20 0 35 -13q15 -15 15 -35q0 -23 -22 -42z" />
    <glyph glyph-name="uni013B" unicode="&#x13b;" horiz-adv-x="912" 
d="M176 1346q0 27 20 48q20 20 48 20t48 -20q20 -21 20 -48v-1218h504q27 0 46 -19q18 -19 18 -45q0 -27 -18 -45q-19 -19 -46 -19h-572q-28 0 -48 20t-20 48v1278zM378 -494l2 9l2 7l78 252q21 78 72 78q50 0 50 -60q0 -22 -12 -46l-96 -246q-23 -56 -52 -56q-46 0 -46 44
q0 7 2 18z" />
    <glyph glyph-name="uni013C" unicode="&#x13c;" horiz-adv-x="478" 
d="M176 1450q0 26 18 45q19 19 44 19q26 0 45 -19t19 -45v-1402q0 -25 -19 -44q-19 -18 -45 -18q-25 0 -44 18q-18 19 -18 44v1402zM78 -494l2 9l2 7l78 252q21 78 72 78q50 0 50 -60q0 -22 -12 -46l-96 -246q-23 -56 -52 -56q-46 0 -46 44q0 7 2 18z" />
    <glyph glyph-name="Lcaron" unicode="&#x13d;" horiz-adv-x="912" 
d="M176 1346q0 27 20 48q20 20 48 20t48 -20q20 -21 20 -48v-1218h504q27 0 46 -19q18 -19 18 -45q0 -27 -18 -45q-19 -19 -46 -19h-572q-28 0 -48 20t-20 48v1278z" />
    <glyph glyph-name="lcaron" unicode="&#x13e;" horiz-adv-x="680" 
d="M176 1450q0 26 18 45q19 19 44 19q26 0 45 -19t19 -45v-1402q0 -25 -19 -44q-19 -18 -45 -18q-25 0 -44 18q-18 19 -18 44v1402z" />
    <glyph glyph-name="Ldot" unicode="&#x13f;" horiz-adv-x="912" 
d="M176 1346q0 27 20 48q20 20 48 20t48 -20q20 -21 20 -48v-1218h504q27 0 46 -19q18 -19 18 -45q0 -27 -18 -45q-19 -19 -46 -19h-572q-28 0 -48 20t-20 48v1278zM601 700q-25 24 -25 58q0 33 25 57q24 23 57 23q34 0 58 -23q24 -24 24 -57q0 -34 -24 -58q-23 -24 -58 -24
q-33 0 -57 24z" />
    <glyph glyph-name="ldot" unicode="&#x140;" horiz-adv-x="752" 
d="M176 1450q0 26 18 45q19 19 44 19q26 0 45 -19t19 -45v-1402q0 -25 -19 -44q-19 -18 -45 -18q-25 0 -44 18q-18 19 -18 44v1402zM567 700q-25 24 -25 58q0 33 25 57q24 23 57 23q34 0 58 -23q24 -24 24 -57q0 -34 -24 -58q-23 -24 -58 -24q-33 0 -57 24z" />
    <glyph glyph-name="Lslash" unicode="&#x141;" horiz-adv-x="900" 
d="M166 526l-92 -62q-17 -10 -32 -10q-19 0 -34 14q-14 15 -14 34q0 26 22 42l150 98v704q0 27 20 48q20 20 48 20q27 0 48 -20q20 -21 20 -48v-614l420 280q11 8 28 8q20 0 34 -14t14 -34q0 -27 -30 -46l-466 -310v-488h504q26 0 45 -19t19 -45q0 -27 -19 -45
q-19 -19 -45 -19h-536q-104 0 -104 68v458z" />
    <glyph glyph-name="lslash" unicode="&#x142;" horiz-adv-x="764" 
d="M318 1450q0 26 19 45q18 19 45 19q25 0 44 -19q18 -19 18 -45v-570l246 164q13 10 28 10q20 0 34 -14q14 -15 14 -36q0 -26 -28 -44l-294 -198v-714q0 -25 -18 -44q-18 -18 -44 -18q-27 0 -45 18q-19 18 -19 44v632l-242 -162q-20 -12 -32 -12q-20 0 -34 15
q-14 14 -14 35q0 27 22 40l300 200v654z" />
    <glyph glyph-name="Nacute" unicode="&#x143;" horiz-adv-x="1460" 
d="M1148 264v1082q0 27 20 48q20 20 48 20q27 0 48 -20q20 -21 20 -48v-1334q0 -15 -11 -25q-12 -11 -27 -11q-17 0 -30 16l-904 1144v-1082q0 -28 -20 -48q-19 -20 -48 -20q-28 0 -48 20t-20 48v1332q0 15 11 26q10 10 25 10q20 0 30 -14zM882 1788l-250 -236
q-16 -16 -36 -16t-35 14t-15 34t20 40l242 232q22 22 46 22q20 0 35 -13q15 -15 15 -35q0 -23 -22 -42z" />
    <glyph glyph-name="nacute" unicode="&#x144;" horiz-adv-x="1082" 
d="M292 796q91 154 294 154q140 0 238 -98q104 -104 104 -270v-534q0 -25 -19 -44q-19 -18 -45 -18q-25 0 -44 18q-18 19 -18 44v502q0 124 -70 205q-72 83 -186 83t-185 -78q-69 -77 -69 -198v-514q0 -25 -19 -44q-19 -18 -45 -18q-25 0 -44 18q-18 19 -18 44v838
q0 26 18 45q19 19 44 19q26 0 45 -19t19 -45v-90zM740 1340l-250 -236q-16 -16 -36 -16t-35 14t-15 34t20 40l242 232q22 22 46 22q20 0 35 -13q15 -15 15 -35q0 -23 -22 -42z" />
    <glyph glyph-name="uni0145" unicode="&#x145;" horiz-adv-x="1460" 
d="M1148 264v1082q0 27 20 48q20 20 48 20q27 0 48 -20q20 -21 20 -48v-1334q0 -15 -11 -25q-12 -11 -27 -11q-17 0 -30 16l-904 1144v-1082q0 -28 -20 -48q-19 -20 -48 -20q-28 0 -48 20t-20 48v1332q0 15 11 26q10 10 25 10q20 0 30 -14zM640 -494l2 9l2 7l78 252
q21 78 72 78q50 0 50 -60q0 -22 -12 -46l-96 -246q-23 -56 -52 -56q-46 0 -46 44q0 7 2 18z" />
    <glyph glyph-name="uni0146" unicode="&#x146;" horiz-adv-x="1082" 
d="M292 796q91 154 294 154q140 0 238 -98q104 -104 104 -270v-534q0 -25 -19 -44q-19 -18 -45 -18q-25 0 -44 18q-18 19 -18 44v502q0 124 -70 205q-72 83 -186 83t-185 -78q-69 -77 -69 -198v-514q0 -25 -19 -44q-19 -18 -45 -18q-25 0 -44 18q-18 19 -18 44v838
q0 26 18 45q19 19 44 19q26 0 45 -19t19 -45v-90zM430 -494l2 9l2 7l78 252q21 78 72 78q50 0 50 -60q0 -22 -12 -46l-96 -246q-23 -56 -52 -56q-46 0 -46 44q0 7 2 18z" />
    <glyph glyph-name="Ncaron" unicode="&#x147;" horiz-adv-x="1460" 
d="M1148 264v1082q0 27 20 48q20 20 48 20q27 0 48 -20q20 -21 20 -48v-1334q0 -15 -11 -25q-12 -11 -27 -11q-17 0 -30 16l-904 1144v-1082q0 -28 -20 -48q-19 -20 -48 -20q-28 0 -48 20t-20 48v1332q0 15 11 26q10 10 25 10q20 0 30 -14zM728 1656l186 186q28 28 48 28
q52 0 52 -48q0 -18 -18 -40l-240 -236q-14 -14 -28 -14q-15 0 -26 14l-244 236q-14 14 -14 36q0 50 48 50q24 0 38 -14z" />
    <glyph glyph-name="ncaron" unicode="&#x148;" horiz-adv-x="1082" 
d="M292 796q91 154 294 154q140 0 238 -98q104 -104 104 -270v-534q0 -25 -19 -44q-19 -18 -45 -18q-25 0 -44 18q-18 19 -18 44v502q0 124 -70 205q-72 83 -186 83t-185 -78q-69 -77 -69 -198v-514q0 -25 -19 -44q-19 -18 -45 -18q-25 0 -44 18q-18 19 -18 44v838
q0 26 18 45q19 19 44 19q26 0 45 -19t19 -45v-90zM536 1208l186 186q28 28 48 28q52 0 52 -48q0 -18 -18 -40l-240 -236q-14 -14 -28 -14q-15 0 -26 14l-244 236q-14 14 -14 36q0 50 48 50q24 0 38 -14z" />
    <glyph glyph-name="napostrophe" unicode="&#x149;" horiz-adv-x="1208" 
d="M404 796q91 154 294 154q140 0 238 -98q104 -104 104 -270v-534q0 -25 -19 -44q-19 -18 -45 -18q-25 0 -44 18q-18 19 -18 44v502q0 124 -70 205q-72 83 -186 83t-185 -78q-69 -77 -69 -198v-514q0 -25 -19 -44q-19 -18 -45 -18q-25 0 -44 18q-18 19 -18 44v838
q0 26 18 45q19 19 44 19q26 0 45 -19t19 -45v-90z" />
    <glyph glyph-name="Eng" unicode="&#x14a;" horiz-adv-x="1460" 
d="M176 1388q0 14 11 24q10 10 25 10q18 0 28 -14l906 -1212v1150q0 27 20 48q20 20 48 20t48 -20q20 -21 20 -48v-1532q0 -378 -306 -378q-130 0 -224 88q-22 18 -22 44q0 23 16 38q16 16 40 16t40 -16q54 -54 142 -54q96 0 139 67q39 63 39 199v180l-834 1120v-1064
q0 -28 -20 -48q-19 -20 -48 -20q-28 0 -48 20t-20 48v1334z" />
    <glyph glyph-name="eng" unicode="&#x14b;" horiz-adv-x="1082" 
d="M292 796q97 164 294 164q140 0 238 -98q104 -104 104 -270v-778q0 -378 -298 -378q-132 0 -224 92q-16 16 -16 38q0 23 15 38q15 16 37 16q24 0 44 -20q56 -56 138 -56q96 0 139 72q39 66 39 200v744q0 115 -69 199q-74 89 -187 89t-185 -83q-69 -81 -69 -203v-514
q0 -25 -19 -44q-19 -18 -45 -18q-25 0 -44 18q-18 19 -18 44v838q0 26 18 45q19 19 44 19q26 0 45 -19t19 -45v-90z" />
    <glyph glyph-name="Omacron" unicode="&#x14c;" horiz-adv-x="1684" 
d="M421 279q171 -165 421 -165q248 0 420 165q176 168 176 421q0 252 -176 421q-172 165 -420 165q-249 0 -421 -165q-175 -169 -175 -421q0 -253 175 -421zM325 1211q212 203 517 203q304 0 516 -203q216 -207 216 -511q0 -305 -216 -511q-212 -203 -516 -203
q-305 0 -517 203q-215 205 -215 511q0 304 215 511zM1088 1754q21 0 35 -14q13 -15 13 -36t-13 -34q-14 -14 -35 -14h-494q-21 0 -35 14q-15 13 -15 34t15 36q14 14 35 14h494z" />
    <glyph glyph-name="omacron" unicode="&#x14d;" horiz-adv-x="1204" 
d="M334 205q109 -103 268 -103t268 103q110 104 110 263t-110 263q-109 103 -268 103t-268 -103q-110 -104 -110 -263t110 -263zM246 814q145 136 356 136q210 0 356 -136q148 -139 148 -346t-148 -346q-146 -136 -356 -136q-211 0 -356 136q-148 138 -148 346t148 346z
M850 1306q21 0 35 -14q13 -15 13 -36t-13 -34q-14 -14 -35 -14h-494q-21 0 -35 14q-15 13 -15 34t15 36q14 14 35 14h494z" />
    <glyph glyph-name="Obreve" unicode="&#x14e;" horiz-adv-x="1684" 
d="M325 1211q212 203 517 203q304 0 516 -203q216 -207 216 -511q0 -305 -216 -511q-212 -203 -516 -203q-305 0 -517 203q-215 205 -215 511q0 304 215 511zM421 279q171 -165 421 -165q248 0 420 165q176 168 176 421q0 252 -176 421q-172 165 -420 165q-249 0 -421 -165
q-175 -169 -175 -421q0 -253 175 -421zM946 1707q40 35 54 91l3 12l4 12q4 13 9 22q14 22 40 22q48 0 48 -60v-16q-14 -98 -98 -163q-77 -59 -166 -59t-166 59q-84 65 -98 163v16q0 60 48 60q26 0 40 -22q5 -9 10 -22l3 -12l3 -12q14 -56 55 -91q44 -39 105 -39t106 39z" />
    <glyph glyph-name="obreve" unicode="&#x14f;" horiz-adv-x="1204" 
d="M246 814q145 136 356 136q210 0 356 -136q148 -139 148 -346t-148 -346q-146 -136 -356 -136q-211 0 -356 136q-148 138 -148 346t148 346zM334 205q109 -103 268 -103t268 103q110 104 110 263t-110 263q-109 103 -268 103t-268 -103q-110 -104 -110 -263t110 -263z
M708 1259q40 35 54 91l3 12l4 12q4 13 9 22q14 22 40 22q48 0 48 -60v-16q-14 -98 -98 -163q-77 -59 -166 -59t-166 59q-84 65 -98 163v16q0 60 48 60q26 0 40 -22q5 -9 10 -22l3 -12l3 -12q14 -56 55 -91q44 -39 105 -39t106 39z" />
    <glyph glyph-name="Ohungarumlaut" unicode="&#x150;" horiz-adv-x="1684" 
d="M421 279q171 -165 421 -165q248 0 420 165q176 168 176 421q0 252 -176 421q-172 165 -420 165q-249 0 -421 -165q-175 -169 -175 -421q0 -253 175 -421zM325 1211q212 203 517 203q304 0 516 -203q216 -207 216 -511q0 -305 -216 -511q-212 -203 -516 -203
q-305 0 -517 203q-215 205 -215 511q0 304 215 511zM856 1788l-250 -236q-16 -16 -36 -16t-35 14t-15 34t20 40l242 232q22 22 46 22q20 0 35 -13q15 -15 15 -35q0 -23 -22 -42zM1216 1788l-250 -236q-16 -16 -36 -16t-35 14t-15 34t20 40l242 232q22 22 46 22q20 0 35 -13
q15 -15 15 -35q0 -23 -22 -42z" />
    <glyph glyph-name="ohungarumlaut" unicode="&#x151;" horiz-adv-x="1204" 
d="M334 205q109 -103 268 -103t268 103q110 104 110 263t-110 263q-109 103 -268 103t-268 -103q-110 -104 -110 -263t110 -263zM246 814q145 136 356 136q210 0 356 -136q148 -139 148 -346t-148 -346q-146 -136 -356 -136q-211 0 -356 136q-148 138 -148 346t148 346z
M626 1340l-250 -236q-16 -16 -36 -16t-35 14t-15 34t20 40l242 232q22 22 46 22q20 0 35 -13q15 -15 15 -35q0 -23 -22 -42zM986 1340l-250 -236q-16 -16 -36 -16t-35 14t-15 34t20 40l242 232q22 22 46 22q20 0 35 -13q15 -15 15 -35q0 -23 -22 -42z" />
    <glyph glyph-name="OE" unicode="&#x152;" horiz-adv-x="1648" 
d="M840 0q-307 0 -516 195q-214 199 -214 505q0 304 214 505q210 195 516 195h638q27 0 46 -19q18 -19 18 -45q0 -27 -18 -45q-19 -19 -46 -19h-462v-428h412q26 0 44 -18t18 -44q0 -25 -18 -44q-18 -18 -44 -18h-412v-592h482q27 0 46 -19q18 -19 18 -45q0 -27 -18 -45
q-19 -19 -46 -19h-658zM439 270q180 -153 441 -150v1158q-262 2 -441 -149q-193 -163 -193 -429q0 -267 193 -430z" />
    <glyph glyph-name="oe" unicode="&#x153;" horiz-adv-x="2046" 
d="M863 51q-120 -75 -265 -75q-206 0 -352 141q-148 143 -148 351q0 207 148 350q146 142 352 142q142 0 264 -79q118 -78 176 -203q55 130 167 205q115 77 261 77q198 0 341 -138t143 -330q0 -20 -14 -34q-15 -14 -36 -14h-792q10 -161 122 -259q105 -93 254 -93
q186 0 300 148q16 22 46 22q26 0 43 -17t17 -43q0 -22 -16 -38q-144 -188 -390 -188q-148 0 -268 76q-116 74 -176 198q-59 -125 -177 -199zM334 200q110 -108 268 -108t268 109t110 267t-110 268q-110 108 -268 108t-268 -108t-110 -268t110 -268zM1229 757
q-97 -86 -117 -217h710q-23 138 -118 220q-97 84 -238 84q-137 0 -237 -87z" />
    <glyph glyph-name="Racute" unicode="&#x154;" horiz-adv-x="1076" 
d="M402 748q197 7 292 88q80 68 80 180q0 118 -87 189q-89 71 -243 71h-132v-1222q0 -28 -20 -48q-19 -20 -48 -20q-28 0 -48 20t-20 48v1282q0 27 19 46q18 18 45 18h218q203 0 328 -108q124 -107 124 -278q0 -126 -71 -216q-93 -115 -291 -148l460 -562q16 -16 16 -40
q0 -25 -18 -44q-18 -18 -44 -18q-34 0 -50 26l-534 682q-6 9 -6 20q0 31 30 34zM664 1788l-250 -236q-16 -16 -36 -16t-35 14t-15 34t20 40l242 232q22 22 46 22q20 0 35 -13q15 -15 15 -35q0 -23 -22 -42z" />
    <glyph glyph-name="racute" unicode="&#x155;" horiz-adv-x="742" 
d="M166 886q0 26 18 45q19 19 44 19q26 0 45 -19t19 -45v-98q93 162 270 162q61 0 99 -13q51 -19 51 -59q0 -24 -18 -41q-17 -17 -40 -17q-10 0 -26 4q-60 16 -92 16q-100 0 -169 -79q-67 -77 -75 -191v-522q0 -25 -19 -44q-19 -18 -45 -18q-25 0 -44 18q-18 19 -18 44v838z
M564 1340l-250 -236q-16 -16 -36 -16t-35 14t-15 34t20 40l242 232q22 22 46 22q20 0 35 -13q15 -15 15 -35q0 -23 -22 -42z" />
    <glyph glyph-name="uni0156" unicode="&#x156;" horiz-adv-x="1076" 
d="M402 748q197 7 292 88q80 68 80 180q0 118 -87 189q-89 71 -243 71h-132v-1222q0 -28 -20 -48q-19 -20 -48 -20q-28 0 -48 20t-20 48v1282q0 27 19 46q18 18 45 18h218q203 0 328 -108q124 -107 124 -278q0 -126 -71 -216q-93 -115 -291 -148l460 -562q16 -16 16 -40
q0 -25 -18 -44q-18 -18 -44 -18q-34 0 -50 26l-534 682q-6 9 -6 20q0 31 30 34zM456 -494l2 9l2 7l78 252q21 78 72 78q50 0 50 -60q0 -22 -12 -46l-96 -246q-23 -56 -52 -56q-46 0 -46 44q0 7 2 18z" />
    <glyph glyph-name="uni0157" unicode="&#x157;" horiz-adv-x="742" 
d="M166 886q0 26 18 45q19 19 44 19q26 0 45 -19t19 -45v-98q93 162 270 162q61 0 99 -13q51 -19 51 -59q0 -24 -18 -41q-17 -17 -40 -17q-10 0 -26 4q-60 16 -92 16q-100 0 -169 -79q-67 -77 -75 -191v-522q0 -25 -19 -44q-19 -18 -45 -18q-25 0 -44 18q-18 19 -18 44v838z
M82 -494l2 9l2 7l78 252q21 78 72 78q50 0 50 -60q0 -22 -12 -46l-96 -246q-23 -56 -52 -56q-46 0 -46 44q0 7 2 18z" />
    <glyph glyph-name="Rcaron" unicode="&#x158;" horiz-adv-x="1080" 
d="M406 748q197 7 292 88q80 68 80 180q0 118 -87 189q-89 71 -243 71h-132v-1222q0 -28 -20 -48q-19 -20 -48 -20q-28 0 -48 20t-20 48v1282q0 27 19 46q18 18 45 18h218q203 0 328 -108q124 -107 124 -278q0 -126 -71 -216q-93 -115 -291 -148l460 -562q16 -16 16 -40
q0 -25 -18 -44q-18 -18 -44 -18q-34 0 -50 26l-534 682q-6 9 -6 20q0 31 30 34zM472 1656l186 186q28 28 48 28q52 0 52 -48q0 -18 -18 -40l-240 -236q-14 -14 -28 -14q-15 0 -26 14l-244 236q-14 14 -14 36q0 50 48 50q24 0 38 -14z" />
    <glyph glyph-name="rcaron" unicode="&#x159;" horiz-adv-x="742" 
d="M166 886q0 26 18 45q19 19 44 19q26 0 45 -19t19 -45v-98q93 162 270 162q61 0 99 -13q51 -19 51 -59q0 -24 -18 -41q-17 -17 -40 -17q-10 0 -26 4q-60 16 -92 16q-100 0 -169 -79q-67 -77 -75 -191v-522q0 -25 -19 -44q-19 -18 -45 -18q-25 0 -44 18q-18 19 -18 44v838z
M400 1208l186 186q28 28 48 28q52 0 52 -48q0 -18 -18 -40l-240 -236q-14 -14 -28 -14q-15 0 -26 14l-244 236q-14 14 -14 36q0 50 48 50q24 0 38 -14z" />
    <glyph glyph-name="Sacute" unicode="&#x15a;" horiz-adv-x="1046" 
d="M850 645q86 -108 86 -267q0 -166 -109 -275q-118 -117 -317 -117q-125 0 -235 60q-109 60 -177 164q-10 17 -10 34q0 26 18 44q19 18 44 18q33 0 52 -28q53 -79 136 -122q81 -42 174 -42q124 0 206 78q82 76 82 188q0 115 -64 192q-71 83 -242 154q-160 66 -234 151
q-82 93 -82 229q0 131 94 219q96 89 244 89q173 0 274 -126q20 -24 20 -44q0 -24 -18 -41t-44 -17q-24 0 -46 22q-69 78 -178 78q-95 0 -152 -50q-58 -50 -58 -134q0 -93 58 -152q58 -60 206 -120q186 -77 272 -185zM668 1788l-250 -236q-16 -16 -36 -16t-35 14t-15 34
t20 40l242 232q22 22 46 22q20 0 35 -13q15 -15 15 -35q0 -23 -22 -42z" />
    <glyph glyph-name="sacute" unicode="&#x15b;" horiz-adv-x="774" 
d="M92 146q-16 24 -16 38q0 23 16 38q16 16 38 16q29 0 46 -24q89 -116 196 -116q86 0 138 50q50 47 50 118q0 74 -47 119q-42 41 -159 89q-230 94 -230 244q0 102 73 168q70 64 177 64q132 0 216 -100q12 -12 12 -34q0 -21 -15 -35q-15 -15 -37 -15t-38 16q-52 58 -128 58
q-60 0 -96 -32q-36 -33 -36 -84q0 -59 45 -96q36 -30 145 -76q129 -53 188 -123q56 -67 56 -159q0 -122 -79 -200q-84 -84 -229 -84q-176 0 -286 160zM542 1340l-250 -236q-16 -16 -36 -16t-35 14t-15 34t20 40l242 232q22 22 46 22q20 0 35 -13q15 -15 15 -35
q0 -23 -22 -42z" />
    <glyph glyph-name="Scircumflex" unicode="&#x15c;" horiz-adv-x="1046" 
d="M850 645q86 -108 86 -267q0 -166 -109 -275q-118 -117 -317 -117q-125 0 -235 60q-109 60 -177 164q-10 17 -10 34q0 26 18 44q19 18 44 18q33 0 52 -28q53 -79 136 -122q81 -42 174 -42q124 0 206 78q82 76 82 188q0 115 -64 192q-71 83 -242 154q-160 66 -234 151
q-82 93 -82 229q0 131 94 219q96 89 244 89q173 0 274 -126q20 -24 20 -44q0 -24 -18 -41t-44 -17q-24 0 -46 22q-69 78 -178 78q-95 0 -152 -50q-58 -50 -58 -134q0 -93 58 -152q58 -60 206 -120q186 -77 272 -185zM282 1552q-16 -16 -38 -16q-21 0 -34 14q-14 13 -14 34
q0 24 18 42l240 236q6 6 12 9q7 5 14 5q8 0 16 -5l6 -4l6 -5l240 -238q18 -18 18 -40q0 -21 -13 -34q-14 -14 -35 -14q-20 0 -38 14l-200 200z" />
    <glyph glyph-name="scircumflex" unicode="&#x15d;" horiz-adv-x="774" 
d="M92 146q-16 24 -16 38q0 23 16 38q16 16 38 16q29 0 46 -24q89 -116 196 -116q86 0 138 50q50 47 50 118q0 74 -47 119q-42 41 -159 89q-230 94 -230 244q0 102 73 168q70 64 177 64q132 0 216 -100q12 -12 12 -34q0 -21 -15 -35q-15 -15 -37 -15t-38 16q-52 58 -128 58
q-60 0 -96 -32q-36 -33 -36 -84q0 -59 45 -96q36 -30 145 -76q129 -53 188 -123q56 -67 56 -159q0 -122 -79 -200q-84 -84 -229 -84q-176 0 -286 160zM158 1104q-16 -16 -38 -16q-21 0 -34 14q-14 13 -14 34q0 24 18 42l240 236q6 6 12 9q7 5 14 5q8 0 16 -5l6 -4l6 -5
l240 -238q18 -18 18 -40q0 -21 -13 -34q-14 -14 -35 -14q-20 0 -38 14l-200 200z" />
    <glyph glyph-name="Scedilla" unicode="&#x15e;" horiz-adv-x="1046" 
d="M315 -363q12 13 29 13q18 0 28 -10q45 -32 94 -32q60 0 94 30q36 30 36 86q0 87 -130 122q-58 16 -40 54l38 78q-113 10 -209 69q-95 58 -157 153q-10 17 -10 34q0 25 19 44q19 18 45 18q18 0 39 -19q8 -7 17 -18l8 -10l8 -9q114 -136 288 -136q123 0 206 81
q82 78 82 191q0 115 -64 193q-71 86 -242 157q-159 65 -234 154q-82 95 -82 232q0 131 94 221q96 91 244 91q167 0 274 -126q20 -24 20 -44q0 -24 -18 -41t-44 -17q-24 0 -46 22q-69 78 -178 78q-94 0 -152 -53q-58 -52 -58 -135q0 -93 59 -155q59 -63 205 -123
q186 -78 272 -188t86 -268q0 -156 -96 -264q-104 -117 -280 -130l-17 -33l-17 -33q85 -23 131 -77q43 -50 43 -115q0 -77 -52 -132q-62 -66 -176 -66q-18 0 -45 5q-30 6 -55 15q-68 26 -68 64q0 17 11 29z" />
    <glyph glyph-name="scedilla" unicode="&#x15f;" horiz-adv-x="774" 
d="M189 -364q12 12 27 12q19 0 36 -14q35 -26 86 -26q62 0 97 36q31 32 31 80q0 55 -47 92q-46 37 -115 40q-18 0 -18 18q0 6 4 14l46 92q-154 18 -244 156q-16 24 -16 38q0 21 17 38q16 16 37 16q29 0 46 -24q89 -116 196 -116q86 0 138 50q50 47 50 118q0 75 -47 124
q-45 47 -159 94q-230 94 -230 254q0 102 73 168q72 64 177 64q132 0 216 -100q12 -12 12 -34q0 -21 -15 -35q-15 -15 -37 -15q-25 0 -38 16q-48 58 -128 58q-57 0 -95 -31q-39 -33 -39 -87q0 -58 46 -99q41 -37 146 -81q244 -100 244 -294q0 -111 -65 -185q-68 -79 -189 -91
l-34 -68q84 -23 130 -77q42 -51 42 -115q0 -74 -52 -130q-63 -68 -176 -68q-51 0 -105 22q-61 26 -61 60q0 18 13 30z" />
    <glyph glyph-name="Scaron" unicode="&#x160;" horiz-adv-x="1046" 
d="M850 645q86 -108 86 -267q0 -166 -109 -275q-118 -117 -317 -117q-125 0 -235 60q-109 60 -177 164q-10 17 -10 34q0 26 18 44q19 18 44 18q33 0 52 -28q53 -79 136 -122q81 -42 174 -42q124 0 206 78q82 76 82 188q0 115 -64 192q-71 83 -242 154q-160 66 -234 151
q-82 93 -82 229q0 131 94 219q96 89 244 89q173 0 274 -126q20 -24 20 -44q0 -24 -18 -41t-44 -17q-24 0 -46 22q-69 78 -178 78q-95 0 -152 -50q-58 -50 -58 -134q0 -93 58 -152q58 -60 206 -120q186 -77 272 -185zM480 1656l186 186q28 28 48 28q52 0 52 -48
q0 -18 -18 -40l-240 -236q-14 -14 -28 -14q-15 0 -26 14l-244 236q-14 14 -14 36q0 50 48 50q24 0 38 -14z" />
    <glyph glyph-name="scaron" unicode="&#x161;" horiz-adv-x="774" 
d="M92 146q-16 24 -16 38q0 23 16 38q16 16 38 16q29 0 46 -24q89 -116 196 -116q86 0 138 50q50 47 50 118q0 74 -47 119q-42 41 -159 89q-230 94 -230 244q0 102 73 168q70 64 177 64q132 0 216 -100q12 -12 12 -34q0 -21 -15 -35q-15 -15 -37 -15t-38 16q-52 58 -128 58
q-60 0 -96 -32q-36 -33 -36 -84q0 -59 45 -96q36 -30 145 -76q129 -53 188 -123q56 -67 56 -159q0 -122 -79 -200q-84 -84 -229 -84q-176 0 -286 160zM356 1208l186 186q28 28 48 28q52 0 52 -48q0 -18 -18 -40l-240 -236q-14 -14 -28 -14q-15 0 -26 14l-244 236
q-14 14 -14 36q0 50 48 50q24 0 38 -14z" />
    <glyph glyph-name="uni0162" unicode="&#x162;" horiz-adv-x="932" 
d="M257 -364q12 12 29 12q12 0 28 -8q45 -32 92 -32q60 0 95 32q35 31 35 84q0 55 -46 92q-46 35 -116 40q-18 4 -18 18q0 6 4 14l58 114q-20 40 -20 86v1184h-290q-27 0 -45 19q-19 18 -19 45q0 26 19 45q18 19 45 19h716q26 0 45 -19t19 -45q0 -27 -19 -45
q-19 -19 -45 -19h-290v-1214q0 -35 -24 -62l-44 -82q85 -23 131 -77q43 -50 43 -115q0 -77 -52 -132q-62 -66 -176 -66q-53 0 -106 22q-62 26 -62 60q0 18 13 30z" />
    <glyph glyph-name="uni0163" unicode="&#x163;" horiz-adv-x="646" 
d="M556 936q24 0 41 -17t17 -41t-17 -41t-41 -17h-208v-772q0 -26 -18 -44l-44 -90q85 -23 131 -77q43 -50 43 -115q0 -77 -52 -132q-62 -66 -176 -66q-53 0 -106 22q-62 26 -62 60q0 18 13 30q12 12 29 12q12 0 28 -8q35 -32 92 -32q63 0 99 36q31 32 31 80q0 54 -48 92
q-46 35 -114 40q-18 4 -18 18q0 6 4 14l60 116q-7 8 -12 21q-6 13 -6 23v772h-122q-24 0 -41 17t-17 41t17 41t41 17h122v214q0 26 19 45q18 19 45 19q25 0 44 -19q18 -19 18 -45v-214h208z" />
    <glyph glyph-name="Tcaron" unicode="&#x164;" horiz-adv-x="932" 
d="M108 1272q-27 0 -45 19q-19 18 -19 45q0 26 19 45q18 19 45 19h716q26 0 45 -19t19 -45q0 -27 -19 -45q-19 -19 -45 -19h-290v-1218q0 -28 -20 -48q-21 -20 -48 -20q-28 0 -48 20t-20 48v1218h-290zM462 1656l186 186q28 28 48 28q52 0 52 -48q0 -18 -18 -40l-240 -236
q-14 -14 -28 -14q-15 0 -26 14l-244 236q-14 14 -14 36q0 50 48 50q24 0 38 -14z" />
    <glyph glyph-name="tcaron" unicode="&#x165;" horiz-adv-x="940" 
d="M556 936q24 0 41 -17t17 -41t-17 -41t-41 -17h-208v-772q0 -25 -18 -44q-18 -18 -44 -18q-27 0 -45 18q-19 18 -19 44v772h-122q-24 0 -41 17t-17 41t17 41t41 17h122v214q0 26 19 45q18 19 45 19q25 0 44 -19q18 -19 18 -45v-214h208zM647 964l3 8l2 8l96 328
q22 76 74 76q30 0 49 -21q17 -20 17 -47q0 -15 -14 -54l-124 -322q-16 -48 -52 -48q-23 0 -38 15q-16 15 -16 37q0 8 3 20z" />
    <glyph glyph-name="Tbar" unicode="&#x166;" horiz-adv-x="932" 
d="M398 646h-214q-21 0 -34 15q-14 14 -14 35t14 36q13 14 34 14h214v526h-290q-27 0 -45 19q-19 18 -19 45q0 26 19 45q18 19 45 19h716q26 0 45 -19t19 -45q0 -27 -19 -45q-19 -19 -45 -19h-290v-526h212q21 0 36 -14q14 -15 14 -36t-14 -35q-15 -15 -36 -15h-212v-598
q0 -25 -21 -44q-21 -18 -47 -18q-27 0 -47 18q-21 19 -21 44v598z" />
    <glyph glyph-name="tbar" unicode="&#x167;" horiz-adv-x="646" 
d="M222 936v214q0 26 19 45q18 19 45 19q25 0 44 -19q18 -19 18 -45v-214h208q24 0 41 -17t17 -41t-17 -41t-41 -17h-208v-272h176q21 0 36 -14q14 -15 14 -36t-14 -34q-15 -14 -36 -14h-176v-402q0 -25 -18 -44q-18 -18 -44 -18q-27 0 -45 18q-19 18 -19 44v402h-96
q-21 0 -35 14q-15 13 -15 34t15 36q14 14 35 14h96v272h-118q-24 0 -41 17t-17 41t17 41t41 17h118z" />
    <glyph glyph-name="Utilde" unicode="&#x168;" horiz-adv-x="1282" 
d="M879 212q91 102 91 280v854q0 27 20 48q19 20 46 20q28 0 48 -20q20 -21 20 -48v-856q0 -232 -137 -372q-129 -132 -327 -132t-327 132q-137 140 -137 372v856q0 27 20 48q20 20 48 20q27 0 48 -20q20 -21 20 -48v-854q0 -178 91 -280q89 -98 237 -98q150 0 239 98z
M658 1758l14 -13l13 -11q15 -13 26 -21q29 -19 61 -19q50 0 78 50l10 18q6 10 11 16q15 16 37 16q19 0 34 -12q16 -14 16 -34q0 -10 -4 -22q-18 -60 -66 -97q-46 -35 -102 -35q-78 0 -136 52l-17 14l-16 13q-18 15 -29 22q-30 21 -60 21q-50 0 -77 -51l-10 -19
q-5 -10 -11 -16q-14 -16 -36 -16q-19 0 -34 13q-16 13 -16 33q0 16 2 24q19 60 67 97q46 35 103 35q77 0 142 -58z" />
    <glyph glyph-name="utilde" unicode="&#x169;" horiz-adv-x="1088" 
d="M796 140q-91 -154 -294 -154q-140 0 -238 97q-104 104 -104 271v532q0 26 19 45q18 19 45 19q25 0 44 -19q18 -19 18 -45v-502q0 -123 70 -204q71 -84 186 -84q114 0 185 79q69 77 69 197v514q0 26 19 45q18 19 45 19q25 0 44 -19q18 -19 18 -45v-838q0 -25 -18 -44
q-18 -18 -44 -18q-27 0 -45 18q-19 18 -19 44v92zM554 1310l14 -13l13 -11q15 -13 26 -21q29 -19 61 -19q50 0 78 50l10 18q6 10 11 16q15 16 37 16q19 0 34 -12q16 -14 16 -34q0 -10 -4 -22q-18 -60 -66 -97q-46 -35 -102 -35q-78 0 -136 52l-17 14l-16 13q-18 15 -29 22
q-30 21 -60 21q-50 0 -77 -51l-10 -19q-5 -10 -11 -16q-14 -16 -36 -16q-19 0 -34 13q-16 13 -16 33q0 16 2 24q19 60 67 97q46 35 103 35q77 0 142 -58z" />
    <glyph glyph-name="Umacron" unicode="&#x16a;" horiz-adv-x="1282" 
d="M879 212q91 102 91 280v854q0 27 20 48q19 20 46 20q28 0 48 -20q20 -21 20 -48v-856q0 -232 -137 -372q-129 -132 -327 -132t-327 132q-137 140 -137 372v856q0 27 20 48q20 20 48 20q27 0 48 -20q20 -21 20 -48v-854q0 -178 91 -280q89 -98 237 -98q150 0 239 98z
M898 1754q21 0 35 -14q13 -15 13 -36t-13 -34q-14 -14 -35 -14h-494q-21 0 -35 14q-15 13 -15 34t15 36q14 14 35 14h494z" />
    <glyph glyph-name="umacron" unicode="&#x16b;" horiz-adv-x="1088" 
d="M796 140q-91 -154 -294 -154q-140 0 -238 97q-104 104 -104 271v532q0 26 19 45q18 19 45 19q25 0 44 -19q18 -19 18 -45v-502q0 -123 70 -204q71 -84 186 -84q114 0 185 79q69 77 69 197v514q0 26 19 45q18 19 45 19q25 0 44 -19q18 -19 18 -45v-838q0 -25 -18 -44
q-18 -18 -44 -18q-27 0 -45 18q-19 18 -19 44v92zM794 1306q21 0 35 -14q13 -15 13 -36t-13 -34q-14 -14 -35 -14h-494q-21 0 -35 14q-15 13 -15 34t15 36q14 14 35 14h494z" />
    <glyph glyph-name="Ubreve" unicode="&#x16c;" horiz-adv-x="1282" 
d="M879 212q91 102 91 280v854q0 27 20 48q19 20 46 20q28 0 48 -20q20 -21 20 -48v-856q0 -232 -137 -372q-129 -132 -327 -132t-327 132q-137 140 -137 372v856q0 27 20 48q20 20 48 20q27 0 48 -20q20 -21 20 -48v-854q0 -178 91 -280q89 -98 237 -98q150 0 239 98z
M756 1709q40 35 54 91l3 12l4 12q4 13 9 22q14 22 40 22q48 0 48 -60v-16q-14 -98 -98 -163q-77 -59 -166 -59t-166 59q-84 65 -98 163v16q0 60 48 60q26 0 40 -22q5 -9 10 -22l3 -12l3 -12q14 -56 55 -91q44 -39 105 -39t106 39z" />
    <glyph glyph-name="ubreve" unicode="&#x16d;" horiz-adv-x="1088" 
d="M796 140q-91 -154 -294 -154q-140 0 -238 97q-104 104 -104 271v532q0 26 19 45q18 19 45 19q25 0 44 -19q18 -19 18 -45v-502q0 -123 70 -204q71 -84 186 -84q114 0 185 79q69 77 69 197v514q0 26 19 45q18 19 45 19q25 0 44 -19q18 -19 18 -45v-838q0 -25 -18 -44
q-18 -18 -44 -18q-27 0 -45 18q-19 18 -19 44v92zM652 1259q40 35 54 91l3 12l4 12q4 13 9 22q14 22 40 22q48 0 48 -60v-16q-14 -98 -98 -163q-77 -59 -166 -59t-166 59q-84 65 -98 163v16q0 60 48 60q26 0 40 -22q5 -9 10 -22l3 -12l3 -12q14 -56 55 -91q44 -39 105 -39
t106 39z" />
    <glyph glyph-name="Uring" unicode="&#x16e;" horiz-adv-x="1282" 
d="M879 212q91 102 91 280v854q0 27 20 48q19 20 46 20q28 0 48 -20q20 -21 20 -48v-856q0 -232 -137 -372q-129 -132 -327 -132t-327 132q-137 140 -137 372v856q0 27 20 48q20 20 48 20q27 0 48 -20q20 -21 20 -48v-854q0 -178 91 -280q89 -98 237 -98q150 0 239 98z
M514 1841q56 53 136 53t137 -53q57 -55 57 -135t-57 -134t-137 -54t-136 54t-56 134t56 135zM572 1628q32 -32 78 -32q47 0 78 32q32 32 32 78q0 45 -32 78q-32 32 -78 32t-78 -32q-32 -33 -32 -78q0 -46 32 -78z" />
    <glyph glyph-name="uring" unicode="&#x16f;" horiz-adv-x="1088" 
d="M796 140q-91 -154 -294 -154q-140 0 -238 97q-104 104 -104 271v532q0 26 19 45q18 19 45 19q25 0 44 -19q18 -19 18 -45v-502q0 -123 70 -204q71 -84 186 -84q114 0 185 79q69 77 69 197v514q0 26 19 45q18 19 45 19q25 0 44 -19q18 -19 18 -45v-838q0 -25 -18 -44
q-18 -18 -44 -18q-27 0 -45 18q-19 18 -19 44v92zM410 1391q56 53 136 53t137 -53q57 -55 57 -135t-57 -134t-137 -54t-136 54t-56 134t56 135zM468 1178q32 -32 78 -32q47 0 78 32q32 32 32 78q0 45 -32 78q-32 32 -78 32t-78 -32q-32 -33 -32 -78q0 -46 32 -78z" />
    <glyph glyph-name="Uhungarumlaut" unicode="&#x170;" horiz-adv-x="1282" 
d="M879 212q91 102 91 280v854q0 27 20 48q19 20 46 20q28 0 48 -20q20 -21 20 -48v-856q0 -232 -137 -372q-129 -132 -327 -132t-327 132q-137 140 -137 372v856q0 27 20 48q20 20 48 20q27 0 48 -20q20 -21 20 -48v-854q0 -178 91 -280q89 -98 237 -98q150 0 239 98z
M680 1788l-250 -236q-16 -16 -36 -16t-35 14t-15 34t20 40l242 232q22 22 46 22q20 0 35 -13q15 -15 15 -35q0 -23 -22 -42zM1040 1788l-250 -236q-16 -16 -36 -16t-35 14t-15 34t20 40l242 232q22 22 46 22q20 0 35 -13q15 -15 15 -35q0 -23 -22 -42z" />
    <glyph glyph-name="uhungarumlaut" unicode="&#x171;" horiz-adv-x="1086" 
d="M796 140q-91 -154 -294 -154q-140 0 -238 97q-104 104 -104 271v532q0 26 19 45q18 19 45 19q25 0 44 -19q18 -19 18 -45v-502q0 -123 70 -204q71 -84 186 -84q114 0 185 79q69 77 69 197v514q0 26 19 45q18 19 45 19q25 0 44 -19q18 -19 18 -45v-838q0 -25 -18 -44
q-18 -18 -44 -18q-27 0 -45 18q-19 18 -19 44v92zM556 1340l-250 -236q-16 -16 -36 -16t-35 14t-15 34t20 40l242 232q22 22 46 22q20 0 35 -13q15 -15 15 -35q0 -23 -22 -42zM916 1340l-250 -236q-16 -16 -36 -16t-35 14t-15 34t20 40l242 232q22 22 46 22q20 0 35 -13
q15 -15 15 -35q0 -23 -22 -42z" />
    <glyph glyph-name="Uogonek" unicode="&#x172;" horiz-adv-x="1282" 
d="M728 -438q-91 0 -148 57q-56 55 -56 135q0 121 122 224q-207 8 -332 130q-138 134 -138 372v866q0 27 20 48q20 20 48 20q27 0 48 -20q20 -21 20 -48v-864q0 -179 92 -280q88 -98 236 -98q150 0 239 98q91 102 91 280v864q0 27 20 48q19 20 46 20q28 0 48 -20
q20 -21 20 -48v-866q0 -196 -99 -328q-93 -125 -249 -162q-128 -107 -128 -218q0 -58 36 -91q33 -31 86 -31q15 0 35 9t29 9q18 0 31 -13q13 -12 13 -29q0 -25 -26 -40q-45 -24 -104 -24z" />
    <glyph glyph-name="uogonek" unicode="&#x173;" horiz-adv-x="1086" 
d="M796 140q-91 -154 -294 -154q-140 0 -238 97q-104 104 -104 271v532q0 26 19 45q18 19 45 19q25 0 44 -19q18 -19 18 -45v-502q0 -123 70 -204q71 -84 186 -84q114 0 185 79q69 77 69 197v514q0 26 19 45q18 19 45 19q25 0 44 -19q18 -19 18 -45v-838q0 -40 -36 -56
q-130 -111 -130 -220q0 -55 33 -89q34 -33 89 -33q15 0 35 9t29 9q18 0 31 -13q13 -12 13 -29q0 -25 -26 -40q-45 -24 -104 -24q-91 0 -148 57q-56 55 -56 135q0 142 160 252q-16 16 -16 42v92z" />
    <glyph glyph-name="Wcircumflex" unicode="&#x174;" horiz-adv-x="1958" 
d="M978 1138l-378 -1142q-9 -22 -34 -22q-28 0 -34 22l-476 1338q-4 16 -4 24q0 27 19 47q19 19 45 19q46 0 64 -50l382 -1124l382 1148q11 28 34 28q24 0 34 -28l382 -1148l382 1124q14 50 64 50q27 0 46 -19q18 -20 18 -47q0 -16 -4 -24l-474 -1338q-9 -22 -34 -22
q-28 0 -34 22zM780 1552q-16 -16 -38 -16q-21 0 -34 14q-14 13 -14 34q0 24 18 42l240 236q6 6 12 9q7 5 14 5q8 0 16 -5l6 -4l6 -5l240 -238q18 -18 18 -40q0 -21 -13 -34q-14 -14 -35 -14q-20 0 -38 14l-200 200z" />
    <glyph glyph-name="wcircumflex" unicode="&#x175;" horiz-adv-x="1530" 
d="M472 0q-10 -26 -34 -26t-34 24l-360 878q-4 12 -4 24q0 24 17 41t41 17q42 0 56 -34l284 -730l292 740q10 26 34 26t34 -26l292 -740l284 730q14 34 56 34q24 0 41 -17t17 -41q0 -12 -4 -24l-360 -878q-10 -24 -34 -24t-34 26l-292 746zM566 1104q-16 -16 -38 -16
q-21 0 -34 14q-14 13 -14 34q0 24 18 42l240 236q6 6 12 9q7 5 14 5q8 0 16 -5l6 -4l6 -5l240 -238q18 -18 18 -40q0 -21 -13 -34q-14 -14 -35 -14q-20 0 -38 14l-200 200z" />
    <glyph glyph-name="Ycircumflex" unicode="&#x176;" horiz-adv-x="1190" 
d="M546 6q-20 20 -20 48v514l-468 740q-10 17 -10 36q0 29 21 49q21 21 49 21q32 0 64 -44l412 -670l414 670q26 44 62 44q29 0 49 -21q21 -20 21 -49q0 -21 -10 -34l-468 -742v-514q0 -28 -20 -48q-19 -20 -48 -20q-28 0 -48 20zM396 1552q-16 -16 -38 -16q-21 0 -34 14
q-14 13 -14 34q0 24 18 42l240 236q6 6 12 9q7 5 14 5q8 0 16 -5l6 -4l6 -5l240 -238q18 -18 18 -40q0 -21 -13 -34q-14 -14 -35 -14q-20 0 -38 14l-200 200z" />
    <glyph glyph-name="ycircumflex" unicode="&#x177;" horiz-adv-x="974" 
d="M85 940q18 18 43 18q42 0 62 -46l288 -764l306 764q18 46 58 46q27 0 46 -18q18 -18 18 -44q0 -6 -4 -22l-570 -1420q-17 -42 -62 -42q-25 0 -43 18q-17 18 -17 44q0 16 6 28l198 496l-340 870q-6 12 -6 28q0 26 17 44zM278 1104q-16 -16 -38 -16q-21 0 -34 14
q-14 13 -14 34q0 24 18 42l240 236q6 6 12 9q7 5 14 5q8 0 16 -5l6 -4l6 -5l240 -238q18 -18 18 -40q0 -21 -13 -34q-14 -14 -35 -14q-20 0 -38 14l-200 200z" />
    <glyph glyph-name="Ydieresis" unicode="&#x178;" horiz-adv-x="1190" 
d="M546 6q-20 20 -20 48v514l-468 740q-10 17 -10 36q0 29 21 49q21 21 49 21q32 0 64 -44l412 -670l414 670q26 44 62 44q29 0 49 -21q21 -20 21 -49q0 -21 -10 -34l-468 -742v-514q0 -28 -20 -48q-19 -20 -48 -20q-28 0 -48 20zM348 1648q-24 24 -24 58q0 33 24 57
q24 23 58 23q33 0 58 -23q24 -24 24 -57q0 -34 -24 -58q-25 -24 -58 -24q-34 0 -58 24zM726 1648q-24 24 -24 58q0 33 24 57q24 23 58 23q33 0 58 -23q24 -24 24 -57q0 -34 -24 -58q-25 -24 -58 -24q-34 0 -58 24z" />
    <glyph glyph-name="Zacute" unicode="&#x179;" horiz-adv-x="990" 
d="M240 128h648q27 0 46 -19q18 -19 18 -45q0 -27 -18 -45q-19 -19 -46 -19h-824q-30 0 -30 28q0 4 2 10l2 4l2 4l654 1226h-536q-27 0 -45 19q-19 18 -19 45q0 26 19 45q18 19 45 19h710q28 0 28 -30q0 -8 -4 -16zM680 1788l-250 -236q-16 -16 -36 -16t-35 14t-15 34t20 40
l242 232q22 22 46 22q20 0 35 -13q15 -15 15 -35q0 -23 -22 -42z" />
    <glyph glyph-name="zacute" unicode="&#x17a;" horiz-adv-x="810" 
d="M62 40l452 780h-354q-24 0 -41 17t-17 41t17 41t41 17h522q26 0 26 -26q0 -7 -6 -16l-458 -778h462q24 0 41 -17t17 -41t-17 -41t-41 -17h-624q-26 0 -26 24q0 7 6 16zM562 1340l-250 -236q-16 -16 -36 -16t-35 14t-15 34t20 40l242 232q22 22 46 22q20 0 35 -13
q15 -15 15 -35q0 -23 -22 -42z" />
    <glyph glyph-name="Zdotaccent" unicode="&#x17b;" horiz-adv-x="990" 
d="M240 128h648q27 0 46 -19q18 -19 18 -45q0 -27 -18 -45q-19 -19 -46 -19h-824q-30 0 -30 28q0 4 2 10l2 4l2 4l654 1226h-536q-27 0 -45 19q-19 18 -19 45q0 26 19 45q18 19 45 19h710q28 0 28 -30q0 -8 -4 -16zM427 1648q-25 24 -25 58q0 33 25 57q24 23 57 23
q34 0 58 -23q24 -24 24 -57q0 -34 -24 -58q-23 -24 -58 -24q-33 0 -57 24z" />
    <glyph glyph-name="zdotaccent" unicode="&#x17c;" horiz-adv-x="810" 
d="M62 40l452 780h-354q-24 0 -41 17t-17 41t17 41t41 17h522q26 0 26 -26q0 -7 -6 -16l-458 -778h462q24 0 41 -17t17 -41t-17 -41t-41 -17h-624q-26 0 -26 24q0 7 6 16zM335 1200q-25 24 -25 58q0 33 25 57q24 23 57 23q34 0 58 -23q24 -24 24 -57q0 -34 -24 -58
q-23 -24 -58 -24q-33 0 -57 24z" />
    <glyph glyph-name="Zcaron" unicode="&#x17d;" horiz-adv-x="990" 
d="M240 128h648q27 0 46 -19q18 -19 18 -45q0 -27 -18 -45q-19 -19 -46 -19h-824q-30 0 -30 28q0 4 2 10l2 4l2 4l654 1226h-536q-27 0 -45 19q-19 18 -19 45q0 26 19 45q18 19 45 19h710q28 0 28 -30q0 -8 -4 -16zM486 1656l186 186q28 28 48 28q52 0 52 -48q0 -18 -18 -40
l-240 -236q-14 -14 -28 -14q-15 0 -26 14l-244 236q-14 14 -14 36q0 50 48 50q24 0 38 -14z" />
    <glyph glyph-name="zcaron" unicode="&#x17e;" horiz-adv-x="810" 
d="M62 40l452 780h-354q-24 0 -41 17t-17 41t17 41t41 17h522q26 0 26 -26q0 -7 -6 -16l-458 -778h462q24 0 41 -17t17 -41t-17 -41t-41 -17h-624q-26 0 -26 24q0 7 6 16zM398 1208l186 186q28 28 48 28q52 0 52 -48q0 -18 -18 -40l-240 -236q-14 -14 -28 -14q-15 0 -26 14
l-244 236q-14 14 -14 36q0 50 48 50q24 0 38 -14z" />
    <glyph glyph-name="longs" unicode="&#x17f;" horiz-adv-x="668" 
d="M348 1138v-1090q0 -25 -18 -44q-18 -18 -44 -18q-27 0 -45 18q-19 18 -19 44v772h-122q-24 0 -41 17t-17 41t17 41t41 17h122v208q0 183 84 280q83 96 234 96q71 0 145 -36q81 -40 81 -88q0 -22 -17 -39q-16 -17 -39 -17q-13 0 -66 36q-54 36 -104 36q-192 0 -192 -274z
" />
    <glyph glyph-name="florin" unicode="&#x192;" horiz-adv-x="646" 
d="M326 -152q0 -194 -73 -299q-79 -111 -233 -111q-89 0 -164 40q-74 39 -74 84q0 23 17 39q17 17 39 17t42 -20q52 -52 128 -52q95 0 145 72q47 68 47 194v1008h-124q-24 0 -40 17t-16 41q0 23 16 40q17 18 40 18h124v210q0 183 82 280q81 96 228 96q127 0 216 -86
q18 -22 18 -42q0 -22 -17 -38q-16 -16 -39 -16q-24 0 -42 18q-58 54 -130 54q-190 0 -190 -270v-206h252q22 0 39 -18q17 -17 17 -40q0 -24 -17 -41q-16 -17 -39 -17h-252v-972z" />
    <glyph glyph-name="Ohorn" unicode="&#x1a0;" horiz-adv-x="1684" 
d="M1392 1624q16 16 40 16q45 0 72 -74q22 -61 22 -130q0 -154 -142 -248q190 -206 190 -488q0 -305 -216 -511q-212 -203 -516 -203q-305 0 -517 203q-215 205 -215 511q0 304 215 511q212 203 517 203q291 0 486 -174q98 67 98 172q0 72 -38 138q-12 24 -12 36q0 23 16 38
zM421 279q171 -165 421 -165q248 0 420 165q176 168 176 421q0 252 -176 421q-172 165 -420 165q-249 0 -421 -165q-175 -169 -175 -421q0 -253 175 -421z" />
    <glyph glyph-name="ohorn" unicode="&#x1a1;" horiz-adv-x="1208" 
d="M996 778q116 -132 116 -310q0 -206 -150 -345q-147 -137 -358 -137q-210 0 -356 137q-150 139 -150 345t150 345q146 137 356 137q207 0 340 -118q106 68 106 178q0 75 -40 140q-10 17 -10 34q0 23 16 38q16 16 40 16q44 0 71 -72q23 -61 23 -132q0 -159 -154 -256z
M335 206q110 -104 269 -104t270 104q112 105 112 262t-112 263q-111 103 -270 103t-269 -103q-111 -106 -111 -263t111 -262z" />
    <glyph glyph-name="Uhorn" unicode="&#x1af;" horiz-adv-x="1270" 
d="M894 212q96 103 96 280v852q0 29 20 48q20 20 48 20q30 0 54 -24q92 54 92 152q0 70 -40 138q-10 20 -10 36q0 21 16 37q16 15 40 15q44 0 71 -72q23 -61 23 -132q0 -81 -45 -146q-47 -68 -135 -106v-820q0 -231 -142 -372q-133 -132 -332 -132t-332 132
q-142 141 -142 372v856q0 27 20 48q20 20 48 20q27 0 48 -20q20 -21 20 -48v-854q0 -169 94 -274q94 -104 244 -104q151 0 244 98z" />
    <glyph glyph-name="uhorn" unicode="&#x1b0;" horiz-adv-x="1104" 
d="M1068 959q-51 -71 -146 -109v-802q0 -25 -18 -44q-18 -18 -44 -18q-27 0 -45 18q-19 18 -19 44v92q-87 -152 -294 -152q-141 0 -238 97q-104 103 -104 269v532q0 26 19 45q18 19 45 19q25 0 44 -19q18 -19 18 -45v-502q0 -118 68 -200q73 -88 188 -88q114 0 185 79
q69 77 69 197v512q0 26 19 45q18 19 45 19q30 0 52 -22q102 57 102 158q0 70 -40 140q-10 17 -10 34q0 23 16 38q16 16 40 16q44 0 71 -72q23 -61 23 -132q0 -83 -46 -149z" />
    <glyph glyph-name="uni0218" unicode="&#x218;" horiz-adv-x="1046" 
d="M850 645q86 -108 86 -267q0 -166 -109 -275q-118 -117 -317 -117q-125 0 -235 60q-109 60 -177 164q-10 17 -10 34q0 26 18 44q19 18 44 18q33 0 52 -28q53 -79 136 -122q81 -42 174 -42q124 0 206 78q82 76 82 188q0 115 -64 192q-71 83 -242 154q-160 66 -234 151
q-82 93 -82 229q0 131 94 219q96 89 244 89q173 0 274 -126q20 -24 20 -44q0 -24 -18 -41t-44 -17q-24 0 -46 22q-69 78 -178 78q-95 0 -152 -50q-58 -50 -58 -134q0 -93 58 -152q58 -60 206 -120q186 -77 272 -185zM384 -494l2 9l2 7l78 252q21 78 72 78q50 0 50 -60
q0 -22 -12 -46l-96 -246q-23 -56 -52 -56q-46 0 -46 44q0 7 2 18z" />
    <glyph glyph-name="uni0219" unicode="&#x219;" horiz-adv-x="774" 
d="M92 146q-16 24 -16 38q0 23 16 38q16 16 38 16q29 0 46 -24q89 -116 196 -116q86 0 138 50q50 47 50 118q0 74 -47 119q-42 41 -159 89q-230 94 -230 244q0 102 73 168q70 64 177 64q132 0 216 -100q12 -12 12 -34q0 -21 -15 -35q-15 -15 -37 -15t-38 16q-52 58 -128 58
q-60 0 -96 -32q-36 -33 -36 -84q0 -59 45 -96q36 -30 145 -76q129 -53 188 -123q56 -67 56 -159q0 -122 -79 -200q-84 -84 -229 -84q-176 0 -286 160zM260 -494l2 9l2 7l78 252q21 78 72 78q50 0 50 -60q0 -22 -12 -46l-96 -246q-23 -56 -52 -56q-46 0 -46 44q0 7 2 18z" />
    <glyph glyph-name="uni021A" unicode="&#x21a;" horiz-adv-x="932" 
d="M108 1272q-27 0 -45 19q-19 18 -19 45q0 26 19 45q18 19 45 19h716q26 0 45 -19t19 -45q0 -27 -19 -45q-19 -19 -45 -19h-290v-1218q0 -28 -20 -48q-21 -20 -48 -20q-28 0 -48 20t-20 48v1218h-290zM312 -494l2 9l2 7l78 252q21 78 72 78q50 0 50 -60q0 -22 -12 -46
l-96 -246q-23 -56 -52 -56q-46 0 -46 44q0 7 2 18z" />
    <glyph glyph-name="uni021B" unicode="&#x21b;" horiz-adv-x="646" 
d="M556 936q24 0 41 -17t17 -41t-17 -41t-41 -17h-208v-772q0 -25 -18 -44q-18 -18 -44 -18q-27 0 -45 18q-19 18 -19 44v772h-122q-24 0 -41 17t-17 41t17 41t41 17h122v214q0 26 19 45q18 19 45 19q25 0 44 -19q18 -19 18 -45v-214h208zM142 -494l2 9l2 7l78 252
q21 78 72 78q50 0 50 -60q0 -22 -12 -46l-96 -246q-23 -56 -52 -56q-46 0 -46 44q0 7 2 18z" />
    <glyph glyph-name="uni0237" unicode="&#x237;" horiz-adv-x="500" 
d="M-224 -388q16 16 38 16q29 0 44 -18q61 -64 150 -64q192 0 192 274v1066q0 26 18 45q19 19 44 19q26 0 45 -19t19 -45v-1068q0 -382 -314 -382q-143 0 -236 96q-18 18 -18 40q0 23 18 40z" />
    <glyph glyph-name="uni02BC" unicode="&#x2bc;" horiz-adv-x="806" 
d="M279 1074l3 8l2 8l96 328q22 76 74 76q30 0 49 -21q17 -20 17 -47q0 -15 -14 -54l-124 -322q-16 -48 -52 -48q-23 0 -38 15q-16 15 -16 37q0 8 3 20z" />
    <glyph glyph-name="circumflex" unicode="&#x2c6;" horiz-adv-x="806" 
d="M204 1144q-16 -16 -38 -16q-21 0 -34 14q-14 13 -14 34q0 24 18 42l240 236q6 6 12 9q7 5 14 5q8 0 16 -5l6 -4l6 -5l240 -238q18 -18 18 -40q0 -21 -13 -34q-14 -14 -35 -14q-20 0 -38 14l-200 200z" />
    <glyph glyph-name="caron" unicode="&#x2c7;" horiz-adv-x="806" 
d="M402 1248l186 186q28 28 48 28q52 0 52 -48q0 -18 -18 -40l-240 -236q-14 -14 -28 -14q-15 0 -26 14l-244 236q-14 14 -14 36q0 50 48 50q24 0 38 -14z" />
    <glyph glyph-name="uni02C9" unicode="&#x2c9;" horiz-adv-x="806" 
d="M650 1346q21 0 35 -14q13 -15 13 -36t-13 -34q-14 -14 -35 -14h-494q-21 0 -35 14q-15 13 -15 34t15 36q14 14 35 14h494z" />
    <glyph glyph-name="breve" unicode="&#x2d8;" horiz-adv-x="806" 
d="M508 1279q40 35 54 91l3 12l4 12q4 13 9 22q14 22 40 22q48 0 48 -60v-16q-14 -98 -98 -163q-77 -59 -166 -59t-166 59q-84 65 -98 163v16q0 60 48 60q26 0 40 -22q5 -9 10 -22l3 -12l3 -12q14 -56 55 -91q44 -39 105 -39t106 39z" />
    <glyph glyph-name="dotaccent" unicode="&#x2d9;" horiz-adv-x="806" 
d="M345 1240q-25 24 -25 58q0 33 25 57q24 23 57 23q34 0 58 -23q24 -24 24 -57q0 -34 -24 -58q-23 -24 -58 -24q-33 0 -57 24z" />
    <glyph glyph-name="ring" unicode="&#x2da;" horiz-adv-x="806" 
d="M266 1433q56 53 136 53t137 -53q57 -55 57 -135t-57 -134t-137 -54t-136 54t-56 134t56 135zM324 1220q32 -32 78 -32q47 0 78 32q32 32 32 78q0 45 -32 78q-32 32 -78 32t-78 -32q-32 -33 -32 -78q0 -46 32 -78z" />
    <glyph glyph-name="ogonek" unicode="&#x2db;" horiz-adv-x="806" 
d="M452 -438q-91 0 -148 57q-56 55 -56 135q0 145 170 258l88 -2q-154 -119 -154 -238q0 -58 36 -91q33 -31 86 -31q9 0 19 3q6 2 16 6q20 9 29 9q18 0 31 -13q13 -12 13 -29q0 -25 -26 -40q-45 -24 -104 -24z" />
    <glyph glyph-name="tilde" unicode="&#x2dc;" horiz-adv-x="806" 
d="M410 1352l14 -13l13 -11q15 -13 26 -21q29 -19 61 -19q50 0 78 50l10 18q6 10 11 16q15 16 37 16q19 0 34 -12q16 -14 16 -34q0 -10 -4 -22q-18 -60 -66 -97q-46 -35 -102 -35q-78 0 -136 52l-17 14l-16 13q-18 15 -29 22q-30 21 -60 21q-50 0 -77 -51l-10 -19
q-5 -10 -11 -16q-14 -16 -36 -16q-19 0 -34 13q-16 13 -16 33q0 16 2 24q19 60 67 97q46 35 103 35q77 0 142 -58z" />
    <glyph glyph-name="hungarumlaut" unicode="&#x2dd;" horiz-adv-x="806" 
d="M380 1380l-250 -236q-16 -16 -36 -16t-35 14t-15 34t20 40l242 232q22 22 46 22q20 0 35 -13q15 -15 15 -35q0 -23 -22 -42zM740 1380l-250 -236q-16 -16 -36 -16t-35 14t-15 34t20 40l242 232q22 22 46 22q20 0 35 -13q15 -15 15 -35q0 -23 -22 -42z" />
    <glyph glyph-name="gravecomb" unicode="&#x300;" horiz-adv-x="0" 
d="M-721 1458q14 14 35 14q20 0 36 -16l250 -240q20 -20 20 -40q0 -21 -14 -35q-15 -15 -36 -15q-18 0 -36 14l-254 244q-16 16 -16 38q0 21 15 36z" />
    <glyph glyph-name="acutecomb" unicode="&#x301;" horiz-adv-x="0" 
d="M-292 1380l-250 -236q-16 -16 -36 -16t-35 14t-15 34t20 40l242 232q22 22 46 22q20 0 35 -13q15 -15 15 -35q0 -23 -22 -42z" />
    <glyph glyph-name="uni0302" unicode="&#x302;" horiz-adv-x="0" 
d="M-704 1144q-16 -16 -38 -16q-21 0 -34 14q-14 13 -14 34q0 24 18 42l240 236q6 6 12 9q7 5 14 5q8 0 16 -5l6 -4l6 -5l240 -238q18 -18 18 -40q0 -21 -13 -34q-14 -14 -35 -14q-20 0 -38 14l-200 200z" />
    <glyph glyph-name="tildecomb" unicode="&#x303;" horiz-adv-x="0" 
d="M-498 1352l14 -13l13 -11q15 -13 26 -21q29 -19 61 -19q50 0 78 50l10 18q6 10 11 16q15 16 37 16q19 0 34 -12q16 -14 16 -34q0 -10 -4 -22q-18 -60 -66 -97q-46 -35 -102 -35q-78 0 -136 52l-17 14l-16 13q-18 15 -29 22q-30 21 -60 21q-50 0 -77 -51l-10 -19
q-5 -10 -11 -16q-14 -16 -36 -16q-19 0 -34 13q-16 13 -16 33q0 16 2 24q19 60 67 97q46 35 103 35q77 0 142 -58z" />
    <glyph glyph-name="uni0304" unicode="&#x304;" horiz-adv-x="0" 
d="M-252 1346q21 0 35 -14q13 -15 13 -36t-13 -34q-14 -14 -35 -14h-494q-21 0 -35 14q-15 13 -15 34t15 36q14 14 35 14h494z" />
    <glyph glyph-name="uni0306" unicode="&#x306;" horiz-adv-x="0" 
d="M-400 1279q40 35 54 91l3 12l4 12q4 13 9 22q14 22 40 22q48 0 48 -60v-16q-14 -98 -98 -163q-77 -59 -166 -59t-166 59q-84 65 -98 163v16q0 60 48 60q26 0 40 -22q5 -9 10 -22l3 -12l3 -12q14 -56 55 -91q44 -39 105 -39t106 39z" />
    <glyph glyph-name="uni0307" unicode="&#x307;" horiz-adv-x="0" 
d="M-563 1240q-25 24 -25 58q0 33 25 57q24 23 57 23q34 0 58 -23q24 -24 24 -57q0 -34 -24 -58q-23 -24 -58 -24q-33 0 -57 24z" />
    <glyph glyph-name="uni0308" unicode="&#x308;" horiz-adv-x="0" 
d="M-752 1240q-24 24 -24 58q0 33 24 57q24 23 58 23q33 0 58 -23q24 -24 24 -57q0 -34 -24 -58q-25 -24 -58 -24q-34 0 -58 24zM-374 1240q-24 24 -24 58q0 33 24 57q24 23 58 23q33 0 58 -23q24 -24 24 -57q0 -34 -24 -58q-25 -24 -58 -24q-34 0 -58 24z" />
    <glyph glyph-name="hookabovecomb" unicode="&#x309;" horiz-adv-x="0" 
d="M-564 1218q0 12 10 24q8 9 20 14q76 32 76 80q0 35 -19 55q-20 21 -53 21q-39 0 -74 -32q-12 -12 -26 -12q-38 0 -38 38q0 16 22 38q59 52 132 52q67 0 110 -43q42 -42 42 -105q0 -100 -112 -140v-50q0 -19 -13 -33q-13 -13 -31 -13q-19 0 -33 13q-13 14 -13 33v60z" />
    <glyph glyph-name="uni030A" unicode="&#x30a;" horiz-adv-x="0" 
d="M-642 1433q56 53 136 53t137 -53q57 -55 57 -135t-57 -134t-137 -54t-136 54t-56 134t56 135zM-584 1220q32 -32 78 -32q47 0 78 32q32 32 32 78q0 45 -32 78q-32 32 -78 32t-78 -32q-32 -33 -32 -78q0 -46 32 -78z" />
    <glyph glyph-name="uni030C" unicode="&#x30c;" horiz-adv-x="0" 
d="M-506 1248l186 186q28 28 48 28q52 0 52 -48q0 -18 -18 -40l-240 -236q-14 -14 -28 -14q-15 0 -26 14l-244 236q-14 14 -14 36q0 50 48 50q24 0 38 -14z" />
    <glyph glyph-name="uni031B" unicode="&#x31b;" horiz-adv-x="0" 
d="M0 690zM-202 762l3 8l2 8l96 328q22 76 74 76q30 0 49 -21q17 -20 17 -47q0 -15 -14 -54l-124 -322q-16 -48 -52 -48q-23 0 -38 15q-16 15 -16 37q0 8 3 20z" />
    <glyph glyph-name="dotbelowcomb" unicode="&#x323;" horiz-adv-x="0" 
d="M-563 -337q-25 24 -25 58q0 33 25 57q24 23 57 23q34 0 58 -23q24 -24 24 -57q0 -34 -24 -58q-23 -24 -58 -24q-33 0 -57 24z" />
    <glyph glyph-name="uni03A9" unicode="&#x3a9;" horiz-adv-x="1652" 
d="M419 1130q-165 -169 -165 -412q0 -183 104 -344q93 -145 242 -234q30 -19 30 -50v-24q0 -25 -17 -45q-18 -21 -43 -21h-410q-25 0 -44 18q-18 19 -18 44q0 27 18 46q18 18 44 18h296q-338 244 -338 602q0 293 203 494q204 202 505 202q303 0 507 -202q203 -201 203 -494
q0 -356 -340 -602h296q27 0 46 -18q18 -19 18 -46q0 -26 -18 -44q-19 -18 -46 -18h-410q-25 0 -43 20q-17 20 -17 46v24q0 25 26 45q7 6 25 17l13 9l14 9q135 101 213 234q87 149 87 314q0 243 -166 412q-167 168 -408 168t-407 -168z" />
    <glyph glyph-name="pi" unicode="&#x3c0;" horiz-adv-x="1242" 
d="M170 82q146 311 146 738h-226q-24 0 -41 17t-17 41q0 23 17 40q17 18 41 18h1050q24 0 41 -17t17 -41t-17 -41t-41 -17h-250v-478q0 -240 144 -240q48 0 88 30q24 16 40 16q23 0 39 -17q17 -16 17 -39q0 -22 -18 -40q-73 -66 -168 -66q-141 0 -210 108q-58 92 -58 252
v474h-320q0 -455 -158 -792q-16 -36 -58 -36q-26 0 -45 18q-19 19 -19 44q0 16 6 28z" />
    <glyph glyph-name="uni0400" unicode="&#x400;" horiz-adv-x="958" 
d="M176 1334q0 27 20 47q19 19 46 19h534q26 0 45 -19t19 -45q0 -27 -19 -45q-19 -19 -45 -19h-464v-428h414q26 0 44 -18t18 -44q0 -25 -18 -44q-18 -18 -44 -18h-414v-592h484q26 0 45 -19t19 -45q0 -27 -19 -45q-19 -19 -45 -19h-554q-27 0 -46 19q-20 18 -20 45v1270z
M327 1866q14 14 35 14q20 0 36 -16l250 -240q20 -20 20 -40q0 -21 -14 -35q-15 -15 -36 -15q-18 0 -36 14l-254 244q-16 16 -16 38q0 21 15 36z" />
    <glyph glyph-name="uni0401" unicode="&#x401;" horiz-adv-x="958" 
d="M176 1334q0 27 20 47q19 19 46 19h534q26 0 45 -19t19 -45q0 -27 -19 -45q-19 -19 -45 -19h-464v-428h414q26 0 44 -18t18 -44q0 -25 -18 -44q-18 -18 -44 -18h-414v-592h484q26 0 45 -19t19 -45q0 -27 -19 -45q-19 -19 -45 -19h-554q-27 0 -46 19q-20 18 -20 45v1270z
M250 1648q-24 24 -24 58q0 33 24 57q24 23 58 23q33 0 58 -23q24 -24 24 -57q0 -34 -24 -58q-25 -24 -58 -24q-34 0 -58 24zM628 1648q-24 24 -24 58q0 33 24 57q24 23 58 23q33 0 58 -23q24 -24 24 -57q0 -34 -24 -58q-25 -24 -58 -24q-34 0 -58 24z" />
    <glyph glyph-name="uni0402" unicode="&#x402;" horiz-adv-x="1284" 
d="M778 110l13 1l14 1q15 2 25 4q109 28 172 112q62 83 62 196q0 140 -89 228q-89 86 -225 86q-150 0 -244 -94v-590q0 -28 -20 -48q-19 -20 -48 -20q-28 0 -48 20t-20 48v1218h-280q-26 0 -45 19q-19 18 -19 45q0 26 19 45q20 19 45 19h722q27 0 46 -19q18 -19 18 -45
q0 -27 -18 -45q-19 -19 -46 -19h-306v-502q109 90 266 90q183 0 304 -121q124 -124 124 -317q0 -161 -103 -280q-100 -115 -251 -146q-40 -8 -62 -8q-26 0 -43 18q-17 17 -17 42q0 56 54 62z" />
    <glyph glyph-name="uni0403" unicode="&#x403;" horiz-adv-x="850" 
d="M672 1788l-250 -236q-16 -16 -36 -16t-35 14t-15 34t20 40l242 232q22 22 46 22q20 0 35 -13q15 -15 15 -35q0 -23 -22 -42zM312 1272v-1218q0 -28 -20 -48q-19 -20 -48 -20q-28 0 -48 20t-20 48v1278q0 29 20 48q20 20 48 20h508q26 0 45 -19t19 -45q0 -27 -19 -45
q-19 -19 -45 -19h-440z" />
    <glyph glyph-name="uni0404" unicode="&#x404;" horiz-adv-x="1414" 
d="M325 1211q212 203 517 203q272 0 484 -180q20 -17 20 -48q0 -26 -19 -46q-20 -20 -45 -20t-44 16q-165 150 -396 150q-233 0 -400 -146q-170 -149 -192 -378h786q26 0 44 -18t18 -44q0 -25 -18 -44q-18 -18 -44 -18h-786q22 -230 192 -378q167 -146 400 -146
q232 0 396 148q19 16 42 16q27 0 47 -19q19 -20 19 -47q0 -32 -22 -48q-217 -178 -482 -178q-305 0 -517 203q-215 205 -215 511q0 304 215 511z" />
    <glyph glyph-name="uni0405" unicode="&#x405;" horiz-adv-x="1046" 
d="M850 645q86 -108 86 -267q0 -166 -109 -275q-118 -117 -317 -117q-125 0 -235 60q-109 60 -177 164q-10 17 -10 34q0 26 18 44q19 18 44 18q33 0 52 -28q53 -79 136 -122q81 -42 174 -42q124 0 206 78q82 76 82 188q0 115 -64 192q-71 83 -242 154q-160 66 -234 151
q-82 93 -82 229q0 131 94 219q96 89 244 89q173 0 274 -126q20 -24 20 -44q0 -24 -18 -41t-44 -17q-24 0 -46 22q-69 78 -178 78q-95 0 -152 -50q-58 -50 -58 -134q0 -93 58 -152q58 -60 206 -120q186 -77 272 -185z" />
    <glyph glyph-name="uni0406" unicode="&#x406;" horiz-adv-x="534" 
d="M334 54q0 -28 -20 -48q-19 -20 -48 -20q-28 0 -48 20t-20 48v1292q0 27 20 48q20 20 48 20t48 -20q20 -21 20 -48v-1292z" />
    <glyph glyph-name="uni0407" unicode="&#x407;" horiz-adv-x="510" 
d="M322 54q0 -28 -20 -48q-19 -20 -48 -20q-28 0 -48 20t-20 48v1292q0 27 20 48q20 20 48 20t48 -20q20 -21 20 -48v-1292zM8 1648q-24 24 -24 58q0 33 24 57q24 23 58 23q33 0 58 -23q24 -24 24 -57q0 -34 -24 -58q-25 -24 -58 -24q-34 0 -58 24zM386 1648q-24 24 -24 58
q0 33 24 57q24 23 58 23q33 0 58 -23q24 -24 24 -57q0 -34 -24 -58q-25 -24 -58 -24q-34 0 -58 24z" />
    <glyph glyph-name="uni0408" unicode="&#x408;" horiz-adv-x="834" 
d="M27 201q18 19 45 19q31 0 48 -20q69 -86 174 -86q226 0 226 302v930q0 27 20 48q20 20 48 20q27 0 48 -20q20 -21 20 -48v-934q0 -216 -100 -325q-93 -101 -260 -101q-153 0 -262 116q-26 30 -26 54q0 26 19 45z" />
    <glyph glyph-name="uni0409" unicode="&#x409;" horiz-adv-x="1842" 
d="M40 79q8 15 22 25q146 111 192 326q38 188 52 384l36 516q2 29 21 49q19 21 47 21h664q29 0 48 -20q20 -19 20 -48v-508h166q214 0 343 -120q123 -115 123 -292t-125 -292q-130 -120 -341 -120h-238q-27 0 -45 18q-19 18 -19 44v1210h-534l-34 -464q-13 -189 -50 -396
q-43 -226 -232 -400l-12 -9l-14 -8q-16 -9 -32 -9q-27 0 -46 19q-20 20 -20 49q0 12 8 25zM1142 124h162q151 0 242 78q92 79 92 210t-92 210q-91 78 -242 78h-162v-576z" />
    <glyph glyph-name="uni040A" unicode="&#x40a;" horiz-adv-x="1772" 
d="M936 708h-624v-654q0 -28 -20 -48q-19 -20 -48 -20q-28 0 -48 20t-20 48v1292q0 27 20 48q20 20 48 20t48 -20q20 -21 20 -48v-516h624v516q0 27 20 48q20 20 48 20t48 -20q20 -21 20 -48v-522h166q214 0 343 -120q123 -115 123 -292t-125 -292q-130 -120 -341 -120h-238
q-27 0 -45 18q-19 18 -19 44v646zM1072 124h162q151 0 242 78q92 79 92 210t-92 210q-91 78 -242 78h-162v-576z" />
    <glyph glyph-name="uni040B" unicode="&#x40b;" horiz-adv-x="1288" 
d="M1024 440q0 137 -71 217q-73 81 -201 81q-138 0 -246 -84v-600q0 -28 -20 -48q-19 -20 -48 -20q-28 0 -48 20t-20 48v1218h-280q-26 0 -45 19q-19 18 -19 45q0 26 19 45q20 19 45 19h722q27 0 46 -19q18 -19 18 -45q0 -27 -18 -45q-19 -19 -46 -19h-306v-496
q116 84 282 84q162 0 264 -105q108 -111 108 -303v-398q0 -28 -20 -48q-21 -20 -48 -20q-28 0 -48 20t-20 48v386z" />
    <glyph glyph-name="uni040C" unicode="&#x40c;" horiz-adv-x="1134" 
d="M176 1350q0 29 20 48q20 20 48 20q29 0 48 -20q20 -19 20 -48v-634l596 680q20 20 50 20t50 -20t20 -50q0 -27 -16 -46l-532 -584l600 -614q20 -23 20 -50q0 -30 -20 -50t-50 -20q-31 0 -52 24l-666 710v-666q0 -28 -20 -48q-19 -20 -48 -20q-28 0 -48 20t-20 48v1300z
M746 1788l-250 -236q-16 -16 -36 -16t-35 14t-15 34t20 40l242 232q22 22 46 22q20 0 35 -13q15 -15 15 -35q0 -23 -22 -42z" />
    <glyph glyph-name="uni040D" unicode="&#x40d;" horiz-adv-x="1460" 
d="M567 1866q14 14 35 14q20 0 36 -16l250 -240q20 -20 20 -40q0 -21 -14 -35q-15 -15 -36 -15q-18 0 -36 14l-254 244q-16 16 -16 38q0 21 15 36zM312 264q471 593 904 1144q14 14 30 14q15 0 27 -10q11 -11 11 -26v-1332q0 -28 -20 -48q-21 -20 -48 -20q-28 0 -48 20
t-20 48v1082l-906 -1144q-10 -16 -30 -16q-15 0 -25 11q-11 10 -11 25v1334q0 27 20 48q20 20 48 20t48 -20q20 -21 20 -48v-1082z" />
    <glyph glyph-name="uni040E" unicode="&#x40e;" horiz-adv-x="1164" 
d="M66 1394q20 20 48 20q38 0 58 -34l428 -740l402 740q17 34 58 34q29 0 48 -20q20 -19 20 -48q0 -16 -8 -32l-712 -1294q-17 -34 -60 -34q-27 0 -46 19q-20 19 -20 47q0 22 12 40l230 412l-468 806q-10 17 -10 36q0 29 20 48zM680 1707q40 35 54 91l3 12l4 12q4 13 9 22
q14 22 40 22q48 0 48 -60v-16q-14 -98 -98 -163q-77 -59 -166 -59t-166 59q-84 65 -98 163v16q0 60 48 60q26 0 40 -22q5 -9 10 -22l3 -12l3 -12q14 -56 55 -91q44 -39 105 -39t106 39z" />
    <glyph glyph-name="uni040F" unicode="&#x40f;" horiz-adv-x="1290" 
d="M578 -2h-334q-28 0 -48 20t-20 48v1278q0 29 20 48q20 20 48 20q29 0 48 -20q20 -19 20 -48v-1218h666v1218q0 29 20 48q20 20 48 20q27 0 48 -20q20 -20 20 -48v-1278q0 -28 -20 -48q-19 -20 -48 -20h-332v-206q0 -28 -20 -48q-21 -20 -48 -20q-28 0 -48 20t-20 48v206z
" />
    <glyph glyph-name="uni0410" unicode="&#x410;" horiz-adv-x="1274" 
d="M676 1386l538 -1306q8 -20 8 -30q0 -28 -19 -46q-18 -18 -43 -18q-44 0 -62 42l-136 338h-652l-136 -338q-17 -44 -60 -44q-26 0 -45 19q-19 18 -19 45q0 8 8 32l538 1306q11 28 40 28q28 0 40 -28zM356 480h560q-53 129 -140 346l-140 348z" />
    <glyph glyph-name="uni0411" unicode="&#x411;" horiz-adv-x="1024" 
d="M790 1400q26 0 45 -19t19 -45q0 -27 -19 -45q-19 -19 -45 -19h-478v-448h166q214 0 343 -120q123 -115 123 -292t-125 -292q-130 -120 -341 -120h-238q-27 0 -45 18q-19 18 -19 44v1270q0 29 20 48q20 20 48 20h546zM312 124h162q151 0 242 78q92 79 92 210t-92 210
q-91 78 -242 78h-162v-576z" />
    <glyph glyph-name="uni0412" unicode="&#x412;" horiz-adv-x="1070" 
d="M176 1340q0 24 17 42q18 18 43 18h228q201 0 318 -101q106 -93 106 -231q0 -239 -224 -316q161 -37 243 -143q71 -94 71 -225q0 -165 -116 -271q-123 -113 -328 -113h-298q-25 0 -43 17q-17 18 -17 43v1280zM312 118h202q154 0 243 81q85 77 85 203q0 125 -89 203
q-93 81 -251 81h-190v-568zM312 804h160q130 0 208 69q74 66 74 171q0 104 -70 168q-78 70 -218 70h-154v-478z" />
    <glyph glyph-name="uni0413" unicode="&#x413;" horiz-adv-x="850" 
d="M312 1272v-1218q0 -28 -20 -48q-19 -20 -48 -20q-28 0 -48 20t-20 48v1278q0 29 20 48q20 20 48 20h508q26 0 45 -19t19 -45q0 -27 -19 -45q-19 -19 -45 -19h-440z" />
    <glyph glyph-name="uni0414" unicode="&#x414;" horiz-adv-x="1234" 
d="M898 128v1144h-442q-3 -698 -184 -1144h626zM328 1332q0 29 20 48q20 20 48 20h570q29 0 48 -20q20 -19 20 -48v-1204h66q29 0 48 -20q20 -19 20 -48v-260q0 -27 -20 -47q-21 -21 -48 -21q-28 0 -48 21q-20 20 -20 47v200h-876v-200q0 -27 -20 -47q-21 -21 -48 -21
q-28 0 -48 21q-20 20 -20 47v260q0 28 18 48t44 20h54q192 474 192 1178v26z" />
    <glyph glyph-name="uni0415" unicode="&#x415;" horiz-adv-x="958" 
d="M176 1334q0 27 20 47q19 19 46 19h534q26 0 45 -19t19 -45q0 -27 -19 -45q-19 -19 -45 -19h-464v-428h414q26 0 44 -18t18 -44q0 -25 -18 -44q-18 -18 -44 -18h-414v-592h484q26 0 45 -19t19 -45q0 -27 -19 -45q-19 -19 -45 -19h-554q-27 0 -46 19q-20 18 -20 45v1270z
" />
    <glyph glyph-name="uni0416" unicode="&#x416;" horiz-adv-x="1702" 
d="M782 716v634q0 29 20 48q20 20 48 20q29 0 48 -20q20 -19 20 -48v-634l536 680q20 20 50 20t50 -20t20 -50q0 -27 -16 -46l-482 -584l550 -614q20 -23 20 -50q0 -30 -20 -50t-50 -20q-31 0 -52 24l-606 710v-666q0 -28 -20 -48q-19 -20 -48 -20q-28 0 -48 20t-20 48v664
l-604 -708q-21 -24 -52 -24q-30 0 -50 20t-20 50q0 27 20 50l550 614l-482 584q-16 22 -16 46q0 30 20 50t50 20q33 0 50 -20z" />
    <glyph glyph-name="uni0417" unicode="&#x417;" horiz-adv-x="1056" 
d="M109 258q19 20 47 20q31 0 54 -26q129 -148 286 -148q140 0 233 91q91 89 91 219q0 135 -95 227q-95 91 -235 91h-68q-26 0 -45 19q-19 18 -19 45q0 26 19 45q20 19 45 19h64q100 0 167 65q67 63 67 157q0 90 -65 152q-66 62 -163 62q-148 0 -232 -124q-19 -28 -56 -28
q-26 0 -44 17q-18 18 -18 43t16 44q60 82 146 128q89 48 190 48q154 0 258 -96q104 -97 104 -238q0 -93 -51 -171q-50 -76 -135 -115q130 -44 207 -148q79 -107 79 -246q0 -183 -132 -308q-133 -126 -330 -126q-116 0 -221 52q-103 51 -167 138q-16 20 -16 42q0 30 19 50z
" />
    <glyph glyph-name="uni0418" unicode="&#x418;" horiz-adv-x="1460" 
d="M312 264q471 593 904 1144q14 14 30 14q15 0 27 -10q11 -11 11 -26v-1332q0 -28 -20 -48q-21 -20 -48 -20q-28 0 -48 20t-20 48v1082l-906 -1144q-10 -16 -30 -16q-15 0 -25 11q-11 10 -11 25v1334q0 27 20 48q20 20 48 20t48 -20q20 -21 20 -48v-1082z" />
    <glyph glyph-name="uni0419" unicode="&#x419;" horiz-adv-x="1460" 
d="M312 264q471 593 904 1144q14 14 30 14q15 0 27 -10q11 -11 11 -26v-1332q0 -28 -20 -48q-21 -20 -48 -20q-28 0 -48 20t-20 48v1082l-906 -1144q-10 -16 -30 -16q-15 0 -25 11q-11 10 -11 25v1334q0 27 20 48q20 20 48 20t48 -20q20 -21 20 -48v-1082zM834 1725
q40 35 54 91l3 12l4 12q4 13 9 22q14 22 40 22q48 0 48 -60v-16q-14 -98 -98 -163q-77 -59 -166 -59t-166 59q-84 65 -98 163v16q0 60 48 60q26 0 40 -22q5 -9 10 -22l3 -12l3 -12q14 -56 55 -91q44 -39 105 -39t106 39z" />
    <glyph glyph-name="uni041A" unicode="&#x41a;" horiz-adv-x="1134" 
d="M176 1350q0 29 20 48q20 20 48 20q29 0 48 -20q20 -19 20 -48v-634l596 680q20 20 50 20t50 -20t20 -50q0 -27 -16 -46l-532 -584l600 -614q20 -23 20 -50q0 -30 -20 -50t-50 -20q-31 0 -52 24l-666 710v-666q0 -28 -20 -48q-19 -20 -48 -20q-28 0 -48 20t-20 48v1300z
" />
    <glyph glyph-name="uni041B" unicode="&#x41b;" horiz-adv-x="1344" 
d="M472 1272l-9 -116l-8 -116q-11 -138 -19 -230q-24 -258 -58 -426q-35 -183 -224 -372q-26 -26 -56 -26q-27 0 -46 19q-20 20 -20 49q0 26 16 42q185 181 216 366q24 136 42 352l36 516q2 29 21 49q19 21 47 21h690q29 0 48 -20q20 -19 20 -48v-1278q0 -28 -20 -48
q-21 -20 -48 -20q-28 0 -48 20t-20 48v1218h-560z" />
    <glyph glyph-name="uni041C" unicode="&#x41c;" horiz-adv-x="1778" 
d="M854 22l-382 1104l-278 -1086q-6 -23 -25 -38q-19 -16 -43 -16q-28 0 -48 21q-20 20 -20 47q0 8 4 24l364 1308q7 26 32 26q26 0 34 -22l396 -1112l398 1112q9 24 32 24q25 0 34 -28l362 -1308q4 -16 4 -24q0 -27 -20 -47q-20 -21 -48 -21q-52 0 -66 54l-278 1086
l-384 -1104q-9 -26 -34 -26t-34 26z" />
    <glyph glyph-name="uni041D" unicode="&#x41d;" horiz-adv-x="1300" 
d="M1122 54q0 -28 -20 -48q-19 -20 -48 -20q-28 0 -48 20t-20 48v650h-674v-650q0 -28 -20 -48q-19 -20 -48 -20q-28 0 -48 20t-20 48v1292q0 27 20 48q20 20 48 20t48 -20q20 -21 20 -48v-514h674v514q0 27 20 48q20 20 48 20t48 -20q20 -21 20 -48v-1292z" />
    <glyph glyph-name="uni041E" unicode="&#x41e;" horiz-adv-x="1684" 
d="M421 279q171 -165 421 -165q248 0 420 165q176 168 176 421q0 252 -176 421q-172 165 -420 165q-249 0 -421 -165q-175 -169 -175 -421q0 -253 175 -421zM325 1211q212 203 517 203q304 0 516 -203q216 -207 216 -511q0 -305 -216 -511q-212 -203 -516 -203
q-305 0 -517 203q-215 205 -215 511q0 304 215 511z" />
    <glyph glyph-name="uni041F" unicode="&#x41f;" horiz-adv-x="1290" 
d="M1046 1400q29 0 48 -20q20 -19 20 -48v-1278q0 -28 -20 -48q-21 -20 -48 -20q-28 0 -48 20t-20 48v1218h-666v-1218q0 -28 -20 -48q-19 -20 -48 -20q-28 0 -48 20t-20 48v1278q0 29 20 48q20 20 48 20h802z" />
    <glyph glyph-name="uni0420" unicode="&#x420;" horiz-adv-x="1018" 
d="M176 1336q0 27 19 46q18 18 45 18h238q214 0 343 -120q123 -115 123 -292t-123 -291q-129 -121 -343 -121h-166v-524q0 -27 -20 -46q-20 -20 -48 -20t-48 20q-20 19 -20 46v1284zM312 700h162q151 0 242 78q92 79 92 210t-92 210q-91 78 -242 78h-162v-576z" />
    <glyph glyph-name="uni0421" unicode="&#x421;" horiz-adv-x="1438" 
d="M325 1211q212 203 517 203q272 0 484 -180q20 -17 20 -48q0 -26 -19 -46q-20 -20 -45 -20t-44 16q-169 150 -396 150q-249 0 -421 -165q-175 -169 -175 -421q0 -253 175 -421q171 -165 421 -165q232 0 396 148q19 16 42 16q27 0 47 -19q19 -20 19 -47q0 -29 -22 -48
q-207 -178 -482 -178q-305 0 -517 203q-215 205 -215 511q0 304 215 511z" />
    <glyph glyph-name="uni0422" unicode="&#x422;" horiz-adv-x="932" 
d="M108 1272q-27 0 -45 19q-19 18 -19 45q0 26 19 45q18 19 45 19h716q26 0 45 -19t19 -45q0 -27 -19 -45q-19 -19 -45 -19h-290v-1218q0 -28 -20 -48q-21 -20 -48 -20q-28 0 -48 20t-20 48v1218h-290z" />
    <glyph glyph-name="uni0423" unicode="&#x423;" horiz-adv-x="1164" 
d="M66 1394q20 20 48 20q38 0 58 -34l428 -740l402 740q17 34 58 34q29 0 48 -20q20 -19 20 -48q0 -16 -8 -32l-712 -1294q-17 -34 -60 -34q-27 0 -46 19q-20 19 -20 47q0 22 12 40l230 412l-468 806q-10 17 -10 36q0 29 20 48z" />
    <glyph glyph-name="uni0424" unicode="&#x424;" horiz-adv-x="1696" 
d="M780 1090h-108q-208 0 -329 -105q-119 -104 -119 -277t119 -276q121 -106 329 -106h108v764zM916 326h108q208 0 329 106q119 103 119 276t-119 277q-121 105 -329 105h-108v-764zM916 54q0 -28 -20 -48q-21 -20 -48 -20q-28 0 -48 20t-20 48v144h-106q-264 0 -425 141
t-161 369t161 369t425 141h106v128q0 27 20 48q20 20 48 20q27 0 48 -20q20 -21 20 -48v-128h106q262 0 424 -141t162 -369t-162 -369t-424 -141h-106v-144z" />
    <glyph glyph-name="uni0425" unicode="&#x425;" horiz-adv-x="1198" 
d="M1090 1300l-408 -568l458 -638q16 -19 16 -44q0 -27 -19 -45q-20 -19 -47 -19q-39 0 -62 30l-430 600l-428 -596q-24 -34 -60 -34q-28 0 -48 20q-20 19 -20 46q0 24 16 46l456 634l-410 568q-16 22 -16 48q0 28 20 48q19 20 46 20q34 0 60 -34l384 -536l382 534
q24 34 60 34q29 0 48 -20q20 -19 20 -48q0 -21 -18 -46z" />
    <glyph glyph-name="uni0426" unicode="&#x426;" horiz-adv-x="1314" 
d="M1248 -200q0 -27 -20 -47q-21 -21 -48 -21q-28 0 -48 21q-20 20 -20 47v200h-868q-28 0 -48 20t-20 48v1278q0 27 20 48q20 20 48 20t48 -20q20 -21 20 -48v-1218h666v1218q0 27 20 48q20 20 48 20q27 0 48 -20q20 -21 20 -48v-1218h66q29 0 48 -20q20 -19 20 -48v-260z
" />
    <glyph glyph-name="uni0427" unicode="&#x427;" horiz-adv-x="1116" 
d="M802 618q-115 -80 -276 -80t-266 105q-114 113 -114 303v400q0 27 20 48q20 20 48 20q27 0 48 -20q20 -21 20 -48v-370q0 -141 72 -224q74 -86 204 -86q142 0 244 76v604q0 27 20 48q20 20 48 20t48 -20q20 -21 20 -48v-1292q0 -28 -20 -48q-19 -20 -48 -20q-28 0 -48 20
t-20 48v564z" />
    <glyph glyph-name="uni0428" unicode="&#x428;" horiz-adv-x="1876" 
d="M1698 68q0 -28 -20 -48q-19 -20 -48 -20h-1386q-28 0 -48 20t-20 48v1278q0 27 20 48q20 20 48 20t48 -20q20 -21 20 -48v-1218h558v1218q0 27 20 48q20 20 48 20q27 0 48 -20q20 -21 20 -48v-1218h556v1218q0 27 20 48q20 20 48 20t48 -20q20 -21 20 -48v-1278z" />
    <glyph glyph-name="uni0429" unicode="&#x429;" horiz-adv-x="1898" 
d="M1698 128h66q29 0 48 -20q20 -19 20 -48v-258q0 -28 -20 -48q-19 -20 -48 -20q-28 0 -48 20t-20 48v198h-1452q-28 0 -48 20t-20 48v1278q0 27 20 48q20 20 48 20t48 -20q20 -21 20 -48v-1218h558v1218q0 27 20 48q20 20 48 20q27 0 48 -20q20 -21 20 -48v-1218h556v1218
q0 27 20 48q20 20 48 20t48 -20q20 -21 20 -48v-1218z" />
    <glyph glyph-name="uni042A" unicode="&#x42a;" horiz-adv-x="1192" 
d="M492 124h160q151 0 243 78q93 79 93 210t-93 210q-92 78 -243 78h-160v-576zM424 1400q27 0 48 -20q20 -21 20 -48v-508h166q213 0 343 -120q123 -116 123 -292t-123 -291q-130 -121 -343 -121h-240q-25 0 -44 18q-18 19 -18 44v1216h-276q-25 0 -43 17q-17 18 -17 43
q0 26 17 44q18 18 43 18h344z" />
    <glyph glyph-name="uni042B" unicode="&#x42b;" horiz-adv-x="1498" 
d="M1320 54q0 -28 -20 -48q-19 -20 -48 -20q-28 0 -48 20t-20 48v1292q0 27 20 48q20 20 48 20t48 -20q20 -21 20 -48v-1292zM176 1346q0 27 20 48q20 20 48 20t48 -20q20 -21 20 -48v-522h166q214 0 343 -120q123 -115 123 -292t-123 -291q-129 -121 -343 -121h-238
q-27 0 -45 18q-19 18 -19 44v1284zM312 124h162q151 0 242 78q92 79 92 210t-92 210q-91 78 -242 78h-162v-576z" />
    <glyph glyph-name="uni042C" unicode="&#x42c;" horiz-adv-x="1012" 
d="M176 1346q0 27 20 48q20 20 48 20t48 -20q20 -21 20 -48v-522h166q214 0 343 -120q123 -115 123 -292t-123 -291q-129 -121 -343 -121h-238q-27 0 -45 18q-19 18 -19 44v1284zM312 124h162q151 0 242 78q92 79 92 210t-92 210q-91 78 -242 78h-162v-576z" />
    <glyph glyph-name="uni042D" unicode="&#x42d;" horiz-adv-x="1414" 
d="M1088 189q-212 -203 -516 -203q-274 0 -484 178q-22 16 -22 48q0 27 20 47q19 19 46 19q23 0 42 -16q174 -148 398 -148q232 0 399 146q170 148 191 378h-786q-25 0 -44 18q-18 19 -18 44q0 26 18 44q19 18 44 18h786q-21 229 -191 378q-167 146 -399 146
q-226 0 -398 -150q-19 -16 -42 -16q-27 0 -46 20q-20 20 -20 46q0 32 22 48q215 180 484 180q304 0 516 -203q216 -207 216 -511q0 -305 -216 -511z" />
    <glyph glyph-name="uni042E" unicode="&#x42e;" horiz-adv-x="2098" 
d="M312 54q0 -28 -20 -48q-19 -20 -48 -20q-28 0 -48 20t-20 48v1292q0 27 20 48q20 20 48 20t48 -20q20 -21 20 -48v-580h216q25 282 234 470t494 188q304 0 517 -208q215 -211 215 -516q0 -307 -215 -516q-213 -208 -517 -208q-286 0 -495 189q-211 189 -233 473h-216
v-584zM836 274q173 -170 420 -170q248 0 421 170q175 172 175 426q0 253 -175 426q-173 170 -421 170q-247 0 -420 -170q-176 -173 -176 -426q0 -254 176 -426z" />
    <glyph glyph-name="uni042F" unicode="&#x42f;" horiz-adv-x="1076" 
d="M696 694l-532 -682q-16 -26 -50 -26q-27 0 -44 18q-18 18 -18 44q0 23 14 40l462 562q-198 33 -290 148q-72 90 -72 216q0 171 124 278q125 108 328 108h218q26 0 45 -18q19 -19 19 -46v-1282q0 -28 -20 -48q-21 -20 -48 -20q-28 0 -48 20t-20 48v1222h-132
q-154 0 -243 -71q-87 -71 -87 -189q0 -112 81 -180q95 -81 291 -88q30 -4 30 -34q0 -8 -8 -20z" />
    <glyph glyph-name="uni0430" unicode="&#x430;" horiz-adv-x="1280" 
d="M988 886q0 26 18 45q19 19 44 19q26 0 45 -19t19 -45v-838q0 -25 -19 -44q-19 -18 -45 -18q-25 0 -44 18q-18 19 -18 44v158q-59 -107 -166 -165q-104 -55 -236 -55q-203 0 -344 136q-144 139 -144 346t144 346q141 136 344 136q131 0 236 -56q108 -58 166 -164v156z
M872 733q-110 105 -268 105q-159 0 -270 -105q-112 -106 -112 -265q0 -160 112 -267q110 -105 270 -105q158 0 268 105q112 107 112 267q0 159 -112 265z" />
    <glyph glyph-name="uni0431" unicode="&#x431;" horiz-adv-x="1228" 
d="M409 893q104 55 231 55q202 0 345 -136q145 -140 145 -344q0 -208 -148 -346q-146 -136 -360 -136q-228 0 -368 149q-144 152 -144 407q0 462 192 688q176 208 560 264h8q25 0 43 -19q17 -18 17 -43t-16 -42q-15 -17 -38 -20q-314 -41 -463 -206q-130 -144 -161 -418
q56 93 157 147zM892 734q-110 104 -270 104q-158 0 -269 -104q-111 -106 -111 -258v-8q0 -160 111 -267q110 -105 269 -105q160 0 270 105q112 107 112 267t-112 266z" />
    <glyph glyph-name="uni0432" unicode="&#x432;" horiz-adv-x="956" 
d="M228 0q-25 0 -44 18q-18 19 -18 44v810q0 27 18 46q18 18 44 18h256q161 0 248 -73q76 -64 76 -161q0 -64 -39 -116q-43 -58 -119 -82q103 -17 165 -80q63 -65 63 -156q0 -127 -98 -198q-99 -70 -276 -70h-276zM466 110q286 0 286 164q0 166 -288 166h-172v-330h174z
M462 826h-170v-276h164q111 0 171 39q55 36 55 99q0 138 -220 138z" />
    <glyph glyph-name="uni0433" unicode="&#x433;" horiz-adv-x="780" 
d="M292 820v-772q0 -25 -19 -44q-19 -18 -45 -18q-25 0 -44 18q-18 19 -18 44v824q0 27 18 46q18 18 44 18h450q24 0 41 -17t17 -41t-17 -41t-41 -17h-386z" />
    <glyph glyph-name="uni0434" unicode="&#x434;" horiz-adv-x="1030" 
d="M734 116v704h-338q-10 -399 -150 -704h488zM282 872q0 27 18 46q18 18 44 18h448q26 0 44 -18q18 -19 18 -46v-756q52 0 77 -9q37 -15 37 -55v-216q0 -25 -18 -44q-18 -18 -44 -18q-27 0 -45 18q-19 18 -19 44v164h-692v-164q0 -25 -19 -44q-19 -18 -45 -18q-25 0 -44 18
q-18 19 -18 44v218q0 24 15 42q16 20 39 20h34q76 159 123 372q47 209 47 382v2z" />
    <glyph glyph-name="uni0435" unicode="&#x435;" horiz-adv-x="1166" 
d="M247 122q-149 139 -149 346q0 205 143 345q140 137 343 137q197 0 336 -129q140 -130 150 -327v-4q0 -18 -13 -31q-14 -15 -35 -15h-796q20 -152 122 -246q103 -96 256 -96q184 0 298 148q18 24 48 24q26 0 43 -17t17 -43q0 -24 -16 -40q-152 -188 -392 -188
q-210 0 -355 136zM942 540q-21 135 -119 215q-96 79 -237 79q-132 0 -230 -80q-100 -82 -124 -214h710z" />
    <glyph glyph-name="uni0436" unicode="&#x436;" horiz-adv-x="1432" 
d="M652 510v376q0 26 19 45q18 19 45 19q25 0 44 -19q18 -19 18 -45v-378l452 432q22 18 42 18q24 0 42 -17q18 -18 18 -43q0 -24 -24 -44l-376 -350l430 -416q20 -17 20 -44q0 -24 -18 -41t-42 -17q-26 0 -44 18l-500 504v-460q0 -25 -18 -44q-18 -18 -44 -18q-27 0 -45 18
q-19 18 -19 44v458l-498 -502q-15 -18 -42 -18q-26 0 -44 17t-18 41q0 27 20 44l430 416l-376 350q-9 9 -15 19q-7 13 -7 25q0 25 17 43q17 17 41 17t42 -18z" />
    <glyph glyph-name="uni0437" unicode="&#x437;" horiz-adv-x="822" 
d="M69 185q17 17 41 17t46 -22q91 -94 218 -94q101 0 166 52q66 51 66 132q0 91 -65 147q-67 57 -177 57h-74q-21 0 -35 15q-15 14 -15 35t15 36q14 14 35 14h72q82 0 136 40t54 102q0 59 -48 95q-50 37 -138 37q-99 0 -176 -64q-17 -14 -38 -14q-22 0 -38 16q-16 15 -16 36
q0 25 22 44q113 94 262 94q133 0 217 -69q79 -66 79 -161q0 -68 -39 -121q-39 -54 -109 -79q95 -28 149 -100q53 -71 53 -166q0 -119 -95 -201q-101 -87 -259 -87q-183 0 -308 122q-18 15 -18 44q0 25 17 43z" />
    <glyph glyph-name="uni0438" unicode="&#x438;" horiz-adv-x="1134" 
d="M292 210q121 146 307 368l307 366q11 14 28 14q14 0 24 -10t10 -24v-876q0 -25 -19 -44q-19 -18 -45 -18q-25 0 -44 18q-18 19 -18 44v676l-616 -734q-9 -12 -26 -12q-34 0 -34 32v876q0 26 18 45q19 19 44 19q26 0 45 -19t19 -45v-676z" />
    <glyph glyph-name="uni0439" unicode="&#x439;" horiz-adv-x="1134" 
d="M292 210q121 146 307 368l307 366q11 14 28 14q14 0 24 -10t10 -24v-876q0 -25 -19 -44q-19 -18 -45 -18q-25 0 -44 18q-18 19 -18 44v676l-616 -734q-9 -12 -26 -12q-34 0 -34 32v876q0 26 18 45q19 19 44 19q26 0 45 -19t19 -45v-676zM672 1259q40 35 54 91l3 12l4 12
q4 13 9 22q14 22 40 22q48 0 48 -60v-16q-14 -98 -98 -163q-77 -59 -166 -59t-166 59q-84 65 -98 163v16q0 60 48 60q26 0 40 -22q5 -9 10 -22l3 -12l3 -12q14 -56 55 -91q44 -39 105 -39t106 39z" />
    <glyph glyph-name="uni043A" unicode="&#x43a;" horiz-adv-x="980" 
d="M290 508l492 432q22 18 42 18q24 0 42 -17q18 -18 18 -43q0 -24 -24 -44l-416 -350l470 -416q20 -17 20 -44q0 -24 -18 -41t-42 -17q-26 0 -44 18l-540 504v-460q0 -25 -18 -44q-18 -18 -44 -18q-27 0 -45 18q-19 18 -19 44v838q0 26 19 45q18 19 45 19q25 0 44 -19
q18 -19 18 -45v-378z" />
    <glyph glyph-name="uni043B" unicode="&#x43b;" horiz-adv-x="1130" 
d="M900 936q27 0 46 -18q18 -19 18 -46v-824q0 -25 -19 -44q-19 -18 -45 -18q-25 0 -44 18q-18 19 -18 44v772h-444l-40 -416q-15 -159 -69 -254q-52 -91 -161 -162q-17 -10 -34 -10q-24 0 -42 18t-18 42q0 35 34 54q144 85 160 262l46 516q7 66 66 66h564z" />
    <glyph glyph-name="uni043C" unicode="&#x43c;" horiz-adv-x="1346" 
d="M648 4q-148 366 -274 686l-204 -672q-13 -42 -58 -42q-25 0 -43 17q-17 17 -17 41q0 8 4 24l280 882q7 18 22 18q16 0 26 -20l288 -716q49 120 145 359l72 179l73 180q6 18 24 18q16 0 22 -18l280 -882q4 -16 4 -24q0 -24 -17 -41q-18 -17 -43 -17q-46 0 -56 40l-204 674
l-276 -686q-6 -18 -24 -18q-15 0 -24 18z" />
    <glyph glyph-name="uni043D" unicode="&#x43d;" horiz-adv-x="1100" 
d="M166 884q0 26 18 45q19 19 44 19q26 0 45 -19t19 -45v-316h516v318q0 26 18 45q19 19 44 19q26 0 45 -19t19 -45v-838q0 -25 -19 -44q-19 -18 -45 -18q-25 0 -44 18q-18 19 -18 44v404h-516v-404q0 -25 -19 -44q-19 -18 -45 -18q-25 0 -44 18q-18 19 -18 44v836z" />
    <glyph glyph-name="uni043E" unicode="&#x43e;" horiz-adv-x="1204" 
d="M334 205q109 -103 268 -103t268 103q110 104 110 263t-110 263q-109 103 -268 103t-268 -103q-110 -104 -110 -263t110 -263zM246 814q145 136 356 136q210 0 356 -136q148 -139 148 -346t-148 -346q-146 -136 -356 -136q-211 0 -356 136q-148 138 -148 346t148 346z" />
    <glyph glyph-name="uni043F" unicode="&#x43f;" horiz-adv-x="1088" 
d="M858 936q27 0 46 -18q18 -19 18 -46v-824q0 -25 -19 -44q-19 -18 -45 -18q-25 0 -44 18q-18 19 -18 44v772h-504v-772q0 -25 -19 -44q-19 -18 -45 -18q-25 0 -44 18q-18 19 -18 44v824q0 27 18 46q18 18 44 18h630z" />
    <glyph glyph-name="uni0440" unicode="&#x440;" horiz-adv-x="1280" 
d="M166 886q0 26 18 45q19 19 44 19q26 0 45 -19t19 -45v-156q58 106 165 164q104 56 237 56q203 0 344 -136q144 -139 144 -346t-144 -346q-141 -136 -344 -136q-133 0 -237 56q-107 58 -165 164v-710q0 -25 -19 -44q-19 -18 -45 -18q-25 0 -44 18q-18 19 -18 44v1390z
M406 201q110 -105 270 -105q158 0 268 105q112 107 112 267q0 159 -112 265q-110 105 -268 105q-159 0 -270 -105q-112 -106 -112 -265q0 -160 112 -267z" />
    <glyph glyph-name="uni0441" unicode="&#x441;" horiz-adv-x="992" 
d="M246 814q145 136 356 136q170 0 306 -102q24 -21 24 -48q0 -23 -17 -39q-17 -17 -41 -17q-11 0 -22 5q-9 4 -20 11q-102 74 -230 74q-159 0 -268 -103q-110 -104 -110 -263t110 -263q109 -103 268 -103q134 0 232 74q18 14 40 14q24 0 41 -17q17 -16 17 -39
q0 -28 -26 -48q-137 -100 -304 -100q-211 0 -356 136q-148 138 -148 346t148 346z" />
    <glyph glyph-name="uni0442" unicode="&#x442;" horiz-adv-x="854" 
d="M100 820q-24 0 -41 17t-17 41t17 41t41 17h652q24 0 41 -17t17 -41t-17 -41t-41 -17h-262v-772q0 -25 -19 -44q-19 -18 -45 -18q-25 0 -44 18q-18 19 -18 44v772h-264z" />
    <glyph glyph-name="uni0443" unicode="&#x443;" horiz-adv-x="974" 
d="M85 940q18 18 43 18q42 0 62 -46l288 -764l306 764q18 46 58 46q27 0 46 -18q18 -18 18 -44q0 -6 -4 -22l-570 -1420q-17 -42 -62 -42q-25 0 -43 18q-17 18 -17 44q0 16 6 28l198 496l-340 870q-6 12 -6 28q0 26 17 44z" />
    <glyph glyph-name="uni0444" unicode="&#x444;" horiz-adv-x="2102" 
d="M988 206q-59 -108 -166 -165q-103 -55 -236 -55q-203 0 -344 136q-144 139 -144 346t144 346q141 136 344 136q131 0 236 -56q108 -58 166 -164v720q0 26 18 45q19 19 44 19q26 0 45 -19t19 -45v-720q58 106 165 164q104 56 237 56q203 0 344 -136q144 -139 144 -346
t-144 -346q-141 -136 -344 -136q-133 0 -237 55q-108 58 -165 165v-690q0 -25 -19 -44q-19 -18 -45 -18q-25 0 -44 18q-18 19 -18 44v690zM984 468q0 159 -112 265q-110 105 -268 105q-159 0 -270 -105q-112 -106 -112 -265q0 -160 112 -267q110 -105 270 -105
q157 0 267 102q113 105 113 260v10zM1116 468q0 -160 112 -267q110 -105 270 -105q158 0 268 105q112 107 112 267q0 159 -112 265q-110 105 -268 105q-157 0 -266 -101q-112 -104 -116 -261v-8z" />
    <glyph glyph-name="uni0445" unicode="&#x445;" horiz-adv-x="906" 
d="M164 12q-19 -26 -52 -26q-24 0 -41 16q-17 17 -17 42q0 18 12 36l308 406l-278 374q-12 18 -12 38q0 24 16 41q17 17 42 17q32 0 48 -22l262 -358l266 358q16 22 46 22q25 0 42 -17q16 -17 16 -41q0 -21 -12 -36l-278 -376l310 -408q10 -13 10 -34q0 -25 -17 -42
q-17 -16 -43 -16q-29 0 -50 28l-290 380z" />
    <glyph glyph-name="uni0446" unicode="&#x446;" horiz-adv-x="1098" 
d="M228 0q-25 0 -44 18q-18 19 -18 44v824q0 26 18 45q19 19 44 19q26 0 45 -19t19 -45v-770h504v770q0 26 18 45q19 19 44 19q26 0 45 -19t19 -45v-770h16q98 0 98 -108v-172q0 -25 -19 -44q-19 -18 -45 -18q-25 0 -44 18q-18 19 -18 44v164h-682z" />
    <glyph glyph-name="uni0447" unicode="&#x447;" horiz-adv-x="1030" 
d="M738 328q-102 -76 -258 -76q-152 0 -246 104q-100 108 -100 294v236q0 26 19 45q18 19 45 19q25 0 44 -19q18 -19 18 -45v-218q0 -306 252 -306q132 0 226 74v450q0 26 19 45q18 19 45 19q25 0 44 -19q18 -19 18 -45v-838q0 -25 -18 -44q-18 -18 -44 -18q-27 0 -45 18
q-19 18 -19 44v280z" />
    <glyph glyph-name="uni0448" unicode="&#x448;" horiz-adv-x="1590" 
d="M1298 886q0 26 18 45q19 19 44 19q26 0 45 -19t19 -45v-824q0 -26 -18 -44q-19 -18 -46 -18h-1132q-25 0 -44 18q-18 19 -18 44v824q0 26 18 45q19 19 44 19q26 0 45 -19t19 -45v-770h438v770q0 26 19 45q20 19 45 19t44 -19q18 -19 18 -45v-770h442v770z" />
    <glyph glyph-name="uni0449" unicode="&#x449;" horiz-adv-x="1600" 
d="M228 0q-25 0 -44 18q-18 19 -18 44v824q0 26 18 45q19 19 44 19q26 0 45 -19t19 -45v-770h438v770q0 26 19 45q20 19 45 19t44 -19q18 -19 18 -45v-770h440v770q0 26 18 45q19 19 44 19q26 0 45 -19t19 -45v-770h16q98 0 98 -108v-172q0 -25 -19 -44q-19 -18 -45 -18
q-25 0 -44 18q-18 19 -18 44v164h-1182z" />
    <glyph glyph-name="uni044A" unicode="&#x44a;" horiz-adv-x="1040" 
d="M420 112h168q135 0 205 57q67 55 67 155t-65 155q-71 59 -207 59h-168v-426zM358 936q26 0 44 -18q18 -19 18 -46v-222h170q189 0 295 -91q101 -87 101 -235q0 -136 -88 -222q-91 -88 -252 -100q-32 -2 -100 -2h-188q-27 0 -45 18q-19 18 -19 44v762h-208q-23 0 -38 16
q-16 16 -16 40q0 23 16 39q16 17 38 17h272z" />
    <glyph glyph-name="uni044B" unicode="&#x44b;" horiz-adv-x="1306" 
d="M1012 886q0 26 19 45q18 19 45 19q25 0 44 -19q18 -19 18 -45v-838q0 -25 -18 -44q-18 -18 -44 -18q-27 0 -45 18q-19 18 -19 44v838zM228 0q-25 0 -44 18q-18 19 -18 44v824q0 26 18 45q19 19 44 19q26 0 45 -19t19 -45v-236h168q190 0 296 -91q100 -87 100 -235
t-100 -234q-105 -90 -296 -90h-232zM292 112h166q135 0 205 57q67 55 67 155t-65 155q-71 59 -207 59h-166v-426z" />
    <glyph glyph-name="uni044C" unicode="&#x44c;" horiz-adv-x="912" 
d="M228 0q-25 0 -44 18q-18 19 -18 44v824q0 26 18 45q19 19 44 19q26 0 45 -19t19 -45v-236h168q190 0 296 -91q100 -87 100 -235t-100 -234q-105 -90 -296 -90h-232zM292 112h166q135 0 205 57q67 55 67 155t-65 155q-71 59 -207 59h-166v-426z" />
    <glyph glyph-name="uni044D" unicode="&#x44d;" horiz-adv-x="992" 
d="M762 522q-18 137 -123 225q-104 87 -249 87q-130 0 -232 -74q-9 -7 -18 -11q-11 -5 -22 -5q-24 0 -41 17q-17 16 -17 39q0 27 24 48q140 102 306 102q211 0 356 -136q148 -138 148 -346t-148 -346q-145 -136 -356 -136q-166 0 -304 100q-26 20 -26 48q0 23 17 39
q17 17 41 17q23 0 40 -14q98 -74 232 -74q143 0 248 86q105 87 124 224h-472q-23 0 -39 16q-17 16 -17 38q0 23 17 39q17 17 39 17h472z" />
    <glyph glyph-name="uni044E" unicode="&#x44e;" horiz-adv-x="1538" 
d="M166 886q0 26 18 45q19 19 44 19q26 0 45 -19t19 -45v-360h144q21 186 164 306q141 118 336 118q210 0 356 -136q148 -139 148 -346t-148 -346q-146 -136 -356 -136q-195 0 -336 118q-143 119 -164 306h-144v-362q0 -25 -19 -44q-19 -18 -45 -18q-25 0 -44 18
q-18 19 -18 44v838zM668 205q109 -103 268 -103t268 103q110 104 110 263t-110 263q-109 103 -268 103t-268 -103q-110 -104 -110 -263t110 -263z" />
    <glyph glyph-name="uni044F" unicode="&#x44f;" horiz-adv-x="954" 
d="M120 94l292 294q-135 32 -200 90q-72 64 -72 172q0 138 103 214q98 72 269 72h174q45 0 70 -12q32 -15 32 -52v-824q0 -25 -19 -44q-19 -18 -45 -18q-25 0 -44 18q-18 19 -18 44v782h-174q-99 0 -160 -50q-62 -50 -62 -130q0 -69 41 -115q45 -51 129 -61q11 -1 36 -2
l22 -1h22q56 -3 74 -13q8 -4 8 -16q0 -9 -18 -30l-376 -400q-26 -26 -50 -26t-42 17t-18 41t26 50z" />
    <glyph glyph-name="uni0450" unicode="&#x450;" horiz-adv-x="1166" 
d="M247 122q-149 139 -149 346q0 205 143 345q140 137 343 137q197 0 336 -129q140 -130 150 -327v-4q0 -18 -13 -31q-14 -15 -35 -15h-796q20 -152 122 -246q103 -96 256 -96q184 0 298 148q18 24 48 24q26 0 43 -17t17 -43q0 -24 -16 -40q-152 -188 -392 -188
q-210 0 -355 136zM942 540q-21 135 -119 215q-96 79 -237 79q-132 0 -230 -80q-100 -82 -124 -214h710zM405 1418q14 14 35 14q20 0 36 -16l250 -240q20 -20 20 -40q0 -21 -14 -35q-15 -15 -36 -15q-18 0 -36 14l-254 244q-16 16 -16 38q0 21 15 36z" />
    <glyph glyph-name="uni0451" unicode="&#x451;" horiz-adv-x="1166" 
d="M247 122q-149 139 -149 346q0 205 143 345q140 137 343 137q197 0 336 -129q140 -130 150 -327v-4q0 -18 -13 -31q-14 -15 -35 -15h-796q20 -152 122 -246q103 -96 256 -96q184 0 298 148q18 24 48 24q26 0 43 -17t17 -43q0 -24 -16 -40q-152 -188 -392 -188
q-210 0 -355 136zM942 540q-21 135 -119 215q-96 79 -237 79q-132 0 -230 -80q-100 -82 -124 -214h710zM334 1200q-24 24 -24 58q0 33 24 57q24 23 58 23q33 0 58 -23q24 -24 24 -57q0 -34 -24 -58q-25 -24 -58 -24q-34 0 -58 24zM712 1200q-24 24 -24 58q0 33 24 57
q24 23 58 23q33 0 58 -23q24 -24 24 -57q0 -34 -24 -58q-25 -24 -58 -24q-34 0 -58 24z" />
    <glyph glyph-name="uni0452" unicode="&#x452;" horiz-adv-x="1074" 
d="M794 552q0 123 -70 204q-72 82 -186 82t-185 -82q-69 -80 -69 -202v-506q0 -25 -19 -44q-19 -18 -45 -18q-25 0 -44 18q-18 19 -18 44v1158h-92q-21 0 -35 15q-15 14 -15 35t15 36q14 14 35 14h92v144q0 26 18 45q19 19 44 19q26 0 45 -19t19 -45v-144h292q21 0 36 -14
q14 -15 14 -36t-14 -35q-15 -15 -36 -15h-292v-424q99 168 294 168q140 0 238 -98q104 -104 104 -270v-768q0 -378 -288 -378q-124 0 -216 92q-16 16 -16 40q0 21 16 37q16 15 38 15q24 0 44 -20q53 -56 128 -56q91 0 131 72q37 66 37 200v736z" />
    <glyph glyph-name="uni0453" unicode="&#x453;" horiz-adv-x="780" 
d="M614 1380l-250 -236q-16 -16 -36 -16t-35 14t-15 34t20 40l242 232q22 22 46 22q20 0 35 -13q15 -15 15 -35q0 -23 -22 -42zM292 820v-772q0 -25 -19 -44q-19 -18 -45 -18q-25 0 -44 18q-18 19 -18 44v824q0 27 18 46q18 18 44 18h450q24 0 41 -17t17 -41t-17 -41
t-41 -17h-386z" />
    <glyph glyph-name="uni0454" unicode="&#x454;" horiz-adv-x="992" 
d="M702 522q23 0 39 -17q17 -16 17 -39q0 -22 -17 -38q-16 -16 -39 -16h-472q18 -138 123 -225q104 -85 249 -85q131 0 232 74q18 14 40 14q24 0 41 -17q17 -16 17 -39q0 -28 -26 -48q-137 -100 -304 -100q-211 0 -356 136q-148 138 -148 346t148 346q145 136 356 136
q166 0 306 -102q24 -21 24 -48q0 -23 -17 -39q-17 -17 -41 -17q-11 0 -22 5q-9 4 -20 11q-102 74 -230 74q-143 0 -248 -88q-104 -88 -124 -224h472z" />
    <glyph glyph-name="uni0455" unicode="&#x455;" horiz-adv-x="774" 
d="M92 146q-16 24 -16 38q0 23 16 38q16 16 38 16q29 0 46 -24q89 -116 196 -116q86 0 138 50q50 47 50 118q0 74 -47 119q-42 41 -159 89q-230 94 -230 244q0 102 73 168q70 64 177 64q132 0 216 -100q12 -12 12 -34q0 -21 -15 -35q-15 -15 -37 -15t-38 16q-52 58 -128 58
q-60 0 -96 -32q-36 -33 -36 -84q0 -59 45 -96q36 -30 145 -76q129 -53 188 -123q56 -67 56 -159q0 -122 -79 -200q-84 -84 -229 -84q-176 0 -286 160z" />
    <glyph glyph-name="uni0456" unicode="&#x456;" horiz-adv-x="488" 
d="M310 1265q-27 -27 -66 -27t-66 27q-28 27 -28 67q0 39 28 66q27 26 66 26t66 -26q26 -27 26 -66q0 -40 -26 -67zM180 886q0 26 19 45q18 19 45 19q25 0 44 -19q18 -19 18 -45v-838q0 -25 -18 -44q-18 -18 -44 -18q-27 0 -45 18q-19 18 -19 44v838z" />
    <glyph glyph-name="uni0457" unicode="&#x457;" horiz-adv-x="488" 
d="M-4 1200q-24 24 -24 58q0 33 24 57q24 23 58 23q33 0 58 -23q24 -24 24 -57q0 -34 -24 -58q-25 -24 -58 -24q-34 0 -58 24zM374 1200q-24 24 -24 58q0 33 24 57q24 23 58 23q33 0 58 -23q24 -24 24 -57q0 -34 -24 -58q-25 -24 -58 -24q-34 0 -58 24zM180 886q0 26 19 45
q18 19 45 19q25 0 44 -19q18 -19 18 -45v-838q0 -25 -18 -44q-18 -18 -44 -18q-27 0 -45 18q-19 18 -19 44v838z" />
    <glyph glyph-name="uni0458" unicode="&#x458;" horiz-adv-x="498" 
d="M-223 -388q16 16 39 16q27 0 42 -18q61 -64 150 -64q192 0 192 274v1066q0 26 18 45q19 19 44 19q26 0 45 -19t19 -45v-1068q0 -382 -314 -382q-140 0 -236 96q-16 19 -16 40q0 24 17 40zM329 1265q-28 -27 -67 -27t-65 27q-27 27 -27 67q0 39 27 66q26 26 65 26t67 -26
q27 -27 27 -66q0 -40 -27 -67z" />
    <glyph glyph-name="uni0459" unicode="&#x459;" horiz-adv-x="1482" 
d="M64 92q66 39 109 108q42 69 51 154l23 258l23 258q3 29 21 47q18 19 45 19h524q26 0 44 -18q18 -19 18 -46v-242h154q163 0 259 -87q93 -86 93 -229q0 -141 -95 -227q-96 -87 -257 -87h-216q-27 0 -45 18q-19 18 -19 44v758h-402q-17 -172 -44 -472q-21 -227 -226 -360
q-17 -10 -34 -10q-24 0 -42 18t-18 42q0 35 34 54zM922 112h152q88 0 157 58q71 60 71 144q0 95 -58 149q-61 55 -170 55h-152v-406z" />
    <glyph glyph-name="uni045A" unicode="&#x45a;" horiz-adv-x="1468" 
d="M166 886q0 26 18 45q19 19 44 19q26 0 45 -19t19 -45v-318h490v318q0 26 19 45q18 19 45 19q25 0 44 -19q18 -19 18 -45v-256h154q163 0 259 -87q93 -86 93 -229q0 -141 -95 -227q-96 -87 -257 -87h-216q-27 0 -45 18q-19 18 -19 44v390h-490v-404q0 -25 -19 -44
q-19 -18 -45 -18q-25 0 -44 18q-18 19 -18 44v838zM908 112h152q88 0 157 58q71 60 71 144q0 95 -58 149q-61 55 -170 55h-152v-406z" />
    <glyph glyph-name="uni045B" unicode="&#x45b;" horiz-adv-x="1074" 
d="M284 782q99 168 294 168q139 0 238 -99q104 -105 104 -269v-534q0 -25 -19 -44q-19 -18 -45 -18q-25 0 -44 18q-18 19 -18 44v504q0 123 -70 204q-72 82 -186 82t-185 -82q-69 -80 -69 -202v-506q0 -25 -19 -44q-19 -18 -45 -18q-25 0 -44 18q-18 19 -18 44v1158h-94
q-21 0 -34 15q-14 14 -14 35t14 36q13 14 34 14h94v144q0 26 18 45q19 19 44 19q26 0 45 -19t19 -45v-144h292q21 0 36 -14q14 -15 14 -36t-14 -35q-15 -15 -36 -15h-292v-424z" />
    <glyph glyph-name="uni045C" unicode="&#x45c;" horiz-adv-x="980" 
d="M684 1360l-250 -236q-16 -16 -36 -16t-35 14t-15 34t20 40l242 232q22 22 46 22q20 0 35 -13q15 -15 15 -35q0 -23 -22 -42zM290 508l492 432q22 18 42 18q24 0 42 -17q18 -18 18 -43q0 -24 -24 -44l-416 -350l470 -416q20 -17 20 -44q0 -24 -18 -41t-42 -17
q-26 0 -44 18l-540 504v-460q0 -25 -18 -44q-18 -18 -44 -18q-27 0 -45 18q-19 18 -19 44v838q0 26 19 45q18 19 45 19q25 0 44 -19q18 -19 18 -45v-378z" />
    <glyph glyph-name="uni045D" unicode="&#x45d;" horiz-adv-x="1134" 
d="M411 1440q14 14 35 14q20 0 36 -16l250 -240q20 -20 20 -40q0 -21 -14 -35q-15 -15 -36 -15q-18 0 -36 14l-254 244q-16 16 -16 38q0 21 15 36zM292 210q121 146 307 368l307 366q11 14 28 14q14 0 24 -10t10 -24v-876q0 -25 -19 -44q-19 -18 -45 -18q-25 0 -44 18
q-18 19 -18 44v676l-616 -734q-9 -12 -26 -12q-34 0 -34 32v876q0 26 18 45q19 19 44 19q26 0 45 -19t19 -45v-676z" />
    <glyph glyph-name="uni045E" unicode="&#x45e;" horiz-adv-x="974" 
d="M85 940q18 18 43 18q42 0 62 -46l288 -764l306 764q18 46 58 46q27 0 46 -18q18 -18 18 -44q0 -6 -4 -22l-570 -1420q-17 -42 -62 -42q-25 0 -43 18q-17 18 -17 44q0 16 6 28l198 496l-340 870q-6 12 -6 28q0 26 17 44zM592 1279q40 35 54 91l3 12l4 12q4 13 9 22
q14 22 40 22q48 0 48 -60v-16q-14 -98 -98 -163q-77 -59 -166 -59t-166 59q-84 65 -98 163v16q0 60 48 60q26 0 40 -22q5 -9 10 -22l3 -12l3 -12q14 -56 55 -91q44 -39 105 -39t106 39z" />
    <glyph glyph-name="uni045F" unicode="&#x45f;" horiz-adv-x="1088" 
d="M228 0q-25 0 -44 18q-18 19 -18 44v824q0 26 18 45q19 19 44 19q26 0 45 -19t19 -45v-770h504v770q0 26 18 45q19 19 44 19q26 0 45 -19t19 -45v-824q0 -26 -18 -44q-19 -18 -46 -18h-252v-174q0 -25 -18 -44q-18 -18 -44 -18q-27 0 -45 18q-19 18 -19 44v174h-252z" />
    <glyph glyph-name="uni0490" unicode="&#x490;" horiz-adv-x="870" 
d="M670 1620q0 27 19 47q19 19 47 19q27 0 47 -19q19 -20 19 -47v-284q0 -27 -19 -45q-20 -19 -47 -19h-424v-1218q0 -28 -20 -48q-19 -20 -48 -20q-28 0 -48 20t-20 48v1278q0 29 20 48q20 20 48 20h426v220z" />
    <glyph glyph-name="uni0491" unicode="&#x491;" horiz-adv-x="762" 
d="M584 1120q0 26 17 44q18 18 43 18q24 0 42 -18q18 -19 18 -44v-242q0 -24 -17 -41t-41 -17h-354v-772q0 -25 -19 -44q-19 -18 -45 -18q-25 0 -44 18q-18 19 -18 44v824q0 27 18 46q18 18 44 18h356v184z" />
    <glyph glyph-name="Wgrave" unicode="&#x1e80;" horiz-adv-x="1958" 
d="M978 1138l-378 -1142q-9 -22 -34 -22q-28 0 -34 22l-476 1338q-4 16 -4 24q0 27 19 47q19 19 45 19q46 0 64 -50l382 -1124l382 1148q11 28 34 28q24 0 34 -28l382 -1148l382 1124q14 50 64 50q27 0 46 -19q18 -20 18 -47q0 -16 -4 -24l-474 -1338q-9 -22 -34 -22
q-28 0 -34 22zM693 1866q14 14 35 14q20 0 36 -16l250 -240q20 -20 20 -40q0 -21 -14 -35q-15 -15 -36 -15q-18 0 -36 14l-254 244q-16 16 -16 38q0 21 15 36z" />
    <glyph glyph-name="wgrave" unicode="&#x1e81;" horiz-adv-x="1530" 
d="M472 0q-10 -26 -34 -26t-34 24l-360 878q-4 12 -4 24q0 24 17 41t41 17q42 0 56 -34l284 -730l292 740q10 26 34 26t34 -26l292 -740l284 730q14 34 56 34q24 0 41 -17t17 -41q0 -12 -4 -24l-360 -878q-10 -24 -34 -24t-34 26l-292 746zM483 1418q14 14 35 14
q20 0 36 -16l250 -240q20 -20 20 -40q0 -21 -14 -35q-15 -15 -36 -15q-18 0 -36 14l-254 244q-16 16 -16 38q0 21 15 36z" />
    <glyph glyph-name="Wacute" unicode="&#x1e82;" horiz-adv-x="1958" 
d="M978 1138l-378 -1142q-9 -22 -34 -22q-28 0 -34 22l-476 1338q-4 16 -4 24q0 27 19 47q19 19 45 19q46 0 64 -50l382 -1124l382 1148q11 28 34 28q24 0 34 -28l382 -1148l382 1124q14 50 64 50q27 0 46 -19q18 -20 18 -47q0 -16 -4 -24l-474 -1338q-9 -22 -34 -22
q-28 0 -34 22zM1256 1788l-250 -236q-16 -16 -36 -16t-35 14t-15 34t20 40l242 232q22 22 46 22q20 0 35 -13q15 -15 15 -35q0 -23 -22 -42z" />
    <glyph glyph-name="wacute" unicode="&#x1e83;" horiz-adv-x="1530" 
d="M472 0q-10 -26 -34 -26t-34 24l-360 878q-4 12 -4 24q0 24 17 41t41 17q42 0 56 -34l284 -730l292 740q10 26 34 26t34 -26l292 -740l284 730q14 34 56 34q24 0 41 -17t17 -41q0 -12 -4 -24l-360 -878q-10 -24 -34 -24t-34 26l-292 746zM1038 1340l-250 -236
q-16 -16 -36 -16t-35 14t-15 34t20 40l242 232q22 22 46 22q20 0 35 -13q15 -15 15 -35q0 -23 -22 -42z" />
    <glyph glyph-name="Wdieresis" unicode="&#x1e84;" horiz-adv-x="1958" 
d="M978 1138l-378 -1142q-9 -22 -34 -22q-28 0 -34 22l-476 1338q-4 16 -4 24q0 27 19 47q19 19 45 19q46 0 64 -50l382 -1124l382 1148q11 28 34 28q24 0 34 -28l382 -1148l382 1124q14 50 64 50q27 0 46 -19q18 -20 18 -47q0 -16 -4 -24l-474 -1338q-9 -22 -34 -22
q-28 0 -34 22zM732 1648q-24 24 -24 58q0 33 24 57q24 23 58 23q33 0 58 -23q24 -24 24 -57q0 -34 -24 -58q-25 -24 -58 -24q-34 0 -58 24zM1110 1648q-24 24 -24 58q0 33 24 57q24 23 58 23q33 0 58 -23q24 -24 24 -57q0 -34 -24 -58q-25 -24 -58 -24q-34 0 -58 24z" />
    </font>
</defs>
</svg>
