<?xml version="1.0" standalone="no"?>
<!DOCTYPE svg PUBLIC "-//W3C//DTD SVG 1.1//EN" "http://www.w3.org/Graphics/SVG/1.1/DTD/svg11.dtd" >
<svg xmlns="http://www.w3.org/2000/svg" xmlns:xlink="http://www.w3.org/1999/xlink" version="1.1">
<metadata>
Created by FontForge 20170731 at Thu Oct  1 17:59:37 2015
 By Aleksey,,,
Copyright (c) 2015 by S-Core Co., Ltd.. All rights reserved.
</metadata>
<defs>
<font id="CoreSansGS-85Heavy" horiz-adv-x="828" >
  <font-face 
    font-family="Core Sans GS 85 Heavy"
    font-weight="800"
    font-stretch="normal"
    units-per-em="2000"
    panose-1="2 15 10 3 3 3 2 2 2 4"
    ascent="1600"
    descent="-400"
    x-height="936"
    cap-height="1400"
    bbox="-855 -601 3347 2353"
    underline-thickness="48"
    underline-position="-462"
    unicode-range="U+001D-FB06"
  />
<missing-glyph horiz-adv-x="1020" 
d="M10 1400h1000v-1400h-1000v1400zM231 1059q18 -19 45 -19q31 0 48 20q23 28 69 52q57 30 115 30q90 0 143 -42q49 -39 49 -98q0 -66 -58 -119q-46 -42 -158 -99q-158 -82 -158 -204q0 -86 53 -137t147 -51q64 0 122 36q26 16 26 50q0 26 -18 44t-44 18q-19 0 -32 -8
q-28 -16 -54 -16q-66 0 -66 58q0 55 114 110q134 62 194 130q68 76 68 186q0 116 -92 192t-234 76q-155 0 -280 -118q-18 -18 -18 -46q0 -26 19 -45zM435 152q27 -28 67 -28q41 0 68 28q28 28 28 68q0 41 -28 68q-27 28 -68 28q-40 0 -67 -28q-27 -27 -27 -68t27 -68z" />
    <glyph glyph-name="uniFB00" unicode="ff" horiz-adv-x="1595" 
d="M1299 654v-500q0 -72 -53 -125q-53 -54 -126 -54t-125 52q-54 53 -54 127v500h-383v-499q0 -72 -53 -125q-53 -54 -126 -54q-74 0 -127 52q-52 53 -52 127v499h-33q-57 0 -99 41q-42 42 -42 100q0 59 41 100q42 41 100 41h33v142q0 193 104 303q103 111 283 111
q123 0 214 -43q108 -53 108 -146q0 -57 -39 -97t-96 -40q-22 0 -64 15l-31 9q-18 5 -32 5q-89 0 -89 -119v-140h383v172q0 193 104 303q103 111 283 111q122 0 220 -49q112 -57 112 -149q0 -57 -40 -97q-39 -40 -97 -40q-16 0 -35 6l-16 6l-16 7q-44 19 -68 19
q-89 0 -89 -119v-170h126q59 0 100 -41t41 -100q0 -58 -41 -100q-41 -41 -100 -41h-126z" />
    <glyph glyph-name="uniFB01" unicode="fi" horiz-adv-x="1399" 
d="M67 895q42 41 100 41h33v63q0 246 137 384q139 139 388 139q221 0 384 -132q54 -44 54 -114q0 -60 -43 -102q-42 -42 -103 -42q-55 0 -101 38q-70 55 -158 55q-95 0 -148 -57q-52 -54 -52 -145v-87h552q89 0 137 -67q42 -61 42 -158v-556q0 -72 -53 -125
q-53 -54 -126 -54q-71 0 -124 52q-55 54 -55 128v498h-373v-499q0 -72 -53 -125q-53 -54 -126 -54q-71 0 -124 52q-55 54 -55 128v498h-33q-58 0 -100 41q-41 42 -41 100q0 59 41 100z" />
    <glyph glyph-name="uniFB02" unicode="fl" horiz-adv-x="1425" 
d="M72 895q42 41 100 41h28v98q0 228 125 360q122 128 326 128q187 0 313 -111q19 48 62 79q48 33 110 33q74 0 127 -52q52 -53 52 -127v-1202q0 -68 -52 -117q-53 -49 -127 -49t-127 49q-52 50 -52 120v1008q-72 77 -190 77q-98 0 -154 -58q-55 -56 -55 -154v-82h122
q55 0 98 -42q43 -43 43 -99q0 -58 -41 -100q-41 -41 -100 -41h-122v-503q0 -72 -50 -123q-52 -52 -129 -52q-74 0 -127 52q-52 53 -52 127v499h-28q-56 0 -98 42q-43 42 -43 99q0 59 41 100z" />
    <glyph glyph-name="uniFB03" unicode="ffi" horiz-adv-x="2140" 
d="M558 155q0 -74 -52 -127q-53 -52 -127 -52t-127 52q-52 53 -52 127v499h-33q-56 0 -98 42q-43 42 -43 99q0 59 41 100q42 41 100 41h33v142q0 193 104 303q103 111 283 111q123 0 214 -43q108 -53 108 -146q0 -57 -39 -97t-96 -40q-22 0 -64 15l-31 9q-18 5 -32 5
q-89 0 -89 -119v-140h383v63q0 246 137 384q139 139 388 139q221 0 384 -132q54 -44 54 -114q0 -60 -43 -102q-42 -42 -103 -42q-55 0 -101 38q-70 55 -158 55q-95 0 -148 -57q-52 -54 -52 -145v-87h552q74 0 127 -52q52 -53 52 -127v-602q0 -74 -52 -127q-53 -52 -127 -52
t-127 52q-52 53 -52 127v499h-373v-499q0 -74 -52 -127q-53 -52 -127 -52t-127 52q-52 53 -52 127v499h-383v-499z" />
    <glyph glyph-name="uniFB04" unicode="ffl" horiz-adv-x="2166" 
d="M1698 1153q-74 77 -190 77q-98 0 -154 -58q-55 -56 -55 -154v-82h122q55 0 98 -42q43 -43 43 -99q0 -58 -41 -100q-41 -41 -100 -41h-122v-499q0 -72 -53 -125q-53 -54 -126 -54q-74 0 -127 52q-52 53 -52 127v499h-383v-503q0 -72 -51 -123q-52 -52 -128 -52
q-74 0 -127 52q-52 53 -52 127v499h-33q-56 0 -98 42q-43 42 -43 99q0 59 41 100q42 41 100 41h33v142q0 193 104 303q103 111 283 111q123 0 214 -43q108 -53 108 -146q0 -57 -39 -97t-96 -40q-22 0 -64 15l-31 9q-18 5 -32 5q-89 0 -89 -119v-140h383v98q0 228 125 360
q122 128 326 128q88 0 174 -31t142 -84q20 51 62 83q47 34 107 34q74 0 127 -52q52 -53 52 -127v-1190q0 -72 -53 -125q-53 -54 -126 -54q-74 0 -127 52q-52 53 -52 127v998z" />
    <glyph glyph-name=".notdef" horiz-adv-x="1020" 
d="M10 1400h1000v-1400h-1000v1400zM231 1059q18 -19 45 -19q31 0 48 20q23 28 69 52q57 30 115 30q90 0 143 -42q49 -39 49 -98q0 -66 -58 -119q-46 -42 -158 -99q-158 -82 -158 -204q0 -86 53 -137t147 -51q64 0 122 36q26 16 26 50q0 26 -18 44t-44 18q-19 0 -32 -8
q-28 -16 -54 -16q-66 0 -66 58q0 55 114 110q134 62 194 130q68 76 68 186q0 116 -92 192t-234 76q-155 0 -280 -118q-18 -18 -18 -46q0 -26 19 -45zM435 152q27 -28 67 -28q41 0 68 28q28 28 28 68q0 41 -28 68q-27 28 -68 28q-40 0 -67 -28q-27 -27 -27 -68t27 -68z" />
    <glyph glyph-name=".null" horiz-adv-x="0" 
 />
    <glyph glyph-name="nonmarkingreturn" horiz-adv-x="666" 
 />
    <glyph glyph-name="glyph475" horiz-adv-x="0" 
 />
    <glyph glyph-name="glyph475" horiz-adv-x="0" 
 />
    <glyph glyph-name="space" unicode=" " horiz-adv-x="600" 
 />
    <glyph glyph-name="exclam" unicode="!" horiz-adv-x="716" 
d="M155 1239q0 84 60 144q59 59 143 59t144 -59q59 -60 59 -144v-607q0 -84 -59 -143q-60 -60 -144 -60t-143 60q-60 59 -60 143v607zM205 29q-63 55 -63 138q0 84 63 138q62 54 153 54t153 -54q63 -54 63 -138q0 -83 -63 -138q-62 -53 -153 -53t-153 53z" />
    <glyph glyph-name="quotedbl" unicode="&#x22;" horiz-adv-x="1201" 
d="M184 1259l-1 7v7q0 66 50 113q50 46 119 46t119 -46q51 -46 51 -113v-7l-1 -7l-28 -385q-6 -60 -45 -98q-39 -39 -96 -39t-96 39q-40 38 -45 98zM681 1259v6l-1 6q0 67 50 114t119 47t119 -47t50 -114v-12l-28 -385q-5 -59 -44 -98q-40 -39 -97 -39t-97 39t-44 98z" />
    <glyph glyph-name="numbersign" unicode="#" horiz-adv-x="1367" 
d="M102 1073q42 43 102 43h69v138q0 76 39 125q42 53 115 53q71 0 114 -53q40 -50 40 -125v-138h205v138q0 76 39 125q42 53 115 53q71 0 114 -53q40 -50 40 -125v-138h68q59 0 102 -43q44 -43 44 -103t-43 -102q-43 -43 -103 -43h-68v-244h68q59 0 102 -43q44 -43 44 -103
t-43 -102q-43 -43 -103 -43h-68v-144q0 -75 -40 -125q-42 -53 -114 -53q-73 0 -115 53q-39 49 -39 125v144h-205v-145q0 -75 -40 -124q-42 -53 -114 -53q-73 0 -115 53q-39 49 -39 125v144h-69q-59 0 -102 43q-43 42 -43 102t43 103q42 43 102 43h69v244h-69q-59 0 -102 43
q-43 42 -43 102t43 103zM581 581h205v244h-205v-244z" />
    <glyph glyph-name="dollar" unicode="$" horiz-adv-x="1139" 
d="M137 360q50 51 121 51q47 0 106 -37q76 -49 173 -49q61 0 99 29q37 29 37 76q0 50 -31 83q-36 36 -125 70q-195 74 -287 178q-98 110 -98 271q0 131 76 230q77 100 211 140v76q0 60 42 102t102 42t102 -42q42 -43 42 -102v-67q115 -22 181 -62q90 -55 90 -142
q0 -64 -47 -111q-46 -46 -111 -46q-31 0 -88 23q-29 11 -44 16q-26 7 -48 7q-18 0 -31 -5q-74 -5 -74 -68q0 -40 40 -71q43 -32 159 -78q345 -137 345 -456q0 -161 -88 -272q-89 -113 -251 -151v-72q0 -60 -42 -102q-42 -43 -102 -43t-102 43q-42 42 -42 102v63
q-140 23 -255 86q-110 59 -110 165q0 72 50 123z" />
    <glyph glyph-name="percent" unicode="%" horiz-adv-x="1893" 
d="M1680 74q-103 -98 -246 -98t-246 98q-104 100 -104 245q0 144 104 244q103 98 246 98t246 -98q104 -100 104 -244q0 -145 -104 -245zM213 1326q103 98 246 98t246 -98q104 -100 104 -245q0 -144 -104 -244q-103 -98 -246 -98t-246 98q-104 100 -104 244q0 145 104 245z
M425 151l868 1218q34 47 87 47q43 0 75 -31t32 -75q0 -33 -18 -58l-871 -1221q-33 -46 -87 -46q-43 0 -74 30q-32 31 -32 75q0 33 20 61zM390 1014q28 -28 69 -28q40 0 68 28t28 67t-28 68q-28 28 -68 28q-41 0 -69 -28q-27 -28 -27 -68q0 -39 27 -67zM1503 386
q-28 28 -69 28q-40 0 -68 -28t-28 -67t28 -67q28 -29 68 -29q41 0 69 29q27 27 27 67q0 39 -27 67z" />
    <glyph glyph-name="ampersand" unicode="&#x26;" horiz-adv-x="1378" 
d="M1181 187q39 -53 39 -110q0 -18 -8 -36q-11 -56 -57 -92q-46 -37 -107 -37q-84 0 -148 88l-36 48q-131 -72 -292 -72q-227 0 -364 115q-133 111 -133 291q0 238 232 405q-121 165 -121 299q0 151 116 246q112 92 284 92q166 0 282 -93q120 -96 120 -244q0 -108 -61 -196
q-52 -75 -167 -161q124 -162 187 -242l21 23l20 23q24 27 42 43q50 43 111 43q19 0 37 -8q57 -11 95 -56q38 -46 38 -106q0 -69 -49 -118l-26 -26l-27 -28q-31 -31 -56 -53zM473 308q40 -33 104 -33q57 0 100 23l-186 244q-60 -54 -60 -146q0 -55 42 -88zM647 1144
q-22 26 -59 26t-59 -25q-21 -23 -21 -59q0 -56 68 -138q90 65 90 142q0 31 -19 54z" />
    <glyph glyph-name="quotesingle" unicode="'" horiz-adv-x="704" 
d="M184 1259v6l-1 6q0 67 50 114t119 47t119 -47t50 -114v-12l-28 -385q-5 -59 -44 -98q-40 -39 -97 -39t-97 39t-44 98z" />
    <glyph glyph-name="parenleft" unicode="(" horiz-adv-x="834" 
d="M375 1425q49 87 140 87q62 0 110 -44q49 -46 49 -107q0 -36 -13 -67q-143 -330 -143 -674t143 -674q13 -31 13 -66q0 -61 -49 -107q-48 -44 -110 -44q-90 0 -135 77q-220 377 -220 814q0 425 215 805z" />
    <glyph glyph-name="parenright" unicode=")" horiz-adv-x="834" 
d="M454 -194q-45 -77 -135 -77q-62 0 -110 44q-49 46 -49 107q0 35 13 66q143 330 143 674t-143 674q-13 31 -13 67q0 61 49 107q48 44 110 44q91 0 140 -87q215 -380 215 -805q0 -437 -220 -814z" />
    <glyph glyph-name="asterisk" unicode="*" horiz-adv-x="1240" 
d="M508 797l-48 231q-14 64 36 116q50 53 124 53q72 0 121 -51q50 -51 37 -114l-46 -235l204 116q14 8 34 11l17 1h16q60 0 105 -45q48 -47 48 -113q0 -58 -36 -103q-37 -46 -92 -52l-226 -24l172 -157q37 -48 37 -104q0 -62 -45 -109q-46 -48 -111 -48q-45 0 -83 21
q-40 23 -58 62l-94 206l-100 -216q-16 -36 -56 -55q-36 -18 -80 -18q-65 0 -111 49q-45 47 -45 109q0 71 44 111l166 149l-237 25q-50 5 -85 53q-32 46 -32 101q0 66 47 113q45 45 105 45q49 0 76 -16z" />
    <glyph glyph-name="plus" unicode="+" horiz-adv-x="1268" 
d="M145 776q48 36 125 36h187v200q0 90 44 147q48 63 133 63q84 0 132 -63q45 -57 45 -147v-200h186q76 0 125 -36q54 -41 54 -112q0 -72 -53 -112q-49 -36 -126 -36h-186v-201q0 -89 -44 -146q-48 -63 -133 -63t-133 63q-44 57 -44 146v201h-187q-77 0 -125 36
q-53 40 -53 112t53 112z" />
    <glyph glyph-name="comma" unicode="," horiz-adv-x="638" 
d="M67 -135l95 410q13 57 61 94q49 38 110 38q73 0 125 -52q52 -51 52 -124q0 -31 -9 -58l-149 -399q-17 -45 -53 -72q-38 -28 -86 -28q-62 0 -106 42q-46 43 -46 106q0 18 6 43z" />
    <glyph glyph-name="hyphen" unicode="-" horiz-adv-x="812" 
d="M125 776q48 36 126 36h341q62 0 105 -43t43 -105q0 -73 -54 -112q-49 -36 -126 -36h-341q-61 0 -105 43q-43 44 -43 105q0 72 54 112z" />
    <glyph glyph-name="period" unicode="." horiz-adv-x="638" 
d="M167 39q-63 63 -63 152t63 153q63 63 152 63t152 -63q63 -64 63 -153t-63 -152t-152 -63t-152 63z" />
    <glyph glyph-name="slash" unicode="/" horiz-adv-x="1186" 
d="M99 18l684 1382q53 106 154 106q70 0 120 -49t50 -117q0 -43 -23 -87l-686 -1386q-48 -97 -151 -97q-69 0 -119 49t-50 116q0 40 21 83z" />
    <glyph glyph-name="zero" unicode="0" horiz-adv-x="1276" 
d="M638 1070q-126 0 -126 -370t126 -370t126 370t-126 370zM259 1226q136 198 379 198t379 -198q133 -194 133 -526t-133 -525q-136 -199 -379 -199t-379 199q-133 193 -133 525t133 526z" />
    <glyph glyph-name="one" unicode="1" horiz-adv-x="1276" 
d="M536 911l-77 -42q-45 -25 -90 -25q-65 0 -115 49q-50 50 -50 116q0 100 97 154l438 242q42 24 83 24q51 0 86 -34q34 -35 34 -87v-1127q0 -85 -59 -145q-60 -60 -144 -60t-143 60q-60 59 -60 143v732z" />
    <glyph glyph-name="two" unicode="2" horiz-adv-x="1276" 
d="M227 1232q148 192 395 192q212 0 344 -124q130 -124 130 -323q0 -172 -133 -348l-211 -280h188q96 0 155 -41q67 -46 67 -134q0 -70 -51 -122q-52 -52 -124 -52h-712q-59 0 -96 40q-35 38 -35 93q0 52 36 99l416 541q98 127 99 201q0 44 -29 71q-29 28 -75 28
q-62 0 -107 -61q-51 -68 -136 -68q-70 0 -118 46q-50 47 -50 116q0 63 47 126z" />
    <glyph glyph-name="three" unicode="3" horiz-adv-x="1276" 
d="M203 375q49 49 120 49q63 0 124 -56q53 -47 120 -47q72 0 114 43q41 41 41 110q0 73 -49 119q-47 44 -117 44h-10q-9 -1 -11 -1q-60 0 -101 38q-42 38 -42 94q0 49 40 104l147 199h-243q-68 0 -117 48q-48 48 -48 116t48 117q49 48 117 48h632q57 0 96 -37t39 -90
q0 -48 -40 -102l-230 -321q293 -118 293 -416q0 -190 -135 -319q-145 -139 -382 -139q-243 0 -403 154q-52 49 -52 126q0 71 49 119z" />
    <glyph glyph-name="four" unicode="4" horiz-adv-x="1276" 
d="M661 231h-425q-78 0 -125 30q-52 33 -52 96q0 46 35 98l576 851q83 122 194 122q80 0 132 -53q51 -53 51 -132v-668h21q69 0 120 -51q52 -52 52 -121q0 -71 -50 -122q-51 -50 -122 -50h-21v-59q0 -85 -51 -139q-54 -57 -142 -57q-80 0 -137 56q-56 57 -56 137v62z
M661 574v282l-192 -282h192z" />
    <glyph glyph-name="five" unicode="5" horiz-adv-x="1276" 
d="M207 369q50 49 121 49q42 0 114 -48q35 -23 57 -33q33 -15 67 -15q71 0 113 41q43 41 43 109q0 71 -48 117t-122 46q-33 0 -89 -19q-55 -20 -86 -20q-60 0 -100 34q-43 37 -43 99q0 17 3 39l3 19l3 19l68 458q10 64 54 100q43 36 107 36h464q71 0 122 -50q50 -51 50 -122
t-50 -122q-51 -50 -122 -50h-248l-26 -152q198 -12 326 -130q137 -125 137 -322q0 -205 -134 -336q-143 -140 -388 -140q-159 0 -293 71q-152 81 -152 202q0 71 49 120z" />
    <glyph glyph-name="six" unicode="6" horiz-adv-x="1276" 
d="M1012 113q-149 -137 -363 -137q-221 0 -377 138q-161 142 -161 357q0 173 115 345l356 534q59 88 160 88q80 0 135 -58q54 -58 54 -142q0 -44 -19 -75l-164 -258q172 -25 291 -144q126 -125 126 -292q0 -214 -153 -356zM742 360q44 43 44 106t-44 106q-43 43 -104 43
t-104 -43q-44 -43 -44 -106t44 -106q43 -43 104 -43t104 43z" />
    <glyph glyph-name="seven" unicode="7" horiz-adv-x="1276" 
d="M352 265l321 781h-355q-73 0 -124 51q-53 52 -53 126t52 125q52 52 125 52h713q59 0 101 -38q41 -39 41 -94q0 -37 -22 -93l-405 -1010q-77 -189 -213 -189q-84 0 -142 56q-59 57 -59 141q0 43 20 92z" />
    <glyph glyph-name="eight" unicode="8" horiz-adv-x="1276" 
d="M253 108q-153 131 -153 327q0 114 56 206q54 89 150 143q-53 43 -84 108q-34 69 -34 145q0 164 123 274q127 113 327 113t327 -113q123 -110 123 -274q0 -76 -34 -145q-31 -65 -84 -108q97 -53 151 -142q55 -92 55 -207q0 -196 -153 -327q-153 -132 -385 -132t-385 132z
M743 363q43 44 43 106t-43 106q-43 43 -105 43t-105 -43q-43 -44 -43 -106t43 -106q43 -43 105 -43t105 43zM718 922q33 33 33 81t-33 81t-80 33t-80 -33t-33 -81t33 -81t80 -33t80 33z" />
    <glyph glyph-name="nine" unicode="9" horiz-adv-x="1276" 
d="M264 1287q149 137 363 137q221 0 377 -138q161 -142 161 -357q0 -173 -115 -345l-346 -520q-59 -88 -160 -88q-80 0 -135 57t-55 140q0 37 20 79q8 17 21 37l23 36l110 170q-172 25 -291 144q-126 125 -126 292q0 214 153 356zM534 1040q-44 -43 -44 -106t44 -106
q43 -43 104 -43t104 43q44 43 44 106t-44 106q-43 43 -104 43t-104 -43z" />
    <glyph glyph-name="colon" unicode=":" horiz-adv-x="638" 
d="M167 39q-63 63 -63 152t63 153q63 63 152 63t152 -63q63 -64 63 -153t-63 -152t-152 -63t-152 63zM167 696q-63 63 -63 152t63 153q63 63 152 63t152 -63q63 -64 63 -153t-63 -152t-152 -63t-152 63z" />
    <glyph glyph-name="semicolon" unicode=";" horiz-adv-x="638" 
d="M167 696q-63 63 -63 152t63 153q63 63 152 63t152 -63q63 -64 63 -153t-63 -152t-152 -63t-152 63zM32 -135l95 410q13 57 61 94q49 38 110 38q73 0 125 -52q52 -51 52 -124q0 -32 -9 -58l-149 -399q-17 -45 -53 -72q-38 -28 -86 -28q-62 0 -106 42q-46 43 -46 106
q0 18 6 43z" />
    <glyph glyph-name="less" unicode="&#x3c;" horiz-adv-x="1268" 
d="M172 560q-66 35 -66 104t64 103l751 399q38 20 78 20q71 0 120 -49t49 -120q0 -104 -147 -176l-365 -177l364 -175q148 -71 148 -178q0 -70 -49 -120q-49 -49 -120 -49q-42 0 -78 19z" />
    <glyph glyph-name="equal" unicode="=" horiz-adv-x="1268" 
d="M130 1023q44 43 105 43h798q58 0 103 -44q45 -45 45 -104q0 -61 -43 -105q-43 -43 -105 -43h-798q-58 0 -103 44q-45 45 -45 104q0 62 43 105zM130 515q44 43 105 43h798q58 0 103 -44q45 -45 45 -104q0 -61 -43 -105q-43 -43 -105 -43h-798q-58 0 -103 44
q-45 45 -45 104q0 62 43 105z" />
    <glyph glyph-name="greater" unicode="&#x3e;" horiz-adv-x="1268" 
d="M353 161q-36 -19 -78 -19q-70 0 -120 49q-49 50 -49 120q0 107 148 178l364 175l-365 177q-147 72 -147 176q0 71 49 120q50 49 120 49q40 0 78 -20l751 -399q64 -34 64 -103t-66 -104z" />
    <glyph glyph-name="question" unicode="?" horiz-adv-x="1106" 
d="M234 1337q133 87 318 87q222 0 356 -105q128 -99 128 -249q0 -132 -73 -223q-66 -82 -199 -141q-102 -46 -136 -69q-33 -24 -33 -50q0 -41 68 -41q9 0 33 5l18 3q10 1 17 1q23 0 39 -18q16 -17 16 -41q0 -45 -74 -67q-56 -16 -140 -16q-123 0 -197 62q-72 60 -72 154
q0 154 183 255q75 41 107 75q35 37 35 83q0 45 -30 71q-31 26 -84 26q-72 0 -119 -59q-60 -75 -136 -75q-63 0 -107 42q-45 43 -45 105q0 103 127 185zM411 29q-63 55 -63 138q0 84 63 138q62 54 153 54t153 -54q63 -54 63 -138q0 -83 -63 -138q-62 -53 -153 -53t-153 53z
" />
    <glyph glyph-name="at" unicode="@" horiz-adv-x="1868" 
d="M822 137q-160 0 -264 118q-103 117 -103 291t103 291q104 118 264 118q72 0 141 -31q68 -31 110 -83q0 51 43 90q44 40 105 40t106 -40q44 -39 44 -90v-419q0 -145 109 -145q77 0 127 83q51 87 51 232q0 295 -207 502q-211 210 -525 210q-297 0 -506 -222
q-210 -222 -210 -534q0 -308 213 -528q216 -224 529 -224q229 0 432 110q18 10 35 10q24 0 41 -16q17 -17 17 -41q0 -36 -32 -54q-235 -129 -493 -129q-182 0 -347 72q-157 69 -279 194q-119 122 -185 278q-67 160 -67 328q0 169 66 330q65 157 182 280q118 125 270 194
q160 72 334 72q366 0 621 -252q117 -117 181 -266q66 -152 66 -314q0 -206 -106 -329q-110 -128 -306 -128q-219 0 -306 130q-87 -128 -254 -128zM1003 650q-43 43 -104 43q-62 0 -105 -43q-42 -43 -42 -104t42 -104q43 -43 105 -43q61 0 104 43t43 104q0 60 -43 104z" />
    <glyph glyph-name="A" unicode="A" horiz-adv-x="1412" 
d="M106 252l428 1013q32 75 67 112q43 45 105 45q107 0 173 -157l429 -1018q7 -18 12 -37q5 -23 5 -43q0 -79 -53 -134q-53 -57 -132 -57q-63 0 -112 35q-48 34 -69 91l-37 99h-433l-36 -95q-21 -55 -70 -91q-52 -39 -112 -39q-77 0 -132 54q-54 55 -54 132q0 41 21 90z
M706 803l-119 -326h238z" />
    <glyph glyph-name="B" unicode="B" horiz-adv-x="1197" 
d="M126 1242q0 65 45 112q46 46 111 46h276q235 0 366 -106q126 -101 126 -269q0 -182 -147 -280q232 -98 232 -340q0 -183 -140 -290q-153 -115 -441 -115h-272q-65 0 -111 45q-45 46 -45 111v1086zM515 597v-298h50q177 0 177 149t-177 149h-50zM573 875q51 0 88 31
q39 33 39 82q0 51 -33 82q-34 31 -94 31h-58v-226h58z" />
    <glyph glyph-name="C" unicode="C" horiz-adv-x="1482" 
d="M297 1223q216 201 519 201q288 0 494 -165q77 -62 77 -151q0 -76 -53 -130q-53 -53 -130 -53q-70 0 -137 58q-101 87 -241 87q-146 0 -250 -104q-107 -108 -107 -266t107 -266q104 -104 250 -104q145 0 246 91q61 54 132 54q77 0 130 -53t53 -130q0 -91 -81 -153
q-208 -163 -490 -163q-303 0 -519 201q-224 209 -224 523t224 523z" />
    <glyph glyph-name="D" unicode="D" horiz-adv-x="1384" 
d="M126 1242q0 65 45 112q46 46 111 46h287q318 0 527 -191q214 -196 214 -509t-214 -509q-209 -191 -527 -191h-287q-65 0 -111 45q-45 46 -45 111v1086zM527 354h53q153 0 241 92t88 254t-88 254t-241 92h-53v-692z" />
    <glyph glyph-name="E" unicode="E" horiz-adv-x="1053" 
d="M126 1242q0 80 62 122q54 36 144 36h493q68 0 114 -47q47 -47 47 -116q0 -67 -47 -114q-46 -47 -114 -47h-293v-185h251q68 0 114 -47q47 -47 47 -116q0 -67 -47 -114q-46 -47 -114 -47h-251v-243h310q68 0 114 -47q47 -47 47 -116q0 -67 -47 -114q-46 -47 -114 -47h-509
q-90 0 -144 35q-63 41 -63 121v1086z" />
    <glyph glyph-name="F" unicode="F" horiz-adv-x="1012" 
d="M126 1242q0 80 62 121q54 37 143 37h483q68 0 114 -47q47 -47 47 -116q0 -67 -47 -114q-46 -47 -114 -47h-282v-197h239q68 0 115 -47t47 -117q0 -68 -47 -114t-115 -46h-239v-373q0 -206 -203 -206q-84 0 -143 60q-60 59 -60 143v1063z" />
    <glyph glyph-name="G" unicode="G" horiz-adv-x="1584" 
d="M861 736q36 37 88 37h436q53 0 90 -38q38 -37 38 -90v-5q0 -296 -194 -480t-502 -184q-301 0 -519 203q-225 210 -225 521q0 312 226 522q218 202 521 202q249 0 451 -137q54 -36 86 -81q40 -54 40 -111q0 -77 -55 -128q-54 -50 -131 -50q-54 0 -99 32q-91 63 -137 85
q-75 36 -151 36q-146 0 -251 -106q-106 -108 -106 -264q0 -159 111 -268q104 -103 238 -103q114 0 194 50q82 50 112 143h-173q-52 0 -88 37q-37 36 -37 88t37 89z" />
    <glyph glyph-name="H" unicode="H" horiz-adv-x="1389" 
d="M855 556h-324v-377q0 -84 -59 -143q-60 -60 -144 -60t-143 60q-60 59 -60 143v1042q0 84 60 144q59 59 143 59t144 -59q59 -60 59 -144v-311h324v311q0 84 60 144q59 59 143 59t144 -59q59 -60 59 -144v-1042q0 -84 -59 -143q-60 -60 -144 -60t-143 60q-60 59 -60 143
v377z" />
    <glyph glyph-name="I" unicode="I" horiz-adv-x="690" 
d="M142 1221q0 84 60 144q59 59 143 59t144 -59q59 -60 59 -144v-1042q0 -84 -59 -143q-60 -60 -144 -60t-143 60q-60 59 -60 143v1042z" />
    <glyph glyph-name="J" unicode="J" horiz-adv-x="1112" 
d="M88 389q50 48 122 48q73 0 130 -60q44 -47 108 -47q60 0 96 41q36 42 36 117v733q0 84 60 144q59 59 143 59t144 -59q59 -60 59 -144v-747q0 -232 -137 -366q-136 -132 -367 -132q-217 0 -381 150q-65 60 -65 139q0 74 52 124z" />
    <glyph glyph-name="K" unicode="K" horiz-adv-x="1385" 
d="M126 1221q0 84 60 144q59 59 143 59t144 -59q59 -60 59 -144v-416l347 514q66 99 171 99q80 0 138 -52q60 -55 60 -136q0 -60 -36 -109l-298 -403l329 -426q38 -49 38 -113q0 -83 -54 -141q-56 -61 -138 -61q-105 0 -169 93l-388 561v-452q0 -84 -59 -143
q-60 -60 -144 -60t-143 60q-60 59 -60 143v1042z" />
    <glyph glyph-name="L" unicode="L" horiz-adv-x="1024" 
d="M126 1221q0 79 61 141q62 62 142 62q85 0 145 -62q58 -60 58 -138v-870h299q74 0 125 -51q51 -52 51 -127q0 -74 -51 -125t-125 -51h-549q-65 0 -111 45q-45 46 -45 111v1065z" />
    <glyph glyph-name="M" unicode="M" horiz-adv-x="2008" 
d="M103 252l321 1056q15 51 55 83q42 33 95 33q50 0 92 -30q40 -30 59 -78l279 -699l279 698q44 109 150 109q54 0 95 -33q41 -32 56 -83l321 -1056q11 -35 11 -64q0 -86 -53 -147q-56 -64 -141 -64q-147 0 -191 162l-147 538l-232 -595q-41 -106 -148 -106q-51 0 -91 30
q-39 28 -58 78l-231 593l-142 -542q-42 -158 -196 -158q-82 0 -139 57t-57 140q0 37 13 78z" />
    <glyph glyph-name="N" unicode="N" horiz-adv-x="1471" 
d="M126 1281q0 63 39 103q38 40 97 40q72 0 117 -51l565 -650v494q0 87 57 147q58 60 143 60q83 0 142 -59t59 -142v-1105q0 -62 -39 -102t-98 -40q-74 0 -117 51l-564 650v-496q0 -85 -59 -145t-142 -60t-142 58q-58 59 -58 142v1105z" />
    <glyph glyph-name="O" unicode="O" horiz-adv-x="1658" 
d="M299 1221q219 203 530 203t530 -203q226 -210 226 -521t-226 -521q-219 -203 -530 -203t-530 203q-226 210 -226 521t226 521zM574 436q104 -106 257 -106t257 106q105 106 105 264t-105 264q-104 106 -257 106t-257 -106q-105 -106 -105 -264t105 -264z" />
    <glyph glyph-name="P" unicode="P" horiz-adv-x="1178" 
d="M126 1242q0 65 45 112q46 46 111 46h277q265 0 419 -139q144 -130 144 -338q0 -214 -154 -342q-161 -135 -446 -135v-272q0 -82 -58 -140t-140 -58t-140 58t-58 140v1068zM522 765h61q73 0 116 38q47 41 47 120q0 72 -46 116q-45 42 -117 42h-61v-316z" />
    <glyph glyph-name="Q" unicode="Q" horiz-adv-x="1662" 
d="M299 1221q219 203 530 203t530 -203q226 -210 226 -521q0 -245 -148 -435l84 -81q54 -52 54 -122q0 -67 -47 -114q-48 -48 -114 -48q-65 0 -118 51l-114 110q-164 -85 -353 -85q-311 0 -530 203q-226 210 -226 521t226 521zM574 436q104 -106 257 -106q154 0 258 105
q104 106 104 265q0 158 -105 264q-104 106 -257 106t-257 -106q-105 -106 -105 -264t105 -264z" />
    <glyph glyph-name="R" unicode="R" horiz-adv-x="1272" 
d="M126 1242q0 158 218 158h254q234 0 380 -133q142 -130 142 -329q0 -262 -231 -383l234 -296q36 -45 36 -104q0 -76 -53 -127q-53 -52 -132 -52q-99 0 -154 78l-298 420v-300q0 -82 -58 -140t-140 -58t-140 58t-58 140v1068zM522 760h47q73 0 116 40q47 43 47 123
q0 74 -46 119q-45 44 -117 44h-47v-326z" />
    <glyph glyph-name="S" unicode="S" horiz-adv-x="1148" 
d="M124 375q51 51 122 51q51 0 99 -34q93 -67 194 -67q58 0 97 29q39 30 39 76q0 51 -31 83q-35 36 -125 70q-195 74 -287 178q-98 110 -98 271q0 166 120 277q125 115 326 115q192 0 331 -88q37 -23 60 -59q25 -39 25 -80q0 -64 -46 -110q-45 -47 -109 -47q-45 0 -86 24
q-59 32 -113 32q-107 0 -107 -73q0 -40 40 -70q42 -32 161 -79q345 -137 345 -456q0 -199 -132 -318q-136 -124 -372 -124q-216 0 -391 104q-113 68 -113 172q0 71 51 123z" />
    <glyph glyph-name="T" unicode="T" horiz-adv-x="1106" 
d="M350 1046h-150q-71 0 -123 52q-53 52 -53 124q0 76 51 127t125 51h706q70 0 123 -53t53 -125q0 -74 -51 -125t-125 -51h-150v-867q0 -84 -59 -143q-60 -60 -144 -60t-143 60q-60 59 -60 143v867z" />
    <glyph glyph-name="U" unicode="U" horiz-adv-x="1376" 
d="M298 123q-172 157 -172 411v684q0 89 49 144q54 62 154 62t155 -62q48 -55 48 -141v-710q0 -76 41 -127q43 -54 115 -54t114 48t42 133v710q0 85 50 141q55 62 153 62q99 0 154 -62q49 -56 49 -144v-684q0 -254 -171 -411q-160 -147 -391 -147t-390 147z" />
    <glyph glyph-name="V" unicode="V" horiz-adv-x="1424" 
d="M141 1370q55 54 132 54q64 0 114 -39q46 -37 70 -98l255 -668l257 672q22 59 69 95q50 38 113 38q77 0 132 -54q54 -55 54 -132q0 -41 -16 -79l-459 -1078q-45 -105 -150 -105t-150 105l-459 1078q-16 38 -16 79q0 77 54 132z" />
    <glyph glyph-name="W" unicode="W" horiz-adv-x="2064" 
d="M147 1370q56 54 135 54q64 0 113 -37q50 -37 70 -99l201 -614l221 641q18 50 55 79q39 30 89 30t90 -30q39 -29 56 -79l221 -641l202 615q20 62 69 98q49 37 113 37q83 0 139 -55q55 -55 55 -136q0 -38 -15 -76l-411 -1076q-41 -105 -147 -105q-109 0 -147 110l-224 650
l-225 -651q-18 -50 -56 -79q-40 -30 -92 -30q-105 0 -144 102l-407 1068q-18 45 -18 89q0 81 57 135z" />
    <glyph glyph-name="X" unicode="X" horiz-adv-x="1403" 
d="M202 1364q56 55 136 55q117 0 191 -114l172 -267l179 268q37 56 73 81q45 32 111 32q80 0 136 -55q57 -55 57 -134q0 -35 -18 -76q-14 -29 -40 -69l-243 -356l312 -444q34 -50 34 -112q0 -83 -58 -139q-58 -55 -141 -55q-55 0 -109 36q-47 32 -80 81l-213 320l-217 -321
q-79 -116 -186 -116q-84 0 -140 55q-57 55 -57 139q0 64 34 113l312 443l-240 350q-61 89 -61 151q0 79 56 134z" />
    <glyph glyph-name="Y" unicode="Y" horiz-adv-x="1418" 
d="M912 182q0 -206 -203 -206q-84 0 -143 60q-60 59 -60 143v353l-372 604q-27 43 -27 100q0 76 56 132q55 56 133 56q114 0 183 -122l230 -406l232 409q67 119 180 119q81 0 135 -59q52 -57 52 -134q0 -57 -23 -94l-373 -605v-350z" />
    <glyph glyph-name="Z" unicode="Z" horiz-adv-x="1200" 
d="M107 237l441 819h-275q-69 0 -120 50q-51 51 -51 121q0 73 50 123q49 50 121 50h691q55 0 99 -41q44 -40 44 -92q0 -46 -27 -94l-454 -829h356q68 0 119 -51q52 -52 52 -120q0 -73 -49 -123q-50 -50 -122 -50h-759q-63 0 -104 40q-42 39 -42 96q0 44 30 101z" />
    <glyph glyph-name="bracketleft" unicode="[" horiz-adv-x="861" 
d="M672 42q62 0 107 -44q44 -45 44 -107q0 -63 -44 -107q-45 -44 -107 -44h-311q-58 0 -97 40q-40 39 -40 97v1484q0 58 40 98q39 41 97 41h311q62 0 107 -44q44 -45 44 -107q0 -63 -44 -107q-45 -44 -107 -44h-94v-1156h94z" />
    <glyph glyph-name="backslash" unicode="\" horiz-adv-x="1186" 
d="M1057 -181q-50 -49 -119 -49q-102 0 -151 97l-686 1386q-23 44 -23 87q0 68 50 117t120 49q101 0 154 -106l684 -1382q21 -43 21 -83q0 -67 -50 -116z" />
    <glyph glyph-name="bracketright" unicode="]" horiz-adv-x="861" 
d="M283 42v1156h-94q-62 0 -107 44q-44 44 -44 107q0 62 44 107q45 44 107 44h311q58 0 97 -41q40 -40 40 -98v-1484q0 -58 -40 -97q-39 -40 -97 -40h-311q-62 0 -107 44q-44 44 -44 107q0 62 44 107q45 44 107 44h94z" />
    <glyph glyph-name="asciicircum" unicode="^" horiz-adv-x="1302" 
d="M545 1360q45 59 105 59q62 0 108 -62l296 -396q53 -73 53 -127q0 -67 -44 -114q-45 -47 -111 -47q-83 0 -154 98l-147 201l-147 -201q-72 -99 -154 -98q-64 0 -111 46q-47 47 -47 112q0 56 35 102z" />
    <glyph glyph-name="underscore" unicode="_" horiz-adv-x="1000" 
d="M10 -195q31 31 76 31h828q45 0 77 -31q31 -32 31 -77t-31 -76q-32 -32 -77 -32h-828q-45 0 -76 32q-32 31 -32 76t32 77z" />
    <glyph glyph-name="grave" unicode="`" horiz-adv-x="848" 
d="M230 1466q33 34 78 34q43 0 76 -28l218 -174q47 -37 47 -92q0 -44 -32 -76t-78 -32q-38 0 -68 23l-223 171q-52 38 -52 94q0 46 34 80z" />
    <glyph glyph-name="a" unicode="a" horiz-adv-x="1283" 
d="M689 15q-82 -39 -174 -39q-193 0 -321 142q-127 141 -127 350t127 350q128 142 321 142q91 0 174 -39q77 -37 126 -97q12 51 69 88q53 35 110 35q70 0 124 -45q55 -47 55 -113v-647q0 -77 -55 -123q-51 -43 -124 -43q-69 0 -118 38t-61 102q-49 -63 -126 -101zM737 596
q-53 52 -128 52t-127 -52q-53 -52 -53 -128t53 -128q52 -52 127 -52t128 52q52 52 52 128t-52 128z" />
    <glyph glyph-name="b" unicode="b" horiz-adv-x="1283" 
d="M408 14q-48 -38 -119 -38q-74 0 -127 49q-52 50 -52 120v1201q0 74 52 126q53 52 127 52t127 -52q52 -53 52 -127v-521q49 60 126 97q83 39 174 39q193 0 321 -142q127 -141 127 -350t-127 -350q-128 -142 -321 -142q-92 0 -174 39q-77 38 -126 101q-12 -65 -60 -102z
M547 340q52 -52 127 -52t128 52q52 52 52 128t-52 128q-53 52 -128 52t-127 -52q-53 -52 -53 -128t53 -128z" />
    <glyph glyph-name="c" unicode="c" horiz-adv-x="1040" 
d="M213 817q150 143 360 143q179 0 309 -92q78 -54 78 -141q0 -66 -47 -113q-48 -47 -116 -47q-56 0 -99 34q-53 39 -112 39q-69 0 -118 -48q-51 -50 -51 -124t51 -124q49 -48 118 -48q63 0 112 39q43 34 99 34q68 0 116 -47q47 -47 47 -114q0 -84 -79 -141
q-129 -91 -308 -91q-210 0 -360 143q-152 144 -152 349t152 349z" />
    <glyph glyph-name="d" unicode="d" horiz-adv-x="1283" 
d="M688 15q-82 -39 -174 -39q-193 0 -321 142q-127 141 -127 350t127 350q128 142 321 142q91 0 174 -39q77 -37 126 -97v521q0 74 52 127q53 52 127 52t127 -52q52 -52 52 -126v-1201q0 -70 -52 -120q-53 -49 -127 -49q-71 0 -119 38q-48 37 -60 102q-49 -63 -126 -101z
M736 596q-53 52 -128 52t-127 -52q-53 -52 -53 -128t53 -128q52 -52 127 -52t128 52q52 52 52 128t-52 128z" />
    <glyph glyph-name="e" unicode="e" horiz-adv-x="1157" 
d="M770 298q55 37 98 37q58 0 101 -41q44 -42 44 -100q0 -93 -131 -157q-124 -61 -285 -61q-232 0 -385 141q-151 141 -151 351q0 207 153 350q152 142 372 142q201 0 351 -134q148 -132 159 -314v-13q0 -49 -33 -81q-33 -31 -84 -31h-551q13 -65 63 -101q48 -36 120 -36
q90 0 159 48zM490 679q-43 -30 -60 -80h332q-17 50 -60 80q-45 31 -106 31t-106 -31z" />
    <glyph glyph-name="f" unicode="f" horiz-adv-x="854" 
d="M71 897q44 39 107 39h22v172q0 193 104 303q103 111 283 111q123 0 219 -48q113 -56 113 -150q0 -57 -40 -97q-39 -40 -97 -40q-24 0 -67 19l-17 7l-16 6q-19 6 -35 6q-89 0 -89 -119v-170h127q59 0 100 -41t41 -100q0 -58 -41 -100q-41 -41 -100 -41h-127v-499
q0 -73 -53 -126t-126 -53q-71 0 -124 53q-55 53 -55 127v498h-33q-57 0 -99 41q-42 42 -42 100q0 62 45 102z" />
    <glyph glyph-name="g" unicode="g" horiz-adv-x="1283" 
d="M213 -199q47 46 112 46q61 0 99 -34q73 -65 172 -65q102 0 159 62q60 66 60 196v110q-49 -63 -126 -101q-82 -39 -174 -39q-193 0 -321 142q-127 141 -127 350t127 350q128 142 321 142q91 0 175 -40q76 -37 125 -96q13 59 60 97q50 39 119 39q74 0 127 -52
q52 -53 52 -127v-748q0 -297 -153 -450q-145 -147 -412 -147q-208 0 -366 119q-75 56 -75 134q0 65 46 112zM737 596q-53 52 -128 52t-127 -52q-53 -52 -53 -128t53 -128q52 -52 127 -52t128 52q52 52 52 128t-52 128z" />
    <glyph glyph-name="h" unicode="h" horiz-adv-x="1158" 
d="M110 1345q0 74 52 127q53 52 127 52t127 -52q52 -53 52 -127v-516q44 57 113 92q77 39 166 39q133 0 217 -90q88 -94 88 -250v-465q0 -74 -52 -127q-53 -52 -127 -52t-127 52q-52 53 -52 127v378q0 52 -32 86t-81 34q-47 0 -79 -32t-34 -82v-384q0 -74 -52 -127
q-53 -52 -127 -52t-127 52q-52 53 -52 127v1190z" />
    <glyph glyph-name="i" unicode="i" horiz-adv-x="600" 
d="M161 1431q57 57 139 57t139 -57q58 -58 58 -139t-58 -138q-57 -58 -139 -58t-139 58q-58 57 -58 138t58 139zM121 781q0 74 52 127q53 52 127 52t127 -52q52 -53 52 -127v-626q0 -74 -52 -127q-53 -52 -127 -52t-127 52q-52 53 -52 127v626z" />
    <glyph glyph-name="j" unicode="j" horiz-adv-x="666" 
d="M-199 -233q46 46 111 46q50 0 92 -31q42 -30 81 -30q111 0 111 139v890q0 74 52 127q53 52 127 52t127 -52q52 -53 52 -127v-899q0 -211 -116 -329q-115 -117 -324 -117q-171 0 -283 82q-75 55 -75 136q0 67 45 113zM236 1431q57 57 139 57t139 -57q58 -58 58 -139
t-58 -138q-57 -58 -139 -58t-139 58q-58 57 -58 138t58 139z" />
    <glyph glyph-name="k" unicode="k" horiz-adv-x="1201" 
d="M110 1345q0 74 52 127q53 52 127 52t127 -52q52 -53 52 -127v-740l317 306q52 49 116 49q68 0 115 -47t47 -115t-48 -113l-217 -195l247 -232q54 -52 54 -121q0 -67 -47 -114t-115 -47q-72 0 -127 58l-342 349v-228q0 -74 -52 -127q-53 -52 -127 -52t-127 52
q-52 53 -52 127v1190z" />
    <glyph glyph-name="l" unicode="l" horiz-adv-x="596" 
d="M119 1345q0 74 52 127q53 52 127 52t127 -52q52 -53 52 -127v-1190q0 -74 -52 -127q-53 -52 -127 -52t-127 52q-52 53 -52 127v1190z" />
    <glyph glyph-name="m" unicode="m" horiz-adv-x="1742" 
d="M110 791q0 70 52 120q53 49 127 49q70 0 119 -36q50 -37 60 -101q43 59 116 97q76 40 155 40q177 0 266 -146q121 146 319 146q137 0 223 -91q89 -94 89 -251v-463q0 -74 -52 -127q-53 -52 -127 -52t-127 52q-52 53 -52 127v378q0 48 -33 84t-80 36q-49 0 -81 -34
t-32 -86v-378q0 -74 -52 -127q-53 -52 -127 -52t-127 52q-52 53 -52 127v378q0 48 -33 84t-80 36q-49 0 -81 -34t-32 -86v-378q0 -74 -52 -127q-53 -52 -127 -52t-127 52q-52 53 -52 127v636z" />
    <glyph glyph-name="n" unicode="n" horiz-adv-x="1158" 
d="M110 791q0 70 52 120q53 49 127 49q70 0 119 -36q50 -37 60 -101q42 60 114 98q77 39 162 39q138 0 221 -92q87 -96 87 -266v-447q0 -74 -52 -127q-53 -52 -127 -52t-127 52q-52 53 -52 127v378q0 52 -32 86t-81 34q-47 0 -79 -32t-34 -82v-384q0 -74 -52 -127
q-53 -52 -127 -52t-127 52q-52 53 -52 127v636z" />
    <glyph glyph-name="o" unicode="o" horiz-adv-x="1168" 
d="M211 816q152 144 373 144t373 -144q150 -143 150 -348t-150 -348q-152 -144 -373 -144t-373 144q-150 143 -150 348t150 348zM464 345q50 -49 120 -49t120 49q52 50 52 123t-52 123q-50 49 -120 49t-120 -49q-52 -50 -52 -123t52 -123z" />
    <glyph glyph-name="p" unicode="p" horiz-adv-x="1283" 
d="M594 921q82 39 174 39q193 0 321 -142q127 -141 127 -350t-127 -350q-128 -142 -321 -142q-91 0 -174 39q-77 37 -126 97v-521q0 -70 -54 -124q-54 -55 -125 -55q-69 0 -124 55t-55 124v1200q0 70 52 120q53 49 127 49q71 0 119 -38q48 -37 60 -102q49 63 126 101z
M547 340q52 -52 127 -52t128 52q52 52 52 128t-52 128q-53 52 -128 52t-127 -52q-53 -52 -53 -128t53 -128z" />
    <glyph glyph-name="q" unicode="q" horiz-adv-x="1283" 
d="M875 922q48 38 119 38q74 0 127 -49q52 -50 52 -120v-1200q0 -69 -55 -124t-124 -55q-71 0 -125 55q-54 54 -54 124v521q-49 -60 -126 -97q-83 -39 -174 -39q-193 0 -321 142q-127 141 -127 350t127 350q128 142 321 142q92 0 174 -39q77 -38 126 -101q12 65 60 102z
M737 596q-53 52 -128 52t-127 -52q-53 -52 -53 -128t53 -128q52 -52 127 -52t128 52q52 52 52 128t-52 128z" />
    <glyph glyph-name="r" unicode="r" horiz-adv-x="880" 
d="M110 781q0 74 52 127q53 52 127 52q73 0 124 -46q48 -42 55 -101q36 62 101 103q67 42 136 42q71 0 118 -46q45 -45 45 -111q0 -65 -46 -110q-46 -46 -111 -46q-8 0 -18 1l-19 3q-25 4 -37 4q-80 0 -125 -52q-44 -51 -44 -140v-306q0 -74 -52 -127q-53 -52 -127 -52
t-127 52q-52 53 -52 127v626z" />
    <glyph glyph-name="s" unicode="s" horiz-adv-x="843" 
d="M90 263q38 39 92 39q22 0 46 -9q15 -6 43 -20q55 -30 86 -30q70 0 70 53q0 28 -16 48q-18 22 -67 44q-242 109 -242 295q0 123 92 200t244 77q43 0 87 -6q56 -8 99 -24q115 -43 115 -132q0 -52 -35 -86q-34 -34 -85 -34q-20 0 -55 14t-53 14q-56 0 -56 -34q0 -18 21 -35
q24 -18 88 -48q216 -98 216 -296q0 -139 -92 -226q-98 -91 -269 -91q-140 0 -246 48q-121 54 -121 145q0 55 38 94z" />
    <glyph glyph-name="t" unicode="t" horiz-adv-x="795" 
d="M200 654h-28q-58 0 -100 41q-41 42 -41 100q0 59 41 100q42 41 100 41h28v109q0 74 52 127q53 52 127 52t127 -52q52 -53 52 -127v-109h81q59 0 100 -41t41 -100q0 -58 -41 -100q-41 -41 -100 -41h-81v-499q0 -74 -52 -127q-53 -52 -127 -52t-127 52q-52 53 -52 127v499z
" />
    <glyph glyph-name="u" unicode="u" horiz-adv-x="1162" 
d="M1052 145q0 -70 -52 -120q-53 -49 -127 -49q-69 0 -119 38t-60 99q-42 -60 -114 -98q-77 -39 -162 -39q-138 0 -221 92q-87 96 -87 266v447q0 74 52 127q53 52 127 52t127 -52q52 -53 52 -127v-378q0 -52 32 -86t81 -34q47 0 79 32t34 82v384q0 74 52 127q53 52 127 52
t127 -52q52 -53 52 -127v-636z" />
    <glyph glyph-name="v" unicode="v" horiz-adv-x="1056" 
d="M670 72q-19 -41 -58 -68q-40 -28 -85 -28q-98 0 -142 97l-297 648q-15 32 -15 71q0 70 49 119t120 49q56 0 99 -32q41 -30 60 -80l127 -350l127 350q16 48 60 80q45 32 99 32q71 0 120 -49t49 -119q0 -39 -15 -71z" />
    <glyph glyph-name="w" unicode="w" horiz-adv-x="1628" 
d="M530 507l121 301q29 73 61 107q41 45 102 45q60 0 103 -48q30 -34 58 -104l123 -301l131 341q19 50 61 81q43 31 97 31q73 0 121 -51q47 -49 47 -123q0 -40 -15 -72l-277 -597q-31 -67 -61 -98q-42 -43 -101 -43q-61 0 -102 41q-32 32 -59 100l-126 320l-126 -320
q-56 -141 -162 -141q-58 0 -100 42q-29 31 -61 99l-277 597q-16 36 -16 72q0 74 47 123q48 51 122 51q54 0 97 -31q42 -31 61 -81z" />
    <glyph glyph-name="x" unicode="x" horiz-adv-x="1071" 
d="M135 693q-32 43 -32 98q0 70 47 119q48 50 118 50q88 0 156 -98l111 -159l110 159q68 98 157 98q67 0 116 -49q48 -48 48 -115q0 -62 -31 -103l-156 -209l158 -221q47 -67 47 -122q0 -67 -47 -116q-48 -49 -116 -49q-54 0 -96 33q-32 25 -70 81l-120 175l-120 -175
q-79 -114 -166 -114q-72 0 -119 51q-45 49 -45 119q0 50 48 117l159 221z" />
    <glyph glyph-name="y" unicode="y" horiz-adv-x="1113" 
d="M256 -349l70 189l70 188l-284 644l-13 28q-7 16 -11 29q-11 32 -11 62q0 71 49 120t120 49t116 -47q35 -36 62 -110l138 -377l126 373q54 161 181 161q71 0 121 -49t50 -120q0 -32 -12 -65l-424 -1153q-61 -167 -186 -167q-73 0 -125 53q-51 52 -51 123q0 32 14 69z" />
    <glyph glyph-name="z" unicode="z" horiz-adv-x="931" 
d="M126 896q40 40 97 40h509q50 0 79 -34q26 -31 26 -77q0 -29 -21 -66l-283 -487h222q56 0 96 -40t40 -96t-40 -96t-96 -40h-580q-50 0 -78 32q-26 29 -26 74q0 34 23 75l272 483h-143q-57 0 -97 40t-40 96t40 96z" />
    <glyph glyph-name="braceleft" unicode="{" horiz-adv-x="931" 
d="M186 705q130 68 130 245v118q0 197 104 312q109 120 302 120h18q62 0 108 -42q48 -44 48 -109q0 -56 -29 -95q-31 -43 -89 -57q-108 -25 -108 -191v-72q0 -217 -193 -314q193 -97 193 -314v-72q0 -166 108 -191q58 -14 89 -56q29 -40 29 -96q0 -65 -48 -109
q-46 -42 -108 -42h-18q-195 0 -303 121q-103 115 -103 311v118q0 177 -127 243q-58 31 -58 87q0 57 55 85z" />
    <glyph glyph-name="bar" unicode="|" horiz-adv-x="686" 
d="M177 1396q0 68 49 117t117 49t117 -49t49 -117v-1654q0 -68 -49 -117t-117 -49t-117 49t-49 117v1654z" />
    <glyph glyph-name="braceright" unicode="}" horiz-adv-x="931" 
d="M742 533q-127 -66 -127 -243v-118q0 -196 -105 -312q-109 -120 -301 -120h-18q-63 0 -108 41q-48 44 -48 110q0 56 29 96q31 42 89 56q108 25 108 191v72q0 217 193 314q-193 97 -193 314v72q0 166 -108 191q-58 14 -89 57q-29 39 -29 95q0 65 45 109q43 42 106 42h23
q194 0 302 -121q104 -116 104 -311v-118q0 -177 130 -245q55 -28 55 -85q0 -56 -58 -87z" />
    <glyph glyph-name="asciitilde" unicode="~" horiz-adv-x="1268" 
d="M196 808q92 98 211 98q127 0 245 -90q98 -77 141 -77q40 0 56 48q18 52 58 84q41 33 93 33q68 0 115 -44q48 -45 48 -115q0 -138 -95 -235q-91 -91 -207 -91q-130 0 -245 90q-100 77 -141 77q-40 0 -56 -45q-41 -121 -153 -121q-68 0 -114 43q-48 44 -48 114
q0 132 92 231z" />
    <glyph glyph-name="uni00A0" unicode="&#xa0;" horiz-adv-x="600" 
 />
    <glyph glyph-name="exclamdown" unicode="&#xa1;" horiz-adv-x="740" 
d="M597 -305q0 -84 -59 -143q-60 -60 -144 -60t-143 60q-60 59 -60 143v607q0 84 60 144q59 59 143 59t144 -59q59 -60 59 -144v-607zM547 905q63 -55 63 -138q0 -84 -63 -138q-62 -54 -153 -54t-153 54q-63 54 -63 138q0 83 63 138q62 53 153 53t153 -53z" />
    <glyph glyph-name="cent" unicode="&#xa2;" horiz-adv-x="1039" 
d="M169 772q106 131 273 170v83q0 49 35 84q34 35 83 35t84 -35t35 -84v-77q131 -23 228 -100q64 -46 64 -128q0 -64 -46 -109q-46 -46 -112 -46q-58 0 -99 36q-55 46 -122 46q-74 0 -126 -52q-53 -52 -53 -128t53 -128q52 -52 126 -52q70 0 122 46q41 36 99 36
q66 0 112 -46q46 -45 46 -110q0 -81 -65 -128q-94 -75 -227 -99v-77q0 -49 -35 -84t-84 -35t-83 35q-35 35 -35 84v83q-167 39 -273 170q-108 133 -108 305t108 305z" />
    <glyph glyph-name="sterling" unicode="&#xa3;" horiz-adv-x="1227" 
d="M154 232q101 138 101 268v108h-93q-28 0 -48 20t-20 48q0 29 20 48q20 20 48 20h93v234q0 194 117 317q122 129 329 129q148 0 267 -59q138 -67 138 -176q0 -64 -45 -109t-110 -45q-28 0 -81 23q-27 11 -41 15q-23 7 -43 7q-59 0 -92 -37q-32 -37 -32 -105v-194h218
q29 0 48 -20q20 -19 20 -48q0 -28 -20 -48q-19 -20 -48 -20h-218v-33q0 -143 -49 -231h392q70 0 121 -51q51 -52 51 -121q0 -70 -51 -121t-121 -51h-718q-79 0 -124 32q-48 35 -48 100q0 48 39 100z" />
    <glyph glyph-name="currency" unicode="&#xa4;" horiz-adv-x="1446" 
d="M212 393l95 95q-38 86 -38 176t38 175l-96 97q-49 49 -49 114q0 63 45 108q44 45 107 45q66 0 134 -66l80 -79q91 44 195 44q103 0 194 -44l83 83q62 62 131 62q62 0 108 -45q45 -45 45 -108q0 -65 -50 -115l-96 -96q39 -84 39 -175q0 -92 -39 -176l23 -23l24 -22
q31 -29 48 -48q51 -59 51 -117q0 -65 -47 -110q-46 -44 -110 -44q-60 0 -93 32l-117 113q-92 -43 -194 -43q-103 0 -195 43l-80 -80q-65 -65 -130 -65t-111 44q-45 45 -45 110t50 115zM618 559q42 -43 105 -43t105 43q42 42 42 105t-42 105q-42 43 -105 43t-105 -43
q-42 -42 -42 -105t42 -105z" />
    <glyph glyph-name="yen" unicode="&#xa5;" horiz-adv-x="1418" 
d="M152 1108q-42 69 -42 139t54 122t127 52q121 0 201 -141l217 -384l217 384q79 141 199 141q78 0 132 -56q51 -53 51 -128q0 -60 -41 -128l-265 -430h184q28 0 47 -19t19 -47t-19 -47t-47 -19h-266q-6 -10 -8 -15v-68h274q28 0 47 -19t19 -47t-19 -47t-47 -19h-274v-143
q0 -94 -51 -151q-54 -62 -152 -62t-152 62q-51 57 -51 151v143h-271q-28 0 -47 19t-19 47t19 47t47 19h271v68l-5 8l-5 7h-261q-28 0 -47 19t-19 47t19 47t47 19h181z" />
    <glyph glyph-name="brokenbar" unicode="&#xa6;" horiz-adv-x="685" 
d="M177 1266q0 68 49 117t117 49t117 -49t49 -117v-420q0 -68 -49 -117t-117 -49t-117 49t-49 117v420zM177 329q0 68 49 117t117 49t117 -49t49 -117v-419q0 -68 -49 -117t-117 -49t-117 49t-49 117v419z" />
    <glyph glyph-name="section" unicode="&#xa7;" horiz-adv-x="1054" 
d="M260 50q31 30 75 30q20 0 56 -16q36 -17 58 -17q35 0 57 20q21 19 21 49q0 37 -33 67q-31 28 -122 76q-237 126 -237 357q0 92 47 173q48 82 132 130q-115 97 -115 230q0 121 90 197q91 76 238 76q112 0 200 -43q101 -49 101 -128q0 -46 -31 -77q-31 -30 -76 -30
q-18 0 -55 17q-18 8 -28 11q-16 5 -30 5q-35 0 -57 -19q-21 -20 -21 -50q0 -37 33 -67q31 -28 122 -76q237 -126 237 -357q0 -92 -47 -173q-48 -82 -132 -130q115 -97 115 -230q0 -121 -90 -196q-91 -77 -238 -77q-134 0 -245 71q-56 36 -56 99q0 47 31 78zM453 535
q32 -32 76 -32q45 0 76 32q32 32 32 77q0 46 -32 77q-31 32 -76 32q-44 0 -76 -32q-32 -31 -32 -77q0 -45 32 -77z" />
    <glyph glyph-name="dieresis" unicode="&#xa8;" horiz-adv-x="848" 
d="M118 1400q42 42 102 42t102 -42q42 -43 42 -102t-42 -102q-42 -42 -102 -42t-102 42q-42 43 -42 102t42 102zM526 1400q42 42 102 42t102 -42q42 -43 42 -102t-42 -102q-42 -42 -102 -42t-102 42q-42 43 -42 102t42 102z" />
    <glyph glyph-name="copyright" unicode="&#xa9;" horiz-adv-x="1628" 
d="M302 1212q212 212 512 212t512 -212t212 -512t-212 -512t-512 -212t-512 212t-212 512t212 512zM381 261q179 -181 433 -181t433 181t179 439t-179 439t-433 181t-433 -181t-179 -439t179 -439zM550 976q118 111 284 111q121 0 214 -52q99 -56 99 -137q0 -52 -36 -87
q-35 -35 -88 -35q-36 0 -85 33q-49 32 -90 32q-59 0 -98 -39q-41 -41 -41 -103q0 -61 41 -102q39 -39 98 -39q56 0 93 35q32 31 82 31t87 -36q37 -37 37 -87q0 -79 -98 -135q-94 -53 -215 -53q-166 0 -284 111q-119 112 -119 275t119 277z" />
    <glyph glyph-name="ordfeminine" unicode="&#xaa;" horiz-adv-x="934" 
d="M854 828q0 -55 -39 -93q-38 -39 -93 -39q-48 0 -84 31q-37 30 -45 76q-35 -49 -93 -77q-60 -30 -127 -30q-140 0 -234 106q-93 104 -93 258t93 259q94 105 234 105q67 0 127 -29q58 -29 93 -78q8 45 45 76q36 31 84 31q55 0 93 -39q39 -38 39 -93v-464zM354 971
q36 -36 88 -36q53 0 89 36t36 89t-36 89t-89 36q-52 0 -88 -36q-37 -36 -37 -89t37 -89z" />
    <glyph glyph-name="guillemotleft" unicode="&#xab;" horiz-adv-x="1258" 
d="M95 698l361 266q35 26 72 26q47 0 80 -33t33 -80q0 -55 -43 -88l-223 -165l223 -165q43 -33 43 -88q0 -46 -33 -80q-33 -33 -80 -33q-37 0 -72 26l-361 267q-40 29 -40 73q0 45 40 74zM605 698l361 266q35 26 72 26q47 0 80 -33t33 -80q0 -55 -43 -88l-223 -165l223 -165
q43 -33 43 -88q0 -46 -33 -80q-33 -33 -80 -33q-37 0 -72 26l-361 267q-40 29 -40 73q0 45 40 74z" />
    <glyph glyph-name="logicalnot" unicode="&#xac;" horiz-adv-x="1268" 
d="M123 861q44 43 105 43h774q66 0 113 -47q47 -46 47 -113v-281q0 -71 -52 -124q-53 -53 -125 -53q-73 0 -125 52t-52 125v145h-580q-61 0 -105 43q-43 44 -43 105q0 62 43 105z" />
    <glyph glyph-name="uni00AD" unicode="&#xad;" horiz-adv-x="812" 
d="M121 764q44 48 104 48h364q59 0 101 -44t42 -104q0 -59 -42 -103q-43 -45 -103 -45h-364q-60 0 -102 43q-41 43 -41 105q0 54 41 100z" />
    <glyph glyph-name="registered" unicode="&#xae;" horiz-adv-x="1628" 
d="M302 1212q212 212 512 212t512 -212t212 -512t-212 -512t-512 -212t-512 212t-212 512t212 512zM381 261q179 -181 433 -181t433 181t179 439t-179 439t-433 181t-433 -181t-179 -439t179 -439zM512 951q0 58 21 93q26 43 82 43h223q137 0 225 -72q86 -72 86 -180
q0 -136 -127 -209l114 -155q25 -35 25 -64q0 -48 -35 -78q-35 -31 -88 -31q-71 0 -107 55l-150 229v-161q0 -50 -43 -86q-42 -35 -96 -35t-92 35t-38 86v530zM781 757h35q31 0 54 18q25 20 25 50q0 33 -23 51q-21 18 -56 18h-35v-137z" />
    <glyph glyph-name="macron" unicode="&#xaf;" horiz-adv-x="1000" 
d="M10 1375q31 31 76 31h828q45 0 77 -31q31 -32 31 -77t-31 -76q-32 -32 -77 -32h-828q-45 0 -76 32q-32 31 -32 76t32 77z" />
    <glyph glyph-name="degree" unicode="&#xb0;" horiz-adv-x="800" 
d="M198 1344q82 80 202 80t202 -80q84 -80 84 -200t-84 -200q-82 -80 -202 -80t-202 80q-84 80 -84 200t84 200zM336 1079q26 -26 64 -26t64 26q27 26 27 65t-27 65q-26 26 -64 26t-64 -26q-27 -26 -27 -65t27 -65z" />
    <glyph glyph-name="plusminus" unicode="&#xb1;" horiz-adv-x="1268" 
d="M153 967q48 36 125 36h179v145q0 87 45 143q49 61 132 61q82 0 131 -61q46 -57 46 -143v-145h178q76 0 125 -36q54 -41 54 -112q0 -72 -53 -112q-49 -36 -126 -36h-178v-145q0 -87 -45 -143q-49 -61 -132 -61t-132 61q-45 56 -45 143v145h-179q-77 0 -125 36
q-53 40 -53 112t53 112zM248 14q-61 0 -105 43q-43 44 -43 105q0 62 43 105q44 43 105 43h772q62 0 105 -43t43 -105q0 -61 -43 -105q-43 -43 -105 -43h-772z" />
    <glyph glyph-name="uni00B2" unicode="&#xb2;" 
d="M106 634l284 362q59 75 59 128q0 28 -20 46q-19 19 -48 19q-31 0 -76 -41q-45 -42 -86 -42q-46 0 -77 29q-33 30 -33 77q0 48 45 103q88 109 256 109q135 0 222 -83q85 -82 85 -203q0 -131 -90 -244l-140 -176h162q48 0 83 -35q34 -35 34 -82q0 -49 -34 -83t-83 -34h-476
q-38 0 -64 25q-26 24 -26 61q0 34 23 64z" />
    <glyph glyph-name="uni00B3" unicode="&#xb3;" 
d="M271 1034l103 139h-163q-47 0 -80 33t-33 80q0 46 33 80t80 34h387q116 0 116 -89q0 -33 -36 -83l-138 -189q192 -78 192 -275q0 -127 -89 -213q-96 -91 -253 -91q-118 0 -208 52q-96 56 -96 137q0 47 32 78q31 31 77 31q31 0 62 -19l14 -9l13 -9q16 -11 25 -15
q27 -16 53 -16q43 0 70 26q27 27 27 73q0 45 -33 74q-32 29 -80 29h-15q-34 0 -58 24t-24 58q0 29 22 60z" />
    <glyph glyph-name="acute" unicode="&#xb4;" horiz-adv-x="848" 
d="M600 1292l-223 -171q-30 -23 -68 -23q-46 0 -78 32t-32 76q0 55 47 92l218 174q37 28 76 28q45 0 79 -34q33 -34 33 -80q0 -56 -52 -94z" />
    <glyph glyph-name="mu" unicode="&#xb5;" horiz-adv-x="1162" 
d="M110 781q0 74 52 127q53 52 127 52t127 -52q52 -53 52 -127v-378q0 -50 33 -85q32 -35 80 -35q49 0 81 34t32 86v378q0 74 52 127q53 52 127 52t127 -52q52 -53 52 -127v-643q0 -70 -52 -120q-53 -49 -127 -49q-70 0 -120 41q-51 42 -59 109q-27 -49 -82 -85
q-53 -36 -96 -36q-31 0 -48 10v-239q0 -74 -52 -127q-53 -52 -127 -52t-127 52q-52 53 -52 127v1012z" />
    <glyph glyph-name="paragraph" unicode="&#xb6;" horiz-adv-x="1299" 
d="M543 533h-18q-196 0 -328 114q-140 121 -140 321t133 319q127 113 323 113h511q55 0 93 -39q39 -38 39 -93v-1422q0 -55 -39 -93q-38 -39 -93 -39t-93 39q-39 38 -39 93v1293h-85v-1293q0 -55 -39 -93q-38 -39 -93 -39t-93 39q-39 38 -39 93v687z" />
    <glyph glyph-name="periodcentered" unicode="&#xb7;" horiz-adv-x="638" 
d="M167 511q-63 63 -63 152t63 153q63 63 152 63t152 -63q63 -64 63 -153t-63 -152t-152 -63t-152 63z" />
    <glyph glyph-name="cedilla" unicode="&#xb8;" horiz-adv-x="848" 
d="M274 -137l67 141h202q-27 -54 -47 -98q127 -41 127 -174q0 -88 -68 -147q-70 -61 -180 -61q-86 0 -138 22q-63 28 -63 86q0 35 25 60q24 24 60 24q12 0 36 -6q25 -7 36 -7q23 0 38 12q16 12 16 30q0 47 -79 53q-38 3 -38 39q0 14 6 26z" />
    <glyph glyph-name="uni00B9" unicode="&#xb9;" 
d="M339 1087l-58 -32q-23 -13 -53 -13q-46 0 -78 33q-33 32 -33 78q0 65 63 101l277 154q29 17 61 17q93 0 93 -132v-700q0 -56 -40 -96t-96 -40t-96 40t-40 96v494z" />
    <glyph glyph-name="ordmasculine" unicode="&#xba;" horiz-adv-x="934" 
d="M737 803q-112 -107 -272 -107q-157 0 -269 107q-111 106 -111 257t111 257q112 107 269 107q160 0 272 -107q112 -106 112 -257t-112 -257zM379 971q36 -36 88 -36q53 0 89 36t36 89t-36 89t-89 36q-52 0 -88 -36q-37 -36 -37 -89t37 -89z" />
    <glyph glyph-name="guillemotright" unicode="&#xbb;" horiz-adv-x="1258" 
d="M1145 551l-361 -267q-35 -26 -72 -26q-46 0 -80 33q-33 34 -33 80q0 55 43 88l223 165l-223 165q-43 33 -43 88q0 47 33 80q34 33 80 33q37 0 72 -26l361 -266q40 -29 40 -74q0 -44 -40 -73zM635 551l-361 -267q-35 -26 -72 -26q-46 0 -80 33q-33 34 -33 80q0 55 43 88
l223 165l-223 165q-43 33 -43 88q0 47 33 80q34 33 80 33q37 0 72 -26l361 -266q40 -29 40 -74q0 -44 -40 -73z" />
    <glyph glyph-name="onequarter" unicode="&#xbc;" horiz-adv-x="1996" 
d="M566 122l668 1245q28 53 81 53q37 0 65 -26q29 -27 29 -64q0 -23 -11 -43l-670 -1248q-32 -58 -84 -58q-37 0 -65 26t-28 63q0 25 15 52zM326 1087l-58 -32q-23 -13 -53 -13q-46 0 -78 33q-33 32 -33 78q0 65 63 101l277 154q29 17 61 17q93 0 93 -132v-700
q0 -56 -40 -96t-96 -40t-96 40t-40 96v494zM1540 159h-285q-51 0 -82 21q-35 23 -35 68q0 28 33 77l365 537q53 77 128 77q51 0 86 -35q35 -36 35 -87v-441h8q45 0 77 -32t32 -77t-32 -76q-32 -32 -77 -32h-8v-47q0 -51 -36 -86q-36 -36 -87 -36t-86 36q-36 35 -36 86v47z
M1540 375v198l-134 -198h134z" />
    <glyph glyph-name="onehalf" unicode="&#xbd;" horiz-adv-x="2000" 
d="M566 122l668 1245q28 53 81 53q37 0 65 -26q29 -27 29 -64q0 -23 -11 -43l-670 -1248q-32 -58 -84 -58q-37 0 -65 26t-28 63q0 25 15 52zM326 1087l-58 -32q-23 -13 -53 -13q-46 0 -78 33q-33 32 -33 78q0 65 63 101l277 154q29 17 61 17q93 0 93 -132v-700
q0 -56 -40 -96t-96 -40t-96 40t-40 96v494zM1271 153l284 362q59 75 59 128q0 28 -20 46q-19 19 -48 19q-31 0 -76 -41q-45 -42 -86 -42q-46 0 -77 29q-33 30 -33 77q0 48 45 103q88 109 256 109q135 0 222 -83q85 -82 85 -203q0 -131 -90 -244l-140 -176h162q48 0 83 -35
q34 -35 34 -82q0 -49 -34 -83t-83 -34h-476q-38 0 -64 25q-26 24 -26 61q0 34 23 64z" />
    <glyph glyph-name="threequarters" unicode="&#xbe;" horiz-adv-x="2002" 
d="M572 122l668 1245q28 53 81 53q37 0 65 -26q29 -27 29 -64q0 -23 -11 -43l-670 -1248q-32 -58 -84 -58q-37 0 -65 26t-28 63q0 25 15 52zM1546 150h-285q-51 0 -82 21q-35 23 -35 68q0 28 33 77l365 537q53 77 128 77q51 0 86 -35q35 -36 35 -87v-441h8q45 0 77 -32
t32 -77t-32 -76q-32 -32 -77 -32h-8v-47q0 -51 -36 -86q-36 -36 -87 -36t-86 36q-36 35 -36 86v47zM1546 366v198l-134 -198h134zM264 1034l103 139h-163q-47 0 -80 33t-33 80q0 46 33 80t80 34h387q116 0 116 -89q0 -33 -36 -83l-138 -189q192 -78 192 -275
q0 -127 -89 -213q-96 -91 -253 -91q-118 0 -208 52q-96 56 -96 137q0 47 32 78q31 31 77 31q31 0 62 -19l14 -9l13 -9q16 -11 25 -15q27 -16 53 -16q43 0 70 26q27 27 27 73q0 45 -33 74q-32 29 -80 29h-15q-34 0 -58 24t-24 58q0 29 22 60z" />
    <glyph glyph-name="questiondown" unicode="&#xbf;" horiz-adv-x="1107" 
d="M882 -409q-134 -87 -319 -87q-222 0 -356 105q-128 99 -128 249q0 132 73 223q66 82 199 141q102 46 136 69q33 24 33 50q0 41 -68 41q-6 0 -16 -1l-17 -3q-24 -5 -35 -5q-23 0 -39 18q-16 17 -16 41q0 45 74 67q56 16 140 16q123 0 197 -62q72 -60 72 -154
q0 -154 -183 -255q-75 -41 -107 -74q-35 -38 -35 -84q0 -45 30 -71q31 -26 84 -26q72 0 119 59q60 75 136 75q63 0 108 -42q44 -43 44 -105q0 -103 -126 -185zM704 899q63 -55 63 -138q0 -84 -63 -138q-62 -54 -153 -54t-153 54q-63 54 -63 138q0 83 63 138q62 53 153 53
t153 -53z" />
    <glyph glyph-name="Agrave" unicode="&#xc0;" horiz-adv-x="1412" 
d="M106 252l428 1013q32 75 67 112q43 45 105 45q107 0 173 -157l429 -1018q7 -18 12 -37q5 -23 5 -43q0 -79 -53 -134q-53 -57 -132 -57q-63 0 -112 35q-48 34 -69 91l-37 99h-433l-36 -95q-21 -55 -70 -91q-52 -39 -112 -39q-77 0 -132 54q-54 55 -54 132q0 41 21 90z
M706 803l-119 -326h238zM446 1874q33 34 78 34q43 0 76 -28l218 -174q47 -37 47 -92q0 -44 -32 -76t-78 -32q-38 0 -68 23l-223 171q-52 38 -52 94q0 46 34 80z" />
    <glyph glyph-name="Aacute" unicode="&#xc1;" horiz-adv-x="1412" 
d="M106 252l428 1013q32 75 67 112q43 45 105 45q107 0 173 -157l429 -1018q7 -18 12 -37q5 -23 5 -43q0 -79 -53 -134q-53 -57 -132 -57q-63 0 -112 35q-48 34 -69 91l-37 99h-433l-36 -95q-21 -55 -70 -91q-52 -39 -112 -39q-77 0 -132 54q-54 55 -54 132q0 41 21 90z
M706 803l-119 -326h238zM948 1700l-223 -171q-30 -23 -68 -23q-46 0 -78 32t-32 76q0 55 47 92l218 174q37 28 76 28q45 0 79 -34q33 -34 33 -80q0 -56 -52 -94z" />
    <glyph glyph-name="Acircumflex" unicode="&#xc2;" horiz-adv-x="1412" 
d="M106 252l428 1013q32 75 67 112q43 45 105 45q107 0 173 -157l429 -1018q7 -18 12 -37q5 -23 5 -43q0 -79 -53 -134q-53 -57 -132 -57q-63 0 -112 35q-48 34 -69 91l-37 99h-433l-36 -95q-21 -55 -70 -91q-52 -39 -112 -39q-77 0 -132 54q-54 55 -54 132q0 41 21 90z
M706 803l-119 -326h238zM425 1726l231 184q21 18 50 18q26 0 48 -17l233 -185q27 -21 43 -44q20 -29 20 -59q0 -44 -32 -77q-33 -32 -77 -32q-40 0 -73 26l-162 127l-157 -123q-37 -30 -78 -30q-44 0 -76 32q-32 33 -32 77q0 54 62 103z" />
    <glyph glyph-name="Atilde" unicode="&#xc3;" horiz-adv-x="1412" 
d="M106 252l428 1013q32 75 67 112q43 45 105 45q107 0 173 -157l429 -1018q7 -18 12 -37q5 -23 5 -43q0 -79 -53 -134q-53 -57 -132 -57q-63 0 -112 35q-48 34 -69 91l-37 99h-433l-36 -95q-21 -55 -70 -91q-52 -39 -112 -39q-77 0 -132 54q-54 55 -54 132q0 41 21 90z
M706 803l-119 -326h238zM419 1797q65 69 155 69q79 0 162 -67q48 -38 79 -38q28 0 45 35q29 62 94 62q41 0 70 -30q30 -29 30 -70q0 -75 -57 -139q-64 -73 -158 -73q-79 0 -162 67q-47 38 -79 38q-27 0 -46 -37q-30 -62 -94 -62q-40 0 -70 30t-30 70q0 79 61 145z" />
    <glyph glyph-name="Adieresis" unicode="&#xc4;" horiz-adv-x="1412" 
d="M106 252l428 1013q32 75 67 112q43 45 105 45q107 0 173 -157l429 -1018q7 -18 12 -37q5 -23 5 -43q0 -79 -53 -134q-53 -57 -132 -57q-63 0 -112 35q-48 34 -69 91l-37 99h-433l-36 -95q-21 -55 -70 -91q-52 -39 -112 -39q-77 0 -132 54q-54 55 -54 132q0 41 21 90z
M706 803l-119 -326h238zM400 1808q42 42 102 42t102 -42q42 -43 42 -102t-42 -102q-42 -42 -102 -42t-102 42q-42 43 -42 102t42 102zM808 1808q42 42 102 42t102 -42q42 -43 42 -102t-42 -102q-42 -42 -102 -42t-102 42q-42 43 -42 102t42 102z" />
    <glyph glyph-name="Aring" unicode="&#xc5;" horiz-adv-x="1412" 
d="M106 252l428 1013q32 75 67 112q43 45 105 45q107 0 173 -157l429 -1018q7 -18 12 -37q5 -23 5 -43q0 -79 -53 -134q-53 -57 -132 -57q-63 0 -112 35q-48 34 -69 91l-37 99h-433l-36 -95q-21 -55 -70 -91q-52 -39 -112 -39q-77 0 -132 54q-54 55 -54 132q0 41 21 90z
M706 803l-119 -326h238zM545 1865q67 62 161 62t161 -62q68 -65 68 -159t-68 -158q-67 -63 -161 -63t-161 63q-68 64 -68 158t68 159zM656 1656q20 -21 50 -21t50 21q20 20 20 50t-20 51q-20 20 -50 20t-50 -20q-20 -21 -20 -51t20 -50z" />
    <glyph glyph-name="AE" unicode="&#xc6;" horiz-adv-x="1801" 
d="M145 269l558 1005q70 126 216 126h654q68 0 114 -47q47 -47 47 -116q0 -67 -47 -114q-46 -47 -114 -47h-293v-185h251q68 0 114 -47q47 -47 47 -116q0 -67 -47 -114q-46 -47 -114 -47h-251v-243h310q68 0 114 -47q47 -47 47 -116q0 -67 -47 -114q-46 -47 -114 -47h-550
q-65 0 -111 45q-45 46 -45 111v45h-339q-8 -14 -20 -38l-21 -39q-25 -48 -47 -76q-62 -81 -156 -81q-80 0 -135 54q-56 54 -56 135q0 50 35 113zM884 822l-187 -345h187v345z" />
    <glyph glyph-name="Ccedilla" unicode="&#xc7;" horiz-adv-x="1482" 
d="M680 -94q7 15 20 41l10 19q6 10 9 17q-272 33 -455 227q-191 202 -191 490q0 314 224 523q216 201 519 201q149 0 291 -52q122 -45 203 -113q77 -65 77 -151q0 -77 -53 -128t-129 -51q-44 0 -90 25q-17 9 -39 24l-19 14l-20 14q-92 64 -211 64q-146 0 -250 -104
q-107 -108 -107 -266t107 -266q104 -104 250 -104q124 0 216 67l18 13l18 13q21 15 39 24q46 24 90 24q75 0 128 -52q52 -52 52 -127q0 -115 -147 -205q-136 -82 -319 -104l-36 -77q127 -41 127 -174q0 -88 -68 -147q-70 -61 -180 -61q-85 0 -136 22q-65 27 -65 86
q0 35 25 60q24 24 60 24q12 0 36 -6q25 -7 36 -7q54 0 54 42q0 47 -79 53q-38 3 -38 39q0 21 23 69z" />
    <glyph glyph-name="Egrave" unicode="&#xc8;" horiz-adv-x="1053" 
d="M126 1242q0 80 62 122q54 36 144 36h493q68 0 114 -47q47 -47 47 -116q0 -67 -47 -114q-46 -47 -114 -47h-293v-185h251q68 0 114 -47q47 -47 47 -116q0 -67 -47 -114q-46 -47 -114 -47h-251v-243h310q68 0 114 -47q47 -47 47 -116q0 -67 -47 -114q-46 -47 -114 -47h-509
q-90 0 -144 35q-63 41 -63 121v1086zM337 1874q33 34 78 34q43 0 76 -28l218 -174q47 -37 47 -92q0 -44 -32 -76t-78 -32q-38 0 -68 23l-223 171q-52 38 -52 94q0 46 34 80z" />
    <glyph glyph-name="Eacute" unicode="&#xc9;" horiz-adv-x="1053" 
d="M126 1242q0 80 62 122q54 36 144 36h493q68 0 114 -47q47 -47 47 -116q0 -67 -47 -114q-46 -47 -114 -47h-293v-185h251q68 0 114 -47q47 -47 47 -116q0 -67 -47 -114q-46 -47 -114 -47h-251v-243h310q68 0 114 -47q47 -47 47 -116q0 -67 -47 -114q-46 -47 -114 -47h-509
q-90 0 -144 35q-63 41 -63 121v1086zM733 1700l-223 -171q-30 -23 -68 -23q-46 0 -78 32t-32 76q0 55 47 92l218 174q37 28 76 28q45 0 79 -34q33 -34 33 -80q0 -56 -52 -94z" />
    <glyph glyph-name="Ecircumflex" unicode="&#xca;" horiz-adv-x="1053" 
d="M126 1242q0 80 62 122q54 36 144 36h493q68 0 114 -47q47 -47 47 -116q0 -67 -47 -114q-46 -47 -114 -47h-293v-185h251q68 0 114 -47q47 -47 47 -116q0 -67 -47 -114q-46 -47 -114 -47h-251v-243h310q68 0 114 -47q47 -47 47 -116q0 -67 -47 -114q-46 -47 -114 -47h-509
q-90 0 -144 35q-63 41 -63 121v1086zM253 1726l231 184q21 18 50 18q26 0 48 -17l233 -185q27 -21 43 -44q20 -29 20 -59q0 -44 -32 -77q-33 -32 -77 -32q-40 0 -73 26l-162 127l-157 -123q-37 -30 -78 -30q-44 0 -76 32q-32 33 -32 77q0 54 62 103z" />
    <glyph glyph-name="Edieresis" unicode="&#xcb;" horiz-adv-x="1053" 
d="M126 1242q0 80 62 122q54 36 144 36h493q68 0 114 -47q47 -47 47 -116q0 -67 -47 -114q-46 -47 -114 -47h-293v-185h251q68 0 114 -47q47 -47 47 -116q0 -67 -47 -114q-46 -47 -114 -47h-251v-243h310q68 0 114 -47q47 -47 47 -116q0 -67 -47 -114q-46 -47 -114 -47h-509
q-90 0 -144 35q-63 41 -63 121v1086zM229 1808q42 42 102 42t102 -42q42 -43 42 -102t-42 -102q-42 -42 -102 -42t-102 42q-42 43 -42 102t42 102zM637 1808q42 42 102 42t102 -42q42 -43 42 -102t-42 -102q-42 -42 -102 -42t-102 42q-42 43 -42 102t42 102z" />
    <glyph glyph-name="Igrave" unicode="&#xcc;" horiz-adv-x="690" 
d="M142 1221q0 84 60 144q59 59 143 59t144 -59q59 -60 59 -144v-1042q0 -84 -59 -143q-60 -60 -144 -60t-143 60q-60 59 -60 143v1042zM99 1874q33 34 78 34q43 0 76 -28l218 -174q47 -37 47 -92q0 -44 -32 -76t-78 -32q-38 0 -68 23l-223 171q-52 38 -52 94q0 46 34 80z
" />
    <glyph glyph-name="Iacute" unicode="&#xcd;" horiz-adv-x="690" 
d="M142 1221q0 84 60 144q59 59 143 59t144 -59q59 -60 59 -144v-1042q0 -84 -59 -143q-60 -60 -144 -60t-143 60q-60 59 -60 143v1042zM573 1700l-223 -171q-30 -23 -68 -23q-46 0 -78 32t-32 76q0 55 47 92l218 174q37 28 76 28q45 0 79 -34q33 -34 33 -80q0 -56 -52 -94z
" />
    <glyph glyph-name="Icircumflex" unicode="&#xce;" horiz-adv-x="690" 
d="M142 1221q0 84 60 144q59 59 143 59t144 -59q59 -60 59 -144v-1042q0 -84 -59 -143q-60 -60 -144 -60t-143 60q-60 59 -60 143v1042zM64 1726l231 184q21 18 50 18q26 0 48 -17l233 -185q27 -21 43 -44q20 -29 20 -59q0 -44 -32 -77q-33 -32 -77 -32q-40 0 -73 26
l-162 127l-157 -123q-37 -30 -78 -30q-44 0 -76 32q-32 33 -32 77q0 54 62 103z" />
    <glyph glyph-name="Idieresis" unicode="&#xcf;" horiz-adv-x="690" 
d="M142 1221q0 84 60 144q59 59 143 59t144 -59q59 -60 59 -144v-1042q0 -84 -59 -143q-60 -60 -144 -60t-143 60q-60 59 -60 143v1042zM39 1808q42 42 102 42t102 -42q42 -43 42 -102t-42 -102q-42 -42 -102 -42t-102 42q-42 43 -42 102t42 102zM447 1808q42 42 102 42
t102 -42q42 -43 42 -102t-42 -102q-42 -42 -102 -42t-102 42q-42 43 -42 102t42 102z" />
    <glyph glyph-name="Eth" unicode="&#xd0;" horiz-adv-x="1427" 
d="M169 598h-49q-41 0 -70 29t-29 70t29 71q29 29 70 29h49v445q0 81 63 123q55 35 146 35h234q318 0 527 -191q214 -196 214 -509t-214 -509q-209 -191 -527 -191h-234q-91 0 -146 35q-63 40 -63 121v442zM570 797h107q41 0 71 -29q29 -30 29 -71t-29 -70q-30 -29 -71 -29
h-107v-244h53q153 0 241 92t88 254t-88 254t-241 92h-53v-249z" />
    <glyph glyph-name="Ntilde" unicode="&#xd1;" horiz-adv-x="1471" 
d="M126 1281q0 63 39 103q38 40 97 40q72 0 117 -51l565 -650v494q0 87 57 147q58 60 143 60q83 0 142 -59t59 -142v-1105q0 -62 -39 -102t-98 -40q-74 0 -117 51l-564 650v-496q0 -85 -59 -145t-142 -60t-142 58q-58 59 -58 142v1105zM448 1797q65 69 155 69q79 0 162 -67
q48 -38 79 -38q28 0 45 35q29 62 94 62q41 0 70 -30q30 -29 30 -70q0 -75 -57 -139q-64 -73 -158 -73q-79 0 -162 67q-47 38 -79 38q-27 0 -46 -37q-30 -62 -94 -62q-40 0 -70 30t-30 70q0 79 61 145z" />
    <glyph glyph-name="Ograve" unicode="&#xd2;" horiz-adv-x="1658" 
d="M299 1221q219 203 530 203t530 -203q226 -210 226 -521t-226 -521q-219 -203 -530 -203t-530 203q-226 210 -226 521t226 521zM574 436q104 -106 257 -106t257 106q105 106 105 264t-105 264q-104 106 -257 106t-257 -106q-105 -106 -105 -264t105 -264zM573 1874
q33 34 78 34q43 0 76 -28l218 -174q47 -37 47 -92q0 -44 -32 -76t-78 -32q-38 0 -68 23l-223 171q-52 38 -52 94q0 46 34 80z" />
    <glyph glyph-name="Oacute" unicode="&#xd3;" horiz-adv-x="1658" 
d="M299 1221q219 203 530 203t530 -203q226 -210 226 -521t-226 -521q-219 -203 -530 -203t-530 203q-226 210 -226 521t226 521zM574 436q104 -106 257 -106t257 106q105 106 105 264t-105 264q-104 106 -257 106t-257 -106q-105 -106 -105 -264t105 -264zM1067 1700
l-223 -171q-30 -23 -68 -23q-46 0 -78 32t-32 76q0 55 47 92l218 174q37 28 76 28q45 0 79 -34q33 -34 33 -80q0 -56 -52 -94z" />
    <glyph glyph-name="Ocircumflex" unicode="&#xd4;" horiz-adv-x="1658" 
d="M299 1221q219 203 530 203t530 -203q226 -210 226 -521t-226 -521q-219 -203 -530 -203t-530 203q-226 210 -226 521t226 521zM574 436q104 -106 257 -106t257 106q105 106 105 264t-105 264q-104 106 -257 106t-257 -106q-105 -106 -105 -264t105 -264zM548 1726
l231 184q21 18 50 18q26 0 48 -17l233 -185q27 -21 43 -44q20 -29 20 -59q0 -44 -32 -77q-33 -32 -77 -32q-40 0 -73 26l-162 127l-157 -123q-37 -30 -78 -30q-44 0 -76 32q-32 33 -32 77q0 54 62 103z" />
    <glyph glyph-name="Otilde" unicode="&#xd5;" horiz-adv-x="1658" 
d="M299 1221q219 203 530 203t530 -203q226 -210 226 -521t-226 -521q-219 -203 -530 -203t-530 203q-226 210 -226 521t226 521zM574 436q104 -106 257 -106t257 106q105 106 105 264t-105 264q-104 106 -257 106t-257 -106q-105 -106 -105 -264t105 -264zM542 1797
q65 69 155 69q79 0 162 -67q48 -38 79 -38q28 0 45 35q29 62 94 62q41 0 70 -30q30 -29 30 -70q0 -75 -57 -139q-64 -73 -158 -73q-79 0 -162 67q-47 38 -79 38q-27 0 -46 -37q-30 -62 -94 -62q-40 0 -70 30t-30 70q0 79 61 145z" />
    <glyph glyph-name="Odieresis" unicode="&#xd6;" horiz-adv-x="1658" 
d="M299 1221q219 203 530 203t530 -203q226 -210 226 -521t-226 -521q-219 -203 -530 -203t-530 203q-226 210 -226 521t226 521zM574 436q104 -106 257 -106t257 106q105 106 105 264t-105 264q-104 106 -257 106t-257 -106q-105 -106 -105 -264t105 -264zM523 1808
q42 42 102 42t102 -42q42 -43 42 -102t-42 -102q-42 -42 -102 -42t-102 42q-42 43 -42 102t42 102zM931 1808q42 42 102 42t102 -42q42 -43 42 -102t-42 -102q-42 -42 -102 -42t-102 42q-42 43 -42 102t42 102z" />
    <glyph glyph-name="multiply" unicode="&#xd7;" horiz-adv-x="1268" 
d="M199 1097q51 51 122 51q79 0 181 -102l132 -131l132 131q49 48 83 70q50 32 98 32q71 0 120 -48q50 -49 50 -120q0 -81 -103 -184l-131 -130l154 -153q83 -83 83 -155q0 -73 -52 -124q-51 -51 -124 -51q-76 0 -178 102l-132 132l-132 -132q-102 -102 -179 -102
q-73 0 -122 48q-51 49 -51 121q0 70 80 160q27 31 76 78l40 38l39 38l-154 153q-42 42 -59 70q-24 39 -24 85q0 73 51 123z" />
    <glyph glyph-name="Oslash" unicode="&#xd8;" horiz-adv-x="1658" 
d="M306 -91l104 184q-155 97 -244 251q-93 162 -93 356q0 311 226 521q219 203 530 203q155 0 302 -60l115 201q18 30 54 30q26 0 45 -19t19 -45q0 -16 -8 -32l-110 -193q156 -97 245 -251q94 -162 94 -355q0 -333 -207 -530q-206 -194 -549 -194q-156 0 -304 59l-110 -195
q-17 -31 -55 -31q-26 0 -45 19q-19 18 -19 45q0 19 10 36zM1088 436q105 106 105 264q0 177 -129 286l-359 -634q57 -22 126 -22q153 0 257 106zM594 416l358 633q-61 21 -121 21q-153 0 -257 -106q-105 -106 -105 -264q0 -175 125 -284z" />
    <glyph glyph-name="Ugrave" unicode="&#xd9;" horiz-adv-x="1376" 
d="M298 123q-172 157 -172 411v684q0 89 49 144q54 62 154 62t155 -62q48 -55 48 -141v-710q0 -76 41 -127q43 -54 115 -54t114 48t42 133v710q0 85 50 141q55 62 153 62q99 0 154 -62q49 -56 49 -144v-684q0 -254 -171 -411q-160 -147 -391 -147t-390 147zM447 1874
q33 34 78 34q43 0 76 -28l218 -174q47 -37 47 -92q0 -44 -32 -76t-78 -32q-38 0 -68 23l-223 171q-52 38 -52 94q0 46 34 80z" />
    <glyph glyph-name="Uacute" unicode="&#xda;" horiz-adv-x="1376" 
d="M298 123q-172 157 -172 411v684q0 89 49 144q54 62 154 62t155 -62q48 -55 48 -141v-710q0 -76 41 -127q43 -54 115 -54t114 48t42 133v710q0 85 50 141q55 62 153 62q99 0 154 -62q49 -56 49 -144v-684q0 -254 -171 -411q-160 -147 -391 -147t-390 147zM911 1700
l-223 -171q-30 -23 -68 -23q-46 0 -78 32t-32 76q0 55 47 92l218 174q37 28 76 28q45 0 79 -34q33 -34 33 -80q0 -56 -52 -94z" />
    <glyph glyph-name="Ucircumflex" unicode="&#xdb;" horiz-adv-x="1376" 
d="M298 123q-172 157 -172 411v684q0 89 49 144q54 62 154 62t155 -62q48 -55 48 -141v-710q0 -76 41 -127q43 -54 115 -54t114 48t42 133v710q0 85 50 141q55 62 153 62q99 0 154 -62q49 -56 49 -144v-684q0 -254 -171 -411q-160 -147 -391 -147t-390 147zM407 1726
l231 184q21 18 50 18q26 0 48 -17l233 -185q27 -21 43 -44q20 -29 20 -59q0 -44 -32 -77q-33 -32 -77 -32q-40 0 -73 26l-162 127l-157 -123q-37 -30 -78 -30q-44 0 -76 32q-32 33 -32 77q0 54 62 103z" />
    <glyph glyph-name="Udieresis" unicode="&#xdc;" horiz-adv-x="1376" 
d="M298 123q-172 157 -172 411v684q0 89 49 144q54 62 154 62t155 -62q48 -55 48 -141v-710q0 -76 41 -127q43 -54 115 -54t114 48t42 133v710q0 85 50 141q55 62 153 62q99 0 154 -62q49 -56 49 -144v-684q0 -254 -171 -411q-160 -147 -391 -147t-390 147zM382 1808
q42 42 102 42t102 -42q42 -43 42 -102t-42 -102q-42 -42 -102 -42t-102 42q-42 43 -42 102t42 102zM790 1808q42 42 102 42t102 -42q42 -43 42 -102t-42 -102q-42 -42 -102 -42t-102 42q-42 43 -42 102t42 102z" />
    <glyph glyph-name="Yacute" unicode="&#xdd;" horiz-adv-x="1418" 
d="M912 182q0 -206 -203 -206q-84 0 -143 60q-60 59 -60 143v353l-372 604q-27 43 -27 100q0 76 56 132q55 56 133 56q114 0 183 -122l230 -406l232 409q67 119 180 119q81 0 135 -59q52 -57 52 -134q0 -57 -23 -94l-373 -605v-350zM965 1700l-223 -171q-30 -23 -68 -23
q-46 0 -78 32t-32 76q0 55 47 92l218 174q37 28 76 28q45 0 79 -34q33 -34 33 -80q0 -56 -52 -94z" />
    <glyph glyph-name="Thorn" unicode="&#xde;" horiz-adv-x="1226" 
d="M126 1239q0 82 58 140t140 58t140 -58t58 -140v-40h102q237 0 392 -131q162 -138 162 -362t-162 -362q-155 -131 -392 -131h-102v-52q0 -82 -58 -140t-140 -58t-140 58t-58 140v1078zM576 865h-54v-318h54q210 0 210 159t-210 159z" />
    <glyph glyph-name="germandbls" unicode="&#xdf;" horiz-adv-x="1225" 
d="M648 934q64 39 64 126q0 52 -32 86q-32 33 -82 33q-52 0 -86 -37q-35 -40 -35 -106v-886q0 -73 -51 -124t-125 -51q-73 0 -124 51t-51 124v862q0 225 129 357q128 131 346 131q197 0 326 -119q122 -114 122 -276q0 -95 -41 -174q-39 -75 -108 -123q130 -54 202 -158
q75 -109 75 -255q0 -190 -118 -305q-117 -114 -309 -114h-9q-86 0 -146 43q-65 47 -65 126q0 74 51 120q47 41 119 47q127 11 127 135q0 140 -145 192q-49 18 -79 58q-32 43 -32 96q0 93 77 141z" />
    <glyph glyph-name="agrave" unicode="&#xe0;" horiz-adv-x="1283" 
d="M689 15q-82 -39 -174 -39q-193 0 -321 142q-127 141 -127 350t127 350q128 142 321 142q91 0 174 -39q77 -37 126 -97q12 51 69 88q53 35 110 35q70 0 124 -45q55 -47 55 -113v-647q0 -77 -55 -123q-51 -43 -124 -43q-69 0 -118 38t-61 102q-49 -63 -126 -101zM737 596
q-53 52 -128 52t-127 -52q-53 -52 -53 -128t53 -128q52 -52 127 -52t128 52q52 52 52 128t-52 128zM440 1426q33 34 78 34q43 0 76 -28l218 -174q47 -37 47 -92q0 -44 -32 -76t-78 -32q-38 0 -68 23l-223 171q-52 38 -52 94q0 46 34 80z" />
    <glyph glyph-name="aacute" unicode="&#xe1;" horiz-adv-x="1283" 
d="M689 15q-82 -39 -174 -39q-193 0 -321 142q-127 141 -127 350t127 350q128 142 321 142q91 0 174 -39q77 -37 126 -97q12 51 69 88q53 35 110 35q70 0 124 -45q55 -47 55 -113v-647q0 -77 -55 -123q-51 -43 -124 -43q-69 0 -118 38t-61 102q-49 -63 -126 -101zM737 596
q-53 52 -128 52t-127 -52q-53 -52 -53 -128t53 -128q52 -52 127 -52t128 52q52 52 52 128t-52 128zM833 1252l-223 -171q-30 -23 -68 -23q-46 0 -78 32t-32 76q0 55 47 92l218 174q37 28 76 28q45 0 79 -34q33 -34 33 -80q0 -56 -52 -94z" />
    <glyph glyph-name="acircumflex" unicode="&#xe2;" horiz-adv-x="1283" 
d="M689 15q-82 -39 -174 -39q-193 0 -321 142q-127 141 -127 350t127 350q128 142 321 142q91 0 174 -39q77 -37 126 -97q12 51 69 88q53 35 110 35q70 0 124 -45q55 -47 55 -113v-647q0 -77 -55 -123q-51 -43 -124 -43q-69 0 -118 38t-61 102q-49 -63 -126 -101zM737 596
q-53 52 -128 52t-127 -52q-53 -52 -53 -128t53 -128q52 -52 127 -52t128 52q52 52 52 128t-52 128zM373 1278l231 184q21 18 50 18q26 0 48 -17l233 -185q27 -21 43 -44q20 -29 20 -59q0 -44 -32 -77q-33 -32 -77 -32q-40 0 -73 26l-162 127l-157 -123q-37 -30 -78 -30
q-44 0 -76 32q-32 33 -32 77q0 54 62 103z" />
    <glyph glyph-name="atilde" unicode="&#xe3;" horiz-adv-x="1283" 
d="M689 15q-82 -39 -174 -39q-193 0 -321 142q-127 141 -127 350t127 350q128 142 321 142q91 0 174 -39q77 -37 126 -97q12 51 69 88q53 35 110 35q70 0 124 -45q55 -47 55 -113v-647q0 -77 -55 -123q-51 -43 -124 -43q-69 0 -118 38t-61 102q-49 -63 -126 -101zM737 596
q-53 52 -128 52t-127 -52q-53 -52 -53 -128t53 -128q52 -52 127 -52t128 52q52 52 52 128t-52 128zM367 1349q65 69 155 69q79 0 162 -67q48 -38 79 -38q28 0 45 35q29 62 94 62q41 0 70 -30q30 -29 30 -70q0 -75 -57 -139q-64 -73 -158 -73q-79 0 -162 67q-47 38 -79 38
q-27 0 -46 -37q-30 -62 -94 -62q-40 0 -70 30t-30 70q0 79 61 145z" />
    <glyph glyph-name="adieresis" unicode="&#xe4;" horiz-adv-x="1283" 
d="M689 15q-82 -39 -174 -39q-193 0 -321 142q-127 141 -127 350t127 350q128 142 321 142q91 0 174 -39q77 -37 126 -97q12 51 69 88q53 35 110 35q70 0 124 -45q55 -47 55 -113v-647q0 -77 -55 -123q-51 -43 -124 -43q-69 0 -118 38t-61 102q-49 -63 -126 -101zM737 596
q-53 52 -128 52t-127 -52q-53 -52 -53 -128t53 -128q52 -52 127 -52t128 52q52 52 52 128t-52 128zM349 1360q42 42 102 42t102 -42q42 -43 42 -102t-42 -102q-42 -42 -102 -42t-102 42q-42 43 -42 102t42 102zM757 1360q42 42 102 42t102 -42q42 -43 42 -102t-42 -102
q-42 -42 -102 -42t-102 42q-42 43 -42 102t42 102z" />
    <glyph glyph-name="aring" unicode="&#xe5;" horiz-adv-x="1283" 
d="M689 15q-82 -39 -174 -39q-193 0 -321 142q-127 141 -127 350t127 350q128 142 321 142q91 0 174 -39q77 -37 126 -97q12 51 69 88q53 35 110 35q70 0 124 -45q55 -47 55 -113v-647q0 -77 -55 -123q-51 -43 -124 -43q-69 0 -118 38t-61 102q-49 -63 -126 -101zM737 596
q-53 52 -128 52t-127 -52q-53 -52 -53 -128t53 -128q52 -52 127 -52t128 52q52 52 52 128t-52 128zM495 1417q67 62 161 62t161 -62q68 -65 68 -159t-68 -158q-67 -63 -161 -63t-161 63q-68 64 -68 158t68 159zM606 1208q20 -21 50 -21t50 21q20 20 20 50t-20 51
q-20 20 -50 20t-50 -20q-20 -21 -20 -51t20 -50z" />
    <glyph glyph-name="ae" unicode="&#xe6;" horiz-adv-x="1753" 
d="M1362 298q55 37 98 37q62 0 104 -40q41 -41 41 -101q0 -91 -126 -156q-121 -62 -280 -62q-211 0 -335 140q-122 -140 -374 -140q-190 0 -304 87q-113 86 -113 227q0 139 97 228q94 86 233 86q157 0 252 -92v26q0 190 -205 190q-69 0 -174 -40q-19 -7 -34 -7q-48 0 -81 30
q-35 31 -35 79q0 75 77 109q139 61 311 61q239 0 347 -134q123 134 327 134q201 0 346 -134q143 -131 154 -314v-13q0 -49 -33 -81q-33 -31 -84 -31h-551q13 -65 63 -101q48 -36 120 -36q90 0 159 48zM460 222q34 -27 82 -27t83 27q34 28 34 68t-34 68q-35 27 -83 27
t-82 -27q-35 -28 -35 -68t35 -68zM1082 679q-43 -30 -60 -80h332q-17 50 -60 80q-45 31 -106 31t-106 -31z" />
    <glyph glyph-name="ccedilla" unicode="&#xe7;" horiz-adv-x="1040" 
d="M425 -137l57 121q-179 30 -299 165q-122 138 -122 319q0 205 152 349q150 143 360 143q144 0 258 -59q129 -68 129 -174q0 -66 -47 -113q-48 -47 -116 -47q-40 0 -103 37q-63 36 -108 36q-69 0 -118 -48q-51 -50 -51 -124q0 -73 51 -123q49 -49 118 -49q63 0 112 39
q43 34 99 34q68 0 116 -47q47 -47 47 -114q0 -89 -89 -149q-71 -48 -185 -70l-39 -83q127 -41 127 -174q0 -88 -68 -147q-70 -61 -180 -61q-85 0 -137 22q-64 28 -64 86q0 35 25 60q24 24 60 24q12 0 36 -6q25 -7 36 -7q54 0 54 42q0 47 -79 53q-38 3 -38 39q0 14 6 26z" />
    <glyph glyph-name="egrave" unicode="&#xe8;" horiz-adv-x="1161" 
d="M770 298q55 37 98 37q58 0 101 -41q44 -42 44 -100q0 -93 -131 -157q-124 -61 -285 -61q-232 0 -385 141q-151 141 -151 351q0 207 153 350q152 142 372 142q201 0 351 -134q148 -132 159 -314v-13q0 -49 -33 -81q-33 -31 -84 -31h-551q13 -65 63 -101q48 -36 120 -36
q90 0 159 48zM490 679q-43 -30 -60 -80h332q-17 50 -60 80q-45 31 -106 31t-106 -31zM360 1426q33 34 78 34q43 0 76 -28l218 -174q47 -37 47 -92q0 -44 -32 -76t-78 -32q-38 0 -68 23l-223 171q-52 38 -52 94q0 46 34 80z" />
    <glyph glyph-name="eacute" unicode="&#xe9;" horiz-adv-x="1161" 
d="M770 298q55 37 98 37q58 0 101 -41q44 -42 44 -100q0 -93 -131 -157q-124 -61 -285 -61q-232 0 -385 141q-151 141 -151 351q0 207 153 350q152 142 372 142q201 0 351 -134q148 -132 159 -314v-13q0 -49 -33 -81q-33 -31 -84 -31h-551q13 -65 63 -101q48 -36 120 -36
q90 0 159 48zM490 679q-43 -30 -60 -80h332q-17 50 -60 80q-45 31 -106 31t-106 -31zM765 1252l-223 -171q-30 -23 -68 -23q-46 0 -78 32t-32 76q0 55 47 92l218 174q37 28 76 28q45 0 79 -34q33 -34 33 -80q0 -56 -52 -94z" />
    <glyph glyph-name="ecircumflex" unicode="&#xea;" horiz-adv-x="1161" 
d="M770 298q55 37 98 37q58 0 101 -41q44 -42 44 -100q0 -93 -131 -157q-124 -61 -285 -61q-232 0 -385 141q-151 141 -151 351q0 207 153 350q152 142 372 142q201 0 351 -134q148 -132 159 -314v-13q0 -49 -33 -81q-33 -31 -84 -31h-551q13 -65 63 -101q48 -36 120 -36
q90 0 159 48zM490 679q-43 -30 -60 -80h332q-17 50 -60 80q-45 31 -106 31t-106 -31zM289 1278l231 184q21 18 50 18q26 0 48 -17l233 -185q27 -21 43 -44q20 -29 20 -59q0 -44 -32 -77q-33 -32 -77 -32q-40 0 -73 26l-162 127l-157 -123q-37 -30 -78 -30q-44 0 -76 32
q-32 33 -32 77q0 54 62 103z" />
    <glyph glyph-name="edieresis" unicode="&#xeb;" horiz-adv-x="1161" 
d="M770 298q55 37 98 37q58 0 101 -41q44 -42 44 -100q0 -93 -131 -157q-124 -61 -285 -61q-232 0 -385 141q-151 141 -151 351q0 207 153 350q152 142 372 142q201 0 351 -134q148 -132 159 -314v-13q0 -49 -33 -81q-33 -31 -84 -31h-551q13 -65 63 -101q48 -36 120 -36
q90 0 159 48zM490 679q-43 -30 -60 -80h332q-17 50 -60 80q-45 31 -106 31t-106 -31zM264 1360q42 42 102 42t102 -42q42 -43 42 -102t-42 -102q-42 -42 -102 -42t-102 42q-42 43 -42 102t42 102zM672 1360q42 42 102 42t102 -42q42 -43 42 -102t-42 -102q-42 -42 -102 -42
t-102 42q-42 43 -42 102t42 102z" />
    <glyph glyph-name="igrave" unicode="&#xec;" horiz-adv-x="600" 
d="M50 1426q33 34 78 34q43 0 76 -28l218 -174q47 -37 47 -92q0 -44 -32 -76t-78 -32q-38 0 -68 23l-223 171q-52 38 -52 94q0 46 34 80zM121 781q0 74 52 127q53 52 127 52t127 -52q52 -53 52 -127v-626q0 -74 -52 -127q-53 -52 -127 -52t-127 52q-52 53 -52 127v626z" />
    <glyph glyph-name="iacute" unicode="&#xed;" horiz-adv-x="600" 
d="M532 1252l-223 -171q-30 -23 -68 -23q-46 0 -78 32t-32 76q0 55 47 92l218 174q37 28 76 28q45 0 79 -34q33 -34 33 -80q0 -56 -52 -94zM121 781q0 74 52 127q53 52 127 52t127 -52q52 -53 52 -127v-626q0 -74 -52 -127q-53 -52 -127 -52t-127 52q-52 53 -52 127v626z
" />
    <glyph glyph-name="icircumflex" unicode="&#xee;" horiz-adv-x="600" 
d="M121 781q0 74 52 127q53 52 127 52t127 -52q52 -53 52 -127v-626q0 -74 -52 -127q-53 -52 -127 -52t-127 52q-52 53 -52 127v626zM19 1278l231 184q21 18 50 18q26 0 48 -17l233 -185q27 -21 43 -44q20 -29 20 -59q0 -44 -32 -77q-33 -32 -77 -32q-40 0 -73 26l-162 127
l-157 -123q-37 -30 -78 -30q-44 0 -76 32q-32 33 -32 77q0 54 62 103z" />
    <glyph glyph-name="idieresis" unicode="&#xef;" horiz-adv-x="600" 
d="M-6 1360q42 42 102 42t102 -42q42 -43 42 -102t-42 -102q-42 -42 -102 -42t-102 42q-42 43 -42 102t42 102zM402 1360q42 42 102 42t102 -42q42 -43 42 -102t-42 -102q-42 -42 -102 -42t-102 42q-42 43 -42 102t42 102zM121 781q0 74 52 127q53 52 127 52t127 -52
q52 -53 52 -127v-626q0 -74 -52 -127q-53 -52 -127 -52t-127 52q-52 53 -52 127v626z" />
    <glyph glyph-name="eth" unicode="&#xf0;" horiz-adv-x="1184" 
d="M242 1110l98 55q-22 16 -36 28q-20 17 -31 35q-22 34 -22 81q0 63 49 112q49 50 113 50q49 0 94 -26l81 -48q44 -28 77 -52l129 72q20 11 38 11q29 0 49 -20t20 -49q0 -41 -35 -59l-85 -48q336 -303 336 -727q0 -245 -148 -398q-145 -151 -373 -151q-220 0 -371 144
q-150 142 -150 348q0 199 132 333q133 136 336 136q26 0 53 -3q-49 74 -135 141l-145 -81q-20 -11 -37 -11q-28 0 -49 20q-20 21 -20 49q0 39 32 58zM476 346q48 -49 120 -49q71 0 120 49q48 49 48 122q0 72 -48 121q-49 49 -120 49q-72 0 -120 -49q-49 -49 -49 -121
q0 -73 49 -122z" />
    <glyph glyph-name="ntilde" unicode="&#xf1;" horiz-adv-x="1158" 
d="M110 791q0 70 52 120q53 49 127 49q70 0 119 -36q50 -37 60 -101q42 60 114 98q77 39 162 39q138 0 221 -92q87 -96 87 -266v-447q0 -74 -52 -127q-53 -52 -127 -52t-127 52q-52 53 -52 127v378q0 52 -32 86t-81 34q-47 0 -79 -32t-34 -82v-384q0 -74 -52 -127
q-53 -52 -127 -52t-127 52q-52 53 -52 127v636zM289 1349q65 69 155 69q79 0 162 -67q48 -38 79 -38q28 0 45 35q29 62 94 62q41 0 70 -30q30 -29 30 -70q0 -75 -57 -139q-64 -73 -158 -73q-79 0 -162 67q-47 38 -79 38q-27 0 -46 -37q-30 -62 -94 -62q-40 0 -70 30t-30 70
q0 79 61 145z" />
    <glyph glyph-name="ograve" unicode="&#xf2;" horiz-adv-x="1168" 
d="M211 816q152 144 373 144t373 -144q150 -143 150 -348t-150 -348q-152 -144 -373 -144t-373 144q-150 143 -150 348t150 348zM464 345q50 -49 120 -49t120 49q52 50 52 123t-52 123q-50 49 -120 49t-120 -49q-52 -50 -52 -123t52 -123zM371 1426q33 34 78 34q43 0 76 -28
l218 -174q47 -37 47 -92q0 -44 -32 -76t-78 -32q-38 0 -68 23l-223 171q-52 38 -52 94q0 46 34 80z" />
    <glyph glyph-name="oacute" unicode="&#xf3;" horiz-adv-x="1168" 
d="M211 816q152 144 373 144t373 -144q150 -143 150 -348t-150 -348q-152 -144 -373 -144t-373 144q-150 143 -150 348t150 348zM464 345q50 -49 120 -49t120 49q52 50 52 123t-52 123q-50 49 -120 49t-120 -49q-52 -50 -52 -123t52 -123zM779 1252l-223 -171
q-30 -23 -68 -23q-46 0 -78 32t-32 76q0 55 47 92l218 174q37 28 76 28q45 0 79 -34q33 -34 33 -80q0 -56 -52 -94z" />
    <glyph glyph-name="ocircumflex" unicode="&#xf4;" horiz-adv-x="1168" 
d="M211 816q152 144 373 144t373 -144q150 -143 150 -348t-150 -348q-152 -144 -373 -144t-373 144q-150 143 -150 348t150 348zM464 345q50 -49 120 -49t120 49q52 50 52 123t-52 123q-50 49 -120 49t-120 -49q-52 -50 -52 -123t52 -123zM303 1278l231 184q21 18 50 18
q26 0 48 -17l233 -185q27 -21 43 -44q20 -29 20 -59q0 -44 -32 -77q-33 -32 -77 -32q-40 0 -73 26l-162 127l-157 -123q-37 -30 -78 -30q-44 0 -76 32q-32 33 -32 77q0 54 62 103z" />
    <glyph glyph-name="otilde" unicode="&#xf5;" horiz-adv-x="1168" 
d="M211 816q152 144 373 144t373 -144q150 -143 150 -348t-150 -348q-152 -144 -373 -144t-373 144q-150 143 -150 348t150 348zM464 345q50 -49 120 -49t120 49q52 50 52 123t-52 123q-50 49 -120 49t-120 -49q-52 -50 -52 -123t52 -123zM297 1349q65 69 155 69
q79 0 162 -67q48 -38 79 -38q28 0 45 35q29 62 94 62q41 0 70 -30q30 -29 30 -70q0 -75 -57 -139q-64 -73 -158 -73q-79 0 -162 67q-47 38 -79 38q-27 0 -46 -37q-30 -62 -94 -62q-40 0 -70 30t-30 70q0 79 61 145z" />
    <glyph glyph-name="odieresis" unicode="&#xf6;" horiz-adv-x="1168" 
d="M211 816q152 144 373 144t373 -144q150 -143 150 -348t-150 -348q-152 -144 -373 -144t-373 144q-150 143 -150 348t150 348zM464 345q50 -49 120 -49t120 49q52 50 52 123t-52 123q-50 49 -120 49t-120 -49q-52 -50 -52 -123t52 -123zM278 1360q42 42 102 42t102 -42
q42 -43 42 -102t-42 -102q-42 -42 -102 -42t-102 42q-42 43 -42 102t42 102zM686 1360q42 42 102 42t102 -42q42 -43 42 -102t-42 -102q-42 -42 -102 -42t-102 42q-42 43 -42 102t42 102z" />
    <glyph glyph-name="divide" unicode="&#xf7;" horiz-adv-x="1268" 
d="M135 769q44 43 105 43h788q58 0 103 -44q45 -45 45 -104q0 -61 -43 -105q-43 -43 -105 -43h-788q-58 0 -103 44q-45 45 -45 104q0 62 43 105zM502 1212q53 54 132 54t132 -54q52 -53 52 -130t-52 -130q-53 -54 -132 -54t-132 54q-52 53 -52 130t52 130zM766 116
q-53 -54 -132 -54t-132 54q-52 53 -52 130t52 130q53 54 132 54t132 -54q52 -53 52 -130t-52 -130z" />
    <glyph glyph-name="oslash" unicode="&#xf8;" horiz-adv-x="1168" 
d="M177 -127l107 188q-104 68 -163 174q-60 108 -60 233q0 205 150 348q152 144 373 144q99 0 190 -33l109 191q19 33 54 33q24 0 42 -17q19 -18 19 -43q0 -14 -8 -30l-106 -188q103 -67 163 -173q60 -108 60 -232q0 -205 -150 -348q-152 -144 -373 -144q-98 0 -192 32
l-108 -191q-20 -34 -54 -34q-24 0 -42 17q-19 18 -19 43q0 17 8 30zM447 350l167 295q-13 3 -30 3q-73 0 -126 -51q-54 -53 -54 -129q0 -67 43 -118zM584 288q73 0 126 51q54 53 54 129q0 65 -44 116l-168 -294q10 -2 32 -2z" />
    <glyph glyph-name="ugrave" unicode="&#xf9;" horiz-adv-x="1162" 
d="M1052 145q0 -70 -52 -120q-53 -49 -127 -49q-69 0 -119 38t-60 99q-42 -60 -114 -98q-77 -39 -162 -39q-138 0 -221 92q-87 96 -87 266v447q0 74 52 127q53 52 127 52t127 -52q52 -53 52 -127v-378q0 -52 32 -86t81 -34q47 0 79 32t34 82v384q0 74 52 127q53 52 127 52
t127 -52q52 -53 52 -127v-636zM358 1426q33 34 78 34q43 0 76 -28l218 -174q47 -37 47 -92q0 -44 -32 -76t-78 -32q-38 0 -68 23l-223 171q-52 38 -52 94q0 46 34 80z" />
    <glyph glyph-name="uacute" unicode="&#xfa;" horiz-adv-x="1162" 
d="M1052 145q0 -70 -52 -120q-53 -49 -127 -49q-69 0 -119 38t-60 99q-42 -60 -114 -98q-77 -39 -162 -39q-138 0 -221 92q-87 96 -87 266v447q0 74 52 127q53 52 127 52t127 -52q52 -53 52 -127v-378q0 -52 32 -86t81 -34q47 0 79 32t34 82v384q0 74 52 127q53 52 127 52
t127 -52q52 -53 52 -127v-636zM786 1252l-223 -171q-30 -23 -68 -23q-46 0 -78 32t-32 76q0 55 47 92l218 174q37 28 76 28q45 0 79 -34q33 -34 33 -80q0 -56 -52 -94z" />
    <glyph glyph-name="ucircumflex" unicode="&#xfb;" horiz-adv-x="1162" 
d="M1052 145q0 -70 -52 -120q-53 -49 -127 -49q-69 0 -119 38t-60 99q-42 -60 -114 -98q-77 -39 -162 -39q-138 0 -221 92q-87 96 -87 266v447q0 74 52 127q53 52 127 52t127 -52q52 -53 52 -127v-378q0 -52 32 -86t81 -34q47 0 79 32t34 82v384q0 74 52 127q53 52 127 52
t127 -52q52 -53 52 -127v-636zM300 1278l231 184q21 18 50 18q26 0 48 -17l233 -185q27 -21 43 -44q20 -29 20 -59q0 -44 -32 -77q-33 -32 -77 -32q-40 0 -73 26l-162 127l-157 -123q-37 -30 -78 -30q-44 0 -76 32q-32 33 -32 77q0 54 62 103z" />
    <glyph glyph-name="udieresis" unicode="&#xfc;" horiz-adv-x="1162" 
d="M1052 145q0 -70 -52 -120q-53 -49 -127 -49q-69 0 -119 38t-60 99q-42 -60 -114 -98q-77 -39 -162 -39q-138 0 -221 92q-87 96 -87 266v447q0 74 52 127q53 52 127 52t127 -52q52 -53 52 -127v-378q0 -52 32 -86t81 -34q47 0 79 32t34 82v384q0 74 52 127q53 52 127 52
t127 -52q52 -53 52 -127v-636zM275 1360q42 42 102 42t102 -42q42 -43 42 -102t-42 -102q-42 -42 -102 -42t-102 42q-42 43 -42 102t42 102zM683 1360q42 42 102 42t102 -42q42 -43 42 -102t-42 -102q-42 -42 -102 -42t-102 42q-42 43 -42 102t42 102z" />
    <glyph glyph-name="yacute" unicode="&#xfd;" horiz-adv-x="1113" 
d="M256 -349l70 189l70 188l-284 644l-13 28q-7 16 -11 29q-11 32 -11 62q0 71 49 120t120 49t116 -47q35 -36 62 -110l138 -377l126 373q54 161 181 161q71 0 121 -49t50 -120q0 -32 -12 -65l-424 -1153q-61 -167 -186 -167q-73 0 -125 53q-51 52 -51 123q0 32 14 69z
M763 1252l-223 -171q-30 -23 -68 -23q-46 0 -78 32t-32 76q0 55 47 92l218 174q37 28 76 28q45 0 79 -34q33 -34 33 -80q0 -56 -52 -94z" />
    <glyph glyph-name="thorn" unicode="&#xfe;" horiz-adv-x="1287" 
d="M110 1348q0 74 52 127q53 52 127 52t127 -52q52 -53 52 -127v-525q48 60 126 97q83 40 174 40q193 0 321 -142q127 -141 127 -350t-127 -350q-128 -142 -321 -142q-91 0 -174 40q-78 37 -126 97v-526q0 -73 -53 -126q-52 -52 -126 -52t-127 52q-52 53 -52 127v1760z
M547 340q52 -52 127 -52t128 52q52 52 52 128t-52 128q-53 52 -128 52t-127 -52q-53 -52 -53 -128t53 -128z" />
    <glyph glyph-name="ydieresis" unicode="&#xff;" horiz-adv-x="1113" 
d="M256 -349l70 189l70 188l-284 644l-13 28q-7 16 -11 29q-11 32 -11 62q0 71 49 120t120 49t116 -47q35 -36 62 -110l138 -377l126 373q54 161 181 161q71 0 121 -49t50 -120q0 -32 -12 -65l-424 -1153q-61 -167 -186 -167q-73 0 -125 53q-51 52 -51 123q0 32 14 69z
M259 1360q42 42 102 42t102 -42q42 -43 42 -102t-42 -102q-42 -42 -102 -42t-102 42q-42 43 -42 102t42 102zM667 1360q42 42 102 42t102 -42q42 -43 42 -102t-42 -102q-42 -42 -102 -42t-102 42q-42 43 -42 102t42 102z" />
    <glyph glyph-name="Amacron" unicode="&#x100;" horiz-adv-x="1412" 
d="M106 252l428 1013q32 75 67 112q43 45 105 45q107 0 173 -157l429 -1018q7 -18 12 -37q5 -23 5 -43q0 -79 -53 -134q-53 -57 -132 -57q-63 0 -112 35q-48 34 -69 91l-37 99h-433l-36 -95q-21 -55 -70 -91q-52 -39 -112 -39q-77 0 -132 54q-54 55 -54 132q0 41 21 90z
M706 803l-119 -326h238zM425 1788q33 33 81 33h400q48 0 82 -33q33 -34 33 -82t-33 -81q-34 -34 -82 -34h-400q-48 0 -81 34q-34 33 -34 81t34 82z" />
    <glyph glyph-name="amacron" unicode="&#x101;" horiz-adv-x="1283" 
d="M689 15q-82 -39 -174 -39q-193 0 -321 142q-127 141 -127 350t127 350q128 142 321 142q91 0 174 -39q77 -37 126 -97q12 51 69 88q53 35 110 35q70 0 124 -45q55 -47 55 -113v-647q0 -77 -55 -123q-51 -43 -124 -43q-69 0 -118 38t-61 102q-49 -63 -126 -101zM737 596
q-53 52 -128 52t-127 -52q-53 -52 -53 -128t53 -128q52 -52 127 -52t128 52q52 52 52 128t-52 128zM374 1340q33 33 81 33h400q48 0 82 -33q33 -34 33 -82t-33 -81q-34 -34 -82 -34h-400q-48 0 -81 34q-34 33 -34 81t34 82z" />
    <glyph glyph-name="Abreve" unicode="&#x102;" horiz-adv-x="1412" 
d="M106 252l428 1013q32 75 67 112q43 45 105 45q107 0 173 -157l429 -1018q7 -18 12 -37q5 -23 5 -43q0 -79 -53 -134q-53 -57 -132 -57q-63 0 -112 35q-48 34 -69 91l-37 99h-433l-36 -95q-21 -55 -70 -91q-52 -39 -112 -39q-77 0 -132 54q-54 55 -54 132q0 41 21 90z
M706 803l-119 -326h238zM996 1721q-36 -82 -112 -131q-79 -52 -178 -52t-178 52q-77 49 -112 131q-12 29 -12 57q0 47 31 80q32 33 78 33q81 0 114 -78q23 -53 79 -53t79 53q32 78 114 78q46 0 78 -33q31 -33 31 -80q0 -28 -12 -57z" />
    <glyph glyph-name="abreve" unicode="&#x103;" horiz-adv-x="1283" 
d="M689 15q-82 -39 -174 -39q-193 0 -321 142q-127 141 -127 350t127 350q128 142 321 142q91 0 174 -39q77 -37 126 -97q12 51 69 88q53 35 110 35q70 0 124 -45q55 -47 55 -113v-647q0 -77 -55 -123q-51 -43 -124 -43q-69 0 -118 38t-61 102q-49 -63 -126 -101zM737 596
q-53 52 -128 52t-127 -52q-53 -52 -53 -128t53 -128q52 -52 127 -52t128 52q52 52 52 128t-52 128zM943 1273q-36 -82 -112 -131q-79 -52 -178 -52t-178 52q-77 49 -112 131q-12 29 -12 57q0 47 31 80q32 33 78 33q81 0 114 -78q23 -53 79 -53t79 53q32 78 114 78
q46 0 78 -33q31 -33 31 -80q0 -28 -12 -57z" />
    <glyph glyph-name="Aogonek" unicode="&#x104;" horiz-adv-x="1413" 
d="M106 252l431 1021q64 151 169 151q106 0 170 -151l438 -1040q19 -45 19 -85q0 -85 -68 -143q-49 -42 -80 -94q-31 -53 -31 -95q0 -56 59 -56q5 0 13 1t12 1q41 0 69 -28q28 -27 28 -67q0 -61 -58 -86q-42 -19 -118 -19q-101 0 -167 59q-66 58 -66 145q0 124 116 225
q-45 30 -75 93q-11 22 -24 57l-10 30l-11 30h-433l-36 -94q-22 -57 -70 -93q-51 -38 -112 -38q-76 0 -130 54q-56 55 -56 132q0 41 21 90zM706 803l-119 -326h238z" />
    <glyph glyph-name="aogonek" unicode="&#x105;" horiz-adv-x="1284" 
d="M689 15q-82 -39 -174 -39q-193 0 -321 142q-127 141 -127 350t127 350q128 142 321 142q91 0 174 -39q77 -37 126 -97q12 61 60 98q49 37 119 37q88 0 136 -64q43 -57 43 -147v-606q0 -84 -63 -134q-113 -106 -113 -192q0 -56 59 -56q5 0 13 1t12 1q41 0 69 -28
q28 -27 28 -67q0 -61 -58 -86q-42 -19 -118 -19q-101 0 -167 59q-66 58 -66 145q0 128 123 234q-63 37 -77 116q-49 -63 -126 -101zM737 596q-53 52 -128 52t-127 -52q-53 -52 -53 -128t53 -128q52 -52 127 -52t128 52q52 52 52 128t-52 128z" />
    <glyph glyph-name="Cacute" unicode="&#x106;" horiz-adv-x="1482" 
d="M297 1223q216 201 519 201q288 0 494 -165q77 -62 77 -151q0 -76 -53 -130q-53 -53 -130 -53q-70 0 -137 58q-101 87 -241 87q-146 0 -250 -104q-107 -108 -107 -266t107 -266q104 -104 250 -104q145 0 246 91q61 54 132 54q77 0 130 -53t53 -130q0 -91 -81 -153
q-208 -163 -490 -163q-303 0 -519 201q-224 209 -224 523t224 523zM1011 1700l-223 -171q-30 -23 -68 -23q-46 0 -78 32t-32 76q0 55 47 92l218 174q37 28 76 28q45 0 79 -34q33 -34 33 -80q0 -56 -52 -94z" />
    <glyph glyph-name="cacute" unicode="&#x107;" horiz-adv-x="1040" 
d="M213 817q150 143 360 143q179 0 309 -92q78 -54 78 -141q0 -66 -47 -113q-48 -47 -116 -47q-56 0 -99 34q-53 39 -112 39q-69 0 -118 -48q-51 -50 -51 -124t51 -124q49 -48 118 -48q63 0 112 39q43 34 99 34q68 0 116 -47q47 -47 47 -114q0 -84 -79 -141
q-129 -91 -308 -91q-210 0 -360 143q-152 144 -152 349t152 349zM743 1252l-223 -171q-30 -23 -68 -23q-46 0 -78 32t-32 76q0 55 47 92l218 174q37 28 76 28q45 0 79 -34q33 -34 33 -80q0 -56 -52 -94z" />
    <glyph glyph-name="Ccircumflex" unicode="&#x108;" horiz-adv-x="1482" 
d="M297 1223q216 201 519 201q288 0 494 -165q77 -62 77 -151q0 -76 -53 -130q-53 -53 -130 -53q-70 0 -137 58q-101 87 -241 87q-146 0 -250 -104q-107 -108 -107 -266t107 -266q104 -104 250 -104q145 0 246 91q61 54 132 54q77 0 130 -53t53 -130q0 -91 -81 -153
q-208 -163 -490 -163q-303 0 -519 201q-224 209 -224 523t224 523zM502 1726l231 184q21 18 50 18q26 0 48 -17l233 -185q27 -21 43 -44q20 -29 20 -59q0 -44 -32 -77q-33 -32 -77 -32q-40 0 -73 26l-162 127l-157 -123q-37 -30 -78 -30q-44 0 -76 32q-32 33 -32 77
q0 54 62 103z" />
    <glyph glyph-name="ccircumflex" unicode="&#x109;" horiz-adv-x="1040" 
d="M213 817q150 143 360 143q179 0 309 -92q78 -54 78 -141q0 -66 -47 -113q-48 -47 -116 -47q-56 0 -99 34q-53 39 -112 39q-69 0 -118 -48q-51 -50 -51 -124t51 -124q49 -48 118 -48q63 0 112 39q43 34 99 34q68 0 116 -47q47 -47 47 -114q0 -84 -79 -141
q-129 -91 -308 -91q-210 0 -360 143q-152 144 -152 349t152 349zM269 1278l231 184q21 18 50 18q26 0 48 -17l233 -185q27 -21 43 -44q20 -29 20 -59q0 -44 -32 -77q-33 -32 -77 -32q-40 0 -73 26l-162 127l-157 -123q-37 -30 -78 -30q-44 0 -76 32q-32 33 -32 77
q0 54 62 103z" />
    <glyph glyph-name="Cdotaccent" unicode="&#x10a;" horiz-adv-x="1482" 
d="M297 1223q216 201 519 201q288 0 494 -165q77 -62 77 -151q0 -76 -53 -130q-53 -53 -130 -53q-70 0 -137 58q-101 87 -241 87q-146 0 -250 -104q-107 -108 -107 -266t107 -266q104 -104 250 -104q145 0 246 91q61 54 132 54q77 0 130 -53t53 -130q0 -91 -81 -153
q-208 -163 -490 -163q-303 0 -519 201q-224 209 -224 523t224 523zM681 1808q42 42 102 42t102 -42q42 -43 42 -102t-42 -102q-42 -42 -102 -42t-102 42q-42 43 -42 102t42 102z" />
    <glyph glyph-name="cdotaccent" unicode="&#x10b;" horiz-adv-x="1040" 
d="M213 817q150 143 360 143q179 0 309 -92q78 -54 78 -141q0 -66 -47 -113q-48 -47 -116 -47q-56 0 -99 34q-53 39 -112 39q-69 0 -118 -48q-51 -50 -51 -124t51 -124q49 -48 118 -48q63 0 112 39q43 34 99 34q68 0 116 -47q47 -47 47 -114q0 -84 -79 -141
q-129 -91 -308 -91q-210 0 -360 143q-152 144 -152 349t152 349zM448 1360q42 42 102 42t102 -42q42 -43 42 -102t-42 -102q-42 -42 -102 -42t-102 42q-42 43 -42 102t42 102z" />
    <glyph glyph-name="Ccaron" unicode="&#x10c;" horiz-adv-x="1482" 
d="M297 1223q216 201 519 201q288 0 494 -165q77 -62 77 -151q0 -76 -53 -130q-53 -53 -130 -53q-70 0 -137 58q-101 87 -241 87q-146 0 -250 -104q-107 -108 -107 -266t107 -266q104 -104 250 -104q145 0 246 91q61 54 132 54q77 0 130 -53t53 -130q0 -91 -81 -153
q-208 -163 -490 -163q-303 0 -519 201q-224 209 -224 523t224 523zM472 1863q32 32 76 32q40 0 78 -30l157 -123l162 127q33 26 73 26q44 0 77 -32q32 -33 32 -77q0 -30 -20 -59q-16 -24 -43 -45l-233 -184q-22 -17 -48 -17q-29 0 -50 18l-231 183q-62 48 -62 104
q0 44 32 77z" />
    <glyph glyph-name="ccaron" unicode="&#x10d;" horiz-adv-x="1040" 
d="M213 817q150 143 360 143q179 0 309 -92q78 -54 78 -141q0 -66 -47 -113q-48 -47 -116 -47q-56 0 -99 34q-53 39 -112 39q-69 0 -118 -48q-51 -50 -51 -124t51 -124q49 -48 118 -48q63 0 112 39q43 34 99 34q68 0 116 -47q47 -47 47 -114q0 -84 -79 -141
q-129 -91 -308 -91q-210 0 -360 143q-152 144 -152 349t152 349zM239 1415q32 32 76 32q40 0 78 -30l157 -123l162 127q33 26 73 26q44 0 77 -32q32 -33 32 -77q0 -30 -20 -59q-16 -24 -43 -45l-233 -184q-22 -17 -48 -17q-29 0 -50 18l-231 183q-62 48 -62 104q0 44 32 77z
" />
    <glyph glyph-name="Dcaron" unicode="&#x10e;" horiz-adv-x="1384" 
d="M126 1242q0 65 45 112q46 46 111 46h287q318 0 527 -191q214 -196 214 -509t-214 -509q-209 -191 -527 -191h-287q-65 0 -111 45q-45 46 -45 111v1086zM527 354h53q153 0 241 92t88 254t-88 254t-241 92h-53v-692zM264 1863q32 32 76 32q40 0 78 -30l157 -123l162 127
q33 26 73 26q44 0 77 -32q32 -33 32 -77q0 -30 -20 -59q-16 -24 -43 -45l-233 -184q-22 -17 -48 -17q-29 0 -50 18l-231 183q-62 48 -62 104q0 44 32 77z" />
    <glyph glyph-name="dcaron" unicode="&#x10f;" horiz-adv-x="1712" 
d="M688 15q-82 -39 -174 -39q-193 0 -321 142q-127 141 -127 350t127 350q128 142 321 142q91 0 174 -39q77 -37 126 -97v521q0 74 52 127q53 52 127 52t127 -52q52 -52 52 -126v-1201q0 -70 -52 -120q-53 -49 -127 -49q-71 0 -119 38q-48 37 -60 102q-49 -63 -126 -101z
M736 596q-53 52 -128 52t-127 -52q-53 -52 -53 -128t53 -128q52 -52 127 -52t128 52q52 52 52 128t-52 128zM1284 1093l67 301q11 47 52 78q42 31 100 31q65 0 111 -42q45 -42 45 -103q0 -24 -9 -47l-120 -295q-14 -36 -47 -58q-34 -22 -76 -22q-54 0 -91 36q-38 36 -38 86
q0 11 6 35z" />
    <glyph glyph-name="Dcroat" unicode="&#x110;" horiz-adv-x="1427" 
d="M169 598h-49q-41 0 -70 29t-29 70t29 71q29 29 70 29h49v445q0 81 63 123q55 35 146 35h234q318 0 527 -191q214 -196 214 -509t-214 -509q-209 -191 -527 -191h-234q-91 0 -146 35q-63 40 -63 121v442zM570 797h107q41 0 71 -29q29 -30 29 -71t-29 -70q-30 -29 -71 -29
h-107v-244h53q153 0 241 92t88 254t-88 254t-241 92h-53v-249z" />
    <glyph glyph-name="dcroat" unicode="&#x111;" horiz-adv-x="1314" 
d="M1173 1144v-1002q0 -70 -52 -120q-53 -49 -127 -49q-71 0 -119 39t-60 104q-49 -63 -126 -101q-82 -39 -174 -39q-193 0 -321 142q-127 141 -127 350t127 350q128 142 321 142q91 0 174 -39q77 -37 126 -97v320h-280q-41 0 -71 29q-29 30 -29 71t29 71q30 29 71 29h280
q8 76 54 127q50 56 125 56q74 0 124 -57q47 -52 54 -126h46q41 0 71 -29q29 -30 29 -71t-29 -71q-30 -29 -71 -29h-45zM737 596q-53 52 -128 52t-127 -52q-53 -52 -53 -128t53 -128q52 -52 127 -52t128 52q52 52 52 128t-52 128z" />
    <glyph glyph-name="Emacron" unicode="&#x112;" horiz-adv-x="1053" 
d="M126 1242q0 80 62 122q54 36 144 36h493q68 0 114 -47q47 -47 47 -116q0 -67 -47 -114q-46 -47 -114 -47h-293v-185h251q68 0 114 -47q47 -47 47 -116q0 -67 -47 -114q-46 -47 -114 -47h-251v-243h310q68 0 114 -47q47 -47 47 -116q0 -67 -47 -114q-46 -47 -114 -47h-509
q-90 0 -144 35q-63 41 -63 121v1086zM254 1788q33 33 81 33h400q48 0 82 -33q33 -34 33 -82t-33 -81q-34 -34 -82 -34h-400q-48 0 -81 34q-34 33 -34 81t34 82z" />
    <glyph glyph-name="emacron" unicode="&#x113;" horiz-adv-x="1157" 
d="M770 298q55 37 98 37q58 0 101 -41q44 -42 44 -100q0 -93 -131 -157q-124 -61 -285 -61q-232 0 -385 141q-151 141 -151 351q0 207 153 350q152 142 372 142q201 0 351 -134q148 -132 159 -314v-13q0 -49 -33 -81q-33 -31 -84 -31h-551q13 -65 63 -101q48 -36 120 -36
q90 0 159 48zM490 679q-43 -30 -60 -80h332q-17 50 -60 80q-45 31 -106 31t-106 -31zM289 1340q33 33 81 33h400q48 0 82 -33q33 -34 33 -82t-33 -81q-34 -34 -82 -34h-400q-48 0 -81 34q-34 33 -34 81t34 82z" />
    <glyph glyph-name="Ebreve" unicode="&#x114;" horiz-adv-x="1053" 
d="M126 1242q0 80 62 122q54 36 144 36h493q68 0 114 -47q47 -47 47 -116q0 -67 -47 -114q-46 -47 -114 -47h-293v-185h251q68 0 114 -47q47 -47 47 -116q0 -67 -47 -114q-46 -47 -114 -47h-251v-243h310q68 0 114 -47q47 -47 47 -116q0 -67 -47 -114q-46 -47 -114 -47h-509
q-90 0 -144 35q-63 41 -63 121v1086zM825 1721q-36 -82 -112 -131q-79 -52 -178 -52t-178 52q-77 49 -112 131q-12 29 -12 57q0 47 31 80q32 33 78 33q81 0 114 -78q23 -53 79 -53t79 53q32 78 114 78q46 0 78 -33q31 -33 31 -80q0 -28 -12 -57z" />
    <glyph glyph-name="ebreve" unicode="&#x115;" horiz-adv-x="1157" 
d="M770 298q55 37 98 37q58 0 101 -41q44 -42 44 -100q0 -93 -131 -157q-124 -61 -285 -61q-232 0 -385 141q-151 141 -151 351q0 207 153 350q152 142 372 142q201 0 351 -134q148 -132 159 -314v-13q0 -49 -33 -81q-33 -31 -84 -31h-551q13 -65 63 -101q48 -36 120 -36
q90 0 159 48zM490 679q-43 -30 -60 -80h332q-17 50 -60 80q-45 31 -106 31t-106 -31zM860 1273q-36 -82 -112 -131q-79 -52 -178 -52t-178 52q-77 49 -112 131q-12 29 -12 57q0 47 31 80q32 33 78 33q81 0 114 -78q23 -53 79 -53t79 53q32 78 114 78q46 0 78 -33
q31 -33 31 -80q0 -28 -12 -57z" />
    <glyph glyph-name="Edotaccent" unicode="&#x116;" horiz-adv-x="1053" 
d="M126 1242q0 80 62 122q54 36 144 36h493q68 0 114 -47q47 -47 47 -116q0 -67 -47 -114q-46 -47 -114 -47h-293v-185h251q68 0 114 -47q47 -47 47 -116q0 -67 -47 -114q-46 -47 -114 -47h-251v-243h310q68 0 114 -47q47 -47 47 -116q0 -67 -47 -114q-46 -47 -114 -47h-509
q-90 0 -144 35q-63 41 -63 121v1086zM438 1808q42 42 102 42t102 -42q42 -43 42 -102t-42 -102q-42 -42 -102 -42t-102 42q-42 43 -42 102t42 102z" />
    <glyph glyph-name="edotaccent" unicode="&#x117;" horiz-adv-x="1157" 
d="M770 298q55 37 98 37q58 0 101 -41q44 -42 44 -100q0 -93 -131 -157q-124 -61 -285 -61q-232 0 -385 141q-151 141 -151 351q0 207 153 350q152 142 372 142q201 0 351 -134q148 -132 159 -314v-13q0 -49 -33 -81q-33 -31 -84 -31h-551q13 -65 63 -101q48 -36 120 -36
q90 0 159 48zM490 679q-43 -30 -60 -80h332q-17 50 -60 80q-45 31 -106 31t-106 -31zM468 1360q42 42 102 42t102 -42q42 -43 42 -102t-42 -102q-42 -42 -102 -42t-102 42q-42 43 -42 102t42 102z" />
    <glyph glyph-name="Eogonek" unicode="&#x118;" horiz-adv-x="1053" 
d="M126 1242q0 80 59 121q53 37 140 37h500q68 0 114 -47q47 -47 47 -116q0 -67 -47 -114q-46 -47 -114 -47h-293v-185h251q68 0 114 -47q47 -47 47 -116q0 -67 -47 -114q-46 -47 -114 -47h-251v-243h310q68 0 114 -47q47 -47 47 -116q0 -60 -39 -105q-38 -45 -96 -55
q-107 -104 -107 -185q0 -56 59 -56q5 0 13 1t12 1q41 0 69 -28q28 -27 28 -67q0 -60 -56 -85q-43 -20 -120 -20q-101 0 -167 59q-66 58 -66 145q0 127 124 234h-334q-86 0 -138 36q-59 41 -59 120v1086z" />
    <glyph glyph-name="eogonek" unicode="&#x119;" horiz-adv-x="1157" 
d="M770 298q55 37 98 37q62 0 104 -40q41 -41 41 -101q0 -72 -85 -130q-77 -53 -187 -73q-94 -99 -94 -175q0 -56 59 -56q5 0 13 1t12 1q41 0 69 -28q28 -27 28 -67q0 -61 -58 -86q-42 -19 -118 -19q-101 0 -167 59q-66 58 -66 145q0 115 102 214q-203 23 -332 160
q-128 136 -128 328q0 207 153 350q152 142 372 142q201 0 351 -134q148 -132 159 -314v-13q0 -49 -33 -81q-33 -31 -84 -31h-551q13 -65 63 -101q48 -36 120 -36q90 0 159 48zM490 679q-43 -30 -60 -80h332q-17 50 -60 80q-45 31 -106 31t-106 -31z" />
    <glyph glyph-name="Ecaron" unicode="&#x11a;" horiz-adv-x="1053" 
d="M126 1242q0 80 62 122q54 36 144 36h493q68 0 114 -47q47 -47 47 -116q0 -67 -47 -114q-46 -47 -114 -47h-293v-185h251q68 0 114 -47q47 -47 47 -116q0 -67 -47 -114q-46 -47 -114 -47h-251v-243h310q68 0 114 -47q47 -47 47 -116q0 -67 -47 -114q-46 -47 -114 -47h-509
q-90 0 -144 35q-63 41 -63 121v1086zM223 1863q32 32 76 32q40 0 78 -30l157 -123l162 127q33 26 73 26q44 0 77 -32q32 -33 32 -77q0 -30 -20 -59q-16 -24 -43 -45l-233 -184q-22 -17 -48 -17q-29 0 -50 18l-231 183q-62 48 -62 104q0 44 32 77z" />
    <glyph glyph-name="ecaron" unicode="&#x11b;" horiz-adv-x="1157" 
d="M770 298q55 37 98 37q58 0 101 -41q44 -42 44 -100q0 -93 -131 -157q-124 -61 -285 -61q-232 0 -385 141q-151 141 -151 351q0 207 153 350q152 142 372 142q201 0 351 -134q148 -132 159 -314v-13q0 -49 -33 -81q-33 -31 -84 -31h-551q13 -65 63 -101q48 -36 120 -36
q90 0 159 48zM490 679q-43 -30 -60 -80h332q-17 50 -60 80q-45 31 -106 31t-106 -31zM256 1415q32 32 76 32q40 0 78 -30l157 -123l162 127q33 26 73 26q44 0 77 -32q32 -33 32 -77q0 -30 -20 -59q-16 -24 -43 -45l-233 -184q-22 -17 -48 -17q-29 0 -50 18l-231 183
q-62 48 -62 104q0 44 32 77z" />
    <glyph glyph-name="Gcircumflex" unicode="&#x11c;" horiz-adv-x="1584" 
d="M861 736q36 37 88 37h436q53 0 90 -38q38 -37 38 -90v-5q0 -296 -194 -480t-502 -184q-301 0 -519 203q-225 210 -225 521q0 312 226 522q218 202 521 202q249 0 451 -137q54 -36 86 -81q40 -54 40 -111q0 -77 -55 -128q-54 -50 -131 -50q-54 0 -99 32q-91 63 -137 85
q-75 36 -151 36q-146 0 -251 -106q-106 -108 -106 -264q0 -159 111 -268q104 -103 238 -103q114 0 194 50q82 50 112 143h-173q-52 0 -88 37q-37 36 -37 88t37 89zM513 1726l231 184q21 18 50 18q26 0 48 -17l233 -185q27 -21 43 -44q20 -29 20 -59q0 -44 -32 -77
q-33 -32 -77 -32q-40 0 -73 26l-162 127l-157 -123q-37 -30 -78 -30q-44 0 -76 32q-32 33 -32 77q0 54 62 103z" />
    <glyph glyph-name="gcircumflex" unicode="&#x11d;" horiz-adv-x="1283" 
d="M213 -199q47 46 112 46q61 0 99 -34q73 -65 172 -65q102 0 159 62q60 66 60 196v110q-49 -63 -126 -101q-82 -39 -174 -39q-193 0 -321 142q-127 141 -127 350t127 350q128 142 321 142q91 0 175 -40q76 -37 125 -96q13 59 60 97q50 39 119 39q74 0 127 -52
q52 -53 52 -127v-748q0 -297 -153 -450q-145 -147 -412 -147q-208 0 -366 119q-75 56 -75 134q0 65 46 112zM737 596q-53 52 -128 52t-127 -52q-53 -52 -53 -128t53 -128q52 -52 127 -52t128 52q52 52 52 128t-52 128zM373 1278l231 184q21 18 50 18q26 0 48 -17l233 -185
q27 -21 43 -44q20 -29 20 -59q0 -44 -32 -77q-33 -32 -77 -32q-40 0 -73 26l-162 127l-157 -123q-37 -30 -78 -30q-44 0 -76 32q-32 33 -32 77q0 54 62 103z" />
    <glyph glyph-name="Gbreve" unicode="&#x11e;" horiz-adv-x="1584" 
d="M861 736q36 37 88 37h436q53 0 90 -38q38 -37 38 -90v-5q0 -296 -194 -480t-502 -184q-301 0 -519 203q-225 210 -225 521q0 312 226 522q218 202 521 202q249 0 451 -137q54 -36 86 -81q40 -54 40 -111q0 -77 -55 -128q-54 -50 -131 -50q-54 0 -99 32q-91 63 -137 85
q-75 36 -151 36q-146 0 -251 -106q-106 -108 -106 -264q0 -159 111 -268q104 -103 238 -103q114 0 194 50q82 50 112 143h-173q-52 0 -88 37q-37 36 -37 88t37 89zM1084 1721q-36 -82 -112 -131q-79 -52 -178 -52t-178 52q-77 49 -112 131q-12 29 -12 57q0 47 31 80
q32 33 78 33q81 0 114 -78q23 -53 79 -53t79 53q32 78 114 78q46 0 78 -33q31 -33 31 -80q0 -28 -12 -57z" />
    <glyph glyph-name="gbreve" unicode="&#x11f;" horiz-adv-x="1283" 
d="M213 -199q47 46 112 46q61 0 99 -34q73 -65 172 -65q102 0 159 62q60 66 60 196v110q-49 -63 -126 -101q-82 -39 -174 -39q-193 0 -321 142q-127 141 -127 350t127 350q128 142 321 142q91 0 175 -40q76 -37 125 -96q13 59 60 97q50 39 119 39q74 0 127 -52
q52 -53 52 -127v-748q0 -297 -153 -450q-145 -147 -412 -147q-208 0 -366 119q-75 56 -75 134q0 65 46 112zM737 596q-53 52 -128 52t-127 -52q-53 -52 -53 -128t53 -128q52 -52 127 -52t128 52q52 52 52 128t-52 128zM944 1273q-36 -82 -112 -131q-79 -52 -178 -52t-178 52
q-77 49 -112 131q-12 29 -12 57q0 47 31 80q32 33 78 33q81 0 114 -78q23 -53 79 -53t79 53q32 78 114 78q46 0 78 -33q31 -33 31 -80q0 -28 -12 -57z" />
    <glyph glyph-name="Gdotaccent" unicode="&#x120;" horiz-adv-x="1584" 
d="M861 736q36 37 88 37h436q53 0 90 -38q38 -37 38 -90v-5q0 -296 -194 -480t-502 -184q-301 0 -519 203q-225 210 -225 521q0 312 226 522q218 202 521 202q249 0 451 -137q54 -36 86 -81q40 -54 40 -111q0 -77 -55 -128q-54 -50 -131 -50q-54 0 -99 32q-91 63 -137 85
q-75 36 -151 36q-146 0 -251 -106q-106 -108 -106 -264q0 -159 111 -268q104 -103 238 -103q114 0 194 50q82 50 112 143h-173q-52 0 -88 37q-37 36 -37 88t37 89zM692 1808q42 42 102 42t102 -42q42 -43 42 -102t-42 -102q-42 -42 -102 -42t-102 42q-42 43 -42 102t42 102z
" />
    <glyph glyph-name="gdotaccent" unicode="&#x121;" horiz-adv-x="1283" 
d="M213 -199q47 46 112 46q61 0 99 -34q73 -65 172 -65q102 0 159 62q60 66 60 196v110q-49 -63 -126 -101q-82 -39 -174 -39q-193 0 -321 142q-127 141 -127 350t127 350q128 142 321 142q91 0 175 -40q76 -37 125 -96q13 59 60 97q50 39 119 39q74 0 127 -52
q52 -53 52 -127v-748q0 -297 -153 -450q-145 -147 -412 -147q-208 0 -366 119q-75 56 -75 134q0 65 46 112zM737 596q-53 52 -128 52t-127 -52q-53 -52 -53 -128t53 -128q52 -52 127 -52t128 52q52 52 52 128t-52 128zM552 1360q42 42 102 42t102 -42q42 -43 42 -102
t-42 -102q-42 -42 -102 -42t-102 42q-42 43 -42 102t42 102z" />
    <glyph glyph-name="uni0122" unicode="&#x122;" horiz-adv-x="1584" 
d="M861 736q36 37 88 37h436q53 0 90 -38q38 -37 38 -90v-5q0 -296 -194 -480t-502 -184q-301 0 -519 203q-225 210 -225 521q0 312 226 522q218 202 521 202q249 0 451 -137q54 -36 86 -81q40 -54 40 -111q0 -77 -55 -128q-54 -50 -131 -50q-54 0 -99 32q-91 63 -137 85
q-75 36 -151 36q-146 0 -251 -106q-106 -108 -106 -264q0 -159 111 -268q104 -103 238 -103q114 0 194 50q82 50 112 143h-173q-52 0 -88 37q-37 36 -37 88t37 89zM657 -450l51 222q11 46 43 75q35 30 82 30q53 0 90 -37t37 -89q0 -24 -9 -47l-78 -201q-36 -92 -111 -92
q-46 0 -77 31q-32 31 -32 77q0 13 4 31z" />
    <glyph glyph-name="uni0123" unicode="&#x123;" horiz-adv-x="1283" 
d="M213 -199q47 46 112 46q61 0 99 -34q73 -65 172 -65q102 0 159 62q60 66 60 196v110q-49 -63 -126 -101q-82 -39 -174 -39q-193 0 -321 142q-127 141 -127 350t127 350q128 142 321 142q91 0 175 -40q76 -37 125 -96q13 59 60 97q50 39 119 39q74 0 127 -52
q52 -53 52 -127v-748q0 -297 -153 -450q-145 -147 -412 -147q-208 0 -366 119q-75 56 -75 134q0 65 46 112zM737 596q-53 52 -128 52t-127 -52q-53 -52 -53 -128t53 -128q52 -52 127 -52t128 52q52 52 52 128t-52 128zM824 1358l-51 -222q-11 -46 -43 -75q-35 -30 -82 -30
q-53 0 -90 37t-37 89q0 25 9 47l78 201q36 92 111 92q46 0 77 -31q32 -31 32 -77q0 -13 -4 -31z" />
    <glyph glyph-name="Hcircumflex" unicode="&#x124;" horiz-adv-x="1389" 
d="M855 556h-324v-377q0 -84 -59 -143q-60 -60 -144 -60t-143 60q-60 59 -60 143v1042q0 84 60 144q59 59 143 59t144 -59q59 -60 59 -144v-311h324v311q0 84 60 144q59 59 143 59t144 -59q59 -60 59 -144v-1042q0 -84 -59 -143q-60 -60 -144 -60t-143 60q-60 59 -60 143
v377zM413 1726l231 184q21 18 50 18q26 0 48 -17l233 -185q27 -21 43 -44q20 -29 20 -59q0 -44 -32 -77q-33 -32 -77 -32q-40 0 -73 26l-162 127l-157 -123q-37 -30 -78 -30q-44 0 -76 32q-32 33 -32 77q0 54 62 103z" />
    <glyph glyph-name="hcircumflex" unicode="&#x125;" horiz-adv-x="1181" 
d="M133 1345q0 74 52 127q53 52 127 52t127 -52q52 -53 52 -127v-516q44 57 113 92q77 39 166 39q133 0 217 -90q88 -94 88 -250v-465q0 -74 -52 -127q-53 -52 -127 -52t-127 52q-52 53 -52 127v378q0 52 -32 86t-81 34q-47 0 -79 -32t-34 -82v-384q0 -74 -52 -127
q-53 -52 -127 -52t-127 52q-52 53 -52 127v1190zM31 1726l231 184q21 18 50 18q26 0 48 -17l233 -185q27 -21 43 -44q20 -29 20 -59q0 -44 -32 -77q-33 -32 -77 -32q-40 0 -73 26l-162 127l-157 -123q-37 -30 -78 -30q-44 0 -76 32q-32 33 -32 77q0 54 62 103z" />
    <glyph glyph-name="Hbar" unicode="&#x126;" horiz-adv-x="1421" 
d="M34 1227q29 29 70 29h41q16 77 66 127q56 54 134 54q77 0 133 -54q50 -50 67 -127h331q16 77 66 127q56 54 134 54q77 0 133 -54q50 -50 67 -127h41q41 0 70 -29q29 -30 29 -71t-29 -70t-70 -29h-38v-891q0 -24 -9 -45q-14 -68 -68 -113q-55 -45 -126 -45q-99 0 -153 74
q-50 66 -50 172v337h-325v-337q0 -105 -50 -172q-55 -74 -153 -74q-84 0 -143 60q-60 59 -60 143v891h-38q-41 0 -70 29t-29 70t29 71zM873 900v157h-325v-157h325z" />
    <glyph glyph-name="hbar" unicode="&#x127;" horiz-adv-x="1189" 
d="M30 1316q30 29 71 29h40q5 75 53 127q51 54 126 54q76 0 124 -54q44 -49 54 -127h213q41 0 71 -29q29 -30 29 -71t-29 -71q-30 -29 -71 -29h-212v-316q44 57 113 92q77 39 166 39q133 0 217 -90q88 -94 88 -250v-476q0 -72 -53 -125q-53 -54 -126 -54q-75 0 -127 51
q-52 52 -52 128v389q0 48 -33 84t-80 36q-48 0 -80 -32q-33 -32 -33 -82v-395q0 -72 -53 -125q-53 -54 -126 -54q-90 0 -136 55q-43 50 -43 136v989h-40q-41 0 -71 29q-29 30 -29 71t29 71z" />
    <glyph glyph-name="Itilde" unicode="&#x128;" horiz-adv-x="690" 
d="M142 1221q0 84 60 144q59 59 143 59t144 -59q59 -60 59 -144v-1042q0 -84 -59 -143q-60 -60 -144 -60t-143 60q-60 59 -60 143v1042zM58 1797q65 69 155 69q79 0 162 -67q48 -38 79 -38q28 0 45 35q29 62 94 62q41 0 70 -30q30 -29 30 -70q0 -75 -57 -139
q-64 -73 -158 -73q-79 0 -162 67q-47 38 -79 38q-27 0 -46 -37q-30 -62 -94 -62q-40 0 -70 30t-30 70q0 79 61 145z" />
    <glyph glyph-name="itilde" unicode="&#x129;" horiz-adv-x="600" 
d="M13 1349q65 69 155 69q79 0 162 -67q48 -38 79 -38q28 0 45 35q29 62 94 62q41 0 70 -30q30 -29 30 -70q0 -75 -57 -139q-64 -73 -158 -73q-79 0 -162 67q-47 38 -79 38q-27 0 -46 -37q-30 -62 -94 -62q-40 0 -70 30t-30 70q0 79 61 145zM121 781q0 74 52 127
q53 52 127 52t127 -52q52 -53 52 -127v-626q0 -74 -52 -127q-53 -52 -127 -52t-127 52q-52 53 -52 127v626z" />
    <glyph glyph-name="Imacron" unicode="&#x12a;" horiz-adv-x="690" 
d="M142 1221q0 84 60 144q59 59 143 59t144 -59q59 -60 59 -144v-1042q0 -84 -59 -143q-60 -60 -144 -60t-143 60q-60 59 -60 143v1042zM64 1788q33 33 81 33h400q48 0 82 -33q33 -34 33 -82t-33 -81q-34 -34 -82 -34h-400q-48 0 -81 34q-34 33 -34 81t34 82z" />
    <glyph glyph-name="imacron" unicode="&#x12b;" horiz-adv-x="600" 
d="M19 1340q33 33 81 33h400q48 0 82 -33q33 -34 33 -82t-33 -81q-34 -34 -82 -34h-400q-48 0 -81 34q-34 33 -34 81t34 82zM121 781q0 74 52 127q53 52 127 52t127 -52q52 -53 52 -127v-626q0 -74 -52 -127q-53 -52 -127 -52t-127 52q-52 53 -52 127v626z" />
    <glyph glyph-name="Ibreve" unicode="&#x12c;" horiz-adv-x="690" 
d="M142 1221q0 84 60 144q59 59 143 59t144 -59q59 -60 59 -144v-1042q0 -84 -59 -143q-60 -60 -144 -60t-143 60q-60 59 -60 143v1042zM635 1721q-36 -82 -112 -131q-79 -52 -178 -52t-178 52q-77 49 -112 131q-12 29 -12 57q0 47 31 80q32 33 78 33q81 0 114 -78
q23 -53 79 -53t79 53q32 78 114 78q46 0 78 -33q31 -33 31 -80q0 -28 -12 -57z" />
    <glyph glyph-name="ibreve" unicode="&#x12d;" horiz-adv-x="600" 
d="M590 1273q-36 -82 -112 -131q-79 -52 -178 -52t-178 52q-77 49 -112 131q-12 29 -12 57q0 47 31 80q32 33 78 33q81 0 114 -78q23 -53 79 -53t79 53q32 78 114 78q46 0 78 -33q31 -33 31 -80q0 -28 -12 -57zM121 781q0 74 52 127q53 52 127 52t127 -52q52 -53 52 -127
v-626q0 -74 -52 -127q-53 -52 -127 -52t-127 52q-52 53 -52 127v626z" />
    <glyph glyph-name="Iogonek" unicode="&#x12e;" horiz-adv-x="690" 
d="M142 1224q0 80 56 140q59 63 147 63t147 -64q56 -60 56 -139v-1058q0 -96 -76 -157q-119 -106 -119 -193q0 -56 59 -56q5 0 13 1t12 1q41 0 69 -28q28 -27 28 -67q0 -61 -58 -86q-42 -19 -118 -19q-101 0 -167 59q-66 58 -66 145q0 123 115 226q-98 58 -98 174v1058z" />
    <glyph glyph-name="iogonek" unicode="&#x12f;" horiz-adv-x="600" 
d="M121 784q0 74 52 127q53 52 127 52t127 -52q52 -53 52 -127v-642q0 -83 -68 -139q-109 -91 -109 -187q0 -56 59 -56h6l7 1q9 1 12 1q41 0 69 -28q28 -27 28 -67q0 -72 -71 -92q-44 -13 -105 -13q-101 0 -167 59q-66 58 -66 145q0 126 120 231q-73 50 -73 145v642z
M161 1431q57 57 139 57t139 -57q58 -58 58 -139t-58 -138q-57 -58 -139 -58t-139 58q-58 57 -58 138t58 139z" />
    <glyph glyph-name="Idotaccent" unicode="&#x130;" horiz-adv-x="690" 
d="M142 1221q0 84 60 144q59 59 143 59t144 -59q59 -60 59 -144v-1042q0 -84 -59 -143q-60 -60 -144 -60t-143 60q-60 59 -60 143v1042zM243 1808q42 42 102 42t102 -42q42 -43 42 -102t-42 -102q-42 -42 -102 -42t-102 42q-42 43 -42 102t42 102z" />
    <glyph glyph-name="dotlessi" unicode="&#x131;" horiz-adv-x="600" 
d="M121 781q0 74 52 127q53 52 127 52t127 -52q52 -53 52 -127v-626q0 -74 -52 -127q-53 -52 -127 -52t-127 52q-52 53 -52 127v626z" />
    <glyph glyph-name="IJ" unicode="&#x132;" horiz-adv-x="1823" 
d="M142 1221q0 84 60 144q59 59 143 59t144 -59q59 -60 59 -144v-1042q0 -84 -59 -143q-60 -60 -144 -60t-143 60q-60 59 -60 143v1042zM799 389q50 48 122 48q73 0 130 -60q44 -47 108 -47q60 0 96 41q36 42 36 117v733q0 84 60 144q59 59 143 59t144 -59q59 -60 59 -144
v-747q0 -232 -137 -366q-136 -132 -367 -132q-217 0 -381 150q-65 60 -65 139q0 74 52 124z" />
    <glyph glyph-name="ij" unicode="&#x133;" horiz-adv-x="1226" 
d="M161 1431q57 57 139 57t139 -57q58 -58 58 -139t-58 -138q-57 -58 -139 -58t-139 58q-58 57 -58 138t58 139zM121 781q0 74 52 127q53 52 127 52t127 -52q52 -53 52 -127v-626q0 -74 -52 -127q-53 -52 -127 -52t-127 52q-52 53 -52 127v626zM361 -233q46 46 111 46
q50 0 92 -31q42 -30 81 -30q111 0 111 139v890q0 74 52 127q53 52 127 52t127 -52q52 -53 52 -127v-899q0 -211 -116 -329q-115 -117 -324 -117q-171 0 -283 82q-75 55 -75 136q0 67 45 113zM796 1431q57 57 139 57t139 -57q58 -58 58 -139t-58 -138q-57 -58 -139 -58
t-139 58q-58 57 -58 138t58 139z" />
    <glyph glyph-name="Jcircumflex" unicode="&#x134;" horiz-adv-x="1132" 
d="M88 389q50 48 122 48q73 0 130 -60q44 -47 108 -47q60 0 96 41q36 42 36 117v733q0 84 60 144q59 59 143 59t144 -59q59 -60 59 -144v-747q0 -232 -137 -366q-136 -132 -367 -132q-217 0 -381 150q-65 60 -65 139q0 74 52 124zM502 1726l231 184q21 18 50 18q26 0 48 -17
l233 -185q27 -21 43 -44q20 -29 20 -59q0 -44 -32 -77q-33 -32 -77 -32q-40 0 -73 26l-162 127l-157 -123q-37 -30 -78 -30q-44 0 -76 32q-32 33 -32 77q0 54 62 103z" />
    <glyph glyph-name="jcircumflex" unicode="&#x135;" horiz-adv-x="683" 
d="M-195 -234q45 45 111 45q49 0 89 -29q39 -30 80 -30q111 0 111 139v903q0 74 52 127q53 52 127 52t127 -52q52 -53 52 -127v-912q0 -211 -116 -329q-115 -117 -324 -117q-153 0 -281 87q-74 51 -74 130q0 67 46 113zM94 1278l231 184q21 18 50 18q26 0 48 -17l233 -185
q27 -21 43 -44q20 -29 20 -59q0 -44 -32 -77q-33 -32 -77 -32q-40 0 -73 26l-162 127l-157 -123q-37 -30 -78 -30q-44 0 -76 32q-32 33 -32 77q0 54 62 103z" />
    <glyph glyph-name="uni0136" unicode="&#x136;" horiz-adv-x="1385" 
d="M126 1221q0 84 60 144q59 59 143 59t144 -59q59 -60 59 -144v-416l347 514q66 99 171 99q80 0 138 -52q60 -55 60 -136q0 -60 -36 -109l-298 -403l329 -426q38 -49 38 -113q0 -83 -54 -141q-56 -61 -138 -61q-105 0 -169 93l-388 561v-452q0 -84 -59 -143
q-60 -60 -144 -60t-143 60q-60 59 -60 143v1042zM540 -450l51 222q11 46 43 75q35 30 82 30q53 0 90 -37t37 -89q0 -24 -9 -47l-78 -201q-36 -92 -111 -92q-46 0 -77 31q-32 31 -32 77q0 13 4 31z" />
    <glyph glyph-name="uni0137" unicode="&#x137;" horiz-adv-x="1201" 
d="M110 1345q0 74 52 127q53 52 127 52t127 -52q52 -53 52 -127v-740l317 306q52 49 116 49q68 0 115 -47t47 -115t-48 -113l-217 -195l247 -232q54 -52 54 -121q0 -67 -47 -114t-115 -47q-72 0 -127 58l-342 349v-228q0 -74 -52 -127q-53 -52 -127 -52t-127 52
q-52 53 -52 127v1190zM428 -450l51 222q11 46 43 75q35 30 82 30q53 0 90 -37t37 -89q0 -24 -9 -47l-78 -201q-36 -92 -111 -92q-46 0 -77 31q-32 31 -32 77q0 13 4 31z" />
    <glyph glyph-name="kgreenlandic" unicode="&#x138;" horiz-adv-x="1201" 
d="M110 794q0 74 52 127q53 52 127 52t127 -52q52 -53 52 -127v-189l315 303q52 49 116 49q68 0 115 -47t47 -115t-48 -113l-215 -192l255 -248q54 -52 54 -121q0 -67 -47 -114t-115 -47q-72 0 -127 58l-350 365v-241q0 -74 -52 -127q-53 -52 -127 -52t-127 52
q-52 53 -52 127v652z" />
    <glyph glyph-name="Lacute" unicode="&#x139;" horiz-adv-x="1024" 
d="M126 1221q0 79 61 141q62 62 142 62q85 0 145 -62q58 -60 58 -138v-870h299q74 0 125 -51q51 -52 51 -127q0 -74 -51 -125t-125 -51h-549q-65 0 -111 45q-45 46 -45 111v1065zM557 1700l-223 -171q-30 -23 -68 -23q-46 0 -78 32t-32 76q0 55 47 92l218 174q37 28 76 28
q45 0 79 -34q33 -34 33 -80q0 -56 -52 -94z" />
    <glyph glyph-name="lacute" unicode="&#x13a;" horiz-adv-x="610" 
d="M120 1293q0 71 52 122q53 50 127 50t127 -50q52 -51 52 -122v-1144q0 -71 -52 -122q-53 -50 -127 -50t-127 50q-52 51 -52 122v1144zM531 1700l-223 -171q-30 -23 -68 -23q-46 0 -78 32t-32 76q0 55 47 92l218 174q37 28 76 28q45 0 79 -34q33 -34 33 -80q0 -56 -52 -94z
" />
    <glyph glyph-name="uni013B" unicode="&#x13b;" horiz-adv-x="1024" 
d="M126 1221q0 79 61 141q62 62 142 62q85 0 145 -62q58 -60 58 -138v-870h299q74 0 125 -51q51 -52 51 -127q0 -74 -51 -125t-125 -51h-549q-65 0 -111 45q-45 46 -45 111v1065zM393 -450l51 222q11 46 43 75q35 30 82 30q53 0 90 -37t37 -89q0 -24 -9 -47l-78 -201
q-36 -92 -111 -92q-46 0 -77 31q-32 31 -32 77q0 13 4 31z" />
    <glyph glyph-name="uni013C" unicode="&#x13c;" horiz-adv-x="600" 
d="M123 1345q0 74 52 127q53 52 127 52t127 -52q52 -53 52 -127v-1190q0 -74 -52 -127q-53 -52 -127 -52t-127 52q-52 53 -52 127v1190zM113 -450l51 222q11 46 43 75q35 30 82 30q53 0 90 -37t37 -89q0 -24 -9 -47l-78 -201q-36 -92 -111 -92q-46 0 -77 31q-32 31 -32 77
q0 13 4 31z" />
    <glyph glyph-name="Lcaron" unicode="&#x13d;" horiz-adv-x="1140" 
d="M126 1221q0 79 61 141q62 62 142 62q85 0 145 -62q58 -60 58 -138v-870h299q74 0 125 -51q51 -52 51 -127q0 -74 -51 -125t-125 -51h-549q-65 0 -111 45q-45 46 -45 111v1065zM712 1093l67 301q11 47 52 78q42 31 100 31q65 0 111 -42q45 -42 45 -103q0 -24 -9 -47
l-120 -295q-14 -36 -47 -58q-34 -22 -76 -22q-54 0 -91 36q-38 36 -38 86q0 11 6 35z" />
    <glyph glyph-name="lcaron" unicode="&#x13e;" horiz-adv-x="1012" 
d="M119 1345q0 74 52 127q53 52 127 52t127 -52q52 -53 52 -127v-1190q0 -74 -52 -127q-53 -52 -127 -52t-127 52q-52 53 -52 127v1190zM584 1093l67 301q11 47 52 78q42 31 100 31q65 0 111 -42q45 -42 45 -103q0 -24 -9 -47l-120 -295q-14 -36 -47 -58q-34 -22 -76 -22
q-54 0 -91 36q-38 36 -38 86q0 11 6 35z" />
    <glyph glyph-name="Ldot" unicode="&#x13f;" horiz-adv-x="1024" 
d="M126 1221q0 79 61 141q62 62 142 62q85 0 145 -62q58 -60 58 -138v-870h299q74 0 125 -51q51 -52 51 -127q0 -74 -51 -125t-125 -51h-549q-65 0 -111 45q-45 46 -45 111v1065zM705 860q42 42 102 42t102 -42q42 -43 42 -102t-42 -102q-42 -42 -102 -42t-102 42
q-42 43 -42 102t42 102z" />
    <glyph glyph-name="ldot" unicode="&#x140;" horiz-adv-x="972" 
d="M119 1345q0 74 52 127q53 52 127 52t127 -52q52 -53 52 -127v-1190q0 -74 -52 -127q-53 -52 -127 -52t-127 52q-52 53 -52 127v1190zM691 860q42 42 102 42t102 -42q42 -43 42 -102t-42 -102q-42 -42 -102 -42t-102 42q-42 43 -42 102t42 102z" />
    <glyph glyph-name="Lslash" unicode="&#x141;" horiz-adv-x="1042" 
d="M34 565l110 67v589q0 82 60 142q60 61 143 61q79 0 141 -61t62 -142v-344l277 170q25 14 40 14q25 0 42 -18q18 -18 18 -42q0 -33 -30 -51l-347 -212v-384h299q74 0 125 -51q51 -52 51 -127q0 -74 -51 -125t-125 -51h-513q-84 0 -135 38q-57 41 -57 118v336l-45 -28
q-19 -12 -38 -12q-25 0 -43 18q-17 17 -17 42q0 32 33 53z" />
    <glyph glyph-name="lslash" unicode="&#x142;" horiz-adv-x="839" 
d="M233 592l-148 -90q-19 -12 -36 -12q-25 0 -42 18q-18 18 -18 42q0 32 34 53l210 129v615q0 74 52 127q53 52 127 52t127 -52q52 -53 52 -127v-395l163 101q23 14 39 14q25 0 42 -18q18 -18 18 -42q0 -32 -33 -53l-229 -142v-658q0 -74 -52 -127q-53 -52 -127 -52t-127 52
q-52 53 -52 127v438z" />
    <glyph glyph-name="Nacute" unicode="&#x143;" horiz-adv-x="1471" 
d="M126 1281q0 63 39 103q38 40 97 40q72 0 117 -51l565 -650v494q0 87 57 147q58 60 143 60q83 0 142 -59t59 -142v-1105q0 -62 -39 -102t-98 -40q-74 0 -117 51l-564 650v-496q0 -85 -59 -145t-142 -60t-142 58q-58 59 -58 142v1105zM915 1700l-223 -171q-30 -23 -68 -23
q-46 0 -78 32t-32 76q0 55 47 92l218 174q37 28 76 28q45 0 79 -34q33 -34 33 -80q0 -56 -52 -94z" />
    <glyph glyph-name="nacute" unicode="&#x144;" horiz-adv-x="1158" 
d="M110 791q0 70 52 120q53 49 127 49q70 0 119 -36q50 -37 60 -101q42 60 114 98q77 39 162 39q138 0 221 -92q87 -96 87 -266v-447q0 -74 -52 -127q-53 -52 -127 -52t-127 52q-52 53 -52 127v378q0 52 -32 86t-81 34q-47 0 -79 -32t-34 -82v-384q0 -74 -52 -127
q-53 -52 -127 -52t-127 52q-52 53 -52 127v636zM777 1252l-223 -171q-30 -23 -68 -23q-46 0 -78 32t-32 76q0 55 47 92l218 174q37 28 76 28q45 0 79 -34q33 -34 33 -80q0 -56 -52 -94z" />
    <glyph glyph-name="uni0145" unicode="&#x145;" horiz-adv-x="1471" 
d="M126 1281q0 63 39 103q38 40 97 40q72 0 117 -51l565 -650v494q0 87 57 147q58 60 143 60q83 0 142 -59t59 -142v-1105q0 -62 -39 -102t-98 -40q-74 0 -117 51l-564 650v-496q0 -85 -59 -145t-142 -60t-142 58q-58 59 -58 142v1105zM623 -450l51 222q11 46 43 75
q35 30 82 30q53 0 90 -37t37 -89q0 -24 -9 -47l-78 -201q-36 -92 -111 -92q-46 0 -77 31q-32 31 -32 77q0 13 4 31z" />
    <glyph glyph-name="uni0146" unicode="&#x146;" horiz-adv-x="1158" 
d="M110 791q0 70 52 120q53 49 127 49q70 0 119 -36q50 -37 60 -101q42 60 114 98q77 39 162 39q138 0 221 -92q87 -96 87 -266v-447q0 -74 -52 -127q-53 -52 -127 -52t-127 52q-52 53 -52 127v378q0 52 -32 86t-81 34q-47 0 -79 -32t-34 -82v-384q0 -74 -52 -127
q-53 -52 -127 -52t-127 52q-52 53 -52 127v636zM413 -450l51 222q11 46 43 75q35 30 82 30q53 0 90 -37t37 -89q0 -24 -9 -47l-78 -201q-36 -92 -111 -92q-46 0 -77 31q-32 31 -32 77q0 13 4 31z" />
    <glyph glyph-name="Ncaron" unicode="&#x147;" horiz-adv-x="1471" 
d="M126 1281q0 63 39 103q38 40 97 40q72 0 117 -51l565 -650v494q0 87 57 147q58 60 143 60q83 0 142 -59t59 -142v-1105q0 -62 -39 -102t-98 -40q-74 0 -117 51l-564 650v-496q0 -85 -59 -145t-142 -60t-142 58q-58 59 -58 142v1105zM424 1863q32 32 76 32q40 0 78 -30
l157 -123l162 127q33 26 73 26q44 0 77 -32q32 -33 32 -77q0 -30 -20 -59q-16 -24 -43 -45l-233 -184q-22 -17 -48 -17q-29 0 -50 18l-231 183q-62 48 -62 104q0 44 32 77z" />
    <glyph glyph-name="ncaron" unicode="&#x148;" horiz-adv-x="1158" 
d="M110 791q0 70 52 120q53 49 127 49q70 0 119 -36q50 -37 60 -101q42 60 114 98q77 39 162 39q138 0 221 -92q87 -96 87 -266v-447q0 -74 -52 -127q-53 -52 -127 -52t-127 52q-52 53 -52 127v378q0 52 -32 86t-81 34q-47 0 -79 -32t-34 -82v-384q0 -74 -52 -127
q-53 -52 -127 -52t-127 52q-52 53 -52 127v636zM268 1415q32 32 76 32q40 0 78 -30l157 -123l162 127q33 26 73 26q44 0 77 -32q32 -33 32 -77q0 -30 -20 -59q-16 -24 -43 -45l-233 -184q-22 -17 -48 -17q-29 0 -50 18l-231 183q-62 48 -62 104q0 44 32 77z" />
    <glyph glyph-name="napostrophe" unicode="&#x149;" horiz-adv-x="1397" 
d="M356 791q0 70 52 120q53 49 127 49q70 0 119 -36q50 -37 60 -101q42 60 114 98q77 39 162 39q138 0 221 -92q87 -96 87 -266v-447q0 -74 -52 -127q-53 -52 -127 -52t-127 52q-52 53 -52 127v378q0 52 -32 86t-81 34q-47 0 -79 -32t-34 -82v-384q0 -74 -52 -127
q-53 -52 -127 -52t-127 52q-52 53 -52 127v636zM47 1093l67 301q11 47 52 78q42 31 100 31q65 0 111 -42q45 -42 45 -103q0 -24 -9 -47l-120 -295q-14 -36 -47 -58q-34 -22 -76 -22q-54 0 -91 36q-38 36 -38 86q0 11 6 35z" />
    <glyph glyph-name="Eng" unicode="&#x14a;" horiz-adv-x="1471" 
d="M126 1285q0 62 39 103q38 40 96 40q70 0 123 -67l560 -714v586q0 85 58 145q59 59 142 59t142 -59t59 -142v-1363q0 -208 -110 -322q-111 -115 -313 -115q-127 0 -221 43q-121 56 -121 164q0 66 46 112t113 46q25 0 67 -17q41 -18 66 -18q98 0 98 118v194l-443 567v-482
q0 -79 -60 -139q-61 -61 -141 -61q-83 0 -142 58q-58 59 -58 142v1122z" />
    <glyph glyph-name="eng" unicode="&#x14b;" horiz-adv-x="1158" 
d="M406 -277q41 41 100 41q33 0 63 -14q26 -12 47 -12q78 0 78 106v689q0 52 -32 86t-81 34t-81 -34t-32 -86v-391q0 -74 -52 -127q-53 -52 -127 -52t-127 52q-52 53 -52 127v656q0 70 52 120q53 49 127 49q69 0 119 -40t60 -104q42 60 114 98q77 39 162 39q138 0 221 -92
q87 -96 87 -266v-740q0 -202 -96 -313q-97 -113 -277 -113q-141 0 -242 63q-72 46 -72 123q0 59 41 101z" />
    <glyph glyph-name="Omacron" unicode="&#x14c;" horiz-adv-x="1658" 
d="M299 1221q219 203 530 203t530 -203q226 -210 226 -521t-226 -521q-219 -203 -530 -203t-530 203q-226 210 -226 521t226 521zM574 436q104 -106 257 -106t257 106q105 106 105 264t-105 264q-104 106 -257 106t-257 -106q-105 -106 -105 -264t105 -264zM548 1788
q33 33 81 33h400q48 0 82 -33q33 -34 33 -82t-33 -81q-34 -34 -82 -34h-400q-48 0 -81 34q-34 33 -34 81t34 82z" />
    <glyph glyph-name="omacron" unicode="&#x14d;" horiz-adv-x="1168" 
d="M211 816q152 144 373 144t373 -144q150 -143 150 -348t-150 -348q-152 -144 -373 -144t-373 144q-150 143 -150 348t150 348zM464 345q50 -49 120 -49t120 49q52 50 52 123t-52 123q-50 49 -120 49t-120 -49q-52 -50 -52 -123t52 -123zM303 1340q33 33 81 33h400
q48 0 82 -33q33 -34 33 -82t-33 -81q-34 -34 -82 -34h-400q-48 0 -81 34q-34 33 -34 81t34 82z" />
    <glyph glyph-name="Obreve" unicode="&#x14e;" horiz-adv-x="1658" 
d="M299 1221q219 203 530 203t530 -203q226 -210 226 -521t-226 -521q-219 -203 -530 -203t-530 203q-226 210 -226 521t226 521zM574 436q104 -106 257 -106t257 106q105 106 105 264t-105 264q-104 106 -257 106t-257 -106q-105 -106 -105 -264t105 -264zM1119 1721
q-36 -82 -112 -131q-79 -52 -178 -52t-178 52q-77 49 -112 131q-12 29 -12 57q0 47 31 80q32 33 78 33q81 0 114 -78q23 -53 79 -53t79 53q32 78 114 78q46 0 78 -33q31 -33 31 -80q0 -28 -12 -57z" />
    <glyph glyph-name="obreve" unicode="&#x14f;" horiz-adv-x="1168" 
d="M211 816q152 144 373 144t373 -144q150 -143 150 -348t-150 -348q-152 -144 -373 -144t-373 144q-150 143 -150 348t150 348zM464 345q50 -49 120 -49t120 49q52 50 52 123t-52 123q-50 49 -120 49t-120 -49q-52 -50 -52 -123t52 -123zM874 1273q-36 -82 -112 -131
q-79 -52 -178 -52t-178 52q-77 49 -112 131q-12 29 -12 57q0 47 31 80q32 33 78 33q81 0 114 -78q23 -53 79 -53t79 53q32 78 114 78q46 0 78 -33q31 -33 31 -80q0 -28 -12 -57z" />
    <glyph glyph-name="Ohungarumlaut" unicode="&#x150;" horiz-adv-x="1658" 
 />
    <glyph glyph-name="ohungarumlaut" unicode="&#x151;" horiz-adv-x="1169" 
 />
    <glyph glyph-name="OE" unicode="&#x152;" horiz-adv-x="1755" 
d="M1527 1400q68 0 114 -47q47 -47 47 -116q0 -67 -47 -114q-46 -47 -114 -47h-293v-185h251q68 0 114 -47q47 -47 47 -116q0 -67 -47 -114q-46 -47 -114 -47h-251v-243h310q68 0 114 -47q47 -47 47 -116q0 -67 -47 -114q-46 -47 -114 -47h-716q-311 0 -530 195
q-225 202 -225 505t226 505q218 195 530 195h698zM828 1041q-154 -1 -254 -94q-102 -96 -102 -247q0 -152 102 -247q100 -94 254 -94v682z" />
    <glyph glyph-name="oe" unicode="&#x153;" horiz-adv-x="1834" 
d="M578 -24q-215 0 -366 144t-151 348q0 206 151 349q150 143 366 143q231 0 357 -142q132 142 338 142q201 0 346 -134q143 -131 154 -314v-13q0 -49 -33 -81q-33 -31 -84 -31h-551q13 -65 63 -101q48 -36 120 -36q89 0 159 48q55 37 98 37q58 0 101 -41q44 -42 44 -100
q0 -41 -33 -83q-30 -39 -78 -63q-142 -72 -297 -72q-103 0 -197 38q-95 39 -150 104q-126 -142 -357 -142zM464 345q50 -49 120 -49t120 49q52 50 52 123t-52 123q-50 49 -120 49t-120 -49q-52 -50 -52 -123t52 -123zM1167 679q-43 -30 -60 -80h332q-17 50 -60 80
q-45 31 -106 31t-106 -31z" />
    <glyph glyph-name="Racute" unicode="&#x154;" horiz-adv-x="1272" 
d="M126 1242q0 158 218 158h254q234 0 380 -133q142 -130 142 -329q0 -262 -231 -383l234 -296q36 -45 36 -104q0 -76 -53 -127q-53 -52 -132 -52q-99 0 -154 78l-298 420v-300q0 -82 -58 -140t-140 -58t-140 58t-58 140v1068zM522 760h47q73 0 116 40q47 43 47 123
q0 74 -46 119q-45 44 -117 44h-47v-326zM776 1700l-223 -171q-30 -23 -68 -23q-46 0 -78 32t-32 76q0 55 47 92l218 174q37 28 76 28q45 0 79 -34q33 -34 33 -80q0 -56 -52 -94z" />
    <glyph glyph-name="racute" unicode="&#x155;" horiz-adv-x="880" 
d="M110 781q0 74 52 127q53 52 127 52q73 0 124 -46q48 -42 55 -101q36 62 101 103q67 42 136 42q71 0 118 -46q45 -45 45 -111q0 -65 -46 -110q-46 -46 -111 -46q-8 0 -18 1l-19 3q-25 4 -37 4q-80 0 -125 -52q-44 -51 -44 -140v-306q0 -74 -52 -127q-53 -52 -127 -52
t-127 52q-52 53 -52 127v626zM645 1252l-223 -171q-30 -23 -68 -23q-46 0 -78 32t-32 76q0 55 47 92l218 174q37 28 76 28q45 0 79 -34q33 -34 33 -80q0 -56 -52 -94z" />
    <glyph glyph-name="uni0156" unicode="&#x156;" horiz-adv-x="1272" 
d="M126 1242q0 158 218 158h254q234 0 380 -133q142 -130 142 -329q0 -262 -231 -383l234 -296q36 -45 36 -104q0 -76 -53 -127q-53 -52 -132 -52q-99 0 -154 78l-298 420v-300q0 -82 -58 -140t-140 -58t-140 58t-58 140v1068zM522 760h47q73 0 116 40q47 43 47 123
q0 74 -46 119q-45 44 -117 44h-47v-326zM471 -450l51 222q11 46 43 75q35 30 82 30q53 0 90 -37t37 -89q0 -24 -9 -47l-78 -201q-36 -92 -111 -92q-46 0 -77 31q-32 31 -32 77q0 13 4 31z" />
    <glyph glyph-name="uni0157" unicode="&#x157;" horiz-adv-x="884" 
d="M114 781q0 74 52 127q53 52 127 52q73 0 124 -46q48 -42 55 -101q36 62 101 103q67 42 136 42q71 0 118 -46q45 -45 45 -111q0 -65 -46 -110q-46 -46 -111 -46q-8 0 -18 1l-19 3q-25 4 -37 4q-80 0 -125 -52q-44 -51 -44 -140v-306q0 -74 -52 -127q-53 -52 -127 -52
t-127 52q-52 53 -52 127v626zM114 -450l51 222q11 46 43 75q35 30 82 30q53 0 90 -37t37 -89q0 -24 -9 -47l-78 -201q-36 -92 -111 -92q-46 0 -77 31q-32 31 -32 77q0 13 4 31z" />
    <glyph glyph-name="Rcaron" unicode="&#x158;" horiz-adv-x="1272" 
d="M126 1242q0 158 218 158h254q234 0 380 -133q142 -130 142 -329q0 -262 -231 -383l234 -296q36 -45 36 -104q0 -76 -53 -127q-53 -52 -132 -52q-99 0 -154 78l-298 420v-300q0 -82 -58 -140t-140 -58t-140 58t-58 140v1068zM522 760h47q73 0 116 40q47 43 47 123
q0 74 -46 119q-45 44 -117 44h-47v-326zM249 1863q32 32 76 32q40 0 78 -30l157 -123l162 127q33 26 73 26q44 0 77 -32q32 -33 32 -77q0 -30 -20 -59q-16 -24 -43 -45l-233 -184q-22 -17 -48 -17q-29 0 -50 18l-231 183q-62 48 -62 104q0 44 32 77z" />
    <glyph glyph-name="rcaron" unicode="&#x159;" horiz-adv-x="883" 
d="M113 781q0 74 52 127q53 52 127 52q73 0 124 -46q48 -42 55 -101q36 62 101 103q67 42 136 42q71 0 118 -46q45 -45 45 -111q0 -65 -46 -110q-46 -46 -111 -46q-8 0 -18 1l-19 3q-25 4 -37 4q-80 0 -125 -52q-44 -51 -44 -140v-306q0 -74 -52 -127q-53 -52 -127 -52
t-127 52q-52 53 -52 127v626zM152 1415q32 32 76 32q40 0 78 -30l157 -123l162 127q33 26 73 26q44 0 77 -32q32 -33 32 -77q0 -30 -20 -59q-16 -24 -43 -45l-233 -184q-22 -17 -48 -17q-29 0 -50 18l-231 183q-62 48 -62 104q0 44 32 77z" />
    <glyph glyph-name="Sacute" unicode="&#x15a;" horiz-adv-x="1148" 
d="M124 375q51 51 122 51q51 0 99 -34q93 -67 194 -67q58 0 97 29q39 30 39 76q0 51 -31 83q-35 36 -125 70q-195 74 -287 178q-98 110 -98 271q0 166 120 277q125 115 326 115q192 0 331 -88q37 -23 60 -59q25 -39 25 -80q0 -64 -46 -110q-45 -47 -109 -47q-45 0 -86 24
q-59 32 -113 32q-107 0 -107 -73q0 -40 40 -70q42 -32 161 -79q345 -137 345 -456q0 -199 -132 -318q-136 -124 -372 -124q-216 0 -391 104q-113 68 -113 172q0 71 51 123zM756 1700l-223 -171q-30 -23 -68 -23q-46 0 -78 32t-32 76q0 55 47 92l218 174q37 28 76 28
q45 0 79 -34q33 -34 33 -80q0 -56 -52 -94z" />
    <glyph glyph-name="sacute" unicode="&#x15b;" horiz-adv-x="843" 
d="M90 263q38 39 92 39q22 0 46 -9q15 -6 43 -20q55 -30 86 -30q70 0 70 53q0 28 -16 48q-18 22 -67 44q-242 109 -242 295q0 123 92 200t244 77q43 0 87 -6q56 -8 99 -24q115 -43 115 -132q0 -52 -35 -86q-34 -34 -85 -34q-20 0 -55 14t-53 14q-56 0 -56 -34q0 -18 21 -35
q24 -18 88 -48q216 -98 216 -296q0 -139 -92 -226q-98 -91 -269 -91q-140 0 -246 48q-121 54 -121 145q0 55 38 94zM615 1252l-223 -171q-30 -23 -68 -23q-46 0 -78 32t-32 76q0 55 47 92l218 174q37 28 76 28q45 0 79 -34q33 -34 33 -80q0 -56 -52 -94z" />
    <glyph glyph-name="Scircumflex" unicode="&#x15c;" horiz-adv-x="1148" 
d="M124 375q51 51 122 51q51 0 99 -34q93 -67 194 -67q58 0 97 29q39 30 39 76q0 51 -31 83q-35 36 -125 70q-195 74 -287 178q-98 110 -98 271q0 166 120 277q125 115 326 115q192 0 331 -88q37 -23 60 -59q25 -39 25 -80q0 -64 -46 -110q-45 -47 -109 -47q-45 0 -86 24
q-59 32 -113 32q-107 0 -107 -73q0 -40 40 -70q42 -32 161 -79q345 -137 345 -456q0 -199 -132 -318q-136 -124 -372 -124q-216 0 -391 104q-113 68 -113 172q0 71 51 123zM285 1726l231 184q21 18 50 18q26 0 48 -17l233 -185q27 -21 43 -44q20 -29 20 -59q0 -44 -32 -77
q-33 -32 -77 -32q-40 0 -73 26l-162 127l-157 -123q-37 -30 -78 -30q-44 0 -76 32q-32 33 -32 77q0 54 62 103z" />
    <glyph glyph-name="scircumflex" unicode="&#x15d;" horiz-adv-x="843" 
d="M90 263q38 39 92 39q22 0 46 -9q15 -6 43 -20q55 -30 86 -30q70 0 70 53q0 28 -16 48q-18 22 -67 44q-242 109 -242 295q0 123 92 200t244 77q43 0 87 -6q56 -8 99 -24q115 -43 115 -132q0 -52 -35 -86q-34 -34 -85 -34q-20 0 -55 14t-53 14q-56 0 -56 -34q0 -18 21 -35
q24 -18 88 -48q216 -98 216 -296q0 -139 -92 -226q-98 -91 -269 -91q-140 0 -246 48q-121 54 -121 145q0 55 38 94zM131 1278l231 184q21 18 50 18q26 0 48 -17l233 -185q27 -21 43 -44q20 -29 20 -59q0 -44 -32 -77q-33 -32 -77 -32q-40 0 -73 26l-162 127l-157 -123
q-37 -30 -78 -30q-44 0 -76 32q-32 33 -32 77q0 54 62 103z" />
    <glyph glyph-name="Scedilla" unicode="&#x15e;" horiz-adv-x="1148" 
d="M453 -137l55 117q-167 13 -290 79q-145 77 -145 193q0 71 51 123q51 51 122 51q51 0 99 -34q93 -67 194 -67q61 0 99 29q37 29 37 76q0 49 -31 82q-36 37 -125 71q-195 74 -287 178q-98 110 -98 271q0 168 120 278q124 114 326 114q158 0 300 -70q116 -57 116 -157
q0 -64 -46 -110q-45 -47 -109 -47q-45 0 -86 24q-59 32 -113 32q-105 0 -105 -73q0 -40 40 -71q43 -32 159 -78q345 -137 345 -456q0 -168 -95 -281q-97 -115 -272 -148l-39 -83q127 -41 127 -174q0 -89 -69 -147q-71 -60 -183 -60q-84 0 -134 22q-63 27 -63 85q0 34 25 59
t60 25q12 0 36 -6q25 -7 36 -7q54 0 54 42q0 47 -79 53q-38 3 -38 39q0 14 6 26z" />
    <glyph glyph-name="scedilla" unicode="&#x15f;" horiz-adv-x="843" 
d="M290 -94q7 15 20 41l10 19q6 10 9 17q-115 14 -189 58q-88 51 -88 128q0 55 38 94t92 39q22 0 46 -9q15 -6 43 -20q55 -30 86 -30q70 0 70 53q0 28 -16 48q-18 22 -67 44q-242 109 -242 295q0 123 92 200q93 77 244 77q43 0 88 -7q56 -8 99 -24q114 -43 114 -131
q0 -52 -35 -86q-34 -34 -85 -34q-20 0 -55 14t-53 14q-56 0 -56 -34q0 -18 21 -35q24 -18 88 -48q216 -98 216 -296q0 -113 -63 -194q-65 -83 -183 -110l-39 -83q127 -41 127 -174q0 -88 -68 -147q-70 -61 -180 -61q-85 0 -136 22q-65 27 -65 86q0 35 25 60q24 24 60 24
q12 0 36 -6q25 -7 36 -7q54 0 54 42q0 47 -79 53q-38 3 -38 39q0 21 23 69z" />
    <glyph glyph-name="Scaron" unicode="&#x160;" horiz-adv-x="1148" 
d="M124 375q51 51 122 51q51 0 99 -34q93 -67 194 -67q58 0 97 29q39 30 39 76q0 51 -31 83q-35 36 -125 70q-195 74 -287 178q-98 110 -98 271q0 166 120 277q125 115 326 115q192 0 331 -88q37 -23 60 -59q25 -39 25 -80q0 -64 -46 -110q-45 -47 -109 -47q-45 0 -86 24
q-59 32 -113 32q-107 0 -107 -73q0 -40 40 -70q42 -32 161 -79q345 -137 345 -456q0 -199 -132 -318q-136 -124 -372 -124q-216 0 -391 104q-113 68 -113 172q0 71 51 123zM255 1863q32 32 76 32q40 0 78 -30l157 -123l162 127q33 26 73 26q44 0 77 -32q32 -33 32 -77
q0 -30 -20 -59q-16 -24 -43 -45l-233 -184q-22 -17 -48 -17q-29 0 -50 18l-231 183q-62 48 -62 104q0 44 32 77z" />
    <glyph glyph-name="scaron" unicode="&#x161;" horiz-adv-x="843" 
d="M90 263q38 39 92 39q22 0 46 -9q15 -6 43 -20q55 -30 86 -30q70 0 70 53q0 28 -16 48q-18 22 -67 44q-242 109 -242 295q0 123 92 200t244 77q43 0 87 -6q56 -8 99 -24q115 -43 115 -132q0 -52 -35 -86q-34 -34 -85 -34q-20 0 -55 14t-53 14q-56 0 -56 -34q0 -18 21 -35
q24 -18 88 -48q216 -98 216 -296q0 -139 -92 -226q-98 -91 -269 -91q-140 0 -246 48q-121 54 -121 145q0 55 38 94zM105 1415q32 32 76 32q40 0 78 -30l157 -123l162 127q33 26 73 26q44 0 77 -32q32 -33 32 -77q0 -30 -20 -59q-16 -24 -43 -45l-233 -184q-22 -17 -48 -17
q-29 0 -50 18l-231 183q-62 48 -62 104q0 44 32 77z" />
    <glyph glyph-name="uni0162" unicode="&#x162;" horiz-adv-x="1106" 
d="M397 -135l29 62l29 61q-105 56 -105 201v857h-150q-74 0 -125 51t-51 125q0 76 51 127t125 51h706q74 0 125 -51t51 -127q0 -74 -51 -125t-125 -51h-150v-857q0 -135 -96 -196l-41 -85q127 -41 127 -174q0 -88 -68 -147q-70 -61 -180 -61q-85 0 -136 22q-65 27 -65 86
q0 35 25 60q24 24 60 24q12 0 36 -6q25 -7 36 -7q54 0 54 42q0 47 -79 53q-38 3 -38 39q0 14 6 26z" />
    <glyph glyph-name="uni0163" unicode="&#x163;" horiz-adv-x="795" 
d="M224 -137l60 126q-84 51 -84 153v512h-28q-58 0 -100 41q-41 42 -41 100q0 57 42 99q41 42 99 42h28v122q0 74 53 126q53 53 126 53q74 0 127 -52q52 -53 52 -127v-122h81q59 0 100 -41t41 -100q0 -58 -41 -100q-41 -41 -100 -41h-81v-512q0 -85 -66 -139
q-21 -42 -46 -97q127 -41 127 -174q0 -88 -68 -147q-70 -61 -180 -61q-83 0 -134 21q-67 27 -67 87q0 35 25 60q24 24 60 24q12 0 36 -6l18 -5q10 -2 18 -2q54 0 54 42q0 47 -79 53q-38 3 -38 39q0 14 6 26z" />
    <glyph glyph-name="Tcaron" unicode="&#x164;" horiz-adv-x="1106" 
d="M350 1046h-150q-71 0 -123 52q-53 52 -53 124q0 76 51 127t125 51h706q70 0 123 -53t53 -125q0 -74 -51 -125t-125 -51h-150v-867q0 -84 -59 -143q-60 -60 -144 -60t-143 60q-60 59 -60 143v867zM242 1863q32 32 76 32q40 0 78 -30l157 -123l162 127q33 26 73 26
q44 0 77 -32q32 -33 32 -77q0 -30 -20 -59q-16 -24 -43 -45l-233 -184q-22 -17 -48 -17q-29 0 -50 18l-231 183q-62 48 -62 104q0 44 32 77z" />
    <glyph glyph-name="tcaron" unicode="&#x165;" horiz-adv-x="1253" 
d="M200 654h-28q-58 0 -100 41q-41 42 -41 100q0 59 41 100q42 41 100 41h28v109q0 74 52 127q53 52 127 52t127 -52q52 -53 52 -127v-109h81q59 0 100 -41t41 -100q0 -58 -41 -100q-41 -41 -100 -41h-81v-499q0 -74 -52 -127q-53 -52 -127 -52t-127 52q-52 53 -52 127v499z
M805 1093l67 301q11 47 52 78q42 31 100 31q65 0 111 -42q45 -42 45 -103q0 -24 -9 -47l-120 -295q-14 -36 -47 -58q-34 -22 -76 -22q-54 0 -91 36q-38 36 -38 86q0 11 6 35z" />
    <glyph glyph-name="Tbar" unicode="&#x166;" horiz-adv-x="1106" 
d="M163 736q29 30 70 30h117v280h-150q-74 0 -125 51t-51 125q0 76 51 127t125 51h706q74 0 125 -51t51 -127q0 -74 -51 -125t-125 -51h-150v-280h117q38 0 69 -30q30 -31 30 -70q0 -41 -29 -71q-29 -29 -70 -29h-117v-404q0 -87 -58 -143q-57 -56 -145 -56q-89 0 -146 56
q-57 55 -57 143v404h-117q-39 0 -69 30t-30 70q0 41 29 70z" />
    <glyph glyph-name="tbar" unicode="&#x167;" horiz-adv-x="795" 
d="M96 492q29 30 70 30h34v132h-28q-58 0 -100 41q-41 42 -41 100t42 99q41 42 99 42h28v122q0 74 52 127q53 52 127 52t127 -52q52 -53 52 -127v-122h81q58 0 99 -42q40 -41 40 -99q0 -66 -39 -104q-37 -37 -98 -37h-83v-132h85q41 0 70 -30q29 -29 29 -70q0 -44 -28 -72
t-68 -28h-88v-178q0 -74 -47 -126q-50 -55 -132 -55t-132 55q-47 51 -47 126v178h-34q-41 0 -70 29q-29 30 -29 71t29 70z" />
    <glyph glyph-name="Utilde" unicode="&#x168;" horiz-adv-x="1376" 
d="M298 123q-172 157 -172 411v684q0 89 49 144q54 62 154 62t155 -62q48 -55 48 -141v-710q0 -76 41 -127q43 -54 115 -54t114 48t42 133v710q0 85 50 141q55 62 153 62q99 0 154 -62q49 -56 49 -144v-684q0 -254 -171 -411q-160 -147 -391 -147t-390 147zM401 1797
q65 69 155 69q79 0 162 -67q48 -38 79 -38q28 0 45 35q29 62 94 62q41 0 70 -30q30 -29 30 -70q0 -75 -57 -139q-64 -73 -158 -73q-79 0 -162 67q-47 38 -79 38q-27 0 -46 -37q-30 -62 -94 -62q-40 0 -70 30t-30 70q0 79 61 145z" />
    <glyph glyph-name="utilde" unicode="&#x169;" horiz-adv-x="1162" 
d="M1052 145q0 -70 -52 -120q-53 -49 -127 -49q-69 0 -119 38t-60 99q-42 -60 -114 -98q-77 -39 -162 -39q-138 0 -221 92q-87 96 -87 266v447q0 74 52 127q53 52 127 52t127 -52q52 -53 52 -127v-378q0 -52 32 -86t81 -34q47 0 79 32t34 82v384q0 74 52 127q53 52 127 52
t127 -52q52 -53 52 -127v-636zM294 1349q65 69 155 69q79 0 162 -67q48 -38 79 -38q28 0 45 35q29 62 94 62q41 0 70 -30q30 -29 30 -70q0 -75 -57 -139q-64 -73 -158 -73q-79 0 -162 67q-47 38 -79 38q-27 0 -46 -37q-30 -62 -94 -62q-40 0 -70 30t-30 70q0 79 61 145z" />
    <glyph glyph-name="Umacron" unicode="&#x16a;" horiz-adv-x="1376" 
d="M298 123q-172 157 -172 411v684q0 89 49 144q54 62 154 62t155 -62q48 -55 48 -141v-710q0 -76 41 -127q43 -54 115 -54t114 48t42 133v710q0 85 50 141q55 62 153 62q99 0 154 -62q49 -56 49 -144v-684q0 -254 -171 -411q-160 -147 -391 -147t-390 147zM407 1788
q33 33 81 33h400q48 0 82 -33q33 -34 33 -82t-33 -81q-34 -34 -82 -34h-400q-48 0 -81 34q-34 33 -34 81t34 82z" />
    <glyph glyph-name="umacron" unicode="&#x16b;" horiz-adv-x="1162" 
d="M1052 145q0 -70 -52 -120q-53 -49 -127 -49q-69 0 -119 38t-60 99q-42 -60 -114 -98q-77 -39 -162 -39q-138 0 -221 92q-87 96 -87 266v447q0 74 52 127q53 52 127 52t127 -52q52 -53 52 -127v-378q0 -52 32 -86t81 -34q47 0 79 32t34 82v384q0 74 52 127q53 52 127 52
t127 -52q52 -53 52 -127v-636zM300 1340q33 33 81 33h400q48 0 82 -33q33 -34 33 -82t-33 -81q-34 -34 -82 -34h-400q-48 0 -81 34q-34 33 -34 81t34 82z" />
    <glyph glyph-name="Ubreve" unicode="&#x16c;" horiz-adv-x="1376" 
d="M298 123q-172 157 -172 411v684q0 89 49 144q54 62 154 62t155 -62q48 -55 48 -141v-710q0 -76 41 -127q43 -54 115 -54t114 48t42 133v710q0 85 50 141q55 62 153 62q99 0 154 -62q49 -56 49 -144v-684q0 -254 -171 -411q-160 -147 -391 -147t-390 147zM978 1723
q-36 -82 -112 -131q-79 -52 -178 -52t-178 52q-77 49 -112 131q-12 29 -12 57q0 47 31 80q32 33 78 33q81 0 114 -78q23 -53 79 -53t79 53q32 78 114 78q46 0 78 -33q31 -33 31 -80q0 -28 -12 -57z" />
    <glyph glyph-name="ubreve" unicode="&#x16d;" horiz-adv-x="1162" 
d="M1052 145q0 -70 -52 -120q-53 -49 -127 -49q-69 0 -119 38t-60 99q-42 -60 -114 -98q-77 -39 -162 -39q-138 0 -221 92q-87 96 -87 266v447q0 74 52 127q53 52 127 52t127 -52q52 -53 52 -127v-378q0 -52 32 -86t81 -34q47 0 79 32t34 82v384q0 74 52 127q53 52 127 52
t127 -52q52 -53 52 -127v-636zM871 1273q-36 -82 -112 -131q-79 -52 -178 -52t-178 52q-77 49 -112 131q-12 29 -12 57q0 47 31 80q32 33 78 33q81 0 114 -78q23 -53 79 -53t79 53q32 78 114 78q46 0 78 -33q31 -33 31 -80q0 -28 -12 -57z" />
    <glyph glyph-name="Uring" unicode="&#x16e;" horiz-adv-x="1376" 
d="M298 123q-172 157 -172 411v684q0 89 49 144q54 62 154 62t155 -62q48 -55 48 -141v-710q0 -76 41 -127q43 -54 115 -54t114 48t42 133v710q0 85 50 141q55 62 153 62q99 0 154 -62q49 -56 49 -144v-684q0 -254 -171 -411q-160 -147 -391 -147t-390 147zM527 1865
q67 62 161 62t161 -62q68 -65 68 -159t-68 -158q-67 -63 -161 -63t-161 63q-68 64 -68 158t68 159zM638 1656q20 -21 50 -21t50 21q20 20 20 50t-20 51q-20 20 -50 20t-50 -20q-20 -21 -20 -51t20 -50z" />
    <glyph glyph-name="uring" unicode="&#x16f;" horiz-adv-x="1162" 
d="M1052 145q0 -70 -52 -120q-53 -49 -127 -49q-69 0 -119 38t-60 99q-42 -60 -114 -98q-77 -39 -162 -39q-138 0 -221 92q-87 96 -87 266v447q0 74 52 127q53 52 127 52t127 -52q52 -53 52 -127v-378q0 -52 32 -86t81 -34q47 0 79 32t34 82v384q0 74 52 127q53 52 127 52
t127 -52q52 -53 52 -127v-636zM420 1415q67 62 161 62t161 -62q68 -65 68 -159t-68 -158q-67 -63 -161 -63t-161 63q-68 64 -68 158t68 159zM531 1206q20 -21 50 -21t50 21q20 20 20 50t-20 51q-20 20 -50 20t-50 -20q-20 -21 -20 -51t20 -50z" />
    <glyph glyph-name="Uhungarumlaut" unicode="&#x170;" horiz-adv-x="1376" 
 />
    <glyph glyph-name="uhungarumlaut" unicode="&#x171;" horiz-adv-x="1167" 
 />
    <glyph glyph-name="Uogonek" unicode="&#x172;" horiz-adv-x="1376" 
d="M1250 534q0 -205 -114 -350q-106 -134 -280 -184q-104 -101 -104 -184q0 -56 59 -56q5 0 13 1t12 1q41 0 69 -28q28 -27 28 -67q0 -61 -58 -86q-42 -19 -118 -19q-101 0 -167 59q-66 58 -66 145q0 117 101 213q-211 21 -350 165q-149 154 -149 390v700q0 84 60 144
q59 59 143 59t144 -59q59 -60 59 -144v-723q0 -84 42 -133q42 -48 114 -48t114 49q42 48 42 132v723q0 84 60 144q59 59 143 59t144 -59q59 -60 59 -144v-700z" />
    <glyph glyph-name="uogonek" unicode="&#x173;" horiz-adv-x="1163" 
d="M1052 138q0 -74 -67 -134q-109 -97 -109 -188q0 -56 59 -56h6l7 1q9 1 12 1q41 0 69 -28q28 -27 28 -67q0 -72 -71 -92q-44 -13 -105 -13q-101 0 -167 59q-66 58 -66 145q0 127 122 231q-63 37 -76 116q-42 -60 -114 -98q-77 -39 -162 -39q-138 0 -221 92q-87 96 -87 266
v460q0 74 52 127q53 52 127 52t127 -52q52 -53 52 -127v-391q0 -52 32 -86t81 -34q47 0 79 32t34 82v397q0 74 52 127q53 52 127 52t127 -52q52 -53 52 -127v-656z" />
    <glyph glyph-name="Wcircumflex" unicode="&#x174;" horiz-adv-x="2064" 
d="M147 1370q56 54 135 54q64 0 113 -37q50 -37 70 -99l201 -614l221 641q18 50 55 79q39 30 89 30t90 -30q39 -29 56 -79l221 -641l202 615q20 62 69 98q49 37 113 37q83 0 139 -55q55 -55 55 -136q0 -38 -15 -76l-411 -1076q-41 -105 -147 -105q-109 0 -147 110l-224 650
l-225 -651q-18 -50 -56 -79q-40 -30 -92 -30q-105 0 -144 102l-407 1068q-18 45 -18 89q0 81 57 135zM751 1726l231 184q21 18 50 18q26 0 48 -17l233 -185q27 -21 43 -44q20 -29 20 -59q0 -44 -32 -77q-33 -32 -77 -32q-40 0 -73 26l-162 127l-157 -123q-37 -30 -78 -30
q-44 0 -76 32q-32 33 -32 77q0 54 62 103z" />
    <glyph glyph-name="wcircumflex" unicode="&#x175;" horiz-adv-x="1628" 
d="M530 507l121 301q29 73 61 107q41 45 102 45q60 0 103 -48q30 -34 58 -104l123 -301l131 341q19 50 61 81q43 31 97 31q73 0 121 -51q47 -49 47 -123q0 -40 -15 -72l-277 -597q-31 -67 -61 -98q-42 -43 -101 -43q-61 0 -102 41q-32 32 -59 100l-126 320l-126 -320
q-56 -141 -162 -141q-58 0 -100 42q-29 31 -61 99l-277 597q-16 36 -16 72q0 74 47 123q48 51 122 51q54 0 97 -31q42 -31 61 -81zM533 1278l231 184q21 18 50 18q26 0 48 -17l233 -185q27 -21 43 -44q20 -29 20 -59q0 -44 -32 -77q-33 -32 -77 -32q-40 0 -73 26l-162 127
l-157 -123q-37 -30 -78 -30q-44 0 -76 32q-32 33 -32 77q0 54 62 103z" />
    <glyph glyph-name="Ycircumflex" unicode="&#x176;" horiz-adv-x="1418" 
d="M912 182q0 -206 -203 -206q-84 0 -143 60q-60 59 -60 143v353l-372 604q-27 43 -27 100q0 76 56 132q55 56 133 56q114 0 183 -122l230 -406l232 409q67 119 180 119q81 0 135 -59q52 -57 52 -134q0 -57 -23 -94l-373 -605v-350zM428 1726l231 184q21 18 50 18
q26 0 48 -17l233 -185q27 -21 43 -44q20 -29 20 -59q0 -44 -32 -77q-33 -32 -77 -32q-40 0 -73 26l-162 127l-157 -123q-37 -30 -78 -30q-44 0 -76 32q-32 33 -32 77q0 54 62 103z" />
    <glyph glyph-name="ycircumflex" unicode="&#x177;" horiz-adv-x="1113" 
d="M256 -349l70 189l70 188l-284 644l-13 28q-7 16 -11 29q-11 32 -11 62q0 71 49 120t120 49t116 -47q35 -36 62 -110l138 -377l126 373q54 161 181 161q71 0 121 -49t50 -120q0 -32 -12 -65l-424 -1153q-61 -167 -186 -167q-73 0 -125 53q-51 52 -51 123q0 32 14 69z
M281 1278l231 184q21 18 50 18q26 0 48 -17l233 -185q27 -21 43 -44q20 -29 20 -59q0 -44 -32 -77q-33 -32 -77 -32q-40 0 -73 26l-162 127l-157 -123q-37 -30 -78 -30q-44 0 -76 32q-32 33 -32 77q0 54 62 103z" />
    <glyph glyph-name="Ydieresis" unicode="&#x178;" horiz-adv-x="1418" 
d="M912 182q0 -206 -203 -206q-84 0 -143 60q-60 59 -60 143v353l-372 604q-27 43 -27 100q0 76 56 132q55 56 133 56q114 0 183 -122l230 -406l232 409q67 119 180 119q81 0 135 -59q52 -57 52 -134q0 -57 -23 -94l-373 -605v-350zM403 1808q42 42 102 42t102 -42
q42 -43 42 -102t-42 -102q-42 -42 -102 -42t-102 42q-42 43 -42 102t42 102zM811 1808q42 42 102 42t102 -42q42 -43 42 -102t-42 -102q-42 -42 -102 -42t-102 42q-42 43 -42 102t42 102z" />
    <glyph glyph-name="Zacute" unicode="&#x179;" horiz-adv-x="1200" 
d="M107 237l441 819h-275q-69 0 -120 50q-51 51 -51 121q0 73 50 123q49 50 121 50h691q55 0 99 -41q44 -40 44 -92q0 -46 -27 -94l-454 -829h356q68 0 119 -51q52 -52 52 -120q0 -73 -49 -123q-50 -50 -122 -50h-759q-63 0 -104 40q-42 39 -42 96q0 44 30 101zM804 1700
l-223 -171q-30 -23 -68 -23q-46 0 -78 32t-32 76q0 55 47 92l218 174q37 28 76 28q45 0 79 -34q33 -34 33 -80q0 -56 -52 -94z" />
    <glyph glyph-name="zacute" unicode="&#x17a;" horiz-adv-x="931" 
d="M126 896q40 40 97 40h509q50 0 79 -34q26 -31 26 -77q0 -29 -21 -66l-283 -487h222q56 0 96 -40t40 -96t-40 -96t-96 -40h-580q-50 0 -78 32q-26 29 -26 74q0 34 23 75l272 483h-143q-57 0 -97 40t-40 96t40 96zM663 1252l-223 -171q-30 -23 -68 -23q-46 0 -78 32t-32 76
q0 55 47 92l218 174q37 28 76 28q45 0 79 -34q33 -34 33 -80q0 -56 -52 -94z" />
    <glyph glyph-name="Zdotaccent" unicode="&#x17b;" horiz-adv-x="1200" 
d="M107 237l441 819h-275q-69 0 -120 50q-51 51 -51 121q0 73 50 123q49 50 121 50h691q55 0 99 -41q44 -40 44 -92q0 -46 -27 -94l-454 -829h356q68 0 119 -51q52 -52 52 -120q0 -73 -49 -123q-50 -50 -122 -50h-759q-63 0 -104 40q-42 39 -42 96q0 44 30 101zM498 1808
q42 42 102 42t102 -42q42 -43 42 -102t-42 -102q-42 -42 -102 -42t-102 42q-42 43 -42 102t42 102z" />
    <glyph glyph-name="zdotaccent" unicode="&#x17c;" horiz-adv-x="931" 
d="M126 896q40 40 97 40h509q50 0 79 -34q26 -31 26 -77q0 -29 -21 -66l-283 -487h222q56 0 96 -40t40 -96t-40 -96t-96 -40h-580q-50 0 -78 32q-26 29 -26 74q0 34 23 75l272 483h-143q-57 0 -97 40t-40 96t40 96zM373 1360q42 42 102 42t102 -42q42 -43 42 -102t-42 -102
q-42 -42 -102 -42t-102 42q-42 43 -42 102t42 102z" />
    <glyph glyph-name="Zcaron" unicode="&#x17d;" horiz-adv-x="1200" 
d="M107 237l441 819h-275q-69 0 -120 50q-51 51 -51 121q0 73 50 123q49 50 121 50h691q55 0 99 -41q44 -40 44 -92q0 -46 -27 -94l-454 -829h356q68 0 119 -51q52 -52 52 -120q0 -73 -49 -123q-50 -50 -122 -50h-759q-63 0 -104 40q-42 39 -42 96q0 44 30 101zM288 1863
q32 32 76 32q40 0 78 -30l157 -123l162 127q33 26 73 26q44 0 77 -32q32 -33 32 -77q0 -30 -20 -59q-16 -24 -43 -45l-233 -184q-22 -17 -48 -17q-29 0 -50 18l-231 183q-62 48 -62 104q0 44 32 77z" />
    <glyph glyph-name="zcaron" unicode="&#x17e;" horiz-adv-x="931" 
d="M126 896q40 40 97 40h509q50 0 79 -34q26 -31 26 -77q0 -29 -21 -66l-283 -487h222q56 0 96 -40t40 -96t-40 -96t-96 -40h-580q-50 0 -78 32q-26 29 -26 74q0 34 23 75l272 483h-143q-57 0 -97 40t-40 96t40 96zM163 1415q32 32 76 32q40 0 78 -30l157 -123l162 127
q33 26 73 26q44 0 77 -32q32 -33 32 -77q0 -30 -20 -59q-16 -24 -43 -45l-233 -184q-22 -17 -48 -17q-29 0 -50 18l-231 183q-62 48 -62 104q0 44 32 77z" />
    <glyph glyph-name="longs" unicode="&#x17f;" horiz-adv-x="854" 
d="M67 895q42 41 100 41h33v172q0 193 104 303q103 111 283 111q122 0 220 -49q112 -57 112 -149q0 -57 -40 -97q-39 -40 -97 -40q-24 0 -67 19l-17 7l-16 6q-19 6 -35 6q-50 0 -70 -41q-19 -37 -19 -118v-884q0 -94 -44 -154q-48 -65 -135 -65q-88 0 -136 65
q-43 59 -43 153v473h-33q-58 0 -100 41q-41 42 -41 100q0 59 41 100z" />
    <glyph glyph-name="florin" unicode="&#x192;" horiz-adv-x="884" 
d="M-88 -271q40 40 97 40q38 0 76 -21q25 -15 56 -15q89 0 89 119v802h-33q-58 0 -100 41q-41 42 -41 100q0 57 42 99t99 42h33v172q0 192 104 303t283 111q122 0 220 -49q112 -57 112 -149q0 -57 -40 -97q-39 -40 -97 -40q-24 0 -67 19l-17 7l-16 6q-19 6 -35 6
q-89 0 -89 -119v-170h127q59 0 100 -41t41 -100q0 -58 -41 -100q-41 -41 -100 -41h-127v-804q0 -192 -105 -303q-104 -111 -282 -111q-124 0 -219 49q-109 55 -109 147q0 57 39 97z" />
    <glyph glyph-name="Ohorn" unicode="&#x1a0;" horiz-adv-x="1658" 
d="M1366 1602q33 32 78 32q68 0 100 -64q26 -51 26 -136q0 -174 -147 -282q162 -196 162 -452q0 -311 -226 -521q-219 -203 -530 -203t-530 203q-226 210 -226 521t226 521q219 203 530 203q283 0 496 -175q49 39 49 104q0 60 -28 116q-13 25 -13 55q0 46 33 78zM574 436
q104 -106 257 -106t257 106q105 106 105 264t-105 264q-104 106 -257 106t-257 -106q-105 -106 -105 -264t105 -264z" />
    <glyph glyph-name="ohorn" unicode="&#x1a1;" horiz-adv-x="1177" 
d="M978 948q0 62 -27 116q-13 25 -13 55q0 46 33 78q32 32 77 32q68 0 100 -64q26 -51 26 -136q0 -84 -40 -159q-41 -77 -115 -128q88 -125 88 -274q0 -205 -150 -348q-152 -144 -373 -144t-373 144q-150 143 -150 348t150 348q152 144 373 144q197 0 343 -119q51 37 51 107
zM464 345q50 -49 120 -49t120 49q52 50 52 123t-52 123q-50 49 -120 49t-120 -49q-52 -50 -52 -123t52 -123z" />
    <glyph glyph-name="Uhorn" unicode="&#x1af;" horiz-adv-x="1404" 
d="M298 123q-172 157 -172 411v700q0 84 60 144q59 59 143 59t144 -59q59 -60 59 -144v-723q0 -76 41 -127q43 -54 115 -54t114 48t42 133v723q0 81 60 142t143 61q97 0 158 -77q38 26 53 52t15 66q0 60 -28 116q-12 23 -12 55q0 46 33 78t78 32q68 0 100 -64
q26 -51 26 -136q0 -98 -53 -181q-58 -91 -167 -146v-698q0 -254 -171 -411q-160 -147 -391 -147t-390 147z" />
    <glyph glyph-name="uhorn" unicode="&#x1b0;" horiz-adv-x="1242" 
d="M1014 902q66 46 66 117q0 60 -28 116q-12 23 -12 55q0 44 33 77q34 33 78 33q68 0 100 -64q26 -51 26 -136q0 -98 -52 -182q-60 -95 -173 -147v-633q0 -70 -52 -120q-53 -49 -127 -49q-69 0 -119 40t-60 104q-42 -60 -114 -98q-77 -39 -162 -39q-138 0 -221 92
q-87 96 -87 266v460q0 74 52 127q53 52 127 52t127 -52q52 -53 52 -127v-391q0 -50 33 -85q32 -35 80 -35t80 32q33 32 33 82v397q0 74 52 127q53 52 127 52q88 0 141 -71z" />
    <glyph glyph-name="uni0218" unicode="&#x218;" horiz-adv-x="1148" 
d="M124 375q51 51 122 51q51 0 99 -34q93 -67 194 -67q58 0 97 29q39 30 39 76q0 51 -31 83q-35 36 -125 70q-195 74 -287 178q-98 110 -98 271q0 166 120 277q125 115 326 115q192 0 331 -88q37 -23 60 -59q25 -39 25 -80q0 -64 -46 -110q-45 -47 -109 -47q-45 0 -86 24
q-59 32 -113 32q-107 0 -107 -73q0 -40 40 -70q42 -32 161 -79q345 -137 345 -456q0 -199 -132 -318q-136 -124 -372 -124q-216 0 -391 104q-113 68 -113 172q0 71 51 123zM413 -450l51 222q11 46 43 75q35 30 82 30q53 0 90 -37t37 -89q0 -24 -9 -47l-78 -201
q-36 -92 -111 -92q-46 0 -77 31q-32 31 -32 77q0 13 4 31z" />
    <glyph glyph-name="uni0219" unicode="&#x219;" horiz-adv-x="843" 
d="M90 263q38 39 92 39q22 0 46 -9q15 -6 43 -20q55 -30 86 -30q70 0 70 53q0 28 -16 48q-18 22 -67 44q-242 109 -242 295q0 123 92 200t244 77q43 0 87 -6q56 -8 99 -24q115 -43 115 -132q0 -52 -35 -86q-34 -34 -85 -34q-20 0 -55 14t-53 14q-56 0 -56 -34q0 -18 21 -35
q24 -18 88 -48q216 -98 216 -296q0 -139 -92 -226q-98 -91 -269 -91q-140 0 -246 48q-121 54 -121 145q0 55 38 94zM244 -450l51 222q11 46 43 75q35 30 82 30q53 0 90 -37t37 -89q0 -24 -9 -47l-78 -201q-36 -92 -111 -92q-46 0 -77 31q-32 31 -32 77q0 13 4 31z" />
    <glyph glyph-name="uni021A" unicode="&#x21a;" horiz-adv-x="1106" 
d="M350 1046h-150q-71 0 -123 52q-53 52 -53 124q0 76 51 127t125 51h706q70 0 123 -53t53 -125q0 -74 -51 -125t-125 -51h-150v-867q0 -84 -59 -143q-60 -60 -144 -60t-143 60q-60 59 -60 143v867zM371 -450l51 222q11 46 43 75q35 30 82 30q53 0 90 -37t37 -89
q0 -24 -9 -47l-78 -201q-36 -92 -111 -92q-46 0 -77 31q-32 31 -32 77q0 13 4 31z" />
    <glyph glyph-name="uni021B" unicode="&#x21b;" horiz-adv-x="795" 
d="M200 654h-28q-58 0 -100 41q-41 42 -41 100q0 59 41 100q42 41 100 41h28v109q0 74 52 127q53 52 127 52t127 -52q52 -53 52 -127v-109h81q59 0 100 -41t41 -100q0 -58 -41 -100q-41 -41 -100 -41h-81v-499q0 -74 -52 -127q-53 -52 -127 -52t-127 52q-52 53 -52 127v499z
M197 -450l51 222q11 46 43 75q35 30 82 30q53 0 90 -37t37 -89q0 -24 -9 -47l-78 -201q-36 -92 -111 -92q-46 0 -77 31q-32 31 -32 77q0 13 4 31z" />
    <glyph glyph-name="uni0237" unicode="&#x237;" horiz-adv-x="660" 
d="M-195 -234q45 45 111 45q49 0 89 -29q39 -30 80 -30q111 0 111 139v903q0 74 52 127q53 52 127 52t127 -52q52 -53 52 -127v-912q0 -211 -116 -329q-115 -117 -324 -117q-153 0 -281 87q-74 51 -74 130q0 67 46 113z" />
    <glyph glyph-name="uni02BC" unicode="&#x2bc;" horiz-adv-x="848" 
d="M222 1109l67 301q11 47 52 78q42 31 100 31q65 0 111 -42q45 -42 45 -103q0 -24 -9 -47l-120 -295q-14 -36 -47 -58q-34 -22 -76 -22q-54 0 -91 36q-38 36 -38 86q0 11 6 35z" />
    <glyph glyph-name="circumflex" unicode="&#x2c6;" horiz-adv-x="848" 
d="M143 1318l231 184q21 18 50 18q26 0 48 -17l233 -185q27 -21 43 -44q20 -29 20 -59q0 -44 -32 -77q-33 -32 -77 -32q-40 0 -73 26l-162 127l-157 -123q-37 -30 -78 -30q-44 0 -76 32q-32 33 -32 77q0 54 62 103z" />
    <glyph glyph-name="caron" unicode="&#x2c7;" horiz-adv-x="848" 
d="M113 1455q32 32 76 32q40 0 78 -30l157 -123l162 127q33 26 73 26q44 0 77 -32q32 -33 32 -77q0 -30 -20 -59q-16 -24 -43 -45l-233 -184q-22 -17 -48 -17q-29 0 -50 18l-231 183q-62 48 -62 104q0 44 32 77z" />
    <glyph glyph-name="uni02C9" unicode="&#x2c9;" horiz-adv-x="848" 
d="M143 1380q33 33 81 33h400q48 0 82 -33q33 -34 33 -82t-33 -81q-34 -34 -82 -34h-400q-48 0 -81 34q-34 33 -34 81t34 82z" />
    <glyph glyph-name="breve" unicode="&#x2d8;" horiz-adv-x="848" 
d="M714 1293q-36 -82 -112 -131q-79 -52 -178 -52t-178 52q-77 49 -112 131q-12 29 -12 57q0 47 31 80q32 33 78 33q81 0 114 -78q23 -53 79 -53t79 53q32 78 114 78q46 0 78 -33q31 -33 31 -80q0 -28 -12 -57z" />
    <glyph glyph-name="dotaccent" unicode="&#x2d9;" horiz-adv-x="848" 
d="M322 1400q42 42 102 42t102 -42q42 -43 42 -102t-42 -102q-42 -42 -102 -42t-102 42q-42 43 -42 102t42 102z" />
    <glyph glyph-name="ring" unicode="&#x2da;" horiz-adv-x="848" 
d="M263 1457q67 62 161 62t161 -62q68 -65 68 -159t-68 -158q-67 -63 -161 -63t-161 63q-68 64 -68 158t68 159zM374 1248q20 -21 50 -21t50 21q20 20 20 50t-20 51q-20 20 -50 20t-50 -20q-20 -21 -20 -51t20 -50z" />
    <glyph glyph-name="ogonek" unicode="&#x2db;" horiz-adv-x="848" 
d="M598 37q-145 -125 -145 -221q0 -56 59 -56h6l7 1q9 1 12 1q41 0 69 -28q28 -27 28 -67q0 -72 -71 -92q-44 -13 -105 -13q-101 0 -167 59q-66 58 -66 145q0 73 45 144q46 72 128 127h200z" />
    <glyph glyph-name="tilde" unicode="&#x2dc;" horiz-adv-x="848" 
d="M136 1391q65 69 155 69q79 0 162 -67q48 -38 79 -38q28 0 45 35q29 62 94 62q41 0 70 -30q30 -29 30 -70q0 -75 -57 -139q-64 -73 -158 -73q-79 0 -162 67q-47 38 -79 38q-27 0 -46 -37q-30 -62 -94 -62q-40 0 -70 30t-30 70q0 79 61 145z" />
    <glyph glyph-name="hungarumlaut" unicode="&#x2dd;" horiz-adv-x="848" 
d="M383 1292l-223 -171q-30 -23 -68 -23q-46 0 -78 32t-32 76q0 55 47 92l218 174q37 28 76 28q45 0 79 -34q33 -34 33 -80q0 -56 -52 -94zM804 1292l-223 -171q-30 -23 -68 -23q-46 0 -78 32t-32 76q0 55 47 92l218 174q37 28 76 28q45 0 79 -34q33 -34 33 -80
q0 -56 -52 -94z" />
    <glyph glyph-name="gravecomb" unicode="&#x300;" horiz-adv-x="0" 
d="M-753 1466q33 34 78 34q43 0 76 -28l218 -174q47 -37 47 -92q0 -44 -32 -76t-78 -32q-38 0 -68 23l-223 171q-52 38 -52 94q0 46 34 80z" />
    <glyph glyph-name="acutecomb" unicode="&#x301;" horiz-adv-x="0" 
d="M-273 1292l-223 -171q-30 -23 -68 -23q-46 0 -78 32t-32 76q0 55 47 92l218 174q37 28 76 28q45 0 79 -34q33 -34 33 -80q0 -56 -52 -94z" />
    <glyph glyph-name="uni0302" unicode="&#x302;" horiz-adv-x="0" 
d="M-787 1318l231 184q21 18 50 18q26 0 48 -17l233 -185q27 -21 43 -44q20 -29 20 -59q0 -44 -32 -77q-33 -32 -77 -32q-40 0 -73 26l-162 127l-157 -123q-37 -30 -78 -30q-44 0 -76 32q-32 33 -32 77q0 54 62 103z" />
    <glyph glyph-name="tildecomb" unicode="&#x303;" horiz-adv-x="0" 
d="M-793 1391q65 69 155 69q79 0 162 -67q48 -38 79 -38q28 0 45 35q29 62 94 62q41 0 70 -30q30 -29 30 -70q0 -75 -57 -139q-64 -73 -158 -73q-79 0 -162 67q-47 38 -79 38q-27 0 -46 -37q-30 -62 -94 -62q-40 0 -70 30t-30 70q0 79 61 145z" />
    <glyph glyph-name="uni0304" unicode="&#x304;" horiz-adv-x="0" 
d="M-780 1380q33 33 81 33h400q48 0 82 -33q33 -34 33 -82t-33 -81q-34 -34 -82 -34h-400q-48 0 -81 34q-34 33 -34 81t34 82z" />
    <glyph glyph-name="uni0306" unicode="&#x306;" horiz-adv-x="0" 
d="M-215 1293q-36 -82 -112 -131q-79 -52 -178 -52t-178 52q-77 49 -112 131q-12 29 -12 57q0 47 31 80q32 33 78 33q81 0 114 -78q23 -53 79 -53t79 53q32 78 114 78q46 0 78 -33q31 -33 31 -80q0 -28 -12 -57z" />
    <glyph glyph-name="uni0307" unicode="&#x307;" horiz-adv-x="0" 
d="M-602 1400q42 42 102 42t102 -42q42 -43 42 -102t-42 -102q-42 -42 -102 -42t-102 42q-42 43 -42 102t42 102z" />
    <glyph glyph-name="uni0308" unicode="&#x308;" horiz-adv-x="0" 
d="M-813 1400q42 42 102 42t102 -42q42 -43 42 -102t-42 -102q-42 -42 -102 -42t-102 42q-42 43 -42 102t42 102zM-405 1400q42 42 102 42t102 -42q42 -43 42 -102t-42 -102q-42 -42 -102 -42t-102 42q-42 43 -42 102t42 102z" />
    <glyph glyph-name="hookabovecomb" unicode="&#x309;" horiz-adv-x="0" 
d="M-608 1224q0 31 35 39q71 14 71 57q0 37 -40 37q-17 0 -46 -19q-30 -20 -49 -20q-30 0 -51 21q-21 20 -21 50q0 47 61 85q60 37 134 37q85 0 139 -48q52 -48 52 -118q0 -107 -105 -148v-23q0 -37 -27 -63q-26 -27 -63 -27t-63 27q-27 26 -27 63v50z" />
    <glyph glyph-name="uni030A" unicode="&#x30a;" horiz-adv-x="0" 
d="M-665 1457q67 62 161 62t161 -62q68 -65 68 -159t-68 -158q-67 -63 -161 -63t-161 63q-68 64 -68 158t68 159zM-554 1248q20 -21 50 -21t50 21q20 20 20 50t-20 51q-20 20 -50 20t-50 -20q-20 -21 -20 -51t20 -50z" />
    <glyph glyph-name="uni030C" unicode="&#x30c;" horiz-adv-x="0" 
d="M-817 1455q32 32 76 32q40 0 78 -30l157 -123l162 127q33 26 73 26q44 0 77 -32q32 -33 32 -77q0 -30 -20 -59q-16 -24 -43 -45l-233 -184q-22 -17 -48 -17q-29 0 -50 18l-231 183q-62 48 -62 104q0 44 32 77z" />
    <glyph glyph-name="uni031B" unicode="&#x31b;" horiz-adv-x="0" 
d="M0 570zM-199 761l95 410q13 57 61 94q49 38 110 38q73 0 125 -52q52 -51 52 -124q0 -31 -9 -58l-149 -399q-17 -45 -53 -72q-38 -28 -86 -28q-62 0 -106 42q-46 43 -46 106q0 18 6 43z" />
    <glyph glyph-name="dotbelowcomb" unicode="&#x323;" horiz-adv-x="0" 
d="M-606 -234q42 42 102 42t102 -42q42 -43 42 -102t-42 -102q-42 -42 -102 -42t-102 42q-42 43 -42 102t42 102z" />
    <glyph glyph-name="uni03A9" unicode="&#x3a9;" horiz-adv-x="1624" 
d="M284 1246q206 178 526 178q321 0 527 -177q202 -174 202 -432q0 -154 -79 -284q-72 -119 -196 -194h123q70 0 119 -50q49 -49 49 -119q0 -68 -51 -118t-117 -50h-333q-77 0 -126 57q-46 54 -46 134q0 123 92 201q159 134 159 329q0 147 -94 244q-92 95 -227 95
q-136 0 -229 -94q-94 -97 -94 -245q0 -195 159 -329q92 -78 92 -201q0 -80 -46 -134q-49 -57 -126 -57h-333q-66 0 -117 50t-51 118q0 70 49 119q49 50 119 50h123q-124 75 -196 194q-79 130 -79 284q0 258 201 431z" />
    <glyph glyph-name="pi" unicode="&#x3c0;" horiz-adv-x="1292" 
d="M76 894q42 42 100 42h914q58 0 100 -42q41 -41 41 -99t-41 -100q-41 -41 -100 -41h-85v-279q0 -94 64 -94q7 0 19 2q13 2 19 2q62 0 106 -41q45 -43 45 -105q0 -84 -74 -125q-67 -38 -185 -38q-147 0 -239 99q-87 95 -87 237v342h-83q0 -321 -94 -557q-21 -53 -65 -86
q-47 -35 -105 -35q-72 0 -121 48q-49 49 -49 122q0 31 14 69q78 210 78 439h-72q-58 0 -100 41q-41 42 -41 100t41 99z" />
    <glyph glyph-name="uni0400" unicode="&#x400;" horiz-adv-x="1053" 
d="M126 1242q0 80 62 122q54 36 144 36h493q68 0 114 -47q47 -47 47 -116q0 -67 -47 -114q-46 -47 -114 -47h-293v-185h251q68 0 114 -47q47 -47 47 -116q0 -67 -47 -114q-46 -47 -114 -47h-251v-243h310q68 0 114 -47q47 -47 47 -116q0 -67 -47 -114q-46 -47 -114 -47h-509
q-90 0 -144 35q-63 41 -63 121v1086zM337 1874q33 34 78 34q43 0 76 -28l218 -174q47 -37 47 -92q0 -44 -32 -76t-78 -32q-38 0 -68 23l-223 171q-52 38 -52 94q0 46 34 80z" />
    <glyph glyph-name="uni0401" unicode="&#x401;" horiz-adv-x="1053" 
d="M126 1242q0 80 62 122q54 36 144 36h493q68 0 114 -47q47 -47 47 -116q0 -67 -47 -114q-46 -47 -114 -47h-293v-185h251q68 0 114 -47q47 -47 47 -116q0 -67 -47 -114q-46 -47 -114 -47h-251v-243h310q68 0 114 -47q47 -47 47 -116q0 -67 -47 -114q-46 -47 -114 -47h-509
q-90 0 -144 35q-63 41 -63 121v1086zM229 1808q42 42 102 42t102 -42q42 -43 42 -102t-42 -102q-42 -42 -102 -42t-102 42q-42 43 -42 102t42 102zM637 1808q42 42 102 42t102 -42q42 -43 42 -102t-42 -102q-42 -42 -102 -42t-102 42q-42 43 -42 102t42 102z" />
    <glyph glyph-name="uni0402" unicode="&#x402;" horiz-adv-x="1405" 
d="M848 289q46 25 76 59q37 43 37 88q0 46 -30 75t-79 29q-74 0 -138 -44v-309q0 -94 -55 -152q-57 -59 -149 -59q-85 0 -144 59t-59 144v872h-103q-71 0 -122 51q-52 51 -52 123q0 71 51 123t123 52h656q70 0 122 -52t52 -123q0 -73 -51 -123q-50 -51 -123 -51h-146v-244
q108 68 243 68q171 0 289 -116q122 -121 122 -306q0 -170 -95 -293q-89 -115 -236 -159q-45 -13 -93 -13q-75 0 -124 47q-47 46 -47 113q0 100 75 141z" />
    <glyph glyph-name="uni0403" unicode="&#x403;" horiz-adv-x="981" 
d="M713 1700l-223 -171q-30 -23 -68 -23q-46 0 -78 32t-32 76q0 55 47 92l218 174q37 28 76 28q45 0 79 -34q33 -34 33 -80q0 -56 -52 -94zM126 1140q0 112 42 180q50 80 149 80h462q27 0 50 -14q53 -13 88 -57q36 -46 36 -103q0 -72 -51 -123t-123 -51h-247v-805
q0 -116 -46 -188q-53 -83 -157 -83q-84 0 -143 60q-60 59 -60 143v961z" />
    <glyph glyph-name="uni0404" unicode="&#x404;" horiz-adv-x="1482" 
d="M297 1223q216 201 524 201q279 0 491 -167q75 -58 75 -146q0 -74 -51 -126q-52 -51 -126 -51q-69 0 -125 51q-108 97 -258 97q-111 0 -203 -61q-90 -61 -134 -162h417q66 0 113 -46q46 -47 46 -113t-46 -112q-47 -47 -113 -47h-417q44 -102 134 -162q92 -61 203 -61
q148 0 255 96q58 53 128 53q74 0 126 -51q51 -52 51 -126q0 -88 -76 -147q-214 -167 -490 -167q-308 0 -524 201q-224 208 -224 523t224 523z" />
    <glyph glyph-name="uni0405" unicode="&#x405;" horiz-adv-x="1148" 
d="M124 375q51 51 122 51q51 0 99 -34q93 -67 194 -67q58 0 97 29q39 30 39 76q0 51 -31 83q-35 36 -125 70q-195 74 -287 178q-98 110 -98 271q0 166 120 277q125 115 326 115q192 0 331 -88q37 -23 60 -59q25 -39 25 -80q0 -64 -46 -110q-45 -47 -109 -47q-45 0 -86 24
q-59 32 -113 32q-107 0 -107 -73q0 -40 40 -70q42 -32 161 -79q345 -137 345 -456q0 -199 -132 -318q-136 -124 -372 -124q-216 0 -391 104q-113 68 -113 172q0 71 51 123z" />
    <glyph glyph-name="uni0406" unicode="&#x406;" horiz-adv-x="690" 
d="M142 1221q0 84 60 144q59 59 143 59t144 -59q59 -60 59 -144v-1042q0 -84 -59 -143q-60 -60 -144 -60t-143 60q-60 59 -60 143v1042z" />
    <glyph glyph-name="uni0407" unicode="&#x407;" horiz-adv-x="690" 
d="M142 1221q0 84 60 144q59 59 143 59t144 -59q59 -60 59 -144v-1042q0 -84 -59 -143q-60 -60 -144 -60t-143 60q-60 59 -60 143v1042zM39 1808q42 42 102 42t102 -42q42 -43 42 -102t-42 -102q-42 -42 -102 -42t-102 42q-42 43 -42 102t42 102zM447 1808q42 42 102 42
t102 -42q42 -43 42 -102t-42 -102q-42 -42 -102 -42t-102 42q-42 43 -42 102t42 102z" />
    <glyph glyph-name="uni0408" unicode="&#x408;" horiz-adv-x="1112" 
d="M88 389q50 48 122 48q73 0 130 -60q44 -47 108 -47q60 0 96 41q36 42 36 117v733q0 84 60 144q59 59 143 59t144 -59q59 -60 59 -144v-747q0 -232 -137 -366q-136 -132 -367 -132q-217 0 -381 150q-65 60 -65 139q0 74 52 124z" />
    <glyph glyph-name="uni0409" unicode="&#x409;" horiz-adv-x="1963" 
d="M128 244q5 12 17 35l10 17l9 19q68 144 85 353l40 489q8 105 51 168q51 75 143 75h643q96 0 152 -77q50 -69 50 -172v-197q286 0 447 -134q153 -128 153 -343q0 -208 -144 -338q-154 -139 -419 -139h-234q-106 0 -161 83q-48 72 -48 188v780h-232l-29 -375
q-28 -351 -159 -571q-72 -123 -194 -123q-81 0 -138 50q-60 52 -60 135q0 38 18 77zM1328 314h61q73 0 116 40q47 43 47 123q0 83 -51 125q-47 38 -129 38h-44v-326z" />
    <glyph glyph-name="uni040A" unicode="&#x40a;" horiz-adv-x="1877" 
d="M126 1221q0 79 61 141q62 62 142 62q88 0 147 -62q56 -59 56 -141v-311h304v311q0 86 48 141q54 62 155 62q98 0 154 -64q49 -55 49 -134v-272q286 0 447 -134q153 -128 153 -343q0 -208 -144 -338q-154 -139 -419 -139h-240q-100 0 -155 78q-48 70 -48 177v306h-304
v-377q0 -90 -53 -147q-57 -61 -150 -61q-84 0 -143 60q-60 59 -60 143v1042zM1242 314h61q73 0 116 40q47 43 47 123q0 83 -51 125q-47 38 -129 38h-44v-326z" />
    <glyph glyph-name="uni040B" unicode="&#x40b;" horiz-adv-x="1405" 
d="M307 1051h-104q-73 0 -123 51q-51 50 -51 123t51 124q50 51 123 51h657q73 0 123 -51q51 -51 51 -124t-51 -123q-50 -51 -123 -51h-146v-242q105 66 240 66q173 0 278 -115q106 -117 106 -313v-268q0 -87 -55 -144q-58 -59 -149 -59q-96 0 -152 61q-51 56 -51 144v212
q0 65 -30 100q-29 34 -81 34q-63 0 -106 -31v-309q0 -88 -60 -149q-59 -62 -144 -62q-84 0 -144 61q-59 60 -59 142v872z" />
    <glyph glyph-name="uni040C" unicode="&#x40c;" horiz-adv-x="1385" 
d="M126 1221q0 84 60 144q59 59 143 59t144 -59q59 -60 59 -144v-416l347 514q66 99 171 99q80 0 138 -52q60 -55 60 -136q0 -60 -36 -109l-298 -403l329 -426q38 -49 38 -113q0 -83 -54 -141q-56 -61 -138 -61q-105 0 -169 93l-388 561v-452q0 -84 -59 -143
q-60 -60 -144 -60t-143 60q-60 59 -60 143v1042zM859 1700l-223 -171q-30 -23 -68 -23q-46 0 -78 32t-32 76q0 55 47 92l218 174q37 28 76 28q45 0 79 -34q33 -34 33 -80q0 -56 -52 -94z" />
    <glyph glyph-name="uni040D" unicode="&#x40d;" horiz-adv-x="1471" 
d="M530 1874q33 34 78 34q43 0 76 -28l218 -174q47 -37 47 -92q0 -44 -32 -76t-78 -32q-38 0 -68 23l-223 171q-52 38 -52 94q0 46 34 80zM1345 163q0 -82 -53 -139q-57 -61 -147 -61q-85 0 -144 61q-57 60 -57 144v509l-564 -650q-46 -54 -117 -54q-59 0 -98 40t-39 102
v1121q0 76 55 136q60 65 146 65q85 0 145 -64q55 -60 55 -133v-517l565 651q46 54 117 54q59 0 97 -40q39 -40 39 -103v-1122z" />
    <glyph glyph-name="uni040E" unicode="&#x40e;" horiz-adv-x="1408" 
d="M992 1721q-36 -82 -112 -131q-79 -52 -178 -52t-178 52q-77 49 -112 131q-12 29 -12 57q0 47 31 80q32 33 78 33q81 0 114 -78q23 -53 79 -53t79 53q32 78 114 78q46 0 78 -33q31 -33 31 -80q0 -28 -12 -57zM168 1366q58 58 140 58q122 0 185 -127l210 -400l218 408
q28 53 73 84q50 35 108 35q83 0 141 -59q59 -58 59 -141q0 -48 -21 -90l-573 -1045q-28 -51 -74 -81q-49 -32 -107 -32q-80 0 -139 57q-61 59 -61 143q0 50 22 90l136 241l-348 619q-27 49 -27 100q0 82 58 140z" />
    <glyph glyph-name="uni040F" unicode="&#x40f;" horiz-adv-x="1388" 
d="M856 1213q0 89 60 151q59 60 143 60t144 -59q59 -60 59 -144v-971q0 -112 -46 -177q-52 -73 -157 -73h-162v-83q0 -79 -61 -141q-62 -62 -142 -62q-84 0 -143 60q-60 59 -60 143v83h-162q-106 0 -158 73q-45 64 -45 177v971q0 83 61 144q60 59 142 59q87 0 145 -60
q58 -61 58 -151v-865h324v865z" />
    <glyph glyph-name="uni0410" unicode="&#x410;" horiz-adv-x="1412" 
d="M106 252l428 1013q32 75 67 112q43 45 105 45q107 0 173 -157l429 -1018q7 -18 12 -37q5 -23 5 -43q0 -79 -53 -134q-53 -57 -132 -57q-63 0 -112 35q-48 34 -69 91l-37 99h-433l-36 -95q-21 -55 -70 -91q-52 -39 -112 -39q-77 0 -132 54q-54 55 -54 132q0 41 21 90z
M706 803l-119 -326h238z" />
    <glyph glyph-name="uni0411" unicode="&#x411;" horiz-adv-x="1169" 
d="M126 1202q0 82 58 140t140 58h540q66 0 113 -46q46 -47 46 -113t-46 -112q-47 -46 -113 -46h-332v-169q285 0 441 -127q149 -122 149 -330q0 -200 -144 -324q-153 -133 -419 -133h-224q-35 0 -61 16q-64 15 -105 68q-43 53 -43 121v997zM532 324h51q44 0 68 21
q91 23 91 112q0 65 -43 100q-41 33 -116 33h-51v-266z" />
    <glyph glyph-name="uni0412" unicode="&#x412;" horiz-adv-x="1197" 
d="M126 1242q0 65 45 112q46 46 111 46h276q235 0 366 -106q126 -101 126 -269q0 -182 -147 -280q232 -98 232 -340q0 -183 -140 -290q-153 -115 -441 -115h-272q-65 0 -111 45q-45 46 -45 111v1086zM515 597v-298h50q177 0 177 149t-177 149h-50zM573 875q51 0 88 31
q39 33 39 82q0 51 -33 82q-34 31 -94 31h-58v-226h58z" />
    <glyph glyph-name="uni0413" unicode="&#x413;" horiz-adv-x="981" 
d="M126 1140q0 112 42 180q50 80 149 80h462q27 0 50 -14q53 -13 88 -57q36 -46 36 -103q0 -72 -51 -123t-123 -51h-247v-805q0 -116 -46 -188q-53 -83 -157 -83q-84 0 -143 60q-60 59 -60 143v961z" />
    <glyph glyph-name="uni0414" unicode="&#x414;" horiz-adv-x="1376" 
d="M304 1201q0 22 9 41q14 67 66 112q54 46 123 46h511q84 0 144 -59q59 -60 59 -144v-849q76 -10 103 -79q19 -48 19 -149v-163q0 -103 -50 -169q-56 -74 -153 -74q-84 0 -143 60q-60 59 -60 143v83h-500v-83q0 -24 -9 -45q-14 -68 -68 -112q-55 -46 -126 -46q-24 0 -45 9
q-68 14 -113 68q-45 55 -45 126v291q0 53 29 91q30 39 78 49q162 390 171 853zM825 348v704h-163q-20 -406 -137 -704h300z" />
    <glyph glyph-name="uni0415" unicode="&#x415;" horiz-adv-x="1053" 
d="M126 1242q0 80 62 122q54 36 144 36h493q68 0 114 -47q47 -47 47 -116q0 -67 -47 -114q-46 -47 -114 -47h-293v-185h251q68 0 114 -47q47 -47 47 -116q0 -67 -47 -114q-46 -47 -114 -47h-251v-243h310q68 0 114 -47q47 -47 47 -116q0 -67 -47 -114q-46 -47 -114 -47h-509
q-90 0 -144 35q-63 41 -63 121v1086z" />
    <glyph glyph-name="uni0416" unicode="&#x416;" horiz-adv-x="2054" 
d="M825 626h-1l-351 -545q-63 -105 -178 -105q-85 0 -142 63q-55 61 -55 144q0 62 66 155l269 380l-135 204l-136 205q-28 42 -28 104q0 82 58 135q57 51 139 51q115 0 195 -128l149 -241l149 -242h1v415q0 84 60 144q59 59 143 59t144 -59q59 -60 59 -144v-414l331 530
q52 87 164 87q83 0 137 -61q53 -58 53 -142q0 -35 -18 -73q-7 -16 -18 -34l-20 -31l-120 -182l-119 -183q143 -203 305 -428q33 -47 33 -114q0 -84 -61 -140q-60 -54 -143 -54q-71 0 -126 46q-41 33 -85 103q-177 277 -313 493v-445q0 -84 -59 -143q-60 -60 -144 -60
t-143 60q-60 59 -60 143v447z" />
    <glyph glyph-name="uni0417" unicode="&#x417;" horiz-adv-x="1146" 
d="M141 379q50 48 121 48q51 0 91 -28q106 -76 177 -76q26 0 46 11q45 12 71 42q28 31 28 74q0 60 -42 98t-106 38q-21 0 -36 8q-50 11 -83 51q-32 41 -32 96q0 60 41 105q39 43 98 52q49 5 81 33q33 30 33 75q0 42 -29 69q-28 26 -74 26q-64 0 -117 -59q-41 -46 -111 -46
q-64 0 -109 45q-47 46 -47 111q0 103 132 187q132 85 291 85q189 0 310 -107q114 -101 114 -243q0 -180 -156 -276q113 -50 178 -141q70 -101 70 -235q0 -189 -139 -315q-145 -131 -379 -131q-215 0 -371 111q-102 72 -102 170q0 73 51 122z" />
    <glyph glyph-name="uni0418" unicode="&#x418;" horiz-adv-x="1471" 
d="M1345 163q0 -82 -53 -139q-57 -61 -147 -61q-85 0 -144 61q-57 60 -57 144v509l-564 -650q-46 -54 -117 -54q-59 0 -98 40t-39 102v1121q0 76 55 136q60 65 146 65q85 0 145 -64q55 -60 55 -133v-517l565 651q46 54 117 54q59 0 97 -40q39 -40 39 -103v-1122z" />
    <glyph glyph-name="uni0419" unicode="&#x419;" horiz-adv-x="1471" 
d="M1025 1721q-36 -82 -112 -131q-79 -52 -178 -52t-178 52q-77 49 -112 131q-12 29 -12 57q0 47 31 80q32 33 78 33q81 0 114 -78q23 -53 79 -53t79 53q32 78 114 78q46 0 78 -33q31 -33 31 -80q0 -28 -12 -57zM1345 163q0 -82 -53 -139q-57 -61 -147 -61q-85 0 -144 61
q-57 60 -57 144v509l-564 -650q-46 -54 -117 -54q-59 0 -98 40t-39 102v1121q0 76 55 136q60 65 146 65q85 0 145 -64q55 -60 55 -133v-517l565 651q46 54 117 54q59 0 97 -40q39 -40 39 -103v-1122z" />
    <glyph glyph-name="uni041A" unicode="&#x41a;" horiz-adv-x="1385" 
d="M126 1221q0 84 60 144q59 59 143 59t144 -59q59 -60 59 -144v-416l347 514q66 99 171 99q80 0 138 -52q60 -55 60 -136q0 -60 -36 -109l-298 -403l329 -426q38 -49 38 -113q0 -83 -54 -141q-56 -61 -138 -61q-105 0 -169 93l-388 561v-452q0 -84 -59 -143
q-60 -60 -144 -60t-143 60q-60 59 -60 143v1042z" />
    <glyph glyph-name="uni041B" unicode="&#x41b;" horiz-adv-x="1491" 
d="M959 1051h-269l-29 -375q-26 -337 -154 -562q-76 -132 -199 -132q-81 0 -138 50q-60 52 -60 135q0 50 27 102q93 176 112 399l45 546q4 73 59 129q57 57 130 57h679q79 0 141 -61q62 -62 62 -142v-1011q0 -92 -59 -151q-57 -59 -144 -59q-84 0 -143 60q-60 59 -60 143
v872z" />
    <glyph glyph-name="uni041C" unicode="&#x41c;" horiz-adv-x="2008" 
d="M103 252l321 1056q15 51 55 83q42 33 95 33q50 0 92 -30q40 -30 59 -78l279 -699l279 698q44 109 150 109q54 0 95 -33q41 -32 56 -83l321 -1056q11 -35 11 -64q0 -86 -53 -147q-56 -64 -141 -64q-147 0 -191 162l-147 538l-232 -595q-41 -106 -148 -106q-51 0 -91 30
q-39 28 -58 78l-231 593l-142 -542q-42 -158 -196 -158q-82 0 -139 57t-57 140q0 37 13 78z" />
    <glyph glyph-name="uni041D" unicode="&#x41d;" horiz-adv-x="1389" 
d="M855 556h-324v-377q0 -84 -59 -143q-60 -60 -144 -60t-143 60q-60 59 -60 143v1042q0 84 60 144q59 59 143 59t144 -59q59 -60 59 -144v-311h324v311q0 84 60 144q59 59 143 59t144 -59q59 -60 59 -144v-1042q0 -84 -59 -143q-60 -60 -144 -60t-143 60q-60 59 -60 143
v377z" />
    <glyph glyph-name="uni041E" unicode="&#x41e;" horiz-adv-x="1658" 
d="M299 1221q219 203 530 203t530 -203q226 -210 226 -521t-226 -521q-219 -203 -530 -203t-530 203q-226 210 -226 521t226 521zM574 436q104 -106 257 -106t257 106q105 106 105 264t-105 264q-104 106 -257 106t-257 -106q-105 -106 -105 -264t105 -264z" />
    <glyph glyph-name="uni041F" unicode="&#x41f;" horiz-adv-x="1389" 
d="M857 1052h-325v-873q0 -84 -59 -143q-60 -60 -144 -60t-143 60q-60 59 -60 143v1018q0 84 60 144q59 59 143 59h731q84 0 144 -59q59 -60 59 -144v-1018q0 -84 -59 -143q-60 -60 -144 -60t-143 60q-60 59 -60 143v873z" />
    <glyph glyph-name="uni0420" unicode="&#x420;" horiz-adv-x="1178" 
d="M126 1242q0 65 45 112q46 46 111 46h277q265 0 419 -139q144 -130 144 -338q0 -214 -154 -342q-161 -135 -446 -135v-272q0 -82 -58 -140t-140 -58t-140 58t-58 140v1068zM522 765h61q73 0 116 38q47 41 47 120q0 72 -46 116q-45 42 -117 42h-61v-316z" />
    <glyph glyph-name="uni0421" unicode="&#x421;" horiz-adv-x="1482" 
d="M297 1223q216 201 519 201q288 0 494 -165q77 -62 77 -151q0 -76 -53 -130q-53 -53 -130 -53q-70 0 -137 58q-101 87 -241 87q-146 0 -250 -104q-107 -108 -107 -266t107 -266q104 -104 250 -104q145 0 246 91q61 54 132 54q77 0 130 -53t53 -130q0 -91 -81 -153
q-208 -163 -490 -163q-303 0 -519 201q-224 209 -224 523t224 523z" />
    <glyph glyph-name="uni0422" unicode="&#x422;" horiz-adv-x="1106" 
d="M350 1046h-150q-71 0 -123 52q-53 52 -53 124q0 76 51 127t125 51h706q70 0 123 -53t53 -125q0 -74 -51 -125t-125 -51h-150v-867q0 -84 -59 -143q-60 -60 -144 -60t-143 60q-60 59 -60 143v867z" />
    <glyph glyph-name="uni0423" unicode="&#x423;" horiz-adv-x="1408" 
d="M168 1366q58 58 140 58q122 0 185 -127l210 -400l218 408q28 53 73 84q50 35 108 35q83 0 141 -59q59 -58 59 -141q0 -48 -21 -90l-573 -1045q-28 -51 -74 -81q-49 -32 -107 -32q-80 0 -139 57q-61 59 -61 143q0 50 22 90l136 241l-348 619q-27 49 -27 100q0 82 58 140z
" />
    <glyph glyph-name="uni0424" unicode="&#x424;" horiz-adv-x="1815" 
d="M254 296q-190 150 -190 404q0 253 190 403q176 138 450 146q-1 71 58 122q60 53 145 53q84 0 145 -53q60 -52 59 -122q274 -8 449 -146q191 -150 191 -403q0 -254 -191 -403q-175 -138 -449 -146q0 -71 -59 -123q-60 -52 -145 -52t-144 52t-59 123q-274 7 -450 145z
M516 541q60 -57 155 -57h33v432h-33q-95 0 -155 -57q-62 -60 -62 -159t62 -159zM1299 859q-60 57 -155 57h-33v-432h33q95 0 155 57q62 60 62 159t-62 159z" />
    <glyph glyph-name="uni0425" unicode="&#x425;" horiz-adv-x="1403" 
d="M202 1364q56 55 136 55q117 0 191 -114l172 -267l179 268q37 56 73 81q45 32 111 32q80 0 136 -55q57 -55 57 -134q0 -35 -18 -76q-14 -29 -40 -69l-243 -356l312 -444q34 -50 34 -112q0 -83 -58 -139q-58 -55 -141 -55q-55 0 -109 36q-47 32 -80 81l-213 320l-217 -321
q-79 -116 -186 -116q-84 0 -140 55q-57 55 -57 139q0 64 34 113l312 443l-240 350q-61 89 -61 151q0 79 56 134z" />
    <glyph glyph-name="uni0426" unicode="&#x426;" horiz-adv-x="1423" 
d="M856 1213q0 85 60 148t143 63q82 0 144 -64q59 -61 59 -139v-876q54 -9 89 -48q34 -40 34 -96v-284q0 -79 -61 -141q-62 -62 -142 -62q-84 0 -143 60q-60 59 -60 143v83h-650q-105 0 -158 83q-45 71 -45 187v951q0 79 61 141q62 62 142 62q84 0 144 -63q59 -62 59 -148
v-865h324v865z" />
    <glyph glyph-name="uni0427" unicode="&#x427;" horiz-adv-x="1276" 
d="M744 586q-95 -62 -241 -62q-166 0 -278 110q-121 119 -121 318v282q0 84 60 144q59 59 143 59t144 -59q59 -60 59 -144v-148q0 -110 34 -161q34 -52 110 -52q55 0 90 22v339q0 84 60 144q59 59 143 59t144 -59q59 -60 59 -144v-1068q0 -84 -59 -143q-60 -60 -144 -60
t-143 60q-60 59 -60 143v420z" />
    <glyph glyph-name="uni0428" unicode="&#x428;" horiz-adv-x="1980" 
d="M1448 348v873q0 84 60 144q59 59 143 59t144 -59q59 -60 59 -144v-1018q0 -84 -59 -143q-60 -60 -144 -60h-1323q-84 0 -143 60q-60 59 -60 143v1018q0 84 60 144q59 59 143 59t144 -59q59 -60 59 -144v-873h256v873q0 84 60 144q59 59 143 59t144 -59q59 -60 59 -144
v-873h255z" />
    <glyph glyph-name="uni0429" unicode="&#x429;" horiz-adv-x="2014" 
d="M1193 348h255v873q0 79 61 141q62 62 142 62q84 0 144 -59q59 -60 59 -144v-876q54 -9 88 -48q34 -40 34 -96v-284q0 -79 -61 -141q-62 -62 -142 -62q-84 0 -143 60q-60 59 -60 143v83h-1242q-84 0 -143 60q-60 59 -60 143v1018q0 79 61 141q62 62 142 62q84 0 144 -59
q59 -60 59 -144v-873h256v873q0 79 61 141q62 62 142 62q84 0 144 -59q59 -60 59 -144v-873z" />
    <glyph glyph-name="uni042A" unicode="&#x42a;" horiz-adv-x="1346" 
d="M74 1349q50 51 123 51h316q82 0 140 -58q58 -57 58 -139v-249q286 0 447 -134q153 -128 153 -343q0 -208 -144 -338q-154 -139 -419 -139h-224q-86 0 -147 60q-62 60 -62 145v846h-118q-70 0 -121 51q-53 52 -53 123q0 73 51 124zM711 314h61q73 0 116 40q47 43 47 123
q0 74 -46 119q-45 44 -117 44h-61v-326z" />
    <glyph glyph-name="uni042B" unicode="&#x42b;" horiz-adv-x="1802" 
d="M1264 1221q0 84 60 144q59 59 143 59t144 -59q59 -60 59 -144v-1042q0 -84 -59 -143q-60 -60 -144 -60t-143 60q-60 59 -60 143v1042zM126 1226q0 82 58 140t140 58t140 -58t58 -140v-272q286 0 447 -134q153 -128 153 -343q0 -208 -144 -338q-154 -139 -419 -139h-224
q-81 0 -145 61t-64 144v1021zM522 314h61q75 0 118 41q45 42 45 122t-45 122q-43 41 -118 41h-61v-326z" />
    <glyph glyph-name="uni042C" unicode="&#x42c;" horiz-adv-x="1157" 
d="M126 1226q0 82 58 140t140 58t140 -58t58 -140v-272q286 0 447 -134q153 -128 153 -343q0 -208 -144 -338q-154 -139 -419 -139h-224q-81 0 -145 61t-64 144v1021zM522 314h61q75 0 118 41q45 42 45 122t-45 122q-43 41 -118 41h-61v-326z" />
    <glyph glyph-name="uni042D" unicode="&#x42d;" horiz-adv-x="1482" 
d="M1185 177q-216 -201 -524 -201q-276 0 -490 167q-76 59 -76 147q0 74 51 126q52 51 126 51q70 0 128 -53q107 -96 255 -96q111 0 203 61q90 60 134 162h-417q-66 0 -112 47q-47 46 -47 112t47 113q46 46 112 46h417q-44 101 -134 162q-92 61 -203 61q-150 0 -258 -97
q-56 -51 -125 -51q-74 0 -126 51q-51 52 -51 126q0 88 75 146q212 167 491 167q308 0 524 -201q224 -208 224 -523t-224 -523z" />
    <glyph glyph-name="uni042E" unicode="&#x42e;" horiz-adv-x="2252" 
d="M126 1229q0 84 60 144q59 59 143 59t144 -59q59 -60 59 -144v-347h158q63 242 269 393q204 149 464 149q311 0 530 -203q226 -210 226 -521t-226 -521q-219 -203 -530 -203q-261 0 -464 149q-206 151 -269 393h-158v-347q0 -84 -59 -143q-60 -60 -144 -60t-143 60
q-60 59 -60 143v1058zM1173 443q102 -103 250 -103t250 103q102 104 102 257t-102 257q-102 103 -250 103t-250 -103q-102 -104 -102 -257t102 -257z" />
    <glyph glyph-name="uni042F" unicode="&#x42f;" horiz-adv-x="1272" 
d="M1146 161q0 -82 -58 -140t-140 -58t-140 58t-58 140v313l-309 -436q-55 -78 -154 -78q-81 0 -133 49q-52 50 -52 130q0 57 36 104l245 312q-231 121 -231 383q0 199 142 329q146 133 380 133h253q219 0 219 -158v-1081zM750 1086h-47q-73 0 -117 -41q-46 -43 -46 -122
t47 -122q44 -41 116 -41h47v326z" />
    <glyph glyph-name="uni0430" unicode="&#x430;" horiz-adv-x="1283" 
d="M689 15q-82 -39 -174 -39q-193 0 -321 142q-127 141 -127 350t127 350q128 142 321 142q91 0 174 -39q77 -37 126 -97q12 51 69 88q53 35 110 35q70 0 124 -45q55 -47 55 -113v-647q0 -77 -55 -123q-51 -43 -124 -43q-69 0 -118 38t-61 102q-49 -63 -126 -101zM737 596
q-53 52 -128 52t-127 -52q-53 -52 -53 -128t53 -128q52 -52 127 -52t128 52q52 52 52 128t-52 128z" />
    <glyph glyph-name="uni0431" unicode="&#x431;" horiz-adv-x="1195" 
d="M988 120q-149 -144 -372 -144q-229 0 -376 154q-155 162 -155 439q0 392 179 623q182 236 540 292q18 2 30 2q67 0 112 -47q45 -46 45 -111q0 -59 -40 -101q-39 -41 -99 -50q-299 -48 -369 -294q77 56 203 56q191 0 322 -141q126 -138 126 -330q0 -206 -146 -348z
M731 591q-50 49 -120 49t-120 -49q-52 -50 -52 -123t52 -123q50 -49 120 -49t120 49q52 50 52 123t-52 123z" />
    <glyph glyph-name="uni0432" unicode="&#x432;" horiz-adv-x="1009" 
d="M110 770q0 69 49 118q48 48 118 48h298q147 0 236 -76q80 -68 80 -164q0 -124 -108 -184q82 -26 131 -86q51 -63 51 -148q0 -125 -92 -201q-94 -77 -250 -77h-347q-70 0 -118 49q-48 48 -48 118v603zM545 225q37 0 66 20q31 22 31 57q0 76 -97 76h-110v-153h110zM587 695
q-21 16 -54 16h-98v-125h98q33 0 54 16q23 17 23 47q0 29 -23 46z" />
    <glyph glyph-name="uni0433" unicode="&#x433;" horiz-adv-x="830" 
d="M110 757q0 74 52 127q53 52 127 52h364q55 0 98 -42q43 -43 43 -99q0 -60 -43 -101q-41 -40 -95 -40h-188v-499q0 -74 -52 -127q-53 -52 -127 -52t-127 52q-52 53 -52 127v602z" />
    <glyph glyph-name="uni0434" unicode="&#x434;" horiz-adv-x="1122" 
d="M22 99q0 137 88 153q130 245 136 500q2 77 53 131q52 53 127 53h379q74 0 127 -52q52 -53 52 -127v-505q102 -17 102 -157v-152q0 -72 -53 -125q-53 -54 -126 -54q-74 0 -127 52q-52 53 -52 127v57h-348v-57q0 -72 -53 -125q-53 -54 -126 -54q-74 0 -127 52
q-52 53 -52 127v156zM656 252v432h-92q-16 -228 -110 -432h202z" />
    <glyph glyph-name="uni0435" unicode="&#x435;" horiz-adv-x="1157" 
d="M770 298q55 37 98 37q58 0 101 -41q44 -42 44 -100q0 -93 -131 -157q-124 -61 -285 -61q-232 0 -385 141q-151 141 -151 351q0 207 153 350q152 142 372 142q201 0 351 -134q148 -132 159 -314v-13q0 -49 -33 -81q-33 -31 -84 -31h-551q13 -65 63 -101q48 -36 120 -36
q90 0 159 48zM490 679q-43 -30 -60 -80h332q-17 50 -60 80q-45 31 -106 31t-106 -31z" />
    <glyph glyph-name="uni0436" unicode="&#x436;" horiz-adv-x="1756" 
d="M700 383h-1l-285 -345q-52 -62 -129 -62q-68 0 -115 46q-46 47 -46 115q0 63 53 121l214 232l-166 170q-69 69 -69 139q0 68 46 114q47 47 114 47q74 0 124 -56l259 -299h1v189q0 74 52 127q53 52 127 52t127 -52q52 -53 52 -127v-188l258 298q48 56 124 56q67 0 114 -47
q46 -46 46 -114q0 -66 -42 -110l-193 -199l214 -232q53 -57 53 -121q0 -68 -46 -115q-47 -46 -115 -46q-78 0 -129 62l-284 344v-240q0 -74 -52 -127q-53 -52 -127 -52t-127 52q-52 53 -52 127v241z" />
    <glyph glyph-name="uni0437" unicode="&#x437;" horiz-adv-x="906" 
d="M313 569q30 33 75 34q42 1 69 20q27 18 27 47q0 25 -20 41q-21 16 -55 16q-36 0 -87 -37q-25 -19 -40 -26q-23 -12 -48 -12q-49 0 -84 35t-35 84q0 84 110 139q99 50 226 50q159 0 256 -76q89 -70 89 -167q0 -120 -100 -185q78 -38 121 -104t43 -151q0 -126 -109 -211
q-115 -90 -300 -90q-146 0 -256 51q-123 58 -123 150q0 53 39 92q38 40 92 40q51 0 94 -38q49 -46 117 -46q50 0 78 23q23 19 23 49q0 76 -110 82q-51 6 -85 35q-37 31 -37 77t30 78z" />
    <glyph glyph-name="uni0438" unicode="&#x438;" horiz-adv-x="1195" 
d="M742 431l-432 -425q-35 -35 -84 -35t-82 34q-34 33 -34 82v701q0 71 50 122q50 50 121 50t122 -50q50 -51 50 -122v-283l433 426q34 34 83 34t82 -34q34 -33 34 -82v-701q0 -71 -50 -122q-51 -50 -122 -50t-121 50q-50 51 -50 122v283z" />
    <glyph glyph-name="uni0439" unicode="&#x439;" horiz-adv-x="1195" 
d="M887 1273q-36 -82 -112 -131q-79 -52 -178 -52t-178 52q-77 49 -112 131q-12 29 -12 57q0 47 31 80q32 33 78 33q81 0 114 -78q23 -53 79 -53t79 53q32 78 114 78q46 0 78 -33q31 -33 31 -80q0 -28 -12 -57zM742 431l-432 -425q-35 -35 -84 -35t-82 34q-34 33 -34 82v701
q0 71 50 122q50 50 121 50t122 -50q50 -51 50 -122v-283l433 426q34 34 83 34t82 -34q34 -33 34 -82v-701q0 -71 -50 -122q-51 -50 -122 -50t-121 50q-50 51 -50 122v283z" />
    <glyph glyph-name="uni043A" unicode="&#x43a;" horiz-adv-x="1201" 
d="M110 794q0 74 52 127q53 52 127 52t127 -52q52 -53 52 -127v-189l315 303q52 49 116 49q68 0 115 -47t47 -115t-48 -113l-215 -192l255 -248q54 -52 54 -121q0 -67 -47 -114t-115 -47q-72 0 -127 58l-350 365v-241q0 -74 -52 -127q-53 -52 -127 -52t-127 52
q-52 53 -52 127v652z" />
    <glyph glyph-name="uni043B" unicode="&#x43b;" horiz-adv-x="1207" 
d="M115 238q52 112 62 228l24 298q6 74 56 122q50 50 122 50h539q74 0 127 -52q52 -52 52 -126v-603q0 -74 -52 -127q-53 -52 -127 -52q-71 0 -123 51q-55 53 -55 127v502h-178l-18 -207q-16 -179 -89 -337q-64 -136 -183 -136q-74 0 -126 52q-52 53 -52 127q0 40 21 83z
" />
    <glyph glyph-name="uni043C" unicode="&#x43c;" horiz-adv-x="1474" 
d="M70 199q4 12 9 25l5 11l3 8l254 636q29 74 102 74q71 0 100 -63l194 -413l193 411q31 65 101 65q72 0 103 -75l254 -637l9 -23l9 -22q8 -26 8 -46q0 -72 -44 -122q-46 -52 -117 -52q-54 0 -95 31q-41 29 -59 78l-110 293l-152 -333q-14 -29 -41 -47q-28 -18 -59 -18
q-69 0 -100 65l-153 330l-109 -288q-18 -49 -59 -79q-43 -32 -96 -32q-67 0 -114 47t-47 114q0 28 11 62z" />
    <glyph glyph-name="uni043D" unicode="&#x43d;" horiz-adv-x="1158" 
d="M110 781q0 73 52 126q53 53 127 53t127 -52q52 -53 52 -127v-145h222v145q0 73 52 126q53 53 127 53t127 -52q52 -53 52 -127v-626q0 -72 -53 -125q-53 -54 -126 -54q-74 0 -127 53q-52 53 -52 125v200h-222v-200q0 -72 -52 -125q-53 -53 -127 -53t-127 52
q-52 52 -52 127v626z" />
    <glyph glyph-name="uni043E" unicode="&#x43e;" horiz-adv-x="1168" 
d="M211 816q152 144 373 144t373 -144q150 -143 150 -348t-150 -348q-152 -144 -373 -144t-373 144q-150 143 -150 348t150 348zM464 345q50 -49 120 -49t120 49q52 50 52 123t-52 123q-50 49 -120 49t-120 -49q-52 -50 -52 -123t52 -123z" />
    <glyph glyph-name="uni043F" unicode="&#x43f;" horiz-adv-x="1158" 
d="M110 757q0 71 54 125q53 54 125 54h580q74 0 127 -52q52 -53 52 -127v-602q0 -70 -53 -124q-55 -55 -126 -55q-74 0 -127 54q-52 52 -52 120v504h-222v-504q0 -72 -49 -122q-52 -52 -130 -52q-74 0 -127 52q-52 53 -52 127v602z" />
    <glyph glyph-name="uni0440" unicode="&#x440;" horiz-adv-x="1287" 
d="M594 921q82 39 174 39q193 0 321 -142q127 -141 127 -350t-127 -350q-128 -142 -321 -142q-91 0 -174 39q-77 37 -126 97v-521q0 -70 -54 -124q-54 -55 -125 -55q-69 0 -124 55t-55 124v1200q0 70 52 120q53 49 127 49q71 0 119 -38q48 -37 60 -102q49 63 126 101z
M547 340q52 -52 127 -52t128 52q52 52 52 128t-52 128q-53 52 -128 52t-127 -52q-53 -52 -53 -128t53 -128z" />
    <glyph glyph-name="uni0441" unicode="&#x441;" horiz-adv-x="1040" 
d="M213 817q150 143 360 143q179 0 309 -92q78 -54 78 -141q0 -66 -47 -113q-48 -47 -116 -47q-56 0 -99 34q-53 39 -112 39q-69 0 -118 -48q-51 -50 -51 -124t51 -124q49 -48 118 -48q63 0 112 39q43 34 99 34q68 0 116 -47q47 -47 47 -114q0 -84 -79 -141
q-129 -91 -308 -91q-210 0 -360 143q-152 144 -152 349t152 349z" />
    <glyph glyph-name="uni0442" unicode="&#x442;" horiz-adv-x="958" 
d="M300 654h-123q-56 0 -98 42q-43 42 -43 99q0 59 41 100q42 41 100 41h604q55 0 98 -42q43 -43 43 -99q0 -58 -41 -100q-41 -41 -100 -41h-123v-493q0 -80 -50 -132q-50 -53 -129 -53q-74 0 -127 52q-52 53 -52 127v499z" />
    <glyph glyph-name="uni0443" unicode="&#x443;" horiz-adv-x="1113" 
d="M256 -349l70 189l70 188l-284 644l-13 28q-7 16 -11 29q-11 32 -11 62q0 71 49 120t120 49t116 -47q35 -36 62 -110l138 -377l126 373q54 161 181 161q71 0 121 -49t50 -120q0 -32 -12 -65l-424 -1153q-61 -167 -186 -167q-73 0 -125 53q-51 52 -51 123q0 32 14 69z" />
    <glyph glyph-name="uni0444" unicode="&#x444;" horiz-adv-x="1988" 
d="M1252 340q52 -52 127 -52t128 52q52 52 52 128t-52 128q-53 52 -128 52t-127 -52q-53 -52 -53 -128t53 -128zM737 596q-53 52 -128 52t-127 -52q-53 -52 -53 -128t53 -128q52 -52 127 -52t128 52q52 52 52 128t-52 128zM815 108q-49 -59 -129 -94q-82 -38 -171 -38
q-193 0 -321 142q-127 141 -127 350t127 350q128 142 321 142q89 0 171 -37q80 -36 129 -95v517q0 74 52 127q53 52 127 52t127 -52q52 -53 52 -127v-517q49 59 129 95q82 37 171 37q193 0 321 -142q127 -141 127 -350t-127 -350q-128 -142 -321 -142q-89 0 -171 38
q-80 35 -129 94v-517q0 -74 -52 -127q-53 -52 -127 -52t-127 52q-52 53 -52 127v517z" />
    <glyph glyph-name="uni0445" unicode="&#x445;" horiz-adv-x="1071" 
d="M135 693q-32 43 -32 98q0 70 47 119q48 50 118 50q88 0 156 -98l111 -159l110 159q68 98 157 98q67 0 116 -49q48 -48 48 -115q0 -62 -31 -103l-156 -209l158 -221q47 -67 47 -122q0 -67 -47 -116q-48 -49 -116 -49q-54 0 -96 33q-32 25 -70 81l-120 175l-120 -175
q-79 -114 -166 -114q-72 0 -119 51q-45 49 -45 119q0 50 48 117l159 221z" />
    <glyph glyph-name="uni0446" unicode="&#x446;" horiz-adv-x="1186" 
d="M792 0h-503q-74 0 -127 52q-52 53 -52 127v602q0 74 52 127q53 52 127 52t127 -52q52 -53 52 -127v-499h222v499q0 74 52 127q53 52 127 52t127 -52q52 -53 52 -127v-503q46 -11 74 -44q28 -34 28 -82v-209q0 -74 -52 -127q-53 -52 -127 -52t-127 52q-52 53 -52 127v57z
" />
    <glyph glyph-name="uni0447" unicode="&#x447;" horiz-adv-x="1127" 
d="M659 287q-83 -49 -208 -49q-152 0 -252 97q-109 106 -109 291v155q0 74 52 127q53 52 127 52t127 -52q52 -53 52 -127v-101q0 -84 31 -122q32 -39 101 -39q47 0 79 16v246q0 74 52 127q53 52 127 52t127 -52q52 -53 52 -127v-626q0 -74 -52 -127q-53 -52 -127 -52
t-127 52q-52 53 -52 127v132z" />
    <glyph glyph-name="uni0448" unicode="&#x448;" horiz-adv-x="1654" 
d="M110 781q0 71 54 125q53 54 125 54q74 0 127 -52q52 -53 52 -127v-499h180v499q0 71 54 125q53 54 125 54q74 0 127 -52q52 -53 52 -127v-499h180v499q0 71 54 125q53 54 125 54q74 0 127 -52q52 -53 52 -127v-602q0 -70 -53 -124q-55 -55 -126 -55h-1076q-70 0 -124 53
q-55 54 -55 126v602z" />
    <glyph glyph-name="uni0449" unicode="&#x449;" horiz-adv-x="1682" 
d="M1544 278q46 -11 74 -44q28 -34 28 -82v-209q0 -74 -52 -127q-53 -52 -127 -52t-127 52q-52 53 -52 127v57h-999q-74 0 -127 52q-52 53 -52 127v602q0 74 52 127q53 52 127 52t127 -52q52 -53 52 -127v-499h180v499q0 74 52 127q53 52 127 52t127 -52q52 -53 52 -127
v-499h180v499q0 74 52 127q53 52 127 52t127 -52q52 -53 52 -127v-503z" />
    <glyph glyph-name="uni044A" unicode="&#x44a;" horiz-adv-x="1165" 
d="M74 894q42 42 100 42h265q71 0 122 -50q50 -51 50 -122v-81h103q195 0 310 -98q111 -94 111 -244q0 -147 -117 -243q-118 -98 -304 -98h-273q-72 0 -123 51t-51 123v480h-93q-58 0 -100 41q-41 42 -41 100t41 99zM611 246h71q52 0 83 27q30 26 30 68q0 45 -30 71
q-30 25 -83 25h-71v-191z" />
    <glyph glyph-name="uni044B" unicode="&#x44b;" horiz-adv-x="1555" 
d="M1087 781q0 74 52 127q53 52 127 52t127 -52q52 -53 52 -127v-626q0 -74 -52 -127q-53 -52 -127 -52t-127 52q-52 53 -52 127v626zM110 788q0 71 50 122q51 50 122 50t122 -50q50 -51 50 -122v-105h103q195 0 310 -98q111 -94 111 -244q0 -147 -117 -243
q-118 -98 -304 -98h-273q-72 0 -123 51t-51 123v614zM454 246h71q43 0 77 27q36 28 36 68q0 45 -30 71q-30 25 -83 25h-71v-191z" />
    <glyph glyph-name="uni044C" unicode="&#x44c;" horiz-adv-x="1008" 
d="M110 788q0 71 50 122q51 50 122 50t122 -50q50 -51 50 -122v-105h103q195 0 310 -98q111 -94 111 -244q0 -147 -117 -243q-118 -98 -304 -98h-273q-72 0 -123 51t-51 123v614zM454 246h71q43 0 77 27q36 28 36 68q0 45 -30 71q-30 25 -83 25h-71v-191z" />
    <glyph glyph-name="uni044D" unicode="&#x44d;" horiz-adv-x="1039" 
d="M331 549q34 33 81 33h217q-55 103 -184 103q-81 0 -143 -46q-48 -35 -93 -35q-56 0 -96 39q-40 40 -40 96q0 98 140 164q121 57 254 57q210 0 360 -143q151 -144 151 -349t-151 -349q-150 -143 -360 -143q-139 0 -260 60q-134 66 -134 161q0 56 40 96q40 39 96 39
q45 0 93 -35q63 -46 143 -46q129 0 184 103h-217q-47 0 -81 33q-33 34 -33 81t33 81z" />
    <glyph glyph-name="uni044E" unicode="&#x44e;" horiz-adv-x="1661" 
d="M110 781q0 71 54 125q53 54 125 54q74 0 127 -52q52 -53 52 -127v-174h107q47 156 182 253q139 100 320 100q221 0 373 -144q150 -143 150 -348t-150 -348q-152 -144 -373 -144q-181 0 -320 99q-136 97 -182 253h-107v-173q0 -70 -53 -124q-55 -55 -126 -55
q-74 0 -127 52q-52 53 -52 127v626zM957 345q50 -49 120 -49t120 49q52 50 52 123t-52 123q-50 49 -120 49t-120 -49q-52 -50 -52 -123t52 -123z" />
    <glyph glyph-name="uni044F" unicode="&#x44f;" horiz-adv-x="1058" 
d="M158 236l134 125q-180 87 -180 267q0 129 99 214q108 94 298 94h268q72 0 123 -51q50 -51 50 -122v-614q0 -71 -50 -122q-51 -51 -123 -51q-71 0 -121 51t-50 122v123l-235 -248q-46 -48 -111 -48q-61 0 -105 44q-44 45 -44 106q0 65 47 110zM606 712h-46q-46 0 -76 -26
q-35 -28 -35 -78q0 -51 35 -80q30 -26 76 -26h46v210z" />
    <glyph glyph-name="uni0450" unicode="&#x450;" horiz-adv-x="1157" 
d="M770 298q55 37 98 37q58 0 101 -41q44 -42 44 -100q0 -93 -131 -157q-124 -61 -285 -61q-232 0 -385 141q-151 141 -151 351q0 207 153 350q152 142 372 142q201 0 351 -134q148 -132 159 -314v-13q0 -49 -33 -81q-33 -31 -84 -31h-551q13 -65 63 -101q48 -36 120 -36
q90 0 159 48zM490 679q-43 -30 -60 -80h332q-17 50 -60 80q-45 31 -106 31t-106 -31zM360 1426q33 34 78 34q43 0 76 -28l218 -174q47 -37 47 -92q0 -44 -32 -76t-78 -32q-38 0 -68 23l-223 171q-52 38 -52 94q0 46 34 80z" />
    <glyph glyph-name="uni0451" unicode="&#x451;" horiz-adv-x="1157" 
d="M770 298q55 37 98 37q58 0 101 -41q44 -42 44 -100q0 -93 -131 -157q-124 -61 -285 -61q-232 0 -385 141q-151 141 -151 351q0 207 153 350q152 142 372 142q201 0 351 -134q148 -132 159 -314v-13q0 -49 -33 -81q-33 -31 -84 -31h-551q13 -65 63 -101q48 -36 120 -36
q90 0 159 48zM490 679q-43 -30 -60 -80h332q-17 50 -60 80q-45 31 -106 31t-106 -31zM264 1360q42 42 102 42t102 -42q42 -43 42 -102t-42 -102q-42 -42 -102 -42t-102 42q-42 43 -42 102t42 102zM672 1360q42 42 102 42t102 -42q42 -43 42 -102t-42 -102q-42 -42 -102 -42
t-102 42q-42 43 -42 102t42 102z" />
    <glyph glyph-name="uni0452" unicode="&#x452;" horiz-adv-x="1189" 
d="M30 1316q30 29 71 29h40q5 75 53 127q51 54 126 54q76 0 124 -54q44 -49 54 -127h213q41 0 71 -29q29 -30 29 -71t-29 -71q-30 -29 -71 -29h-212v-316q44 57 113 92q77 39 166 39q133 0 217 -90q88 -94 88 -250v-758q0 -202 -96 -313q-97 -113 -277 -113q-128 0 -216 46
q-98 51 -98 140q0 59 41 101q41 41 100 41q22 0 59 -13t51 -13q78 0 78 106v689q0 48 -33 84t-80 36q-48 0 -80 -32q-33 -32 -33 -82v-393q0 -82 -43 -129q-47 -52 -136 -52q-74 0 -127 52q-52 53 -52 127v1001h-40q-41 0 -71 29q-29 30 -29 71t29 71z" />
    <glyph glyph-name="uni0453" unicode="&#x453;" horiz-adv-x="830" 
d="M624 1292l-223 -171q-30 -23 -68 -23q-46 0 -78 32t-32 76q0 55 47 92l218 174q37 28 76 28q45 0 79 -34q33 -34 33 -80q0 -56 -52 -94zM110 757q0 74 52 127q53 52 127 52h364q55 0 98 -42q43 -43 43 -99q0 -60 -43 -101q-41 -40 -95 -40h-188v-499q0 -74 -52 -127
q-53 -52 -127 -52t-127 52q-52 53 -52 127v602z" />
    <glyph glyph-name="uni0454" unicode="&#x454;" horiz-adv-x="1039" 
d="M708 387q-34 -33 -81 -33h-217q55 -103 184 -103q80 0 143 46q47 35 93 35q56 0 96 -39q40 -40 40 -96q0 -95 -134 -161q-121 -60 -260 -60q-210 0 -360 143q-151 144 -151 349t151 349q150 143 360 143q133 0 254 -57q140 -66 140 -164q0 -56 -40 -96q-40 -39 -96 -39
q-46 0 -93 35q-62 46 -143 46q-129 0 -184 -103h217q47 0 81 -33q33 -34 33 -81t-33 -81z" />
    <glyph glyph-name="uni0455" unicode="&#x455;" horiz-adv-x="843" 
d="M90 263q38 39 92 39q22 0 46 -9q15 -6 43 -20q55 -30 86 -30q70 0 70 53q0 28 -16 48q-18 22 -67 44q-242 109 -242 295q0 123 92 200t244 77q43 0 87 -6q56 -8 99 -24q115 -43 115 -132q0 -52 -35 -86q-34 -34 -85 -34q-20 0 -55 14t-53 14q-56 0 -56 -34q0 -18 21 -35
q24 -18 88 -48q216 -98 216 -296q0 -139 -92 -226q-98 -91 -269 -91q-140 0 -246 48q-121 54 -121 145q0 55 38 94z" />
    <glyph glyph-name="uni0456" unicode="&#x456;" horiz-adv-x="600" 
d="M161 1431q57 57 139 57t139 -57q58 -58 58 -139t-58 -138q-57 -58 -139 -58t-139 58q-58 57 -58 138t58 139zM121 781q0 74 52 127q53 52 127 52t127 -52q52 -53 52 -127v-626q0 -74 -52 -127q-53 -52 -127 -52t-127 52q-52 53 -52 127v626z" />
    <glyph glyph-name="uni0457" unicode="&#x457;" horiz-adv-x="600" 
d="M-6 1360q42 42 102 42t102 -42q42 -43 42 -102t-42 -102q-42 -42 -102 -42t-102 42q-42 43 -42 102t42 102zM402 1360q42 42 102 42t102 -42q42 -43 42 -102t-42 -102q-42 -42 -102 -42t-102 42q-42 43 -42 102t42 102zM121 781q0 74 52 127q53 52 127 52t127 -52
q52 -53 52 -127v-626q0 -74 -52 -127q-53 -52 -127 -52t-127 52q-52 53 -52 127v626z" />
    <glyph glyph-name="uni0458" unicode="&#x458;" horiz-adv-x="666" 
d="M-199 -233q46 46 111 46q50 0 92 -31q42 -30 81 -30q111 0 111 139v890q0 74 52 127q53 52 127 52t127 -52q52 -53 52 -127v-899q0 -211 -116 -329q-115 -117 -324 -117q-171 0 -283 82q-75 55 -75 136q0 67 45 113zM236 1431q57 57 139 57t139 -57q58 -58 58 -139
t-58 -138q-57 -58 -139 -58t-139 58q-58 57 -58 138t58 139z" />
    <glyph glyph-name="uni0459" unicode="&#x459;" horiz-adv-x="1602" 
d="M115 238q52 112 62 228l24 298q6 74 56 122q50 50 122 50h500q82 0 132 -61q47 -57 47 -142v-50h93q195 0 310 -98q111 -94 111 -244q0 -147 -117 -243q-118 -98 -304 -98h-267q-89 0 -134 67q-39 58 -39 155v434h-159l-18 -207q-16 -179 -89 -337q-64 -136 -183 -136
q-73 0 -121 52q-47 52 -47 127q0 40 21 83zM1058 246h61q55 0 85 27q28 25 28 68q0 45 -30 71q-30 25 -83 25h-61v-191z" />
    <glyph glyph-name="uni045A" unicode="&#x45a;" horiz-adv-x="1554" 
d="M110 781q0 73 50 126q51 53 125 53t124 -52t50 -127v-145h203v145q0 74 50 126q51 53 124 53q74 0 124 -52t50 -127v-98h93q195 0 310 -98q111 -94 111 -244q0 -147 -117 -243q-118 -97 -304 -98l-267 -1q-86 0 -132 64q-42 57 -42 150v141h-203v-200q0 -79 -41 -126
q-46 -52 -133 -52q-78 0 -128 52q-47 51 -47 127v626zM1010 246h61q51 0 82 27q31 26 31 68q0 45 -30 71q-30 25 -83 25h-61v-191z" />
    <glyph glyph-name="uni045B" unicode="&#x45b;" horiz-adv-x="1189" 
d="M30 1316q30 29 71 29h40q5 75 53 127q51 54 126 54q76 0 124 -54q44 -49 54 -127h213q41 0 71 -29q29 -30 29 -71t-29 -71q-30 -29 -71 -29h-212v-316q44 57 113 92q77 39 166 39q133 0 217 -90q88 -94 88 -250v-476q0 -72 -53 -125q-53 -54 -126 -54q-75 0 -127 51
q-52 52 -52 128v389q0 48 -33 84t-80 36q-48 0 -80 -32q-33 -32 -33 -82v-395q0 -72 -53 -125q-53 -54 -126 -54q-90 0 -136 55q-43 50 -43 136v989h-40q-41 0 -71 29q-29 30 -29 71t29 71z" />
    <glyph glyph-name="uni045C" unicode="&#x45c;" horiz-adv-x="1201" 
d="M768 1292l-223 -171q-30 -23 -68 -23q-46 0 -78 32t-32 76q0 55 47 92l218 174q37 28 76 28q45 0 79 -34q33 -34 33 -80q0 -56 -52 -94zM110 794q0 74 52 127q53 52 127 52t127 -52q52 -53 52 -127v-189l315 303q52 49 116 49q68 0 115 -47t47 -115t-48 -113l-215 -192
l255 -248q54 -52 54 -121q0 -67 -47 -114t-115 -47q-72 0 -127 58l-350 365v-241q0 -74 -52 -127q-53 -52 -127 -52t-127 52q-52 53 -52 127v652z" />
    <glyph glyph-name="uni045D" unicode="&#x45d;" horiz-adv-x="1195" 
d="M404 1466q33 34 78 34q43 0 76 -28l218 -174q47 -37 47 -92q0 -44 -32 -76t-78 -32q-38 0 -68 23l-223 171q-52 38 -52 94q0 46 34 80zM742 431l-432 -425q-35 -35 -84 -35t-82 34q-34 33 -34 82v701q0 71 50 122q50 50 121 50t122 -50q50 -51 50 -122v-283l433 426
q34 34 83 34t82 -34q34 -33 34 -82v-701q0 -71 -50 -122q-51 -50 -122 -50t-121 50q-50 51 -50 122v283z" />
    <glyph glyph-name="uni045E" unicode="&#x45e;" horiz-adv-x="1113" 
d="M256 -349l70 189l70 188l-284 644l-13 28q-7 16 -11 29q-11 32 -11 62q0 71 49 120t120 49t116 -47q35 -36 62 -110l138 -377l126 373q54 161 181 161q71 0 121 -49t50 -120q0 -32 -12 -65l-424 -1153q-61 -167 -186 -167q-73 0 -125 53q-51 52 -51 123q0 32 14 69z
M845 1293q-36 -82 -112 -131q-79 -52 -178 -52t-178 52q-77 49 -112 131q-12 29 -12 57q0 47 31 80q32 33 78 33q81 0 114 -78q23 -53 79 -53t79 53q32 78 114 78q46 0 78 -33q31 -33 31 -80q0 -28 -12 -57z" />
    <glyph glyph-name="uni045F" unicode="&#x45f;" horiz-adv-x="1158" 
d="M400 0h-111q-90 0 -137 67q-42 60 -42 158v556q0 73 52 126q53 53 127 53q77 0 129 -54q50 -54 50 -131v-493h222v493q0 79 52 132q51 53 127 53q74 0 127 -52q52 -53 52 -127v-556q0 -98 -42 -158q-48 -67 -137 -67h-111v-67q0 -72 -53 -125q-53 -54 -126 -54
q-74 0 -127 52q-52 53 -52 127v67z" />
    <glyph glyph-name="uni0490" unicode="&#x490;" horiz-adv-x="981" 
d="M126 1214q0 89 71 140q64 46 161 46h182v100q0 81 57 139q58 57 138 57q81 0 139 -57q57 -58 57 -139v-262q0 -90 -71 -141q-64 -45 -160 -45h-168v-873q0 -84 -59 -143q-60 -60 -144 -60t-143 60q-60 59 -60 143v1035z" />
    <glyph glyph-name="uni0491" unicode="&#x491;" horiz-adv-x="830" 
d="M110 762q0 71 51 122q52 52 123 52h150v87q0 68 50 119q50 50 119 50q70 0 119 -50q50 -49 50 -119v-211q0 -76 -57 -119q-52 -39 -134 -39h-113v-453q0 -98 -42 -158q-48 -67 -137 -67q-74 0 -127 52q-52 53 -52 127v607z" />
    <glyph glyph-name="Wgrave" unicode="&#x1e80;" horiz-adv-x="2064" 
d="M147 1370q56 54 135 54q64 0 113 -37q50 -37 70 -99l201 -614l221 641q18 50 55 79q39 30 89 30t90 -30q39 -29 56 -79l221 -641l202 615q20 62 69 98q49 37 113 37q83 0 139 -55q55 -55 55 -136q0 -38 -15 -76l-411 -1076q-41 -105 -147 -105q-109 0 -147 110l-224 650
l-225 -651q-18 -50 -56 -79q-40 -30 -92 -30q-105 0 -144 102l-407 1068q-18 45 -18 89q0 81 57 135zM749 1874q33 34 78 34q43 0 76 -28l218 -174q47 -37 47 -92q0 -44 -32 -76t-78 -32q-38 0 -68 23l-223 171q-52 38 -52 94q0 46 34 80z" />
    <glyph glyph-name="wgrave" unicode="&#x1e81;" horiz-adv-x="1628" 
d="M530 507l121 301q29 73 61 107q41 45 102 45q60 0 103 -48q30 -34 58 -104l123 -301l131 341q19 50 61 81q43 31 97 31q73 0 121 -51q47 -49 47 -123q0 -40 -15 -72l-277 -597q-31 -67 -61 -98q-42 -43 -101 -43q-61 0 -102 41q-32 32 -59 100l-126 320l-126 -320
q-56 -141 -162 -141q-58 0 -100 42q-29 31 -61 99l-277 597q-16 36 -16 72q0 74 47 123q48 51 122 51q54 0 97 -31q42 -31 61 -81zM518 1426q33 34 78 34q43 0 76 -28l218 -174q47 -37 47 -92q0 -44 -32 -76t-78 -32q-38 0 -68 23l-223 171q-52 38 -52 94q0 46 34 80z" />
    <glyph glyph-name="Wacute" unicode="&#x1e82;" horiz-adv-x="2064" 
d="M147 1370q56 54 135 54q64 0 113 -37q50 -37 70 -99l201 -614l221 641q18 50 55 79q39 30 89 30t90 -30q39 -29 56 -79l221 -641l202 615q20 62 69 98q49 37 113 37q83 0 139 -55q55 -55 55 -136q0 -38 -15 -76l-411 -1076q-41 -105 -147 -105q-109 0 -147 110l-224 650
l-225 -651q-18 -50 -56 -79q-40 -30 -92 -30q-105 0 -144 102l-407 1068q-18 45 -18 89q0 81 57 135zM1297 1700l-223 -171q-30 -23 -68 -23q-46 0 -78 32t-32 76q0 55 47 92l218 174q37 28 76 28q45 0 79 -34q33 -34 33 -80q0 -56 -52 -94z" />
    <glyph glyph-name="wacute" unicode="&#x1e83;" horiz-adv-x="1628" 
d="M530 507l121 301q29 73 61 107q41 45 102 45q60 0 103 -48q30 -34 58 -104l123 -301l131 341q19 50 61 81q43 31 97 31q73 0 121 -51q47 -49 47 -123q0 -40 -15 -72l-277 -597q-31 -67 -61 -98q-42 -43 -101 -43q-61 0 -102 41q-32 32 -59 100l-126 320l-126 -320
q-56 -141 -162 -141q-58 0 -100 42q-29 31 -61 99l-277 597q-16 36 -16 72q0 74 47 123q48 51 122 51q54 0 97 -31q42 -31 61 -81zM1092 1252l-223 -171q-30 -23 -68 -23q-46 0 -78 32t-32 76q0 55 47 92l218 174q37 28 76 28q45 0 79 -34q33 -34 33 -80q0 -56 -52 -94z" />
    <glyph glyph-name="Wdieresis" unicode="&#x1e84;" horiz-adv-x="2064" 
d="M147 1370q56 54 135 54q64 0 113 -37q50 -37 70 -99l201 -614l221 641q18 50 55 79q39 30 89 30t90 -30q39 -29 56 -79l221 -641l202 615q20 62 69 98q49 37 113 37q83 0 139 -55q55 -55 55 -136q0 -38 -15 -76l-411 -1076q-41 -105 -147 -105q-109 0 -147 110l-224 650
l-225 -651q-18 -50 -56 -79q-40 -30 -92 -30q-105 0 -144 102l-407 1068q-18 45 -18 89q0 81 57 135zM726 1808q42 42 102 42t102 -42q42 -43 42 -102t-42 -102q-42 -42 -102 -42t-102 42q-42 43 -42 102t42 102zM1134 1808q42 42 102 42t102 -42q42 -43 42 -102t-42 -102
q-42 -42 -102 -42t-102 42q-42 43 -42 102t42 102z" />
    <glyph glyph-name="wdieresis" unicode="&#x1e85;" horiz-adv-x="1628" 
d="M530 507l121 301q29 73 61 107q41 45 102 45q60 0 103 -48q30 -34 58 -104l123 -301l131 341q19 50 61 81q43 31 97 31q73 0 121 -51q47 -49 47 -123q0 -40 -15 -72l-277 -597q-31 -67 -61 -98q-42 -43 -101 -43q-61 0 -102 41q-32 32 -59 100l-126 320l-126 -320
q-56 -141 -162 -141q-58 0 -100 42q-29 31 -61 99l-277 597q-16 36 -16 72q0 74 47 123q48 51 122 51q54 0 97 -31q42 -31 61 -81zM508 1360q42 42 102 42t102 -42q42 -43 42 -102t-42 -102q-42 -42 -102 -42t-102 42q-42 43 -42 102t42 102zM916 1360q42 42 102 42t102 -42
q42 -43 42 -102t-42 -102q-42 -42 -102 -42t-102 42q-42 43 -42 102t42 102z" />
    <glyph glyph-name="uni1E9E" unicode="&#x1e9e;" horiz-adv-x="1317" 
d="M682 889q53 34 53 98q0 46 -27 74q-28 28 -75 28q-51 0 -81 -37q-31 -39 -31 -104v-769q0 -81 -60 -142q-61 -61 -143 -61q-84 0 -143 60q-60 59 -60 143v785q0 207 139 334q139 126 370 126q220 0 357 -110q131 -105 131 -262q0 -93 -47 -168q-44 -70 -123 -112
q140 -41 221 -138q89 -105 89 -258q0 -172 -116 -284q-120 -116 -317 -116q-110 0 -176 38q-79 46 -79 140q0 127 177 170q50 12 80 41q31 29 31 66q0 84 -79 110q-80 26 -116 54q-68 53 -68 137q0 95 93 157z" />
    <glyph glyph-name="uni1EA0" unicode="&#x1ea0;" horiz-adv-x="1412" 
d="M85 0zM106 252l428 1013q32 75 67 112q43 45 105 45q107 0 173 -157l429 -1018q7 -18 12 -37q5 -23 5 -43q0 -79 -53 -134q-53 -57 -132 -57q-63 0 -112 35q-48 34 -69 91l-37 99h-433l-36 -95q-21 -55 -70 -91q-52 -39 -112 -39q-77 0 -132 54q-54 55 -54 132
q0 41 21 90zM706 803l-119 -326h238zM603 -234q42 42 102 42t102 -42q42 -43 42 -102t-42 -102q-42 -42 -102 -42t-102 42q-42 43 -42 102t42 102z" />
    <glyph glyph-name="uni1EA1" unicode="&#x1ea1;" horiz-adv-x="1283" 
d="M67 0zM689 15q-82 -39 -174 -39q-193 0 -321 142q-127 141 -127 350t127 350q128 142 321 142q91 0 174 -39q77 -37 126 -97q12 51 69 88q53 35 110 35q70 0 124 -45q55 -47 55 -113v-647q0 -77 -55 -123q-51 -43 -124 -43q-69 0 -118 38t-61 102q-49 -63 -126 -101z
M737 596q-53 52 -128 52t-127 -52q-53 -52 -53 -128t53 -128q52 -52 127 -52t128 52q52 52 52 128t-52 128zM518 -234q42 42 102 42t102 -42q42 -43 42 -102t-42 -102q-42 -42 -102 -42t-102 42q-42 43 -42 102t42 102z" />
    </font>
</defs>
</svg>
