<?xml version="1.0" standalone="no"?>
<!DOCTYPE svg PUBLIC "-//W3C//DTD SVG 1.1//EN" "http://www.w3.org/Graphics/SVG/1.1/DTD/svg11.dtd" >
<svg xmlns="http://www.w3.org/2000/svg" xmlns:xlink="http://www.w3.org/1999/xlink" version="1.1">
<metadata>
Created by FontForge 20170731 at Thu Oct  1 17:59:26 2015
 By Aleksey,,,
Copyright (c) 2015 by S-Core Co., Ltd.. All rights reserved.
</metadata>
<defs>
<font id="CoreSansGS-75ExtraBold" horiz-adv-x="816" >
  <font-face 
    font-family="Core Sans GS 75 ExtraBold"
    font-weight="700"
    font-stretch="normal"
    units-per-em="2000"
    panose-1="2 15 8 3 3 3 2 2 2 4"
    ascent="1600"
    descent="-400"
    x-height="936"
    cap-height="1400"
    bbox="-848 -588 3310 2320"
    underline-thickness="48"
    underline-position="-462"
    unicode-range="U+001D-FB06"
  />
<missing-glyph horiz-adv-x="1020" 
d="M10 1400h1000v-1400h-1000v1400zM231 1059q18 -19 45 -19q31 0 48 20q23 28 69 52q57 30 115 30q90 0 143 -42q49 -39 49 -98q0 -66 -58 -119q-46 -42 -158 -99q-158 -82 -158 -204q0 -86 53 -137t147 -51q64 0 122 36q26 16 26 50q0 26 -18 44t-44 18q-19 0 -32 -8
q-28 -16 -54 -16q-66 0 -66 58q0 55 114 110q134 62 194 130q68 76 68 186q0 116 -92 192t-234 76q-155 0 -280 -118q-18 -18 -18 -46q0 -26 19 -45zM435 152q27 -28 67 -28q41 0 68 28q28 28 28 68q0 41 -28 68q-27 28 -68 28q-40 0 -67 -28q-27 -27 -27 -68t27 -68z" />
    <glyph glyph-name="uniFB00" unicode="ff" horiz-adv-x="1520" 
d="M202 1086q0 189 100 298q101 108 276 108q157 0 252 -72q56 -42 56 -112q0 -55 -36 -93q-37 -39 -90 -39q-35 0 -84 20q-35 14 -62 14q-96 0 -96 -132v-142h386v180q0 189 100 298q101 108 276 108q166 0 276 -94q52 -45 52 -108q0 -56 -37 -94q-38 -38 -93 -38
q-44 0 -86 28q-34 24 -76 24q-96 0 -96 -132v-172h144q53 0 89 -37q37 -36 37 -89q0 -52 -37 -89q-36 -37 -89 -37h-144v-550q0 -66 -46 -112t-112 -46t-112 46t-46 112v550h-386v-550q0 -66 -46 -112t-112 -46t-112 46t-46 112v550h-44q-52 0 -89 37t-37 89q0 53 37 89
q37 37 89 37h44v150z" />
    <glyph glyph-name="uniFB01" unicode="fi" horiz-adv-x="1328" 
d="M202 1060q0 214 140 341q133 121 346 121q223 0 376 -136q46 -40 46 -102q0 -55 -40 -95q-40 -39 -96 -39q-48 0 -88 30q-79 60 -172 60q-96 0 -147 -54q-49 -52 -49 -142v-108h534q66 0 112 -46t46 -112v-644q0 -66 -46 -112t-112 -46t-112 46t-46 112v550h-376v-550
q0 -66 -46 -112t-112 -46t-112 46t-46 112v550h-44q-52 0 -89 37t-37 89q0 53 37 89q37 37 89 37h44v124z" />
    <glyph glyph-name="uniFB02" unicode="fl" horiz-adv-x="1362" 
d="M518 936h144q53 0 89 -37q37 -36 37 -89q0 -52 -37 -89q-36 -37 -89 -37h-144v-550q0 -66 -46 -112t-112 -46t-112 46t-46 112v550h-44q-52 0 -89 37t-37 89q0 53 37 89q37 37 89 37h44v102q0 226 118 357q115 127 308 127q181 0 304 -116q15 50 52 82q42 36 102 36
q66 0 112 -46t46 -112v-1232q0 -66 -46 -112t-112 -46t-112 46t-46 112v1030q-73 86 -198 86q-98 0 -155 -59t-57 -159v-96z" />
    <glyph glyph-name="uniFB03" unicode="ffi" horiz-adv-x="2030" 
d="M904 1060q0 214 140 341q133 121 346 121q223 0 376 -136q46 -40 46 -102q0 -55 -40 -95q-40 -39 -96 -39q-48 0 -88 30q-79 60 -172 60q-96 0 -147 -54q-49 -52 -49 -142v-108h534q66 0 112 -46t46 -112v-644q0 -66 -46 -112t-112 -46t-112 46t-46 112v550h-376v-550
q0 -66 -46 -112t-112 -46t-112 46t-46 112v550h-386v-550q0 -66 -46 -112t-112 -46t-112 46t-46 112v550h-44q-52 0 -89 37t-37 89q0 53 37 89q37 37 89 37h44v150q0 189 100 298q101 108 276 108q157 0 252 -72q56 -42 56 -112q0 -55 -36 -93q-37 -39 -90 -39q-35 0 -84 20
q-35 14 -62 14q-96 0 -96 -132v-142h386v124z" />
    <glyph glyph-name="uniFB04" unicode="ffl" horiz-adv-x="2064" 
d="M1220 936h144q53 0 89 -37q37 -36 37 -89q0 -52 -37 -89q-36 -37 -89 -37h-144v-550q0 -66 -46 -112t-112 -46t-112 46t-46 112v550h-386v-550q0 -66 -46 -112t-112 -46t-112 46t-46 112v550h-44q-52 0 -89 37t-37 89q0 53 37 89q37 37 89 37h44v150q0 189 100 298
q101 108 276 108q157 0 252 -72q56 -42 56 -112q0 -55 -36 -93q-37 -39 -90 -39q-35 0 -84 20q-35 14 -62 14q-96 0 -96 -132v-142h386v102q0 226 118 357q115 127 308 127q181 0 304 -116q15 50 52 82q42 36 102 36q66 0 112 -46t46 -112v-1232q0 -66 -46 -112t-112 -46
t-112 46t-46 112v1030q-73 86 -198 86q-98 0 -155 -59t-57 -159v-96z" />
    <glyph glyph-name=".notdef" horiz-adv-x="1020" 
d="M10 1400h1000v-1400h-1000v1400zM231 1059q18 -19 45 -19q31 0 48 20q23 28 69 52q57 30 115 30q90 0 143 -42q49 -39 49 -98q0 -66 -58 -119q-46 -42 -158 -99q-158 -82 -158 -204q0 -86 53 -137t147 -51q64 0 122 36q26 16 26 50q0 26 -18 44t-44 18q-19 0 -32 -8
q-28 -16 -54 -16q-66 0 -66 58q0 55 114 110q134 62 194 130q68 76 68 186q0 116 -92 192t-234 76q-155 0 -280 -118q-18 -18 -18 -46q0 -26 19 -45zM435 152q27 -28 67 -28q41 0 68 28q28 28 28 68q0 41 -28 68q-27 28 -68 28q-40 0 -67 -28q-27 -27 -27 -68t27 -68z" />
    <glyph glyph-name=".null" horiz-adv-x="0" 
 />
    <glyph glyph-name="nonmarkingreturn" horiz-adv-x="666" 
 />
    <glyph glyph-name="glyph475" horiz-adv-x="0" 
 />
    <glyph glyph-name="glyph475" horiz-adv-x="0" 
 />
    <glyph glyph-name="uni001D" horiz-adv-x="0" 
 />
    <glyph glyph-name="space" unicode=" " horiz-adv-x="600" 
 />
    <glyph glyph-name="exclam" unicode="!" horiz-adv-x="680" 
d="M476 25q-55 -49 -136 -49t-136 49q-56 50 -56 125t56 125q55 49 136 49t136 -49q56 -50 56 -125t-56 -125zM514 572q0 -72 -51 -123t-123 -51t-123 51t-51 123v678q0 72 51 123t123 51t123 -51t51 -123v-678z" />
    <glyph glyph-name="quotedbl" unicode="&#x22;" horiz-adv-x="1142" 
d="M251 801q-33 34 -38 89l-28 386q-4 60 42 105q45 43 108 43t108 -43q46 -45 42 -105l-28 -386q-4 -55 -38 -89q-33 -33 -84 -33t-84 33zM721 801q-33 34 -38 89l-28 386q-4 60 42 105q45 43 108 43t108 -43q46 -45 42 -105l-28 -386q-4 -55 -38 -89q-33 -33 -84 -33
t-84 33z" />
    <glyph glyph-name="numbersign" unicode="#" horiz-adv-x="1356" 
d="M556 562h244v282h-244v-282zM1072 306v-194q0 -57 -39 -96q-40 -40 -97 -40t-96 40q-40 39 -40 96v194h-244v-194q0 -57 -39 -96q-40 -40 -97 -40t-96 40q-40 39 -40 96v194h-84q-52 0 -90 38t-38 90q0 53 38 90q38 38 90 38h84v282h-84q-52 0 -90 38t-38 90q0 53 38 90
q38 38 90 38h84v188q0 57 40 97q39 39 96 39t97 -39q39 -40 39 -97v-188h244v188q0 57 40 97q39 39 96 39t97 -39q39 -40 39 -97v-188h84q53 0 90 -38q38 -37 38 -90q0 -52 -38 -90q-37 -38 -90 -38h-84v-282h84q53 0 90 -38q38 -37 38 -90q0 -52 -38 -90q-37 -38 -90 -38
h-84z" />
    <glyph glyph-name="dollar" unicode="$" horiz-adv-x="1116" 
d="M133 344q44 46 107 46q46 0 100 -36q96 -64 196 -64q75 0 120 36q44 35 44 92q0 63 -39 104q-41 43 -147 84q-195 77 -282 182q-88 105 -88 262q0 123 72 217q74 96 200 135v78q0 53 37 90q37 38 91 38q52 0 89 -38q37 -37 37 -90v-66q96 -18 186 -66q80 -43 80 -130
q0 -60 -43 -102t-103 -42q-41 0 -82 24q-52 28 -100 28q-116 0 -116 -86q0 -45 42 -79q44 -37 164 -85q350 -141 350 -466q0 -163 -89 -273q-90 -113 -255 -147v-70q0 -53 -37 -90q-37 -38 -89 -38q-54 0 -91 38q-37 37 -37 90v66q-163 27 -298 124q-64 45 -64 124
q0 65 45 110z" />
    <glyph glyph-name="percent" unicode="%" horiz-adv-x="1882" 
d="M702 845q-101 -97 -242 -97t-242 97q-102 99 -102 241t102 241q101 97 242 97t242 -97q102 -99 102 -241t-102 -241zM1180 555q101 97 242 97t242 -97q102 -99 102 -241t-102 -241q-101 -97 -242 -97t-242 97q-102 99 -102 241t102 241zM1342 236q33 -34 80 -34t80 34
q32 32 32 78t-32 79q-33 33 -80 33t-80 -33q-32 -33 -32 -79t32 -78zM540 1165q-33 33 -80 33t-80 -33q-32 -33 -32 -79t32 -78q33 -34 80 -34t80 34q32 32 32 78t-32 79zM1304 1382q29 42 80 42q39 0 70 -29q32 -30 32 -71q0 -30 -16 -52l-894 -1254q-29 -42 -80 -42
q-39 0 -70 29q-32 30 -32 71q0 30 16 52z" />
    <glyph glyph-name="ampersand" unicode="&#x26;" horiz-adv-x="1346" 
d="M1188 80q0 -62 -47 -104q-46 -42 -111 -42q-76 0 -126 70l-36 52q-145 -80 -306 -80q-219 0 -352 114q-130 110 -130 284q0 118 56 213q57 99 184 189q-124 174 -124 314q0 149 109 242q106 92 273 92q157 0 268 -92q114 -96 114 -242q0 -196 -234 -360l218 -282l80 90
q45 48 110 48q62 0 105 -43t43 -105q0 -57 -38 -98q-67 -70 -120 -118l30 -38q34 -48 34 -104zM698 276l-218 288q-46 -42 -61 -89q-11 -33 -11 -91q0 -64 48 -101q46 -35 122 -35q67 0 120 28zM508 1032q17 -42 56 -96q96 76 96 160q0 30 -20 56q-24 28 -60 28
q-40 0 -63 -28q-21 -26 -21 -62q0 -27 12 -58z" />
    <glyph glyph-name="quotesingle" unicode="'" horiz-adv-x="672" 
d="M251 801q-33 34 -38 89l-28 386q-4 60 42 105q45 43 108 43t108 -43q46 -45 42 -105l-28 -386q-4 -55 -38 -89q-33 -33 -84 -33t-84 33z" />
    <glyph glyph-name="parenleft" unicode="(" horiz-adv-x="796" 
d="M384 1432q41 68 118 68q52 0 95 -36q45 -37 45 -88q0 -36 -14 -68q-150 -326 -150 -688t150 -688q14 -31 14 -68q0 -51 -45 -88q-43 -36 -95 -36q-77 0 -118 68q-218 381 -218 812t218 812z" />
    <glyph glyph-name="parenright" unicode=")" horiz-adv-x="796" 
d="M412 -192q-41 -68 -118 -68q-52 0 -95 36q-45 37 -45 88q0 37 14 68q150 326 150 688t-150 688q-14 32 -14 68q0 51 45 88q43 36 95 36q77 0 118 -68q218 -381 218 -812t-218 -812z" />
    <glyph glyph-name="asterisk" unicode="*" horiz-adv-x="1200" 
d="M464 984q-4 20 -4 42q0 54 41 94t99 40t100 -40t42 -94q0 -10 -2 -22l-2 -11l-2 -9l-36 -204l182 96q17 10 38 18q51 19 103 -8q51 -28 69 -84q18 -54 -7 -104q-24 -48 -75 -68q-18 -7 -44 -10l-204 -22l150 -140q8 -8 28 -32q33 -42 23 -100q-11 -59 -57 -92
q-47 -34 -102 -25q-54 8 -88 51q-12 15 -24 38l-92 186l-92 -186q-11 -23 -24 -38q-34 -43 -87 -51q-56 -9 -103 25q-46 33 -57 92q-10 58 23 100q20 24 28 32l150 140l-204 22q-26 3 -44 10q-51 20 -75 68q-25 50 -7 104q18 56 70 84q51 27 102 8q21 -8 38 -18l182 -96z
" />
    <glyph glyph-name="plus" unicode="+" horiz-adv-x="1260" 
d="M784 534v-258q0 -64 -45 -109q-44 -45 -109 -45q-64 0 -109 45t-45 109v258h-242q-54 0 -92 38t-38 92t38 92t92 38h242v258q0 65 45 109q45 45 109 45q65 0 109 -45q45 -44 45 -109v-258h242q54 0 92 -38t38 -92t-38 -92t-92 -38h-242z" />
    <glyph glyph-name="comma" unicode="," horiz-adv-x="628" 
d="M84 -148l94 394q12 48 55 81t95 33q64 0 110 -45q46 -46 46 -109q0 -31 -8 -52l-148 -388q-30 -82 -116 -82q-54 0 -92 34q-42 36 -42 92q0 12 6 42z" />
    <glyph glyph-name="hyphen" unicode="-" horiz-adv-x="812" 
d="M214 534q-54 0 -92 38t-38 92t38 92t92 38h384q54 0 92 -38t38 -92t-38 -92t-92 -38h-384z" />
    <glyph glyph-name="period" unicode="." horiz-adv-x="628" 
d="M180 304q56 56 134 56t134 -56q56 -57 56 -136t-56 -136q-56 -56 -134 -56t-134 56q-56 57 -56 136t56 136z" />
    <glyph glyph-name="slash" unicode="/" horiz-adv-x="1138" 
d="M790 1410q44 88 130 88q60 0 104 -41q44 -42 44 -99q0 -39 -22 -80l-698 -1410q-44 -88 -130 -88q-60 0 -104 42q-44 41 -44 98q0 39 22 80z" />
    <glyph glyph-name="zero" unicode="0" horiz-adv-x="1256" 
d="M1001 178q-133 -202 -373 -202t-373 202q-127 193 -127 522t127 522q133 202 373 202t373 -202q127 -193 127 -522t-127 -522zM517 389q39 -101 111 -101t111 101q41 106 41 311t-41 311q-39 101 -111 101t-111 -101q-41 -106 -41 -311t41 -311z" />
    <glyph glyph-name="one" unicode="1" horiz-adv-x="1256" 
d="M288 1168l414 230q45 26 88 26q41 0 66 -25q26 -26 26 -69v-1180q0 -72 -51 -123t-123 -51t-123 51t-51 123v822l-114 -62q-33 -18 -72 -18q-58 0 -101 43t-43 101q0 87 84 132z" />
    <glyph glyph-name="two" unicode="2" horiz-adv-x="1256" 
d="M592 754q72 98 94 140q28 52 28 100q0 53 -35 87q-36 35 -95 35q-88 0 -144 -94q-47 -76 -136 -76q-63 0 -107 39q-45 39 -45 101q0 30 14 67q12 29 28 55q63 98 167 156q109 60 235 60q214 0 341 -120q125 -117 125 -310q0 -167 -140 -360l-240 -332h282q63 0 108 -44
q44 -45 44 -108t-44 -106q-45 -44 -108 -44h-716q-48 0 -79 29q-29 27 -29 69q0 43 40 96z" />
    <glyph glyph-name="three" unicode="3" horiz-adv-x="1256" 
d="M180 373q43 43 108 43q60 0 126 -66q67 -64 154 -64q85 0 136 49q48 48 48 123q0 93 -63 148q-59 52 -151 54h-10q-57 0 -96 32q-40 33 -40 82q0 45 42 106l152 218h-250q-63 0 -107 44q-45 43 -45 106t45 108q44 44 107 44h634q49 0 79 -26q29 -26 29 -66
q0 -49 -40 -102l-248 -356q146 -52 226 -158q84 -110 84 -262q0 -187 -131 -315q-141 -139 -375 -139q-268 0 -418 180q-40 47 -40 110q0 64 44 107z" />
    <glyph glyph-name="four" unicode="4" horiz-adv-x="1256" 
d="M162 242q-49 0 -79 27q-29 25 -29 65q0 49 40 102l634 912q55 76 146 76q69 0 110 -47q40 -45 40 -113v-710h32q65 0 110 -46q46 -45 46 -110q0 -64 -46 -110q-45 -46 -110 -46h-32v-92q0 -72 -51 -123t-123 -51t-123 51t-51 123v92h-514zM676 554v318l-222 -318h222z
" />
    <glyph glyph-name="five" unicode="5" horiz-adv-x="1256" 
d="M181 365q44 43 109 43q60 0 116 -56q64 -64 162 -64q83 0 132 47q50 48 50 127q0 90 -59 145q-58 53 -149 53q-64 0 -142 -32q-47 -18 -72 -18q-47 0 -73 29q-30 32 -21 89l76 514q24 158 184 158h420q65 0 110 -46q46 -45 46 -110q0 -64 -46 -110q-45 -46 -110 -46h-280
l-32 -190q199 0 341 -116q155 -127 155 -332q0 -204 -130 -334q-140 -140 -380 -140q-254 0 -414 178q-38 41 -38 104t45 107z" />
    <glyph glyph-name="six" unicode="6" horiz-adv-x="1256" 
d="M586 1344q55 80 138 80q67 0 117 -46q53 -49 53 -120q0 -47 -32 -96l-172 -262q176 -10 309 -129q143 -129 143 -313q0 -209 -151 -347q-146 -135 -355 -135q-214 0 -365 135q-157 140 -157 351q0 170 116 338zM750 576q-52 50 -122 50t-121 -50q-53 -52 -53 -124
t53 -124q51 -50 121 -50t122 50q52 52 52 124t-52 124z" />
    <glyph glyph-name="seven" unicode="7" horiz-adv-x="1256" 
d="M668 102q-50 -126 -168 -126q-74 0 -122 45q-50 45 -50 119q0 42 20 90l360 858h-402q-64 0 -110 46t-46 110q0 65 46 110q46 46 110 46h724q48 0 80 -26t32 -66q0 -44 -28 -112z" />
    <glyph glyph-name="eight" unicode="8" horiz-adv-x="1256" 
d="M252 107q-146 129 -146 323q0 119 61 214q57 92 159 144q-57 42 -92 110q-36 71 -36 150q0 162 121 268q121 108 309 108t310 -108q120 -106 120 -268q0 -79 -36 -150q-35 -68 -92 -110q102 -50 160 -143q60 -95 60 -215q0 -194 -146 -323q-149 -131 -376 -131t-376 131z
M505 580q-51 -51 -51 -122t51 -122q51 -52 123 -52t123 52q51 51 51 122t-51 122q-51 52 -123 52t-123 -52zM714 934q36 37 36 86q0 50 -36 86t-86 36q-49 0 -86 -36q-36 -36 -36 -86q0 -49 36 -86q37 -36 86 -36q50 0 86 36z" />
    <glyph glyph-name="nine" unicode="9" horiz-adv-x="1256" 
d="M670 56q-55 -80 -138 -80q-67 0 -117 46q-53 49 -53 120q0 47 32 96l172 262q-176 10 -308 129q-144 129 -144 313q0 209 151 348q146 134 355 134q214 0 365 -135q157 -140 157 -351q0 -170 -116 -338zM507 824q51 -50 121 -50t122 50q52 52 52 124t-52 124
q-52 50 -122 50t-121 -50q-53 -52 -53 -124t53 -124z" />
    <glyph glyph-name="colon" unicode=":" horiz-adv-x="628" 
d="M180 304q56 56 134 56t134 -56q56 -57 56 -136t-56 -136q-56 -56 -134 -56t-134 56q-56 57 -56 136t56 136zM180 1008q56 56 134 56t134 -56q56 -57 56 -136t-56 -136q-56 -56 -134 -56t-134 56q-56 57 -56 136t56 136z" />
    <glyph glyph-name="semicolon" unicode=";" horiz-adv-x="628" 
d="M180 1008q56 56 134 56t134 -56q56 -57 56 -136t-56 -136q-56 -56 -134 -56t-134 56q-56 57 -56 136t56 136zM50 -148l94 394q12 48 55 81t95 33q64 0 110 -45q46 -46 46 -109q0 -31 -8 -52l-148 -388q-30 -82 -116 -82q-54 0 -92 34q-42 36 -42 92q0 12 6 42z" />
    <glyph glyph-name="less" unicode="&#x3c;" horiz-adv-x="1260" 
d="M158 744l784 428q32 16 68 16q62 0 104 -42t42 -104q0 -89 -86 -134l-476 -244l476 -244q86 -45 86 -134q0 -61 -42 -104q-42 -42 -104 -42q-36 0 -68 16l-784 428q-54 29 -54 80t54 80z" />
    <glyph glyph-name="equal" unicode="=" horiz-adv-x="1260" 
d="M234 782q-54 0 -92 38t-38 92t38 92t92 38h792q54 0 92 -38t38 -92t-38 -92t-92 -38h-792zM234 286q-54 0 -92 38t-38 92t38 92t92 38h792q54 0 92 -38t38 -92t-38 -92t-92 -38h-792z" />
    <glyph glyph-name="greater" unicode="&#x3e;" horiz-adv-x="1260" 
d="M1102 584l-784 -428q-32 -16 -68 -16q-61 0 -104 42q-42 43 -42 104q0 89 86 134l476 244l-476 244q-86 45 -86 134q0 62 42 104q43 42 104 42q36 0 68 -16l784 -428q54 -29 54 -80t-54 -80z" />
    <glyph glyph-name="question" unicode="?" horiz-adv-x="1066" 
d="M142 1264q140 160 386 160q211 0 341 -102q125 -98 125 -248q0 -136 -76 -227q-66 -79 -212 -147q-92 -42 -127 -69q-35 -26 -35 -55q0 -50 72 -50q25 0 52 8q18 6 30 6q27 0 44 -18q16 -19 16 -46q0 -36 -36 -54q-75 -36 -174 -36q-121 0 -194 64q-72 62 -72 160
q0 163 190 264q94 48 132 82q42 37 42 76q0 49 -37 76q-36 26 -97 26q-80 0 -136 -56q-60 -60 -130 -60q-61 0 -104 40q-44 40 -44 98q0 60 44 108zM670 25q-55 -49 -136 -49t-136 49q-56 50 -56 125t56 125q55 49 136 49t136 -49q56 -50 56 -125t-56 -125z" />
    <glyph glyph-name="at" unicode="@" horiz-adv-x="1880" 
d="M1144 919q38 39 92 39t93 -39t39 -93v-412q0 -140 108 -140q84 0 135 83q53 86 53 235q0 295 -207 502q-211 210 -525 210q-297 0 -506 -222q-210 -222 -210 -534q0 -308 213 -528q216 -224 529 -224q238 0 436 112q16 8 34 8q22 0 39 -15q17 -16 17 -41q0 -36 -32 -54
q-228 -130 -494 -130q-182 0 -347 72q-157 69 -279 194q-119 122 -185 278q-67 160 -67 328q0 169 66 330q65 157 182 280q118 125 270 194q160 72 334 72q366 0 621 -252q117 -117 181 -266q66 -152 66 -314q0 -205 -104 -329q-109 -129 -300 -129q-207 0 -284 134
q-94 -130 -266 -130q-162 0 -270 119q-106 116 -106 289t106 290q108 118 270 118q78 0 148 -35q70 -34 112 -93q0 54 38 93zM782 421q52 -53 126 -53t127 53q51 52 51 125t-51 125q-53 53 -127 53t-126 -53q-52 -52 -52 -125t52 -125z" />
    <glyph glyph-name="A" unicode="A" horiz-adv-x="1368" 
d="M808 1334l482 -1112q18 -43 18 -82q0 -69 -47 -116q-48 -48 -117 -48q-117 0 -166 118l-50 124h-488l-50 -124q-49 -118 -166 -118q-69 0 -116 48q-48 47 -48 116q0 39 18 82l482 1112q39 90 124 90t124 -90zM552 494h264l-132 326z" />
    <glyph glyph-name="B" unicode="B" horiz-adv-x="1156" 
d="M480 298h46q190 0 190 152t-190 152h-46v-304zM480 878h58q138 0 138 112t-138 112h-58v-224zM512 1400q229 0 362 -106q128 -103 128 -270q0 -177 -152 -278q115 -44 176 -132q62 -90 62 -214q0 -177 -142 -285q-152 -115 -428 -115h-212q-72 0 -123 51t-51 123v1052
q0 72 51 123t123 51h206z" />
    <glyph glyph-name="C" unicode="C" horiz-adv-x="1462" 
d="M300 1221q216 203 518 203q308 0 520 -192q64 -60 64 -132q0 -69 -46 -115q-47 -47 -116 -47q-70 0 -130 60q-121 114 -284 114q-166 0 -282 -118q-118 -120 -118 -294t118 -294q116 -118 282 -118q163 0 284 114q60 60 130 60q69 0 116 -46q46 -47 46 -116
q0 -72 -64 -132q-212 -192 -520 -192q-302 0 -518 203q-222 210 -222 521t222 521z" />
    <glyph glyph-name="D" unicode="D" horiz-adv-x="1374" 
d="M843 983q-103 105 -277 105h-86v-776h86q174 0 277 106q103 105 103 282t-103 283zM306 0q-72 0 -123 51t-51 123v1052q0 72 51 123t123 51h252q315 0 523 -191q213 -197 213 -509t-213 -509q-208 -191 -523 -191h-252z" />
    <glyph glyph-name="E" unicode="E" horiz-adv-x="1024" 
d="M788 1400q66 0 110 -44q44 -45 44 -114q0 -66 -44 -110t-110 -44h-308v-188h264q66 0 110 -44q44 -45 44 -114q0 -66 -44 -110t-110 -44h-264v-276h326q66 0 110 -44q44 -45 44 -114q0 -66 -44 -110t-110 -44h-500q-72 0 -123 51t-51 123v1052q0 72 51 123t123 51h482z
" />
    <glyph glyph-name="F" unicode="F" horiz-adv-x="976" 
d="M732 886q66 0 110 -44q44 -45 44 -114q0 -66 -44 -110t-110 -44h-252v-424q0 -72 -51 -123t-123 -51t-123 51t-51 123v1076q0 72 51 123t123 51h470q66 0 110 -44q44 -45 44 -114q0 -66 -44 -110t-110 -44h-296v-202h252z" />
    <glyph glyph-name="G" unicode="G" horiz-adv-x="1578" 
d="M1119 1364q140 -59 247 -166q58 -58 58 -128q0 -67 -46 -114q-46 -46 -114 -46q-70 0 -132 62q-133 140 -310 140q-166 0 -280 -118q-116 -119 -116 -294q0 -177 123 -298q115 -114 265 -114q137 0 227 63q91 63 115 177h-198q-46 0 -80 34t-34 80q0 47 34 80
q34 34 80 34h432q47 0 80 -34q34 -33 34 -80q0 -297 -194 -482q-192 -184 -494 -184t-517 205q-221 210 -221 519q0 312 221 521q215 203 517 203q158 0 303 -60z" />
    <glyph glyph-name="H" unicode="H" horiz-adv-x="1356" 
d="M876 1250q0 72 51 123t123 51t123 -51t51 -123v-1100q0 -72 -51 -123t-123 -51t-123 51t-51 123v432h-396v-432q0 -72 -51 -123t-123 -51t-123 51t-51 123v1100q0 72 51 123t123 51t123 -51t51 -123v-356h396v356z" />
    <glyph glyph-name="I" unicode="I" horiz-adv-x="644" 
d="M496 150q0 -72 -51 -123t-123 -51t-123 51t-51 123v1100q0 72 51 123t123 51t123 -51t51 -123v-1100z" />
    <glyph glyph-name="J" unicode="J" horiz-adv-x="1036" 
d="M46 385q44 39 108 39q77 0 136 -76q47 -60 124 -60q142 0 142 186v776q0 72 51 123t123 51t123 -51t51 -123v-790q0 -229 -128 -358q-125 -126 -340 -126q-251 0 -398 188q-38 48 -38 112q0 67 46 109z" />
    <glyph glyph-name="K" unicode="K" horiz-adv-x="1330" 
d="M480 656v-506q0 -72 -51 -123t-123 -51t-123 51t-51 123v1100q0 72 51 123t123 51t123 -51t51 -123v-474l448 582q53 66 130 66q68 0 116 -48t48 -116q0 -63 -46 -112l-356 -430l400 -472q36 -45 36 -104q0 -69 -48 -116q-49 -48 -118 -48q-84 0 -134 66z" />
    <glyph glyph-name="L" unicode="L" horiz-adv-x="994" 
d="M306 0q-72 0 -123 51t-51 123v1076q0 72 51 123t123 51t123 -51t51 -123v-938h342q66 0 110 -44q44 -45 44 -114q0 -66 -44 -110t-110 -44h-516z" />
    <glyph glyph-name="M" unicode="M" horiz-adv-x="1968" 
d="M860 66l-262 640l-172 -606q-17 -56 -62 -90q-47 -34 -108 -34q-73 0 -123 50q-49 50 -49 124q0 37 14 82l336 1108q12 38 43 61q32 23 75 23q86 0 120 -84l312 -768l312 768q34 84 120 84q43 0 75 -23q31 -23 43 -61l336 -1108q14 -45 14 -82q0 -74 -49 -124
q-50 -50 -123 -50q-61 0 -107 34t-63 90l-172 606l-262 -640q-35 -90 -124 -90t-124 90z" />
    <glyph glyph-name="N" unicode="N" horiz-adv-x="1466" 
d="M986 646v604q0 72 51 123t123 51t123 -51t51 -123v-1154q0 -56 -30 -88q-29 -32 -78 -32q-64 0 -106 48l-640 730v-604q0 -72 -51 -123t-123 -51t-123 51t-51 123v1154q0 56 30 89q29 31 78 31q64 0 106 -48z" />
    <glyph glyph-name="O" unicode="O" horiz-adv-x="1656" 
d="M1355 181q-219 -205 -527 -205t-526 205q-224 209 -224 519t224 520q218 204 526 204t527 -204q223 -210 223 -520t-223 -519zM543 406q116 -118 285 -118t285 118q117 119 117 294t-117 294q-116 118 -285 118t-285 -118q-117 -119 -117 -294t117 -294z" />
    <glyph glyph-name="P" unicode="P" horiz-adv-x="1132" 
d="M480 778h56q188 0 188 160t-188 160h-56v-320zM534 1400q252 0 399 -134q139 -127 139 -328t-139 -328q-147 -134 -399 -134h-54v-326q0 -72 -51 -123t-123 -51t-123 51t-51 123v1076q0 72 51 123t123 51h228z" />
    <glyph glyph-name="Q" unicode="Q" horiz-adv-x="1656" 
d="M1430 266l100 -100q36 -39 36 -92q0 -54 -38 -92q-37 -38 -90 -38q-52 0 -98 46l-100 102q-188 -116 -412 -116q-308 0 -526 205q-224 209 -224 519t224 520q218 204 526 204t527 -204q223 -210 223 -520q0 -244 -148 -434zM1188 512q42 90 42 188q0 175 -117 294
q-116 118 -285 118t-285 -118q-117 -119 -117 -294t117 -294q116 -118 285 -118q95 0 178 40l-104 106q-36 39 -36 92q0 54 38 92q37 38 90 38q52 0 98 -46z" />
    <glyph glyph-name="R" unicode="R" horiz-adv-x="1220" 
d="M564 1400q224 0 362 -126q138 -127 138 -336q0 -130 -65 -231q-61 -93 -167 -145l244 -338q32 -46 32 -96q0 -68 -46 -110t-116 -42q-82 0 -132 70l-334 488v-384q0 -72 -51 -123t-123 -51t-123 51t-51 123v1076q0 72 51 123t123 51h258zM480 768h48q88 0 138 43
q50 44 50 127t-50 127q-50 43 -138 43h-48v-340z" />
    <glyph glyph-name="S" unicode="S" horiz-adv-x="1126" 
d="M612 1126q-116 0 -116 -86q0 -45 42 -79q44 -37 164 -85q350 -141 350 -466q0 -196 -126 -313q-130 -121 -360 -121q-271 0 -456 166q-50 44 -50 118q0 63 47 110q46 46 109 46q47 0 98 -40q104 -86 226 -86q75 0 120 36q44 35 44 92q0 63 -39 104q-41 43 -147 84
q-195 77 -282 182q-88 105 -88 262q0 159 114 264q118 110 308 110q186 0 336 -104q66 -49 66 -122q0 -59 -41 -101q-41 -43 -99 -43q-47 0 -96 30q-65 42 -124 42z" />
    <glyph glyph-name="T" unicode="T" horiz-adv-x="1064" 
d="M182 1088q-66 0 -110 44t-44 110q0 69 44 114q44 44 110 44h700q66 0 110 -44q44 -45 44 -114q0 -66 -44 -110t-110 -44h-176v-938q0 -72 -51 -123t-123 -51t-123 51t-51 123v938h-176z" />
    <glyph glyph-name="U" unicode="U" horiz-adv-x="1348" 
d="M1216 522q0 -249 -165 -403q-154 -143 -377 -143t-377 143q-165 154 -165 403v728q0 72 51 123t123 51t123 -51t51 -123v-738q0 -105 54 -165q52 -59 140 -59t141 59q53 60 53 165v738q0 72 51 123t123 51t123 -51t51 -123v-728z" />
    <glyph glyph-name="V" unicode="V" horiz-adv-x="1376" 
d="M982 1306q49 118 166 118q69 0 117 -47q47 -48 47 -117q0 -39 -18 -82l-482 -1112q-39 -90 -124 -90t-124 90l-482 1112q-18 43 -18 82q0 69 48 117q47 47 116 47q117 0 166 -118l294 -726z" />
    <glyph glyph-name="W" unicode="W" horiz-adv-x="2040" 
d="M1142 1332l252 -686l240 658q43 120 162 120q70 0 121 -45q53 -48 53 -121q0 -42 -16 -82l-428 -1112q-35 -88 -122 -88q-91 0 -122 88l-262 720l-262 -720q-31 -88 -122 -88q-87 0 -122 88l-428 1112q-16 40 -16 82q0 73 53 121q51 45 121 45q119 0 162 -120l240 -658
l252 686q34 92 122 92t122 -92z" />
    <glyph glyph-name="X" unicode="X" horiz-adv-x="1344" 
d="M672 462l-292 -420q-45 -66 -136 -66q-72 0 -120 48t-48 120q0 54 32 102l342 482l-298 428q-34 48 -34 104q0 69 49 117q48 47 119 47q86 0 136 -70l250 -362l250 362q50 70 136 70q71 0 119 -47q49 -48 49 -117q0 -56 -34 -104l-298 -428l342 -482q32 -48 32 -102
q0 -72 -48 -120t-120 -48q-91 0 -136 66z" />
    <glyph glyph-name="Y" unicode="Y" horiz-adv-x="1360" 
d="M557 27q-51 51 -51 123v392l-408 628q-26 39 -26 94q0 63 48 111q50 49 116 49q94 0 156 -96l288 -464l288 464q62 96 156 96q67 0 116 -49q48 -48 48 -111q0 -55 -26 -94l-408 -628v-392q0 -72 -51 -123t-123 -51t-123 51z" />
    <glyph glyph-name="Z" unicode="Z" horiz-adv-x="1152" 
d="M186 0q-53 0 -87 29q-33 28 -33 71q0 45 30 102l478 886h-312q-66 0 -110 44t-44 110q0 69 44 114q44 44 110 44h680q53 0 87 -29q33 -28 33 -71q0 -45 -30 -102l-472 -886h388q66 0 110 -44t44 -110q0 -69 -44 -113q-44 -45 -110 -45h-762z" />
    <glyph glyph-name="bracketleft" unicode="[" horiz-adv-x="818" 
d="M646 12q57 0 97 -39q39 -40 39 -97t-39 -96q-40 -40 -97 -40h-282q-57 0 -96 40q-40 39 -40 96v1488q0 57 40 97q39 39 96 39h282q57 0 97 -39q39 -40 39 -97t-39 -96q-40 -40 -97 -40h-110v-1216h110z" />
    <glyph glyph-name="backslash" unicode="\" horiz-adv-x="1138" 
d="M1046 0q22 -41 22 -80q0 -57 -44 -98q-44 -42 -104 -42q-86 0 -130 88l-698 1410q-22 41 -22 80q0 57 44 99q44 41 104 41q86 0 130 -88z" />
    <glyph glyph-name="bracketright" unicode="]" horiz-adv-x="818" 
d="M282 12v1216h-110q-57 0 -96 40q-40 39 -40 96t40 97q39 39 96 39h282q57 0 97 -39q39 -40 39 -97v-1488q0 -57 -39 -96q-40 -40 -97 -40h-282q-57 0 -96 40q-40 39 -40 96t40 97q39 39 96 39h110z" />
    <glyph glyph-name="asciicircum" unicode="^" horiz-adv-x="1280" 
d="M640 1016l-198 -268q-49 -66 -122 -66q-58 0 -98 40t-40 98q0 51 28 88l354 474q32 42 76 42q45 0 76 -42l354 -474q28 -37 28 -88q0 -58 -40 -98q-39 -40 -98 -40q-73 0 -122 66z" />
    <glyph glyph-name="underscore" unicode="_" horiz-adv-x="1000" 
d="M5 -203q29 29 69 29h852q41 0 69 -29q29 -28 29 -69q0 -40 -29 -69q-28 -29 -69 -29h-852q-40 0 -69 29t-29 69q0 41 29 69z" />
    <glyph glyph-name="grave" unicode="`" horiz-adv-x="836" 
d="M218 1475q31 31 70 31q37 0 68 -24l256 -212q38 -31 38 -80q0 -39 -29 -68q-29 -30 -71 -30q-35 0 -66 24l-256 206q-42 32 -42 80q0 42 32 73z" />
    <glyph glyph-name="a" unicode="a" horiz-adv-x="1284" 
d="M1166 134q0 -66 -46 -112t-112 -46q-64 0 -109 42q-44 42 -49 104q-45 -63 -123 -102q-87 -44 -187 -44q-196 0 -330 142q-136 142 -136 350t136 350q134 142 330 142q100 0 187 -44q78 -39 123 -102q5 62 49 104q45 42 109 42q66 0 112 -46t46 -112v-668zM774 625
q-64 63 -156 63t-156 -63q-64 -64 -64 -157t64 -156q64 -64 156 -64t156 64q64 63 64 156t-64 157z" />
    <glyph glyph-name="b" unicode="b" horiz-adv-x="1284" 
d="M118 1366q0 66 46 112t112 46t112 -46t46 -112v-552q45 63 124 102q86 44 186 44q196 0 331 -142t135 -350t-135 -350t-331 -142q-100 0 -186 44q-79 39 -124 102q-5 -62 -49 -104q-45 -42 -109 -42q-66 0 -112 46t-46 112v1232zM510 312q64 -64 156 -64t156 64
q64 63 64 156t-64 157q-64 63 -156 63t-156 -63q-64 -64 -64 -157t64 -156z" />
    <glyph glyph-name="c" unicode="c" horiz-adv-x="1032" 
d="M222 818q150 142 360 142q178 0 314 -98q72 -52 72 -132q0 -60 -43 -103q-44 -43 -107 -43q-50 0 -98 38q-62 50 -136 50q-79 0 -136 -55q-62 -60 -62 -149t62 -148q57 -56 136 -56q74 0 136 50q48 38 98 38q63 0 107 -43q43 -43 43 -103q0 -80 -72 -132
q-136 -98 -314 -98q-210 0 -360 143q-152 144 -152 349t152 350z" />
    <glyph glyph-name="d" unicode="d" horiz-adv-x="1284" 
d="M1166 134q0 -66 -46 -112t-112 -46q-64 0 -109 42q-44 42 -49 104q-45 -63 -123 -102q-87 -44 -187 -44q-196 0 -330 142q-136 142 -136 350t136 350q134 142 330 142q100 0 187 -44q78 -39 123 -102v552q0 66 46 112t112 46t112 -46t46 -112v-1232zM774 625
q-64 63 -156 63t-156 -63q-64 -64 -64 -157t64 -156q64 -64 156 -64t156 64q64 63 64 156t-64 157z" />
    <glyph glyph-name="e" unicode="e" horiz-adv-x="1160" 
d="M1061 424q-36 -38 -97 -38h-562q44 -142 210 -142q99 0 172 54q46 34 94 34q61 0 101 -39q39 -39 39 -97q0 -67 -60 -114q-133 -106 -350 -106q-239 0 -390 140q-148 137 -148 352q0 208 151 350q150 142 365 142q195 0 338 -123q144 -124 166 -313q7 -62 -29 -100z
M788 590q-20 54 -70 87q-53 35 -122 35t-121 -35q-51 -33 -71 -87h384z" />
    <glyph glyph-name="f" unicode="f" horiz-adv-x="818" 
d="M202 1116q0 189 100 298q101 108 276 108q166 0 276 -94q52 -45 52 -108q0 -56 -37 -94q-38 -38 -93 -38q-44 0 -86 28q-34 24 -76 24q-96 0 -96 -132v-172h144q53 0 89 -37q37 -36 37 -89q0 -52 -37 -89q-36 -37 -89 -37h-144v-550q0 -66 -46 -112t-112 -46t-112 46
t-46 112v550h-44q-52 0 -89 37t-37 89q0 53 37 89q37 37 89 37h44v180z" />
    <glyph glyph-name="g" unicode="g" horiz-adv-x="1284" 
d="M186 -195q39 39 96 39q62 0 102 -40q103 -96 222 -96q244 0 244 296v118q-45 -63 -123 -102q-87 -44 -187 -44q-196 0 -330 142q-136 142 -136 350t136 350q134 142 330 142q100 0 187 -44q78 -39 123 -102q5 62 49 104q45 42 109 42q66 0 112 -46t46 -112v-772
q0 -300 -155 -453q-144 -141 -399 -141q-244 0 -420 166q-46 43 -46 106q0 57 40 97zM774 625q-64 63 -156 63t-156 -63q-64 -64 -64 -157t64 -156q64 -64 156 -64t156 64q64 63 64 156t-64 157z" />
    <glyph glyph-name="h" unicode="h" horiz-adv-x="1142" 
d="M118 1366q0 66 46 112t112 46t112 -46t46 -112v-540q44 58 113 94q78 40 169 40q135 0 223 -91q91 -96 91 -251v-484q0 -66 -46 -112t-112 -46t-112 46t-46 112v406q0 64 -41 106q-40 42 -99 42q-56 0 -95 -38q-41 -38 -45 -98v-418q0 -66 -46 -112t-112 -46t-112 46
t-46 112v1232z" />
    <glyph glyph-name="i" unicode="i" horiz-adv-x="576" 
d="M158 1423q54 53 130 53t130 -53q54 -54 54 -129t-54 -128q-54 -54 -130 -54t-130 54q-54 53 -54 128t54 129zM130 802q0 66 46 112t112 46t112 -46t46 -112v-668q0 -66 -46 -112t-112 -46t-112 46t-46 112v668z" />
    <glyph glyph-name="j" unicode="j" horiz-adv-x="614" 
d="M-235 -247q38 39 97 39q55 0 98 -40q51 -44 102 -44q116 0 116 162v932q0 66 46 112t112 46t112 -46t46 -112v-936q0 -203 -110 -316q-110 -114 -306 -114q-187 0 -306 116q-46 46 -46 100q0 61 39 101zM206 1423q54 53 130 53t130 -53q54 -54 54 -129t-54 -128
q-54 -54 -130 -54t-130 54q-54 53 -54 128t54 129z" />
    <glyph glyph-name="k" unicode="k" horiz-adv-x="1162" 
d="M118 1366q0 66 46 112t112 46t112 -46t46 -112v-788l364 338q47 44 104 44q60 0 101 -41t41 -101q0 -57 -38 -98l-248 -228l278 -274q16 -16 27 -39q13 -28 13 -61q0 -60 -41 -101t-101 -41q-64 0 -110 46l-390 384v-272q0 -66 -46 -112t-112 -46t-112 46t-46 112v1232z
" />
    <glyph glyph-name="l" unicode="l" horiz-adv-x="568" 
d="M126 1366q0 66 46 112t112 46t112 -46t46 -112v-1232q0 -66 -46 -112t-112 -46t-112 46t-46 112v1232z" />
    <glyph glyph-name="m" unicode="m" horiz-adv-x="1738" 
d="M1310 540q0 64 -41 106q-40 42 -99 42t-99 -42q-41 -42 -41 -106v-406q0 -66 -46 -112t-112 -46t-112 46t-46 112v406q0 64 -41 106q-40 42 -99 42t-99 -42q-41 -42 -41 -106v-406q0 -66 -46 -112t-112 -46t-112 46t-46 112v668q0 66 46 112t112 46q64 0 110 -44
q43 -42 48 -102q45 65 117 105q75 41 155 41q177 0 272 -148q127 148 320 148q144 0 235 -92q93 -95 93 -254v-480q0 -66 -46 -112t-112 -46t-112 46t-46 112v406z" />
    <glyph glyph-name="n" unicode="n" horiz-adv-x="1142" 
d="M118 802q0 66 46 112t112 46q64 0 110 -44q43 -42 48 -102q93 146 282 146q135 0 223 -91q91 -96 91 -251v-484q0 -66 -46 -112t-112 -46t-112 46t-46 112v406q0 64 -41 106q-40 42 -99 42q-56 0 -95 -38q-41 -38 -45 -98v-418q0 -66 -46 -112t-112 -46t-112 46t-46 112
v668z" />
    <glyph glyph-name="o" unicode="o" horiz-adv-x="1180" 
d="M960 119q-151 -143 -370 -143t-369 143q-151 143 -151 349t151 349q150 143 369 143t370 -143q150 -143 150 -349t-150 -349zM731 615q-60 57 -141 57t-141 -57q-63 -60 -63 -147t63 -147q60 -57 141 -57t141 57q63 60 63 147t-63 147z" />
    <glyph glyph-name="p" unicode="p" horiz-adv-x="1284" 
d="M118 802q0 66 46 112t112 46q64 0 109 -42q44 -42 49 -104q45 63 124 102q86 44 186 44q196 0 331 -142t135 -350t-135 -350t-331 -142q-100 0 -186 44q-79 39 -124 102v-552q0 -66 -46 -112t-112 -46t-112 46t-46 112v1232zM510 312q64 -64 156 -64t156 64q64 63 64 156
t-64 157q-64 63 -156 63t-156 -63q-64 -64 -64 -157t64 -156z" />
    <glyph glyph-name="q" unicode="q" horiz-adv-x="1284" 
d="M1166 -430q0 -66 -46 -112t-112 -46t-112 46t-46 112v552q-45 -63 -123 -102q-87 -44 -187 -44q-196 0 -330 142q-136 142 -136 350t136 350q134 142 330 142q100 0 187 -44q78 -39 123 -102q5 62 49 104q45 42 109 42q66 0 112 -46t46 -112v-1232zM774 625
q-64 63 -156 63t-156 -63q-64 -64 -64 -157t64 -156q64 -64 156 -64t156 64q64 63 64 156t-64 157z" />
    <glyph glyph-name="r" unicode="r" horiz-adv-x="852" 
d="M541 918q69 42 145 42q70 0 113 -42q41 -40 41 -100q0 -57 -42 -99q-42 -43 -100 -43q-16 0 -40 6q-21 6 -42 6q-86 0 -134 -57q-48 -58 -48 -163v-334q0 -66 -46 -112t-112 -46t-112 46t-46 112v668q0 66 46 112t112 46q64 0 109 -42q44 -42 49 -104q43 65 107 104z" />
    <glyph glyph-name="s" unicode="s" horiz-adv-x="824" 
d="M46 168q0 50 33 85q34 35 83 35q40 0 78 -28q57 -44 116 -44q39 0 63 18q23 19 23 50q0 36 -19 59q-21 24 -79 49q-240 101 -240 298q0 119 88 194q88 76 230 76q134 0 244 -70q52 -35 52 -96q0 -51 -33 -83q-31 -31 -79 -31q-28 0 -60 20q-33 20 -66 20q-60 0 -60 -40
q0 -22 21 -39q23 -19 91 -49q226 -100 226 -304q0 -136 -89 -221q-95 -91 -261 -91q-188 0 -312 98q-50 37 -50 94z" />
    <glyph glyph-name="t" unicode="t" horiz-adv-x="762" 
d="M202 684h-44q-52 0 -89 37t-37 89q0 53 37 89q37 37 89 37h44v130q0 66 46 112t112 46t112 -46t46 -112v-130h104q53 0 89 -37q37 -36 37 -89q0 -52 -37 -89q-36 -37 -89 -37h-104v-550q0 -66 -46 -112t-112 -46t-112 46t-46 112v550z" />
    <glyph glyph-name="u" unicode="u" horiz-adv-x="1148" 
d="M1030 134q0 -66 -46 -112t-112 -46q-64 0 -110 44q-43 42 -48 102q-93 -146 -282 -146q-135 0 -223 92q-91 95 -91 250v484q0 66 46 112t112 46t112 -46t46 -112v-406q0 -64 41 -106q40 -42 99 -42q56 0 96 38t44 98v418q0 66 46 112t112 46t112 -46t46 -112v-668z" />
    <glyph glyph-name="v" unicode="v" horiz-adv-x="1032" 
d="M652 860q15 45 53 72q38 28 91 28q63 0 107 -42q43 -43 43 -106q0 -35 -12 -62l-304 -694q-35 -80 -114 -80t-114 80l-304 694q-12 27 -12 62q0 63 44 106q43 42 106 42q53 0 92 -28q37 -27 52 -72l136 -380z" />
    <glyph glyph-name="w" unicode="w" horiz-adv-x="1596" 
d="M910 884l176 -406l134 366q19 52 56 83q39 33 90 33q64 0 108 -40q44 -41 44 -102q0 -18 -3 -38q-5 -25 -13 -44l-304 -686q-34 -74 -110 -74q-83 0 -112 74l-178 432l-178 -432q-29 -74 -112 -74q-76 0 -110 74l-304 686q-8 19 -12 44q-4 20 -4 38q0 61 45 102
q43 40 107 40q51 0 90 -33q37 -31 56 -83l134 -366l176 406q33 76 112 76t112 -76z" />
    <glyph glyph-name="x" unicode="x" horiz-adv-x="1040" 
d="M336 36q-43 -60 -116 -60q-58 0 -101 43t-43 101q0 47 30 86l208 278l-182 242q-32 43 -32 90q0 59 44 102q43 42 102 42q75 0 118 -60l156 -214l156 214q43 60 118 60q59 0 102 -42q44 -43 44 -102q0 -47 -32 -90l-182 -242l208 -278q30 -39 30 -86q0 -58 -43 -101
q-42 -43 -101 -43q-73 0 -116 60l-184 246z" />
    <glyph glyph-name="y" unicode="y" horiz-adv-x="1086" 
d="M532 -488q-17 -44 -57 -72q-41 -28 -91 -28q-63 0 -109 47q-45 45 -45 105q0 28 16 68l152 396l-302 722q-12 27 -12 62q0 63 44 106q43 42 106 42q54 0 93 -28q37 -27 53 -72l164 -456l154 450q38 106 152 106q63 0 108 -42q44 -43 44 -106q0 -26 -12 -62z" />
    <glyph glyph-name="z" unicode="z" horiz-adv-x="904" 
d="M384 684h-164q-52 0 -89 37t-37 89q0 53 37 89q37 37 89 37h510q39 0 63 -22q23 -21 23 -52q0 -38 -26 -84l-292 -526h238q53 0 89 -37q37 -36 37 -89q0 -52 -37 -89q-36 -37 -89 -37h-586q-39 0 -63 22q-23 21 -23 52q0 38 26 84z" />
    <glyph glyph-name="braceleft" unicode="{" horiz-adv-x="890" 
d="M320 1112q0 166 105 276q107 112 277 112h20q56 0 95 -36q41 -39 41 -100q0 -55 -29 -91q-29 -38 -81 -47q-120 -22 -120 -190v-102q0 -214 -190 -314q190 -100 190 -314v-102q0 -168 120 -190q52 -9 81 -46t29 -92q0 -61 -41 -99q-39 -37 -95 -37h-20q-170 0 -277 112
q-105 110 -105 276v174q0 190 -146 252q-44 19 -44 66t44 66q146 62 146 252v174z" />
    <glyph glyph-name="bar" unicode="|" horiz-adv-x="652" 
d="M468 -282q0 -58 -42 -100q-41 -42 -100 -42q-58 0 -100 42t-42 100v1702q0 59 42 100q42 42 100 42q59 0 100 -42q42 -41 42 -100v-1702z" />
    <glyph glyph-name="braceright" unicode="}" horiz-adv-x="890" 
d="M570 938q0 -190 146 -252q44 -19 44 -66t-44 -66q-146 -62 -146 -252v-174q0 -166 -105 -276q-107 -112 -277 -112h-20q-56 0 -95 37q-41 38 -41 99q0 55 29 92t81 46q120 22 120 190v102q0 214 190 314q-190 100 -190 314v102q0 168 -120 190q-52 9 -81 47
q-29 36 -29 91q0 61 41 100q39 36 95 36h20q170 0 277 -112q105 -110 105 -276v-174z" />
    <glyph glyph-name="asciitilde" unicode="~" horiz-adv-x="1260" 
d="M802 724q51 0 72 62q32 100 128 100q72 0 114 -46q45 -51 28 -132q-25 -124 -107 -197q-80 -73 -189 -73q-126 0 -250 94q-88 68 -142 68q-56 0 -72 -62q-12 -46 -47 -73t-81 -27q-72 0 -114 46q-45 51 -28 132q25 124 107 197q80 73 189 73q126 0 250 -94
q88 -68 142 -68z" />
    <glyph glyph-name="uni00A0" unicode="&#xa0;" horiz-adv-x="600" 
 />
    <glyph glyph-name="exclamdown" unicode="&#xa1;" horiz-adv-x="680" 
d="M204 907q55 49 136 49t136 -49q56 -50 56 -125t-56 -125q-55 -49 -136 -49t-136 49q-56 50 -56 125t56 125zM166 360q0 72 51 123t123 51t123 -51t51 -123v-678q0 -72 -51 -123t-123 -51t-123 51t-51 123v678z" />
    <glyph glyph-name="cent" unicode="&#xa2;" horiz-adv-x="1030" 
d="M180 776q109 133 280 168v86q0 44 31 75q32 31 75 31q44 0 75 -31t31 -75v-80q166 -27 274 -128q44 -41 44 -106q0 -56 -41 -96t-99 -40q-56 0 -98 42q-67 64 -156 64q-90 0 -153 -63q-65 -64 -65 -157t65 -157q63 -63 153 -63q89 0 156 64q42 42 98 42q58 0 99 -40
t41 -96q0 -65 -44 -106q-108 -101 -274 -128v-80q0 -43 -31 -75q-31 -31 -75 -31q-43 0 -75 31q-31 32 -31 75v86q-171 35 -280 168q-110 133 -110 310t110 310z" />
    <glyph glyph-name="sterling" unicode="&#xa3;" horiz-adv-x="1208" 
d="M264 492v116h-102q-28 0 -48 20t-20 48q0 29 20 48q20 20 48 20h102v252q0 187 111 305q116 123 315 123q214 0 354 -128q48 -42 48 -108q0 -59 -41 -99q-41 -41 -101 -41q-37 0 -94 34q-50 30 -104 30q-67 0 -104 -43q-36 -42 -36 -119v-206h234q29 0 48 -20
q20 -19 20 -48q0 -28 -20 -48q-19 -20 -48 -20h-234v-52q0 -155 -46 -244h430q65 0 110 -46q46 -45 46 -110q0 -64 -46 -110q-45 -46 -110 -46h-774q-48 0 -79 29q-29 27 -29 69q0 45 40 94q110 150 110 300z" />
    <glyph glyph-name="currency" unicode="&#xa4;" horiz-adv-x="1436" 
d="M1124 474l102 -102q50 -50 50 -108q0 -57 -40 -97q-41 -41 -98 -41q-58 0 -100 42l-110 110q-97 -52 -210 -52q-112 0 -210 52l-110 -110q-42 -42 -100 -42q-57 0 -97 41q-41 40 -41 97q0 58 50 108l102 102q-44 91 -44 190t44 190l-102 102q-50 50 -50 108q0 57 41 98
q40 40 97 40q58 0 100 -42l110 -110q98 52 210 52q113 0 210 -52l110 110q42 42 100 42q57 0 98 -40q40 -41 40 -98q0 -58 -50 -108l-102 -102q44 -91 44 -190t-44 -190zM589 534q51 -52 129 -52t129 52t51 130t-51 130t-129 52t-129 -52t-51 -130t51 -130z" />
    <glyph glyph-name="yen" unicode="&#xa5;" horiz-adv-x="1360" 
d="M557 27q-51 51 -51 123v182h-294q-27 0 -45 19q-19 18 -19 45t19 46q18 18 45 18h294v82l-6 8h-288q-27 0 -45 19q-19 18 -19 45t19 46q18 18 45 18h206l-320 492q-26 39 -26 94q0 63 48 111q50 49 116 49q94 0 156 -96l288 -464l288 464q62 96 156 96q67 0 116 -49
q48 -48 48 -111q0 -55 -26 -94l-320 -492h206q27 0 46 -18q18 -19 18 -46t-18 -45q-19 -19 -46 -19h-290l-4 -8v-82h294q27 0 46 -18q18 -19 18 -46t-18 -45q-19 -19 -46 -19h-294v-182q0 -72 -51 -123t-123 -51t-123 51z" />
    <glyph glyph-name="brokenbar" unicode="&#xa6;" horiz-adv-x="650" 
d="M468 830q0 -58 -42 -100q-41 -42 -100 -42q-58 0 -100 42t-42 100v450q0 59 42 100q42 42 100 42q59 0 100 -42q42 -41 42 -100v-450zM468 -106q0 -58 -42 -100q-41 -42 -100 -42q-58 0 -100 42t-42 100v450q0 59 42 100q42 42 100 42q59 0 100 -42q42 -41 42 -100v-450z
" />
    <glyph glyph-name="section" unicode="&#xa7;" horiz-adv-x="1038" 
d="M433 524q37 -36 87 -36t87 36t37 88t-37 88t-87 36t-87 -36t-37 -88t37 -88zM189 789q51 82 137 125q-128 100 -128 238q0 118 87 194q88 76 231 76q159 0 258 -88q42 -36 42 -90q0 -42 -28 -70q-27 -26 -66 -26q-41 0 -72 26q-32 26 -74 26q-38 0 -62 -22t-24 -56
q0 -41 36 -74q34 -32 124 -78q250 -125 250 -364q0 -90 -50 -170q-52 -83 -138 -126q128 -100 128 -238q0 -118 -87 -193q-88 -77 -231 -77q-159 0 -258 88q-42 36 -42 90q0 42 28 70q27 26 66 26q41 0 72 -26q33 -26 74 -26q38 0 63 23q23 21 23 55q0 41 -36 75
q-34 31 -124 77q-250 125 -250 364q0 90 51 171z" />
    <glyph glyph-name="dieresis" unicode="&#xa8;" horiz-adv-x="836" 
d="M122 1394q39 40 96 40t97 -40q39 -40 39 -96t-39 -96q-40 -40 -97 -40t-96 40q-40 40 -40 96t40 96zM522 1394q39 40 96 40t97 -40q39 -40 39 -96t-39 -96q-40 -40 -97 -40t-96 40q-40 40 -40 96t40 96z" />
    <glyph glyph-name="copyright" unicode="&#xa9;" horiz-adv-x="1636" 
d="M306 1212q212 212 512 212t512 -212t212 -512t-212 -512t-512 -212t-512 212t-212 512t212 512zM1251 1139q-179 181 -433 181t-433 -181t-179 -439t179 -439t433 -181t433 181t179 439t-179 439zM557 978q117 110 283 110q81 0 155 -26q73 -26 117 -70q50 -50 50 -96
t-32 -77q-31 -31 -78 -31q-51 0 -86 38q-42 48 -116 48q-71 0 -117 -47q-49 -49 -49 -127t49 -127q46 -47 117 -47q74 0 116 48q35 38 86 38q47 0 78 -31q32 -31 32 -77t-50 -96q-44 -44 -117 -70q-74 -26 -155 -26q-166 0 -283 110q-119 112 -119 278t119 278z" />
    <glyph glyph-name="ordfeminine" unicode="&#xaa;" horiz-adv-x="920" 
d="M840 818q0 -49 -34 -84q-34 -34 -84 -34q-46 0 -80 32q-33 31 -36 76q-75 -108 -224 -108q-143 0 -241 105q-99 104 -99 257t99 258q98 104 241 104q149 0 224 -108q3 45 36 77q34 31 80 31q50 0 84 -34t34 -84v-488zM335 957q43 -43 105 -43t105 43q43 42 43 105
t-43 106q-43 42 -105 42t-105 -42q-43 -43 -43 -106t43 -105z" />
    <glyph glyph-name="guillemotleft" unicode="&#xab;" horiz-adv-x="1224" 
d="M596 674l390 278q24 18 60 18q41 0 70 -30q30 -29 30 -70q0 -53 -42 -82l-238 -164l238 -164q42 -29 42 -82q0 -40 -30 -70q-29 -30 -70 -30q-36 0 -60 18l-390 278q-32 22 -32 50t32 50zM84 674l390 278q24 18 60 18q41 0 70 -30q30 -29 30 -70q0 -53 -42 -82l-238 -164
l238 -164q42 -29 42 -82q0 -40 -30 -70q-29 -30 -70 -30q-36 0 -60 18l-390 278q-32 22 -32 50t32 50z" />
    <glyph glyph-name="logicalnot" unicode="&#xac;" horiz-adv-x="1260" 
d="M994 900q63 0 109 -45q45 -45 45 -109v-302q0 -64 -45 -109q-46 -45 -109 -45q-64 0 -109 45t-45 109v196h-630q-54 0 -92 38t-38 92t38 92t92 38h784z" />
    <glyph glyph-name="uni00AD" unicode="&#xad;" horiz-adv-x="812" 
d="M214 534q-54 0 -92 38t-38 92t38 92t92 38h384q54 0 92 -38t38 -92t-38 -92t-92 -38h-384z" />
    <glyph glyph-name="registered" unicode="&#xae;" horiz-adv-x="1636" 
d="M306 1212q212 212 512 212t512 -212t212 -512t-212 -512t-512 -212t-512 212t-212 512t212 512zM1251 1139q-179 181 -433 181t-433 -181t-179 -439t179 -439t433 -181t433 181t179 439t-179 439zM814 760q82 0 82 72t-82 72h-46v-144h46zM858 1088q124 0 203 -68
q81 -70 81 -184q0 -132 -126 -204l114 -156q26 -36 26 -68q0 -46 -33 -76t-83 -30q-60 0 -102 62l-170 250v-190q0 -51 -36 -86q-37 -36 -88 -36t-86 36q-36 35 -36 86v542q0 51 36 87q35 35 86 35h214z" />
    <glyph glyph-name="macron" unicode="&#xaf;" horiz-adv-x="1000" 
d="M5 1367q29 29 69 29h852q41 0 69 -29q29 -28 29 -69q0 -40 -29 -69q-28 -29 -69 -29h-852q-40 0 -69 29t-29 69q0 41 29 69z" />
    <glyph glyph-name="degree" unicode="&#xb0;" horiz-adv-x="800" 
d="M601 951q-83 -79 -201 -79t-200 79q-84 80 -84 197t84 197q82 79 200 79t201 -79q83 -80 83 -197t-83 -197zM326 1074q30 -30 74 -30t74 30q30 29 30 74t-30 75q-30 29 -74 29t-74 -29q-30 -30 -30 -75t30 -74z" />
    <glyph glyph-name="plusminus" unicode="&#xb1;" horiz-adv-x="1260" 
d="M784 708v-216q0 -64 -45 -109q-44 -45 -109 -45q-64 0 -109 45t-45 109v216h-242q-54 0 -92 38t-38 92t38 92t92 38h242v214q0 65 45 109q45 45 109 45q65 0 109 -45q45 -44 45 -109v-214h242q54 0 92 -38t38 -92t-38 -92t-92 -38h-242zM234 28q-54 0 -92 38t-38 92
t38 92t92 38h792q54 0 92 -38t38 -92t-38 -92t-92 -38h-792z" />
    <glyph glyph-name="uni00B2" unicode="&#xb2;" 
d="M104 1250q42 81 122 128q79 46 178 46q131 0 215 -82q81 -79 81 -200q0 -128 -92 -246l-160 -204h188q44 0 74 -30t30 -74q0 -43 -30 -74q-30 -30 -74 -30h-480q-30 0 -51 18t-21 46q0 29 18 54l294 382q68 87 68 148q0 35 -24 58q-25 24 -62 24q-61 0 -102 -70
q-27 -48 -90 -48q-41 0 -68 27q-28 27 -28 69q0 33 14 58z" />
    <glyph glyph-name="uni00B3" unicode="&#xb3;" 
d="M64 664q0 44 30 74q29 28 72 28t78 -38q51 -60 118 -60q47 0 79 29q33 31 33 83q0 55 -43 89q-43 33 -107 33h-16q-27 0 -45 19q-19 18 -19 45q0 24 16 46l130 184h-188q-42 0 -72 30t-30 72t30 72t72 30h430q30 0 51 -18t21 -46q0 -29 -18 -54l-172 -242
q97 -34 150 -107q52 -73 52 -171q0 -126 -87 -211q-93 -91 -249 -91q-180 0 -288 126q-28 32 -28 78z" />
    <glyph glyph-name="acute" unicode="&#xb4;" horiz-adv-x="836" 
d="M608 1322l-256 -206q-31 -24 -66 -24q-41 0 -71 30q-29 29 -29 68q0 49 38 80l256 212q31 24 68 24q40 0 71 -31t31 -73q0 -48 -42 -80z" />
    <glyph glyph-name="mu" unicode="&#xb5;" horiz-adv-x="1148" 
d="M528 4q-56 0 -94 22v-278q0 -66 -46 -112t-112 -46t-112 46t-46 112v1054q0 66 46 112t112 46t112 -46t46 -112v-406q0 -64 41 -106q40 -42 99 -42t99 42q41 42 41 106v406q0 66 46 112t112 46t112 -46t46 -112v-668q0 -66 -46 -112t-112 -46t-112 46t-46 112
q-59 -130 -186 -130z" />
    <glyph glyph-name="paragraph" unicode="&#xb6;" horiz-adv-x="1256" 
d="M1106 -168q0 -49 -34 -84q-34 -34 -84 -34q-49 0 -84 34q-34 35 -34 84v1336h-86v-1336q0 -49 -34 -84q-34 -34 -84 -34q-49 0 -84 34q-34 35 -34 84v700h-18q-196 0 -328 114q-140 121 -140 320t140 321q132 113 328 113h458q50 0 84 -34t34 -84v-1450z" />
    <glyph glyph-name="periodcentered" unicode="&#xb7;" horiz-adv-x="628" 
d="M180 804q56 56 134 56t134 -56q56 -57 56 -136t-56 -136q-56 -56 -134 -56t-134 56q-56 57 -56 136t56 136z" />
    <glyph glyph-name="cedilla" unicode="&#xb8;" horiz-adv-x="836" 
d="M476 -92q63 -19 100 -63q38 -48 38 -115q0 -86 -66 -144q-71 -62 -184 -62q-87 0 -154 32q-50 23 -50 76q0 33 23 55q22 21 55 21q22 0 38 -8q27 -12 54 -12q68 0 68 54q0 60 -106 66q-30 0 -30 24q0 12 6 24l70 148h184z" />
    <glyph glyph-name="uni00B9" unicode="&#xb9;" 
d="M180 1256l268 150q32 18 62 18t51 -20q23 -22 23 -56v-758q0 -49 -35 -85q-35 -35 -85 -35q-49 0 -85 35q-35 36 -35 85v528l-80 -44q-21 -12 -48 -12q-42 0 -71 29t-29 71q0 58 64 94z" />
    <glyph glyph-name="ordmasculine" unicode="&#xba;" horiz-adv-x="920" 
d="M727 806q-112 -106 -269 -106q-155 0 -265 106q-111 106 -111 256t111 256q110 106 265 106q157 0 269 -106q111 -106 111 -256t-111 -256zM355 957q43 -43 105 -43t105 43q43 42 43 105t-43 106q-43 42 -105 42t-105 -42q-43 -43 -43 -106t43 -105z" />
    <glyph glyph-name="guillemotright" unicode="&#xbb;" horiz-adv-x="1224" 
d="M628 574l-390 -278q-24 -18 -60 -18q-40 0 -70 30t-30 70q0 53 42 82l238 164l-238 164q-42 29 -42 82q0 41 30 70q30 30 70 30q36 0 60 -18l390 -278q32 -22 32 -50t-32 -50zM1140 574l-390 -278q-24 -18 -60 -18q-40 0 -70 30t-30 70q0 53 42 82l238 164l-238 164
q-42 29 -42 82q0 41 30 70q30 30 70 30q36 0 60 -18l390 -278q32 -22 32 -50t-32 -50z" />
    <glyph glyph-name="onequarter" unicode="&#xbc;" horiz-adv-x="1966" 
d="M168 1256l268 150q32 18 62 18t51 -20q23 -22 23 -56v-758q0 -49 -35 -85q-35 -35 -85 -35q-49 0 -85 35q-35 36 -35 85v528l-80 -44q-21 -12 -48 -12q-42 0 -71 29t-29 71q0 58 64 94zM1218 1364q30 60 80 60q34 0 62 -24t28 -58q0 -20 -12 -44l-676 -1262
q-30 -60 -80 -60q-34 0 -61 24q-29 24 -29 58q0 20 12 44zM1132 276l430 618q38 50 88 50q44 0 73 -29t29 -73v-482h12q41 0 69 -29q29 -28 29 -69q0 -40 -29 -69q-28 -29 -69 -29h-12v-56q0 -45 -32 -77q-33 -33 -78 -33t-77 33q-33 32 -33 77v56h-342q-30 0 -50 20t-20 50
q0 24 12 42zM1532 360v222l-152 -222h152z" />
    <glyph glyph-name="onehalf" unicode="&#xbd;" horiz-adv-x="1968" 
d="M168 1256l268 150q32 18 62 18t51 -20q23 -22 23 -56v-758q0 -49 -35 -85q-35 -35 -85 -35q-49 0 -85 35q-35 36 -35 85v528l-80 -44q-21 -12 -48 -12q-42 0 -71 29t-29 71q0 58 64 94zM1218 1364q30 60 80 60q34 0 62 -24t28 -58q0 -20 -12 -44l-676 -1262
q-30 -60 -80 -60q-34 0 -61 24q-29 24 -29 58q0 20 12 44zM1244 772q42 81 122 128q79 46 178 46q131 0 215 -82q81 -79 81 -200q0 -128 -92 -246l-160 -204h188q44 0 74 -30t30 -74q0 -43 -30 -74q-30 -30 -74 -30h-480q-30 0 -51 18t-21 46q0 29 18 54l294 382
q68 87 68 148q0 35 -24 58q-25 24 -62 24q-61 0 -102 -70q-27 -48 -90 -48q-41 0 -68 27q-28 27 -28 69q0 33 14 58z" />
    <glyph glyph-name="threequarters" unicode="&#xbe;" horiz-adv-x="1972" 
d="M58 664q0 44 30 74q29 28 72 28t78 -38q51 -60 118 -60q47 0 79 29q33 31 33 83q0 55 -43 89q-43 33 -107 33h-16q-27 0 -45 19q-19 18 -19 45q0 24 16 46l130 184h-188q-42 0 -72 30t-30 72t30 72t72 30h430q30 0 51 -18t21 -46q0 -29 -18 -54l-172 -242
q97 -34 150 -107q52 -73 52 -171q0 -126 -87 -211q-93 -91 -249 -91q-180 0 -288 126q-28 32 -28 78zM1224 1364q30 60 80 60q34 0 62 -24t28 -58q0 -20 -12 -44l-676 -1262q-30 -60 -80 -60q-34 0 -61 24q-29 24 -29 58q0 20 12 44zM1138 270l430 618q38 50 88 50
q44 0 73 -29t29 -73v-482h12q41 0 69 -29q29 -28 29 -69q0 -40 -29 -69q-28 -29 -69 -29h-12v-56q0 -45 -32 -77q-33 -33 -78 -33t-77 33q-33 32 -33 77v56h-342q-30 0 -50 20t-20 50q0 24 12 42zM1538 354v222l-152 -222h152z" />
    <glyph glyph-name="questiondown" unicode="&#xbf;" horiz-adv-x="1066" 
d="M924 -336q-140 -160 -386 -160q-211 0 -341 102q-125 98 -125 248q0 136 77 228q65 78 211 146q92 42 128 69q34 26 34 55q0 50 -72 50q-25 0 -52 -8q-18 -6 -30 -6q-27 0 -43 19q-17 18 -17 45q0 36 36 54q75 36 174 36q121 0 195 -64q71 -62 71 -160q0 -163 -190 -264
q-94 -48 -132 -82q-42 -37 -42 -76q0 -49 37 -76q36 -26 97 -26q80 0 136 56q60 60 130 60q61 0 104 -40q44 -40 44 -98q0 -60 -44 -108zM396 903q55 49 136 49t136 -49q56 -50 56 -125t-56 -125q-55 -49 -136 -49t-136 49q-56 50 -56 125t56 125z" />
    <glyph glyph-name="Agrave" unicode="&#xc0;" horiz-adv-x="1368" 
d="M808 1334l482 -1112q18 -43 18 -82q0 -69 -47 -116q-48 -48 -117 -48q-117 0 -166 118l-50 124h-488l-50 -124q-49 -118 -166 -118q-69 0 -116 48q-48 47 -48 116q0 39 18 82l482 1112q39 90 124 90t124 -90zM552 494h264l-132 326zM418 1883q31 31 70 31q37 0 68 -24
l256 -212q38 -31 38 -80q0 -39 -29 -68q-29 -30 -71 -30q-35 0 -66 24l-256 206q-42 32 -42 80q0 42 32 73z" />
    <glyph glyph-name="Aacute" unicode="&#xc1;" horiz-adv-x="1368" 
d="M808 1334l482 -1112q18 -43 18 -82q0 -69 -47 -116q-48 -48 -117 -48q-117 0 -166 118l-50 124h-488l-50 -124q-49 -118 -166 -118q-69 0 -116 48q-48 47 -48 116q0 39 18 82l482 1112q39 90 124 90t124 -90zM552 494h264l-132 326zM940 1730l-256 -206q-31 -24 -66 -24
q-41 0 -71 30q-29 29 -29 68q0 49 38 80l256 212q31 24 68 24q40 0 71 -31t31 -73q0 -48 -42 -80z" />
    <glyph glyph-name="Acircumflex" unicode="&#xc2;" horiz-adv-x="1368" 
d="M808 1334l482 -1112q18 -43 18 -82q0 -69 -47 -116q-48 -48 -117 -48q-117 0 -166 118l-50 124h-488l-50 -124q-49 -118 -166 -118q-69 0 -116 48q-48 47 -48 116q0 39 18 82l482 1112q39 90 124 90t124 -90zM552 494h264l-132 326zM684 1678l-164 -136q-31 -28 -74 -28
q-39 0 -68 30q-30 29 -30 68q0 47 44 84l254 212q19 16 38 16t38 -16l254 -212q44 -37 44 -84q0 -39 -29 -68q-30 -30 -69 -30q-43 0 -74 28z" />
    <glyph glyph-name="Atilde" unicode="&#xc3;" horiz-adv-x="1368" 
d="M808 1334l482 -1112q18 -43 18 -82q0 -69 -47 -116q-48 -48 -117 -48q-117 0 -166 118l-50 124h-488l-50 -124q-49 -118 -166 -118q-69 0 -116 48q-48 47 -48 116q0 39 18 82l482 1112q39 90 124 90t124 -90zM552 494h264l-132 326zM654 1622q-47 38 -82 38
q-30 0 -50 -42q-11 -24 -35 -40q-25 -16 -53 -16q-37 0 -65 27q-27 28 -27 65q0 16 6 34q24 78 80 125q56 45 124 45q78 0 162 -68q48 -38 82 -38q30 0 50 42q11 24 35 40q25 16 53 16q38 0 65 -27t27 -65q0 -16 -6 -34q-24 -78 -80 -125q-56 -45 -124 -45q-78 0 -162 68z
" />
    <glyph glyph-name="Adieresis" unicode="&#xc4;" horiz-adv-x="1368" 
d="M808 1334l482 -1112q18 -43 18 -82q0 -69 -47 -116q-48 -48 -117 -48q-117 0 -166 118l-50 124h-488l-50 -124q-49 -118 -166 -118q-69 0 -116 48q-48 47 -48 116q0 39 18 82l482 1112q39 90 124 90t124 -90zM552 494h264l-132 326zM388 1802q39 40 96 40t97 -40
q39 -40 39 -96t-39 -96q-40 -40 -97 -40t-96 40q-40 40 -40 96t40 96zM788 1802q39 40 96 40t97 -40q39 -40 39 -96t-39 -96q-40 -40 -97 -40t-96 40q-40 40 -40 96t40 96z" />
    <glyph glyph-name="Aring" unicode="&#xc5;" horiz-adv-x="1368" 
d="M808 1334l482 -1112q18 -43 18 -82q0 -69 -47 -116q-48 -48 -117 -48q-117 0 -166 118l-50 124h-488l-50 -124q-49 -118 -166 -118q-69 0 -116 48q-48 47 -48 116q0 39 18 82l482 1112q39 90 124 90t124 -90zM552 494h264l-132 326zM843 1550q-66 -62 -159 -62t-159 62
q-67 63 -67 156t67 156q66 62 159 62t159 -62q67 -63 67 -156t-67 -156zM740 1762q-23 22 -56 22t-55 -22q-23 -23 -23 -56t23 -55q22 -23 55 -23t56 23q22 22 22 55t-22 56z" />
    <glyph glyph-name="AE" unicode="&#xc6;" horiz-adv-x="1760" 
d="M1042 0q-72 0 -123 51t-51 123v44h-360l-86 -154q-23 -40 -63 -63q-42 -25 -89 -25q-71 0 -119 46q-51 47 -51 120q0 47 32 104l574 1020q41 71 92 102q53 32 134 32h592q66 0 110 -44q44 -45 44 -114q0 -66 -44 -110t-110 -44h-308v-188h264q66 0 110 -44
q44 -45 44 -114q0 -66 -44 -110t-110 -44h-264v-276h326q66 0 110 -44q44 -45 44 -114q0 -66 -44 -110t-110 -44h-500zM664 494h204v360z" />
    <glyph glyph-name="Ccedilla" unicode="&#xc7;" horiz-adv-x="1462" 
d="M300 1221q216 203 518 203q308 0 520 -192q64 -60 64 -132q0 -69 -46 -115q-47 -47 -116 -47q-70 0 -130 60q-121 114 -284 114q-166 0 -282 -118q-118 -120 -118 -294t118 -294q116 -118 282 -118q163 0 284 114q60 60 130 60q69 0 116 -46q46 -47 46 -116
q0 -72 -64 -132q-177 -161 -438 -188l-34 -72q63 -19 100 -63q38 -48 38 -115q0 -86 -66 -144q-71 -62 -184 -62q-87 0 -154 32q-50 23 -50 76q0 33 23 55q22 21 55 21q22 0 38 -8q27 -12 54 -12q68 0 68 54q0 60 -106 66q-30 0 -30 24q0 12 6 24l60 128q-271 34 -452 229
q-188 203 -188 487q0 311 222 521z" />
    <glyph glyph-name="Egrave" unicode="&#xc8;" horiz-adv-x="1024" 
d="M788 1400q66 0 110 -44q44 -45 44 -114q0 -66 -44 -110t-110 -44h-308v-188h264q66 0 110 -44q44 -45 44 -114q0 -66 -44 -110t-110 -44h-264v-276h326q66 0 110 -44q44 -45 44 -114q0 -66 -44 -110t-110 -44h-500q-72 0 -123 51t-51 123v1052q0 72 51 123t123 51h482z
M320 1883q31 31 70 31q37 0 68 -24l256 -212q38 -31 38 -80q0 -39 -29 -68q-29 -30 -71 -30q-35 0 -66 24l-256 206q-42 32 -42 80q0 42 32 73z" />
    <glyph glyph-name="Eacute" unicode="&#xc9;" horiz-adv-x="1024" 
d="M788 1400q66 0 110 -44q44 -45 44 -114q0 -66 -44 -110t-110 -44h-308v-188h264q66 0 110 -44q44 -45 44 -114q0 -66 -44 -110t-110 -44h-264v-276h326q66 0 110 -44q44 -45 44 -114q0 -66 -44 -110t-110 -44h-500q-72 0 -123 51t-51 123v1052q0 72 51 123t123 51h482z
M734 1730l-256 -206q-31 -24 -66 -24q-41 0 -71 30q-29 29 -29 68q0 49 38 80l256 212q31 24 68 24q40 0 71 -31t31 -73q0 -48 -42 -80z" />
    <glyph glyph-name="Ecircumflex" unicode="&#xca;" horiz-adv-x="1024" 
d="M788 1400q66 0 110 -44q44 -45 44 -114q0 -66 -44 -110t-110 -44h-308v-188h264q66 0 110 -44q44 -45 44 -114q0 -66 -44 -110t-110 -44h-264v-276h326q66 0 110 -44q44 -45 44 -114q0 -66 -44 -110t-110 -44h-500q-72 0 -123 51t-51 123v1052q0 72 51 123t123 51h482z
M520 1678l-164 -136q-31 -28 -74 -28q-39 0 -68 30q-30 29 -30 68q0 47 44 84l254 212q19 16 38 16t38 -16l254 -212q44 -37 44 -84q0 -39 -29 -68q-30 -30 -69 -30q-43 0 -74 28z" />
    <glyph glyph-name="Edieresis" unicode="&#xcb;" horiz-adv-x="1024" 
d="M788 1400q66 0 110 -44q44 -45 44 -114q0 -66 -44 -110t-110 -44h-308v-188h264q66 0 110 -44q44 -45 44 -114q0 -66 -44 -110t-110 -44h-264v-276h326q66 0 110 -44q44 -45 44 -114q0 -66 -44 -110t-110 -44h-500q-72 0 -123 51t-51 123v1052q0 72 51 123t123 51h482z
M226 1802q39 40 96 40t97 -40q39 -40 39 -96t-39 -96q-40 -40 -97 -40t-96 40q-40 40 -40 96t40 96zM626 1802q39 40 96 40t97 -40q39 -40 39 -96t-39 -96q-40 -40 -97 -40t-96 40q-40 40 -40 96t40 96z" />
    <glyph glyph-name="Igrave" unicode="&#xcc;" horiz-adv-x="644" 
d="M496 150q0 -72 -51 -123t-123 -51t-123 51t-51 123v1100q0 72 51 123t123 51t123 -51t51 -123v-1100zM46 1883q31 31 70 31q37 0 68 -24l256 -212q38 -31 38 -80q0 -39 -29 -68q-29 -30 -71 -30q-35 0 -66 24l-256 206q-42 32 -42 80q0 42 32 73z" />
    <glyph glyph-name="Iacute" unicode="&#xcd;" horiz-adv-x="644" 
d="M496 150q0 -72 -51 -123t-123 -51t-123 51t-51 123v1100q0 72 51 123t123 51t123 -51t51 -123v-1100zM588 1730l-256 -206q-31 -24 -66 -24q-41 0 -71 30q-29 29 -29 68q0 49 38 80l256 212q31 24 68 24q40 0 71 -31t31 -73q0 -48 -42 -80z" />
    <glyph glyph-name="Icircumflex" unicode="&#xce;" horiz-adv-x="644" 
d="M496 150q0 -72 -51 -123t-123 -51t-123 51t-51 123v1100q0 72 51 123t123 51t123 -51t51 -123v-1100zM322 1678l-164 -136q-31 -28 -74 -28q-39 0 -68 30q-30 29 -30 68q0 47 44 84l254 212q19 16 38 16t38 -16l254 -212q44 -37 44 -84q0 -39 -29 -68q-30 -30 -69 -30
q-43 0 -74 28z" />
    <glyph glyph-name="Idieresis" unicode="&#xcf;" horiz-adv-x="644" 
d="M496 150q0 -72 -51 -123t-123 -51t-123 51t-51 123v1100q0 72 51 123t123 51t123 -51t51 -123v-1100zM26 1802q39 40 96 40t97 -40q39 -40 39 -96t-39 -96q-40 -40 -97 -40t-96 40q-40 40 -40 96t40 96zM426 1802q39 40 96 40t97 -40q39 -40 39 -96t-39 -96
q-40 -40 -97 -40t-96 40q-40 40 -40 96t40 96z" />
    <glyph glyph-name="Eth" unicode="&#xd0;" horiz-adv-x="1408" 
d="M36 761q27 27 64 27h66v438q0 72 51 123t123 51h252q315 0 523 -191q213 -197 213 -509t-213 -509q-208 -191 -523 -191h-252q-72 0 -123 51t-51 123v432h-66q-37 0 -64 26q-26 27 -26 64q0 38 26 65zM877 983q-103 105 -277 105h-86v-300h150q38 0 65 -27t27 -65
q0 -37 -27 -64q-27 -26 -65 -26h-150v-294h86q174 0 277 106q103 105 103 282t-103 283z" />
    <glyph glyph-name="Ntilde" unicode="&#xd1;" horiz-adv-x="1466" 
d="M986 646v604q0 72 51 123t123 51t123 -51t51 -123v-1154q0 -56 -30 -88q-29 -32 -78 -32q-64 0 -106 48l-640 730v-604q0 -72 -51 -123t-123 -51t-123 51t-51 123v1154q0 56 30 89q29 31 78 31q64 0 106 -48zM702 1622q-47 38 -82 38q-30 0 -50 -42q-11 -24 -35 -40
q-25 -16 -53 -16q-37 0 -65 27q-27 28 -27 65q0 16 6 34q24 78 80 125q56 45 124 45q78 0 162 -68q48 -38 82 -38q30 0 50 42q11 24 35 40q25 16 53 16q38 0 65 -27t27 -65q0 -16 -6 -34q-24 -78 -80 -125q-56 -45 -124 -45q-78 0 -162 68z" />
    <glyph glyph-name="Ograve" unicode="&#xd2;" horiz-adv-x="1656" 
d="M1355 181q-219 -205 -527 -205t-526 205q-224 209 -224 519t224 520q218 204 526 204t527 -204q223 -210 223 -520t-223 -519zM543 406q116 -118 285 -118t285 118q117 119 117 294t-117 294q-116 118 -285 118t-285 -118q-117 -119 -117 -294t117 -294zM566 1883
q31 31 70 31q37 0 68 -24l256 -212q38 -31 38 -80q0 -39 -29 -68q-29 -30 -71 -30q-35 0 -66 24l-256 206q-42 32 -42 80q0 42 32 73z" />
    <glyph glyph-name="Oacute" unicode="&#xd3;" horiz-adv-x="1656" 
d="M1355 181q-219 -205 -527 -205t-526 205q-224 209 -224 519t224 520q218 204 526 204t527 -204q223 -210 223 -520t-223 -519zM543 406q116 -118 285 -118t285 118q117 119 117 294t-117 294q-116 118 -285 118t-285 -118q-117 -119 -117 -294t117 -294zM1080 1730
l-256 -206q-31 -24 -66 -24q-41 0 -71 30q-29 29 -29 68q0 49 38 80l256 212q31 24 68 24q40 0 71 -31t31 -73q0 -48 -42 -80z" />
    <glyph glyph-name="Ocircumflex" unicode="&#xd4;" horiz-adv-x="1656" 
d="M1355 181q-219 -205 -527 -205t-526 205q-224 209 -224 519t224 520q218 204 526 204t527 -204q223 -210 223 -520t-223 -519zM543 406q116 -118 285 -118t285 118q117 119 117 294t-117 294q-116 118 -285 118t-285 -118q-117 -119 -117 -294t117 -294zM828 1678
l-164 -136q-31 -28 -74 -28q-39 0 -68 30q-30 29 -30 68q0 47 44 84l254 212q19 16 38 16t38 -16l254 -212q44 -37 44 -84q0 -39 -29 -68q-30 -30 -69 -30q-43 0 -74 28z" />
    <glyph glyph-name="Otilde" unicode="&#xd5;" horiz-adv-x="1656" 
d="M1355 181q-219 -205 -527 -205t-526 205q-224 209 -224 519t224 520q218 204 526 204t527 -204q223 -210 223 -520t-223 -519zM543 406q116 -118 285 -118t285 118q117 119 117 294t-117 294q-116 118 -285 118t-285 -118q-117 -119 -117 -294t117 -294zM798 1622
q-47 38 -82 38q-30 0 -50 -42q-11 -24 -35 -40q-25 -16 -53 -16q-37 0 -65 27q-27 28 -27 65q0 16 6 34q24 78 80 125q56 45 124 45q78 0 162 -68q48 -38 82 -38q30 0 50 42q11 24 35 40q25 16 53 16q38 0 65 -27t27 -65q0 -16 -6 -34q-24 -78 -80 -125q-56 -45 -124 -45
q-78 0 -162 68z" />
    <glyph glyph-name="Odieresis" unicode="&#xd6;" horiz-adv-x="1656" 
d="M1355 181q-219 -205 -527 -205t-526 205q-224 209 -224 519t224 520q218 204 526 204t527 -204q223 -210 223 -520t-223 -519zM543 406q116 -118 285 -118t285 118q117 119 117 294t-117 294q-116 118 -285 118t-285 -118q-117 -119 -117 -294t117 -294zM532 1802
q39 40 96 40t97 -40q39 -40 39 -96t-39 -96q-40 -40 -97 -40t-96 40q-40 40 -40 96t40 96zM932 1802q39 40 96 40t97 -40q39 -40 39 -96t-39 -96q-40 -40 -97 -40t-96 40q-40 40 -40 96t40 96z" />
    <glyph glyph-name="multiply" unicode="&#xd7;" horiz-adv-x="1260" 
d="M184 894q-50 47 -50 112q0 64 45 109q44 45 107 45q64 0 110 -46l234 -232l234 232q46 46 110 46q63 0 108 -45q44 -45 44 -109q0 -65 -50 -112l-230 -228l230 -228q50 -47 50 -112q0 -64 -44 -109q-45 -45 -108 -45q-64 0 -110 46l-234 232l-234 -232q-46 -46 -110 -46
q-63 0 -107 45q-45 45 -45 109q0 65 50 112l230 228z" />
    <glyph glyph-name="Oslash" unicode="&#xd8;" horiz-adv-x="1656" 
d="M1355 181q-219 -205 -527 -205q-157 0 -302 60l-112 -198q-18 -32 -56 -32q-26 0 -46 20q-20 19 -20 46q0 16 8 32l108 192q-153 97 -239 251q-91 161 -91 353q0 310 224 520q218 204 526 204q155 0 300 -60l116 202q18 32 56 32q26 0 46 -19q20 -20 20 -47q0 -16 -8 -32
l-112 -196q153 -97 240 -252q92 -162 92 -352q0 -310 -223 -519zM1084 1020l-400 -706q64 -26 144 -26q169 0 285 118q117 119 117 294q0 200 -146 320zM570 380l400 706q-71 26 -142 26q-169 0 -285 -118q-117 -119 -117 -294q0 -199 144 -320z" />
    <glyph glyph-name="Ugrave" unicode="&#xd9;" horiz-adv-x="1348" 
d="M1216 522q0 -249 -165 -403q-154 -143 -377 -143t-377 143q-165 154 -165 403v728q0 72 51 123t123 51t123 -51t51 -123v-738q0 -105 54 -165q52 -59 140 -59t141 59q53 60 53 165v738q0 72 51 123t123 51t123 -51t51 -123v-728zM426 1883q31 31 70 31q37 0 68 -24
l256 -212q38 -31 38 -80q0 -39 -29 -68q-29 -30 -71 -30q-35 0 -66 24l-256 206q-42 32 -42 80q0 42 32 73z" />
    <glyph glyph-name="Uacute" unicode="&#xda;" horiz-adv-x="1348" 
d="M1216 522q0 -249 -165 -403q-154 -143 -377 -143t-377 143q-165 154 -165 403v728q0 72 51 123t123 51t123 -51t51 -123v-738q0 -105 54 -165q52 -59 140 -59t141 59q53 60 53 165v738q0 72 51 123t123 51t123 -51t51 -123v-728zM912 1730l-256 -206q-31 -24 -66 -24
q-41 0 -71 30q-29 29 -29 68q0 49 38 80l256 212q31 24 68 24q40 0 71 -31t31 -73q0 -48 -42 -80z" />
    <glyph glyph-name="Ucircumflex" unicode="&#xdb;" horiz-adv-x="1348" 
d="M1216 522q0 -249 -165 -403q-154 -143 -377 -143t-377 143q-165 154 -165 403v728q0 72 51 123t123 51t123 -51t51 -123v-738q0 -105 54 -165q52 -59 140 -59t141 59q53 60 53 165v738q0 72 51 123t123 51t123 -51t51 -123v-728zM674 1678l-164 -136q-31 -28 -74 -28
q-39 0 -68 30q-30 29 -30 68q0 47 44 84l254 212q19 16 38 16t38 -16l254 -212q44 -37 44 -84q0 -39 -29 -68q-30 -30 -69 -30q-43 0 -74 28z" />
    <glyph glyph-name="Udieresis" unicode="&#xdc;" horiz-adv-x="1348" 
d="M1216 522q0 -249 -165 -403q-154 -143 -377 -143t-377 143q-165 154 -165 403v728q0 72 51 123t123 51t123 -51t51 -123v-738q0 -105 54 -165q52 -59 140 -59t141 59q53 60 53 165v738q0 72 51 123t123 51t123 -51t51 -123v-728zM378 1802q39 40 96 40t97 -40
q39 -40 39 -96t-39 -96q-40 -40 -97 -40t-96 40q-40 40 -40 96t40 96zM778 1802q39 40 96 40t97 -40q39 -40 39 -96t-39 -96q-40 -40 -97 -40t-96 40q-40 40 -40 96t40 96z" />
    <glyph glyph-name="Yacute" unicode="&#xdd;" horiz-adv-x="1360" 
d="M557 27q-51 51 -51 123v392l-408 628q-26 39 -26 94q0 63 48 111q50 49 116 49q94 0 156 -96l288 -464l288 464q62 96 156 96q67 0 116 -49q48 -48 48 -111q0 -55 -26 -94l-408 -628v-392q0 -72 -51 -123t-123 -51t-123 51zM950 1730l-256 -206q-31 -24 -66 -24
q-41 0 -71 30q-29 29 -29 68q0 49 38 80l256 212q31 24 68 24q40 0 71 -31t31 -73q0 -48 -42 -80z" />
    <glyph glyph-name="Thorn" unicode="&#xde;" horiz-adv-x="1166" 
d="M480 528h60q106 0 167 41q67 46 67 139t-67 139q-61 41 -167 41h-60v-360zM132 1250q0 72 51 123t123 51t123 -51t51 -123v-70h94q233 0 384 -127q156 -132 156 -345t-156 -345q-151 -127 -384 -127h-94v-86q0 -72 -51 -123t-123 -51t-123 51t-51 123v1100z" />
    <glyph glyph-name="germandbls" unicode="&#xdf;" horiz-adv-x="1198" 
d="M555 222q41 42 99 42h28q67 0 107 48q41 49 41 132q0 174 -178 230q-44 11 -72 45q-28 35 -28 81q0 79 68 118q82 46 82 156q0 60 -34 99t-88 39q-57 0 -93 -41q-39 -45 -39 -121v-916q0 -66 -46 -112t-112 -46t-112 46t-46 112v898q0 213 123 341q122 127 329 127
q190 0 315 -116q119 -111 119 -268q0 -96 -44 -176q-43 -78 -116 -122q129 -51 206 -158q82 -114 82 -262q0 -193 -111 -308q-111 -114 -299 -114q-46 0 -88 6q-58 8 -95 45q-39 39 -39 95q0 59 41 100z" />
    <glyph glyph-name="agrave" unicode="&#xe0;" horiz-adv-x="1284" 
d="M1166 134q0 -66 -46 -112t-112 -46q-64 0 -109 42q-44 42 -49 104q-45 -63 -123 -102q-87 -44 -187 -44q-196 0 -330 142q-136 142 -136 350t136 350q134 142 330 142q100 0 187 -44q78 -39 123 -102q5 62 49 104q45 42 109 42q66 0 112 -46t46 -112v-668zM774 625
q-64 63 -156 63t-156 -63q-64 -64 -64 -157t64 -156q64 -64 156 -64t156 64q64 63 64 156t-64 157zM424 1435q31 31 70 31q37 0 68 -24l256 -212q38 -31 38 -80q0 -39 -29 -68q-29 -30 -71 -30q-35 0 -66 24l-256 206q-42 32 -42 80q0 42 32 73z" />
    <glyph glyph-name="aacute" unicode="&#xe1;" horiz-adv-x="1284" 
d="M1166 134q0 -66 -46 -112t-112 -46q-64 0 -109 42q-44 42 -49 104q-45 -63 -123 -102q-87 -44 -187 -44q-196 0 -330 142q-136 142 -136 350t136 350q134 142 330 142q100 0 187 -44q78 -39 123 -102q5 62 49 104q45 42 109 42q66 0 112 -46t46 -112v-668zM774 625
q-64 63 -156 63t-156 -63q-64 -64 -64 -157t64 -156q64 -64 156 -64t156 64q64 63 64 156t-64 157zM836 1282l-256 -206q-31 -24 -66 -24q-41 0 -71 30q-29 29 -29 68q0 49 38 80l256 212q31 24 68 24q40 0 71 -31t31 -73q0 -48 -42 -80z" />
    <glyph glyph-name="acircumflex" unicode="&#xe2;" horiz-adv-x="1284" 
d="M1166 134q0 -66 -46 -112t-112 -46q-64 0 -109 42q-44 42 -49 104q-45 -63 -123 -102q-87 -44 -187 -44q-196 0 -330 142q-136 142 -136 350t136 350q134 142 330 142q100 0 187 -44q78 -39 123 -102q5 62 49 104q45 42 109 42q66 0 112 -46t46 -112v-668zM774 625
q-64 63 -156 63t-156 -63q-64 -64 -64 -157t64 -156q64 -64 156 -64t156 64q64 63 64 156t-64 157zM642 1230l-164 -136q-31 -28 -74 -28q-39 0 -68 30q-30 29 -30 68q0 47 44 84l254 212q19 16 38 16t38 -16l254 -212q44 -37 44 -84q0 -39 -29 -68q-30 -30 -69 -30
q-43 0 -74 28z" />
    <glyph glyph-name="atilde" unicode="&#xe3;" horiz-adv-x="1284" 
d="M1166 134q0 -66 -46 -112t-112 -46q-64 0 -109 42q-44 42 -49 104q-45 -63 -123 -102q-87 -44 -187 -44q-196 0 -330 142q-136 142 -136 350t136 350q134 142 330 142q100 0 187 -44q78 -39 123 -102q5 62 49 104q45 42 109 42q66 0 112 -46t46 -112v-668zM774 625
q-64 63 -156 63t-156 -63q-64 -64 -64 -157t64 -156q64 -64 156 -64t156 64q64 63 64 156t-64 157zM612 1174q-47 38 -82 38q-30 0 -50 -42q-11 -24 -35 -40q-25 -16 -53 -16q-37 0 -65 27q-27 28 -27 65q0 16 6 34q24 78 80 125q56 45 124 45q78 0 162 -68q48 -38 82 -38
q30 0 50 42q11 24 35 40q25 16 53 16q38 0 65 -27t27 -65q0 -16 -6 -34q-24 -78 -80 -125q-56 -45 -124 -45q-78 0 -162 68z" />
    <glyph glyph-name="adieresis" unicode="&#xe4;" horiz-adv-x="1284" 
d="M1166 134q0 -66 -46 -112t-112 -46q-64 0 -109 42q-44 42 -49 104q-45 -63 -123 -102q-87 -44 -187 -44q-196 0 -330 142q-136 142 -136 350t136 350q134 142 330 142q100 0 187 -44q78 -39 123 -102q5 62 49 104q45 42 109 42q66 0 112 -46t46 -112v-668zM774 625
q-64 63 -156 63t-156 -63q-64 -64 -64 -157t64 -156q64 -64 156 -64t156 64q64 63 64 156t-64 157zM348 1354q39 40 96 40t97 -40q39 -40 39 -96t-39 -96q-40 -40 -97 -40t-96 40q-40 40 -40 96t40 96zM748 1354q39 40 96 40t97 -40q39 -40 39 -96t-39 -96q-40 -40 -97 -40
t-96 40q-40 40 -40 96t40 96z" />
    <glyph glyph-name="aring" unicode="&#xe5;" horiz-adv-x="1284" 
d="M1166 134q0 -66 -46 -112t-112 -46q-64 0 -109 42q-44 42 -49 104q-45 -63 -123 -102q-87 -44 -187 -44q-196 0 -330 142q-136 142 -136 350t136 350q134 142 330 142q100 0 187 -44q78 -39 123 -102q5 62 49 104q45 42 109 42q66 0 112 -46t46 -112v-668zM774 625
q-64 63 -156 63t-156 -63q-64 -64 -64 -157t64 -156q64 -64 156 -64t156 64q64 63 64 156t-64 157zM805 1102q-66 -62 -159 -62t-159 62q-67 63 -67 156t67 156q66 62 159 62t159 -62q67 -63 67 -156t-67 -156zM702 1314q-23 22 -56 22t-55 -22q-23 -23 -23 -56t23 -55
q22 -23 55 -23t56 23q22 22 22 55t-22 56z" />
    <glyph glyph-name="ae" unicode="&#xe6;" horiz-adv-x="1774" 
d="M1402 590q-20 54 -70 87q-53 35 -122 35t-121 -35q-51 -33 -71 -87h384zM643 364q-42 28 -103 28t-103 -28q-43 -30 -43 -74t43 -73q42 -29 103 -29t103 29q43 29 43 73t-43 74zM1016 386q44 -142 210 -142q99 0 172 54q46 34 94 34q61 0 101 -39q39 -39 39 -97
q0 -67 -60 -114q-133 -106 -350 -106q-211 0 -346 144q-122 -144 -392 -144q-175 0 -289 87q-117 88 -117 227q0 138 102 228q98 86 240 86q164 0 266 -96v26q0 214 -222 214q-90 0 -186 -48q-27 -12 -54 -12q-42 0 -71 30t-29 72q0 66 72 102q139 68 302 68q253 0 370 -142
q60 69 151 106q87 36 181 36q195 0 338 -123q144 -124 166 -313q7 -62 -29 -100t-97 -38h-562z" />
    <glyph glyph-name="ccedilla" unicode="&#xe7;" horiz-adv-x="1032" 
d="M222 818q150 142 360 142q178 0 314 -98q72 -52 72 -132q0 -60 -43 -103q-44 -43 -107 -43q-50 0 -98 38q-62 50 -136 50q-79 0 -136 -55q-62 -60 -62 -149t62 -148q57 -56 136 -56q74 0 136 50q48 38 98 38q63 0 107 -43q43 -43 43 -103q0 -80 -72 -132
q-92 -65 -218 -88l-36 -78q63 -19 100 -63q38 -48 38 -115q0 -86 -66 -144q-71 -62 -184 -62q-87 0 -154 32q-50 23 -50 76q0 33 23 55q22 21 55 21q22 0 38 -8q27 -12 54 -12q68 0 68 54q0 60 -106 66q-30 0 -30 24q0 12 6 24l60 128q-181 29 -301 164q-123 138 -123 320
q0 205 152 350z" />
    <glyph glyph-name="egrave" unicode="&#xe8;" horiz-adv-x="1160" 
d="M1061 424q-36 -38 -97 -38h-562q44 -142 210 -142q99 0 172 54q46 34 94 34q61 0 101 -39q39 -39 39 -97q0 -67 -60 -114q-133 -106 -350 -106q-239 0 -390 140q-148 137 -148 352q0 208 151 350q150 142 365 142q195 0 338 -123q144 -124 166 -313q7 -62 -29 -100z
M788 590q-20 54 -70 87q-53 35 -122 35t-121 -35q-51 -33 -71 -87h384zM356 1435q31 31 70 31q37 0 68 -24l256 -212q38 -31 38 -80q0 -39 -29 -68q-29 -30 -71 -30q-35 0 -66 24l-256 206q-42 32 -42 80q0 42 32 73z" />
    <glyph glyph-name="eacute" unicode="&#xe9;" horiz-adv-x="1160" 
d="M1061 424q-36 -38 -97 -38h-562q44 -142 210 -142q99 0 172 54q46 34 94 34q61 0 101 -39q39 -39 39 -97q0 -67 -60 -114q-133 -106 -350 -106q-239 0 -390 140q-148 137 -148 352q0 208 151 350q150 142 365 142q195 0 338 -123q144 -124 166 -313q7 -62 -29 -100z
M788 590q-20 54 -70 87q-53 35 -122 35t-121 -35q-51 -33 -71 -87h384zM780 1282l-256 -206q-31 -24 -66 -24q-41 0 -71 30q-29 29 -29 68q0 49 38 80l256 212q31 24 68 24q40 0 71 -31t31 -73q0 -48 -42 -80z" />
    <glyph glyph-name="ecircumflex" unicode="&#xea;" horiz-adv-x="1160" 
d="M1061 424q-36 -38 -97 -38h-562q44 -142 210 -142q99 0 172 54q46 34 94 34q61 0 101 -39q39 -39 39 -97q0 -67 -60 -114q-133 -106 -350 -106q-239 0 -390 140q-148 137 -148 352q0 208 151 350q150 142 365 142q195 0 338 -123q144 -124 166 -313q7 -62 -29 -100z
M788 590q-20 54 -70 87q-53 35 -122 35t-121 -35q-51 -33 -71 -87h384zM574 1230l-164 -136q-31 -28 -74 -28q-39 0 -68 30q-30 29 -30 68q0 47 44 84l254 212q19 16 38 16t38 -16l254 -212q44 -37 44 -84q0 -39 -29 -68q-30 -30 -69 -30q-43 0 -74 28z" />
    <glyph glyph-name="edieresis" unicode="&#xeb;" horiz-adv-x="1160" 
d="M1061 424q-36 -38 -97 -38h-562q44 -142 210 -142q99 0 172 54q46 34 94 34q61 0 101 -39q39 -39 39 -97q0 -67 -60 -114q-133 -106 -350 -106q-239 0 -390 140q-148 137 -148 352q0 208 151 350q150 142 365 142q195 0 338 -123q144 -124 166 -313q7 -62 -29 -100z
M788 590q-20 54 -70 87q-53 35 -122 35t-121 -35q-51 -33 -71 -87h384zM278 1354q39 40 96 40t97 -40q39 -40 39 -96t-39 -96q-40 -40 -97 -40t-96 40q-40 40 -40 96t40 96zM678 1354q39 40 96 40t97 -40q39 -40 39 -96t-39 -96q-40 -40 -97 -40t-96 40q-40 40 -40 96t40 96
z" />
    <glyph glyph-name="igrave" unicode="&#xec;" horiz-adv-x="576" 
d="M130 802q0 66 46 112t112 46t112 -46t46 -112v-668q0 -66 -46 -112t-112 -46t-112 46t-46 112v668zM4 1435q31 31 70 31q37 0 68 -24l256 -212q38 -31 38 -80q0 -39 -29 -68q-29 -30 -71 -30q-35 0 -66 24l-256 206q-42 32 -42 80q0 42 32 73z" />
    <glyph glyph-name="iacute" unicode="&#xed;" horiz-adv-x="576" 
d="M130 802q0 66 46 112t112 46t112 -46t46 -112v-668q0 -66 -46 -112t-112 -46t-112 46t-46 112v668zM562 1282l-256 -206q-31 -24 -66 -24q-41 0 -71 30q-29 29 -29 68q0 49 38 80l256 212q31 24 68 24q40 0 71 -31t31 -73q0 -48 -42 -80z" />
    <glyph glyph-name="icircumflex" unicode="&#xee;" horiz-adv-x="576" 
d="M130 802q0 66 46 112t112 46t112 -46t46 -112v-668q0 -66 -46 -112t-112 -46t-112 46t-46 112v668zM288 1230l-164 -136q-31 -28 -74 -28q-39 0 -68 30q-30 29 -30 68q0 47 44 84l254 212q19 16 38 16t38 -16l254 -212q44 -37 44 -84q0 -39 -29 -68q-30 -30 -69 -30
q-43 0 -74 28z" />
    <glyph glyph-name="idieresis" unicode="&#xef;" horiz-adv-x="576" 
d="M130 802q0 66 46 112t112 46t112 -46t46 -112v-668q0 -66 -46 -112t-112 -46t-112 46t-46 112v668zM-8 1354q39 40 96 40t97 -40q39 -40 39 -96t-39 -96q-40 -40 -97 -40t-96 40q-40 40 -40 96t40 96zM392 1354q39 40 96 40t97 -40q39 -40 39 -96t-39 -96
q-40 -40 -97 -40t-96 40q-40 40 -40 96t40 96z" />
    <glyph glyph-name="eth" unicode="&#xf0;" horiz-adv-x="1186" 
d="M360 1168l-12 8q-88 49 -88 132q0 59 44 105q44 47 102 47q49 0 94 -26q108 -64 158 -100l140 78q17 10 36 10q29 0 49 -21q21 -20 21 -49q0 -39 -34 -58l-96 -54q338 -305 338 -718q0 -244 -145 -396q-144 -150 -371 -150q-215 0 -365 143q-151 143 -151 349
q0 201 139 336q137 132 333 132q48 0 90 -14q-63 87 -154 160l-168 -94q-17 -10 -36 -10q-28 0 -49 21t-21 49q0 39 34 58zM454 324q57 -58 142 -58q84 0 140 58q56 57 56 144q0 86 -56 143t-140 57q-85 0 -142 -57q-56 -57 -56 -143q0 -87 56 -144z" />
    <glyph glyph-name="ntilde" unicode="&#xf1;" horiz-adv-x="1142" 
d="M118 802q0 66 46 112t112 46q64 0 110 -44q43 -42 48 -102q93 146 282 146q135 0 223 -91q91 -96 91 -251v-484q0 -66 -46 -112t-112 -46t-112 46t-46 112v406q0 64 -41 106q-40 42 -99 42q-56 0 -95 -38q-41 -38 -45 -98v-418q0 -66 -46 -112t-112 -46t-112 46t-46 112
v668zM534 1174q-47 38 -82 38q-30 0 -50 -42q-11 -24 -35 -40q-25 -16 -53 -16q-37 0 -65 27q-27 28 -27 65q0 16 6 34q24 78 80 125q56 45 124 45q78 0 162 -68q48 -38 82 -38q30 0 50 42q11 24 35 40q25 16 53 16q38 0 65 -27t27 -65q0 -16 -6 -34q-24 -78 -80 -125
q-56 -45 -124 -45q-78 0 -162 68z" />
    <glyph glyph-name="ograve" unicode="&#xf2;" horiz-adv-x="1180" 
d="M960 119q-151 -143 -370 -143t-369 143q-151 143 -151 349t151 349q150 143 369 143t370 -143q150 -143 150 -349t-150 -349zM731 615q-60 57 -141 57t-141 -57q-63 -60 -63 -147t63 -147q60 -57 141 -57t141 57q63 60 63 147t-63 147zM372 1435q31 31 70 31q37 0 68 -24
l256 -212q38 -31 38 -80q0 -39 -29 -68q-29 -30 -71 -30q-35 0 -66 24l-256 206q-42 32 -42 80q0 42 32 73z" />
    <glyph glyph-name="oacute" unicode="&#xf3;" horiz-adv-x="1180" 
d="M960 119q-151 -143 -370 -143t-369 143q-151 143 -151 349t151 349q150 143 369 143t370 -143q150 -143 150 -349t-150 -349zM731 615q-60 57 -141 57t-141 -57q-63 -60 -63 -147t63 -147q60 -57 141 -57t141 57q63 60 63 147t-63 147zM798 1282l-256 -206
q-31 -24 -66 -24q-41 0 -71 30q-29 29 -29 68q0 49 38 80l256 212q31 24 68 24q40 0 71 -31t31 -73q0 -48 -42 -80z" />
    <glyph glyph-name="ocircumflex" unicode="&#xf4;" horiz-adv-x="1180" 
d="M960 119q-151 -143 -370 -143t-369 143q-151 143 -151 349t151 349q150 143 369 143t370 -143q150 -143 150 -349t-150 -349zM731 615q-60 57 -141 57t-141 -57q-63 -60 -63 -147t63 -147q60 -57 141 -57t141 57q63 60 63 147t-63 147zM590 1230l-164 -136
q-31 -28 -74 -28q-39 0 -68 30q-30 29 -30 68q0 47 44 84l254 212q19 16 38 16t38 -16l254 -212q44 -37 44 -84q0 -39 -29 -68q-30 -30 -69 -30q-43 0 -74 28z" />
    <glyph glyph-name="otilde" unicode="&#xf5;" horiz-adv-x="1180" 
d="M960 119q-151 -143 -370 -143t-369 143q-151 143 -151 349t151 349q150 143 369 143t370 -143q150 -143 150 -349t-150 -349zM731 615q-60 57 -141 57t-141 -57q-63 -60 -63 -147t63 -147q60 -57 141 -57t141 57q63 60 63 147t-63 147zM560 1174q-47 38 -82 38
q-30 0 -50 -42q-11 -24 -35 -40q-25 -16 -53 -16q-37 0 -65 27q-27 28 -27 65q0 16 6 34q24 78 80 125q56 45 124 45q78 0 162 -68q48 -38 82 -38q30 0 50 42q11 24 35 40q25 16 53 16q38 0 65 -27t27 -65q0 -16 -6 -34q-24 -78 -80 -125q-56 -45 -124 -45q-78 0 -162 68z
" />
    <glyph glyph-name="odieresis" unicode="&#xf6;" horiz-adv-x="1180" 
d="M960 119q-151 -143 -370 -143t-369 143q-151 143 -151 349t151 349q150 143 369 143t370 -143q150 -143 150 -349t-150 -349zM731 615q-60 57 -141 57t-141 -57q-63 -60 -63 -147t63 -147q60 -57 141 -57t141 57q63 60 63 147t-63 147zM294 1354q39 40 96 40t97 -40
q39 -40 39 -96t-39 -96q-40 -40 -97 -40t-96 40q-40 40 -40 96t40 96zM694 1354q39 40 96 40t97 -40q39 -40 39 -96t-39 -96q-40 -40 -97 -40t-96 40q-40 40 -40 96t40 96z" />
    <glyph glyph-name="divide" unicode="&#xf7;" horiz-adv-x="1260" 
d="M509 1183q49 49 121 49t121 -49q47 -49 47 -119t-47 -118q-49 -50 -121 -50t-121 50q-47 48 -47 118t47 119zM509 383q49 49 121 49t121 -49q47 -49 47 -119t-47 -118q-49 -50 -121 -50t-121 50q-47 48 -47 118t47 119zM234 534q-54 0 -92 38t-38 92t38 92t92 38h792
q54 0 92 -38t38 -92t-38 -92t-92 -38h-792z" />
    <glyph glyph-name="oslash" unicode="&#xf8;" horiz-adv-x="1180" 
d="M960 119q-151 -143 -370 -143q-97 0 -190 32l-110 -194q-20 -34 -56 -34q-24 0 -43 18q-21 18 -21 44q0 14 8 30l110 192q-102 69 -159 173q-59 107 -59 231q0 206 151 349q150 143 369 143q95 0 188 -32l108 188q20 34 56 34q24 0 43 -17q21 -19 21 -45q0 -14 -8 -30
l-106 -188q101 -67 159 -172q59 -107 59 -230q0 -206 -150 -349zM740 604l-192 -336q14 -4 42 -4q81 0 141 57q63 60 63 147q0 79 -54 136zM438 330l192 338q-24 4 -40 4q-81 0 -141 -57q-63 -60 -63 -147q0 -79 52 -138z" />
    <glyph glyph-name="ugrave" unicode="&#xf9;" horiz-adv-x="1148" 
d="M1030 134q0 -66 -46 -112t-112 -46q-64 0 -110 44q-43 42 -48 102q-93 -146 -282 -146q-135 0 -223 92q-91 95 -91 250v484q0 66 46 112t112 46t112 -46t46 -112v-406q0 -64 41 -106q40 -42 99 -42q56 0 96 38t44 98v418q0 66 46 112t112 46t112 -46t46 -112v-668z
M340 1435q31 31 70 31q37 0 68 -24l256 -212q38 -31 38 -80q0 -39 -29 -68q-29 -30 -71 -30q-35 0 -66 24l-256 206q-42 32 -42 80q0 42 32 73z" />
    <glyph glyph-name="uacute" unicode="&#xfa;" horiz-adv-x="1148" 
d="M1030 134q0 -66 -46 -112t-112 -46q-64 0 -110 44q-43 42 -48 102q-93 -146 -282 -146q-135 0 -223 92q-91 95 -91 250v484q0 66 46 112t112 46t112 -46t46 -112v-406q0 -64 41 -106q40 -42 99 -42q56 0 96 38t44 98v418q0 66 46 112t112 46t112 -46t46 -112v-668z
M798 1282l-256 -206q-31 -24 -66 -24q-41 0 -71 30q-29 29 -29 68q0 49 38 80l256 212q31 24 68 24q40 0 71 -31t31 -73q0 -48 -42 -80z" />
    <glyph glyph-name="ucircumflex" unicode="&#xfb;" horiz-adv-x="1148" 
d="M1030 134q0 -66 -46 -112t-112 -46q-64 0 -110 44q-43 42 -48 102q-93 -146 -282 -146q-135 0 -223 92q-91 95 -91 250v484q0 66 46 112t112 46t112 -46t46 -112v-406q0 -64 41 -106q40 -42 99 -42q56 0 96 38t44 98v418q0 66 46 112t112 46t112 -46t46 -112v-668z
M574 1230l-164 -136q-31 -28 -74 -28q-39 0 -68 30q-30 29 -30 68q0 47 44 84l254 212q19 16 38 16t38 -16l254 -212q44 -37 44 -84q0 -39 -29 -68q-30 -30 -69 -30q-43 0 -74 28z" />
    <glyph glyph-name="udieresis" unicode="&#xfc;" horiz-adv-x="1148" 
d="M1030 134q0 -66 -46 -112t-112 -46q-64 0 -110 44q-43 42 -48 102q-93 -146 -282 -146q-135 0 -223 92q-91 95 -91 250v484q0 66 46 112t112 46t112 -46t46 -112v-406q0 -64 41 -106q40 -42 99 -42q56 0 96 38t44 98v418q0 66 46 112t112 46t112 -46t46 -112v-668z
M278 1354q39 40 96 40t97 -40q39 -40 39 -96t-39 -96q-40 -40 -97 -40t-96 40q-40 40 -40 96t40 96zM678 1354q39 40 96 40t97 -40q39 -40 39 -96t-39 -96q-40 -40 -97 -40t-96 40q-40 40 -40 96t40 96z" />
    <glyph glyph-name="yacute" unicode="&#xfd;" horiz-adv-x="1086" 
d="M532 -488q-17 -44 -57 -72q-41 -28 -91 -28q-63 0 -109 47q-45 45 -45 105q0 28 16 68l152 396l-302 722q-12 27 -12 62q0 63 44 106q43 42 106 42q54 0 93 -28q37 -27 53 -72l164 -456l154 450q38 106 152 106q63 0 108 -42q44 -43 44 -106q0 -26 -12 -62zM764 1282
l-256 -206q-31 -24 -66 -24q-41 0 -71 30q-29 29 -29 68q0 49 38 80l256 212q31 24 68 24q40 0 71 -31t31 -73q0 -48 -42 -80z" />
    <glyph glyph-name="thorn" unicode="&#xfe;" horiz-adv-x="1284" 
d="M118 1366q0 66 46 112t112 46t112 -46t46 -112v-552q45 63 124 102q86 44 186 44q196 0 331 -142t135 -350t-135 -350t-331 -142q-100 0 -186 44q-79 39 -124 102v-552q0 -66 -46 -112t-112 -46t-112 46t-46 112v1796zM510 312q64 -64 156 -64t156 64q64 63 64 156
t-64 157q-64 63 -156 63t-156 -63q-64 -64 -64 -157t64 -156z" />
    <glyph glyph-name="ydieresis" unicode="&#xff;" horiz-adv-x="1086" 
d="M532 -488q-17 -44 -57 -72q-41 -28 -91 -28q-63 0 -109 47q-45 45 -45 105q0 28 16 68l152 396l-302 722q-12 27 -12 62q0 63 44 106q43 42 106 42q54 0 93 -28q37 -27 53 -72l164 -456l154 450q38 106 152 106q63 0 108 -42q44 -43 44 -106q0 -26 -12 -62zM250 1354
q39 40 96 40t97 -40q39 -40 39 -96t-39 -96q-40 -40 -97 -40t-96 40q-40 40 -40 96t40 96zM650 1354q39 40 96 40t97 -40q39 -40 39 -96t-39 -96q-40 -40 -97 -40t-96 40q-40 40 -40 96t40 96z" />
    <glyph glyph-name="Amacron" unicode="&#x100;" horiz-adv-x="1368" 
d="M808 1334l482 -1112q18 -43 18 -82q0 -69 -47 -116q-48 -48 -117 -48q-117 0 -166 118l-50 124h-488l-50 -124q-49 -118 -166 -118q-69 0 -116 48q-48 47 -48 116q0 39 18 82l482 1112q39 90 124 90t124 -90zM552 494h264l-132 326zM406 1780q31 30 74 30h408
q44 0 74 -30t30 -74q0 -43 -30 -74q-30 -30 -74 -30h-408q-43 0 -74 30q-30 31 -30 74q0 44 30 74z" />
    <glyph glyph-name="amacron" unicode="&#x101;" horiz-adv-x="1284" 
d="M1166 134q0 -66 -46 -112t-112 -46q-64 0 -109 42q-44 42 -49 104q-45 -63 -123 -102q-87 -44 -187 -44q-196 0 -330 142q-136 142 -136 350t136 350q134 142 330 142q100 0 187 -44q78 -39 123 -102q5 62 49 104q45 42 109 42q66 0 112 -46t46 -112v-668zM774 625
q-64 63 -156 63t-156 -63q-64 -64 -64 -157t64 -156q64 -64 156 -64t156 64q64 63 64 156t-64 157zM366 1332q31 30 74 30h408q44 0 74 -30t30 -74q0 -43 -30 -74q-30 -30 -74 -30h-408q-43 0 -74 30q-30 31 -30 74q0 44 30 74z" />
    <glyph glyph-name="Abreve" unicode="&#x102;" horiz-adv-x="1368" 
d="M808 1334l482 -1112q18 -43 18 -82q0 -69 -47 -116q-48 -48 -117 -48q-117 0 -166 118l-50 124h-488l-50 -124q-49 -118 -166 -118q-69 0 -116 48q-48 47 -48 116q0 39 18 82l482 1112q39 90 124 90t124 -90zM552 494h264l-132 326zM514 1590q-78 49 -114 134
q-12 32 -12 58q0 42 27 71t69 29q75 0 110 -76q28 -62 90 -62t90 62q33 76 110 76q42 0 69 -29t27 -71q0 -26 -12 -58q-36 -85 -113 -134q-77 -48 -171 -48t-170 48z" />
    <glyph glyph-name="abreve" unicode="&#x103;" horiz-adv-x="1284" 
d="M1166 134q0 -66 -46 -112t-112 -46q-64 0 -109 42q-44 42 -49 104q-45 -63 -123 -102q-87 -44 -187 -44q-196 0 -330 142q-136 142 -136 350t136 350q134 142 330 142q100 0 187 -44q78 -39 123 -102q5 62 49 104q45 42 109 42q66 0 112 -46t46 -112v-668zM774 625
q-64 63 -156 63t-156 -63q-64 -64 -64 -157t64 -156q64 -64 156 -64t156 64q64 63 64 156t-64 157zM470 1142q-78 49 -114 134q-5 14 -8 28q-4 16 -4 30q0 42 27 71t69 29q75 0 110 -76q28 -62 90 -62t90 62q33 76 110 76q42 0 69 -29t27 -71q0 -26 -12 -58
q-36 -85 -113 -134q-77 -48 -171 -48t-170 48z" />
    <glyph glyph-name="Aogonek" unicode="&#x104;" horiz-adv-x="1370" 
d="M808 1334l482 -1112q18 -43 18 -82q0 -79 -62 -128q-120 -111 -120 -202q0 -68 72 -68q9 0 21 2t17 2q37 0 63 -25q25 -24 25 -59q0 -62 -56 -82q-51 -18 -120 -18q-100 0 -166 60q-64 58 -64 144q0 133 132 236q-51 35 -72 92l-50 124h-488l-50 -124q-49 -118 -166 -118
q-69 0 -116 48q-48 47 -48 116q0 39 18 82l482 1112q39 90 124 90t124 -90zM552 494h264l-132 326z" />
    <glyph glyph-name="aogonek" unicode="&#x105;" horiz-adv-x="1286" 
d="M1166 134q0 -85 -70 -132q-110 -104 -110 -192q0 -68 72 -68q9 0 21 2t17 2q37 0 63 -25q25 -24 25 -59q0 -62 -56 -82q-51 -18 -120 -18q-100 0 -166 60q-64 58 -64 144q0 136 134 240q-59 43 -62 116q-45 -63 -123 -102q-87 -44 -187 -44q-196 0 -330 142
q-136 142 -136 350t136 350q134 142 330 142q100 0 187 -44q78 -39 123 -102q5 62 49 104q45 42 109 42q66 0 112 -46t46 -112v-668zM774 625q-64 63 -156 63t-156 -63q-64 -64 -64 -157t64 -156q64 -64 156 -64t156 64q64 63 64 156t-64 157z" />
    <glyph glyph-name="Cacute" unicode="&#x106;" horiz-adv-x="1462" 
d="M300 1221q216 203 518 203q308 0 520 -192q64 -60 64 -132q0 -69 -46 -115q-47 -47 -116 -47q-70 0 -130 60q-121 114 -284 114q-166 0 -282 -118q-118 -120 -118 -294t118 -294q116 -118 282 -118q163 0 284 114q60 60 130 60q69 0 116 -46q46 -47 46 -116
q0 -72 -64 -132q-212 -192 -520 -192q-302 0 -518 203q-222 210 -222 521t222 521zM1020 1730l-256 -206q-31 -24 -66 -24q-41 0 -71 30q-29 29 -29 68q0 49 38 80l256 212q31 24 68 24q40 0 71 -31t31 -73q0 -48 -42 -80z" />
    <glyph glyph-name="cacute" unicode="&#x107;" horiz-adv-x="1032" 
d="M222 818q150 142 360 142q178 0 314 -98q72 -52 72 -132q0 -60 -43 -103q-44 -43 -107 -43q-50 0 -98 38q-62 50 -136 50q-79 0 -136 -55q-62 -60 -62 -149t62 -148q57 -56 136 -56q74 0 136 50q48 38 98 38q63 0 107 -43q43 -43 43 -103q0 -80 -72 -132
q-136 -98 -314 -98q-210 0 -360 143q-152 144 -152 349t152 350zM756 1282l-256 -206q-31 -24 -66 -24q-41 0 -71 30q-29 29 -29 68q0 49 38 80l256 212q31 24 68 24q40 0 71 -31t31 -73q0 -48 -42 -80z" />
    <glyph glyph-name="Ccircumflex" unicode="&#x108;" horiz-adv-x="1462" 
d="M300 1221q216 203 518 203q308 0 520 -192q64 -60 64 -132q0 -69 -46 -115q-47 -47 -116 -47q-70 0 -130 60q-121 114 -284 114q-166 0 -282 -118q-118 -120 -118 -294t118 -294q116 -118 282 -118q163 0 284 114q60 60 130 60q69 0 116 -46q46 -47 46 -116
q0 -72 -64 -132q-212 -192 -520 -192q-302 0 -518 203q-222 210 -222 521t222 521zM774 1678l-164 -136q-31 -28 -74 -28q-39 0 -68 30q-30 29 -30 68q0 47 44 84l254 212q19 16 38 16t38 -16l254 -212q44 -37 44 -84q0 -39 -29 -68q-30 -30 -69 -30q-43 0 -74 28z" />
    <glyph glyph-name="ccircumflex" unicode="&#x109;" horiz-adv-x="1032" 
d="M222 818q150 142 360 142q178 0 314 -98q72 -52 72 -132q0 -60 -43 -103q-44 -43 -107 -43q-50 0 -98 38q-62 50 -136 50q-79 0 -136 -55q-62 -60 -62 -149t62 -148q57 -56 136 -56q74 0 136 50q48 38 98 38q63 0 107 -43q43 -43 43 -103q0 -80 -72 -132
q-136 -98 -314 -98q-210 0 -360 143q-152 144 -152 349t152 350zM550 1230l-164 -136q-31 -28 -74 -28q-39 0 -68 30q-30 29 -30 68q0 47 44 84l254 212q19 16 38 16t38 -16l254 -212q44 -37 44 -84q0 -39 -29 -68q-30 -30 -69 -30q-43 0 -74 28z" />
    <glyph glyph-name="Cdotaccent" unicode="&#x10a;" horiz-adv-x="1462" 
d="M300 1221q216 203 518 203q308 0 520 -192q64 -60 64 -132q0 -69 -46 -115q-47 -47 -116 -47q-70 0 -130 60q-121 114 -284 114q-166 0 -282 -118q-118 -120 -118 -294t118 -294q116 -118 282 -118q163 0 284 114q60 60 130 60q69 0 116 -46q46 -47 46 -116
q0 -72 -64 -132q-212 -192 -520 -192q-302 0 -518 203q-222 210 -222 521t222 521zM678 1802q39 40 96 40t97 -40q39 -40 39 -96t-39 -96q-40 -40 -97 -40t-96 40q-40 40 -40 96t40 96z" />
    <glyph glyph-name="cdotaccent" unicode="&#x10b;" horiz-adv-x="1032" 
d="M222 818q150 142 360 142q178 0 314 -98q72 -52 72 -132q0 -60 -43 -103q-44 -43 -107 -43q-50 0 -98 38q-62 50 -136 50q-79 0 -136 -55q-62 -60 -62 -149t62 -148q57 -56 136 -56q74 0 136 50q48 38 98 38q63 0 107 -43q43 -43 43 -103q0 -80 -72 -132
q-136 -98 -314 -98q-210 0 -360 143q-152 144 -152 349t152 350zM454 1354q39 40 96 40t97 -40q39 -40 39 -96t-39 -96q-40 -40 -97 -40t-96 40q-40 40 -40 96t40 96z" />
    <glyph glyph-name="Ccaron" unicode="&#x10c;" horiz-adv-x="1462" 
d="M300 1221q216 203 518 203q308 0 520 -192q64 -60 64 -132q0 -69 -46 -115q-47 -47 -116 -47q-70 0 -130 60q-121 114 -284 114q-166 0 -282 -118q-118 -120 -118 -294t118 -294q116 -118 282 -118q163 0 284 114q60 60 130 60q69 0 116 -46q46 -47 46 -116
q0 -72 -64 -132q-212 -192 -520 -192q-302 0 -518 203q-222 210 -222 521t222 521zM938 1866q31 28 74 28q39 0 69 -29q29 -30 29 -69q0 -47 -44 -84l-254 -212q-19 -16 -38 -16t-38 16l-254 212q-44 37 -44 84q0 39 30 69q29 29 68 29q43 0 74 -28l164 -136z" />
    <glyph glyph-name="ccaron" unicode="&#x10d;" horiz-adv-x="1032" 
d="M222 818q150 142 360 142q178 0 314 -98q72 -52 72 -132q0 -60 -43 -103q-44 -43 -107 -43q-50 0 -98 38q-62 50 -136 50q-79 0 -136 -55q-62 -60 -62 -149t62 -148q57 -56 136 -56q74 0 136 50q48 38 98 38q63 0 107 -43q43 -43 43 -103q0 -80 -72 -132
q-136 -98 -314 -98q-210 0 -360 143q-152 144 -152 349t152 350zM714 1418q31 28 74 28q39 0 69 -29q29 -30 29 -69q0 -47 -44 -84l-254 -212q-19 -16 -38 -16t-38 16l-254 212q-44 37 -44 84q0 39 30 69q29 29 68 29q43 0 74 -28l164 -136z" />
    <glyph glyph-name="Dcaron" unicode="&#x10e;" horiz-adv-x="1374" 
d="M843 983q-103 105 -277 105h-86v-776h86q174 0 277 106q103 105 103 282t-103 283zM306 0q-72 0 -123 51t-51 123v1052q0 72 51 123t123 51h252q315 0 523 -191q213 -197 213 -509t-213 -509q-208 -191 -523 -191h-252zM730 1866q31 28 74 28q39 0 69 -29q29 -30 29 -69
q0 -47 -44 -84l-254 -212q-19 -16 -38 -16t-38 16l-254 212q-44 37 -44 84q0 39 30 69q29 29 68 29q43 0 74 -28l164 -136z" />
    <glyph glyph-name="dcaron" unicode="&#x10f;" horiz-adv-x="1668" 
d="M1166 134q0 -66 -46 -112t-112 -46q-64 0 -109 42q-44 42 -49 104q-45 -63 -123 -102q-87 -44 -187 -44q-196 0 -330 142q-136 142 -136 350t136 350q134 142 330 142q100 0 187 -44q78 -39 123 -102v552q0 66 46 112t112 46t112 -46t46 -112v-1232zM774 625
q-64 63 -156 63t-156 -63q-64 -64 -64 -157t64 -156q64 -64 156 -64t156 64q64 63 64 156t-64 157zM1344 1392q11 44 47 73t85 29q57 0 99 -39q41 -40 41 -97q0 -21 -10 -44l-118 -288q-12 -30 -41 -49t-65 -19q-45 0 -77 32q-33 31 -33 76q0 15 6 36z" />
    <glyph glyph-name="Dcroat" unicode="&#x110;" horiz-adv-x="1408" 
d="M36 761q27 27 64 27h66v438q0 72 51 123t123 51h252q315 0 523 -191q213 -197 213 -509t-213 -509q-208 -191 -523 -191h-252q-72 0 -123 51t-51 123v432h-66q-37 0 -64 26q-26 27 -26 64q0 38 26 65zM877 983q-103 105 -277 105h-86v-300h150q38 0 65 -27t27 -65
q0 -37 -27 -64q-27 -26 -65 -26h-150v-294h86q174 0 277 106q103 105 103 282t-103 283z" />
    <glyph glyph-name="dcroat" unicode="&#x111;" horiz-adv-x="1308" 
d="M1166 134q0 -66 -46 -112t-112 -46q-64 0 -109 42q-44 42 -49 104q-45 -63 -123 -102q-87 -44 -187 -44q-196 0 -330 142q-136 142 -136 350t136 350q134 142 330 142q100 0 187 -44q78 -39 123 -102v340h-328q-37 0 -65 27q-27 28 -27 65q0 38 27 65q28 27 65 27h328v28
q0 66 46 112t112 46t112 -46t46 -112v-28h58q38 0 65 -27t27 -65q0 -37 -27 -65q-27 -27 -65 -27h-58v-1020zM774 625q-64 63 -156 63t-156 -63q-64 -64 -64 -157t64 -156q64 -64 156 -64t156 64q64 63 64 156t-64 157z" />
    <glyph glyph-name="Emacron" unicode="&#x112;" horiz-adv-x="1024" 
d="M788 1400q66 0 110 -44q44 -45 44 -114q0 -66 -44 -110t-110 -44h-308v-188h264q66 0 110 -44q44 -45 44 -114q0 -66 -44 -110t-110 -44h-264v-276h326q66 0 110 -44q44 -45 44 -114q0 -66 -44 -110t-110 -44h-500q-72 0 -123 51t-51 123v1052q0 72 51 123t123 51h482z
M244 1780q31 30 74 30h408q44 0 74 -30t30 -74q0 -43 -30 -74q-30 -30 -74 -30h-408q-43 0 -74 30q-30 31 -30 74q0 44 30 74z" />
    <glyph glyph-name="emacron" unicode="&#x113;" horiz-adv-x="1160" 
d="M1061 424q-36 -38 -97 -38h-562q44 -142 210 -142q99 0 172 54q46 34 94 34q61 0 101 -39q39 -39 39 -97q0 -67 -60 -114q-133 -106 -350 -106q-239 0 -390 140q-148 137 -148 352q0 208 151 350q150 142 365 142q195 0 338 -123q144 -124 166 -313q7 -62 -29 -100z
M788 590q-20 54 -70 87q-53 35 -122 35t-121 -35q-51 -33 -71 -87h384zM296 1332q31 30 74 30h408q44 0 74 -30t30 -74q0 -43 -30 -74q-30 -30 -74 -30h-408q-43 0 -74 30q-30 31 -30 74q0 44 30 74z" />
    <glyph glyph-name="Ebreve" unicode="&#x114;" horiz-adv-x="1024" 
d="M788 1400q66 0 110 -44q44 -45 44 -114q0 -66 -44 -110t-110 -44h-308v-188h264q66 0 110 -44q44 -45 44 -114q0 -66 -44 -110t-110 -44h-264v-276h326q66 0 110 -44q44 -45 44 -114q0 -66 -44 -110t-110 -44h-500q-72 0 -123 51t-51 123v1052q0 72 51 123t123 51h482z
M352 1590q-78 49 -114 134q-12 32 -12 58q0 42 27 71t69 29q75 0 110 -76q28 -62 90 -62t90 62q33 76 110 76q42 0 69 -29t27 -71q0 -26 -12 -58q-36 -85 -113 -134q-77 -48 -171 -48t-170 48z" />
    <glyph glyph-name="ebreve" unicode="&#x115;" horiz-adv-x="1160" 
d="M1061 424q-36 -38 -97 -38h-562q44 -142 210 -142q99 0 172 54q46 34 94 34q61 0 101 -39q39 -39 39 -97q0 -67 -60 -114q-133 -106 -350 -106q-239 0 -390 140q-148 137 -148 352q0 208 151 350q150 142 365 142q195 0 338 -123q144 -124 166 -313q7 -62 -29 -100z
M788 590q-20 54 -70 87q-53 35 -122 35t-121 -35q-51 -33 -71 -87h384zM404 1142q-78 49 -114 134q-5 14 -8 28q-4 16 -4 30q0 42 27 71t69 29q75 0 110 -76q28 -62 90 -62t90 62q33 76 110 76q42 0 69 -29t27 -71q0 -26 -12 -58q-36 -85 -113 -134q-77 -48 -171 -48
t-170 48z" />
    <glyph glyph-name="Edotaccent" unicode="&#x116;" horiz-adv-x="1024" 
d="M788 1400q66 0 110 -44q44 -45 44 -114q0 -66 -44 -110t-110 -44h-308v-188h264q66 0 110 -44q44 -45 44 -114q0 -66 -44 -110t-110 -44h-264v-276h326q66 0 110 -44q44 -45 44 -114q0 -66 -44 -110t-110 -44h-500q-72 0 -123 51t-51 123v1052q0 72 51 123t123 51h482z
M436 1802q39 40 96 40t97 -40q39 -40 39 -96t-39 -96q-40 -40 -97 -40t-96 40q-40 40 -40 96t40 96z" />
    <glyph glyph-name="edotaccent" unicode="&#x117;" horiz-adv-x="1160" 
d="M1061 424q-36 -38 -97 -38h-562q44 -142 210 -142q99 0 172 54q46 34 94 34q61 0 101 -39q39 -39 39 -97q0 -67 -60 -114q-133 -106 -350 -106q-239 0 -390 140q-148 137 -148 352q0 208 151 350q150 142 365 142q195 0 338 -123q144 -124 166 -313q7 -62 -29 -100z
M788 590q-20 54 -70 87q-53 35 -122 35t-121 -35q-51 -33 -71 -87h384zM478 1354q39 40 96 40t97 -40q39 -40 39 -96t-39 -96q-40 -40 -97 -40t-96 40q-40 40 -40 96t40 96z" />
    <glyph glyph-name="Eogonek" unicode="&#x118;" horiz-adv-x="1024" 
d="M788 1400q66 0 110 -44q44 -45 44 -114q0 -66 -44 -110t-110 -44h-308v-188h264q66 0 110 -44q44 -45 44 -114q0 -66 -44 -110t-110 -44h-264v-276h326q66 0 110 -44q44 -45 44 -114q0 -56 -34 -98q-33 -42 -86 -54q-112 -106 -112 -192q0 -68 72 -68q9 0 21 2t17 2
q37 0 63 -25q25 -24 25 -59q0 -62 -56 -82q-51 -18 -120 -18q-100 0 -166 60q-64 58 -64 144q0 130 128 234h-342q-72 0 -123 51t-51 123v1052q0 72 51 123t123 51h482z" />
    <glyph glyph-name="eogonek" unicode="&#x119;" horiz-adv-x="1160" 
d="M1061 424q-36 -38 -97 -38h-562q44 -142 210 -142q99 0 172 54q46 34 94 34q61 0 101 -39q39 -39 39 -97q0 -67 -60 -114q-96 -75 -236 -96q-92 -98 -92 -176q0 -68 72 -68q9 0 21 2l8 1l9 1q37 0 63 -25q25 -24 25 -59q0 -62 -56 -82q-51 -18 -120 -18q-100 0 -166 60
q-64 58 -64 144q0 116 104 214q-206 24 -331 159q-125 133 -125 329q0 208 151 350q150 142 365 142q195 0 338 -123q144 -124 166 -313q7 -62 -29 -100zM788 590q-20 54 -70 87q-53 35 -122 35t-121 -35q-51 -33 -71 -87h384z" />
    <glyph glyph-name="Ecaron" unicode="&#x11a;" horiz-adv-x="1024" 
d="M788 1400q66 0 110 -44q44 -45 44 -114q0 -66 -44 -110t-110 -44h-308v-188h264q66 0 110 -44q44 -45 44 -114q0 -66 -44 -110t-110 -44h-264v-276h326q66 0 110 -44q44 -45 44 -114q0 -66 -44 -110t-110 -44h-500q-72 0 -123 51t-51 123v1052q0 72 51 123t123 51h482z
M684 1866q31 28 74 28q39 0 69 -29q29 -30 29 -69q0 -47 -44 -84l-254 -212q-19 -16 -38 -16t-38 16l-254 212q-44 37 -44 84q0 39 30 69q29 29 68 29q43 0 74 -28l164 -136z" />
    <glyph glyph-name="ecaron" unicode="&#x11b;" horiz-adv-x="1160" 
d="M1061 424q-36 -38 -97 -38h-562q44 -142 210 -142q99 0 172 54q46 34 94 34q61 0 101 -39q39 -39 39 -97q0 -67 -60 -114q-133 -106 -350 -106q-239 0 -390 140q-148 137 -148 352q0 208 151 350q150 142 365 142q195 0 338 -123q144 -124 166 -313q7 -62 -29 -100z
M788 590q-20 54 -70 87q-53 35 -122 35t-121 -35q-51 -33 -71 -87h384zM732 1418q31 28 74 28q39 0 69 -29q29 -30 29 -69q0 -47 -44 -84l-254 -212q-19 -16 -38 -16t-38 16l-254 212q-44 37 -44 84q0 39 30 69q29 29 68 29q43 0 74 -28l164 -136z" />
    <glyph glyph-name="Gcircumflex" unicode="&#x11c;" horiz-adv-x="1578" 
d="M1119 1364q140 -59 247 -166q58 -58 58 -128q0 -67 -46 -114q-46 -46 -114 -46q-70 0 -132 62q-133 140 -310 140q-166 0 -280 -118q-116 -119 -116 -294q0 -177 123 -298q115 -114 265 -114q137 0 227 63q91 63 115 177h-198q-46 0 -80 34t-34 80q0 47 34 80
q34 34 80 34h432q47 0 80 -34q34 -33 34 -80q0 -297 -194 -482q-192 -184 -494 -184t-517 205q-221 210 -221 519q0 312 221 521q215 203 517 203q158 0 303 -60zM792 1678l-164 -136q-31 -28 -74 -28q-39 0 -68 30q-30 29 -30 68q0 47 44 84l254 212q19 16 38 16t38 -16
l254 -212q44 -37 44 -84q0 -39 -29 -68q-30 -30 -69 -30q-43 0 -74 28z" />
    <glyph glyph-name="gcircumflex" unicode="&#x11d;" horiz-adv-x="1284" 
d="M186 -195q39 39 96 39q62 0 102 -40q103 -96 222 -96q244 0 244 296v118q-45 -63 -123 -102q-87 -44 -187 -44q-196 0 -330 142q-136 142 -136 350t136 350q134 142 330 142q100 0 187 -44q78 -39 123 -102q5 62 49 104q45 42 109 42q66 0 112 -46t46 -112v-772
q0 -300 -155 -453q-144 -141 -399 -141q-244 0 -420 166q-46 43 -46 106q0 57 40 97zM774 625q-64 63 -156 63t-156 -63q-64 -64 -64 -157t64 -156q64 -64 156 -64t156 64q64 63 64 156t-64 157zM642 1230l-164 -136q-31 -28 -74 -28q-39 0 -68 30q-30 29 -30 68q0 47 44 84
l254 212q19 16 38 16t38 -16l254 -212q44 -37 44 -84q0 -39 -29 -68q-30 -30 -69 -30q-43 0 -74 28z" />
    <glyph glyph-name="Gbreve" unicode="&#x11e;" horiz-adv-x="1578" 
d="M1119 1364q140 -59 247 -166q58 -58 58 -128q0 -67 -46 -114q-46 -46 -114 -46q-70 0 -132 62q-133 140 -310 140q-166 0 -280 -118q-116 -119 -116 -294q0 -177 123 -298q115 -114 265 -114q137 0 227 63q91 63 115 177h-198q-46 0 -80 34t-34 80q0 47 34 80
q34 34 80 34h432q47 0 80 -34q34 -33 34 -80q0 -297 -194 -482q-192 -184 -494 -184t-517 205q-221 210 -221 519q0 312 221 521q215 203 517 203q158 0 303 -60zM622 1590q-78 49 -114 134q-12 32 -12 58q0 42 27 71t69 29q75 0 110 -76q28 -62 90 -62t90 62q33 76 110 76
q42 0 69 -29t27 -71q0 -26 -12 -58q-36 -85 -113 -134q-77 -48 -171 -48t-170 48z" />
    <glyph glyph-name="gbreve" unicode="&#x11f;" horiz-adv-x="1284" 
d="M186 -195q39 39 96 39q62 0 102 -40q103 -96 222 -96q244 0 244 296v118q-45 -63 -123 -102q-87 -44 -187 -44q-196 0 -330 142q-136 142 -136 350t136 350q134 142 330 142q100 0 187 -44q78 -39 123 -102q5 62 49 104q45 42 109 42q66 0 112 -46t46 -112v-772
q0 -300 -155 -453q-144 -141 -399 -141q-244 0 -420 166q-46 43 -46 106q0 57 40 97zM774 625q-64 63 -156 63t-156 -63q-64 -64 -64 -157t64 -156q64 -64 156 -64t156 64q64 63 64 156t-64 157zM472 1142q-78 49 -114 134q-12 32 -12 58q0 42 27 71t69 29q75 0 110 -76
q28 -62 90 -62t90 62q33 76 110 76q42 0 69 -29t27 -71q0 -26 -12 -58q-36 -85 -113 -134q-77 -48 -171 -48t-170 48z" />
    <glyph glyph-name="Gdotaccent" unicode="&#x120;" horiz-adv-x="1578" 
d="M1119 1364q140 -59 247 -166q58 -58 58 -128q0 -67 -46 -114q-46 -46 -114 -46q-70 0 -132 62q-133 140 -310 140q-166 0 -280 -118q-116 -119 -116 -294q0 -177 123 -298q115 -114 265 -114q137 0 227 63q91 63 115 177h-198q-46 0 -80 34t-34 80q0 47 34 80
q34 34 80 34h432q47 0 80 -34q34 -33 34 -80q0 -297 -194 -482q-192 -184 -494 -184t-517 205q-221 210 -221 519q0 312 221 521q215 203 517 203q158 0 303 -60zM696 1802q39 40 96 40t97 -40q39 -40 39 -96t-39 -96q-40 -40 -97 -40t-96 40q-40 40 -40 96t40 96z" />
    <glyph glyph-name="gdotaccent" unicode="&#x121;" horiz-adv-x="1284" 
d="M186 -195q39 39 96 39q62 0 102 -40q103 -96 222 -96q244 0 244 296v118q-45 -63 -123 -102q-87 -44 -187 -44q-196 0 -330 142q-136 142 -136 350t136 350q134 142 330 142q100 0 187 -44q78 -39 123 -102q5 62 49 104q45 42 109 42q66 0 112 -46t46 -112v-772
q0 -300 -155 -453q-144 -141 -399 -141q-244 0 -420 166q-46 43 -46 106q0 57 40 97zM774 625q-64 63 -156 63t-156 -63q-64 -64 -64 -157t64 -156q64 -64 156 -64t156 64q64 63 64 156t-64 157zM546 1354q39 40 96 40t97 -40q39 -40 39 -96t-39 -96q-40 -40 -97 -40t-96 40
q-40 40 -40 96t40 96z" />
    <glyph glyph-name="uni0122" unicode="&#x122;" horiz-adv-x="1578" 
d="M1119 1364q140 -59 247 -166q58 -58 58 -128q0 -67 -46 -114q-46 -46 -114 -46q-70 0 -132 62q-133 140 -310 140q-166 0 -280 -118q-116 -119 -116 -294q0 -177 123 -298q115 -114 265 -114q137 0 227 63q91 63 115 177h-198q-46 0 -80 34t-34 80q0 47 34 80
q34 34 80 34h432q47 0 80 -34q34 -33 34 -80q0 -297 -194 -482q-192 -184 -494 -184t-517 205q-221 210 -221 519q0 312 221 521q215 203 517 203q158 0 303 -60zM706 -230q9 43 39 70q31 28 75 28q48 0 82 -33t34 -81q0 -23 -8 -42l-88 -226q-24 -64 -92 -64q-41 0 -69 28
q-29 28 -29 68q0 12 4 28z" />
    <glyph glyph-name="uni0123" unicode="&#x123;" horiz-adv-x="1284" 
d="M186 -195q39 39 96 39q62 0 102 -40q103 -96 222 -96q244 0 244 296v118q-45 -63 -123 -102q-87 -44 -187 -44q-196 0 -330 142q-136 142 -136 350t136 350q134 142 330 142q100 0 187 -44q78 -39 123 -102q5 62 49 104q45 42 109 42q66 0 112 -46t46 -112v-772
q0 -300 -155 -453q-144 -141 -399 -141q-244 0 -420 166q-46 43 -46 106q0 57 40 97zM774 625q-64 63 -156 63t-156 -63q-64 -64 -64 -157t64 -156q64 -64 156 -64t156 64q64 63 64 156t-64 157zM760 1138q-9 -43 -39 -70q-31 -28 -75 -28q-48 0 -82 33t-34 81q0 23 8 42
l88 226q24 64 92 64q41 0 69 -28q29 -28 29 -68q0 -12 -4 -28z" />
    <glyph glyph-name="Hcircumflex" unicode="&#x124;" horiz-adv-x="1356" 
d="M876 1250q0 72 51 123t123 51t123 -51t51 -123v-1100q0 -72 -51 -123t-123 -51t-123 51t-51 123v432h-396v-432q0 -72 -51 -123t-123 -51t-123 51t-51 123v1100q0 72 51 123t123 51t123 -51t51 -123v-356h396v356zM678 1678l-164 -136q-31 -28 -74 -28q-39 0 -68 30
q-30 29 -30 68q0 47 44 84l254 212q19 16 38 16t38 -16l254 -212q44 -37 44 -84q0 -39 -29 -68q-30 -30 -69 -30q-43 0 -74 28z" />
    <glyph glyph-name="hcircumflex" unicode="&#x125;" horiz-adv-x="1162" 
d="M138 1366q0 66 46 112t112 46t112 -46t46 -112v-540q44 58 113 94q78 40 169 40q135 0 223 -91q91 -96 91 -251v-484q0 -66 -46 -112t-112 -46t-112 46t-46 112v406q0 64 -41 106q-40 42 -99 42q-56 0 -95 -38q-41 -38 -45 -98v-418q0 -66 -46 -112t-112 -46t-112 46
t-46 112v1232zM296 1678l-164 -136q-31 -28 -74 -28q-39 0 -68 30q-30 29 -30 68q0 47 44 84l254 212q19 16 38 16t38 -16l254 -212q44 -37 44 -84q0 -39 -29 -68q-30 -30 -69 -30q-43 0 -74 28z" />
    <glyph glyph-name="Hbar" unicode="&#x126;" horiz-adv-x="1384" 
d="M1238 1060v-910q0 -72 -51 -123t-123 -51t-123 51t-51 123v432h-396v-432q0 -72 -51 -123t-123 -51t-123 51t-51 123v910h-54q-37 0 -64 26q-26 27 -26 64q0 38 26 65q27 27 64 27h54v8q0 72 51 123t123 51t123 -51t51 -123v-8h396v8q0 72 51 123t123 51t123 -51t51 -123
v-8h54q37 0 64 -27q26 -27 26 -65q0 -37 -26 -64q-26 -26 -64 -26h-54zM890 1060h-396v-166h396v166z" />
    <glyph glyph-name="hbar" unicode="&#x127;" horiz-adv-x="1166" 
d="M458 1156v-330q44 58 113 94q78 40 169 40q135 0 223 -91q91 -96 91 -251v-484q0 -66 -46 -112t-112 -46t-112 46t-46 112v406q0 64 -41 106q-40 42 -99 42q-56 0 -95 -38q-41 -38 -45 -98v-418q0 -66 -46 -112t-112 -46t-112 46t-46 112v1022h-48q-37 0 -65 27
q-27 28 -27 65q0 38 27 65q28 27 65 27h48v26q0 66 46 112t112 46t112 -46t46 -112v-26h232q38 0 65 -27t27 -65q0 -37 -27 -65q-27 -27 -65 -27h-232z" />
    <glyph glyph-name="Itilde" unicode="&#x128;" horiz-adv-x="644" 
d="M496 150q0 -72 -51 -123t-123 -51t-123 51t-51 123v1100q0 72 51 123t123 51t123 -51t51 -123v-1100zM292 1622q-47 38 -82 38q-30 0 -50 -42q-11 -24 -35 -40q-25 -16 -53 -16q-37 0 -65 27q-27 28 -27 65q0 16 6 34q24 78 80 125q56 45 124 45q78 0 162 -68
q48 -38 82 -38q30 0 50 42q11 24 35 40q25 16 53 16q38 0 65 -27t27 -65q0 -16 -6 -34q-24 -78 -80 -125q-56 -45 -124 -45q-78 0 -162 68z" />
    <glyph glyph-name="itilde" unicode="&#x129;" horiz-adv-x="576" 
d="M130 802q0 66 46 112t112 46t112 -46t46 -112v-668q0 -66 -46 -112t-112 -46t-112 46t-46 112v668zM258 1174q-47 38 -82 38q-30 0 -50 -42q-11 -24 -35 -40q-25 -16 -53 -16q-37 0 -65 27q-27 28 -27 65q0 16 6 34q24 78 80 125q56 45 124 45q78 0 162 -68
q48 -38 82 -38q30 0 50 42q11 24 35 40q25 16 53 16q38 0 65 -27t27 -65q0 -16 -6 -34q-24 -78 -80 -125q-56 -45 -124 -45q-78 0 -162 68z" />
    <glyph glyph-name="Imacron" unicode="&#x12a;" horiz-adv-x="644" 
d="M496 150q0 -72 -51 -123t-123 -51t-123 51t-51 123v1100q0 72 51 123t123 51t123 -51t51 -123v-1100zM44 1780q31 30 74 30h408q44 0 74 -30t30 -74q0 -43 -30 -74q-30 -30 -74 -30h-408q-43 0 -74 30q-30 31 -30 74q0 44 30 74z" />
    <glyph glyph-name="imacron" unicode="&#x12b;" horiz-adv-x="576" 
d="M130 802q0 66 46 112t112 46t112 -46t46 -112v-668q0 -66 -46 -112t-112 -46t-112 46t-46 112v668zM10 1332q31 30 74 30h408q44 0 74 -30t30 -74q0 -43 -30 -74q-30 -30 -74 -30h-408q-43 0 -74 30q-30 31 -30 74q0 44 30 74z" />
    <glyph glyph-name="Ibreve" unicode="&#x12c;" horiz-adv-x="644" 
d="M496 150q0 -72 -51 -123t-123 -51t-123 51t-51 123v1100q0 72 51 123t123 51t123 -51t51 -123v-1100zM152 1590q-78 49 -114 134q-12 32 -12 58q0 42 27 71t69 29q75 0 110 -76q28 -62 90 -62t90 62q33 76 110 76q42 0 69 -29t27 -71q0 -26 -12 -58q-36 -85 -113 -134
q-77 -48 -171 -48t-170 48z" />
    <glyph glyph-name="ibreve" unicode="&#x12d;" horiz-adv-x="576" 
d="M130 802q0 66 46 112t112 46t112 -46t46 -112v-668q0 -66 -46 -112t-112 -46t-112 46t-46 112v668zM118 1142q-78 49 -114 134q-12 32 -12 58q0 42 27 71t69 29q75 0 110 -76q28 -62 90 -62t90 62q33 76 110 76q42 0 69 -29t27 -71q0 -26 -12 -58q-36 -85 -113 -134
q-77 -48 -171 -48t-170 48z" />
    <glyph glyph-name="Iogonek" unicode="&#x12e;" horiz-adv-x="644" 
d="M496 150q0 -88 -72 -140q-118 -109 -118 -200q0 -68 72 -68q9 0 21 2l8 1l9 1q37 0 63 -25q25 -24 25 -59q0 -62 -56 -82q-51 -18 -120 -18q-100 0 -166 60q-64 58 -64 144q0 133 130 236q-80 53 -80 148v1100q0 72 51 123t123 51t123 -51t51 -123v-1100z" />
    <glyph glyph-name="iogonek" unicode="&#x12f;" horiz-adv-x="576" 
d="M130 802q0 66 46 112t112 46t112 -46t46 -112v-668q0 -74 -54 -118q-124 -112 -124 -206q0 -68 72 -68q5 0 11 1l10 1q12 2 17 2q37 0 63 -25q25 -24 25 -59q0 -62 -56 -82q-51 -18 -120 -18q-100 0 -166 60q-64 58 -64 144q0 136 134 240q-64 45 -64 128v668zM158 1423
q54 53 130 53t130 -53q54 -54 54 -129t-54 -128q-54 -54 -130 -54t-130 54q-54 53 -54 128t54 129z" />
    <glyph glyph-name="Idotaccent" unicode="&#x130;" horiz-adv-x="644" 
d="M496 150q0 -72 -51 -123t-123 -51t-123 51t-51 123v1100q0 72 51 123t123 51t123 -51t51 -123v-1100zM226 1802q39 40 96 40t97 -40q39 -40 39 -96t-39 -96q-40 -40 -97 -40t-96 40q-40 40 -40 96t40 96z" />
    <glyph glyph-name="dotlessi" unicode="&#x131;" horiz-adv-x="576" 
d="M130 802q0 66 46 112t112 46t112 -46t46 -112v-668q0 -66 -46 -112t-112 -46t-112 46t-46 112v668z" />
    <glyph glyph-name="IJ" unicode="&#x132;" horiz-adv-x="1698" 
d="M496 150q0 -72 -51 -123t-123 -51t-123 51t-51 123v1100q0 72 51 123t123 51t123 -51t51 -123v-1100zM708 385q44 39 108 39q77 0 136 -76q47 -60 124 -60q142 0 142 186v776q0 72 51 123t123 51t123 -51t51 -123v-790q0 -229 -128 -358q-125 -126 -340 -126
q-251 0 -398 188q-38 48 -38 112q0 67 46 109z" />
    <glyph glyph-name="ij" unicode="&#x133;" horiz-adv-x="1140" 
d="M158 1423q54 53 130 53t130 -53q54 -54 54 -129t-54 -128q-54 -54 -130 -54t-130 54q-54 53 -54 128t54 129zM130 802q0 66 46 112t112 46t112 -46t46 -112v-668q0 -66 -46 -112t-112 -46t-112 46t-46 112v668zM291 -247q38 39 97 39q55 0 98 -40q51 -44 102 -44
q116 0 116 162v932q0 66 46 112t112 46t112 -46t46 -112v-936q0 -203 -110 -316q-110 -114 -306 -114q-187 0 -306 116q-46 46 -46 100q0 61 39 101zM732 1423q54 53 130 53t130 -53q54 -54 54 -129t-54 -128q-54 -54 -130 -54t-130 54q-54 53 -54 128t54 129z" />
    <glyph glyph-name="Jcircumflex" unicode="&#x134;" horiz-adv-x="1056" 
d="M46 385q44 39 108 39q77 0 136 -76q47 -60 124 -60q142 0 142 186v776q0 72 51 123t123 51t123 -51t51 -123v-790q0 -229 -128 -358q-125 -126 -340 -126q-251 0 -398 188q-38 48 -38 112q0 67 46 109zM730 1678l-164 -136q-31 -28 -74 -28q-39 0 -68 30q-30 29 -30 68
q0 47 44 84l254 212q19 16 38 16t38 -16l254 -212q44 -37 44 -84q0 -39 -29 -68q-30 -30 -69 -30q-43 0 -74 28z" />
    <glyph glyph-name="jcircumflex" unicode="&#x135;" horiz-adv-x="632" 
d="M-235 -247q38 39 97 39q55 0 98 -40q51 -44 102 -44q116 0 116 162v932q0 66 46 112t112 46t112 -46t46 -112v-936q0 -203 -110 -316q-110 -114 -306 -114q-187 0 -306 116q-46 46 -46 100q0 61 39 101zM336 1230l-164 -136q-31 -28 -74 -28q-39 0 -68 30q-30 29 -30 68
q0 47 44 84l254 212q19 16 38 16t38 -16l254 -212q44 -37 44 -84q0 -39 -29 -68q-30 -30 -69 -30q-43 0 -74 28z" />
    <glyph glyph-name="uni0136" unicode="&#x136;" horiz-adv-x="1330" 
d="M480 656v-506q0 -72 -51 -123t-123 -51t-123 51t-51 123v1100q0 72 51 123t123 51t123 -51t51 -123v-474l448 582q53 66 130 66q68 0 116 -48t48 -116q0 -63 -46 -112l-356 -430l400 -472q36 -45 36 -104q0 -69 -48 -116q-49 -48 -118 -48q-84 0 -134 66zM578 -230
q9 43 39 70q31 28 75 28q48 0 82 -33t34 -81q0 -23 -8 -42l-88 -226q-24 -64 -92 -64q-41 0 -69 28q-29 28 -29 68q0 12 4 28z" />
    <glyph glyph-name="uni0137" unicode="&#x137;" horiz-adv-x="1162" 
d="M118 1366q0 66 46 112t112 46t112 -46t46 -112v-788l364 338q47 44 104 44q60 0 101 -41t41 -101q0 -57 -38 -98l-248 -228l278 -274q16 -16 27 -39q13 -28 13 -61q0 -60 -41 -101t-101 -41q-64 0 -110 46l-390 384v-272q0 -66 -46 -112t-112 -46t-112 46t-46 112v1232z
M470 -230q9 43 39 70q31 28 75 28q48 0 82 -33t34 -81q0 -23 -8 -42l-88 -226q-24 -64 -92 -64q-41 0 -69 28q-29 28 -29 68q0 12 4 28z" />
    <glyph glyph-name="kgreenlandic" unicode="&#x138;" horiz-adv-x="1162" 
d="M118 802q0 66 46 112t112 46t112 -46t46 -112v-224l364 338q47 44 104 44q60 0 101 -41t41 -101q0 -57 -38 -98l-248 -228l278 -274q16 -16 27 -39q13 -28 13 -61q0 -60 -41 -101t-101 -41q-64 0 -110 46l-390 384v-272q0 -66 -46 -112t-112 -46t-112 46t-46 112v668z
" />
    <glyph glyph-name="Lacute" unicode="&#x139;" horiz-adv-x="994" 
d="M306 0q-72 0 -123 51t-51 123v1076q0 72 51 123t123 51t123 -51t51 -123v-938h342q66 0 110 -44q44 -45 44 -114q0 -66 -44 -110t-110 -44h-516zM572 1730l-256 -206q-31 -24 -66 -24q-41 0 -71 30q-29 29 -29 68q0 49 38 80l256 212q31 24 68 24q40 0 71 -31t31 -73
q0 -48 -42 -80z" />
    <glyph glyph-name="lacute" unicode="&#x13a;" horiz-adv-x="584" 
d="M126 1313q0 64 46 108t112 44t112 -44t46 -108v-1184q0 -64 -46 -108t-112 -44t-112 44t-46 108v1184zM558 1730l-256 -206q-31 -24 -66 -24q-41 0 -71 30q-29 29 -29 68q0 49 38 80l256 212q31 24 68 24q40 0 71 -31t31 -73q0 -48 -42 -80z" />
    <glyph glyph-name="uni013B" unicode="&#x13b;" horiz-adv-x="994" 
d="M306 0q-72 0 -123 51t-51 123v1076q0 72 51 123t123 51t123 -51t51 -123v-938h342q66 0 110 -44q44 -45 44 -114q0 -66 -44 -110t-110 -44h-516zM434 -230q9 43 39 70q31 28 75 28q48 0 82 -33t34 -81q0 -23 -8 -42l-88 -226q-24 -64 -92 -64q-41 0 -69 28q-29 28 -29 68
q0 12 4 28z" />
    <glyph glyph-name="uni013C" unicode="&#x13c;" horiz-adv-x="574" 
d="M132 1366q0 66 46 112t112 46t112 -46t46 -112v-1232q0 -66 -46 -112t-112 -46t-112 46t-46 112v1232zM160 -230q9 43 39 70q31 28 75 28q48 0 82 -33t34 -81q0 -23 -8 -42l-88 -226q-24 -64 -92 -64q-41 0 -69 28q-29 28 -29 68q0 12 4 28z" />
    <glyph glyph-name="Lcaron" unicode="&#x13d;" horiz-adv-x="1062" 
d="M306 0q-72 0 -123 51t-51 123v1076q0 72 51 123t123 51t123 -51t51 -123v-938h342q66 0 110 -44q44 -45 44 -114q0 -66 -44 -110t-110 -44h-516zM738 1392q11 44 47 73t85 29q57 0 99 -39q41 -40 41 -97q0 -21 -10 -44l-118 -288q-12 -30 -41 -49t-65 -19q-45 0 -77 32
q-33 31 -33 76q0 15 6 36z" />
    <glyph glyph-name="lcaron" unicode="&#x13e;" horiz-adv-x="934" 
d="M126 1366q0 66 46 112t112 46t112 -46t46 -112v-1232q0 -66 -46 -112t-112 -46t-112 46t-46 112v1232zM610 1392q11 44 47 73t85 29q57 0 99 -39q41 -40 41 -97q0 -21 -10 -44l-118 -288q-12 -30 -41 -49t-65 -19q-45 0 -77 32q-33 31 -33 76q0 15 6 36z" />
    <glyph glyph-name="Ldot" unicode="&#x13f;" horiz-adv-x="994" 
d="M306 0q-72 0 -123 51t-51 123v1076q0 72 51 123t123 51t123 -51t51 -123v-938h342q66 0 110 -44q44 -45 44 -114q0 -66 -44 -110t-110 -44h-516zM676 854q39 40 96 40t97 -40q39 -40 39 -96t-39 -96q-40 -40 -97 -40t-96 40q-40 40 -40 96t40 96z" />
    <glyph glyph-name="ldot" unicode="&#x140;" horiz-adv-x="934" 
d="M126 1366q0 66 46 112t112 46t112 -46t46 -112v-1232q0 -66 -46 -112t-112 -46t-112 46t-46 112v1232zM666 854q39 40 96 40t97 -40q39 -40 39 -96t-39 -96q-40 -40 -97 -40t-96 40q-40 40 -40 96t40 96z" />
    <glyph glyph-name="Lslash" unicode="&#x141;" horiz-adv-x="1010" 
d="M322 0q-72 0 -123 51t-51 123v320l-50 -30q-26 -16 -42 -16q-25 0 -44 19q-18 19 -18 43q0 31 32 52l122 76v612q0 72 51 123t123 51t123 -51t51 -123v-396l308 194q26 16 42 16q25 0 44 -19q18 -19 18 -43q0 -31 -32 -52l-380 -238v-400h342q66 0 110 -44
q44 -45 44 -114q0 -66 -44 -110t-110 -44h-516z" />
    <glyph glyph-name="lslash" unicode="&#x142;" horiz-adv-x="818" 
d="M244 602l-158 -98q-26 -16 -42 -16q-25 0 -44 19q-18 19 -18 43q0 31 32 52l230 144v620q0 66 46 112t112 46t112 -46t46 -112v-422l176 110q26 16 42 16q25 0 44 -19q18 -19 18 -43q0 -31 -32 -52l-248 -156v-666q0 -66 -46 -112t-112 -46t-112 46t-46 112v468z" />
    <glyph glyph-name="Nacute" unicode="&#x143;" horiz-adv-x="1466" 
d="M986 646v604q0 72 51 123t123 51t123 -51t51 -123v-1154q0 -56 -30 -88q-29 -32 -78 -32q-64 0 -106 48l-640 730v-604q0 -72 -51 -123t-123 -51t-123 51t-51 123v1154q0 56 30 89q29 31 78 31q64 0 106 -48zM932 1730l-256 -206q-31 -24 -66 -24q-41 0 -71 30
q-29 29 -29 68q0 49 38 80l256 212q31 24 68 24q40 0 71 -31t31 -73q0 -48 -42 -80z" />
    <glyph glyph-name="nacute" unicode="&#x144;" horiz-adv-x="1142" 
d="M118 802q0 66 46 112t112 46q64 0 110 -44q43 -42 48 -102q93 146 282 146q135 0 223 -91q91 -96 91 -251v-484q0 -66 -46 -112t-112 -46t-112 46t-46 112v406q0 64 -41 106q-40 42 -99 42q-56 0 -95 -38q-41 -38 -45 -98v-418q0 -66 -46 -112t-112 -46t-112 46t-46 112
v668zM784 1282l-256 -206q-31 -24 -66 -24q-41 0 -71 30q-29 29 -29 68q0 49 38 80l256 212q31 24 68 24q40 0 71 -31t31 -73q0 -48 -42 -80z" />
    <glyph glyph-name="uni0145" unicode="&#x145;" horiz-adv-x="1466" 
d="M986 646v604q0 72 51 123t123 51t123 -51t51 -123v-1154q0 -56 -30 -88q-29 -32 -78 -32q-64 0 -106 48l-640 730v-604q0 -72 -51 -123t-123 -51t-123 51t-51 123v1154q0 56 30 89q29 31 78 31q64 0 106 -48zM678 -230q9 43 39 70q31 28 75 28q48 0 82 -33t34 -81
q0 -23 -8 -42l-88 -226q-24 -64 -92 -64q-41 0 -69 28q-29 28 -29 68q0 12 4 28z" />
    <glyph glyph-name="uni0146" unicode="&#x146;" horiz-adv-x="1142" 
d="M118 802q0 66 46 112t112 46q64 0 110 -44q43 -42 48 -102q93 146 282 146q135 0 223 -91q91 -96 91 -251v-484q0 -66 -46 -112t-112 -46t-112 46t-46 112v406q0 64 -41 106q-40 42 -99 42q-56 0 -95 -38q-41 -38 -45 -98v-418q0 -66 -46 -112t-112 -46t-112 46t-46 112
v668zM466 -230q9 43 39 70q31 28 75 28q48 0 82 -33t34 -81q0 -23 -8 -42l-88 -226q-24 -64 -92 -64q-41 0 -69 28q-29 28 -29 68q0 12 4 28z" />
    <glyph glyph-name="Ncaron" unicode="&#x147;" horiz-adv-x="1466" 
d="M986 646v604q0 72 51 123t123 51t123 -51t51 -123v-1154q0 -56 -30 -88q-29 -32 -78 -32q-64 0 -106 48l-640 730v-604q0 -72 -51 -123t-123 -51t-123 51t-51 123v1154q0 56 30 89q29 31 78 31q64 0 106 -48zM896 1866q31 28 74 28q39 0 69 -29q29 -30 29 -69
q0 -47 -44 -84l-254 -212q-19 -16 -38 -16t-38 16l-254 212q-44 37 -44 84q0 39 30 69q29 29 68 29q43 0 74 -28l164 -136z" />
    <glyph glyph-name="ncaron" unicode="&#x148;" horiz-adv-x="1142" 
d="M118 802q0 66 46 112t112 46q64 0 110 -44q43 -42 48 -102q93 146 282 146q135 0 223 -91q91 -96 91 -251v-484q0 -66 -46 -112t-112 -46t-112 46t-46 112v406q0 64 -41 106q-40 42 -99 42q-56 0 -95 -38q-41 -38 -45 -98v-418q0 -66 -46 -112t-112 -46t-112 46t-46 112
v668zM734 1418q31 28 74 28q39 0 69 -29q29 -30 29 -69q0 -47 -44 -84l-254 -212q-19 -16 -38 -16t-38 16l-254 212q-44 37 -44 84q0 39 30 69q29 29 68 29q43 0 74 -28l164 -136z" />
    <glyph glyph-name="napostrophe" unicode="&#x149;" horiz-adv-x="1344" 
d="M334 802q0 66 46 112t112 46q64 0 110 -44q43 -42 48 -102q93 146 282 146q135 0 223 -91q91 -96 91 -251v-484q0 -66 -46 -112t-112 -46t-112 46t-46 112v406q0 64 -41 106q-40 42 -99 42q-56 0 -95 -38q-41 -38 -45 -98v-418q0 -66 -46 -112t-112 -46t-112 46t-46 112
v668zM118 1392q11 44 47 73t85 29q57 0 99 -39q41 -40 41 -97q0 -21 -10 -44l-118 -288q-12 -30 -41 -49t-65 -19q-45 0 -77 32q-33 31 -33 76q0 15 6 36z" />
    <glyph glyph-name="Eng" unicode="&#x14a;" horiz-adv-x="1466" 
d="M667 -269q40 41 101 41q30 0 78 -24q24 -12 50 -12q90 0 90 120v144l-506 690v-540q0 -72 -51 -123t-123 -51t-123 51t-51 123v1154q0 56 31 89q29 31 75 31q64 0 118 -74l630 -856v756q0 72 51 123t123 51t123 -51t51 -123v-1402q0 -196 -98 -303q-99 -109 -282 -109
q-168 0 -266 74q-60 43 -60 122q0 59 39 99z" />
    <glyph glyph-name="eng" unicode="&#x14b;" horiz-adv-x="1142" 
d="M407 -291q36 37 89 37q38 0 68 -18q33 -20 64 -20q86 0 86 108v724q0 64 -41 106q-40 42 -99 42t-99 -42q-41 -42 -41 -106v-406q0 -66 -46 -112t-112 -46t-112 46t-46 112v668q0 66 46 112t112 46q64 0 110 -44q43 -42 48 -102q93 146 282 146q135 0 223 -91
q91 -96 91 -251v-762q0 -202 -92 -310q-94 -110 -270 -110q-150 0 -248 80q-50 40 -50 102q0 54 37 91z" />
    <glyph glyph-name="Omacron" unicode="&#x14c;" horiz-adv-x="1656" 
d="M1355 181q-219 -205 -527 -205t-526 205q-224 209 -224 519t224 520q218 204 526 204t527 -204q223 -210 223 -520t-223 -519zM543 406q116 -118 285 -118t285 118q117 119 117 294t-117 294q-116 118 -285 118t-285 -118q-117 -119 -117 -294t117 -294zM550 1780
q31 30 74 30h408q44 0 74 -30t30 -74q0 -43 -30 -74q-30 -30 -74 -30h-408q-43 0 -74 30q-30 31 -30 74q0 44 30 74z" />
    <glyph glyph-name="omacron" unicode="&#x14d;" horiz-adv-x="1180" 
d="M960 119q-151 -143 -370 -143t-369 143q-151 143 -151 349t151 349q150 143 369 143t370 -143q150 -143 150 -349t-150 -349zM731 615q-60 57 -141 57t-141 -57q-63 -60 -63 -147t63 -147q60 -57 141 -57t141 57q63 60 63 147t-63 147zM312 1332q31 30 74 30h408
q44 0 74 -30t30 -74q0 -43 -30 -74q-30 -30 -74 -30h-408q-43 0 -74 30q-30 31 -30 74q0 44 30 74z" />
    <glyph glyph-name="Obreve" unicode="&#x14e;" horiz-adv-x="1656" 
d="M1355 181q-219 -205 -527 -205t-526 205q-224 209 -224 519t224 520q218 204 526 204t527 -204q223 -210 223 -520t-223 -519zM543 406q116 -118 285 -118t285 118q117 119 117 294t-117 294q-116 118 -285 118t-285 -118q-117 -119 -117 -294t117 -294zM658 1590
q-78 49 -114 134q-12 32 -12 58q0 42 27 71t69 29q75 0 110 -76q28 -62 90 -62t90 62q33 76 110 76q42 0 69 -29t27 -71q0 -26 -12 -58q-36 -85 -113 -134q-77 -48 -171 -48t-170 48z" />
    <glyph glyph-name="obreve" unicode="&#x14f;" horiz-adv-x="1180" 
d="M960 119q-151 -143 -370 -143t-369 143q-151 143 -151 349t151 349q150 143 369 143t370 -143q150 -143 150 -349t-150 -349zM731 615q-60 57 -141 57t-141 -57q-63 -60 -63 -147t63 -147q60 -57 141 -57t141 57q63 60 63 147t-63 147zM420 1142q-78 49 -114 134
q-12 32 -12 58q0 42 27 71t69 29q75 0 110 -76q28 -62 90 -62t90 62q33 76 110 76q42 0 69 -29t27 -71q0 -26 -12 -58q-36 -85 -113 -134q-77 -48 -171 -48t-170 48z" />
    <glyph glyph-name="Ohungarumlaut" unicode="&#x150;" horiz-adv-x="1656" 
d="M1355 181q-219 -205 -527 -205t-526 205q-224 209 -224 519t224 520q218 204 526 204t527 -204q223 -210 223 -520t-223 -519zM543 406q116 -118 285 -118t285 118q117 119 117 294t-117 294q-116 118 -285 118t-285 -118q-117 -119 -117 -294t117 -294zM848 1730
l-256 -206q-31 -24 -66 -24q-41 0 -71 30q-29 29 -29 68q0 49 38 80l256 212q31 24 68 24q40 0 71 -31t31 -73q0 -48 -42 -80zM1268 1730l-256 -206q-31 -24 -66 -24q-41 0 -71 30q-29 29 -29 68q0 49 38 80l256 212q31 24 68 24q40 0 71 -31t31 -73q0 -48 -42 -80z" />
    <glyph glyph-name="ohungarumlaut" unicode="&#x151;" horiz-adv-x="1180" 
d="M960 119q-151 -143 -370 -143t-369 143q-151 143 -151 349t151 349q150 143 369 143t370 -143q150 -143 150 -349t-150 -349zM731 615q-60 57 -141 57t-141 -57q-63 -60 -63 -147t63 -147q60 -57 141 -57t141 57q63 60 63 147t-63 147zM630 1282l-256 -206
q-31 -24 -66 -24q-41 0 -71 30q-29 29 -29 68q0 49 38 80l256 212q31 24 68 24q40 0 71 -31t31 -73q0 -48 -42 -80zM1050 1282l-256 -206q-31 -24 -66 -24q-41 0 -71 30q-29 29 -29 68q0 49 38 80l256 212q31 24 68 24q40 0 71 -31t31 -73q0 -48 -42 -80z" />
    <glyph glyph-name="OE" unicode="&#x152;" horiz-adv-x="1718" 
d="M542 418q113 -106 284 -106v776q-171 -2 -284 -108q-116 -109 -116 -280q0 -173 116 -282zM826 0q-311 0 -525 193q-223 199 -223 507t224 508q215 192 526 192h654q66 0 110 -44q44 -45 44 -114q0 -66 -44 -110t-110 -44h-308v-188h264q66 0 110 -44q44 -45 44 -114
q0 -66 -44 -110t-110 -44h-264v-276h326q66 0 110 -44q44 -45 44 -114q0 -66 -44 -110t-110 -44h-674z" />
    <glyph glyph-name="oe" unicode="&#x153;" horiz-adv-x="1866" 
d="M731 615q-60 57 -141 57t-141 -57q-63 -60 -63 -147t63 -147q60 -57 141 -57t141 57q63 60 63 147t-63 147zM1494 590q-20 54 -70 87q-53 35 -122 35t-121 -35q-51 -33 -71 -87h384zM1114 18q-98 41 -156 110q-125 -152 -368 -152q-219 0 -369 143q-151 143 -151 349
t151 349q150 143 369 143q243 0 368 -152q62 70 151 111q90 41 183 41q195 0 338 -123q144 -124 166 -313q7 -62 -29 -100t-97 -38h-562q44 -142 210 -142q99 0 172 54q46 34 94 34q61 0 101 -39q39 -39 39 -97q0 -67 -60 -114q-133 -106 -354 -106q-100 0 -196 42z" />
    <glyph glyph-name="Racute" unicode="&#x154;" horiz-adv-x="1220" 
d="M564 1400q224 0 362 -126q138 -127 138 -336q0 -130 -65 -231q-61 -93 -167 -145l244 -338q32 -46 32 -96q0 -68 -46 -110t-116 -42q-82 0 -132 70l-334 488v-384q0 -72 -51 -123t-123 -51t-123 51t-51 123v1076q0 72 51 123t123 51h258zM480 768h48q88 0 138 43
q50 44 50 127t-50 127q-50 43 -138 43h-48v-340zM764 1730l-256 -206q-31 -24 -66 -24q-41 0 -71 30q-29 29 -29 68q0 49 38 80l256 212q31 24 68 24q40 0 71 -31t31 -73q0 -48 -42 -80z" />
    <glyph glyph-name="racute" unicode="&#x155;" horiz-adv-x="852" 
d="M541 918q69 42 145 42q70 0 113 -42q41 -40 41 -100q0 -57 -42 -99q-42 -43 -100 -43q-16 0 -40 6q-21 6 -42 6q-86 0 -134 -57q-48 -58 -48 -163v-334q0 -66 -46 -112t-112 -46t-112 46t-46 112v668q0 66 46 112t112 46q64 0 109 -42q44 -42 49 -104q43 65 107 104z
M650 1282l-256 -206q-31 -24 -66 -24q-41 0 -71 30q-29 29 -29 68q0 49 38 80l256 212q31 24 68 24q40 0 71 -31t31 -73q0 -48 -42 -80z" />
    <glyph glyph-name="uni0156" unicode="&#x156;" horiz-adv-x="1220" 
d="M564 1400q224 0 362 -126q138 -127 138 -336q0 -130 -65 -231q-61 -93 -167 -145l244 -338q32 -46 32 -96q0 -68 -46 -110t-116 -42q-82 0 -132 70l-334 488v-384q0 -72 -51 -123t-123 -51t-123 51t-51 123v1076q0 72 51 123t123 51h258zM480 768h48q88 0 138 43
q50 44 50 127t-50 127q-50 43 -138 43h-48v-340zM514 -230q9 43 39 70q31 28 75 28q48 0 82 -33t34 -81q0 -23 -8 -42l-88 -226q-24 -64 -92 -64q-41 0 -69 28q-29 28 -29 68q0 12 4 28z" />
    <glyph glyph-name="uni0157" unicode="&#x157;" horiz-adv-x="856" 
d="M545 918q69 42 145 42q70 0 113 -42q41 -40 41 -100q0 -57 -42 -99q-42 -43 -100 -43q-16 0 -40 6q-21 6 -42 6q-86 0 -134 -57q-48 -58 -48 -163v-334q0 -66 -46 -112t-112 -46t-112 46t-46 112v668q0 66 46 112t112 46q64 0 109 -42q44 -42 49 -104q43 65 107 104z
M162 -230q9 43 39 70q31 28 75 28q48 0 82 -33t34 -81q0 -23 -8 -42l-88 -226q-24 -64 -92 -64q-41 0 -69 28q-29 28 -29 68q0 12 4 28z" />
    <glyph glyph-name="Rcaron" unicode="&#x158;" horiz-adv-x="1220" 
d="M564 1400q224 0 362 -126q138 -127 138 -336q0 -130 -65 -231q-61 -93 -167 -145l244 -338q32 -46 32 -96q0 -68 -46 -110t-116 -42q-82 0 -132 70l-334 488v-384q0 -72 -51 -123t-123 -51t-123 51t-51 123v1076q0 72 51 123t123 51h258zM480 768h48q88 0 138 43
q50 44 50 127t-50 127q-50 43 -138 43h-48v-340zM700 1866q31 28 74 28q39 0 69 -29q29 -30 29 -69q0 -47 -44 -84l-254 -212q-19 -16 -38 -16t-38 16l-254 212q-44 37 -44 84q0 39 30 69q29 29 68 29q43 0 74 -28l164 -136z" />
    <glyph glyph-name="rcaron" unicode="&#x159;" horiz-adv-x="854" 
d="M543 918q69 42 145 42q70 0 113 -42q41 -40 41 -100q0 -57 -42 -99q-42 -43 -100 -43q-16 0 -40 6q-21 6 -42 6q-86 0 -134 -57q-48 -58 -48 -163v-334q0 -66 -46 -112t-112 -46t-112 46t-46 112v668q0 66 46 112t112 46q64 0 109 -42q44 -42 49 -104q43 65 107 104z
M618 1418q31 28 74 28q39 0 69 -29q29 -30 29 -69q0 -47 -44 -84l-254 -212q-19 -16 -38 -16t-38 16l-254 212q-44 37 -44 84q0 39 30 69q29 29 68 29q43 0 74 -28l164 -136z" />
    <glyph glyph-name="Sacute" unicode="&#x15a;" horiz-adv-x="1126" 
d="M612 1126q-116 0 -116 -86q0 -45 42 -79q44 -37 164 -85q350 -141 350 -466q0 -196 -126 -313q-130 -121 -360 -121q-271 0 -456 166q-50 44 -50 118q0 63 47 110q46 46 109 46q47 0 98 -40q104 -86 226 -86q75 0 120 36q44 35 44 92q0 63 -39 104q-41 43 -147 84
q-195 77 -282 182q-88 105 -88 262q0 159 114 264q118 110 308 110q186 0 336 -104q66 -49 66 -122q0 -59 -41 -101q-41 -43 -99 -43q-47 0 -96 30q-65 42 -124 42zM758 1730l-256 -206q-31 -24 -66 -24q-41 0 -71 30q-29 29 -29 68q0 49 38 80l256 212q31 24 68 24
q40 0 71 -31t31 -73q0 -48 -42 -80z" />
    <glyph glyph-name="sacute" unicode="&#x15b;" horiz-adv-x="824" 
d="M46 168q0 50 33 85q34 35 83 35q40 0 78 -28q57 -44 116 -44q39 0 63 18q23 19 23 50q0 36 -19 59q-21 24 -79 49q-240 101 -240 298q0 119 88 194q88 76 230 76q134 0 244 -70q52 -35 52 -96q0 -51 -33 -83q-31 -31 -79 -31q-28 0 -60 20q-33 20 -66 20q-60 0 -60 -40
q0 -22 21 -39q23 -19 91 -49q226 -100 226 -304q0 -136 -89 -221q-95 -91 -261 -91q-188 0 -312 98q-50 37 -50 94zM620 1282l-256 -206q-31 -24 -66 -24q-41 0 -71 30q-29 29 -29 68q0 49 38 80l256 212q31 24 68 24q40 0 71 -31t31 -73q0 -48 -42 -80z" />
    <glyph glyph-name="Scircumflex" unicode="&#x15c;" horiz-adv-x="1126" 
d="M612 1126q-116 0 -116 -86q0 -45 42 -79q44 -37 164 -85q350 -141 350 -466q0 -196 -126 -313q-130 -121 -360 -121q-271 0 -456 166q-50 44 -50 118q0 63 47 110q46 46 109 46q47 0 98 -40q104 -86 226 -86q75 0 120 36q44 35 44 92q0 63 -39 104q-41 43 -147 84
q-195 77 -282 182q-88 105 -88 262q0 159 114 264q118 110 308 110q186 0 336 -104q66 -49 66 -122q0 -59 -41 -101q-41 -43 -99 -43q-47 0 -96 30q-65 42 -124 42zM550 1678l-164 -136q-31 -28 -74 -28q-39 0 -68 30q-30 29 -30 68q0 47 44 84l254 212q19 16 38 16t38 -16
l254 -212q44 -37 44 -84q0 -39 -29 -68q-30 -30 -69 -30q-43 0 -74 28z" />
    <glyph glyph-name="scircumflex" unicode="&#x15d;" horiz-adv-x="824" 
d="M46 168q0 50 33 85q34 35 83 35q40 0 78 -28q57 -44 116 -44q39 0 63 18q23 19 23 50q0 36 -19 59q-21 24 -79 49q-240 101 -240 298q0 119 88 194q88 76 230 76q134 0 244 -70q52 -35 52 -96q0 -51 -33 -83q-31 -31 -79 -31q-28 0 -60 20q-33 20 -66 20q-60 0 -60 -40
q0 -22 21 -39q23 -19 91 -49q226 -100 226 -304q0 -136 -89 -221q-95 -91 -261 -91q-188 0 -312 98q-50 37 -50 94zM406 1230l-164 -136q-31 -28 -74 -28q-39 0 -68 30q-30 29 -30 68q0 47 44 84l254 212q19 16 38 16t38 -16l254 -212q44 -37 44 -84q0 -39 -29 -68
q-30 -30 -69 -30q-43 0 -74 28z" />
    <glyph glyph-name="Scedilla" unicode="&#x15e;" horiz-adv-x="1126" 
d="M612 1126q-116 0 -116 -86q0 -45 42 -79q44 -37 164 -85q350 -141 350 -466q0 -166 -92 -277q-94 -114 -264 -145l-38 -80q63 -19 100 -63q38 -48 38 -115q0 -86 -66 -144q-71 -62 -184 -62q-87 0 -154 32q-50 23 -50 76q0 33 23 55q22 21 55 21q22 0 38 -8
q27 -12 54 -12q68 0 68 54q0 60 -106 66q-30 0 -30 24q0 12 6 24l58 124q-240 19 -398 162q-50 44 -50 118q0 63 47 110q46 46 109 46q47 0 98 -40q104 -86 226 -86q75 0 120 36q44 35 44 92q0 63 -39 104q-41 43 -147 84q-195 77 -282 182q-88 105 -88 262q0 159 114 264
q118 110 308 110q186 0 336 -104q66 -49 66 -122q0 -59 -41 -101q-41 -43 -99 -43q-47 0 -96 30q-65 42 -124 42z" />
    <glyph glyph-name="scedilla" unicode="&#x15f;" horiz-adv-x="824" 
d="M46 168q0 50 33 85q34 35 83 35q40 0 78 -28q57 -44 116 -44q39 0 63 18q23 19 23 50q0 36 -19 59q-21 24 -79 49q-240 101 -240 298q0 119 88 194q88 76 230 76q134 0 244 -70q52 -35 52 -96q0 -51 -33 -83q-31 -31 -79 -31q-28 0 -60 20q-33 20 -66 20q-60 0 -60 -40
q0 -22 21 -39q23 -19 91 -49q226 -100 226 -304q0 -111 -60 -190q-64 -82 -178 -110l-38 -80q63 -19 100 -63q38 -48 38 -115q0 -86 -66 -144q-71 -62 -184 -62q-87 0 -154 32q-50 23 -50 76q0 33 23 55q22 21 55 21q22 0 38 -8q27 -12 54 -12q68 0 68 54q0 60 -106 66
q-30 0 -30 24q0 12 6 24l58 126q-144 17 -236 92q-50 37 -50 94z" />
    <glyph glyph-name="Scaron" unicode="&#x160;" horiz-adv-x="1126" 
d="M612 1126q-116 0 -116 -86q0 -45 42 -79q44 -37 164 -85q350 -141 350 -466q0 -196 -126 -313q-130 -121 -360 -121q-271 0 -456 166q-50 44 -50 118q0 63 47 110q46 46 109 46q47 0 98 -40q104 -86 226 -86q75 0 120 36q44 35 44 92q0 63 -39 104q-41 43 -147 84
q-195 77 -282 182q-88 105 -88 262q0 159 114 264q118 110 308 110q186 0 336 -104q66 -49 66 -122q0 -59 -41 -101q-41 -43 -99 -43q-47 0 -96 30q-65 42 -124 42zM714 1866q31 28 74 28q39 0 69 -29q29 -30 29 -69q0 -47 -44 -84l-254 -212q-19 -16 -38 -16t-38 16
l-254 212q-44 37 -44 84q0 39 30 69q29 29 68 29q43 0 74 -28l164 -136z" />
    <glyph glyph-name="scaron" unicode="&#x161;" horiz-adv-x="824" 
d="M46 168q0 50 33 85q34 35 83 35q40 0 78 -28q57 -44 116 -44q39 0 63 18q23 19 23 50q0 36 -19 59q-21 24 -79 49q-240 101 -240 298q0 119 88 194q88 76 230 76q134 0 244 -70q52 -35 52 -96q0 -51 -33 -83q-31 -31 -79 -31q-28 0 -60 20q-33 20 -66 20q-60 0 -60 -40
q0 -22 21 -39q23 -19 91 -49q226 -100 226 -304q0 -136 -89 -221q-95 -91 -261 -91q-188 0 -312 98q-50 37 -50 94zM570 1418q31 28 74 28q39 0 69 -29q29 -30 29 -69q0 -47 -44 -84l-254 -212q-19 -16 -38 -16t-38 16l-254 212q-44 37 -44 84q0 39 30 69q29 29 68 29
q43 0 74 -28l164 -136z" />
    <glyph glyph-name="uni0162" unicode="&#x162;" horiz-adv-x="1064" 
d="M182 1088q-66 0 -110 44t-44 110q0 69 44 114q44 44 110 44h700q66 0 110 -44q44 -45 44 -114q0 -66 -44 -110t-110 -44h-176v-938q0 -95 -80 -148l-44 -90q63 -19 100 -63q38 -48 38 -115q0 -86 -66 -144q-71 -62 -184 -62q-87 0 -154 32q-50 23 -50 76q0 33 23 55
q22 21 55 21q22 0 38 -8q27 -12 54 -12q68 0 68 54q0 60 -106 66q-30 0 -30 24q0 12 6 24l66 140q-82 52 -82 150v938h-176z" />
    <glyph glyph-name="uni0163" unicode="&#x163;" horiz-adv-x="762" 
d="M202 684h-44q-52 0 -89 37t-37 89q0 53 37 89q37 37 89 37h44v130q0 66 46 112t112 46t112 -46t46 -112v-130h104q53 0 89 -37q37 -36 37 -89q0 -52 -37 -89q-36 -37 -89 -37h-104v-550q0 -73 -56 -122l-50 -104q63 -19 100 -63q38 -48 38 -115q0 -86 -66 -144
q-71 -62 -184 -62q-87 0 -154 32q-50 23 -50 76q0 33 23 55q22 21 55 21q22 0 38 -8q27 -12 54 -12q68 0 68 54q0 60 -106 66q-30 0 -30 24q0 12 6 24l68 144q-70 47 -70 134v550z" />
    <glyph glyph-name="Tcaron" unicode="&#x164;" horiz-adv-x="1064" 
d="M182 1088q-66 0 -110 44t-44 110q0 69 44 114q44 44 110 44h700q66 0 110 -44q44 -45 44 -114q0 -66 -44 -110t-110 -44h-176v-938q0 -72 -51 -123t-123 -51t-123 51t-51 123v938h-176zM696 1866q31 28 74 28q39 0 69 -29q29 -30 29 -69q0 -47 -44 -84l-254 -212
q-19 -16 -38 -16t-38 16l-254 212q-44 37 -44 84q0 39 30 69q29 29 68 29q43 0 74 -28l164 -136z" />
    <glyph glyph-name="tcaron" unicode="&#x165;" horiz-adv-x="1176" 
d="M202 684h-44q-52 0 -89 37t-37 89q0 53 37 89q37 37 89 37h44v130q0 66 46 112t112 46t112 -46t46 -112v-130h104q53 0 89 -37q37 -36 37 -89q0 -52 -37 -89q-36 -37 -89 -37h-104v-550q0 -66 -46 -112t-112 -46t-112 46t-46 112v550zM852 1392q11 44 47 73t85 29
q57 0 99 -39q41 -40 41 -97q0 -21 -10 -44l-118 -288q-12 -30 -41 -49t-65 -19q-45 0 -77 32q-33 31 -33 76q0 15 6 36z" />
    <glyph glyph-name="Tbar" unicode="&#x166;" horiz-adv-x="1064" 
d="M358 766v322h-176q-66 0 -110 44t-44 110q0 69 44 114q44 44 110 44h700q66 0 110 -44q44 -45 44 -114q0 -66 -44 -110t-110 -44h-176v-322h138q37 0 64 -28q26 -27 26 -64q0 -38 -26 -65q-27 -27 -64 -27h-138v-432q0 -72 -51 -123t-123 -51t-123 51t-51 123v432h-138
q-37 0 -64 27q-26 27 -26 65q0 37 26 64q27 28 64 28h138z" />
    <glyph glyph-name="tbar" unicode="&#x167;" horiz-adv-x="762" 
d="M202 354h-48q-37 0 -64 27q-26 27 -26 65q0 37 26 64q27 28 64 28h48v146h-44q-52 0 -89 37t-37 89q0 53 37 89q37 37 89 37h44v130q0 66 46 112t112 46t112 -46t46 -112v-130h104q53 0 89 -37q37 -36 37 -89q0 -52 -37 -89q-36 -37 -89 -37h-104v-146h102q37 0 64 -28
q26 -27 26 -64q0 -38 -26 -65q-27 -27 -64 -27h-102v-220q0 -66 -46 -112t-112 -46t-112 46t-46 112v220z" />
    <glyph glyph-name="Utilde" unicode="&#x168;" horiz-adv-x="1348" 
d="M1216 522q0 -249 -165 -403q-154 -143 -377 -143t-377 143q-165 154 -165 403v728q0 72 51 123t123 51t123 -51t51 -123v-738q0 -105 54 -165q52 -59 140 -59t141 59q53 60 53 165v738q0 72 51 123t123 51t123 -51t51 -123v-728zM644 1622q-47 38 -82 38q-30 0 -50 -42
q-11 -24 -35 -40q-25 -16 -53 -16q-37 0 -65 27q-27 28 -27 65q0 16 6 34q24 78 80 125q56 45 124 45q78 0 162 -68q48 -38 82 -38q30 0 50 42q11 24 35 40q25 16 53 16q38 0 65 -27t27 -65q0 -16 -6 -34q-24 -78 -80 -125q-56 -45 -124 -45q-78 0 -162 68z" />
    <glyph glyph-name="utilde" unicode="&#x169;" horiz-adv-x="1148" 
d="M1030 134q0 -66 -46 -112t-112 -46q-64 0 -110 44q-43 42 -48 102q-93 -146 -282 -146q-135 0 -223 92q-91 95 -91 250v484q0 66 46 112t112 46t112 -46t46 -112v-406q0 -64 41 -106q40 -42 99 -42q56 0 96 38t44 98v418q0 66 46 112t112 46t112 -46t46 -112v-668z
M544 1174q-47 38 -82 38q-30 0 -50 -42q-11 -24 -35 -40q-25 -16 -53 -16q-37 0 -65 27q-27 28 -27 65q0 16 6 34q24 78 80 125q56 45 124 45q78 0 162 -68q48 -38 82 -38q30 0 50 42q11 24 35 40q25 16 53 16q38 0 65 -27t27 -65q0 -16 -6 -34q-24 -78 -80 -125
q-56 -45 -124 -45q-78 0 -162 68z" />
    <glyph glyph-name="Umacron" unicode="&#x16a;" horiz-adv-x="1348" 
d="M1216 522q0 -249 -165 -403q-154 -143 -377 -143t-377 143q-165 154 -165 403v728q0 72 51 123t123 51t123 -51t51 -123v-738q0 -105 54 -165q52 -59 140 -59t141 59q53 60 53 165v738q0 72 51 123t123 51t123 -51t51 -123v-728zM396 1780q31 30 74 30h408q44 0 74 -30
t30 -74q0 -43 -30 -74q-30 -30 -74 -30h-408q-43 0 -74 30q-30 31 -30 74q0 44 30 74z" />
    <glyph glyph-name="umacron" unicode="&#x16b;" horiz-adv-x="1148" 
d="M1030 134q0 -66 -46 -112t-112 -46q-64 0 -110 44q-43 42 -48 102q-93 -146 -282 -146q-135 0 -223 92q-91 95 -91 250v484q0 66 46 112t112 46t112 -46t46 -112v-406q0 -64 41 -106q40 -42 99 -42q56 0 96 38t44 98v418q0 66 46 112t112 46t112 -46t46 -112v-668z
M296 1332q31 30 74 30h408q44 0 74 -30t30 -74q0 -43 -30 -74q-30 -30 -74 -30h-408q-43 0 -74 30q-30 31 -30 74q0 44 30 74z" />
    <glyph glyph-name="Ubreve" unicode="&#x16c;" horiz-adv-x="1348" 
d="M1216 522q0 -249 -165 -403q-154 -143 -377 -143t-377 143q-165 154 -165 403v728q0 72 51 123t123 51t123 -51t51 -123v-738q0 -105 54 -165q52 -59 140 -59t141 59q53 60 53 165v738q0 72 51 123t123 51t123 -51t51 -123v-728zM504 1592q-78 49 -114 134q-12 32 -12 58
q0 42 27 71t69 29q75 0 110 -76q28 -62 90 -62t90 62q33 76 110 76q42 0 69 -29t27 -71q0 -26 -12 -58q-36 -85 -113 -134q-77 -48 -171 -48t-170 48z" />
    <glyph glyph-name="ubreve" unicode="&#x16d;" horiz-adv-x="1148" 
d="M1030 134q0 -66 -46 -112t-112 -46q-64 0 -110 44q-43 42 -48 102q-93 -146 -282 -146q-135 0 -223 92q-91 95 -91 250v484q0 66 46 112t112 46t112 -46t46 -112v-406q0 -64 41 -106q40 -42 99 -42q56 0 96 38t44 98v418q0 66 46 112t112 46t112 -46t46 -112v-668z
M404 1142q-78 49 -114 134q-5 14 -8 28q-4 16 -4 30q0 42 27 71t69 29q75 0 110 -76q28 -62 90 -62t90 62q33 76 110 76q42 0 69 -29t27 -71q0 -26 -12 -58q-36 -85 -113 -134q-77 -48 -171 -48t-170 48z" />
    <glyph glyph-name="Uring" unicode="&#x16e;" horiz-adv-x="1348" 
d="M1216 522q0 -249 -165 -403q-154 -143 -377 -143t-377 143q-165 154 -165 403v728q0 72 51 123t123 51t123 -51t51 -123v-738q0 -105 54 -165q52 -59 140 -59t141 59q53 60 53 165v738q0 72 51 123t123 51t123 -51t51 -123v-728zM833 1550q-66 -62 -159 -62t-159 62
q-67 63 -67 156t67 156q66 62 159 62t159 -62q67 -63 67 -156t-67 -156zM730 1762q-23 22 -56 22t-55 -22q-23 -23 -23 -56t23 -55q22 -23 55 -23t56 23q22 22 22 55t-22 56z" />
    <glyph glyph-name="uring" unicode="&#x16f;" horiz-adv-x="1148" 
d="M1030 134q0 -66 -46 -112t-112 -46q-64 0 -110 44q-43 42 -48 102q-93 -146 -282 -146q-135 0 -223 92q-91 95 -91 250v484q0 66 46 112t112 46t112 -46t46 -112v-406q0 -64 41 -106q40 -42 99 -42q56 0 96 38t44 98v418q0 66 46 112t112 46t112 -46t46 -112v-668z
M733 1100q-66 -62 -159 -62t-159 62q-67 63 -67 156t67 156q66 62 159 62t159 -62q67 -63 67 -156t-67 -156zM630 1312q-23 22 -56 22t-55 -22q-23 -23 -23 -56t23 -55q22 -23 55 -23t56 23q22 22 22 55t-22 56z" />
    <glyph glyph-name="Uhungarumlaut" unicode="&#x170;" horiz-adv-x="1348" 
d="M1216 522q0 -249 -165 -403q-154 -143 -377 -143t-377 143q-165 154 -165 403v728q0 72 51 123t123 51t123 -51t51 -123v-738q0 -105 54 -165q52 -59 140 -59t141 59q53 60 53 165v738q0 72 51 123t123 51t123 -51t51 -123v-728zM706 1730l-256 -206q-31 -24 -66 -24
q-41 0 -71 30q-29 29 -29 68q0 49 38 80l256 212q31 24 68 24q40 0 71 -31t31 -73q0 -48 -42 -80zM1126 1730l-256 -206q-31 -24 -66 -24q-41 0 -71 30q-29 29 -29 68q0 49 38 80l256 212q31 24 68 24q40 0 71 -31t31 -73q0 -48 -42 -80z" />
    <glyph glyph-name="uhungarumlaut" unicode="&#x171;" horiz-adv-x="1150" 
d="M1030 134q0 -66 -46 -112t-112 -46q-64 0 -110 44q-43 42 -48 102q-93 -146 -282 -146q-135 0 -223 92q-91 95 -91 250v484q0 66 46 112t112 46t112 -46t46 -112v-406q0 -64 41 -106q40 -42 99 -42q56 0 96 38t44 98v418q0 66 46 112t112 46t112 -46t46 -112v-668z
M598 1282l-256 -206q-31 -24 -66 -24q-41 0 -71 30q-29 29 -29 68q0 49 38 80l256 212q31 24 68 24q40 0 71 -31t31 -73q0 -48 -42 -80zM1018 1282l-256 -206q-31 -24 -66 -24q-41 0 -71 30q-29 29 -29 68q0 49 38 80l256 212q31 24 68 24q40 0 71 -31t31 -73q0 -48 -42 -80
z" />
    <glyph glyph-name="Uogonek" unicode="&#x172;" horiz-adv-x="1348" 
d="M1216 522q0 -202 -112 -344q-103 -133 -272 -180q-106 -100 -106 -188q0 -68 72 -68q9 0 21 2l8 1l9 1q37 0 63 -25q25 -24 25 -59q0 -62 -56 -82q-51 -18 -120 -18q-100 0 -166 60q-64 58 -64 144q0 119 102 212q-206 19 -341 160q-147 151 -147 384v728q0 72 51 123
t123 51t123 -51t51 -123v-738q0 -105 54 -165q52 -59 140 -59t141 59q53 60 53 165v738q0 72 51 123t123 51t123 -51t51 -123v-728z" />
    <glyph glyph-name="uogonek" unicode="&#x173;" horiz-adv-x="1150" 
d="M1030 134q0 -85 -70 -132q-110 -104 -110 -192q0 -68 72 -68q5 0 11 1l10 1q12 2 17 2q37 0 63 -25q25 -24 25 -59q0 -62 -56 -82q-51 -18 -120 -18q-100 0 -166 60q-64 58 -64 144q0 137 136 240q-57 39 -64 116q-93 -146 -282 -146q-135 0 -223 92q-91 95 -91 250v484
q0 66 46 112t112 46t112 -46t46 -112v-406q0 -64 41 -106q40 -42 99 -42q56 0 96 38t44 98v418q0 66 46 112t112 46t112 -46t46 -112v-668z" />
    <glyph glyph-name="Wcircumflex" unicode="&#x174;" horiz-adv-x="2040" 
d="M1142 1332l252 -686l240 658q43 120 162 120q70 0 121 -45q53 -48 53 -121q0 -42 -16 -82l-428 -1112q-35 -88 -122 -88q-91 0 -122 88l-262 720l-262 -720q-31 -88 -122 -88q-87 0 -122 88l-428 1112q-16 40 -16 82q0 73 53 121q51 45 121 45q119 0 162 -120l240 -658
l252 686q34 92 122 92t122 -92zM1020 1678l-164 -136q-31 -28 -74 -28q-39 0 -68 30q-30 29 -30 68q0 47 44 84l254 212q19 16 38 16t38 -16l254 -212q44 -37 44 -84q0 -39 -29 -68q-30 -30 -69 -30q-43 0 -74 28z" />
    <glyph glyph-name="wcircumflex" unicode="&#x175;" horiz-adv-x="1596" 
d="M910 884l176 -406l134 366q19 52 56 83q39 33 90 33q64 0 108 -40q44 -41 44 -102q0 -18 -3 -38q-5 -25 -13 -44l-304 -686q-34 -74 -110 -74q-83 0 -112 74l-178 432l-178 -432q-29 -74 -112 -74q-76 0 -110 74l-304 686q-8 19 -12 44q-4 20 -4 38q0 61 45 102
q43 40 107 40q51 0 90 -33q37 -31 56 -83l134 -366l176 406q33 76 112 76t112 -76zM798 1230l-164 -136q-31 -28 -74 -28q-39 0 -68 30q-30 29 -30 68q0 47 44 84l254 212q19 16 38 16t38 -16l254 -212q44 -37 44 -84q0 -39 -29 -68q-30 -30 -69 -30q-43 0 -74 28z" />
    <glyph glyph-name="Ycircumflex" unicode="&#x176;" horiz-adv-x="1360" 
d="M557 27q-51 51 -51 123v392l-408 628q-26 39 -26 94q0 63 48 111q50 49 116 49q94 0 156 -96l288 -464l288 464q62 96 156 96q67 0 116 -49q48 -48 48 -111q0 -55 -26 -94l-408 -628v-392q0 -72 -51 -123t-123 -51t-123 51zM680 1678l-164 -136q-31 -28 -74 -28
q-39 0 -68 30q-30 29 -30 68q0 47 44 84l254 212q19 16 38 16t38 -16l254 -212q44 -37 44 -84q0 -39 -29 -68q-30 -30 -69 -30q-43 0 -74 28z" />
    <glyph glyph-name="ycircumflex" unicode="&#x177;" horiz-adv-x="1086" 
d="M532 -488q-17 -44 -57 -72q-41 -28 -91 -28q-63 0 -109 47q-45 45 -45 105q0 28 16 68l152 396l-302 722q-12 27 -12 62q0 63 44 106q43 42 106 42q54 0 93 -28q37 -27 53 -72l164 -456l154 450q38 106 152 106q63 0 108 -42q44 -43 44 -106q0 -26 -12 -62zM544 1230
l-164 -136q-31 -28 -74 -28q-39 0 -68 30q-30 29 -30 68q0 47 44 84l254 212q19 16 38 16t38 -16l254 -212q44 -37 44 -84q0 -39 -29 -68q-30 -30 -69 -30q-43 0 -74 28z" />
    <glyph glyph-name="Ydieresis" unicode="&#x178;" horiz-adv-x="1360" 
d="M557 27q-51 51 -51 123v392l-408 628q-26 39 -26 94q0 63 48 111q50 49 116 49q94 0 156 -96l288 -464l288 464q62 96 156 96q67 0 116 -49q48 -48 48 -111q0 -55 -26 -94l-408 -628v-392q0 -72 -51 -123t-123 -51t-123 51zM384 1802q39 40 96 40t97 -40q39 -40 39 -96
t-39 -96q-40 -40 -97 -40t-96 40q-40 40 -40 96t40 96zM784 1802q39 40 96 40t97 -40q39 -40 39 -96t-39 -96q-40 -40 -97 -40t-96 40q-40 40 -40 96t40 96z" />
    <glyph glyph-name="Zacute" unicode="&#x179;" horiz-adv-x="1152" 
d="M186 0q-53 0 -87 29q-33 28 -33 71q0 45 30 102l478 886h-312q-66 0 -110 44t-44 110q0 69 44 114q44 44 110 44h680q53 0 87 -29q33 -28 33 -71q0 -45 -30 -102l-472 -886h388q66 0 110 -44t44 -110q0 -69 -44 -113q-44 -45 -110 -45h-762zM792 1730l-256 -206
q-31 -24 -66 -24q-41 0 -71 30q-29 29 -29 68q0 49 38 80l256 212q31 24 68 24q40 0 71 -31t31 -73q0 -48 -42 -80z" />
    <glyph glyph-name="zacute" unicode="&#x17a;" horiz-adv-x="904" 
d="M384 684h-164q-52 0 -89 37t-37 89q0 53 37 89q37 37 89 37h510q39 0 63 -22q23 -21 23 -52q0 -38 -26 -84l-292 -526h238q53 0 89 -37q37 -36 37 -89q0 -52 -37 -89q-36 -37 -89 -37h-586q-39 0 -63 22q-23 21 -23 52q0 38 26 84zM664 1282l-256 -206q-31 -24 -66 -24
q-41 0 -71 30q-29 29 -29 68q0 49 38 80l256 212q31 24 68 24q40 0 71 -31t31 -73q0 -48 -42 -80z" />
    <glyph glyph-name="Zdotaccent" unicode="&#x17b;" horiz-adv-x="1152" 
d="M186 0q-53 0 -87 29q-33 28 -33 71q0 45 30 102l478 886h-312q-66 0 -110 44t-44 110q0 69 44 114q44 44 110 44h680q53 0 87 -29q33 -28 33 -71q0 -45 -30 -102l-472 -886h388q66 0 110 -44t44 -110q0 -69 -44 -113q-44 -45 -110 -45h-762zM482 1802q39 40 96 40t97 -40
q39 -40 39 -96t-39 -96q-40 -40 -97 -40t-96 40q-40 40 -40 96t40 96z" />
    <glyph glyph-name="zdotaccent" unicode="&#x17c;" horiz-adv-x="904" 
d="M384 684h-164q-52 0 -89 37t-37 89q0 53 37 89q37 37 89 37h510q39 0 63 -22q23 -21 23 -52q0 -38 -26 -84l-292 -526h238q53 0 89 -37q37 -36 37 -89q0 -52 -37 -89q-36 -37 -89 -37h-586q-39 0 -63 22q-23 21 -23 52q0 38 26 84zM366 1354q39 40 96 40t97 -40
q39 -40 39 -96t-39 -96q-40 -40 -97 -40t-96 40q-40 40 -40 96t40 96z" />
    <glyph glyph-name="Zcaron" unicode="&#x17d;" horiz-adv-x="1152" 
d="M186 0q-53 0 -87 29q-33 28 -33 71q0 45 30 102l478 886h-312q-66 0 -110 44t-44 110q0 69 44 114q44 44 110 44h680q53 0 87 -29q33 -28 33 -71q0 -45 -30 -102l-472 -886h388q66 0 110 -44t44 -110q0 -69 -44 -113q-44 -45 -110 -45h-762zM738 1866q31 28 74 28
q39 0 69 -29q29 -30 29 -69q0 -47 -44 -84l-254 -212q-19 -16 -38 -16t-38 16l-254 212q-44 37 -44 84q0 39 30 69q29 29 68 29q43 0 74 -28l164 -136z" />
    <glyph glyph-name="zcaron" unicode="&#x17e;" horiz-adv-x="904" 
d="M384 684h-164q-52 0 -89 37t-37 89q0 53 37 89q37 37 89 37h510q39 0 63 -22q23 -21 23 -52q0 -38 -26 -84l-292 -526h238q53 0 89 -37q37 -36 37 -89q0 -52 -37 -89q-36 -37 -89 -37h-586q-39 0 -63 22q-23 21 -23 52q0 38 26 84zM624 1418q31 28 74 28q39 0 69 -29
q29 -30 29 -69q0 -47 -44 -84l-254 -212q-19 -16 -38 -16t-38 16l-254 212q-44 37 -44 84q0 39 30 69q29 29 68 29q43 0 74 -28l164 -136z" />
    <glyph glyph-name="longs" unicode="&#x17f;" horiz-adv-x="818" 
d="M202 1116q0 189 100 298q101 108 276 108q166 0 276 -94q52 -45 52 -108q0 -56 -37 -94q-38 -38 -93 -38q-44 0 -86 28q-34 24 -76 24q-96 0 -96 -132v-974q0 -66 -46 -112t-112 -46t-112 46t-46 112v550h-44q-52 0 -89 37t-37 89q0 53 37 89q37 37 89 37h44v180z" />
    <glyph glyph-name="florin" unicode="&#x192;" horiz-adv-x="844" 
d="M544 -158q0 -189 -100 -297q-101 -109 -276 -109q-166 0 -276 94q-52 45 -52 108q0 56 37 94q38 38 93 38q44 0 86 -28q34 -24 76 -24q96 0 96 132v834h-44q-52 0 -89 37t-37 89q0 53 37 89q37 37 89 37h44v180q0 189 100 298q101 108 276 108q166 0 276 -94
q52 -45 52 -108q0 -56 -37 -94q-38 -38 -93 -38q-44 0 -86 28q-34 24 -76 24q-96 0 -96 -132v-172h144q53 0 89 -37q37 -36 37 -89q0 -52 -37 -89q-36 -37 -89 -37h-144v-842z" />
    <glyph glyph-name="Ohorn" unicode="&#x1a0;" horiz-adv-x="1656" 
d="M1355 1614q30 28 73 28q76 0 102 -76q22 -63 22 -132q0 -169 -142 -274q168 -197 168 -460q0 -310 -223 -519q-219 -205 -527 -205t-526 205q-224 209 -224 519t224 520q218 204 526 204q276 0 486 -172q54 41 54 112q0 64 -32 122q-12 24 -12 54q0 44 31 74zM543 406
q116 -118 285 -118t285 118q117 119 117 294t-117 294q-116 118 -285 118t-285 -118q-117 -119 -117 -294t117 -294z" />
    <glyph glyph-name="ohorn" unicode="&#x1a1;" horiz-adv-x="1188" 
d="M731 615q-60 57 -141 57t-141 -57q-63 -60 -63 -147t63 -147q60 -57 141 -57t141 57q63 60 63 147t-63 147zM1133 874q-41 -76 -115 -126q92 -124 92 -280q0 -206 -150 -349q-151 -143 -370 -143t-369 143q-151 143 -151 349t151 349q150 143 369 143q193 0 340 -118
q58 43 58 118q0 64 -32 122q-12 24 -12 54q0 44 31 74q30 28 73 28q76 0 102 -76q22 -63 22 -132q0 -82 -39 -156z" />
    <glyph glyph-name="Uhorn" unicode="&#x1af;" horiz-adv-x="1372" 
d="M1214 1612q-10 20 -10 54q0 44 31 74q30 28 73 28q76 0 102 -76q22 -63 22 -132q0 -99 -55 -183q-58 -86 -161 -133v-722q0 -249 -165 -403q-154 -143 -377 -143t-377 143q-165 154 -165 403v728q0 72 51 123t123 51t123 -51t51 -123v-738q0 -105 54 -165q52 -59 140 -59
t141 59q53 60 53 165v738q0 72 51 123t123 51q80 0 132 -62q72 47 72 128q0 64 -32 122z" />
    <glyph glyph-name="uhorn" unicode="&#x1b0;" horiz-adv-x="1220" 
d="M1038 1158q-10 20 -10 54q0 44 31 74q30 28 73 28q76 0 102 -76q22 -63 22 -132q0 -100 -55 -184q-61 -92 -171 -138v-650q0 -66 -46 -112t-112 -46q-64 0 -110 44q-43 42 -48 102q-93 -146 -282 -146q-135 0 -223 92q-91 95 -91 250v484q0 66 46 112t112 46t112 -46
t46 -112v-406q0 -64 41 -106q40 -42 99 -42q56 0 96 38t44 98v418q0 66 46 112t112 46q74 0 120 -56q78 50 78 132q0 64 -32 122z" />
    <glyph glyph-name="uni0218" unicode="&#x218;" horiz-adv-x="1126" 
d="M612 1126q-116 0 -116 -86q0 -45 42 -79q44 -37 164 -85q350 -141 350 -466q0 -196 -126 -313q-130 -121 -360 -121q-271 0 -456 166q-50 44 -50 118q0 63 47 110q46 46 109 46q47 0 98 -40q104 -86 226 -86q75 0 120 36q44 35 44 92q0 63 -39 104q-41 43 -147 84
q-195 77 -282 182q-88 105 -88 262q0 159 114 264q118 110 308 110q186 0 336 -104q66 -49 66 -122q0 -59 -41 -101q-41 -43 -99 -43q-47 0 -96 30q-65 42 -124 42zM464 -230q9 43 39 70q31 28 75 28q48 0 82 -33t34 -81q0 -23 -8 -42l-88 -226q-24 -64 -92 -64
q-41 0 -69 28q-29 28 -29 68q0 12 4 28z" />
    <glyph glyph-name="uni0219" unicode="&#x219;" horiz-adv-x="824" 
d="M46 168q0 50 33 85q34 35 83 35q40 0 78 -28q57 -44 116 -44q39 0 63 18q23 19 23 50q0 36 -19 59q-21 24 -79 49q-240 101 -240 298q0 119 88 194q88 76 230 76q134 0 244 -70q52 -35 52 -96q0 -51 -33 -83q-31 -31 -79 -31q-28 0 -60 20q-33 20 -66 20q-60 0 -60 -40
q0 -22 21 -39q23 -19 91 -49q226 -100 226 -304q0 -136 -89 -221q-95 -91 -261 -91q-188 0 -312 98q-50 37 -50 94zM306 -230q9 43 39 70q31 28 75 28q48 0 82 -33t34 -81q0 -23 -8 -42l-88 -226q-24 -64 -92 -64q-41 0 -69 28q-29 28 -29 68q0 12 4 28z" />
    <glyph glyph-name="uni021A" unicode="&#x21a;" horiz-adv-x="1064" 
d="M182 1088q-66 0 -110 44t-44 110q0 69 44 114q44 44 110 44h700q66 0 110 -44q44 -45 44 -114q0 -66 -44 -110t-110 -44h-176v-938q0 -72 -51 -123t-123 -51t-123 51t-51 123v938h-176zM408 -230q9 43 39 70q31 28 75 28q48 0 82 -33t34 -81q0 -23 -8 -42l-88 -226
q-24 -64 -92 -64q-41 0 -69 28q-29 28 -29 68q0 12 4 28z" />
    <glyph glyph-name="uni021B" unicode="&#x21b;" horiz-adv-x="762" 
d="M202 684h-44q-52 0 -89 37t-37 89q0 53 37 89q37 37 89 37h44v130q0 66 46 112t112 46t112 -46t46 -112v-130h104q53 0 89 -37q37 -36 37 -89q0 -52 -37 -89q-36 -37 -89 -37h-104v-550q0 -66 -46 -112t-112 -46t-112 46t-46 112v550zM236 -230q9 43 39 70q31 28 75 28
q48 0 82 -33t34 -81q0 -23 -8 -42l-88 -226q-24 -64 -92 -64q-41 0 -69 28q-29 28 -29 68q0 12 4 28z" />
    <glyph glyph-name="uni0237" unicode="&#x237;" horiz-adv-x="612" 
d="M-235 -247q38 39 97 39q55 0 98 -40q51 -44 102 -44q116 0 116 162v932q0 66 46 112t112 46t112 -46t46 -112v-936q0 -203 -110 -316q-110 -114 -306 -114q-187 0 -306 116q-46 46 -46 100q0 61 39 101z" />
    <glyph glyph-name="uni02BC" unicode="&#x2bc;" horiz-adv-x="836" 
d="M302 1408q11 44 47 73t85 29q57 0 99 -39q41 -40 41 -97q0 -21 -10 -44l-118 -288q-12 -30 -41 -49t-65 -19q-45 0 -77 32q-33 31 -33 76q0 15 6 36z" />
    <glyph glyph-name="circumflex" unicode="&#x2c6;" horiz-adv-x="836" 
d="M418 1270l-164 -136q-31 -28 -74 -28q-39 0 -68 30q-30 29 -30 68q0 47 44 84l254 212q19 16 38 16t38 -16l254 -212q44 -37 44 -84q0 -39 -29 -68q-30 -30 -69 -30q-43 0 -74 28z" />
    <glyph glyph-name="caron" unicode="&#x2c7;" horiz-adv-x="836" 
d="M582 1458q31 28 74 28q39 0 69 -29q29 -30 29 -69q0 -47 -44 -84l-254 -212q-19 -16 -38 -16t-38 16l-254 212q-44 37 -44 84q0 39 30 69q29 29 68 29q43 0 74 -28l164 -136z" />
    <glyph glyph-name="uni02C9" unicode="&#x2c9;" horiz-adv-x="836" 
d="M140 1372q31 30 74 30h408q44 0 74 -30t30 -74q0 -43 -30 -74q-30 -30 -74 -30h-408q-43 0 -74 30q-30 31 -30 74q0 44 30 74z" />
    <glyph glyph-name="breve" unicode="&#x2d8;" horiz-adv-x="836" 
d="M248 1162q-78 49 -114 134q-12 32 -12 58q0 42 27 71t69 29q75 0 110 -76q28 -62 90 -62t90 62q33 76 110 76q42 0 69 -29t27 -71q0 -26 -12 -58q-36 -85 -113 -134q-77 -48 -171 -48t-170 48z" />
    <glyph glyph-name="dotaccent" unicode="&#x2d9;" horiz-adv-x="836" 
d="M322 1394q39 40 96 40t97 -40q39 -40 39 -96t-39 -96q-40 -40 -97 -40t-96 40q-40 40 -40 96t40 96z" />
    <glyph glyph-name="ring" unicode="&#x2da;" horiz-adv-x="836" 
d="M577 1142q-66 -62 -159 -62t-159 62q-67 63 -67 156t67 156q66 62 159 62t159 -62q67 -63 67 -156t-67 -156zM474 1354q-23 22 -56 22t-55 -22q-23 -23 -23 -56t23 -55q22 -23 55 -23t56 23q22 22 22 55t-22 56z" />
    <glyph glyph-name="ogonek" unicode="&#x2db;" horiz-adv-x="836" 
d="M568 20q-130 -115 -130 -210q0 -68 72 -68q9 0 21 2l8 1l9 1q37 0 63 -25q25 -24 25 -59q0 -62 -56 -82q-51 -18 -120 -18q-100 0 -166 60q-64 58 -64 144q0 144 154 254h184z" />
    <glyph glyph-name="tilde" unicode="&#x2dc;" horiz-adv-x="836" 
d="M388 1216q-47 38 -82 38q-30 0 -50 -42q-11 -24 -35 -40q-25 -16 -53 -16q-37 0 -65 27q-27 28 -27 65q0 16 6 34q24 78 80 125q56 45 124 45q78 0 162 -68q48 -38 82 -38q30 0 50 42q11 24 35 40q25 16 53 16q38 0 65 -27t27 -65q0 -16 -6 -34q-24 -78 -80 -125
q-56 -45 -124 -45q-78 0 -162 68z" />
    <glyph glyph-name="hungarumlaut" unicode="&#x2dd;" horiz-adv-x="836" 
d="M398 1322l-256 -206q-31 -24 -66 -24q-41 0 -71 30q-29 29 -29 68q0 49 38 80l256 212q31 24 68 24q40 0 71 -31t31 -73q0 -48 -42 -80zM818 1322l-256 -206q-31 -24 -66 -24q-41 0 -71 30q-29 29 -29 68q0 49 38 80l256 212q31 24 68 24q40 0 71 -31t31 -73
q0 -48 -42 -80z" />
    <glyph glyph-name="gravecomb" unicode="&#x300;" horiz-adv-x="0" 
d="M-758 1475q31 31 70 31q37 0 68 -24l256 -212q38 -31 38 -80q0 -39 -29 -68q-29 -30 -71 -30q-35 0 -66 24l-256 206q-42 32 -42 80q0 42 32 73z" />
    <glyph glyph-name="acutecomb" unicode="&#x301;" horiz-adv-x="0" 
d="M-258 1322l-256 -206q-31 -24 -66 -24q-41 0 -71 30q-29 29 -29 68q0 49 38 80l256 212q31 24 68 24q40 0 71 -31t31 -73q0 -48 -42 -80z" />
    <glyph glyph-name="uni0302" unicode="&#x302;" horiz-adv-x="0" 
d="M-506 1270l-164 -136q-31 -28 -74 -28q-39 0 -68 30q-30 29 -30 68q0 47 44 84l254 212q19 16 38 16t38 -16l254 -212q44 -37 44 -84q0 -39 -29 -68q-30 -30 -69 -30q-43 0 -74 28z" />
    <glyph glyph-name="tildecomb" unicode="&#x303;" horiz-adv-x="0" 
d="M-536 1216q-47 38 -82 38q-30 0 -50 -42q-11 -24 -35 -40q-25 -16 -53 -16q-37 0 -65 27q-27 28 -27 65q0 16 6 34q24 78 80 125q56 45 124 45q78 0 162 -68q48 -38 82 -38q30 0 50 42q11 24 35 40q25 16 53 16q38 0 65 -27t27 -65q0 -16 -6 -34q-24 -78 -80 -125
q-56 -45 -124 -45q-78 0 -162 68z" />
    <glyph glyph-name="uni0304" unicode="&#x304;" horiz-adv-x="0" 
d="M-776 1372q31 30 74 30h408q44 0 74 -30t30 -74q0 -43 -30 -74q-30 -30 -74 -30h-408q-43 0 -74 30q-30 31 -30 74q0 44 30 74z" />
    <glyph glyph-name="uni0306" unicode="&#x306;" horiz-adv-x="0" 
d="M-674 1162q-78 49 -114 134q-12 32 -12 58q0 42 27 71t69 29q75 0 110 -76q28 -62 90 -62t90 62q33 76 110 76q42 0 69 -29t27 -71q0 -26 -12 -58q-36 -85 -113 -134q-77 -48 -171 -48t-170 48z" />
    <glyph glyph-name="uni0307" unicode="&#x307;" horiz-adv-x="0" 
d="M-590 1394q39 40 96 40t97 -40q39 -40 39 -96t-39 -96q-40 -40 -97 -40t-96 40q-40 40 -40 96t40 96z" />
    <glyph glyph-name="uni0308" unicode="&#x308;" horiz-adv-x="0" 
d="M-802 1394q39 40 96 40t97 -40q39 -40 39 -96t-39 -96q-40 -40 -97 -40t-96 40q-40 40 -40 96t40 96zM-402 1394q39 40 96 40t97 -40q39 -40 39 -96t-39 -96q-40 -40 -97 -40t-96 40q-40 40 -40 96t40 96z" />
    <glyph glyph-name="hookabovecomb" unicode="&#x309;" horiz-adv-x="0" 
d="M-688 1432q68 74 174 74q80 0 132 -47q50 -46 50 -115q0 -105 -102 -146v-16q0 -34 -25 -59q-24 -25 -59 -25q-34 0 -59 25t-25 59v34q0 35 34 44q68 16 68 60q0 40 -42 40q-28 0 -52 -24q-22 -22 -50 -22q-27 0 -46 20q-20 19 -20 46q0 30 22 52z" />
    <glyph glyph-name="uni030A" unicode="&#x30a;" horiz-adv-x="0" 
d="M-343 1142q-66 -62 -159 -62t-159 62q-67 63 -67 156t67 156q66 62 159 62t159 -62q67 -63 67 -156t-67 -156zM-446 1354q-23 22 -56 22t-55 -22q-23 -23 -23 -56t23 -55q22 -23 55 -23t56 23q22 22 22 55t-22 56z" />
    <glyph glyph-name="uni030C" unicode="&#x30c;" horiz-adv-x="0" 
d="M-342 1458q31 28 74 28q39 0 69 -29q29 -30 29 -69q0 -47 -44 -84l-254 -212q-19 -16 -38 -16t-38 16l-254 212q-44 37 -44 84q0 39 30 69q29 29 68 29q43 0 74 -28l164 -136z" />
    <glyph glyph-name="uni031B" unicode="&#x31b;" horiz-adv-x="0" 
d="M0 598zM-199 766l94 394q12 48 55 81t95 33q64 0 110 -45q46 -46 46 -109q0 -31 -8 -52l-148 -388q-30 -82 -116 -82q-54 0 -92 34q-42 36 -42 92q0 12 6 42z" />
    <glyph glyph-name="dotbelowcomb" unicode="&#x323;" horiz-adv-x="0" 
d="M-598 -232q39 40 96 40t97 -40q39 -40 39 -96t-39 -96q-40 -40 -97 -40t-96 40q-40 40 -40 96t40 96z" />
    <glyph glyph-name="uni03A9" unicode="&#x3a9;" horiz-adv-x="1624" 
d="M1334 1241q202 -179 202 -445q0 -163 -82 -299q-75 -124 -206 -207h164q60 0 102 -43t42 -103t-42 -102t-102 -42h-354q-60 0 -102 42t-42 102v40q0 56 20 93q19 35 68 75q186 152 186 374q0 164 -111 276q-109 110 -265 110t-265 -110q-111 -112 -111 -276
q0 -222 186 -374q49 -40 68 -75q20 -37 20 -93v-40q0 -60 -42 -102t-102 -42h-354q-60 0 -102 42t-42 102t42 103t102 43h164q-131 83 -205 207q-83 136 -83 299q0 266 202 445q206 183 522 183t522 -183z" />
    <glyph glyph-name="pi" unicode="&#x3c0;" horiz-adv-x="1286" 
d="M174 186q92 234 92 498h-108q-52 0 -89 37t-37 89q0 51 37 89q37 37 89 37h946q52 0 89 -37q37 -38 37 -89q0 -52 -37 -89q-36 -37 -89 -37h-122v-326q0 -116 74 -116q19 0 34 6q28 8 46 8q53 0 90 -38q38 -37 38 -90q0 -80 -72 -114q-79 -38 -192 -38q-147 0 -237 102
q-85 96 -85 240v366h-108q0 -342 -102 -594q-20 -50 -61 -81q-43 -33 -97 -33q-64 0 -106 40q-44 41 -44 106q0 29 14 64z" />
    <glyph glyph-name="uni0400" unicode="&#x400;" horiz-adv-x="1024" 
d="M788 1400q66 0 110 -44q44 -45 44 -114q0 -66 -44 -110t-110 -44h-308v-188h264q66 0 110 -44q44 -45 44 -114q0 -66 -44 -110t-110 -44h-264v-276h326q66 0 110 -44q44 -45 44 -114q0 -66 -44 -110t-110 -44h-500q-72 0 -123 51t-51 123v1052q0 72 51 123t123 51h482z
M320 1883q31 31 70 31q37 0 68 -24l256 -212q38 -31 38 -80q0 -39 -29 -68q-29 -30 -71 -30q-35 0 -66 24l-256 206q-42 32 -42 80q0 42 32 73z" />
    <glyph glyph-name="uni0401" unicode="&#x401;" horiz-adv-x="1024" 
d="M788 1400q66 0 110 -44q44 -45 44 -114q0 -66 -44 -110t-110 -44h-308v-188h264q66 0 110 -44q44 -45 44 -114q0 -66 -44 -110t-110 -44h-264v-276h326q66 0 110 -44q44 -45 44 -114q0 -66 -44 -110t-110 -44h-500q-72 0 -123 51t-51 123v1052q0 72 51 123t123 51h482z
M226 1802q39 40 96 40t97 -40q39 -40 39 -96t-39 -96q-40 -40 -97 -40t-96 40q-40 40 -40 96t40 96zM626 1802q39 40 96 40t97 -40q39 -40 39 -96t-39 -96q-40 -40 -97 -40t-96 40q-40 40 -40 96t40 96z" />
    <glyph glyph-name="uni0402" unicode="&#x402;" horiz-adv-x="1364" 
d="M1197 120q-126 -144 -307 -144q-67 0 -110 41q-42 40 -42 101q0 103 106 144q53 21 89 70q37 50 37 102q0 64 -43 105t-109 41q-89 0 -156 -46v-384q0 -73 -51 -124q-51 -50 -125 -50q-73 0 -124 50q-50 51 -50 124v948h-140q-63 0 -106 44q-44 43 -44 106t44 108
q43 44 106 44h674q63 0 107 -44q43 -45 43 -108t-43 -106q-44 -44 -107 -44h-184v-294q106 66 242 66q173 0 293 -117q123 -122 123 -307q0 -187 -123 -326z" />
    <glyph glyph-name="uni0403" unicode="&#x403;" horiz-adv-x="946" 
d="M770 1400q62 0 106 -44t44 -106q0 -61 -44 -106q-44 -44 -106 -44h-290v-950q0 -72 -51 -123t-123 -51t-123 51t-51 123v1100q0 62 44 106q45 44 106 44h488zM720 1730l-256 -206q-31 -24 -66 -24q-41 0 -71 30q-29 29 -29 68q0 49 38 80l256 212q31 24 68 24
q40 0 71 -31t31 -73q0 -48 -42 -80z" />
    <glyph glyph-name="uni0404" unicode="&#x404;" horiz-adv-x="1462" 
d="M300 1221q216 203 518 203q308 0 520 -192q64 -60 64 -132q0 -69 -46 -115q-47 -47 -116 -47q-70 0 -130 60q-121 114 -284 114q-126 0 -228 -72q-100 -71 -144 -188h472q63 0 108 -44q44 -45 44 -108t-44 -107q-45 -45 -108 -45h-472q44 -118 144 -188q101 -72 228 -72
q163 0 284 114q60 60 130 60q69 0 116 -46q46 -47 46 -116q0 -72 -64 -132q-212 -192 -520 -192q-302 0 -518 203q-222 210 -222 521t222 521z" />
    <glyph glyph-name="uni0405" unicode="&#x405;" horiz-adv-x="1126" 
d="M612 1126q-116 0 -116 -86q0 -45 42 -79q44 -37 164 -85q350 -141 350 -466q0 -196 -126 -313q-130 -121 -360 -121q-271 0 -456 166q-50 44 -50 118q0 63 47 110q46 46 109 46q47 0 98 -40q104 -86 226 -86q75 0 120 36q44 35 44 92q0 63 -39 104q-41 43 -147 84
q-195 77 -282 182q-88 105 -88 262q0 159 114 264q118 110 308 110q186 0 336 -104q66 -49 66 -122q0 -59 -41 -101q-41 -43 -99 -43q-47 0 -96 30q-65 42 -124 42z" />
    <glyph glyph-name="uni0406" unicode="&#x406;" horiz-adv-x="644" 
d="M496 150q0 -72 -51 -123t-123 -51t-123 51t-51 123v1100q0 72 51 123t123 51t123 -51t51 -123v-1100z" />
    <glyph glyph-name="uni0407" unicode="&#x407;" horiz-adv-x="644" 
d="M496 150q0 -72 -51 -123t-123 -51t-123 51t-51 123v1100q0 72 51 123t123 51t123 -51t51 -123v-1100zM26 1802q39 40 96 40t97 -40q39 -40 39 -96t-39 -96q-40 -40 -97 -40t-96 40q-40 40 -40 96t40 96zM426 1802q39 40 96 40t97 -40q39 -40 39 -96t-39 -96
q-40 -40 -97 -40t-96 40q-40 40 -40 96t40 96z" />
    <glyph glyph-name="uni0408" unicode="&#x408;" horiz-adv-x="1036" 
d="M46 385q44 39 108 39q77 0 136 -76q47 -60 124 -60q142 0 142 186v776q0 72 51 123t123 51t123 -51t51 -123v-790q0 -229 -128 -358q-125 -126 -340 -126q-251 0 -398 188q-38 48 -38 112q0 67 46 109z" />
    <glyph glyph-name="uni0409" unicode="&#x409;" horiz-adv-x="1910" 
d="M304 1228q6 73 55 122q50 50 121 50h624q72 0 123 -51t51 -123v-302h54q252 0 399 -134q139 -127 139 -328t-139 -328q-147 -134 -399 -134h-228q-72 0 -123 51t-51 123v924h-286l-32 -398q-34 -432 -222 -660q-51 -64 -138 -64q-69 0 -116 43q-48 45 -48 115
q0 55 30 102q120 175 140 422zM1278 292h56q88 0 138 43q50 44 50 127t-50 127q-50 43 -138 43h-56v-340z" />
    <glyph glyph-name="uni040A" unicode="&#x40a;" horiz-adv-x="1834" 
d="M1202 292h56q88 0 138 43q50 44 50 127t-50 127q-50 43 -138 43h-56v-340zM132 1250q0 72 51 123t123 51t123 -51t51 -123v-356h374v356q0 72 51 123t123 51t123 -51t51 -123v-326h54q252 0 399 -134q139 -127 139 -328t-139 -328q-147 -134 -399 -134h-228
q-72 0 -123 51t-51 123v418h-374v-442q0 -72 -51 -123t-123 -51t-123 51t-51 123v1100z" />
    <glyph glyph-name="uni040B" unicode="&#x40b;" horiz-adv-x="1364" 
d="M1290 150q0 -73 -51 -124q-51 -50 -125 -50q-73 0 -124 50q-50 51 -50 124v254q0 81 -39 124q-38 42 -107 42q-81 0 -132 -36v-384q0 -73 -51 -124q-51 -50 -125 -50q-73 0 -124 50q-50 51 -50 124v948h-140q-63 0 -106 44q-44 43 -44 106t44 108q43 44 106 44h674
q63 0 107 -44q43 -45 43 -108t-43 -106q-44 -44 -107 -44h-184v-292q104 64 240 64q175 0 280 -113q108 -117 108 -315v-292z" />
    <glyph glyph-name="uni040C" unicode="&#x40c;" horiz-adv-x="1330" 
d="M480 656v-506q0 -72 -51 -123t-123 -51t-123 51t-51 123v1100q0 72 51 123t123 51t123 -51t51 -123v-474l448 582q53 66 130 66q68 0 116 -48t48 -116q0 -63 -46 -112l-356 -430l400 -472q36 -45 36 -104q0 -69 -48 -116q-49 -48 -118 -48q-84 0 -134 66zM860 1730
l-256 -206q-31 -24 -66 -24q-41 0 -71 30q-29 29 -29 68q0 49 38 80l256 212q31 24 68 24q40 0 71 -31t31 -73q0 -48 -42 -80z" />
    <glyph glyph-name="uni040D" unicode="&#x40d;" horiz-adv-x="1466" 
d="M480 646v604q0 72 -51 123t-123 51t-123 -51t-51 -123v-1154q0 -56 30 -88q29 -32 78 -32q64 0 106 48l640 730v-604q0 -72 51 -123t123 -51t123 51t51 123v1154q0 56 -30 89q-29 31 -78 31q-64 0 -106 -48zM530 1883q31 31 70 31q37 0 68 -24l256 -212q38 -31 38 -80
q0 -39 -29 -68q-29 -30 -71 -30q-35 0 -66 24l-256 206q-42 32 -42 80q0 42 32 73z" />
    <glyph glyph-name="uni040E" unicode="&#x40e;" horiz-adv-x="1346" 
d="M122 1374q50 50 118 50q99 0 152 -94l282 -492l290 496q24 39 62 64q41 26 86 26q69 0 120 -50q50 -51 50 -120q0 -41 -20 -78l-654 -1108q-55 -92 -152 -92q-64 0 -114 47q-54 49 -54 121q0 45 20 76l178 294l-392 658q-22 38 -22 82q0 69 50 120zM502 1590
q-78 49 -114 134q-12 32 -12 58q0 42 27 71t69 29q75 0 110 -76q28 -62 90 -62t90 62q33 76 110 76q42 0 69 -29t27 -71q0 -26 -12 -58q-36 -85 -113 -134q-77 -48 -171 -48t-170 48z" />
    <glyph glyph-name="uni040F" unicode="&#x40f;" horiz-adv-x="1356" 
d="M504 0h-198q-72 0 -123 51t-51 123v1076q0 72 51 123t123 51t123 -51t51 -123v-950h396v950q0 72 51 123t123 51t123 -51t51 -123v-1076q0 -72 -51 -123t-123 -51h-198v-102q0 -72 -51 -123t-123 -51t-123 51t-51 123v102z" />
    <glyph glyph-name="uni0410" unicode="&#x410;" horiz-adv-x="1368" 
d="M808 1334l482 -1112q18 -43 18 -82q0 -69 -47 -116q-48 -48 -117 -48q-117 0 -166 118l-50 124h-488l-50 -124q-49 -118 -166 -118q-69 0 -116 48q-48 47 -48 116q0 39 18 82l482 1112q39 90 124 90t124 -90zM552 494h264l-132 326z" />
    <glyph glyph-name="uni0411" unicode="&#x411;" horiz-adv-x="1126" 
d="M480 292h56q88 0 138 43q50 44 50 127t-50 127q-50 43 -138 43h-56v-340zM480 1122v-198h54q252 0 399 -134q139 -127 139 -328t-139 -328q-147 -134 -399 -134h-228q-72 0 -123 51t-51 123v1052q0 72 51 123t123 51h534q59 0 99 -41q41 -40 41 -99q0 -58 -41 -98
q-40 -40 -99 -40h-360z" />
    <glyph glyph-name="uni0412" unicode="&#x412;" horiz-adv-x="1156" 
d="M480 298h46q190 0 190 152t-190 152h-46v-304zM480 878h58q138 0 138 112t-138 112h-58v-224zM512 1400q229 0 362 -106q128 -103 128 -270q0 -177 -152 -278q115 -44 176 -132q62 -90 62 -214q0 -177 -142 -285q-152 -115 -428 -115h-212q-72 0 -123 51t-51 123v1052
q0 72 51 123t123 51h206z" />
    <glyph glyph-name="uni0413" unicode="&#x413;" horiz-adv-x="946" 
d="M770 1400q62 0 106 -44t44 -106q0 -61 -44 -106q-44 -44 -106 -44h-290v-950q0 -72 -51 -123t-123 -51t-123 51t-51 123v1100q0 62 44 106q45 44 106 44h488z" />
    <glyph glyph-name="uni0414" unicode="&#x414;" horiz-adv-x="1342" 
d="M834 300v800h-222q-16 -472 -146 -800h368zM302 1224q2 73 52 124q51 52 122 52h522q72 0 123 -51t51 -123v-926q55 -17 89 -62q35 -46 35 -104v-236q0 -72 -51 -123t-123 -51t-123 51t-51 123v102h-580v-102q0 -72 -51 -123t-123 -51t-123 51t-51 123v242q0 53 30 97
q29 43 76 63q166 390 176 924z" />
    <glyph glyph-name="uni0415" unicode="&#x415;" horiz-adv-x="1024" 
d="M788 1400q66 0 110 -44q44 -45 44 -114q0 -66 -44 -110t-110 -44h-308v-188h264q66 0 110 -44q44 -45 44 -114q0 -66 -44 -110t-110 -44h-264v-276h326q66 0 110 -44q44 -45 44 -114q0 -66 -44 -110t-110 -44h-500q-72 0 -123 51t-51 123v1052q0 72 51 123t123 51h482z
" />
    <glyph glyph-name="uni0416" unicode="&#x416;" horiz-adv-x="1992" 
d="M873 27q-51 51 -51 123v506l-444 -608q-52 -72 -140 -72q-67 0 -116 48q-48 49 -48 116q0 59 32 100l364 478l-322 438q-36 48 -36 108q0 68 47 115q47 45 115 45q87 0 138 -72l410 -576v474q0 72 51 123t123 51t123 -51t51 -123v-474l410 576q51 72 138 72q68 0 115 -45
q47 -47 47 -115q0 -60 -36 -108l-322 -438l364 -478q32 -41 32 -100q0 -67 -48 -116q-48 -48 -116 -48q-88 0 -140 72l-444 608v-506q0 -72 -51 -123t-123 -51t-123 51z" />
    <glyph glyph-name="uni0417" unicode="&#x417;" horiz-adv-x="1128" 
d="M107 380q44 44 107 44q68 0 116 -54q82 -94 196 -94q77 0 130 50q52 48 52 118q0 78 -53 126q-55 50 -145 50h-8q-57 0 -95 39q-39 38 -39 95t39 97q38 39 91 39q64 0 107 38t43 94q0 52 -34 86q-36 34 -92 34q-92 0 -156 -88q-40 -56 -114 -56q-57 0 -96 40
q-40 39 -40 96q0 52 32 90q158 200 404 200q182 0 299 -106q111 -101 111 -246q0 -178 -154 -274q113 -50 178 -143q70 -100 70 -233q0 -189 -138 -315q-143 -131 -368 -131q-277 0 -446 190q-42 49 -42 106q0 63 45 108z" />
    <glyph glyph-name="uni0418" unicode="&#x418;" horiz-adv-x="1466" 
d="M1120 1376q42 48 106 48q49 0 78 -31q30 -33 30 -89v-1154q0 -72 -51 -123t-123 -51t-123 51t-51 123v604l-640 -730q-42 -48 -106 -48q-49 0 -78 32q-30 32 -30 88v1154q0 72 51 123t123 51t123 -51t51 -123v-604z" />
    <glyph glyph-name="uni0419" unicode="&#x419;" horiz-adv-x="1466" 
d="M480 646v604q0 72 -51 123t-123 51t-123 -51t-51 -123v-1154q0 -56 30 -88q29 -32 78 -32q64 0 106 48l640 730v-604q0 -72 51 -123t123 -51t123 51t51 123v1154q0 56 -30 89q-29 31 -78 31q-64 0 -106 -48zM562 1590q-78 49 -114 134q-12 32 -12 58q0 42 27 71t69 29
q75 0 110 -76q28 -62 90 -62t90 62q33 76 110 76q42 0 69 -29t27 -71q0 -26 -12 -58q-36 -85 -113 -134q-77 -48 -171 -48t-170 48z" />
    <glyph glyph-name="uni041A" unicode="&#x41a;" horiz-adv-x="1330" 
d="M480 656v-506q0 -72 -51 -123t-123 -51t-123 51t-51 123v1100q0 72 51 123t123 51t123 -51t51 -123v-474l448 582q53 66 130 66q68 0 116 -48t48 -116q0 -63 -46 -112l-356 -430l400 -472q36 -45 36 -104q0 -69 -48 -116q-49 -48 -118 -48q-84 0 -134 66z" />
    <glyph glyph-name="uni041B" unicode="&#x41b;" horiz-adv-x="1454" 
d="M612 700q-34 -432 -222 -660q-51 -64 -138 -64q-69 0 -116 43q-48 45 -48 115q0 55 30 102q120 175 140 422l46 570q6 73 55 122q50 50 121 50h668q72 0 123 -51t51 -123v-1076q0 -72 -51 -123t-123 -51t-123 51t-51 123v948h-330z" />
    <glyph glyph-name="uni041C" unicode="&#x41c;" horiz-adv-x="1968" 
d="M860 66l-262 640l-172 -606q-17 -56 -62 -90q-47 -34 -108 -34q-73 0 -123 50q-49 50 -49 124q0 37 14 82l336 1108q12 38 43 61q32 23 75 23q86 0 120 -84l312 -768l312 768q34 84 120 84q43 0 75 -23q31 -23 43 -61l336 -1108q14 -45 14 -82q0 -74 -49 -124
q-50 -50 -123 -50q-61 0 -107 34t-63 90l-172 606l-262 -640q-35 -90 -124 -90t-124 90z" />
    <glyph glyph-name="uni041D" unicode="&#x41d;" horiz-adv-x="1356" 
d="M876 1250q0 72 51 123t123 51t123 -51t51 -123v-1100q0 -72 -51 -123t-123 -51t-123 51t-51 123v432h-396v-432q0 -72 -51 -123t-123 -51t-123 51t-51 123v1100q0 72 51 123t123 51t123 -51t51 -123v-356h396v356z" />
    <glyph glyph-name="uni041E" unicode="&#x41e;" horiz-adv-x="1656" 
d="M1355 181q-219 -205 -527 -205t-526 205q-224 209 -224 519t224 520q218 204 526 204t527 -204q223 -210 223 -520t-223 -519zM543 406q116 -118 285 -118t285 118q117 119 117 294t-117 294q-116 118 -285 118t-285 -118q-117 -119 -117 -294t117 -294z" />
    <glyph glyph-name="uni041F" unicode="&#x41f;" horiz-adv-x="1356" 
d="M1050 1400q72 0 123 -51t51 -123v-1076q0 -72 -51 -123t-123 -51t-123 51t-51 123v950h-396v-950q0 -72 -51 -123t-123 -51t-123 51t-51 123v1076q0 72 51 123t123 51h744z" />
    <glyph glyph-name="uni0420" unicode="&#x420;" horiz-adv-x="1132" 
d="M480 778h56q188 0 188 160t-188 160h-56v-320zM534 1400q252 0 399 -134q139 -127 139 -328t-139 -328q-147 -134 -399 -134h-54v-326q0 -72 -51 -123t-123 -51t-123 51t-51 123v1076q0 72 51 123t123 51h228z" />
    <glyph glyph-name="uni0421" unicode="&#x421;" horiz-adv-x="1462" 
d="M300 1221q216 203 518 203q308 0 520 -192q64 -60 64 -132q0 -69 -46 -115q-47 -47 -116 -47q-70 0 -130 60q-121 114 -284 114q-166 0 -282 -118q-118 -120 -118 -294t118 -294q116 -118 282 -118q163 0 284 114q60 60 130 60q69 0 116 -46q46 -47 46 -116
q0 -72 -64 -132q-212 -192 -520 -192q-302 0 -518 203q-222 210 -222 521t222 521z" />
    <glyph glyph-name="uni0422" unicode="&#x422;" horiz-adv-x="1064" 
d="M182 1088q-66 0 -110 44t-44 110q0 69 44 114q44 44 110 44h700q66 0 110 -44q44 -45 44 -114q0 -66 -44 -110t-110 -44h-176v-938q0 -72 -51 -123t-123 -51t-123 51t-51 123v938h-176z" />
    <glyph glyph-name="uni0423" unicode="&#x423;" horiz-adv-x="1346" 
d="M122 1374q50 50 118 50q99 0 152 -94l282 -492l290 496q24 39 62 64q41 26 86 26q69 0 120 -50q50 -51 50 -120q0 -41 -20 -78l-654 -1108q-55 -92 -152 -92q-64 0 -114 47q-54 49 -54 121q0 45 20 76l178 294l-392 658q-22 38 -22 82q0 69 50 120z" />
    <glyph glyph-name="uni0424" unicode="&#x424;" horiz-adv-x="1790" 
d="M720 956h-50q-115 0 -189 -68q-77 -71 -77 -188t77 -188q74 -68 189 -68h50v512zM720 154h-44q-258 0 -430 149q-178 154 -178 397t178 397q172 149 430 149h44v2q0 74 50 125q51 51 124 51q74 0 125 -51t51 -125v-2h44q258 0 430 -149q178 -154 178 -397t-178 -397
q-172 -149 -430 -149h-44v-2q0 -73 -51 -125q-51 -51 -125 -51q-73 0 -124 51q-50 51 -50 125v2zM1070 444h50q115 0 189 68q77 71 77 188t-77 188q-74 68 -189 68h-50v-512z" />
    <glyph glyph-name="uni0425" unicode="&#x425;" horiz-adv-x="1344" 
d="M672 462l-292 -420q-45 -66 -136 -66q-72 0 -120 48t-48 120q0 54 32 102l342 482l-298 428q-34 48 -34 104q0 69 49 117q48 47 119 47q86 0 136 -70l250 -362l250 362q50 70 136 70q71 0 119 -47q49 -48 49 -117q0 -56 -34 -104l-298 -428l342 -482q32 -48 32 -102
q0 -72 -48 -120t-120 -48q-91 0 -136 66z" />
    <glyph glyph-name="uni0426" unicode="&#x426;" horiz-adv-x="1394" 
d="M1348 -102q0 -72 -51 -123t-123 -51t-123 51t-51 123v102h-694q-72 0 -123 51t-51 123v1076q0 72 51 123t123 51t123 -51t51 -123v-950h396v950q0 72 51 123t123 51t123 -51t51 -123v-956q124 -42 124 -168v-228z" />
    <glyph glyph-name="uni0427" unicode="&#x427;" horiz-adv-x="1228" 
d="M748 590q-96 -62 -240 -62q-170 0 -281 110q-119 118 -119 318v294q0 72 51 123t123 51t123 -51t51 -123v-196q0 -224 170 -224q75 0 122 28v392q0 72 51 123t123 51t123 -51t51 -123v-1100q0 -72 -51 -123t-123 -51t-123 51t-51 123v440z" />
    <glyph glyph-name="uni0428" unicode="&#x428;" horiz-adv-x="1940" 
d="M1460 1250q0 72 51 123t123 51t123 -51t51 -123v-1076q0 -72 -51 -123t-123 -51h-1328q-72 0 -123 51t-51 123v1076q0 72 51 123t123 51t123 -51t51 -123v-950h316v950q0 72 51 123t123 51t123 -51t51 -123v-950h316v950z" />
    <glyph glyph-name="uni0429" unicode="&#x429;" horiz-adv-x="1978" 
d="M306 0q-72 0 -123 51t-51 123v1076q0 72 51 123t123 51t123 -51t51 -123v-950h316v950q0 72 51 123t123 51t123 -51t51 -123v-950h316v950q0 72 51 123t123 51t123 -51t51 -123v-956q124 -42 124 -168v-228q0 -72 -51 -123t-123 -51t-123 51t-51 123v102h-1278z" />
    <glyph glyph-name="uni042A" unicode="&#x42a;" horiz-adv-x="1298" 
d="M666 292h56q88 0 138 43q50 44 50 127t-50 127q-50 43 -138 43h-56v-340zM492 1400q72 0 123 -51t51 -123v-302h54q252 0 399 -134q139 -127 139 -328t-139 -328q-147 -134 -399 -134h-228q-72 0 -123 51t-51 123v924h-152q-63 0 -106 44q-44 43 -44 106t44 108
q43 44 106 44h326z" />
    <glyph glyph-name="uni042B" unicode="&#x42b;" horiz-adv-x="1718" 
d="M480 924h54q252 0 399 -134q139 -127 139 -328t-139 -328q-147 -134 -399 -134h-228q-72 0 -123 51t-51 123v1076q0 72 51 123t123 51t123 -51t51 -123v-326zM480 292h56q88 0 138 43q50 44 50 127t-50 127q-50 43 -138 43h-56v-340zM1574 150q0 -72 -51 -123t-123 -51
t-123 51t-51 123v1100q0 72 51 123t123 51t123 -51t51 -123v-1100z" />
    <glyph glyph-name="uni042C" unicode="&#x42c;" horiz-adv-x="1112" 
d="M480 924h54q252 0 399 -134q139 -127 139 -328t-139 -328q-147 -134 -399 -134h-228q-72 0 -123 51t-51 123v1076q0 72 51 123t123 51t123 -51t51 -123v-326zM480 292h56q88 0 138 43q50 44 50 127t-50 127q-50 43 -138 43h-56v-340z" />
    <glyph glyph-name="uni042D" unicode="&#x42d;" horiz-adv-x="1462" 
d="M1162 179q-216 -203 -518 -203q-308 0 -520 192q-64 60 -64 132q0 69 47 116q46 46 115 46q70 0 130 -60q121 -114 284 -114q127 0 228 72q100 70 144 188h-472q-63 0 -107 45q-45 44 -45 107t45 108q44 44 107 44h472q-44 117 -144 188q-102 72 -228 72
q-163 0 -284 -114q-60 -60 -130 -60q-69 0 -115 47q-47 46 -47 115q0 72 64 132q212 192 520 192q302 0 518 -203q222 -210 222 -521t-222 -521z" />
    <glyph glyph-name="uni042E" unicode="&#x42e;" horiz-adv-x="2212" 
d="M480 856h170q55 251 263 410q206 158 471 158q308 0 527 -204q223 -210 223 -520t-223 -519q-219 -205 -527 -205q-266 0 -471 157q-208 159 -263 411h-170v-394q0 -72 -51 -123t-123 -51t-123 51t-51 123v1100q0 72 51 123t123 51t123 -51t51 -123v-394zM1099 406
q116 -118 285 -118t285 118q117 119 117 294t-117 294q-116 118 -285 118t-285 -118q-117 -119 -117 -294t117 -294z" />
    <glyph glyph-name="uni042F" unicode="&#x42f;" horiz-adv-x="1220" 
d="M914 1400q72 0 123 -51t51 -123v-1076q0 -72 -51 -123t-123 -51t-123 51t-51 123v384l-334 -488q-50 -70 -132 -70q-70 0 -115 42q-47 42 -47 110q0 50 32 96l244 338q-106 52 -167 145q-65 101 -65 231q0 209 138 336q138 126 362 126h258zM740 1108h-48q-88 0 -137 -43
q-51 -44 -51 -127t51 -127q49 -43 137 -43h48v340z" />
    <glyph glyph-name="uni0430" unicode="&#x430;" horiz-adv-x="1284" 
d="M1166 134q0 -66 -46 -112t-112 -46q-64 0 -109 42q-44 42 -49 104q-45 -63 -123 -102q-87 -44 -187 -44q-196 0 -330 142q-136 142 -136 350t136 350q134 142 330 142q100 0 187 -44q78 -39 123 -102q5 62 49 104q45 42 109 42q66 0 112 -46t46 -112v-668zM774 625
q-64 63 -156 63t-156 -63q-64 -64 -64 -157t64 -156q64 -64 156 -64t156 64q64 63 64 156t-64 157z" />
    <glyph glyph-name="uni0431" unicode="&#x431;" horiz-adv-x="1206" 
d="M988 119q-150 -143 -372 -143q-233 0 -376 154q-150 161 -150 440q0 414 162 632q176 238 572 286q66 9 113 -35q43 -42 43 -103q0 -56 -38 -95q-39 -40 -96 -41q-193 -32 -286 -120q-87 -82 -96 -220q79 66 216 66q195 0 327 -139q129 -137 129 -333q0 -207 -148 -349z
M757 615q-60 57 -141 57t-141 -57q-63 -60 -63 -147t63 -147q60 -57 141 -57t141 57q63 60 63 147t-63 147z" />
    <glyph glyph-name="uni0432" unicode="&#x432;" horiz-adv-x="1002" 
d="M546 216q51 0 81 22q31 24 31 66q0 41 -31 64q-30 22 -81 22h-130v-174h130zM584 703q-23 17 -62 17h-106v-138h106q86 0 86 70q0 32 -24 51zM564 936q147 0 236 -76q80 -68 80 -164q0 -124 -108 -184q82 -26 131 -86q51 -63 51 -148q0 -125 -92 -201q-94 -77 -250 -77
h-336q-66 0 -112 46t-46 112v620q0 66 46 112t112 46h288z" />
    <glyph glyph-name="uni0433" unicode="&#x433;" horiz-adv-x="812" 
d="M434 684v-550q0 -66 -46 -112t-112 -46t-112 46t-46 112v644q0 66 46 112t112 46h378q53 0 89 -37q37 -36 37 -89q0 -52 -37 -89q-36 -37 -89 -37h-220z" />
    <glyph glyph-name="uni0434" unicode="&#x434;" horiz-adv-x="1100" 
d="M658 232v472h-126q-13 -252 -114 -472h240zM24 96q0 46 22 82q22 38 62 54q122 231 138 540q3 71 49 117q45 47 111 47h390q66 0 112 -46t46 -112v-546q49 -16 77 -56q27 -39 27 -88v-166q0 -66 -46 -112t-112 -46t-112 46t-46 112v78h-402v-78q0 -66 -46 -112t-112 -46
t-112 46t-46 112v174z" />
    <glyph glyph-name="uni0435" unicode="&#x435;" horiz-adv-x="1160" 
d="M1061 424q-36 -38 -97 -38h-562q44 -142 210 -142q99 0 172 54q46 34 94 34q61 0 101 -39q39 -39 39 -97q0 -67 -60 -114q-133 -106 -350 -106q-239 0 -390 140q-148 137 -148 352q0 208 151 350q150 142 365 142q195 0 338 -123q144 -124 166 -313q7 -62 -29 -100z
M788 590q-20 54 -70 87q-53 35 -122 35t-121 -35q-51 -33 -71 -87h384z" />
    <glyph glyph-name="uni0436" unicode="&#x436;" horiz-adv-x="1716" 
d="M746 22q-46 46 -46 112v272l-330 -378q-45 -52 -112 -52q-60 0 -100 40t-40 100q0 56 52 112l244 264l-222 232q-34 37 -34 94q0 60 40 101t100 41q66 0 110 -50l292 -332v224q0 66 46 112t112 46t112 -46t46 -112v-224l292 332q44 50 110 50q60 0 100 -41t40 -101
q0 -57 -34 -94l-222 -232l244 -264q52 -56 52 -112q0 -60 -40 -100t-100 -40q-66 0 -112 52l-330 378v-272q0 -66 -46 -112t-112 -46t-112 46z" />
    <glyph glyph-name="uni0437" unicode="&#x437;" horiz-adv-x="894" 
d="M120 836q124 124 320 124q155 0 252 -76q90 -71 90 -168q0 -128 -104 -186q77 -32 120 -98q44 -67 44 -156q0 -124 -109 -210q-115 -90 -293 -90q-227 0 -358 128q-40 40 -40 90q0 52 37 89q36 37 87 37q56 0 104 -48q63 -66 142 -66q47 0 81 24q35 25 35 62
q0 100 -138 100h-14q-43 0 -74 30q-30 31 -30 74q0 44 30 75q31 31 74 31h4q110 0 110 74q0 27 -22 46q-24 20 -64 20q-67 0 -116 -56q-34 -44 -90 -44q-46 0 -79 33t-33 79q0 45 34 82z" />
    <glyph glyph-name="uni0438" unicode="&#x438;" horiz-adv-x="1172" 
d="M278 2q-26 -26 -66 -26t-67 27t-27 67v736q0 65 44 109q44 45 108 45q65 0 109 -45q45 -44 45 -109v-322l470 450q26 26 66 26q41 0 67 -27q27 -26 27 -67v-736q0 -64 -45 -109q-44 -45 -109 -45q-64 0 -108 45q-44 44 -44 109v322z" />
    <glyph glyph-name="uni0439" unicode="&#x439;" horiz-adv-x="1172" 
d="M278 2q-26 -26 -66 -26t-67 27t-27 67v736q0 65 44 109q44 45 108 45q65 0 109 -45q45 -44 45 -109v-322l470 450q26 26 66 26q41 0 67 -27q27 -26 27 -67v-736q0 -64 -45 -109q-44 -45 -109 -45q-64 0 -108 45q-44 44 -44 109v322zM416 1142q-78 49 -114 134
q-5 14 -8 28q-4 16 -4 30q0 42 27 71t69 29q75 0 110 -76q28 -62 90 -62t90 62q33 76 110 76q42 0 69 -29t27 -71q0 -26 -12 -58q-36 -85 -113 -134q-77 -48 -171 -48t-170 48z" />
    <glyph glyph-name="uni043A" unicode="&#x43a;" horiz-adv-x="1162" 
d="M118 802q0 66 46 112t112 46t112 -46t46 -112v-224l364 338q47 44 104 44q60 0 101 -41t41 -101q0 -57 -38 -98l-248 -228l278 -274q16 -16 27 -39q13 -28 13 -61q0 -60 -41 -101t-101 -41q-64 0 -110 46l-390 384v-272q0 -66 -46 -112t-112 -46t-112 46t-46 112v668z
" />
    <glyph glyph-name="uni043B" unicode="&#x43b;" horiz-adv-x="1178" 
d="M102 222q75 128 86 254l26 310q6 67 49 108q44 42 109 42h530q66 0 112 -46t46 -112v-644q0 -66 -46 -112t-112 -46t-112 46t-46 112v554h-212l-22 -228q-25 -245 -138 -406q-54 -78 -138 -78q-66 0 -112 46t-46 112q0 44 26 88z" />
    <glyph glyph-name="uni043C" unicode="&#x43c;" horiz-adv-x="1440" 
d="M720 444l224 466q25 50 78 50q56 0 78 -60l272 -728q8 -21 8 -52q0 -60 -42 -102t-102 -42q-102 0 -140 104l-118 338l-182 -394q-24 -48 -76 -48t-76 48l-182 394l-118 -338q-38 -104 -140 -104q-60 0 -102 42t-42 102q0 31 8 52l272 728q22 60 78 60q53 0 78 -50z" />
    <glyph glyph-name="uni043D" unicode="&#x43d;" horiz-adv-x="1140" 
d="M1022 134q0 -66 -46 -112t-112 -46t-112 46t-46 112v238h-272v-238q0 -66 -46 -112t-112 -46t-112 46t-46 112v668q0 66 46 112t112 46t112 -46t46 -112v-178h272v178q0 66 46 112t112 46t112 -46t46 -112v-668z" />
    <glyph glyph-name="uni043E" unicode="&#x43e;" horiz-adv-x="1180" 
d="M960 119q-151 -143 -370 -143t-369 143q-151 143 -151 349t151 349q150 143 369 143t370 -143q150 -143 150 -349t-150 -349zM731 615q-60 57 -141 57t-141 -57q-63 -60 -63 -147t63 -147q60 -57 141 -57t141 57q63 60 63 147t-63 147z" />
    <glyph glyph-name="uni043F" unicode="&#x43f;" horiz-adv-x="1140" 
d="M864 936q66 0 112 -46t46 -112v-644q0 -66 -46 -112t-112 -46t-112 46t-46 112v550h-272v-550q0 -66 -46 -112t-112 -46t-112 46t-46 112v644q0 66 46 112t112 46h588z" />
    <glyph glyph-name="uni0440" unicode="&#x440;" horiz-adv-x="1284" 
d="M118 802q0 66 46 112t112 46q64 0 109 -42q44 -42 49 -104q45 63 124 102q86 44 186 44q196 0 331 -142t135 -350t-135 -350t-331 -142q-100 0 -186 44q-79 39 -124 102v-552q0 -66 -46 -112t-112 -46t-112 46t-46 112v1232zM510 312q64 -64 156 -64t156 64q64 63 64 156
t-64 157q-64 63 -156 63t-156 -63q-64 -64 -64 -157t64 -156z" />
    <glyph glyph-name="uni0441" unicode="&#x441;" horiz-adv-x="1032" 
d="M222 818q150 142 360 142q178 0 314 -98q72 -52 72 -132q0 -60 -43 -103q-44 -43 -107 -43q-50 0 -98 38q-62 50 -136 50q-79 0 -136 -55q-62 -60 -62 -149t62 -148q57 -56 136 -56q74 0 136 50q48 38 98 38q63 0 107 -43q43 -43 43 -103q0 -80 -72 -132
q-136 -98 -314 -98q-210 0 -360 143q-152 144 -152 349t152 350z" />
    <glyph glyph-name="uni0442" unicode="&#x442;" horiz-adv-x="936" 
d="M626 684v-550q0 -66 -46 -112t-112 -46t-112 46t-46 112v550h-152q-52 0 -89 37t-37 89q0 53 37 89q37 37 89 37h620q53 0 89 -37q37 -36 37 -89q0 -52 -37 -89q-36 -37 -89 -37h-152z" />
    <glyph glyph-name="uni0443" unicode="&#x443;" horiz-adv-x="1086" 
d="M532 -488q-17 -44 -57 -72q-41 -28 -91 -28q-63 0 -109 47q-45 45 -45 105q0 28 16 68l152 396l-302 722q-12 27 -12 62q0 63 44 106q43 42 106 42q54 0 93 -28q37 -27 53 -72l164 -456l154 450q38 106 152 106q63 0 108 -42q44 -43 44 -106q0 -26 -12 -62z" />
    <glyph glyph-name="uni0444" unicode="&#x444;" horiz-adv-x="2016" 
d="M1242 312q64 -64 156 -64t156 64q64 63 64 156t-64 157q-64 63 -156 63t-156 -63q-64 -64 -64 -157t64 -156zM774 625q-64 63 -156 63t-156 -63q-64 -64 -64 -157t64 -156q64 -64 156 -64t156 64q64 63 64 156t-64 157zM850 112q-48 -60 -129 -97q-86 -39 -181 -39
q-196 0 -330 142q-136 142 -136 350t136 350q134 142 330 142q95 0 181 -39q81 -37 129 -97v542q0 66 46 112t112 46t112 -46t46 -112v-542q48 60 130 97q85 39 180 39q196 0 331 -142t135 -350t-135 -350t-331 -142q-95 0 -180 39q-82 37 -130 97v-542q0 -66 -46 -112
t-112 -46t-112 46t-46 112v542z" />
    <glyph glyph-name="uni0445" unicode="&#x445;" horiz-adv-x="1040" 
d="M336 36q-43 -60 -116 -60q-58 0 -101 43t-43 101q0 47 30 86l208 278l-182 242q-32 43 -32 90q0 59 44 102q43 42 102 42q75 0 118 -60l156 -214l156 214q43 60 118 60q59 0 102 -42q44 -43 44 -102q0 -47 -32 -90l-182 -242l208 -278q30 -39 30 -86q0 -58 -43 -101
q-42 -43 -101 -43q-73 0 -116 60l-184 246z" />
    <glyph glyph-name="uni0446" unicode="&#x446;" horiz-adv-x="1168" 
d="M810 0h-534q-66 0 -112 46t-46 112v644q0 66 46 112t112 46t112 -46t46 -112v-550h272v550q0 66 46 112t112 46t112 -46t46 -112v-558q104 -44 104 -152v-170q0 -66 -46 -112t-112 -46t-112 46t-46 112v78z" />
    <glyph glyph-name="uni0447" unicode="&#x447;" horiz-adv-x="1106" 
d="M672 292q-83 -50 -208 -50q-155 0 -256 97q-110 106 -110 291v172q0 66 46 112t112 46t112 -46t46 -112v-124q0 -186 154 -186q63 0 104 22v288q0 66 46 112t112 46t112 -46t46 -112v-668q0 -66 -46 -112t-112 -46t-112 46t-46 112v158z" />
    <glyph glyph-name="uni0448" unicode="&#x448;" horiz-adv-x="1640" 
d="M276 0q-66 0 -112 46t-46 112v644q0 66 46 112t112 46t112 -46t46 -112v-550h228v550q0 66 46 112t112 46t112 -46t46 -112v-550h228v550q0 66 46 112t112 46t112 -46t46 -112v-644q0 -66 -46 -112t-112 -46h-1088z" />
    <glyph glyph-name="uni0449" unicode="&#x449;" horiz-adv-x="1668" 
d="M1522 244q104 -44 104 -152v-170q0 -66 -46 -112t-112 -46t-112 46t-46 112v78h-1034q-66 0 -112 46t-46 112v644q0 66 46 112t112 46t112 -46t46 -112v-550h228v550q0 66 46 112t112 46t112 -46t46 -112v-550h228v550q0 66 46 112t112 46t112 -46t46 -112v-558z" />
    <glyph glyph-name="uni044A" unicode="&#x44a;" horiz-adv-x="1132" 
d="M152 684q-52 0 -89 37t-37 89q0 51 37 89q37 37 89 37h266q65 0 109 -45q45 -44 45 -109v-104h118q187 0 298 -97q108 -94 108 -243q0 -147 -112 -242q-114 -96 -294 -96h-268q-66 0 -112 46t-46 112v526h-112zM666 232q57 0 90 29q32 29 32 77q0 50 -32 79
q-33 29 -90 29h-94v-214h94z" />
    <glyph glyph-name="uni044B" unicode="&#x44b;" horiz-adv-x="1500" 
d="M520 232q57 0 90 29q32 29 32 77q0 50 -32 79q-33 29 -90 29h-94v-214h94zM426 678h118q187 0 298 -97q108 -94 108 -243q0 -147 -112 -242q-114 -96 -294 -96h-268q-66 0 -112 46t-46 112v648q0 65 45 109q45 45 109 45q65 0 109 -45q45 -44 45 -109v-128zM1066 802
q0 66 46 112t112 46t112 -46t46 -112v-668q0 -66 -46 -112t-112 -46t-112 46t-46 112v668z" />
    <glyph glyph-name="uni044C" unicode="&#x44c;" horiz-adv-x="986" 
d="M520 232q57 0 90 29q32 29 32 77q0 50 -32 79q-33 29 -90 29h-94v-214h94zM426 678h118q187 0 298 -97q108 -94 108 -243q0 -147 -112 -242q-114 -96 -294 -96h-268q-66 0 -112 46t-46 112v648q0 65 45 109q45 45 109 45q65 0 109 -45q45 -44 45 -109v-128z" />
    <glyph glyph-name="uni044D" unicode="&#x44d;" horiz-adv-x="1030" 
d="M809 119q-149 -143 -359 -143q-195 0 -340 116q-52 42 -52 104q0 53 40 92q39 38 92 38q45 0 98 -40q68 -52 156 -52q148 0 204 122h-258q-46 0 -79 33t-33 79q0 47 33 79q33 33 79 33h258q-56 122 -204 122q-88 0 -156 -52q-53 -40 -98 -40q-53 0 -92 38q-40 39 -40 92
q0 62 52 104q145 116 340 116q210 0 359 -142q151 -144 151 -350t-151 -349z" />
    <glyph glyph-name="uni044E" unicode="&#x44e;" horiz-adv-x="1636" 
d="M118 802q0 66 46 112t112 46t112 -46t46 -112v-212h108q43 163 180 265q140 105 324 105q219 0 370 -143q150 -143 150 -349t-150 -349q-151 -143 -370 -143q-183 0 -323 104q-139 102 -181 264h-108v-210q0 -66 -46 -112t-112 -46t-112 46t-46 112v668zM1187 615
q-60 57 -141 57t-141 -57q-63 -60 -63 -147t63 -147q60 -57 141 -57t141 57q63 60 63 147t-63 147z" />
    <glyph glyph-name="uni044F" unicode="&#x44f;" horiz-adv-x="1022" 
d="M148 216l170 140q-92 39 -147 109q-57 74 -57 163q0 132 96 216q106 92 296 92h246q66 0 111 -46q45 -45 45 -110v-648q0 -65 -45 -110q-45 -46 -111 -46q-64 0 -108 46q-44 45 -44 110v116l-278 -238q-37 -34 -92 -34q-53 0 -92 40q-40 40 -40 94q0 63 50 106zM600 712
h-56q-49 0 -83 -26q-39 -29 -39 -78q0 -51 39 -80q34 -26 83 -26h56v210z" />
    <glyph glyph-name="uni0450" unicode="&#x450;" horiz-adv-x="1160" 
d="M1061 424q-36 -38 -97 -38h-562q44 -142 210 -142q99 0 172 54q46 34 94 34q61 0 101 -39q39 -39 39 -97q0 -67 -60 -114q-133 -106 -350 -106q-239 0 -390 140q-148 137 -148 352q0 208 151 350q150 142 365 142q195 0 338 -123q144 -124 166 -313q7 -62 -29 -100z
M788 590q-20 54 -70 87q-53 35 -122 35t-121 -35q-51 -33 -71 -87h384zM356 1435q31 31 70 31q37 0 68 -24l256 -212q38 -31 38 -80q0 -39 -29 -68q-29 -30 -71 -30q-35 0 -66 24l-256 206q-42 32 -42 80q0 42 32 73z" />
    <glyph glyph-name="uni0451" unicode="&#x451;" horiz-adv-x="1160" 
d="M1061 424q-36 -38 -97 -38h-562q44 -142 210 -142q99 0 172 54q46 34 94 34q61 0 101 -39q39 -39 39 -97q0 -67 -60 -114q-133 -106 -350 -106q-239 0 -390 140q-148 137 -148 352q0 208 151 350q150 142 365 142q195 0 338 -123q144 -124 166 -313q7 -62 -29 -100z
M788 590q-20 54 -70 87q-53 35 -122 35t-121 -35q-51 -33 -71 -87h384zM278 1354q39 40 96 40t97 -40q39 -40 39 -96t-39 -96q-40 -40 -97 -40t-96 40q-40 40 -40 96t40 96zM678 1354q39 40 96 40t97 -40q39 -40 39 -96t-39 -96q-40 -40 -97 -40t-96 40q-40 40 -40 96t40 96
z" />
    <glyph glyph-name="uni0452" unicode="&#x452;" horiz-adv-x="1166" 
d="M738 540q0 64 -41 106q-40 42 -99 42q-56 0 -95 -38q-41 -38 -45 -98v-418q0 -66 -46 -112t-112 -46t-112 46t-46 112v1022h-48q-37 0 -65 27q-27 28 -27 65q0 38 27 65q28 27 65 27h48v26q0 66 46 112t112 46t112 -46t46 -112v-26h232q38 0 65 -27t27 -65q0 -37 -27 -65
q-27 -27 -65 -27h-232v-330q44 58 113 94q78 40 169 40q135 0 223 -91q91 -96 91 -251v-762q0 -202 -92 -310q-94 -110 -270 -110q-150 0 -248 80q-50 40 -50 102q0 54 37 91q36 37 89 37q38 0 68 -18q33 -20 64 -20q86 0 86 108v724z" />
    <glyph glyph-name="uni0453" unicode="&#x453;" horiz-adv-x="812" 
d="M654 684q53 0 89 37q37 37 37 89q0 53 -37 89q-36 37 -89 37h-378q-66 0 -112 -46t-46 -112v-644q0 -66 46 -112t112 -46t112 46t46 112v550h220zM636 1322l-256 -206q-31 -24 -66 -24q-41 0 -71 30q-29 29 -29 68q0 49 38 80l256 212q31 24 68 24q40 0 71 -31t31 -73
q0 -48 -42 -80z" />
    <glyph glyph-name="uni0454" unicode="&#x454;" horiz-adv-x="1030" 
d="M221 818q149 142 359 142q195 0 340 -116q52 -42 52 -104q0 -53 -40 -92q-39 -38 -92 -38q-45 0 -98 40q-68 52 -156 52q-148 0 -204 -122h258q47 0 79 -33q33 -32 33 -79q0 -46 -33 -79q-32 -33 -79 -33h-258q56 -122 204 -122q88 0 156 52q53 40 98 40q53 0 92 -38
q40 -39 40 -92q0 -62 -52 -104q-145 -116 -340 -116q-210 0 -359 143q-151 143 -151 349t151 350z" />
    <glyph glyph-name="uni0455" unicode="&#x455;" horiz-adv-x="824" 
d="M46 168q0 50 33 85q34 35 83 35q40 0 78 -28q57 -44 116 -44q39 0 63 18q23 19 23 50q0 36 -19 59q-21 24 -79 49q-240 101 -240 298q0 119 88 194q88 76 230 76q134 0 244 -70q52 -35 52 -96q0 -51 -33 -83q-31 -31 -79 -31q-28 0 -60 20q-33 20 -66 20q-60 0 -60 -40
q0 -22 21 -39q23 -19 91 -49q226 -100 226 -304q0 -136 -89 -221q-95 -91 -261 -91q-188 0 -312 98q-50 37 -50 94z" />
    <glyph glyph-name="uni0456" unicode="&#x456;" horiz-adv-x="576" 
d="M158 1423q54 53 130 53t130 -53q54 -54 54 -129t-54 -128q-54 -54 -130 -54t-130 54q-54 53 -54 128t54 129zM130 802q0 66 46 112t112 46t112 -46t46 -112v-668q0 -66 -46 -112t-112 -46t-112 46t-46 112v668z" />
    <glyph glyph-name="uni0457" unicode="&#x457;" horiz-adv-x="576" 
d="M130 802q0 66 46 112t112 46t112 -46t46 -112v-668q0 -66 -46 -112t-112 -46t-112 46t-46 112v668zM-8 1354q39 40 96 40t97 -40q39 -40 39 -96t-39 -96q-40 -40 -97 -40t-96 40q-40 40 -40 96t40 96zM392 1354q39 40 96 40t97 -40q39 -40 39 -96t-39 -96
q-40 -40 -97 -40t-96 40q-40 40 -40 96t40 96z" />
    <glyph glyph-name="uni0458" unicode="&#x458;" horiz-adv-x="614" 
d="M-235 -247q38 39 97 39q55 0 98 -40q51 -44 102 -44q116 0 116 162v932q0 66 46 112t112 46t112 -46t46 -112v-936q0 -203 -110 -316q-110 -114 -306 -114q-187 0 -306 116q-46 46 -46 100q0 61 39 101zM206 1423q54 53 130 53t130 -53q54 -54 54 -129t-54 -128
q-54 -54 -130 -54t-130 54q-54 53 -54 128t54 129z" />
    <glyph glyph-name="uni0459" unicode="&#x459;" horiz-adv-x="1582" 
d="M1116 232q57 0 90 29q32 29 32 77q0 50 -32 79q-33 29 -90 29h-74v-214h74zM884 936q66 0 112 -46t46 -112v-100h98q187 0 298 -97q108 -94 108 -243q0 -147 -112 -242q-114 -96 -294 -96h-256q-66 0 -112 46t-46 112v530h-194l-22 -228q-25 -245 -138 -406
q-54 -78 -138 -78q-66 0 -112 46t-46 112q0 44 26 88q75 128 86 254l26 310q6 67 49 108q44 42 109 42h512z" />
    <glyph glyph-name="uni045A" unicode="&#x45a;" horiz-adv-x="1546" 
d="M434 134q0 -66 -46 -112t-112 -46t-112 46t-46 112v668q0 66 46 112t112 46t112 -46t46 -112v-178h256v178q0 66 46 112t112 46t112 -46t46 -112v-124h98q187 0 298 -97q108 -94 108 -243q0 -147 -112 -242q-114 -96 -294 -96h-256q-66 0 -112 46t-46 112v214h-256v-238z
M1080 232q57 0 90 29q32 29 32 77q0 50 -32 79q-33 29 -90 29h-74v-214h74z" />
    <glyph glyph-name="uni045B" unicode="&#x45b;" horiz-adv-x="1166" 
d="M458 1156v-330q44 58 113 94q78 40 169 40q135 0 223 -91q91 -96 91 -251v-484q0 -66 -46 -112t-112 -46t-112 46t-46 112v406q0 64 -41 106q-40 42 -99 42q-56 0 -95 -38q-41 -38 -45 -98v-418q0 -66 -46 -112t-112 -46t-112 46t-46 112v1022h-48q-37 0 -65 27
q-27 28 -27 65q0 38 27 65q28 27 65 27h48v26q0 66 46 112t112 46t112 -46t46 -112v-26h232q38 0 65 -27t27 -65q0 -37 -27 -65q-27 -27 -65 -27h-232z" />
    <glyph glyph-name="uni045C" unicode="&#x45c;" horiz-adv-x="1162" 
d="M118 802q0 66 46 112t112 46t112 -46t46 -112v-224l364 338q47 44 104 44q60 0 101 -41t41 -101q0 -57 -38 -98l-248 -228l278 -274q16 -16 27 -39q13 -28 13 -61q0 -60 -41 -101t-101 -41q-64 0 -110 46l-390 384v-272q0 -66 -46 -112t-112 -46t-112 46t-46 112v668z
M774 1322l-256 -206q-31 -24 -66 -24q-41 0 -71 30q-29 29 -29 68q0 49 38 80l256 212q31 24 68 24q40 0 71 -31t31 -73q0 -48 -42 -80z" />
    <glyph glyph-name="uni045D" unicode="&#x45d;" horiz-adv-x="1172" 
d="M278 2q-26 -26 -66 -26t-67 27t-27 67v736q0 65 44 109q44 45 108 45q65 0 109 -45q45 -44 45 -109v-322l470 450q26 26 66 26q41 0 67 -27q27 -26 27 -67v-736q0 -64 -45 -109q-44 -45 -109 -45q-64 0 -108 45q-44 44 -44 109v322zM386 1475q31 31 70 31q37 0 68 -24
l256 -212q38 -31 38 -80q0 -39 -29 -68q-29 -30 -71 -30q-35 0 -66 24l-256 206q-42 32 -42 80q0 42 32 73z" />
    <glyph glyph-name="uni045E" unicode="&#x45e;" horiz-adv-x="1086" 
d="M532 -488q-17 -44 -57 -72q-41 -28 -91 -28q-63 0 -109 47q-45 45 -45 105q0 28 16 68l152 396l-302 722q-12 27 -12 62q0 63 44 106q43 42 106 42q54 0 93 -28q37 -27 53 -72l164 -456l154 450q38 106 152 106q63 0 108 -42q44 -43 44 -106q0 -26 -12 -62zM370 1162
q-78 49 -114 134q-12 32 -12 58q0 42 27 71t69 29q75 0 110 -76q28 -62 90 -62t90 62q33 76 110 76q42 0 69 -29t27 -71q0 -26 -12 -58q-36 -85 -113 -134q-77 -48 -171 -48t-170 48z" />
    <glyph glyph-name="uni045F" unicode="&#x45f;" horiz-adv-x="1140" 
d="M728 0v-78q0 -66 -46 -112t-112 -46t-112 46t-46 112v78h-136q-66 0 -112 46t-46 112v644q0 66 46 112t112 46t112 -46t46 -112v-550h272v550q0 66 46 112t112 46t112 -46t46 -112v-644q0 -66 -46 -112t-112 -46h-136z" />
    <glyph glyph-name="uni0490" unicode="&#x490;" horiz-adv-x="946" 
d="M896 1250q0 -61 -44 -106q-44 -44 -106 -44h-266v-950q0 -72 -51 -123t-123 -51t-123 51t-51 123v1100q0 62 44 106q45 44 106 44h276v126q0 70 50 120q49 50 118 50q71 0 120 -50q50 -49 50 -120v-276z" />
    <glyph glyph-name="uni0491" unicode="&#x491;" horiz-adv-x="812" 
d="M460 1044q0 62 43 105q44 43 105 43q62 0 105 -43t43 -105v-234q0 -52 -37 -89q-36 -37 -89 -37h-196v-550q0 -66 -46 -112t-112 -46t-112 46t-46 112v644q0 66 46 112t112 46h184v108z" />
    <glyph glyph-name="Wgrave" unicode="&#x1e80;" horiz-adv-x="2040" 
d="M1142 1332l252 -686l240 658q43 120 162 120q70 0 121 -45q53 -48 53 -121q0 -42 -16 -82l-428 -1112q-35 -88 -122 -88q-91 0 -122 88l-262 720l-262 -720q-31 -88 -122 -88q-87 0 -122 88l-428 1112q-16 40 -16 82q0 73 53 121q51 45 121 45q119 0 162 -120l240 -658
l252 686q34 92 122 92t122 -92zM728 1883q31 31 70 31q37 0 68 -24l256 -212q38 -31 38 -80q0 -39 -29 -68q-29 -30 -71 -30q-35 0 -66 24l-256 206q-42 32 -42 80q0 42 32 73z" />
    <glyph glyph-name="wgrave" unicode="&#x1e81;" horiz-adv-x="1596" 
d="M910 884l176 -406l134 366q19 52 56 83q39 33 90 33q64 0 108 -40q44 -41 44 -102q0 -18 -3 -38q-5 -25 -13 -44l-304 -686q-34 -74 -110 -74q-83 0 -112 74l-178 432l-178 -432q-29 -74 -112 -74q-76 0 -110 74l-304 686q-8 19 -12 44q-4 20 -4 38q0 61 45 102
q43 40 107 40q51 0 90 -33q37 -31 56 -83l134 -366l176 406q33 76 112 76t112 -76zM506 1435q31 31 70 31q37 0 68 -24l256 -212q38 -31 38 -80q0 -39 -29 -68q-29 -30 -71 -30q-35 0 -66 24l-256 206q-42 32 -42 80q0 42 32 73z" />
    <glyph glyph-name="Wacute" unicode="&#x1e82;" horiz-adv-x="2040" 
d="M1142 1332l252 -686l240 658q43 120 162 120q70 0 121 -45q53 -48 53 -121q0 -42 -16 -82l-428 -1112q-35 -88 -122 -88q-91 0 -122 88l-262 720l-262 -720q-31 -88 -122 -88q-87 0 -122 88l-428 1112q-16 40 -16 82q0 73 53 121q51 45 121 45q119 0 162 -120l240 -658
l252 686q34 92 122 92t122 -92zM1302 1730l-256 -206q-31 -24 -66 -24q-41 0 -71 30q-29 29 -29 68q0 49 38 80l256 212q31 24 68 24q40 0 71 -31t31 -73q0 -48 -42 -80z" />
    <glyph glyph-name="wacute" unicode="&#x1e83;" horiz-adv-x="1596" 
d="M910 884l176 -406l134 366q19 52 56 83q39 33 90 33q64 0 108 -40q44 -41 44 -102q0 -18 -3 -38q-5 -25 -13 -44l-304 -686q-34 -74 -110 -74q-83 0 -112 74l-178 432l-178 -432q-29 -74 -112 -74q-76 0 -110 74l-304 686q-8 19 -12 44q-4 20 -4 38q0 61 45 102
q43 40 107 40q51 0 90 -33q37 -31 56 -83l134 -366l176 406q33 76 112 76t112 -76zM1080 1282l-256 -206q-31 -24 -66 -24q-41 0 -71 30q-29 29 -29 68q0 49 38 80l256 212q31 24 68 24q40 0 71 -31t31 -73q0 -48 -42 -80z" />
    <glyph glyph-name="Wdieresis" unicode="&#x1e84;" horiz-adv-x="2040" 
d="M1142 1332l252 -686l240 658q43 120 162 120q70 0 121 -45q53 -48 53 -121q0 -42 -16 -82l-428 -1112q-35 -88 -122 -88q-91 0 -122 88l-262 720l-262 -720q-31 -88 -122 -88q-87 0 -122 88l-428 1112q-16 40 -16 82q0 73 53 121q51 45 121 45q119 0 162 -120l240 -658
l252 686q34 92 122 92t122 -92zM724 1802q39 40 96 40t97 -40q39 -40 39 -96t-39 -96q-40 -40 -97 -40t-96 40q-40 40 -40 96t40 96zM1124 1802q39 40 96 40t97 -40q39 -40 39 -96t-39 -96q-40 -40 -97 -40t-96 40q-40 40 -40 96t40 96z" />
    <glyph glyph-name="wdieresis" unicode="&#x1e85;" horiz-adv-x="1596" 
d="M910 884l176 -406l134 366q19 52 56 83q39 33 90 33q64 0 108 -40q44 -41 44 -102q0 -18 -3 -38q-5 -25 -13 -44l-304 -686q-34 -74 -110 -74q-83 0 -112 74l-178 432l-178 -432q-29 -74 -112 -74q-76 0 -110 74l-304 686q-8 19 -12 44q-4 20 -4 38q0 61 45 102
q43 40 107 40q51 0 90 -33q37 -31 56 -83l134 -366l176 406q33 76 112 76t112 -76zM502 1354q39 40 96 40t97 -40q39 -40 39 -96t-39 -96q-40 -40 -97 -40t-96 40q-40 40 -40 96t40 96zM902 1354q39 40 96 40t97 -40q39 -40 39 -96t-39 -96q-40 -40 -97 -40t-96 40
q-40 40 -40 96t40 96z" />
    <glyph glyph-name="uni1E9E" unicode="&#x1e9e;" horiz-adv-x="1284" 
d="M562 243q41 43 102 43h42q74 0 117 34q45 34 45 96q0 127 -180 160q-55 11 -91 54q-37 44 -37 100q0 51 30 92q28 40 76 58q72 29 72 116q0 52 -35 85q-36 33 -95 33q-63 0 -102 -47q-40 -47 -40 -123v-794q0 -72 -51 -123t-123 -51t-123 51t-51 123v830q0 201 133 323
q133 121 355 121q213 0 345 -106q127 -103 127 -262q0 -94 -52 -171t-138 -113q147 -36 233 -131q93 -104 93 -259q0 -180 -120 -292q-122 -114 -324 -114q-74 0 -140 18q-47 14 -77 52q-31 40 -31 90q0 65 40 107z" />
    <glyph glyph-name="uni1EA0" unicode="&#x1ea0;" horiz-adv-x="1368" 
d="M60 0zM808 1334l482 -1112q18 -43 18 -82q0 -69 -47 -116q-48 -48 -117 -48q-117 0 -166 118l-50 124h-488l-50 -124q-49 -118 -166 -118q-69 0 -116 48q-48 47 -48 116q0 39 18 82l482 1112q39 90 124 90t124 -90zM552 494h264l-132 326zM588 -232q39 40 96 40t97 -40
q39 -40 39 -96t-39 -96q-40 -40 -97 -40t-96 40q-40 40 -40 96t40 96z" />
    <glyph glyph-name="uni1EA1" unicode="&#x1ea1;" horiz-adv-x="1284" 
d="M74 0zM1166 134q0 -66 -46 -112t-112 -46q-64 0 -109 42q-44 42 -49 104q-45 -63 -123 -102q-87 -44 -187 -44q-196 0 -330 142q-136 142 -136 350t136 350q134 142 330 142q100 0 187 -44q78 -39 123 -102q5 62 49 104q45 42 109 42q66 0 112 -46t46 -112v-668zM774 625
q-64 63 -156 63t-156 -63q-64 -64 -64 -157t64 -156q64 -64 156 -64t156 64q64 63 64 156t-64 157zM524 -232q39 40 96 40t97 -40q39 -40 39 -96t-39 -96q-40 -40 -97 -40t-96 40q-40 40 -40 96t40 96z" />
    <glyph glyph-name="uni1EA2" unicode="&#x1ea2;" horiz-adv-x="1368" 
d="M60 0zM808 1334l482 -1112q18 -43 18 -82q0 -69 -47 -116q-48 -48 -117 -48q-117 0 -166 118l-50 124h-488l-50 -124q-49 -118 -166 -118q-69 0 -116 48q-48 47 -48 116q0 39 18 82l482 1112q39 90 124 90t124 -90zM552 494h264l-132 326zM517 1896q68 74 174 74
q80 0 132 -47q50 -46 50 -115q0 -105 -102 -146v-16q0 -34 -25 -59q-24 -25 -59 -25q-34 0 -59 25t-25 59v34q0 35 34 44q68 16 68 60q0 40 -42 40q-28 0 -52 -24q-22 -22 -50 -22q-27 0 -46 20q-20 19 -20 46q0 30 22 52z" />
    <glyph glyph-name="uni1EA3" unicode="&#x1ea3;" horiz-adv-x="1284" 
d="M74 0zM1166 134q0 -66 -46 -112t-112 -46q-64 0 -109 42q-44 42 -49 104q-45 -63 -123 -102q-87 -44 -187 -44q-196 0 -330 142q-136 142 -136 350t136 350q134 142 330 142q100 0 187 -44q78 -39 123 -102q5 62 49 104q45 42 109 42q66 0 112 -46t46 -112v-668zM774 625
q-64 63 -156 63t-156 -63q-64 -64 -64 -157t64 -156q64 -64 156 -64t156 64q64 63 64 156t-64 157zM453 1432q68 74 174 74q80 0 132 -47q50 -46 50 -115q0 -105 -102 -146v-16q0 -34 -25 -59q-24 -25 -59 -25q-34 0 -59 25t-25 59v34q0 35 34 44q68 16 68 60q0 40 -42 40
q-28 0 -52 -24q-22 -22 -50 -22q-27 0 -46 20q-20 19 -20 46q0 30 22 52z" />
    <glyph glyph-name="uni1EA4" unicode="&#x1ea4;" horiz-adv-x="1368" 
d="M60 0zM808 1334l482 -1112q18 -43 18 -82q0 -69 -47 -116q-48 -48 -117 -48q-117 0 -166 118l-50 124h-488l-50 -124q-49 -118 -166 -118q-69 0 -116 48q-48 47 -48 116q0 39 18 82l482 1112q39 90 124 90t124 -90zM552 494h264l-132 326zM348 1514zM348 1514zM684 1678
l-164 -136q-31 -28 -74 -28q-39 0 -68 30q-30 29 -30 68q0 47 44 84l254 212q19 16 38 16t38 -16l254 -212q44 -37 44 -84q0 -39 -29 -68q-30 -30 -69 -30q-43 0 -74 28zM965 1768zM1387 1998l-256 -206q-31 -24 -66 -24q-41 0 -71 30q-29 29 -29 68q0 49 38 80l256 212
q31 24 68 24q40 0 71 -31t31 -73q0 -48 -42 -80z" />
    <glyph glyph-name="uni1EA5" unicode="&#x1ea5;" horiz-adv-x="1284" 
d="M74 0zM1166 134q0 -66 -46 -112t-112 -46q-64 0 -109 42q-44 42 -49 104q-45 -63 -123 -102q-87 -44 -187 -44q-196 0 -330 142q-136 142 -136 350t136 350q134 142 330 142q100 0 187 -44q78 -39 123 -102q5 62 49 104q45 42 109 42q66 0 112 -46t46 -112v-668zM774 625
q-64 63 -156 63t-156 -63q-64 -64 -64 -157t64 -156q64 -64 156 -64t156 64q64 63 64 156t-64 157zM643 1228l-164 -136q-31 -28 -74 -28q-39 0 -68 30q-30 29 -30 68q0 47 44 84l254 212q19 16 38 16t38 -16l254 -212q44 -37 44 -84q0 -39 -29 -68q-30 -30 -69 -30
q-43 0 -74 28zM1323 1637l-256 -206q-31 -24 -66 -24q-41 0 -71 30q-29 29 -29 68q0 49 38 80l256 212q31 24 68 24q40 0 71 -31t31 -73q0 -48 -42 -80z" />
    <glyph glyph-name="uni1EA6" unicode="&#x1ea6;" horiz-adv-x="1368" 
d="M808 1334l482 -1112q18 -43 18 -82q0 -69 -47 -116q-48 -48 -117 -48q-117 0 -166 118l-50 124h-488l-50 -124q-49 -118 -166 -118q-69 0 -116 48q-48 47 -48 116q0 39 18 82l482 1112q39 90 124 90t124 -90zM552 494h264l-132 326zM684 1679l-164 -136q-31 -28 -74 -28
q-39 0 -68 30q-30 29 -30 68q0 47 44 84l254 212q19 16 38 16t38 -16l254 -212q44 -37 44 -84q0 -39 -29 -68q-30 -30 -69 -30q-43 0 -74 28zM-66 2139q31 31 70 31q37 0 68 -24l256 -212q38 -31 38 -80q0 -39 -29 -68q-29 -30 -71 -30q-35 0 -66 24l-256 206q-42 32 -42 80
q0 42 32 73z" />
    <glyph glyph-name="uni1EA7" unicode="&#x1ea7;" horiz-adv-x="1284" 
d="M74 0zM1166 134q0 -66 -46 -112t-112 -46q-64 0 -109 42q-44 42 -49 104q-45 -63 -123 -102q-87 -44 -187 -44q-196 0 -330 142q-136 142 -136 350t136 350q134 142 330 142q100 0 187 -44q78 -39 123 -102q5 62 49 104q45 42 109 42q66 0 112 -46t46 -112v-668zM774 625
q-64 63 -156 63t-156 -63q-64 -64 -64 -157t64 -156q64 -64 156 -64t156 64q64 63 64 156t-64 157zM643 1228l-164 -136q-31 -28 -74 -28q-39 0 -68 30q-30 29 -30 68q0 47 44 84l254 212q19 16 38 16t38 -16l254 -212q44 -37 44 -84q0 -39 -29 -68q-30 -30 -69 -30
q-43 0 -74 28zM656 1854q31 31 70 31q37 0 68 -24l256 -212q38 -31 38 -80q0 -39 -29 -68q-29 -30 -71 -30q-35 0 -66 24l-256 206q-42 32 -42 80q0 42 32 73z" />
    <glyph glyph-name="uni1EA8" unicode="&#x1ea8;" horiz-adv-x="1369" 
d="M60 0zM808 1334l482 -1112q18 -43 18 -82q0 -69 -47 -116q-48 -48 -117 -48q-117 0 -166 118l-50 124h-488l-50 -124q-49 -118 -166 -118q-69 0 -116 48q-48 47 -48 116q0 39 18 82l482 1112q39 90 124 90t124 -90zM552 494h264l-132 326zM345 1515zM345 1515zM681 1679
l-164 -136q-31 -28 -74 -28q-39 0 -68 30q-30 29 -30 68q0 47 44 84l254 212q19 16 38 16t38 -16l254 -212q44 -37 44 -84q0 -39 -29 -68q-30 -30 -69 -30q-43 0 -74 28zM863 2178q68 74 174 74q80 0 132 -47q50 -46 50 -115q0 -105 -102 -146v-16q0 -34 -25 -59
q-24 -25 -59 -25q-34 0 -59 25t-25 59v34q0 35 34 44q68 16 68 60q0 40 -42 40q-28 0 -52 -24q-22 -22 -50 -22q-27 0 -46 20q-20 19 -20 46q0 30 22 52z" />
    <glyph glyph-name="uni1EA9" unicode="&#x1ea9;" horiz-adv-x="1284" 
d="M74 0zM1166 134q0 -66 -46 -112t-112 -46q-64 0 -109 42q-44 42 -49 104q-45 -63 -123 -102q-87 -44 -187 -44q-196 0 -330 142q-136 142 -136 350t136 350q134 142 330 142q100 0 187 -44q78 -39 123 -102q5 62 49 104q45 42 109 42q66 0 112 -46t46 -112v-668zM774 625
q-64 63 -156 63t-156 -63q-64 -64 -64 -157t64 -156q64 -64 156 -64t156 64q64 63 64 156t-64 157zM643 1228l-164 -136q-31 -28 -74 -28q-39 0 -68 30q-30 29 -30 68q0 47 44 84l254 212q19 16 38 16t38 -16l254 -212q44 -37 44 -84q0 -39 -29 -68q-30 -30 -69 -30
q-43 0 -74 28zM734 1734q68 74 174 74q80 0 132 -47q50 -46 50 -115q0 -105 -102 -146v-16q0 -34 -25 -59q-24 -25 -59 -25q-34 0 -59 25t-25 59v34q0 35 34 44q68 16 68 60q0 40 -42 40q-28 0 -52 -24q-22 -22 -50 -22q-27 0 -46 20q-20 19 -20 46q0 30 22 52z" />
    <glyph glyph-name="uni1EAA" unicode="&#x1eaa;" horiz-adv-x="1368" 
d="M60 0zM808 1334l482 -1112q18 -43 18 -82q0 -69 -47 -116q-48 -48 -117 -48q-117 0 -166 118l-50 124h-488l-50 -124q-49 -118 -166 -118q-69 0 -116 48q-48 47 -48 116q0 39 18 82l482 1112q39 90 124 90t124 -90zM552 494h264l-132 326zM348 1515zM348 1515zM684 1679
l-164 -136q-31 -28 -74 -28q-39 0 -68 30q-30 29 -30 68q0 47 44 84l254 212q19 16 38 16t38 -16l254 -212q44 -37 44 -84q0 -39 -29 -68q-30 -30 -69 -30q-43 0 -74 28zM410 1925zM722 1993q-47 38 -82 38q-30 0 -50 -42q-11 -24 -35 -40q-25 -16 -53 -16q-37 0 -65 27
q-27 28 -27 65q0 16 6 34q24 78 80 125q56 45 124 45q78 0 162 -68q48 -38 82 -38q30 0 50 42q11 24 35 40q25 16 53 16q38 0 65 -27t27 -65q0 -16 -6 -34q-24 -78 -80 -125q-56 -45 -124 -45q-78 0 -162 68z" />
    <glyph glyph-name="uni1EAB" unicode="&#x1eab;" horiz-adv-x="1284" 
d="M74 0zM1166 134q0 -66 -46 -112t-112 -46q-64 0 -109 42q-44 42 -49 104q-45 -63 -123 -102q-87 -44 -187 -44q-196 0 -330 142q-136 142 -136 350t136 350q134 142 330 142q100 0 187 -44q78 -39 123 -102q5 62 49 104q45 42 109 42q66 0 112 -46t46 -112v-668zM774 625
q-64 63 -156 63t-156 -63q-64 -64 -64 -157t64 -156q64 -64 156 -64t156 64q64 63 64 156t-64 157zM643 1228l-164 -136q-31 -28 -74 -28q-39 0 -68 30q-30 29 -30 68q0 47 44 84l254 212q19 16 38 16t38 -16l254 -212q44 -37 44 -84q0 -39 -29 -68q-30 -30 -69 -30
q-43 0 -74 28zM717 1563q-47 38 -82 38q-30 0 -50 -42q-11 -24 -35 -40q-25 -16 -53 -16q-37 0 -65 27q-27 28 -27 65q0 16 6 34q24 78 80 125q56 45 124 45q78 0 162 -68q48 -38 82 -38q30 0 50 42q11 24 35 40q25 16 53 16q38 0 65 -27t27 -65q0 -16 -6 -34
q-24 -78 -80 -125q-56 -45 -124 -45q-78 0 -162 68z" />
    <glyph glyph-name="uni1EAC" unicode="&#x1eac;" horiz-adv-x="1368" 
d="M60 0zM808 1334l482 -1112q18 -43 18 -82q0 -69 -47 -116q-48 -48 -117 -48q-117 0 -166 118l-50 124h-488l-50 -124q-49 -118 -166 -118q-69 0 -116 48q-48 47 -48 116q0 39 18 82l482 1112q39 90 124 90t124 -90zM552 494h264l-132 326zM348 1515zM684 1679l-164 -136
q-31 -28 -74 -28q-39 0 -68 30q-30 29 -30 68q0 47 44 84l254 212q19 16 38 16t38 -16l254 -212q44 -37 44 -84q0 -39 -29 -68q-30 -30 -69 -30q-43 0 -74 28zM588 -232q39 40 96 40t97 -40q39 -40 39 -96t-39 -96q-40 -40 -97 -40t-96 40q-40 40 -40 96t40 96z" />
    <glyph glyph-name="uni1EAD" unicode="&#x1ead;" horiz-adv-x="1284" 
d="M74 0zM1166 134q0 -66 -46 -112t-112 -46q-64 0 -109 42q-44 42 -49 104q-45 -63 -123 -102q-87 -44 -187 -44q-196 0 -330 142q-136 142 -136 350t136 350q134 142 330 142q100 0 187 -44q78 -39 123 -102q5 62 49 104q45 42 109 42q66 0 112 -46t46 -112v-668zM774 625
q-64 63 -156 63t-156 -63q-64 -64 -64 -157t64 -156q64 -64 156 -64t156 64q64 63 64 156t-64 157zM643 1228l-164 -136q-31 -28 -74 -28q-39 0 -68 30q-30 29 -30 68q0 47 44 84l254 212q19 16 38 16t38 -16l254 -212q44 -37 44 -84q0 -39 -29 -68q-30 -30 -69 -30
q-43 0 -74 28zM524 -232q39 40 96 40t97 -40q39 -40 39 -96t-39 -96q-40 -40 -97 -40t-96 40q-40 40 -40 96t40 96z" />
    <glyph glyph-name="uni1EAE" unicode="&#x1eae;" horiz-adv-x="1368" 
d="M60 0zM808 1334l482 -1112q18 -43 18 -82q0 -69 -47 -116q-48 -48 -117 -48q-117 0 -166 118l-50 124h-488l-50 -124q-49 -118 -166 -118q-69 0 -116 48q-48 47 -48 116q0 39 18 82l482 1112q39 90 124 90t124 -90zM552 494h264l-132 326zM388 1516zM388 1516zM514 1564
q-78 49 -114 134q-12 32 -12 58q0 42 27 71t69 29q75 0 110 -76q28 -62 90 -62t90 62q33 76 110 76q42 0 69 -29t27 -71q0 -26 -12 -58q-36 -85 -113 -134q-77 -48 -171 -48t-170 48zM611 1881zM1033 2111l-256 -206q-31 -24 -66 -24q-41 0 -71 30q-29 29 -29 68q0 49 38 80
l256 212q31 24 68 24q40 0 71 -31t31 -73q0 -48 -42 -80z" />
    </font>
</defs>
</svg>
